<svg version="1.1" viewBox="0.0 0.0 600.0 371.0" fill="none" stroke="none" stroke-linecap="square" stroke-miterlimit="10" width="600" height="371" xmlns:xlink="http://www.w3.org/1999/xlink" xmlns="http://www.w3.org/2000/svg"><path fill="#ffffff" d="M0 0L600.0 0L600.0 371.0L0 371.0L0 0Z" fill-rule="nonzero"/><path stroke="#333333" stroke-width="1.0" stroke-linecap="butt" d="M77.5 345.5L581.5 345.5" fill-rule="nonzero"/><path stroke="#cccccc" stroke-width="1.0" stroke-linecap="butt" d="M77.5 317.5L581.5 317.5" fill-rule="nonzero"/><path stroke="#cccccc" stroke-width="1.0" stroke-linecap="butt" d="M77.5 288.5L581.5 288.5" fill-rule="nonzero"/><path stroke="#cccccc" stroke-width="1.0" stroke-linecap="butt" d="M77.5 260.5L581.5 260.5" fill-rule="nonzero"/><path stroke="#cccccc" stroke-width="1.0" stroke-linecap="butt" d="M77.5 232.5L581.5 232.5" fill-rule="nonzero"/><path stroke="#cccccc" stroke-width="1.0" stroke-linecap="butt" d="M77.5 203.5L581.5 203.5" fill-rule="nonzero"/><path stroke="#cccccc" stroke-width="1.0" stroke-linecap="butt" d="M77.5 175.5L581.5 175.5" fill-rule="nonzero"/><path stroke="#cccccc" stroke-width="1.0" stroke-linecap="butt" d="M77.5 146.5L581.5 146.5" fill-rule="nonzero"/><path stroke="#cccccc" stroke-width="1.0" stroke-linecap="butt" d="M77.5 118.5L581.5 118.5" fill-rule="nonzero"/><path stroke="#cccccc" stroke-width="1.0" stroke-linecap="butt" d="M77.5 90.5L581.5 90.5" fill-rule="nonzero"/><path stroke="#cccccc" stroke-width="1.0" stroke-linecap="butt" d="M77.5 61.5L581.5 61.5" fill-rule="nonzero"/><clipPath id="id_0"><path d="M77.55 61.916668L581.45 61.916668L581.45 345.45L77.55 345.45L77.55 61.916668Z" clip-rule="nonzero"/></clipPath><path stroke="#434343" stroke-width="2.0" stroke-linecap="butt" clip-path="url(#id_0)" d="M81.89397 146.97667L90.581894 175.33L99.26983 175.33L107.957756 175.33L116.64569 175.33L125.33362 260.39L134.02155 260.39L142.70949 260.39L151.39742 260.39L160.08534 260.39L168.77327 260.39L177.46121 260.39L186.14914 260.39L194.83707 260.39L203.525 260.39L212.21294 260.39L220.90086 260.39L229.58879 260.39L238.27672 260.39L246.96466 260.39L255.65259 260.39L264.3405 260.39L273.02844 260.39L281.71637 260.39L290.4043 317.09668L299.09225 317.09668L307.78018 317.09668L316.4681 317.09668L325.15604 317.09668L333.84396 317.09668L342.5319 317.09668L351.21982 345.45L359.90775 345.45L368.5957 345.45L377.28363 345.45L385.97156 345.45L394.6595 345.45L403.3474 345.45L412.03534 345.45L420.72327 345.45L429.4112 345.45L438.09915 345.45L446.78708 345.45L455.475 345.45L464.16293 345.45L472.85086 345.45L481.5388 345.45L490.2267 345.45L498.91464 345.45L507.6026 345.45L516.2905 345.45L524.97845 345.45L533.6664 345.45L542.3543 345.45L551.04224 345.45L559.73016 345.45L568.4181 345.45L577.106 345.45" fill-rule="nonzero"/><path fill="#434343" clip-path="url(#id_0)" d="M87.89397 146.97667C87.89397 150.29037 85.20767 152.97667 81.89397 152.97667C78.58025 152.97667 75.89397 150.29037 75.89397 146.97667C75.89397 143.66296 78.58025 140.97667 81.89397 140.97667C85.20767 140.97667 87.89397 143.66296 87.89397 146.97667Z" fill-rule="nonzero"/><path fill="#434343" clip-path="url(#id_0)" d="M96.581894 175.33C96.581894 178.6437 93.89561 181.33 90.581894 181.33C87.26819 181.33 84.581894 178.6437 84.581894 175.33C84.581894 172.0163 87.26819 169.33 90.581894 169.33C93.89561 169.33 96.581894 172.0163 96.581894 175.33Z" fill-rule="nonzero"/><path fill="#434343" clip-path="url(#id_0)" d="M105.26983 175.33C105.26983 178.6437 102.583534 181.33 99.26983 181.33C95.956116 181.33 93.26983 178.6437 93.26983 175.33C93.26983 172.0163 95.956116 169.33 99.26983 169.33C102.583534 169.33 105.26983 172.0163 105.26983 175.33Z" fill-rule="nonzero"/><path fill="#434343" clip-path="url(#id_0)" d="M113.957756 175.33C113.957756 178.6437 111.27147 181.33 107.957756 181.33C104.64405 181.33 101.957756 178.6437 101.957756 175.33C101.957756 172.0163 104.64405 169.33 107.957756 169.33C111.27147 169.33 113.957756 172.0163 113.957756 175.33Z" fill-rule="nonzero"/><path fill="#434343" clip-path="url(#id_0)" d="M122.64569 175.33C122.64569 178.6437 119.9594 181.33 116.64569 181.33C113.33198 181.33 110.64569 178.6437 110.64569 175.33C110.64569 172.0163 113.33198 169.33 116.64569 169.33C119.9594 169.33 122.64569 172.0163 122.64569 175.33Z" fill-rule="nonzero"/><path fill="#434343" clip-path="url(#id_0)" d="M131.33362 260.39C131.33362 263.7037 128.64732 266.39 125.33362 266.39C122.01991 266.39 119.33362 263.7037 119.33362 260.39C119.33362 257.0763 122.01991 254.39 125.33362 254.39C128.64732 254.39 131.33362 257.0763 131.33362 260.39Z" fill-rule="nonzero"/><path fill="#434343" clip-path="url(#id_0)" d="M140.02155 260.39C140.02155 263.7037 137.33527 266.39 134.02155 266.39C130.70784 266.39 128.02155 263.7037 128.02155 260.39C128.02155 257.0763 130.70784 254.39 134.02155 254.39C137.33527 254.39 140.02155 257.0763 140.02155 260.39Z" fill-rule="nonzero"/><path fill="#434343" clip-path="url(#id_0)" d="M148.70949 260.39C148.70949 263.7037 146.0232 266.39 142.70949 266.39C139.39577 266.39 136.70949 263.7037 136.70949 260.39C136.70949 257.0763 139.39577 254.39 142.70949 254.39C146.0232 254.39 148.70949 257.0763 148.70949 260.39Z" fill-rule="nonzero"/><path fill="#434343" clip-path="url(#id_0)" d="M157.39742 260.39C157.39742 263.7037 154.71112 266.39 151.39742 266.39C148.08371 266.39 145.39742 263.7037 145.39742 260.39C145.39742 257.0763 148.08371 254.39 151.39742 254.39C154.71112 254.39 157.39742 257.0763 157.39742 260.39Z" fill-rule="nonzero"/><path fill="#434343" clip-path="url(#id_0)" d="M166.08534 260.39C166.08534 263.7037 163.39905 266.39 160.08534 266.39C156.77164 266.39 154.08534 263.7037 154.08534 260.39C154.08534 257.0763 156.77164 254.39 160.08534 254.39C163.39905 254.39 166.08534 257.0763 166.08534 260.39Z" fill-rule="nonzero"/><path fill="#434343" clip-path="url(#id_0)" d="M174.77327 260.39C174.77327 263.7037 172.08699 266.39 168.77327 266.39C165.45956 266.39 162.77327 263.7037 162.77327 260.39C162.77327 257.0763 165.45956 254.39 168.77327 254.39C172.08699 254.39 174.77327 257.0763 174.77327 260.39Z" fill-rule="nonzero"/><path fill="#434343" clip-path="url(#id_0)" d="M183.46121 260.39C183.46121 263.7037 180.77492 266.39 177.46121 266.39C174.14749 266.39 171.46121 263.7037 171.46121 260.39C171.46121 257.0763 174.14749 254.39 177.46121 254.39C180.77492 254.39 183.46121 257.0763 183.46121 260.39Z" fill-rule="nonzero"/><path fill="#434343" clip-path="url(#id_0)" d="M192.14914 260.39C192.14914 263.7037 189.46284 266.39 186.14914 266.39C182.83543 266.39 180.14914 263.7037 180.14914 260.39C180.14914 257.0763 182.83543 254.39 186.14914 254.39C189.46284 254.39 192.14914 257.0763 192.14914 260.39Z" fill-rule="nonzero"/><path fill="#434343" clip-path="url(#id_0)" d="M200.83707 260.39C200.83707 263.7037 198.15077 266.39 194.83707 266.39C191.52336 266.39 188.83707 263.7037 188.83707 260.39C188.83707 257.0763 191.52336 254.39 194.83707 254.39C198.15077 254.39 200.83707 257.0763 200.83707 260.39Z" fill-rule="nonzero"/><path fill="#434343" clip-path="url(#id_0)" d="M209.525 260.39C209.525 263.7037 206.83871 266.39 203.525 266.39C200.21129 266.39 197.525 263.7037 197.525 260.39C197.525 257.0763 200.21129 254.39 203.525 254.39C206.83871 254.39 209.525 257.0763 209.525 260.39Z" fill-rule="nonzero"/><path fill="#434343" clip-path="url(#id_0)" d="M218.21294 260.39C218.21294 263.7037 215.52664 266.39 212.21294 266.39C208.89922 266.39 206.21294 263.7037 206.21294 260.39C206.21294 257.0763 208.89922 254.39 212.21294 254.39C215.52664 254.39 218.21294 257.0763 218.21294 260.39Z" fill-rule="nonzero"/><path fill="#434343" clip-path="url(#id_0)" d="M226.90086 260.39C226.90086 263.7037 224.21457 266.39 220.90086 266.39C217.58716 266.39 214.90086 263.7037 214.90086 260.39C214.90086 257.0763 217.58716 254.39 220.90086 254.39C224.21457 254.39 226.90086 257.0763 226.90086 260.39Z" fill-rule="nonzero"/><path fill="#434343" clip-path="url(#id_0)" d="M235.58879 260.39C235.58879 263.7037 232.9025 266.39 229.58879 266.39C226.27509 266.39 223.58879 263.7037 223.58879 260.39C223.58879 257.0763 226.27509 254.39 229.58879 254.39C232.9025 254.39 235.58879 257.0763 235.58879 260.39Z" fill-rule="nonzero"/><path fill="#434343" clip-path="url(#id_0)" d="M244.27672 260.39C244.27672 263.7037 241.59044 266.39 238.27672 266.39C234.96301 266.39 232.27672 263.7037 232.27672 260.39C232.27672 257.0763 234.96301 254.39 238.27672 254.39C241.59044 254.39 244.27672 257.0763 244.27672 260.39Z" fill-rule="nonzero"/><path fill="#434343" clip-path="url(#id_0)" d="M252.96466 260.39C252.96466 263.7037 250.27837 266.39 246.96466 266.39C243.65094 266.39 240.96466 263.7037 240.96466 260.39C240.96466 257.0763 243.65094 254.39 246.96466 254.39C250.27837 254.39 252.96466 257.0763 252.96466 260.39Z" fill-rule="nonzero"/><path fill="#434343" clip-path="url(#id_0)" d="M261.6526 260.39C261.6526 263.7037 258.9663 266.39 255.65259 266.39C252.33888 266.39 249.65259 263.7037 249.65259 260.39C249.65259 257.0763 252.33888 254.39 255.65259 254.39C258.9663 254.39 261.6526 257.0763 261.6526 260.39Z" fill-rule="nonzero"/><path fill="#434343" clip-path="url(#id_0)" d="M270.3405 260.39C270.3405 263.7037 267.65424 266.39 264.3405 266.39C261.0268 266.39 258.3405 263.7037 258.3405 260.39C258.3405 257.0763 261.0268 254.39 264.3405 254.39C267.65424 254.39 270.3405 257.0763 270.3405 260.39Z" fill-rule="nonzero"/><path fill="#434343" clip-path="url(#id_0)" d="M279.02844 260.39C279.02844 263.7037 276.34216 266.39 273.02844 266.39C269.71475 266.39 267.02844 263.7037 267.02844 260.39C267.02844 257.0763 269.71475 254.39 273.02844 254.39C276.34216 254.39 279.02844 257.0763 279.02844 260.39Z" fill-rule="nonzero"/><path fill="#434343" clip-path="url(#id_0)" d="M287.71637 260.39C287.71637 263.7037 285.0301 266.39 281.71637 266.39C278.40268 266.39 275.71637 263.7037 275.71637 260.39C275.71637 257.0763 278.40268 254.39 281.71637 254.39C285.0301 254.39 287.71637 257.0763 287.71637 260.39Z" fill-rule="nonzero"/><path fill="#434343" clip-path="url(#id_0)" d="M296.4043 317.09668C296.4043 320.41037 293.71802 323.09668 290.4043 323.09668C287.0906 323.09668 284.4043 320.41037 284.4043 317.09668C284.4043 313.78296 287.0906 311.09668 290.4043 311.09668C293.71802 311.09668 296.4043 313.78296 296.4043 317.09668Z" fill-rule="nonzero"/><path fill="#434343" clip-path="url(#id_0)" d="M305.09225 317.09668C305.09225 320.41037 302.40594 323.09668 299.09225 323.09668C295.77853 323.09668 293.09225 320.41037 293.09225 317.09668C293.09225 313.78296 295.77853 311.09668 299.09225 311.09668C302.40594 311.09668 305.09225 313.78296 305.09225 317.09668Z" fill-rule="nonzero"/><path fill="#434343" clip-path="url(#id_0)" d="M313.78018 317.09668C313.78018 320.41037 311.09387 323.09668 307.78018 323.09668C304.46646 323.09668 301.78018 320.41037 301.78018 317.09668C301.78018 313.78296 304.46646 311.09668 307.78018 311.09668C311.09387 311.09668 313.78018 313.78296 313.78018 317.09668Z" fill-rule="nonzero"/><path fill="#434343" clip-path="url(#id_0)" d="M322.4681 317.09668C322.4681 320.41037 319.7818 323.09668 316.4681 323.09668C313.1544 323.09668 310.4681 320.41037 310.4681 317.09668C310.4681 313.78296 313.1544 311.09668 316.4681 311.09668C319.7818 311.09668 322.4681 313.78296 322.4681 317.09668Z" fill-rule="nonzero"/><path fill="#434343" clip-path="url(#id_0)" d="M331.15604 317.09668C331.15604 320.41037 328.46976 323.09668 325.15604 323.09668C321.84232 323.09668 319.15604 320.41037 319.15604 317.09668C319.15604 313.78296 321.84232 311.09668 325.15604 311.09668C328.46976 311.09668 331.15604 313.78296 331.15604 317.09668Z" fill-rule="nonzero"/><path fill="#434343" clip-path="url(#id_0)" d="M339.84396 317.09668C339.84396 320.41037 337.15768 323.09668 333.84396 323.09668C330.53024 323.09668 327.84396 320.41037 327.84396 317.09668C327.84396 313.78296 330.53024 311.09668 333.84396 311.09668C337.15768 311.09668 339.84396 313.78296 339.84396 317.09668Z" fill-rule="nonzero"/><path fill="#434343" clip-path="url(#id_0)" d="M348.5319 317.09668C348.5319 320.41037 345.8456 323.09668 342.5319 323.09668C339.2182 323.09668 336.5319 320.41037 336.5319 317.09668C336.5319 313.78296 339.2182 311.09668 342.5319 311.09668C345.8456 311.09668 348.5319 313.78296 348.5319 317.09668Z" fill-rule="nonzero"/><path fill="#434343" clip-path="url(#id_0)" d="M357.21982 345.45C357.21982 348.7637 354.53354 351.45 351.21982 351.45C347.90613 351.45 345.21982 348.7637 345.21982 345.45C345.21982 342.1363 347.90613 339.45 351.21982 339.45C354.53354 339.45 357.21982 342.1363 357.21982 345.45Z" fill-rule="nonzero"/><path fill="#434343" clip-path="url(#id_0)" d="M365.90775 345.45C365.90775 348.7637 363.22147 351.45 359.90775 351.45C356.59406 351.45 353.90775 348.7637 353.90775 345.45C353.90775 342.1363 356.59406 339.45 359.90775 339.45C363.22147 339.45 365.90775 342.1363 365.90775 345.45Z" fill-rule="nonzero"/><path fill="#434343" clip-path="url(#id_0)" d="M374.5957 345.45C374.5957 348.7637 371.9094 351.45 368.5957 351.45C365.28198 351.45 362.5957 348.7637 362.5957 345.45C362.5957 342.1363 365.28198 339.45 368.5957 339.45C371.9094 339.45 374.5957 342.1363 374.5957 345.45Z" fill-rule="nonzero"/><path fill="#434343" clip-path="url(#id_0)" d="M383.28363 345.45C383.28363 348.7637 380.59732 351.45 377.28363 351.45C373.9699 351.45 371.28363 348.7637 371.28363 345.45C371.28363 342.1363 373.9699 339.45 377.28363 339.45C380.59732 339.45 383.28363 342.1363 383.28363 345.45Z" fill-rule="nonzero"/><path fill="#434343" clip-path="url(#id_0)" d="M391.97156 345.45C391.97156 348.7637 389.28525 351.45 385.97156 351.45C382.65784 351.45 379.97156 348.7637 379.97156 345.45C379.97156 342.1363 382.65784 339.45 385.97156 339.45C389.28525 339.45 391.97156 342.1363 391.97156 345.45Z" fill-rule="nonzero"/><path fill="#434343" clip-path="url(#id_0)" d="M400.6595 345.45C400.6595 348.7637 397.9732 351.45 394.6595 351.45C391.34576 351.45 388.6595 348.7637 388.6595 345.45C388.6595 342.1363 391.34576 339.45 394.6595 339.45C397.9732 339.45 400.6595 342.1363 400.6595 345.45Z" fill-rule="nonzero"/><path fill="#434343" clip-path="url(#id_0)" d="M409.3474 345.45C409.3474 348.7637 406.66113 351.45 403.3474 351.45C400.0337 351.45 397.3474 348.7637 397.3474 345.45C397.3474 342.1363 400.0337 339.45 403.3474 339.45C406.66113 339.45 409.3474 342.1363 409.3474 345.45Z" fill-rule="nonzero"/><path fill="#434343" clip-path="url(#id_0)" d="M418.03534 345.45C418.03534 348.7637 415.34906 351.45 412.03534 351.45C408.72165 351.45 406.03534 348.7637 406.03534 345.45C406.03534 342.1363 408.72165 339.45 412.03534 339.45C415.34906 339.45 418.03534 342.1363 418.03534 345.45Z" fill-rule="nonzero"/><path fill="#434343" clip-path="url(#id_0)" d="M426.72327 345.45C426.72327 348.7637 424.037 351.45 420.72327 351.45C417.40958 351.45 414.72327 348.7637 414.72327 345.45C414.72327 342.1363 417.40958 339.45 420.72327 339.45C424.037 339.45 426.72327 342.1363 426.72327 345.45Z" fill-rule="nonzero"/><path fill="#434343" clip-path="url(#id_0)" d="M435.4112 345.45C435.4112 348.7637 432.7249 351.45 429.4112 351.45C426.0975 351.45 423.4112 348.7637 423.4112 345.45C423.4112 342.1363 426.0975 339.45 429.4112 339.45C432.7249 339.45 435.4112 342.1363 435.4112 345.45Z" fill-rule="nonzero"/><path fill="#434343" clip-path="url(#id_0)" d="M444.09915 345.45C444.09915 348.7637 441.41284 351.45 438.09915 351.45C434.78543 351.45 432.09915 348.7637 432.09915 345.45C432.09915 342.1363 434.78543 339.45 438.09915 339.45C441.41284 339.45 444.09915 342.1363 444.09915 345.45Z" fill-rule="nonzero"/><path fill="#434343" clip-path="url(#id_0)" d="M452.78708 345.45C452.78708 348.7637 450.10077 351.45 446.78708 351.45C443.47336 351.45 440.78708 348.7637 440.78708 345.45C440.78708 342.1363 443.47336 339.45 446.78708 339.45C450.10077 339.45 452.78708 342.1363 452.78708 345.45Z" fill-rule="nonzero"/><path fill="#434343" clip-path="url(#id_0)" d="M461.475 345.45C461.475 348.7637 458.7887 351.45 455.475 351.45C452.1613 351.45 449.475 348.7637 449.475 345.45C449.475 342.1363 452.1613 339.45 455.475 339.45C458.7887 339.45 461.475 342.1363 461.475 345.45Z" fill-rule="nonzero"/><path fill="#434343" clip-path="url(#id_0)" d="M470.16293 345.45C470.16293 348.7637 467.47665 351.45 464.16293 351.45C460.8492 351.45 458.16293 348.7637 458.16293 345.45C458.16293 342.1363 460.8492 339.45 464.16293 339.45C467.47665 339.45 470.16293 342.1363 470.16293 345.45Z" fill-rule="nonzero"/><path fill="#434343" clip-path="url(#id_0)" d="M478.85086 345.45C478.85086 348.7637 476.16458 351.45 472.85086 351.45C469.53714 351.45 466.85086 348.7637 466.85086 345.45C466.85086 342.1363 469.53714 339.45 472.85086 339.45C476.16458 339.45 478.85086 342.1363 478.85086 345.45Z" fill-rule="nonzero"/><path fill="#434343" clip-path="url(#id_0)" d="M487.5388 345.45C487.5388 348.7637 484.8525 351.45 481.5388 351.45C478.2251 351.45 475.5388 348.7637 475.5388 345.45C475.5388 342.1363 478.2251 339.45 481.5388 339.45C484.8525 339.45 487.5388 342.1363 487.5388 345.45Z" fill-rule="nonzero"/><path fill="#434343" clip-path="url(#id_0)" d="M496.2267 345.45C496.2267 348.7637 493.54044 351.45 490.2267 351.45C486.91302 351.45 484.2267 348.7637 484.2267 345.45C484.2267 342.1363 486.91302 339.45 490.2267 339.45C493.54044 339.45 496.2267 342.1363 496.2267 345.45Z" fill-rule="nonzero"/><path fill="#434343" clip-path="url(#id_0)" d="M504.91464 345.45C504.91464 348.7637 502.22836 351.45 498.91464 351.45C495.60095 351.45 492.91464 348.7637 492.91464 345.45C492.91464 342.1363 495.60095 339.45 498.91464 339.45C502.22836 339.45 504.91464 342.1363 504.91464 345.45Z" fill-rule="nonzero"/><path fill="#434343" clip-path="url(#id_0)" d="M513.6026 345.45C513.6026 348.7637 510.9163 351.45 507.6026 351.45C504.28888 351.45 501.6026 348.7637 501.6026 345.45C501.6026 342.1363 504.28888 339.45 507.6026 339.45C510.9163 339.45 513.6026 342.1363 513.6026 345.45Z" fill-rule="nonzero"/><path fill="#434343" clip-path="url(#id_0)" d="M522.2905 345.45C522.2905 348.7637 519.60425 351.45 516.2905 351.45C512.9768 351.45 510.29053 348.7637 510.29053 345.45C510.29053 342.1363 512.9768 339.45 516.2905 339.45C519.60425 339.45 522.2905 342.1363 522.2905 345.45Z" fill-rule="nonzero"/><path fill="#434343" clip-path="url(#id_0)" d="M530.97845 345.45C530.97845 348.7637 528.2922 351.45 524.97845 351.45C521.66473 351.45 518.97845 348.7637 518.97845 345.45C518.97845 342.1363 521.66473 339.45 524.97845 339.45C528.2922 339.45 530.97845 342.1363 530.97845 345.45Z" fill-rule="nonzero"/><path fill="#434343" clip-path="url(#id_0)" d="M539.6664 345.45C539.6664 348.7637 536.9801 351.45 533.6664 351.45C530.35266 351.45 527.6664 348.7637 527.6664 345.45C527.6664 342.1363 530.35266 339.45 533.6664 339.45C536.9801 339.45 539.6664 342.1363 539.6664 345.45Z" fill-rule="nonzero"/><path fill="#434343" clip-path="url(#id_0)" d="M548.3543 345.45C548.3543 348.7637 545.668 351.45 542.3543 351.45C539.0406 351.45 536.3543 348.7637 536.3543 345.45C536.3543 342.1363 539.0406 339.45 542.3543 339.45C545.668 339.45 548.3543 342.1363 548.3543 345.45Z" fill-rule="nonzero"/><path fill="#434343" clip-path="url(#id_0)" d="M557.04224 345.45C557.04224 348.7637 554.35596 351.45 551.04224 351.45C547.7285 351.45 545.04224 348.7637 545.04224 345.45C545.04224 342.1363 547.7285 339.45 551.04224 339.45C554.35596 339.45 557.04224 342.1363 557.04224 345.45Z" fill-rule="nonzero"/><path fill="#434343" clip-path="url(#id_0)" d="M565.73016 345.45C565.73016 348.7637 563.0439 351.45 559.73016 351.45C556.41644 351.45 553.73016 348.7637 553.73016 345.45C553.73016 342.1363 556.41644 339.45 559.73016 339.45C563.0439 339.45 565.73016 342.1363 565.73016 345.45Z" fill-rule="nonzero"/><path fill="#434343" clip-path="url(#id_0)" d="M574.4181 345.45C574.4181 348.7637 571.7318 351.45 568.4181 351.45C565.1044 351.45 562.4181 348.7637 562.4181 345.45C562.4181 342.1363 565.1044 339.45 568.4181 339.45C571.7318 339.45 574.4181 342.1363 574.4181 345.45Z" fill-rule="nonzero"/><path fill="#434343" clip-path="url(#id_0)" d="M583.106 345.45C583.106 348.7637 580.41974 351.45 577.106 351.45C573.7923 351.45 571.106 348.7637 571.106 345.45C571.106 342.1363 573.7923 339.45 577.106 339.45C580.41974 339.45 583.106 342.1363 583.106 345.45Z" fill-rule="nonzero"/><path fill="#000000" d="M26.784388 219.13646L26.690638 218.07396Q27.346888 217.99583 27.753138 217.71458Q28.159388 217.43333 28.425013 216.85521Q28.675013 216.26146 28.675013 215.52708Q28.675013 214.88646 28.487513 214.38646Q28.284388 213.88646 27.956263 213.65208Q27.612513 213.40208 27.221888 213.40208Q26.815638 213.40208 26.518763 213.63646Q26.206263 213.87083 26.003138 214.40208Q25.862513 214.76146 25.581263 215.94896Q25.300013 217.12083 25.050013 217.58958Q24.721888 218.21458 24.253138 218.51146Q23.768763 218.80833 23.175013 218.80833Q22.534388 218.80833 21.971888 218.44896Q21.393763 218.07396 21.112513 217.37083Q20.815638 216.65208 20.815638 215.79271Q20.815638 214.83958 21.128138 214.10521Q21.425013 213.37083 22.034388 212.98021Q22.628138 212.58958 23.378138 212.55833L23.456263 213.65208Q22.643763 213.74583 22.237513 214.26146Q21.815638 214.76146 21.815638 215.74583Q21.815638 216.77708 22.190638 217.24583Q22.565638 217.71458 23.096888 217.71458Q23.565638 217.71458 23.862513 217.38646Q24.159388 217.05833 24.471888 215.68333Q24.784388 214.29271 25.018763 213.77708Q25.378138 213.02708 25.909388 212.66771Q26.425013 212.30833 27.128138 212.30833Q27.815638 212.30833 28.425013 212.69896Q29.018763 213.08958 29.362513 213.82396Q29.690638 214.55833 29.690638 215.48021Q29.690638 216.65208 29.362513 217.44896Q29.018763 218.23021 28.331263 218.68333Q27.643763 219.12083 26.784388 219.13646ZM27.268763 206.82396L27.409388 205.79271Q28.471888 205.96458 29.081263 206.66771Q29.690638 207.37083 29.690638 208.38646Q29.690638 209.66771 28.862513 210.44896Q28.018763 211.21458 26.456263 211.21458Q25.456263 211.21458 24.706263 210.88646Q23.940638 210.54271 23.565638 209.87083Q23.190638 209.18333 23.190638 208.37083Q23.190638 207.37083 23.706263 206.73021Q24.206263 206.07396 25.159388 205.88646L25.315638 206.91771Q24.690638 207.05833 24.378138 207.43333Q24.050013 207.80833 24.050013 208.33958Q24.050013 209.13646 24.628138 209.63646Q25.190638 210.13646 26.425013 210.13646Q27.690638 210.13646 28.253138 209.65208Q28.815638 209.16771 28.815638 208.40208Q28.815638 207.77708 28.440638 207.37083Q28.065638 206.94896 27.268763 206.82396ZM26.440638 205.27708Q24.706263 205.27708 23.878138 204.32396Q23.190638 203.52708 23.190638 202.37083Q23.190638 201.08958 24.034388 200.27708Q24.862513 199.44896 26.346888 199.44896Q27.550013 199.44896 28.237513 199.80833Q28.925013 200.16771 29.315638 200.87083Q29.690638 201.55833 29.690638 202.37083Q29.690638 203.66771 28.862513 204.48021Q28.018763 205.27708 26.440638 205.27708ZM26.440638 204.19896Q27.628138 204.19896 28.221888 203.68333Q28.815638 203.15208 28.815638 202.37083Q28.815638 201.57396 28.221888 201.05833Q27.628138 200.54271 26.409388 200.54271Q25.253138 200.54271 24.659388 201.07396Q24.065638 201.58958 24.065638 202.37083Q24.065638 203.15208 24.659388 203.68333Q25.237513 204.19896 26.440638 204.19896ZM29.550013 197.90208L23.331263 197.90208L23.331263 196.94896L24.268763 196.94896Q23.612513 196.58958 23.409388 196.29271Q23.190638 195.98021 23.190638 195.60521Q23.190638 195.07396 23.518763 194.52708L24.503138 194.88646Q24.268763 195.27708 24.268763 195.65208Q24.268763 196.01146 24.487513 196.29271Q24.690638 196.55833 25.065638 196.66771Q25.628138 196.85521 26.284388 196.85521L29.550013 196.85521L29.550013 197.90208ZM27.550013 189.63646L27.675013 188.54271Q28.628138 188.79271 29.159388 189.49583Q29.690638 190.19896 29.690638 191.27708Q29.690638 192.63646 28.846888 193.44896Q28.003138 194.24583 26.487513 194.24583Q24.925013 194.24583 24.065638 193.43333Q23.190638 192.62083 23.190638 191.33958Q23.190638 190.08958 24.034388 189.30833Q24.878138 188.51146 26.425013 188.51146Q26.518763 188.51146 26.706263 188.51146L26.706263 193.15208Q27.737513 193.08958 28.284388 192.57396Q28.815638 192.05833 28.815638 191.27708Q28.815638 190.69896 28.518763 190.29271Q28.206263 189.87083 27.550013 189.63646ZM25.846888 193.08958L25.846888 189.62083Q25.050013 189.68333 24.659388 190.01146Q24.050013 190.52708 24.050013 191.32396Q24.050013 192.05833 24.534388 192.55833Q25.018763 193.04271 25.846888 193.08958Z" fill-rule="nonzero"/><path fill="#000000" d="M65.05 345.21564Q65.05 343.6844 65.3625 342.7625Q65.675 341.825 66.28438 341.325Q66.90938 340.825 67.84688 340.825Q68.53438 340.825 69.05 341.10626Q69.58125 341.3875 69.925 341.91876Q70.26875 342.4344 70.45625 343.1844Q70.64375 343.9344 70.64375 345.21564Q70.64375 346.73126 70.33125 347.65314Q70.03438 348.575 69.40938 349.09064Q68.8 349.59064 67.84688 349.59064Q66.6125 349.59064 65.89375 348.7Q65.05 347.6375 65.05 345.21564ZM66.12813 345.21564Q66.12813 347.325 66.62813 348.02814Q67.12813 348.73126 67.84688 348.73126Q68.58125 348.73126 69.06563 348.02814Q69.56563 347.325 69.56563 345.21564Q69.56563 343.09064 69.06563 342.40314Q68.58125 341.7 67.83125 341.7Q67.1125 341.7 66.675 342.3094Q66.12813 343.09064 66.12813 345.21564Z" fill-rule="nonzero"/><path fill="#000000" d="M62.01875 321.09668L60.971874 321.09668L60.971874 314.37793Q60.58125 314.7373 59.95625 315.1123Q59.346874 315.47168 58.8625 315.64355L58.8625 314.62793Q59.7375 314.20605 60.39375 313.62793Q61.065624 313.03418 61.346874 312.47168L62.01875 312.47168L62.01875 321.09668ZM65.05 316.8623Q65.05 315.33105 65.3625 314.40918Q65.675 313.47168 66.28438 312.97168Q66.90938 312.47168 67.84688 312.47168Q68.53438 312.47168 69.05 312.75293Q69.58125 313.03418 69.925 313.56543Q70.26875 314.08105 70.45625 314.83105Q70.64375 315.58105 70.64375 316.8623Q70.64375 318.37793 70.33125 319.2998Q70.03438 320.22168 69.40938 320.7373Q68.8 321.2373 67.84688 321.2373Q66.6125 321.2373 65.89375 320.34668Q65.05 319.28418 65.05 316.8623ZM66.12813 316.8623Q66.12813 318.97168 66.62813 319.6748Q67.12813 320.37793 67.84688 320.37793Q68.58125 320.37793 69.06563 319.6748Q69.56563 318.97168 69.56563 316.8623Q69.56563 314.7373 69.06563 314.0498Q68.58125 313.34668 67.83125 313.34668Q67.1125 313.34668 66.675 313.95605Q66.12813 314.7373 66.12813 316.8623Z" fill-rule="nonzero"/><path fill="#000000" d="M63.596874 291.72772L63.596874 292.74335L57.909374 292.74335Q57.909374 292.36835 58.034374 292.00897Q58.253124 291.43085 58.721874 290.86835Q59.20625 290.30585 60.1125 289.57147Q61.51875 288.41522 62.003124 287.74335Q62.503124 287.07147 62.503124 286.47772Q62.503124 285.85272 62.05 285.43085Q61.596874 284.99335 60.878124 284.99335Q60.1125 284.99335 59.659374 285.44647Q59.20625 285.8996 59.190624 286.7121L58.1125 286.60272Q58.221874 285.38397 58.940624 284.75897Q59.675 284.11835 60.909374 284.11835Q62.14375 284.11835 62.8625 284.80585Q63.58125 285.49335 63.58125 286.50897Q63.58125 287.0246 63.3625 287.5246Q63.159374 288.00897 62.659374 288.57147Q62.175 289.11835 61.05 290.07147Q60.096874 290.86835 59.815624 291.16522Q59.55 291.44647 59.378124 291.72772L63.596874 291.72772ZM65.05 288.50897Q65.05 286.97772 65.3625 286.05585Q65.675 285.11835 66.28438 284.61835Q66.90938 284.11835 67.84688 284.11835Q68.53438 284.11835 69.05 284.3996Q69.58125 284.68085 69.925 285.2121Q70.26875 285.72772 70.45625 286.47772Q70.64375 287.22772 70.64375 288.50897Q70.64375 290.0246 70.33125 290.94647Q70.03438 291.86835 69.40938 292.38397Q68.8 292.88397 67.84688 292.88397Q66.6125 292.88397 65.89375 291.99335Q65.05 290.93085 65.05 288.50897ZM66.12813 288.50897Q66.12813 290.61835 66.62813 291.32147Q67.12813 292.0246 67.84688 292.0246Q68.58125 292.0246 69.06563 291.32147Q69.56563 290.61835 69.56563 288.50897Q69.56563 286.38397 69.06563 285.69647Q68.58125 284.99335 67.83125 284.99335Q67.1125 284.99335 66.675 285.60272Q66.12813 286.38397 66.12813 288.50897Z" fill-rule="nonzero"/><path fill="#000000" d="M58.05 262.1244L59.1125 261.98376Q59.284374 262.8744 59.721874 263.28064Q60.159374 263.67126 60.784374 263.67126Q61.534374 263.67126 62.05 263.15564Q62.565624 262.64 62.565624 261.8744Q62.565624 261.15564 62.08125 260.6869Q61.6125 260.2025 60.878124 260.2025Q60.58125 260.2025 60.128124 260.3275L60.253124 259.39Q60.3625 259.40564 60.425 259.40564Q61.096874 259.40564 61.628124 259.0619Q62.175 258.7025 62.175 257.96814Q62.175 257.39 61.784374 257.015Q61.39375 256.6244 60.76875 256.6244Q60.159374 256.6244 59.7375 257.015Q59.33125 257.40564 59.221874 258.17126L58.159374 257.98376Q58.346874 256.9369 59.034374 256.35876Q59.721874 255.76501 60.7375 255.76501Q61.440624 255.76501 62.034374 256.0775Q62.628124 256.3744 62.940624 256.89Q63.253124 257.40564 63.253124 257.9994Q63.253124 258.54626 62.95625 259.015Q62.659374 259.46814 62.08125 259.73376Q62.83125 259.90564 63.253124 260.46814Q63.675 261.015 63.675 261.85876Q63.675 262.98376 62.846874 263.765Q62.034374 264.54626 60.784374 264.54626Q59.659374 264.54626 58.909374 263.8744Q58.159374 263.1869 58.05 262.1244ZM65.05 260.15564Q65.05 258.6244 65.3625 257.7025Q65.675 256.765 66.28438 256.265Q66.90938 255.76501 67.84688 255.76501Q68.53438 255.76501 69.05 256.04626Q69.58125 256.3275 69.925 256.85876Q70.26875 257.3744 70.45625 258.1244Q70.64375 258.8744 70.64375 260.15564Q70.64375 261.67126 70.33125 262.59314Q70.03438 263.515 69.40938 264.03064Q68.8 264.53064 67.84688 264.53064Q66.6125 264.53064 65.89375 263.64Q65.05 262.5775 65.05 260.15564ZM66.12813 260.15564Q66.12813 262.265 66.62813 262.96814Q67.12813 263.67126 67.84688 263.67126Q68.58125 263.67126 69.06563 262.96814Q69.56563 262.265 69.56563 260.15564Q69.56563 258.03064 69.06563 257.34314Q68.58125 256.64 67.83125 256.64Q67.1125 256.64 66.675 257.2494Q66.12813 258.03064 66.12813 260.15564Z" fill-rule="nonzero"/><path fill="#000000" d="M61.425 236.03667L61.425 233.97417L57.70625 233.97417L57.70625 233.00542L61.628124 227.44292L62.4875 227.44292L62.4875 233.00542L63.64375 233.00542L63.64375 233.97417L62.4875 233.97417L62.4875 236.03667L61.425 236.03667ZM61.425 233.00542L61.425 229.14604L58.7375 233.00542L61.425 233.00542ZM65.05 231.80229Q65.05 230.27104 65.3625 229.34917Q65.675 228.41167 66.28438 227.91167Q66.90938 227.41167 67.84688 227.41167Q68.53438 227.41167 69.05 227.69292Q69.58125 227.97417 69.925 228.50542Q70.26875 229.02104 70.45625 229.77104Q70.64375 230.52104 70.64375 231.80229Q70.64375 233.31792 70.33125 234.23979Q70.03438 235.16167 69.40938 235.67729Q68.8 236.17729 67.84688 236.17729Q66.6125 236.17729 65.89375 235.28667Q65.05 234.22417 65.05 231.80229ZM66.12813 231.80229Q66.12813 233.91167 66.62813 234.61479Q67.12813 235.31792 67.84688 235.31792Q68.58125 235.31792 69.06563 234.61479Q69.56563 233.91167 69.56563 231.80229Q69.56563 229.67729 69.06563 228.98979Q68.58125 228.28667 67.83125 228.28667Q67.1125 228.28667 66.675 228.89604Q66.12813 229.67729 66.12813 231.80229Z" fill-rule="nonzero"/><path fill="#000000" d="M58.05 205.43333L59.159374 205.33958Q59.284374 206.15208 59.721874 206.55833Q60.175 206.96458 60.815624 206.96458Q61.565624 206.96458 62.096874 206.38646Q62.628124 205.80833 62.628124 204.87083Q62.628124 203.96458 62.1125 203.44896Q61.6125 202.91771 60.784374 202.91771Q60.284374 202.91771 59.8625 203.15208Q59.45625 203.38646 59.221874 203.74583L58.2375 203.62083L59.065624 199.21458L63.346874 199.21458L63.346874 200.21458L59.909374 200.21458L59.45625 202.52708Q60.221874 201.98021 61.065624 201.98021Q62.190624 201.98021 62.95625 202.76146Q63.7375 203.54271 63.7375 204.77708Q63.7375 205.93333 63.065624 206.79271Q62.2375 207.82396 60.815624 207.82396Q59.64375 207.82396 58.89375 207.16771Q58.159374 206.51146 58.05 205.43333ZM65.05 203.44896Q65.05 201.91771 65.3625 200.99583Q65.675 200.05833 66.28438 199.55833Q66.90938 199.05833 67.84688 199.05833Q68.53438 199.05833 69.05 199.33958Q69.58125 199.62083 69.925 200.15208Q70.26875 200.66771 70.45625 201.41771Q70.64375 202.16771 70.64375 203.44896Q70.64375 204.96458 70.33125 205.88646Q70.03438 206.80833 69.40938 207.32396Q68.8 207.82396 67.84688 207.82396Q66.6125 207.82396 65.89375 206.93333Q65.05 205.87083 65.05 203.44896ZM66.12813 203.44896Q66.12813 205.55833 66.62813 206.26146Q67.12813 206.96458 67.84688 206.96458Q68.58125 206.96458 69.06563 206.26146Q69.56563 205.55833 69.56563 203.44896Q69.56563 201.32396 69.06563 200.63646Q68.58125 199.93333 67.83125 199.93333Q67.1125 199.93333 66.675 200.54271Q66.12813 201.32396 66.12813 203.44896Z" fill-rule="nonzero"/><path fill="#000000" d="M63.51875 172.84563L62.471874 172.92375Q62.33125 172.29875 62.08125 172.0175Q61.64375 171.56438 61.01875 171.56438Q60.51875 171.56438 60.128124 171.84563Q59.64375 172.22063 59.346874 172.92375Q59.065624 173.61125 59.05 174.8925Q59.425 174.31438 59.971874 174.03313Q60.534374 173.75188 61.14375 173.75188Q62.190624 173.75188 62.925 174.53313Q63.675 175.31438 63.675 176.53313Q63.675 177.34563 63.315624 178.04875Q62.971874 178.73625 62.3625 179.11125Q61.753124 179.47063 60.9875 179.47063Q59.659374 179.47063 58.83125 178.50188Q58.003124 177.53313 58.003124 175.31438Q58.003124 172.81438 58.925 171.68938Q59.721874 170.705 61.08125 170.705Q62.096874 170.705 62.7375 171.28313Q63.39375 171.84563 63.51875 172.84563ZM59.221874 176.54875Q59.221874 177.09563 59.440624 177.59563Q59.675 178.08 60.08125 178.34563Q60.503124 178.61125 60.971874 178.61125Q61.628124 178.61125 62.1125 178.08Q62.596874 177.53313 62.596874 176.61125Q62.596874 175.72063 62.1125 175.205Q61.64375 174.68938 60.925 174.68938Q60.20625 174.68938 59.70625 175.205Q59.221874 175.72063 59.221874 176.54875ZM65.05 175.09563Q65.05 173.56438 65.3625 172.6425Q65.675 171.705 66.28438 171.205Q66.90938 170.705 67.84688 170.705Q68.53438 170.705 69.05 170.98625Q69.58125 171.2675 69.925 171.79875Q70.26875 172.31438 70.45625 173.06438Q70.64375 173.81438 70.64375 175.09563Q70.64375 176.61125 70.33125 177.53313Q70.03438 178.455 69.40938 178.97063Q68.8 179.47063 67.84688 179.47063Q66.6125 179.47063 65.89375 178.58Q65.05 177.5175 65.05 175.09563ZM66.12813 175.09563Q66.12813 177.205 66.62813 177.90813Q67.12813 178.61125 67.84688 178.61125Q68.58125 178.61125 69.06563 177.90813Q69.56563 177.205 69.56563 175.09563Q69.56563 172.97063 69.06563 172.28313Q68.58125 171.58 67.83125 171.58Q67.1125 171.58 66.675 172.18938Q66.12813 172.97063 66.12813 175.09563Z" fill-rule="nonzero"/><path fill="#000000" d="M58.1125 143.50792L58.1125 142.4923L63.675 142.4923L63.675 143.32042Q62.8625 144.19542 62.05 145.64854Q61.253124 147.08604 60.815624 148.6173Q60.4875 149.69542 60.409374 150.97667L59.315624 150.97667Q59.33125 149.96104 59.70625 148.52354Q60.096874 147.08604 60.8 145.75792Q61.51875 144.4298 62.33125 143.50792L58.1125 143.50792ZM65.05 146.7423Q65.05 145.21104 65.3625 144.28917Q65.675 143.35167 66.28438 142.85167Q66.90938 142.35167 67.84688 142.35167Q68.53438 142.35167 69.05 142.63292Q69.58125 142.91417 69.925 143.44542Q70.26875 143.96104 70.45625 144.71104Q70.64375 145.46104 70.64375 146.7423Q70.64375 148.25792 70.33125 149.1798Q70.03438 150.10167 69.40938 150.6173Q68.8 151.1173 67.84688 151.1173Q66.6125 151.1173 65.89375 150.22667Q65.05 149.16417 65.05 146.7423ZM66.12813 146.7423Q66.12813 148.85167 66.62813 149.5548Q67.12813 150.25792 67.84688 150.25792Q68.58125 150.25792 69.06563 149.5548Q69.56563 148.85167 69.56563 146.7423Q69.56563 144.6173 69.06563 143.9298Q68.58125 143.22667 67.83125 143.22667Q67.1125 143.22667 66.675 143.83604Q66.12813 144.6173 66.12813 146.7423Z" fill-rule="nonzero"/><path fill="#000000" d="M59.675 117.96709Q59.01875 117.71709 58.690624 117.27959Q58.378124 116.82646 58.378124 116.21709Q58.378124 115.27959 59.05 114.63896Q59.7375 113.99834 60.846874 113.99834Q61.971874 113.99834 62.659374 114.65459Q63.346874 115.31084 63.346874 116.24834Q63.346874 116.84209 63.034374 117.27959Q62.721874 117.71709 62.08125 117.96709Q62.878124 118.21709 63.284374 118.79521Q63.690624 119.37334 63.690624 120.17021Q63.690624 121.26396 62.909374 122.01396Q62.14375 122.76396 60.8625 122.76396Q59.596874 122.76396 58.815624 122.01396Q58.034374 121.26396 58.034374 120.13896Q58.034374 119.29521 58.45625 118.73271Q58.89375 118.17021 59.675 117.96709ZM59.45625 116.17021Q59.45625 116.77959 59.846874 117.17021Q60.253124 117.56084 60.878124 117.56084Q61.4875 117.56084 61.878124 117.18584Q62.26875 116.79521 62.26875 116.23271Q62.26875 115.65459 61.8625 115.26396Q61.45625 114.85771 60.8625 114.85771Q60.253124 114.85771 59.846874 115.24834Q59.45625 115.63896 59.45625 116.17021ZM59.128124 120.13896Q59.128124 120.59209 59.33125 121.01396Q59.55 121.43584 59.971874 121.67021Q60.39375 121.90459 60.878124 121.90459Q61.628124 121.90459 62.1125 121.42021Q62.6125 120.93584 62.6125 120.18584Q62.6125 119.42021 62.1125 118.92021Q61.6125 118.42021 60.846874 118.42021Q60.096874 118.42021 59.6125 118.92021Q59.128124 119.40459 59.128124 120.13896ZM65.05 118.38896Q65.05 116.85771 65.3625 115.93584Q65.675 114.99834 66.28438 114.49834Q66.90938 113.99834 67.84688 113.99834Q68.53438 113.99834 69.05 114.27959Q69.58125 114.56084 69.925 115.09209Q70.26875 115.60771 70.45625 116.35771Q70.64375 117.10771 70.64375 118.38896Q70.64375 119.90459 70.33125 120.82646Q70.03438 121.74834 69.40938 122.26396Q68.8 122.76396 67.84688 122.76396Q66.6125 122.76396 65.89375 121.87334Q65.05 120.81084 65.05 118.38896ZM66.12813 118.38896Q66.12813 120.49834 66.62813 121.20146Q67.12813 121.90459 67.84688 121.90459Q68.58125 121.90459 69.06563 121.20146Q69.56563 120.49834 69.56563 118.38896Q69.56563 116.26396 69.06563 115.57646Q68.58125 114.87334 67.83125 114.87334Q67.1125 114.87334 66.675 115.48271Q66.12813 116.26396 66.12813 118.38896Z" fill-rule="nonzero"/><path fill="#000000" d="M58.20625 92.28562L59.221874 92.19187Q59.346874 92.91062 59.70625 93.23875Q60.08125 93.55125 60.64375 93.55125Q61.128124 93.55125 61.4875 93.3325Q61.8625 93.09812 62.096874 92.73875Q62.33125 92.36375 62.4875 91.73875Q62.64375 91.09812 62.64375 90.44187Q62.64375 90.36375 62.64375 90.22312Q62.33125 90.72312 61.784374 91.05125Q61.2375 91.36375 60.596874 91.36375Q59.51875 91.36375 58.784374 90.59812Q58.05 89.81687 58.05 88.55125Q58.05 87.23875 58.815624 86.44187Q59.596874 85.645 60.753124 85.645Q61.58125 85.645 62.26875 86.09812Q62.971874 86.55125 63.33125 87.395Q63.690624 88.22312 63.690624 89.80125Q63.690624 91.44187 63.33125 92.42625Q62.9875 93.395 62.26875 93.91062Q61.565624 94.41062 60.628124 94.41062Q59.6125 94.41062 58.971874 93.86375Q58.33125 93.30125 58.20625 92.28562ZM62.51875 88.48875Q62.51875 87.5825 62.034374 87.05125Q61.565624 86.52 60.878124 86.52Q60.175 86.52 59.64375 87.09812Q59.128124 87.66062 59.128124 88.5825Q59.128124 89.395 59.628124 89.91062Q60.128124 90.42625 60.846874 90.42625Q61.58125 90.42625 62.05 89.91062Q62.51875 89.395 62.51875 88.48875ZM65.05 90.03562Q65.05 88.50437 65.3625 87.5825Q65.675 86.645 66.28438 86.145Q66.90938 85.645 67.84688 85.645Q68.53438 85.645 69.05 85.92625Q69.58125 86.2075 69.925 86.73875Q70.26875 87.25437 70.45625 88.00437Q70.64375 88.75437 70.64375 90.03562Q70.64375 91.55125 70.33125 92.47312Q70.03438 93.395 69.40938 93.91062Q68.8 94.41062 67.84688 94.41062Q66.6125 94.41062 65.89375 93.52Q65.05 92.4575 65.05 90.03562ZM66.12813 90.03562Q66.12813 92.145 66.62813 92.84812Q67.12813 93.55125 67.84688 93.55125Q68.58125 93.55125 69.06563 92.84812Q69.56563 92.145 69.56563 90.03562Q69.56563 87.91062 69.06563 87.22312Q68.58125 86.52 67.83125 86.52Q67.1125 86.52 66.675 87.12937Q66.12813 87.91062 66.12813 90.03562Z" fill-rule="nonzero"/><path fill="#000000" d="M55.01875 65.916664L53.971874 65.916664L53.971874 59.197914Q53.58125 59.55729 52.95625 59.93229Q52.346874 60.291664 51.8625 60.46354L51.8625 59.447914Q52.7375 59.02604 53.39375 58.447914Q54.065624 57.854164 54.346874 57.291664L55.01875 57.291664L55.01875 65.916664ZM58.05 61.68229Q58.05 60.15104 58.3625 59.229164Q58.675 58.291664 59.284374 57.791664Q59.909374 57.291664 60.846874 57.291664Q61.534374 57.291664 62.05 57.572914Q62.58125 57.854164 62.925 58.385414Q63.26875 58.90104 63.45625 59.65104Q63.64375 60.40104 63.64375 61.68229Q63.64375 63.197914 63.33125 64.11979Q63.034374 65.041664 62.409374 65.55729Q61.8 66.05729 60.846874 66.05729Q59.6125 66.05729 58.89375 65.166664Q58.05 64.104164 58.05 61.68229ZM59.128124 61.68229Q59.128124 63.791664 59.628124 64.49479Q60.128124 65.197914 60.846874 65.197914Q61.58125 65.197914 62.065624 64.49479Q62.565624 63.791664 62.565624 61.68229Q62.565624 59.55729 62.065624 58.86979Q61.58125 58.166664 60.83125 58.166664Q60.1125 58.166664 59.675 58.77604Q59.128124 59.55729 59.128124 61.68229ZM65.05 61.68229Q65.05 60.15104 65.3625 59.229164Q65.675 58.291664 66.28438 57.791664Q66.90938 57.291664 67.84688 57.291664Q68.53438 57.291664 69.05 57.572914Q69.58125 57.854164 69.925 58.385414Q70.26875 58.90104 70.45625 59.65104Q70.64375 60.40104 70.64375 61.68229Q70.64375 63.197914 70.33125 64.11979Q70.03438 65.041664 69.40938 65.55729Q68.8 66.05729 67.84688 66.05729Q66.6125 66.05729 65.89375 65.166664Q65.05 64.104164 65.05 61.68229ZM66.12813 61.68229Q66.12813 63.791664 66.62813 64.49479Q67.12813 65.197914 67.84688 65.197914Q68.58125 65.197914 69.06563 64.49479Q69.56563 63.791664 69.56563 61.68229Q69.56563 59.55729 69.06563 58.86979Q68.58125 58.166664 67.83125 58.166664Q67.1125 58.166664 66.675 58.77604Q66.12813 59.55729 66.12813 61.68229Z" fill-rule="nonzero"/><path fill="#757575" d="M20.01875 37.55L20.01875 23.2375L21.909374 23.2375L21.909374 35.8625L28.95625 35.8625L28.95625 37.55L20.01875 37.55ZM30.221874 32.3625Q30.221874 29.4875 31.815624 28.096874Q33.159374 26.940624 35.08125 26.940624Q37.221874 26.940624 38.565624 28.346874Q39.925 29.753124 39.925 32.221874Q39.925 34.221874 39.33125 35.378124Q38.7375 36.51875 37.58125 37.159374Q36.440624 37.784374 35.08125 37.784374Q32.89375 37.784374 31.55 36.39375Q30.221874 34.9875 30.221874 32.3625ZM32.01875 32.3625Q32.01875 34.3625 32.878124 35.346874Q33.753124 36.33125 35.08125 36.33125Q36.39375 36.33125 37.253124 35.346874Q38.128124 34.346874 38.128124 32.3Q38.128124 30.378124 37.253124 29.39375Q36.378124 28.39375 35.08125 28.39375Q33.753124 28.39375 32.878124 29.39375Q32.01875 30.378124 32.01875 32.3625ZM41.159374 34.45625L42.909374 34.175Q43.05 35.221874 43.721874 35.784374Q44.39375 36.33125 45.596874 36.33125Q46.8 36.33125 47.378124 35.846874Q47.971874 35.346874 47.971874 34.690624Q47.971874 34.096874 47.45625 33.753124Q47.096874 33.51875 45.659374 33.159374Q43.721874 32.659374 42.971874 32.315624Q42.2375 31.95625 41.846874 31.33125Q41.45625 30.690624 41.45625 29.925Q41.45625 29.2375 41.76875 28.64375Q42.096874 28.05 42.64375 27.659374Q43.05 27.3625 43.753124 27.159374Q44.471874 26.940624 45.284374 26.940624Q46.503124 26.940624 47.425 27.3Q48.346874 27.64375 48.784374 28.253124Q49.221874 28.846874 49.39375 29.846874L47.675 30.08125Q47.55 29.284374 46.9875 28.846874Q46.425 28.39375 45.409374 28.39375Q44.190624 28.39375 43.675 28.8Q43.159374 29.190624 43.159374 29.721874Q43.159374 30.065624 43.378124 30.346874Q43.58125 30.628124 44.05 30.815624Q44.315624 30.909374 45.596874 31.253124Q47.471874 31.753124 48.20625 32.08125Q48.940624 32.39375 49.3625 33.003124Q49.784374 33.596874 49.784374 34.503124Q49.784374 35.378124 49.26875 36.159374Q48.753124 36.940624 47.784374 37.3625Q46.815624 37.784374 45.596874 37.784374Q43.58125 37.784374 42.51875 36.940624Q41.45625 36.096874 41.159374 34.45625ZM51.159374 34.45625L52.909374 34.175Q53.05 35.221874 53.721874 35.784374Q54.39375 36.33125 55.596874 36.33125Q56.8 36.33125 57.378124 35.846874Q57.971874 35.346874 57.971874 34.690624Q57.971874 34.096874 57.45625 33.753124Q57.096874 33.51875 55.659374 33.159374Q53.721874 32.659374 52.971874 32.315624Q52.2375 31.95625 51.846874 31.33125Q51.45625 30.690624 51.45625 29.925Q51.45625 29.2375 51.76875 28.64375Q52.096874 28.05 52.64375 27.659374Q53.05 27.3625 53.753124 27.159374Q54.471874 26.940624 55.284374 26.940624Q56.503124 26.940624 57.425 27.3Q58.346874 27.64375 58.784374 28.253124Q59.221874 28.846874 59.39375 29.846874L57.675 30.08125Q57.55 29.284374 56.9875 28.846874Q56.425 28.39375 55.409374 28.39375Q54.190624 28.39375 53.675 28.8Q53.159374 29.190624 53.159374 29.721874Q53.159374 30.065624 53.378124 30.346874Q53.58125 30.628124 54.05 30.815624Q54.315624 30.909374 55.596874 31.253124Q57.471874 31.753124 58.20625 32.08125Q58.940624 32.39375 59.3625 33.003124Q59.784374 33.596874 59.784374 34.503124Q59.784374 35.378124 59.26875 36.159374Q58.753124 36.940624 57.784374 37.3625Q56.815624 37.784374 55.596874 37.784374Q53.58125 37.784374 52.51875 36.940624Q51.45625 36.096874 51.159374 34.45625ZM67.22188 32.3625Q67.22188 29.4875 68.81563 28.096874Q70.15938 26.940624 72.08125 26.940624Q74.22188 26.940624 75.56563 28.346874Q76.925 29.753124 76.925 32.221874Q76.925 34.221874 76.33125 35.378124Q75.7375 36.51875 74.58125 37.159374Q73.44063 37.784374 72.08125 37.784374Q69.89375 37.784374 68.55 36.39375Q67.22188 34.9875 67.22188 32.3625ZM69.01875 32.3625Q69.01875 34.3625 69.87813 35.346874Q70.75313 36.33125 72.08125 36.33125Q73.39375 36.33125 74.25313 35.346874Q75.12813 34.346874 75.12813 32.3Q75.12813 30.378124 74.25313 29.39375Q73.37813 28.39375 72.08125 28.39375Q70.75313 28.39375 69.87813 29.39375Q69.01875 30.378124 69.01875 32.3625ZM79.28438 37.55L79.28438 28.55L77.7375 28.55L77.7375 27.175L79.28438 27.175L79.28438 26.08125Q79.28438 25.034374 79.47188 24.51875Q79.72188 23.83125 80.3625 23.409374Q81.00313 22.9875 82.15938 22.9875Q82.90938 22.9875 83.8 23.159374L83.53438 24.690624Q82.9875 24.596874 82.50313 24.596874Q81.70625 24.596874 81.3625 24.940624Q81.03438 25.284374 81.03438 26.221874L81.03438 27.175L83.06563 27.175L83.06563 28.55L81.03438 28.55L81.03438 37.55L79.28438 37.55ZM91.01875 37.55L91.01875 23.2375L96.39375 23.2375Q98.03438 23.2375 99.01875 23.675Q100.00313 24.096874 100.56563 25.003124Q101.12813 25.909374 101.12813 26.89375Q101.12813 27.815624 100.62813 28.628124Q100.14375 29.440624 99.12813 29.925Q100.425 30.315624 101.12813 31.2375Q101.83125 32.14375 101.83125 33.39375Q101.83125 34.409374 101.39375 35.26875Q100.97188 36.128124 100.34688 36.596874Q99.72188 37.065624 98.78438 37.315624Q97.84688 37.55 96.47188 37.55L91.01875 37.55ZM92.90938 29.253124L96.00313 29.253124Q97.26875 29.253124 97.81563 29.08125Q98.53438 28.8625 98.89375 28.378124Q99.26875 27.878124 99.26875 27.1125Q99.26875 26.409374 98.925 25.8625Q98.58125 25.315624 97.94063 25.128124Q97.31563 24.925 95.76875 24.925L92.90938 24.925L92.90938 29.253124ZM92.90938 35.8625L96.47188 35.8625Q97.39375 35.8625 97.76875 35.784374Q98.425 35.675 98.8625 35.409374Q99.3 35.128124 99.58125 34.6125Q99.8625 34.08125 99.8625 33.39375Q99.8625 32.596874 99.45625 32.003124Q99.05 31.409374 98.31563 31.175Q97.58125 30.940624 96.22188 30.940624L92.90938 30.940624L92.90938 35.8625ZM110.64375 36.26875Q109.65938 37.096874 108.75313 37.440624Q107.84688 37.784374 106.81563 37.784374Q105.1125 37.784374 104.19063 36.95625Q103.26875 36.1125 103.26875 34.815624Q103.26875 34.05 103.6125 33.425Q103.97188 32.8 104.53438 32.425Q105.09688 32.034374 105.8 31.83125Q106.31563 31.70625 107.3625 31.565624Q109.4875 31.315624 110.4875 30.971874Q110.50313 30.6125 110.50313 30.503124Q110.50313 29.440624 110.00313 28.9875Q109.33125 28.39375 108.00313 28.39375Q106.75313 28.39375 106.15938 28.83125Q105.58125 29.26875 105.3 30.378124L103.58125 30.14375Q103.81563 29.034374 104.34688 28.3625Q104.87813 27.675 105.89375 27.315624Q106.90938 26.940624 108.25313 26.940624Q109.58125 26.940624 110.40938 27.253124Q111.2375 27.565624 111.62813 28.05Q112.01875 28.51875 112.175 29.2375Q112.26875 29.690624 112.26875 30.8625L112.26875 33.20625Q112.26875 35.659374 112.37813 36.315624Q112.4875 36.95625 112.83125 37.55L110.9875 37.55Q110.72188 37.003124 110.64375 36.26875ZM110.4875 32.346874Q109.53438 32.7375 107.6125 33.003124Q106.53438 33.159374 106.08125 33.3625Q105.64375 33.55 105.39375 33.925Q105.14375 34.3 105.14375 34.76875Q105.14375 35.471874 105.675 35.940624Q106.20625 36.409374 107.2375 36.409374Q108.25313 36.409374 109.03438 35.971874Q109.83125 35.51875 110.20625 34.753124Q110.4875 34.14375 110.4875 32.9875L110.4875 32.346874ZM114.83125 37.55L114.83125 23.2375L116.58125 23.2375L116.58125 37.55L114.83125 37.55ZM125.64375 36.26875Q124.65938 37.096874 123.75313 37.440624Q122.84688 37.784374 121.81563 37.784374Q120.1125 37.784374 119.19063 36.95625Q118.26875 36.1125 118.26875 34.815624Q118.26875 34.05 118.6125 33.425Q118.97188 32.8 119.53438 32.425Q120.09688 32.034374 120.8 31.83125Q121.31563 31.70625 122.3625 31.565624Q124.4875 31.315624 125.4875 30.971874Q125.50313 30.6125 125.50313 30.503124Q125.50313 29.440624 125.00313 28.9875Q124.33125 28.39375 123.00313 28.39375Q121.75313 28.39375 121.15938 28.83125Q120.58125 29.26875 120.3 30.378124L118.58125 30.14375Q118.81563 29.034374 119.34688 28.3625Q119.87813 27.675 120.89375 27.315624Q121.90938 26.940624 123.25313 26.940624Q124.58125 26.940624 125.40938 27.253124Q126.2375 27.565624 126.62813 28.05Q127.01875 28.51875 127.175 29.2375Q127.26875 29.690624 127.26875 30.8625L127.26875 33.20625Q127.26875 35.659374 127.37813 36.315624Q127.4875 36.95625 127.83125 37.55L125.9875 37.55Q125.72188 37.003124 125.64375 36.26875ZM125.4875 32.346874Q124.53438 32.7375 122.6125 33.003124Q121.53438 33.159374 121.08125 33.3625Q120.64375 33.55 120.39375 33.925Q120.14375 34.3 120.14375 34.76875Q120.14375 35.471874 120.675 35.940624Q121.20625 36.409374 122.2375 36.409374Q123.25313 36.409374 124.03438 35.971874Q124.83125 35.51875 125.20625 34.753124Q125.4875 34.14375 125.4875 32.9875L125.4875 32.346874ZM129.8625 37.55L129.8625 27.175L131.45625 27.175L131.45625 28.659374Q132.59688 26.940624 134.75313 26.940624Q135.69063 26.940624 136.47188 27.284374Q137.26875 27.6125 137.65938 28.159374Q138.05 28.70625 138.20625 29.45625Q138.3 29.95625 138.3 31.175L138.3 37.55L136.53438 37.55L136.53438 31.2375Q136.53438 30.159374 136.33125 29.628124Q136.12813 29.096874 135.59688 28.784374Q135.08125 28.471874 134.37813 28.471874Q133.25313 28.471874 132.44063 29.190624Q131.62813 29.89375 131.62813 31.878124L131.62813 37.55L129.8625 37.55ZM146.64375 33.753124L148.3625 33.971874Q148.08125 35.76875 146.90938 36.784374Q145.75313 37.784374 144.05 37.784374Q141.925 37.784374 140.62813 36.39375Q139.33125 35.003124 139.33125 32.409374Q139.33125 30.721874 139.87813 29.471874Q140.44063 28.20625 141.58125 27.58125Q142.72188 26.940624 144.06563 26.940624Q145.75313 26.940624 146.81563 27.8Q147.89375 28.659374 148.20625 30.221874L146.4875 30.4875Q146.25313 29.440624 145.62813 28.925Q145.00313 28.39375 144.12813 28.39375Q142.8 28.39375 141.97188 29.346874Q141.14375 30.3 141.14375 32.346874Q141.14375 34.440624 141.94063 35.39375Q142.7375 36.33125 144.03438 36.33125Q145.06563 36.33125 145.75313 35.70625Q146.45625 35.065624 146.64375 33.753124ZM156.97188 34.20625L158.78438 34.440624Q158.3625 36.01875 157.19063 36.909374Q156.03438 37.784374 154.22188 37.784374Q151.95625 37.784374 150.6125 36.39375Q149.28438 34.9875 149.28438 32.45625Q149.28438 29.83125 150.62813 28.39375Q151.97188 26.940624 154.12813 26.940624Q156.20625 26.940624 157.51875 28.3625Q158.84688 29.76875 158.84688 32.346874Q158.84688 32.503124 158.83125 32.815624L151.09688 32.815624Q151.19063 34.51875 152.06563 35.425Q152.94063 36.33125 154.2375 36.33125Q155.20625 36.33125 155.87813 35.83125Q156.56563 35.315624 156.97188 34.20625ZM151.19063 31.3625L156.9875 31.3625Q156.87813 30.065624 156.33125 29.409374Q155.4875 28.39375 154.14375 28.39375Q152.94063 28.39375 152.1125 29.20625Q151.28438 30.003124 151.19063 31.3625Z" fill-rule="nonzero"/></svg>