<svg version="1.1" viewBox="0.0 0.0 600.0 371.0" fill="none" stroke="none" stroke-linecap="square" stroke-miterlimit="10" width="600" height="371" xmlns:xlink="http://www.w3.org/1999/xlink" xmlns="http://www.w3.org/2000/svg"><path fill="#ffffff" d="M0 0L600.0 0L600.0 371.0L0 371.0L0 0Z" fill-rule="nonzero"/><path stroke="#333333" stroke-width="1.0" stroke-linecap="butt" d="M77.5 345.5L581.5 345.5" fill-rule="nonzero"/><path stroke="#cccccc" stroke-width="1.0" stroke-linecap="butt" d="M77.5 317.5L581.5 317.5" fill-rule="nonzero"/><path stroke="#cccccc" stroke-width="1.0" stroke-linecap="butt" d="M77.5 288.5L581.5 288.5" fill-rule="nonzero"/><path stroke="#cccccc" stroke-width="1.0" stroke-linecap="butt" d="M77.5 260.5L581.5 260.5" fill-rule="nonzero"/><path stroke="#cccccc" stroke-width="1.0" stroke-linecap="butt" d="M77.5 232.5L581.5 232.5" fill-rule="nonzero"/><path stroke="#cccccc" stroke-width="1.0" stroke-linecap="butt" d="M77.5 203.5L581.5 203.5" fill-rule="nonzero"/><path stroke="#cccccc" stroke-width="1.0" stroke-linecap="butt" d="M77.5 175.5L581.5 175.5" fill-rule="nonzero"/><path stroke="#cccccc" stroke-width="1.0" stroke-linecap="butt" d="M77.5 146.5L581.5 146.5" fill-rule="nonzero"/><path stroke="#cccccc" stroke-width="1.0" stroke-linecap="butt" d="M77.5 118.5L581.5 118.5" fill-rule="nonzero"/><path stroke="#cccccc" stroke-width="1.0" stroke-linecap="butt" d="M77.5 90.5L581.5 90.5" fill-rule="nonzero"/><path stroke="#cccccc" stroke-width="1.0" stroke-linecap="butt" d="M77.5 61.5L581.5 61.5" fill-rule="nonzero"/><clipPath id="id_0"><path d="M77.55 61.916668L581.45 61.916668L581.45 345.45L77.55 345.45L77.55 61.916668Z" clip-rule="nonzero"/></clipPath><path stroke="#434343" stroke-width="2.0" stroke-linecap="butt" clip-path="url(#id_0)" d="M81.89397 170.73676L90.581894 207.76622L99.26983 209.01376L107.957756 210.2613L116.64569 227.13155L125.33362 229.74005L134.02155 242.92435L142.70949 243.51976L151.39742 244.88072L160.08534 244.88072L168.77327 249.19043L177.46121 250.77821L186.14914 252.02577L194.83707 252.33765L203.525 253.30167L212.21294 255.31476L220.90086 256.47723L229.58879 256.76077L238.27672 256.76077L246.96466 258.03668L255.65259 258.03668L264.3405 274.56668L273.02844 276.0694L281.71637 282.0803L290.4043 295.83167L299.09225 295.83167L307.78018 295.83167L316.4681 295.83167L325.15604 298.3551L333.84396 300.1981L342.5319 309.3562L351.21982 317.09668L359.90775 317.09668L368.5957 317.09668L377.28363 317.09668L385.97156 317.09668L394.6595 317.09668L403.3474 320.75424L412.03534 321.43472L420.72327 324.83713L429.4112 326.22644L438.09915 327.36057L446.78708 330.36603L455.475 330.47943L464.16293 330.5645L472.85086 331.01816L481.5388 331.13156L490.2267 331.13156L498.91464 331.13156L507.6026 331.245L516.2905 335.86658L524.97845 345.45L533.6664 345.45L542.3543 345.45L551.04224 345.45L559.73016 345.45L568.4181 345.45L577.106 345.45" fill-rule="nonzero"/><path fill="#434343" clip-path="url(#id_0)" d="M87.89397 170.73676C87.89397 174.05048 85.20767 176.73676 81.89397 176.73676C78.58025 176.73676 75.89397 174.05048 75.89397 170.73676C75.89397 167.42305 78.58025 164.73676 81.89397 164.73676C85.20767 164.73676 87.89397 167.42305 87.89397 170.73676Z" fill-rule="nonzero"/><path fill="#434343" clip-path="url(#id_0)" d="M96.581894 207.76622C96.581894 211.07993 93.89561 213.76622 90.581894 213.76622C87.26819 213.76622 84.581894 211.07993 84.581894 207.76622C84.581894 204.4525 87.26819 201.76622 90.581894 201.76622C93.89561 201.76622 96.581894 204.4525 96.581894 207.76622Z" fill-rule="nonzero"/><path fill="#434343" clip-path="url(#id_0)" d="M105.26983 209.01376C105.26983 212.32747 102.583534 215.01376 99.26983 215.01376C95.956116 215.01376 93.26983 212.32747 93.26983 209.01376C93.26983 205.70006 95.956116 203.01376 99.26983 203.01376C102.583534 203.01376 105.26983 205.70006 105.26983 209.01376Z" fill-rule="nonzero"/><path fill="#434343" clip-path="url(#id_0)" d="M113.957756 210.2613C113.957756 213.57501 111.27147 216.2613 107.957756 216.2613C104.64405 216.2613 101.957756 213.57501 101.957756 210.2613C101.957756 206.9476 104.64405 204.2613 107.957756 204.2613C111.27147 204.2613 113.957756 206.9476 113.957756 210.2613Z" fill-rule="nonzero"/><path fill="#434343" clip-path="url(#id_0)" d="M122.64569 227.13155C122.64569 230.44525 119.9594 233.13155 116.64569 233.13155C113.33198 233.13155 110.64569 230.44525 110.64569 227.13155C110.64569 223.81783 113.33198 221.13155 116.64569 221.13155C119.9594 221.13155 122.64569 223.81783 122.64569 227.13155Z" fill-rule="nonzero"/><path fill="#434343" clip-path="url(#id_0)" d="M131.33362 229.74005C131.33362 233.05376 128.64732 235.74005 125.33362 235.74005C122.01991 235.74005 119.33362 233.05376 119.33362 229.74005C119.33362 226.42633 122.01991 223.74005 125.33362 223.74005C128.64732 223.74005 131.33362 226.42633 131.33362 229.74005Z" fill-rule="nonzero"/><path fill="#434343" clip-path="url(#id_0)" d="M140.02155 242.92435C140.02155 246.23805 137.33527 248.92435 134.02155 248.92435C130.70784 248.92435 128.02155 246.23805 128.02155 242.92435C128.02155 239.61064 130.70784 236.92435 134.02155 236.92435C137.33527 236.92435 140.02155 239.61064 140.02155 242.92435Z" fill-rule="nonzero"/><path fill="#434343" clip-path="url(#id_0)" d="M148.70949 243.51976C148.70949 246.83348 146.0232 249.51976 142.70949 249.51976C139.39577 249.51976 136.70949 246.83348 136.70949 243.51976C136.70949 240.20605 139.39577 237.51976 142.70949 237.51976C146.0232 237.51976 148.70949 240.20605 148.70949 243.51976Z" fill-rule="nonzero"/><path fill="#434343" clip-path="url(#id_0)" d="M157.39742 244.88072C157.39742 248.19444 154.71112 250.88072 151.39742 250.88072C148.08371 250.88072 145.39742 248.19444 145.39742 244.88072C145.39742 241.56702 148.08371 238.88072 151.39742 238.88072C154.71112 238.88072 157.39742 241.56702 157.39742 244.88072Z" fill-rule="nonzero"/><path fill="#434343" clip-path="url(#id_0)" d="M166.08534 244.88072C166.08534 248.19444 163.39905 250.88072 160.08534 250.88072C156.77164 250.88072 154.08534 248.19444 154.08534 244.88072C154.08534 241.56702 156.77164 238.88072 160.08534 238.88072C163.39905 238.88072 166.08534 241.56702 166.08534 244.88072Z" fill-rule="nonzero"/><path fill="#434343" clip-path="url(#id_0)" d="M174.77327 249.19043C174.77327 252.50414 172.08699 255.19043 168.77327 255.19043C165.45956 255.19043 162.77327 252.50414 162.77327 249.19043C162.77327 245.87672 165.45956 243.19043 168.77327 243.19043C172.08699 243.19043 174.77327 245.87672 174.77327 249.19043Z" fill-rule="nonzero"/><path fill="#434343" clip-path="url(#id_0)" d="M183.46121 250.77821C183.46121 254.09193 180.77492 256.77823 177.46121 256.77823C174.14749 256.77823 171.46121 254.09193 171.46121 250.77821C171.46121 247.46451 174.14749 244.77821 177.46121 244.77821C180.77492 244.77821 183.46121 247.46451 183.46121 250.77821Z" fill-rule="nonzero"/><path fill="#434343" clip-path="url(#id_0)" d="M192.14914 252.02577C192.14914 255.33948 189.46284 258.02576 186.14914 258.02576C182.83543 258.02576 180.14914 255.33948 180.14914 252.02577C180.14914 248.71205 182.83543 246.02577 186.14914 246.02577C189.46284 246.02577 192.14914 248.71205 192.14914 252.02577Z" fill-rule="nonzero"/><path fill="#434343" clip-path="url(#id_0)" d="M200.83707 252.33765C200.83707 255.65137 198.15077 258.33765 194.83707 258.33765C191.52336 258.33765 188.83707 255.65137 188.83707 252.33765C188.83707 249.02394 191.52336 246.33765 194.83707 246.33765C198.15077 246.33765 200.83707 249.02394 200.83707 252.33765Z" fill-rule="nonzero"/><path fill="#434343" clip-path="url(#id_0)" d="M209.525 253.30167C209.525 256.6154 206.83871 259.30167 203.525 259.30167C200.21129 259.30167 197.525 256.6154 197.525 253.30167C197.525 249.98796 200.21129 247.30167 203.525 247.30167C206.83871 247.30167 209.525 249.98796 209.525 253.30167Z" fill-rule="nonzero"/><path fill="#434343" clip-path="url(#id_0)" d="M218.21294 255.31476C218.21294 258.62845 215.52664 261.31476 212.21294 261.31476C208.89922 261.31476 206.21294 258.62845 206.21294 255.31476C206.21294 252.00104 208.89922 249.31476 212.21294 249.31476C215.52664 249.31476 218.21294 252.00104 218.21294 255.31476Z" fill-rule="nonzero"/><path fill="#434343" clip-path="url(#id_0)" d="M226.90086 256.47723C226.90086 259.79095 224.21457 262.47723 220.90086 262.47723C217.58716 262.47723 214.90086 259.79095 214.90086 256.47723C214.90086 253.16353 217.58716 250.47723 220.90086 250.47723C224.21457 250.47723 226.90086 253.16353 226.90086 256.47723Z" fill-rule="nonzero"/><path fill="#434343" clip-path="url(#id_0)" d="M235.58879 256.76077C235.58879 260.0745 232.9025 262.76077 229.58879 262.76077C226.27509 262.76077 223.58879 260.0745 223.58879 256.76077C223.58879 253.44707 226.27509 250.76077 229.58879 250.76077C232.9025 250.76077 235.58879 253.44707 235.58879 256.76077Z" fill-rule="nonzero"/><path fill="#434343" clip-path="url(#id_0)" d="M244.27672 256.76077C244.27672 260.0745 241.59044 262.76077 238.27672 262.76077C234.96301 262.76077 232.27672 260.0745 232.27672 256.76077C232.27672 253.44707 234.96301 250.76077 238.27672 250.76077C241.59044 250.76077 244.27672 253.44707 244.27672 256.76077Z" fill-rule="nonzero"/><path fill="#434343" clip-path="url(#id_0)" d="M252.96466 258.03668C252.96466 261.35037 250.27837 264.03668 246.96466 264.03668C243.65094 264.03668 240.96466 261.35037 240.96466 258.03668C240.96466 254.72296 243.65094 252.03667 246.96466 252.03667C250.27837 252.03667 252.96466 254.72296 252.96466 258.03668Z" fill-rule="nonzero"/><path fill="#434343" clip-path="url(#id_0)" d="M261.6526 258.03668C261.6526 261.35037 258.9663 264.03668 255.65259 264.03668C252.33888 264.03668 249.65259 261.35037 249.65259 258.03668C249.65259 254.72296 252.33888 252.03667 255.65259 252.03667C258.9663 252.03667 261.6526 254.72296 261.6526 258.03668Z" fill-rule="nonzero"/><path fill="#434343" clip-path="url(#id_0)" d="M270.3405 274.56668C270.3405 277.88037 267.65424 280.56668 264.3405 280.56668C261.0268 280.56668 258.3405 277.88037 258.3405 274.56668C258.3405 271.25296 261.0268 268.56668 264.3405 268.56668C267.65424 268.56668 270.3405 271.25296 270.3405 274.56668Z" fill-rule="nonzero"/><path fill="#434343" clip-path="url(#id_0)" d="M279.02844 276.0694C279.02844 279.3831 276.34216 282.0694 273.02844 282.0694C269.71475 282.0694 267.02844 279.3831 267.02844 276.0694C267.02844 272.75568 269.71475 270.0694 273.02844 270.0694C276.34216 270.0694 279.02844 272.75568 279.02844 276.0694Z" fill-rule="nonzero"/><path fill="#434343" clip-path="url(#id_0)" d="M287.71637 282.0803C287.71637 285.394 285.0301 288.0803 281.71637 288.0803C278.40268 288.0803 275.71637 285.394 275.71637 282.0803C275.71637 278.7666 278.40268 276.0803 281.71637 276.0803C285.0301 276.0803 287.71637 278.7666 287.71637 282.0803Z" fill-rule="nonzero"/><path fill="#434343" clip-path="url(#id_0)" d="M296.4043 295.83167C296.4043 299.1454 293.71802 301.83167 290.4043 301.83167C287.0906 301.83167 284.4043 299.1454 284.4043 295.83167C284.4043 292.51794 287.0906 289.83167 290.4043 289.83167C293.71802 289.83167 296.4043 292.51794 296.4043 295.83167Z" fill-rule="nonzero"/><path fill="#434343" clip-path="url(#id_0)" d="M305.09225 295.83167C305.09225 299.1454 302.40594 301.83167 299.09225 301.83167C295.77853 301.83167 293.09225 299.1454 293.09225 295.83167C293.09225 292.51794 295.77853 289.83167 299.09225 289.83167C302.40594 289.83167 305.09225 292.51794 305.09225 295.83167Z" fill-rule="nonzero"/><path fill="#434343" clip-path="url(#id_0)" d="M313.78018 295.83167C313.78018 299.1454 311.09387 301.83167 307.78018 301.83167C304.46646 301.83167 301.78018 299.1454 301.78018 295.83167C301.78018 292.51794 304.46646 289.83167 307.78018 289.83167C311.09387 289.83167 313.78018 292.51794 313.78018 295.83167Z" fill-rule="nonzero"/><path fill="#434343" clip-path="url(#id_0)" d="M322.4681 295.83167C322.4681 299.1454 319.7818 301.83167 316.4681 301.83167C313.1544 301.83167 310.4681 299.1454 310.4681 295.83167C310.4681 292.51794 313.1544 289.83167 316.4681 289.83167C319.7818 289.83167 322.4681 292.51794 322.4681 295.83167Z" fill-rule="nonzero"/><path fill="#434343" clip-path="url(#id_0)" d="M331.15604 298.3551C331.15604 301.66882 328.46976 304.3551 325.15604 304.3551C321.84232 304.3551 319.15604 301.66882 319.15604 298.3551C319.15604 295.0414 321.84232 292.3551 325.15604 292.3551C328.46976 292.3551 331.15604 295.0414 331.15604 298.3551Z" fill-rule="nonzero"/><path fill="#434343" clip-path="url(#id_0)" d="M339.84396 300.1981C339.84396 303.51178 337.15768 306.1981 333.84396 306.1981C330.53024 306.1981 327.84396 303.51178 327.84396 300.1981C327.84396 296.88437 330.53024 294.1981 333.84396 294.1981C337.15768 294.1981 339.84396 296.88437 339.84396 300.1981Z" fill-rule="nonzero"/><path fill="#434343" clip-path="url(#id_0)" d="M348.5319 309.3562C348.5319 312.66992 345.8456 315.3562 342.5319 315.3562C339.2182 315.3562 336.5319 312.66992 336.5319 309.3562C336.5319 306.0425 339.2182 303.3562 342.5319 303.3562C345.8456 303.3562 348.5319 306.0425 348.5319 309.3562Z" fill-rule="nonzero"/><path fill="#434343" clip-path="url(#id_0)" d="M357.21982 317.09668C357.21982 320.41037 354.53354 323.09668 351.21982 323.09668C347.90613 323.09668 345.21982 320.41037 345.21982 317.09668C345.21982 313.78296 347.90613 311.09668 351.21982 311.09668C354.53354 311.09668 357.21982 313.78296 357.21982 317.09668Z" fill-rule="nonzero"/><path fill="#434343" clip-path="url(#id_0)" d="M365.90775 317.09668C365.90775 320.41037 363.22147 323.09668 359.90775 323.09668C356.59406 323.09668 353.90775 320.41037 353.90775 317.09668C353.90775 313.78296 356.59406 311.09668 359.90775 311.09668C363.22147 311.09668 365.90775 313.78296 365.90775 317.09668Z" fill-rule="nonzero"/><path fill="#434343" clip-path="url(#id_0)" d="M374.5957 317.09668C374.5957 320.41037 371.9094 323.09668 368.5957 323.09668C365.28198 323.09668 362.5957 320.41037 362.5957 317.09668C362.5957 313.78296 365.28198 311.09668 368.5957 311.09668C371.9094 311.09668 374.5957 313.78296 374.5957 317.09668Z" fill-rule="nonzero"/><path fill="#434343" clip-path="url(#id_0)" d="M383.28363 317.09668C383.28363 320.41037 380.59732 323.09668 377.28363 323.09668C373.9699 323.09668 371.28363 320.41037 371.28363 317.09668C371.28363 313.78296 373.9699 311.09668 377.28363 311.09668C380.59732 311.09668 383.28363 313.78296 383.28363 317.09668Z" fill-rule="nonzero"/><path fill="#434343" clip-path="url(#id_0)" d="M391.97156 317.09668C391.97156 320.41037 389.28525 323.09668 385.97156 323.09668C382.65784 323.09668 379.97156 320.41037 379.97156 317.09668C379.97156 313.78296 382.65784 311.09668 385.97156 311.09668C389.28525 311.09668 391.97156 313.78296 391.97156 317.09668Z" fill-rule="nonzero"/><path fill="#434343" clip-path="url(#id_0)" d="M400.6595 317.09668C400.6595 320.41037 397.9732 323.09668 394.6595 323.09668C391.34576 323.09668 388.6595 320.41037 388.6595 317.09668C388.6595 313.78296 391.34576 311.09668 394.6595 311.09668C397.9732 311.09668 400.6595 313.78296 400.6595 317.09668Z" fill-rule="nonzero"/><path fill="#434343" clip-path="url(#id_0)" d="M409.3474 320.75424C409.3474 324.06796 406.66113 326.75424 403.3474 326.75424C400.0337 326.75424 397.3474 324.06796 397.3474 320.75424C397.3474 317.44055 400.0337 314.75424 403.3474 314.75424C406.66113 314.75424 409.3474 317.44055 409.3474 320.75424Z" fill-rule="nonzero"/><path fill="#434343" clip-path="url(#id_0)" d="M418.03534 321.43472C418.03534 324.74844 415.34906 327.43472 412.03534 327.43472C408.72165 327.43472 406.03534 324.74844 406.03534 321.43472C406.03534 318.12103 408.72165 315.43472 412.03534 315.43472C415.34906 315.43472 418.03534 318.12103 418.03534 321.43472Z" fill-rule="nonzero"/><path fill="#434343" clip-path="url(#id_0)" d="M426.72327 324.83713C426.72327 328.15085 424.037 330.83713 420.72327 330.83713C417.40958 330.83713 414.72327 328.15085 414.72327 324.83713C414.72327 321.5234 417.40958 318.83713 420.72327 318.83713C424.037 318.83713 426.72327 321.5234 426.72327 324.83713Z" fill-rule="nonzero"/><path fill="#434343" clip-path="url(#id_0)" d="M435.4112 326.22644C435.4112 329.54016 432.7249 332.22644 429.4112 332.22644C426.0975 332.22644 423.4112 329.54016 423.4112 326.22644C423.4112 322.91272 426.0975 320.22644 429.4112 320.22644C432.7249 320.22644 435.4112 322.91272 435.4112 326.22644Z" fill-rule="nonzero"/><path fill="#434343" clip-path="url(#id_0)" d="M444.09915 327.36057C444.09915 330.6743 441.41284 333.36057 438.09915 333.36057C434.78543 333.36057 432.09915 330.6743 432.09915 327.36057C432.09915 324.04688 434.78543 321.36057 438.09915 321.36057C441.41284 321.36057 444.09915 324.04688 444.09915 327.36057Z" fill-rule="nonzero"/><path fill="#434343" clip-path="url(#id_0)" d="M452.78708 330.36603C452.78708 333.67975 450.10077 336.36603 446.78708 336.36603C443.47336 336.36603 440.78708 333.67975 440.78708 330.36603C440.78708 327.0523 443.47336 324.36603 446.78708 324.36603C450.10077 324.36603 452.78708 327.0523 452.78708 330.36603Z" fill-rule="nonzero"/><path fill="#434343" clip-path="url(#id_0)" d="M461.475 330.47943C461.475 333.79315 458.7887 336.47943 455.475 336.47943C452.1613 336.47943 449.475 333.79315 449.475 330.47943C449.475 327.16574 452.1613 324.47943 455.475 324.47943C458.7887 324.47943 461.475 327.16574 461.475 330.47943Z" fill-rule="nonzero"/><path fill="#434343" clip-path="url(#id_0)" d="M470.16293 330.5645C470.16293 333.8782 467.47665 336.5645 464.16293 336.5645C460.8492 336.5645 458.16293 333.8782 458.16293 330.5645C458.16293 327.2508 460.8492 324.5645 464.16293 324.5645C467.47665 324.5645 470.16293 327.2508 470.16293 330.5645Z" fill-rule="nonzero"/><path fill="#434343" clip-path="url(#id_0)" d="M478.85086 331.01816C478.85086 334.33185 476.16458 337.01816 472.85086 337.01816C469.53714 337.01816 466.85086 334.33185 466.85086 331.01816C466.85086 327.70444 469.53714 325.01816 472.85086 325.01816C476.16458 325.01816 478.85086 327.70444 478.85086 331.01816Z" fill-rule="nonzero"/><path fill="#434343" clip-path="url(#id_0)" d="M487.5388 331.13156C487.5388 334.44528 484.8525 337.13156 481.5388 337.13156C478.2251 337.13156 475.5388 334.44528 475.5388 331.13156C475.5388 327.81787 478.2251 325.13156 481.5388 325.13156C484.8525 325.13156 487.5388 327.81787 487.5388 331.13156Z" fill-rule="nonzero"/><path fill="#434343" clip-path="url(#id_0)" d="M496.2267 331.13156C496.2267 334.44528 493.54044 337.13156 490.2267 337.13156C486.91302 337.13156 484.2267 334.44528 484.2267 331.13156C484.2267 327.81787 486.91302 325.13156 490.2267 325.13156C493.54044 325.13156 496.2267 327.81787 496.2267 331.13156Z" fill-rule="nonzero"/><path fill="#434343" clip-path="url(#id_0)" d="M504.91464 331.13156C504.91464 334.44528 502.22836 337.13156 498.91464 337.13156C495.60095 337.13156 492.91464 334.44528 492.91464 331.13156C492.91464 327.81787 495.60095 325.13156 498.91464 325.13156C502.22836 325.13156 504.91464 327.81787 504.91464 331.13156Z" fill-rule="nonzero"/><path fill="#434343" clip-path="url(#id_0)" d="M513.6026 331.245C513.6026 334.5587 510.9163 337.245 507.6026 337.245C504.28888 337.245 501.6026 334.5587 501.6026 331.245C501.6026 327.93127 504.28888 325.245 507.6026 325.245C510.9163 325.245 513.6026 327.93127 513.6026 331.245Z" fill-rule="nonzero"/><path fill="#434343" clip-path="url(#id_0)" d="M522.2905 335.86658C522.2905 339.18027 519.60425 341.86658 516.2905 341.86658C512.9768 341.86658 510.29053 339.18027 510.29053 335.86658C510.29053 332.55286 512.9768 329.86658 516.2905 329.86658C519.60425 329.86658 522.2905 332.55286 522.2905 335.86658Z" fill-rule="nonzero"/><path fill="#434343" clip-path="url(#id_0)" d="M530.97845 345.45C530.97845 348.7637 528.2922 351.45 524.97845 351.45C521.66473 351.45 518.97845 348.7637 518.97845 345.45C518.97845 342.1363 521.66473 339.45 524.97845 339.45C528.2922 339.45 530.97845 342.1363 530.97845 345.45Z" fill-rule="nonzero"/><path fill="#434343" clip-path="url(#id_0)" d="M539.6664 345.45C539.6664 348.7637 536.9801 351.45 533.6664 351.45C530.35266 351.45 527.6664 348.7637 527.6664 345.45C527.6664 342.1363 530.35266 339.45 533.6664 339.45C536.9801 339.45 539.6664 342.1363 539.6664 345.45Z" fill-rule="nonzero"/><path fill="#434343" clip-path="url(#id_0)" d="M548.3543 345.45C548.3543 348.7637 545.668 351.45 542.3543 351.45C539.0406 351.45 536.3543 348.7637 536.3543 345.45C536.3543 342.1363 539.0406 339.45 542.3543 339.45C545.668 339.45 548.3543 342.1363 548.3543 345.45Z" fill-rule="nonzero"/><path fill="#434343" clip-path="url(#id_0)" d="M557.04224 345.45C557.04224 348.7637 554.35596 351.45 551.04224 351.45C547.7285 351.45 545.04224 348.7637 545.04224 345.45C545.04224 342.1363 547.7285 339.45 551.04224 339.45C554.35596 339.45 557.04224 342.1363 557.04224 345.45Z" fill-rule="nonzero"/><path fill="#434343" clip-path="url(#id_0)" d="M565.73016 345.45C565.73016 348.7637 563.0439 351.45 559.73016 351.45C556.41644 351.45 553.73016 348.7637 553.73016 345.45C553.73016 342.1363 556.41644 339.45 559.73016 339.45C563.0439 339.45 565.73016 342.1363 565.73016 345.45Z" fill-rule="nonzero"/><path fill="#434343" clip-path="url(#id_0)" d="M574.4181 345.45C574.4181 348.7637 571.7318 351.45 568.4181 351.45C565.1044 351.45 562.4181 348.7637 562.4181 345.45C562.4181 342.1363 565.1044 339.45 568.4181 339.45C571.7318 339.45 574.4181 342.1363 574.4181 345.45Z" fill-rule="nonzero"/><path fill="#434343" clip-path="url(#id_0)" d="M583.106 345.45C583.106 348.7637 580.41974 351.45 577.106 351.45C573.7923 351.45 571.106 348.7637 571.106 345.45C571.106 342.1363 573.7923 339.45 577.106 339.45C580.41974 339.45 583.106 342.1363 583.106 345.45Z" fill-rule="nonzero"/><path fill="#000000" d="M26.784388 219.13646L26.690638 218.07396Q27.346888 217.99583 27.753138 217.71458Q28.159388 217.43333 28.425013 216.85521Q28.675013 216.26146 28.675013 215.52708Q28.675013 214.88646 28.487513 214.38646Q28.284388 213.88646 27.956263 213.65208Q27.612513 213.40208 27.221888 213.40208Q26.815638 213.40208 26.518763 213.63646Q26.206263 213.87083 26.003138 214.40208Q25.862513 214.76146 25.581263 215.94896Q25.300013 217.12083 25.050013 217.58958Q24.721888 218.21458 24.253138 218.51146Q23.768763 218.80833 23.175013 218.80833Q22.534388 218.80833 21.971888 218.44896Q21.393763 218.07396 21.112513 217.37083Q20.815638 216.65208 20.815638 215.79271Q20.815638 214.83958 21.128138 214.10521Q21.425013 213.37083 22.034388 212.98021Q22.628138 212.58958 23.378138 212.55833L23.456263 213.65208Q22.643763 213.74583 22.237513 214.26146Q21.815638 214.76146 21.815638 215.74583Q21.815638 216.77708 22.190638 217.24583Q22.565638 217.71458 23.096888 217.71458Q23.565638 217.71458 23.862513 217.38646Q24.159388 217.05833 24.471888 215.68333Q24.784388 214.29271 25.018763 213.77708Q25.378138 213.02708 25.909388 212.66771Q26.425013 212.30833 27.128138 212.30833Q27.815638 212.30833 28.425013 212.69896Q29.018763 213.08958 29.362513 213.82396Q29.690638 214.55833 29.690638 215.48021Q29.690638 216.65208 29.362513 217.44896Q29.018763 218.23021 28.331263 218.68333Q27.643763 219.12083 26.784388 219.13646ZM27.268763 206.82396L27.409388 205.79271Q28.471888 205.96458 29.081263 206.66771Q29.690638 207.37083 29.690638 208.38646Q29.690638 209.66771 28.862513 210.44896Q28.018763 211.21458 26.456263 211.21458Q25.456263 211.21458 24.706263 210.88646Q23.940638 210.54271 23.565638 209.87083Q23.190638 209.18333 23.190638 208.37083Q23.190638 207.37083 23.706263 206.73021Q24.206263 206.07396 25.159388 205.88646L25.315638 206.91771Q24.690638 207.05833 24.378138 207.43333Q24.050013 207.80833 24.050013 208.33958Q24.050013 209.13646 24.628138 209.63646Q25.190638 210.13646 26.425013 210.13646Q27.690638 210.13646 28.253138 209.65208Q28.815638 209.16771 28.815638 208.40208Q28.815638 207.77708 28.440638 207.37083Q28.065638 206.94896 27.268763 206.82396ZM26.440638 205.27708Q24.706263 205.27708 23.878138 204.32396Q23.190638 203.52708 23.190638 202.37083Q23.190638 201.08958 24.034388 200.27708Q24.862513 199.44896 26.346888 199.44896Q27.550013 199.44896 28.237513 199.80833Q28.925013 200.16771 29.315638 200.87083Q29.690638 201.55833 29.690638 202.37083Q29.690638 203.66771 28.862513 204.48021Q28.018763 205.27708 26.440638 205.27708ZM26.440638 204.19896Q27.628138 204.19896 28.221888 203.68333Q28.815638 203.15208 28.815638 202.37083Q28.815638 201.57396 28.221888 201.05833Q27.628138 200.54271 26.409388 200.54271Q25.253138 200.54271 24.659388 201.07396Q24.065638 201.58958 24.065638 202.37083Q24.065638 203.15208 24.659388 203.68333Q25.237513 204.19896 26.440638 204.19896ZM29.550013 197.90208L23.331263 197.90208L23.331263 196.94896L24.268763 196.94896Q23.612513 196.58958 23.409388 196.29271Q23.190638 195.98021 23.190638 195.60521Q23.190638 195.07396 23.518763 194.52708L24.503138 194.88646Q24.268763 195.27708 24.268763 195.65208Q24.268763 196.01146 24.487513 196.29271Q24.690638 196.55833 25.065638 196.66771Q25.628138 196.85521 26.284388 196.85521L29.550013 196.85521L29.550013 197.90208ZM27.550013 189.63646L27.675013 188.54271Q28.628138 188.79271 29.159388 189.49583Q29.690638 190.19896 29.690638 191.27708Q29.690638 192.63646 28.846888 193.44896Q28.003138 194.24583 26.487513 194.24583Q24.925013 194.24583 24.065638 193.43333Q23.190638 192.62083 23.190638 191.33958Q23.190638 190.08958 24.034388 189.30833Q24.878138 188.51146 26.425013 188.51146Q26.518763 188.51146 26.706263 188.51146L26.706263 193.15208Q27.737513 193.08958 28.284388 192.57396Q28.815638 192.05833 28.815638 191.27708Q28.815638 190.69896 28.518763 190.29271Q28.206263 189.87083 27.550013 189.63646ZM25.846888 193.08958L25.846888 189.62083Q25.050013 189.68333 24.659388 190.01146Q24.050013 190.52708 24.050013 191.32396Q24.050013 192.05833 24.534388 192.55833Q25.018763 193.04271 25.846888 193.08958Z" fill-rule="nonzero"/><path fill="#000000" d="M65.05 345.21564Q65.05 343.6844 65.3625 342.7625Q65.675 341.825 66.28438 341.325Q66.90938 340.825 67.84688 340.825Q68.53438 340.825 69.05 341.10626Q69.58125 341.3875 69.925 341.91876Q70.26875 342.4344 70.45625 343.1844Q70.64375 343.9344 70.64375 345.21564Q70.64375 346.73126 70.33125 347.65314Q70.03438 348.575 69.40938 349.09064Q68.8 349.59064 67.84688 349.59064Q66.6125 349.59064 65.89375 348.7Q65.05 347.6375 65.05 345.21564ZM66.12813 345.21564Q66.12813 347.325 66.62813 348.02814Q67.12813 348.73126 67.84688 348.73126Q68.58125 348.73126 69.06563 348.02814Q69.56563 347.325 69.56563 345.21564Q69.56563 343.09064 69.06563 342.40314Q68.58125 341.7 67.83125 341.7Q67.1125 341.7 66.675 342.3094Q66.12813 343.09064 66.12813 345.21564Z" fill-rule="nonzero"/><path fill="#000000" d="M62.01875 321.09668L60.971874 321.09668L60.971874 314.37793Q60.58125 314.7373 59.95625 315.1123Q59.346874 315.47168 58.8625 315.64355L58.8625 314.62793Q59.7375 314.20605 60.39375 313.62793Q61.065624 313.03418 61.346874 312.47168L62.01875 312.47168L62.01875 321.09668ZM65.05 316.8623Q65.05 315.33105 65.3625 314.40918Q65.675 313.47168 66.28438 312.97168Q66.90938 312.47168 67.84688 312.47168Q68.53438 312.47168 69.05 312.75293Q69.58125 313.03418 69.925 313.56543Q70.26875 314.08105 70.45625 314.83105Q70.64375 315.58105 70.64375 316.8623Q70.64375 318.37793 70.33125 319.2998Q70.03438 320.22168 69.40938 320.7373Q68.8 321.2373 67.84688 321.2373Q66.6125 321.2373 65.89375 320.34668Q65.05 319.28418 65.05 316.8623ZM66.12813 316.8623Q66.12813 318.97168 66.62813 319.6748Q67.12813 320.37793 67.84688 320.37793Q68.58125 320.37793 69.06563 319.6748Q69.56563 318.97168 69.56563 316.8623Q69.56563 314.7373 69.06563 314.0498Q68.58125 313.34668 67.83125 313.34668Q67.1125 313.34668 66.675 313.95605Q66.12813 314.7373 66.12813 316.8623Z" fill-rule="nonzero"/><path fill="#000000" d="M63.596874 291.72772L63.596874 292.74335L57.909374 292.74335Q57.909374 292.36835 58.034374 292.00897Q58.253124 291.43085 58.721874 290.86835Q59.20625 290.30585 60.1125 289.57147Q61.51875 288.41522 62.003124 287.74335Q62.503124 287.07147 62.503124 286.47772Q62.503124 285.85272 62.05 285.43085Q61.596874 284.99335 60.878124 284.99335Q60.1125 284.99335 59.659374 285.44647Q59.20625 285.8996 59.190624 286.7121L58.1125 286.60272Q58.221874 285.38397 58.940624 284.75897Q59.675 284.11835 60.909374 284.11835Q62.14375 284.11835 62.8625 284.80585Q63.58125 285.49335 63.58125 286.50897Q63.58125 287.0246 63.3625 287.5246Q63.159374 288.00897 62.659374 288.57147Q62.175 289.11835 61.05 290.07147Q60.096874 290.86835 59.815624 291.16522Q59.55 291.44647 59.378124 291.72772L63.596874 291.72772ZM65.05 288.50897Q65.05 286.97772 65.3625 286.05585Q65.675 285.11835 66.28438 284.61835Q66.90938 284.11835 67.84688 284.11835Q68.53438 284.11835 69.05 284.3996Q69.58125 284.68085 69.925 285.2121Q70.26875 285.72772 70.45625 286.47772Q70.64375 287.22772 70.64375 288.50897Q70.64375 290.0246 70.33125 290.94647Q70.03438 291.86835 69.40938 292.38397Q68.8 292.88397 67.84688 292.88397Q66.6125 292.88397 65.89375 291.99335Q65.05 290.93085 65.05 288.50897ZM66.12813 288.50897Q66.12813 290.61835 66.62813 291.32147Q67.12813 292.0246 67.84688 292.0246Q68.58125 292.0246 69.06563 291.32147Q69.56563 290.61835 69.56563 288.50897Q69.56563 286.38397 69.06563 285.69647Q68.58125 284.99335 67.83125 284.99335Q67.1125 284.99335 66.675 285.60272Q66.12813 286.38397 66.12813 288.50897Z" fill-rule="nonzero"/><path fill="#000000" d="M58.05 262.1244L59.1125 261.98376Q59.284374 262.8744 59.721874 263.28064Q60.159374 263.67126 60.784374 263.67126Q61.534374 263.67126 62.05 263.15564Q62.565624 262.64 62.565624 261.8744Q62.565624 261.15564 62.08125 260.6869Q61.6125 260.2025 60.878124 260.2025Q60.58125 260.2025 60.128124 260.3275L60.253124 259.39Q60.3625 259.40564 60.425 259.40564Q61.096874 259.40564 61.628124 259.0619Q62.175 258.7025 62.175 257.96814Q62.175 257.39 61.784374 257.015Q61.39375 256.6244 60.76875 256.6244Q60.159374 256.6244 59.7375 257.015Q59.33125 257.40564 59.221874 258.17126L58.159374 257.98376Q58.346874 256.9369 59.034374 256.35876Q59.721874 255.76501 60.7375 255.76501Q61.440624 255.76501 62.034374 256.0775Q62.628124 256.3744 62.940624 256.89Q63.253124 257.40564 63.253124 257.9994Q63.253124 258.54626 62.95625 259.015Q62.659374 259.46814 62.08125 259.73376Q62.83125 259.90564 63.253124 260.46814Q63.675 261.015 63.675 261.85876Q63.675 262.98376 62.846874 263.765Q62.034374 264.54626 60.784374 264.54626Q59.659374 264.54626 58.909374 263.8744Q58.159374 263.1869 58.05 262.1244ZM65.05 260.15564Q65.05 258.6244 65.3625 257.7025Q65.675 256.765 66.28438 256.265Q66.90938 255.76501 67.84688 255.76501Q68.53438 255.76501 69.05 256.04626Q69.58125 256.3275 69.925 256.85876Q70.26875 257.3744 70.45625 258.1244Q70.64375 258.8744 70.64375 260.15564Q70.64375 261.67126 70.33125 262.59314Q70.03438 263.515 69.40938 264.03064Q68.8 264.53064 67.84688 264.53064Q66.6125 264.53064 65.89375 263.64Q65.05 262.5775 65.05 260.15564ZM66.12813 260.15564Q66.12813 262.265 66.62813 262.96814Q67.12813 263.67126 67.84688 263.67126Q68.58125 263.67126 69.06563 262.96814Q69.56563 262.265 69.56563 260.15564Q69.56563 258.03064 69.06563 257.34314Q68.58125 256.64 67.83125 256.64Q67.1125 256.64 66.675 257.2494Q66.12813 258.03064 66.12813 260.15564Z" fill-rule="nonzero"/><path fill="#000000" d="M61.425 236.03667L61.425 233.97417L57.70625 233.97417L57.70625 233.00542L61.628124 227.44292L62.4875 227.44292L62.4875 233.00542L63.64375 233.00542L63.64375 233.97417L62.4875 233.97417L62.4875 236.03667L61.425 236.03667ZM61.425 233.00542L61.425 229.14604L58.7375 233.00542L61.425 233.00542ZM65.05 231.80229Q65.05 230.27104 65.3625 229.34917Q65.675 228.41167 66.28438 227.91167Q66.90938 227.41167 67.84688 227.41167Q68.53438 227.41167 69.05 227.69292Q69.58125 227.97417 69.925 228.50542Q70.26875 229.02104 70.45625 229.77104Q70.64375 230.52104 70.64375 231.80229Q70.64375 233.31792 70.33125 234.23979Q70.03438 235.16167 69.40938 235.67729Q68.8 236.17729 67.84688 236.17729Q66.6125 236.17729 65.89375 235.28667Q65.05 234.22417 65.05 231.80229ZM66.12813 231.80229Q66.12813 233.91167 66.62813 234.61479Q67.12813 235.31792 67.84688 235.31792Q68.58125 235.31792 69.06563 234.61479Q69.56563 233.91167 69.56563 231.80229Q69.56563 229.67729 69.06563 228.98979Q68.58125 228.28667 67.83125 228.28667Q67.1125 228.28667 66.675 228.89604Q66.12813 229.67729 66.12813 231.80229Z" fill-rule="nonzero"/><path fill="#000000" d="M58.05 205.43333L59.159374 205.33958Q59.284374 206.15208 59.721874 206.55833Q60.175 206.96458 60.815624 206.96458Q61.565624 206.96458 62.096874 206.38646Q62.628124 205.80833 62.628124 204.87083Q62.628124 203.96458 62.1125 203.44896Q61.6125 202.91771 60.784374 202.91771Q60.284374 202.91771 59.8625 203.15208Q59.45625 203.38646 59.221874 203.74583L58.2375 203.62083L59.065624 199.21458L63.346874 199.21458L63.346874 200.21458L59.909374 200.21458L59.45625 202.52708Q60.221874 201.98021 61.065624 201.98021Q62.190624 201.98021 62.95625 202.76146Q63.7375 203.54271 63.7375 204.77708Q63.7375 205.93333 63.065624 206.79271Q62.2375 207.82396 60.815624 207.82396Q59.64375 207.82396 58.89375 207.16771Q58.159374 206.51146 58.05 205.43333ZM65.05 203.44896Q65.05 201.91771 65.3625 200.99583Q65.675 200.05833 66.28438 199.55833Q66.90938 199.05833 67.84688 199.05833Q68.53438 199.05833 69.05 199.33958Q69.58125 199.62083 69.925 200.15208Q70.26875 200.66771 70.45625 201.41771Q70.64375 202.16771 70.64375 203.44896Q70.64375 204.96458 70.33125 205.88646Q70.03438 206.80833 69.40938 207.32396Q68.8 207.82396 67.84688 207.82396Q66.6125 207.82396 65.89375 206.93333Q65.05 205.87083 65.05 203.44896ZM66.12813 203.44896Q66.12813 205.55833 66.62813 206.26146Q67.12813 206.96458 67.84688 206.96458Q68.58125 206.96458 69.06563 206.26146Q69.56563 205.55833 69.56563 203.44896Q69.56563 201.32396 69.06563 200.63646Q68.58125 199.93333 67.83125 199.93333Q67.1125 199.93333 66.675 200.54271Q66.12813 201.32396 66.12813 203.44896Z" fill-rule="nonzero"/><path fill="#000000" d="M63.51875 172.84563L62.471874 172.92375Q62.33125 172.29875 62.08125 172.0175Q61.64375 171.56438 61.01875 171.56438Q60.51875 171.56438 60.128124 171.84563Q59.64375 172.22063 59.346874 172.92375Q59.065624 173.61125 59.05 174.8925Q59.425 174.31438 59.971874 174.03313Q60.534374 173.75188 61.14375 173.75188Q62.190624 173.75188 62.925 174.53313Q63.675 175.31438 63.675 176.53313Q63.675 177.34563 63.315624 178.04875Q62.971874 178.73625 62.3625 179.11125Q61.753124 179.47063 60.9875 179.47063Q59.659374 179.47063 58.83125 178.50188Q58.003124 177.53313 58.003124 175.31438Q58.003124 172.81438 58.925 171.68938Q59.721874 170.705 61.08125 170.705Q62.096874 170.705 62.7375 171.28313Q63.39375 171.84563 63.51875 172.84563ZM59.221874 176.54875Q59.221874 177.09563 59.440624 177.59563Q59.675 178.08 60.08125 178.34563Q60.503124 178.61125 60.971874 178.61125Q61.628124 178.61125 62.1125 178.08Q62.596874 177.53313 62.596874 176.61125Q62.596874 175.72063 62.1125 175.205Q61.64375 174.68938 60.925 174.68938Q60.20625 174.68938 59.70625 175.205Q59.221874 175.72063 59.221874 176.54875ZM65.05 175.09563Q65.05 173.56438 65.3625 172.6425Q65.675 171.705 66.28438 171.205Q66.90938 170.705 67.84688 170.705Q68.53438 170.705 69.05 170.98625Q69.58125 171.2675 69.925 171.79875Q70.26875 172.31438 70.45625 173.06438Q70.64375 173.81438 70.64375 175.09563Q70.64375 176.61125 70.33125 177.53313Q70.03438 178.455 69.40938 178.97063Q68.8 179.47063 67.84688 179.47063Q66.6125 179.47063 65.89375 178.58Q65.05 177.5175 65.05 175.09563ZM66.12813 175.09563Q66.12813 177.205 66.62813 177.90813Q67.12813 178.61125 67.84688 178.61125Q68.58125 178.61125 69.06563 177.90813Q69.56563 177.205 69.56563 175.09563Q69.56563 172.97063 69.06563 172.28313Q68.58125 171.58 67.83125 171.58Q67.1125 171.58 66.675 172.18938Q66.12813 172.97063 66.12813 175.09563Z" fill-rule="nonzero"/><path fill="#000000" d="M58.1125 143.50792L58.1125 142.4923L63.675 142.4923L63.675 143.32042Q62.8625 144.19542 62.05 145.64854Q61.253124 147.08604 60.815624 148.6173Q60.4875 149.69542 60.409374 150.97667L59.315624 150.97667Q59.33125 149.96104 59.70625 148.52354Q60.096874 147.08604 60.8 145.75792Q61.51875 144.4298 62.33125 143.50792L58.1125 143.50792ZM65.05 146.7423Q65.05 145.21104 65.3625 144.28917Q65.675 143.35167 66.28438 142.85167Q66.90938 142.35167 67.84688 142.35167Q68.53438 142.35167 69.05 142.63292Q69.58125 142.91417 69.925 143.44542Q70.26875 143.96104 70.45625 144.71104Q70.64375 145.46104 70.64375 146.7423Q70.64375 148.25792 70.33125 149.1798Q70.03438 150.10167 69.40938 150.6173Q68.8 151.1173 67.84688 151.1173Q66.6125 151.1173 65.89375 150.22667Q65.05 149.16417 65.05 146.7423ZM66.12813 146.7423Q66.12813 148.85167 66.62813 149.5548Q67.12813 150.25792 67.84688 150.25792Q68.58125 150.25792 69.06563 149.5548Q69.56563 148.85167 69.56563 146.7423Q69.56563 144.6173 69.06563 143.9298Q68.58125 143.22667 67.83125 143.22667Q67.1125 143.22667 66.675 143.83604Q66.12813 144.6173 66.12813 146.7423Z" fill-rule="nonzero"/><path fill="#000000" d="M59.675 117.96709Q59.01875 117.71709 58.690624 117.27959Q58.378124 116.82646 58.378124 116.21709Q58.378124 115.27959 59.05 114.63896Q59.7375 113.99834 60.846874 113.99834Q61.971874 113.99834 62.659374 114.65459Q63.346874 115.31084 63.346874 116.24834Q63.346874 116.84209 63.034374 117.27959Q62.721874 117.71709 62.08125 117.96709Q62.878124 118.21709 63.284374 118.79521Q63.690624 119.37334 63.690624 120.17021Q63.690624 121.26396 62.909374 122.01396Q62.14375 122.76396 60.8625 122.76396Q59.596874 122.76396 58.815624 122.01396Q58.034374 121.26396 58.034374 120.13896Q58.034374 119.29521 58.45625 118.73271Q58.89375 118.17021 59.675 117.96709ZM59.45625 116.17021Q59.45625 116.77959 59.846874 117.17021Q60.253124 117.56084 60.878124 117.56084Q61.4875 117.56084 61.878124 117.18584Q62.26875 116.79521 62.26875 116.23271Q62.26875 115.65459 61.8625 115.26396Q61.45625 114.85771 60.8625 114.85771Q60.253124 114.85771 59.846874 115.24834Q59.45625 115.63896 59.45625 116.17021ZM59.128124 120.13896Q59.128124 120.59209 59.33125 121.01396Q59.55 121.43584 59.971874 121.67021Q60.39375 121.90459 60.878124 121.90459Q61.628124 121.90459 62.1125 121.42021Q62.6125 120.93584 62.6125 120.18584Q62.6125 119.42021 62.1125 118.92021Q61.6125 118.42021 60.846874 118.42021Q60.096874 118.42021 59.6125 118.92021Q59.128124 119.40459 59.128124 120.13896ZM65.05 118.38896Q65.05 116.85771 65.3625 115.93584Q65.675 114.99834 66.28438 114.49834Q66.90938 113.99834 67.84688 113.99834Q68.53438 113.99834 69.05 114.27959Q69.58125 114.56084 69.925 115.09209Q70.26875 115.60771 70.45625 116.35771Q70.64375 117.10771 70.64375 118.38896Q70.64375 119.90459 70.33125 120.82646Q70.03438 121.74834 69.40938 122.26396Q68.8 122.76396 67.84688 122.76396Q66.6125 122.76396 65.89375 121.87334Q65.05 120.81084 65.05 118.38896ZM66.12813 118.38896Q66.12813 120.49834 66.62813 121.20146Q67.12813 121.90459 67.84688 121.90459Q68.58125 121.90459 69.06563 121.20146Q69.56563 120.49834 69.56563 118.38896Q69.56563 116.26396 69.06563 115.57646Q68.58125 114.87334 67.83125 114.87334Q67.1125 114.87334 66.675 115.48271Q66.12813 116.26396 66.12813 118.38896Z" fill-rule="nonzero"/><path fill="#000000" d="M58.20625 92.28562L59.221874 92.19187Q59.346874 92.91062 59.70625 93.23875Q60.08125 93.55125 60.64375 93.55125Q61.128124 93.55125 61.4875 93.3325Q61.8625 93.09812 62.096874 92.73875Q62.33125 92.36375 62.4875 91.73875Q62.64375 91.09812 62.64375 90.44187Q62.64375 90.36375 62.64375 90.22312Q62.33125 90.72312 61.784374 91.05125Q61.2375 91.36375 60.596874 91.36375Q59.51875 91.36375 58.784374 90.59812Q58.05 89.81687 58.05 88.55125Q58.05 87.23875 58.815624 86.44187Q59.596874 85.645 60.753124 85.645Q61.58125 85.645 62.26875 86.09812Q62.971874 86.55125 63.33125 87.395Q63.690624 88.22312 63.690624 89.80125Q63.690624 91.44187 63.33125 92.42625Q62.9875 93.395 62.26875 93.91062Q61.565624 94.41062 60.628124 94.41062Q59.6125 94.41062 58.971874 93.86375Q58.33125 93.30125 58.20625 92.28562ZM62.51875 88.48875Q62.51875 87.5825 62.034374 87.05125Q61.565624 86.52 60.878124 86.52Q60.175 86.52 59.64375 87.09812Q59.128124 87.66062 59.128124 88.5825Q59.128124 89.395 59.628124 89.91062Q60.128124 90.42625 60.846874 90.42625Q61.58125 90.42625 62.05 89.91062Q62.51875 89.395 62.51875 88.48875ZM65.05 90.03562Q65.05 88.50437 65.3625 87.5825Q65.675 86.645 66.28438 86.145Q66.90938 85.645 67.84688 85.645Q68.53438 85.645 69.05 85.92625Q69.58125 86.2075 69.925 86.73875Q70.26875 87.25437 70.45625 88.00437Q70.64375 88.75437 70.64375 90.03562Q70.64375 91.55125 70.33125 92.47312Q70.03438 93.395 69.40938 93.91062Q68.8 94.41062 67.84688 94.41062Q66.6125 94.41062 65.89375 93.52Q65.05 92.4575 65.05 90.03562ZM66.12813 90.03562Q66.12813 92.145 66.62813 92.84812Q67.12813 93.55125 67.84688 93.55125Q68.58125 93.55125 69.06563 92.84812Q69.56563 92.145 69.56563 90.03562Q69.56563 87.91062 69.06563 87.22312Q68.58125 86.52 67.83125 86.52Q67.1125 86.52 66.675 87.12937Q66.12813 87.91062 66.12813 90.03562Z" fill-rule="nonzero"/><path fill="#000000" d="M55.01875 65.916664L53.971874 65.916664L53.971874 59.197914Q53.58125 59.55729 52.95625 59.93229Q52.346874 60.291664 51.8625 60.46354L51.8625 59.447914Q52.7375 59.02604 53.39375 58.447914Q54.065624 57.854164 54.346874 57.291664L55.01875 57.291664L55.01875 65.916664ZM58.05 61.68229Q58.05 60.15104 58.3625 59.229164Q58.675 58.291664 59.284374 57.791664Q59.909374 57.291664 60.846874 57.291664Q61.534374 57.291664 62.05 57.572914Q62.58125 57.854164 62.925 58.385414Q63.26875 58.90104 63.45625 59.65104Q63.64375 60.40104 63.64375 61.68229Q63.64375 63.197914 63.33125 64.11979Q63.034374 65.041664 62.409374 65.55729Q61.8 66.05729 60.846874 66.05729Q59.6125 66.05729 58.89375 65.166664Q58.05 64.104164 58.05 61.68229ZM59.128124 61.68229Q59.128124 63.791664 59.628124 64.49479Q60.128124 65.197914 60.846874 65.197914Q61.58125 65.197914 62.065624 64.49479Q62.565624 63.791664 62.565624 61.68229Q62.565624 59.55729 62.065624 58.86979Q61.58125 58.166664 60.83125 58.166664Q60.1125 58.166664 59.675 58.77604Q59.128124 59.55729 59.128124 61.68229ZM65.05 61.68229Q65.05 60.15104 65.3625 59.229164Q65.675 58.291664 66.28438 57.791664Q66.90938 57.291664 67.84688 57.291664Q68.53438 57.291664 69.05 57.572914Q69.58125 57.854164 69.925 58.385414Q70.26875 58.90104 70.45625 59.65104Q70.64375 60.40104 70.64375 61.68229Q70.64375 63.197914 70.33125 64.11979Q70.03438 65.041664 69.40938 65.55729Q68.8 66.05729 67.84688 66.05729Q66.6125 66.05729 65.89375 65.166664Q65.05 64.104164 65.05 61.68229ZM66.12813 61.68229Q66.12813 63.791664 66.62813 64.49479Q67.12813 65.197914 67.84688 65.197914Q68.58125 65.197914 69.06563 64.49479Q69.56563 63.791664 69.56563 61.68229Q69.56563 59.55729 69.06563 58.86979Q68.58125 58.166664 67.83125 58.166664Q67.1125 58.166664 66.675 58.77604Q66.12813 59.55729 66.12813 61.68229Z" fill-rule="nonzero"/><path fill="#757575" d="M20.128124 37.55L20.128124 23.2375L30.4875 23.2375L30.4875 24.925L22.034374 24.925L22.034374 29.3L29.940624 29.3L29.940624 30.9875L22.034374 30.9875L22.034374 35.8625L30.815624 35.8625L30.815624 37.55L20.128124 37.55ZM32.8625 37.55L32.8625 27.175L34.440624 27.175L34.440624 28.628124Q34.925 27.878124 35.7375 27.409374Q36.55 26.940624 37.58125 26.940624Q38.7375 26.940624 39.471874 27.425Q40.20625 27.89375 40.51875 28.753124Q41.753124 26.940624 43.721874 26.940624Q45.26875 26.940624 46.096874 27.8Q46.925 28.659374 46.925 30.425L46.925 37.55L45.175 37.55L45.175 31.01875Q45.175 29.95625 45.003124 29.503124Q44.83125 29.034374 44.378124 28.753124Q43.940624 28.471874 43.33125 28.471874Q42.2375 28.471874 41.503124 29.20625Q40.784374 29.925 40.784374 31.51875L40.784374 37.55L39.034374 37.55L39.034374 30.815624Q39.034374 29.64375 38.596874 29.065624Q38.175 28.471874 37.190624 28.471874Q36.45625 28.471874 35.815624 28.8625Q35.190624 29.253124 34.909374 30.003124Q34.628124 30.753124 34.628124 32.175L34.628124 37.55L32.8625 37.55ZM55.971874 34.20625L57.784374 34.440624Q57.3625 36.01875 56.190624 36.909374Q55.034374 37.784374 53.221874 37.784374Q50.95625 37.784374 49.6125 36.39375Q48.284374 34.9875 48.284374 32.45625Q48.284374 29.83125 49.628124 28.39375Q50.971874 26.940624 53.128124 26.940624Q55.20625 26.940624 56.51875 28.3625Q57.846874 29.76875 57.846874 32.346874Q57.846874 32.503124 57.83125 32.815624L50.096874 32.815624Q50.190624 34.51875 51.065624 35.425Q51.940624 36.33125 53.2375 36.33125Q54.20625 36.33125 54.878124 35.83125Q55.565624 35.315624 55.971874 34.20625ZM50.190624 31.3625L55.9875 31.3625Q55.878124 30.065624 55.33125 29.409374Q54.4875 28.39375 53.14375 28.39375Q51.940624 28.39375 51.1125 29.20625Q50.284374 30.003124 50.190624 31.3625ZM59.846874 37.55L59.846874 27.175L61.425 27.175L61.425 28.753124Q62.034374 27.64375 62.55 27.3Q63.065624 26.940624 63.675 26.940624Q64.56563 26.940624 65.4875 27.503124L64.87813 29.14375Q64.2375 28.753124 63.596874 28.753124Q63.01875 28.753124 62.55 29.1125Q62.096874 29.45625 61.89375 30.065624Q61.6125 31.003124 61.6125 32.1125L61.6125 37.55L59.846874 37.55ZM66.55 38.409374L68.25313 38.659374Q68.3625 39.45625 68.84688 39.815624Q69.50313 40.3 70.64375 40.3Q71.8625 40.3 72.51875 39.815624Q73.19063 39.33125 73.425 38.45625Q73.56563 37.909374 73.55 36.190624Q72.39375 37.55 70.675 37.55Q68.53438 37.55 67.3625 36.003124Q66.19063 34.45625 66.19063 32.3Q66.19063 30.815624 66.72188 29.565624Q67.26875 28.315624 68.28438 27.628124Q69.31563 26.940624 70.69063 26.940624Q72.51875 26.940624 73.72188 28.425L73.72188 27.175L75.33125 27.175L75.33125 36.14375Q75.33125 38.565624 74.83125 39.565624Q74.34688 40.58125 73.26875 41.159374Q72.20625 41.753124 70.64375 41.753124Q68.8 41.753124 67.64375 40.925Q66.50313 40.096874 66.55 38.409374ZM68.00313 32.175Q68.00313 34.221874 68.81563 35.159374Q69.62813 36.096874 70.84688 36.096874Q72.05 36.096874 72.8625 35.159374Q73.69063 34.221874 73.69063 32.2375Q73.69063 30.33125 72.84688 29.3625Q72.00313 28.39375 70.81563 28.39375Q69.64375 28.39375 68.81563 29.346874Q68.00313 30.3 68.00313 32.175ZM84.97188 34.20625L86.78438 34.440624Q86.3625 36.01875 85.19063 36.909374Q84.03438 37.784374 82.22188 37.784374Q79.95625 37.784374 78.6125 36.39375Q77.28438 34.9875 77.28438 32.45625Q77.28438 29.83125 78.62813 28.39375Q79.97188 26.940624 82.12813 26.940624Q84.20625 26.940624 85.51875 28.3625Q86.84688 29.76875 86.84688 32.346874Q86.84688 32.503124 86.83125 32.815624L79.09688 32.815624Q79.19063 34.51875 80.06563 35.425Q80.94063 36.33125 82.2375 36.33125Q83.20625 36.33125 83.87813 35.83125Q84.56563 35.315624 84.97188 34.20625ZM79.19063 31.3625L84.9875 31.3625Q84.87813 30.065624 84.33125 29.409374Q83.4875 28.39375 82.14375 28.39375Q80.94063 28.39375 80.1125 29.20625Q79.28438 30.003124 79.19063 31.3625ZM88.8625 37.55L88.8625 27.175L90.45625 27.175L90.45625 28.659374Q91.59688 26.940624 93.75313 26.940624Q94.69063 26.940624 95.47188 27.284374Q96.26875 27.6125 96.65938 28.159374Q97.05 28.70625 97.20625 29.45625Q97.3 29.95625 97.3 31.175L97.3 37.55L95.53438 37.55L95.53438 31.2375Q95.53438 30.159374 95.33125 29.628124Q95.12813 29.096874 94.59688 28.784374Q94.08125 28.471874 93.37813 28.471874Q92.25313 28.471874 91.44063 29.190624Q90.62813 29.89375 90.62813 31.878124L90.62813 37.55L88.8625 37.55ZM105.64375 33.753124L107.3625 33.971874Q107.08125 35.76875 105.90938 36.784374Q104.75313 37.784374 103.05 37.784374Q100.925 37.784374 99.62813 36.39375Q98.33125 35.003124 98.33125 32.409374Q98.33125 30.721874 98.87813 29.471874Q99.44063 28.20625 100.58125 27.58125Q101.72188 26.940624 103.06563 26.940624Q104.75313 26.940624 105.81563 27.8Q106.89375 28.659374 107.20625 30.221874L105.4875 30.4875Q105.25313 29.440624 104.62813 28.925Q104.00313 28.39375 103.12813 28.39375Q101.8 28.39375 100.97188 29.346874Q100.14375 30.3 100.14375 32.346874Q100.14375 34.440624 100.94063 35.39375Q101.7375 36.33125 103.03438 36.33125Q104.06563 36.33125 104.75313 35.70625Q105.45625 35.065624 105.64375 33.753124ZM108.78438 41.55L108.59688 39.89375Q109.175 40.05 109.59688 40.05Q110.19063 40.05 110.53438 39.846874Q110.89375 39.659374 111.1125 39.315624Q111.28438 39.05 111.65938 38.003124Q111.70625 37.846874 111.81563 37.565624L107.87813 27.175L109.76875 27.175L111.925 33.190624Q112.34688 34.33125 112.675 35.58125Q112.9875 34.378124 113.39375 33.221874L115.6125 27.175L117.37813 27.175L113.425 37.721874Q112.8 39.440624 112.44063 40.08125Q111.97188 40.95625 111.3625 41.346874Q110.76875 41.753124 109.925 41.753124Q109.40938 41.753124 108.78438 41.55ZM125.12813 37.55L125.12813 23.2375L131.47188 23.2375Q133.37813 23.2375 134.37813 23.628124Q135.37813 24.003124 135.97188 24.9875Q136.56563 25.95625 136.56563 27.14375Q136.56563 28.659374 135.58125 29.70625Q134.59688 30.753124 132.53438 31.034374Q133.28438 31.39375 133.675 31.753124Q134.50313 32.503124 135.25313 33.659374L137.7375 37.55L135.3625 37.55L133.45625 34.565624Q132.62813 33.284374 132.09688 32.596874Q131.56563 31.909374 131.12813 31.64375Q130.70625 31.3625 130.26875 31.253124Q129.94063 31.190624 129.22188 31.190624L127.01875 31.190624L127.01875 37.55L125.12813 37.55ZM127.01875 29.55L131.09688 29.55Q132.39375 29.55 133.1125 29.284374Q133.84688 29.01875 134.22188 28.425Q134.6125 27.83125 134.6125 27.14375Q134.6125 26.128124 133.87813 25.471874Q133.14375 24.815624 131.55 24.815624L127.01875 24.815624L127.01875 29.55ZM145.97188 34.20625L147.78438 34.440624Q147.3625 36.01875 146.19063 36.909374Q145.03438 37.784374 143.22188 37.784374Q140.95625 37.784374 139.6125 36.39375Q138.28438 34.9875 138.28438 32.45625Q138.28438 29.83125 139.62813 28.39375Q140.97188 26.940624 143.12813 26.940624Q145.20625 26.940624 146.51875 28.3625Q147.84688 29.76875 147.84688 32.346874Q147.84688 32.503124 147.83125 32.815624L140.09688 32.815624Q140.19063 34.51875 141.06563 35.425Q141.94063 36.33125 143.2375 36.33125Q144.20625 36.33125 144.87813 35.83125Q145.56563 35.315624 145.97188 34.20625ZM140.19063 31.3625L145.9875 31.3625Q145.87813 30.065624 145.33125 29.409374Q144.4875 28.39375 143.14375 28.39375Q141.94063 28.39375 141.1125 29.20625Q140.28438 30.003124 140.19063 31.3625ZM149.87813 25.253124L149.87813 23.2375L151.64375 23.2375L151.64375 25.253124L149.87813 25.253124ZM149.87813 37.55L149.87813 27.175L151.64375 27.175L151.64375 37.55L149.87813 37.55ZM153.8625 37.55L153.8625 27.175L155.45625 27.175L155.45625 28.659374Q156.59688 26.940624 158.75313 26.940624Q159.69063 26.940624 160.47188 27.284374Q161.26875 27.6125 161.65938 28.159374Q162.05 28.70625 162.20625 29.45625Q162.3 29.95625 162.3 31.175L162.3 37.55L160.53438 37.55L160.53438 31.2375Q160.53438 30.159374 160.33125 29.628124Q160.12813 29.096874 159.59688 28.784374Q159.08125 28.471874 158.37813 28.471874Q157.25313 28.471874 156.44063 29.190624Q155.62813 29.89375 155.62813 31.878124L155.62813 37.55L153.8625 37.55ZM164.28438 37.55L164.28438 28.55L162.7375 28.55L162.7375 27.175L164.28438 27.175L164.28438 26.08125Q164.28438 25.034374 164.47188 24.51875Q164.72188 23.83125 165.3625 23.409374Q166.00313 22.9875 167.15938 22.9875Q167.90938 22.9875 168.8 23.159374L168.53438 24.690624Q167.9875 24.596874 167.50313 24.596874Q166.70625 24.596874 166.3625 24.940624Q166.03438 25.284374 166.03438 26.221874L166.03438 27.175L168.06563 27.175L168.06563 28.55L166.03438 28.55L166.03438 37.55L164.28438 37.55ZM169.22188 32.3625Q169.22188 29.4875 170.81563 28.096874Q172.15938 26.940624 174.08125 26.940624Q176.22188 26.940624 177.56563 28.346874Q178.925 29.753124 178.925 32.221874Q178.925 34.221874 178.33125 35.378124Q177.7375 36.51875 176.58125 37.159374Q175.44063 37.784374 174.08125 37.784374Q171.89375 37.784374 170.55 36.39375Q169.22188 34.9875 169.22188 32.3625ZM171.01875 32.3625Q171.01875 34.3625 171.87813 35.346874Q172.75313 36.33125 174.08125 36.33125Q175.39375 36.33125 176.25313 35.346874Q177.12813 34.346874 177.12813 32.3Q177.12813 30.378124 176.25313 29.39375Q175.37813 28.39375 174.08125 28.39375Q172.75313 28.39375 171.87813 29.39375Q171.01875 30.378124 171.01875 32.3625ZM180.84688 37.55L180.84688 27.175L182.425 27.175L182.425 28.753124Q183.03438 27.64375 183.55 27.3Q184.06563 26.940624 184.675 26.940624Q185.56563 26.940624 186.4875 27.503124L185.87813 29.14375Q185.2375 28.753124 184.59688 28.753124Q184.01875 28.753124 183.55 29.1125Q183.09688 29.45625 182.89375 30.065624Q182.6125 31.003124 182.6125 32.1125L182.6125 37.55L180.84688 37.55ZM194.64375 33.753124L196.3625 33.971874Q196.08125 35.76875 194.90938 36.784374Q193.75313 37.784374 192.05 37.784374Q189.925 37.784374 188.62813 36.39375Q187.33125 35.003124 187.33125 32.409374Q187.33125 30.721874 187.87813 29.471874Q188.44063 28.20625 189.58125 27.58125Q190.72188 26.940624 192.06563 26.940624Q193.75313 26.940624 194.81563 27.8Q195.89375 28.659374 196.20625 30.221874L194.4875 30.4875Q194.25313 29.440624 193.62813 28.925Q193.00313 28.39375 192.12813 28.39375Q190.8 28.39375 189.97188 29.346874Q189.14375 30.3 189.14375 32.346874Q189.14375 34.440624 189.94063 35.39375Q190.7375 36.33125 192.03438 36.33125Q193.06563 36.33125 193.75313 35.70625Q194.45625 35.065624 194.64375 33.753124ZM204.97188 34.20625L206.78438 34.440624Q206.3625 36.01875 205.19063 36.909374Q204.03438 37.784374 202.22188 37.784374Q199.95625 37.784374 198.6125 36.39375Q197.28438 34.9875 197.28438 32.45625Q197.28438 29.83125 198.62813 28.39375Q199.97188 26.940624 202.12813 26.940624Q204.20625 26.940624 205.51875 28.3625Q206.84688 29.76875 206.84688 32.346874Q206.84688 32.503124 206.83125 32.815624L199.09688 32.815624Q199.19063 34.51875 200.06563 35.425Q200.94063 36.33125 202.2375 36.33125Q203.20625 36.33125 203.87813 35.83125Q204.56563 35.315624 204.97188 34.20625ZM199.19063 31.3625L204.9875 31.3625Q204.87813 30.065624 204.33125 29.409374Q203.4875 28.39375 202.14375 28.39375Q200.94063 28.39375 200.1125 29.20625Q199.28438 30.003124 199.19063 31.3625ZM208.8625 37.55L208.8625 27.175L210.44063 27.175L210.44063 28.628124Q210.925 27.878124 211.7375 27.409374Q212.55 26.940624 213.58125 26.940624Q214.7375 26.940624 215.47188 27.425Q216.20625 27.89375 216.51875 28.753124Q217.75313 26.940624 219.72188 26.940624Q221.26875 26.940624 222.09688 27.8Q222.925 28.659374 222.925 30.425L222.925 37.55L221.175 37.55L221.175 31.01875Q221.175 29.95625 221.00313 29.503124Q220.83125 29.034374 220.37813 28.753124Q219.94063 28.471874 219.33125 28.471874Q218.2375 28.471874 217.50313 29.20625Q216.78438 29.925 216.78438 31.51875L216.78438 37.55L215.03438 37.55L215.03438 30.815624Q215.03438 29.64375 214.59688 29.065624Q214.175 28.471874 213.19063 28.471874Q212.45625 28.471874 211.81563 28.8625Q211.19063 29.253124 210.90938 30.003124Q210.62813 30.753124 210.62813 32.175L210.62813 37.55L208.8625 37.55ZM231.97188 34.20625L233.78438 34.440624Q233.3625 36.01875 232.19063 36.909374Q231.03438 37.784374 229.22188 37.784374Q226.95625 37.784374 225.6125 36.39375Q224.28438 34.9875 224.28438 32.45625Q224.28438 29.83125 225.62813 28.39375Q226.97188 26.940624 229.12813 26.940624Q231.20625 26.940624 232.51875 28.3625Q233.84688 29.76875 233.84688 32.346874Q233.84688 32.503124 233.83125 32.815624L226.09688 32.815624Q226.19063 34.51875 227.06563 35.425Q227.94063 36.33125 229.2375 36.33125Q230.20625 36.33125 230.87813 35.83125Q231.56563 35.315624 231.97188 34.20625ZM226.19063 31.3625L231.9875 31.3625Q231.87813 30.065624 231.33125 29.409374Q230.4875 28.39375 229.14375 28.39375Q227.94063 28.39375 227.1125 29.20625Q226.28438 30.003124 226.19063 31.3625ZM235.8625 37.55L235.8625 27.175L237.45625 27.175L237.45625 28.659374Q238.59688 26.940624 240.75313 26.940624Q241.69063 26.940624 242.47188 27.284374Q243.26875 27.6125 243.65938 28.159374Q244.05 28.70625 244.20625 29.45625Q244.3 29.95625 244.3 31.175L244.3 37.55L242.53438 37.55L242.53438 31.2375Q242.53438 30.159374 242.33125 29.628124Q242.12813 29.096874 241.59688 28.784374Q241.08125 28.471874 240.37813 28.471874Q239.25313 28.471874 238.44063 29.190624Q237.62813 29.89375 237.62813 31.878124L237.62813 37.55L235.8625 37.55ZM249.70625 35.971874L249.95625 37.534374Q249.22188 37.690624 248.62813 37.690624Q247.675 37.690624 247.14375 37.39375Q246.62813 37.08125 246.40938 36.596874Q246.19063 36.096874 246.19063 34.51875L246.19063 28.55L244.90938 28.55L244.90938 27.175L246.19063 27.175L246.19063 24.6125L247.94063 23.55L247.94063 27.175L249.70625 27.175L249.70625 28.55L247.94063 28.55L247.94063 34.6125Q247.94063 35.3625 248.03438 35.58125Q248.12813 35.784374 248.33125 35.925Q248.55 36.05 248.94063 36.05Q249.22188 36.05 249.70625 35.971874Z" fill-rule="nonzero"/></svg>