<svg version="1.1" viewBox="0.0 0.0 600.0 371.0" fill="none" stroke="none" stroke-linecap="square" stroke-miterlimit="10" width="600" height="371" xmlns:xlink="http://www.w3.org/1999/xlink" xmlns="http://www.w3.org/2000/svg"><path fill="#ffffff" d="M0 0L600.0 0L600.0 371.0L0 371.0L0 0Z" fill-rule="nonzero"/><path stroke="#333333" stroke-width="1.0" stroke-linecap="butt" d="M77.5 345.5L581.5 345.5" fill-rule="nonzero"/><path stroke="#cccccc" stroke-width="1.0" stroke-linecap="butt" d="M77.5 317.5L581.5 317.5" fill-rule="nonzero"/><path stroke="#cccccc" stroke-width="1.0" stroke-linecap="butt" d="M77.5 288.5L581.5 288.5" fill-rule="nonzero"/><path stroke="#cccccc" stroke-width="1.0" stroke-linecap="butt" d="M77.5 260.5L581.5 260.5" fill-rule="nonzero"/><path stroke="#cccccc" stroke-width="1.0" stroke-linecap="butt" d="M77.5 232.5L581.5 232.5" fill-rule="nonzero"/><path stroke="#cccccc" stroke-width="1.0" stroke-linecap="butt" d="M77.5 203.5L581.5 203.5" fill-rule="nonzero"/><path stroke="#cccccc" stroke-width="1.0" stroke-linecap="butt" d="M77.5 175.5L581.5 175.5" fill-rule="nonzero"/><path stroke="#cccccc" stroke-width="1.0" stroke-linecap="butt" d="M77.5 146.5L581.5 146.5" fill-rule="nonzero"/><path stroke="#cccccc" stroke-width="1.0" stroke-linecap="butt" d="M77.5 118.5L581.5 118.5" fill-rule="nonzero"/><path stroke="#cccccc" stroke-width="1.0" stroke-linecap="butt" d="M77.5 90.5L581.5 90.5" fill-rule="nonzero"/><path stroke="#cccccc" stroke-width="1.0" stroke-linecap="butt" d="M77.5 61.5L581.5 61.5" fill-rule="nonzero"/><clipPath id="id_0"><path d="M77.55 61.916668L581.45 61.916668L581.45 345.45L77.55 345.45L77.55 61.916668Z" clip-rule="nonzero"/></clipPath><path stroke="#434343" stroke-width="2.0" stroke-linecap="butt" clip-path="url(#id_0)" d="M81.89397 101.9941L90.581894 104.44666L99.26983 119.16205L107.957756 138.30055L116.64569 162.17406L125.33362 167.68878L134.02155 181.45432L142.70949 186.74222L151.39742 197.78584L160.08534 219.34856L168.77327 229.20134L177.46121 239.43689L186.14914 239.83383L194.83707 245.71715L203.525 246.51105L212.21294 249.04866L220.90086 249.92763L229.58879 250.46634L238.27672 252.59283L246.96466 252.63536L255.65259 263.22534L264.3405 268.1021L273.02844 270.86655L281.71637 273.41837L290.4043 286.65936L299.09225 293.23734L307.78018 293.23734L316.4681 294.4849L325.15604 298.89383L333.84396 301.10538L342.5319 302.92L351.21982 302.92L359.90775 302.92L368.5957 304.72043L377.28363 305.75534L385.97156 307.58414L394.6595 310.7597L403.3474 312.39L412.03534 317.09668L420.72327 320.64084L429.4112 320.64084L438.09915 320.64084L446.78708 320.9669L455.475 322.76733L464.16293 322.82404L472.85086 324.1141L481.5388 324.17084L490.2267 329.7281L498.91464 331.27335L507.6026 331.27335L516.2905 333.44235L524.97845 336.40527L533.6664 336.944L542.3543 337.96472L551.04224 338.00726L559.73016 338.29077L568.4181 338.29077L577.106 340.6583" fill-rule="nonzero"/><path fill="#434343" clip-path="url(#id_0)" d="M87.89397 101.9941C87.89397 105.307816 85.20767 107.9941 81.89397 107.9941C78.58025 107.9941 75.89397 105.307816 75.89397 101.9941C75.89397 98.6804 78.58025 95.9941 81.89397 95.9941C85.20767 95.9941 87.89397 98.6804 87.89397 101.9941Z" fill-rule="nonzero"/><path fill="#434343" clip-path="url(#id_0)" d="M96.581894 104.44666C96.581894 107.760376 93.89561 110.44666 90.581894 110.44666C87.26819 110.44666 84.581894 107.760376 84.581894 104.44666C84.581894 101.13296 87.26819 98.44666 90.581894 98.44666C93.89561 98.44666 96.581894 101.13296 96.581894 104.44666Z" fill-rule="nonzero"/><path fill="#434343" clip-path="url(#id_0)" d="M105.26983 119.16205C105.26983 122.47575 102.583534 125.16205 99.26983 125.16205C95.956116 125.16205 93.26983 122.47575 93.26983 119.16205C93.26983 115.848335 95.956116 113.16205 99.26983 113.16205C102.583534 113.16205 105.26983 115.848335 105.26983 119.16205Z" fill-rule="nonzero"/><path fill="#434343" clip-path="url(#id_0)" d="M113.957756 138.30055C113.957756 141.61426 111.27147 144.30055 107.957756 144.30055C104.64405 144.30055 101.957756 141.61426 101.957756 138.30055C101.957756 134.98683 104.64405 132.30055 107.957756 132.30055C111.27147 132.30055 113.957756 134.98683 113.957756 138.30055Z" fill-rule="nonzero"/><path fill="#434343" clip-path="url(#id_0)" d="M122.64569 162.17406C122.64569 165.48776 119.9594 168.17406 116.64569 168.17406C113.33198 168.17406 110.64569 165.48776 110.64569 162.17406C110.64569 158.86035 113.33198 156.17406 116.64569 156.17406C119.9594 156.17406 122.64569 158.86035 122.64569 162.17406Z" fill-rule="nonzero"/><path fill="#434343" clip-path="url(#id_0)" d="M131.33362 167.68878C131.33362 171.00249 128.64732 173.68878 125.33362 173.68878C122.01991 173.68878 119.33362 171.00249 119.33362 167.68878C119.33362 164.37506 122.01991 161.68878 125.33362 161.68878C128.64732 161.68878 131.33362 164.37506 131.33362 167.68878Z" fill-rule="nonzero"/><path fill="#434343" clip-path="url(#id_0)" d="M140.02155 181.45432C140.02155 184.76804 137.33527 187.45432 134.02155 187.45432C130.70784 187.45432 128.02155 184.76804 128.02155 181.45432C128.02155 178.14061 130.70784 175.45432 134.02155 175.45432C137.33527 175.45432 140.02155 178.14061 140.02155 181.45432Z" fill-rule="nonzero"/><path fill="#434343" clip-path="url(#id_0)" d="M148.70949 186.74222C148.70949 190.05592 146.0232 192.74222 142.70949 192.74222C139.39577 192.74222 136.70949 190.05592 136.70949 186.74222C136.70949 183.42851 139.39577 180.74222 142.70949 180.74222C146.0232 180.74222 148.70949 183.42851 148.70949 186.74222Z" fill-rule="nonzero"/><path fill="#434343" clip-path="url(#id_0)" d="M157.39742 197.78584C157.39742 201.09955 154.71112 203.78584 151.39742 203.78584C148.08371 203.78584 145.39742 201.09955 145.39742 197.78584C145.39742 194.47214 148.08371 191.78584 151.39742 191.78584C154.71112 191.78584 157.39742 194.47214 157.39742 197.78584Z" fill-rule="nonzero"/><path fill="#434343" clip-path="url(#id_0)" d="M166.08534 219.34856C166.08534 222.66226 163.39905 225.34856 160.08534 225.34856C156.77164 225.34856 154.08534 222.66226 154.08534 219.34856C154.08534 216.03484 156.77164 213.34856 160.08534 213.34856C163.39905 213.34856 166.08534 216.03484 166.08534 219.34856Z" fill-rule="nonzero"/><path fill="#434343" clip-path="url(#id_0)" d="M174.77327 229.20134C174.77327 232.51505 172.08699 235.20134 168.77327 235.20134C165.45956 235.20134 162.77327 232.51505 162.77327 229.20134C162.77327 225.88762 165.45956 223.20134 168.77327 223.20134C172.08699 223.20134 174.77327 225.88762 174.77327 229.20134Z" fill-rule="nonzero"/><path fill="#434343" clip-path="url(#id_0)" d="M183.46121 239.43689C183.46121 242.7506 180.77492 245.43689 177.46121 245.43689C174.14749 245.43689 171.46121 242.7506 171.46121 239.43689C171.46121 236.12318 174.14749 233.43689 177.46121 233.43689C180.77492 233.43689 183.46121 236.12318 183.46121 239.43689Z" fill-rule="nonzero"/><path fill="#434343" clip-path="url(#id_0)" d="M192.14914 239.83383C192.14914 243.14754 189.46284 245.83383 186.14914 245.83383C182.83543 245.83383 180.14914 243.14754 180.14914 239.83383C180.14914 236.52013 182.83543 233.83383 186.14914 233.83383C189.46284 233.83383 192.14914 236.52013 192.14914 239.83383Z" fill-rule="nonzero"/><path fill="#434343" clip-path="url(#id_0)" d="M200.83707 245.71715C200.83707 249.03085 198.15077 251.71715 194.83707 251.71715C191.52336 251.71715 188.83707 249.03085 188.83707 245.71715C188.83707 242.40344 191.52336 239.71715 194.83707 239.71715C198.15077 239.71715 200.83707 242.40344 200.83707 245.71715Z" fill-rule="nonzero"/><path fill="#434343" clip-path="url(#id_0)" d="M209.525 246.51105C209.525 249.82475 206.83871 252.51105 203.525 252.51105C200.21129 252.51105 197.525 249.82475 197.525 246.51105C197.525 243.19734 200.21129 240.51105 203.525 240.51105C206.83871 240.51105 209.525 243.19734 209.525 246.51105Z" fill-rule="nonzero"/><path fill="#434343" clip-path="url(#id_0)" d="M218.21294 249.04866C218.21294 252.36238 215.52664 255.04866 212.21294 255.04866C208.89922 255.04866 206.21294 252.36238 206.21294 249.04866C206.21294 245.73495 208.89922 243.04866 212.21294 243.04866C215.52664 243.04866 218.21294 245.73495 218.21294 249.04866Z" fill-rule="nonzero"/><path fill="#434343" clip-path="url(#id_0)" d="M226.90086 249.92763C226.90086 253.24133 224.21457 255.92763 220.90086 255.92763C217.58716 255.92763 214.90086 253.24133 214.90086 249.92763C214.90086 246.6139 217.58716 243.92763 220.90086 243.92763C224.21457 243.92763 226.90086 246.6139 226.90086 249.92763Z" fill-rule="nonzero"/><path fill="#434343" clip-path="url(#id_0)" d="M235.58879 250.46634C235.58879 253.78004 232.9025 256.46634 229.58879 256.46634C226.27509 256.46634 223.58879 253.78004 223.58879 250.46634C223.58879 247.15262 226.27509 244.46634 229.58879 244.46634C232.9025 244.46634 235.58879 247.15262 235.58879 250.46634Z" fill-rule="nonzero"/><path fill="#434343" clip-path="url(#id_0)" d="M244.27672 252.59283C244.27672 255.90654 241.59044 258.59283 238.27672 258.59283C234.96301 258.59283 232.27672 255.90654 232.27672 252.59283C232.27672 249.27913 234.96301 246.59283 238.27672 246.59283C241.59044 246.59283 244.27672 249.27913 244.27672 252.59283Z" fill-rule="nonzero"/><path fill="#434343" clip-path="url(#id_0)" d="M252.96466 252.63536C252.96466 255.94907 250.27837 258.63538 246.96466 258.63538C243.65094 258.63538 240.96466 255.94907 240.96466 252.63536C240.96466 249.32166 243.65094 246.63536 246.96466 246.63536C250.27837 246.63536 252.96466 249.32166 252.96466 252.63536Z" fill-rule="nonzero"/><path fill="#434343" clip-path="url(#id_0)" d="M261.6526 263.22534C261.6526 266.53903 258.9663 269.22534 255.65259 269.22534C252.33888 269.22534 249.65259 266.53903 249.65259 263.22534C249.65259 259.91162 252.33888 257.22534 255.65259 257.22534C258.9663 257.22534 261.6526 259.91162 261.6526 263.22534Z" fill-rule="nonzero"/><path fill="#434343" clip-path="url(#id_0)" d="M270.3405 268.1021C270.3405 271.4158 267.65424 274.1021 264.3405 274.1021C261.0268 274.1021 258.3405 271.4158 258.3405 268.1021C258.3405 264.7884 261.0268 262.1021 264.3405 262.1021C267.65424 262.1021 270.3405 264.7884 270.3405 268.1021Z" fill-rule="nonzero"/><path fill="#434343" clip-path="url(#id_0)" d="M279.02844 270.86655C279.02844 274.18027 276.34216 276.86655 273.02844 276.86655C269.71475 276.86655 267.02844 274.18027 267.02844 270.86655C267.02844 267.55286 269.71475 264.86655 273.02844 264.86655C276.34216 264.86655 279.02844 267.55286 279.02844 270.86655Z" fill-rule="nonzero"/><path fill="#434343" clip-path="url(#id_0)" d="M287.71637 273.41837C287.71637 276.73206 285.0301 279.41837 281.71637 279.41837C278.40268 279.41837 275.71637 276.73206 275.71637 273.41837C275.71637 270.10464 278.40268 267.41837 281.71637 267.41837C285.0301 267.41837 287.71637 270.10464 287.71637 273.41837Z" fill-rule="nonzero"/><path fill="#434343" clip-path="url(#id_0)" d="M296.4043 286.65936C296.4043 289.97308 293.71802 292.65936 290.4043 292.65936C287.0906 292.65936 284.4043 289.97308 284.4043 286.65936C284.4043 283.34564 287.0906 280.65936 290.4043 280.65936C293.71802 280.65936 296.4043 283.34564 296.4043 286.65936Z" fill-rule="nonzero"/><path fill="#434343" clip-path="url(#id_0)" d="M305.09225 293.23734C305.09225 296.55106 302.40594 299.23734 299.09225 299.23734C295.77853 299.23734 293.09225 296.55106 293.09225 293.23734C293.09225 289.9236 295.77853 287.23734 299.09225 287.23734C302.40594 287.23734 305.09225 289.9236 305.09225 293.23734Z" fill-rule="nonzero"/><path fill="#434343" clip-path="url(#id_0)" d="M313.78018 293.23734C313.78018 296.55106 311.09387 299.23734 307.78018 299.23734C304.46646 299.23734 301.78018 296.55106 301.78018 293.23734C301.78018 289.9236 304.46646 287.23734 307.78018 287.23734C311.09387 287.23734 313.78018 289.9236 313.78018 293.23734Z" fill-rule="nonzero"/><path fill="#434343" clip-path="url(#id_0)" d="M322.4681 294.4849C322.4681 297.79858 319.7818 300.4849 316.4681 300.4849C313.1544 300.4849 310.4681 297.79858 310.4681 294.4849C310.4681 291.17117 313.1544 288.4849 316.4681 288.4849C319.7818 288.4849 322.4681 291.17117 322.4681 294.4849Z" fill-rule="nonzero"/><path fill="#434343" clip-path="url(#id_0)" d="M331.15604 298.89383C331.15604 302.20755 328.46976 304.89383 325.15604 304.89383C321.84232 304.89383 319.15604 302.20755 319.15604 298.89383C319.15604 295.5801 321.84232 292.89383 325.15604 292.89383C328.46976 292.89383 331.15604 295.5801 331.15604 298.89383Z" fill-rule="nonzero"/><path fill="#434343" clip-path="url(#id_0)" d="M339.84396 301.10538C339.84396 304.4191 337.15768 307.10538 333.84396 307.10538C330.53024 307.10538 327.84396 304.4191 327.84396 301.10538C327.84396 297.7917 330.53024 295.10538 333.84396 295.10538C337.15768 295.10538 339.84396 297.7917 339.84396 301.10538Z" fill-rule="nonzero"/><path fill="#434343" clip-path="url(#id_0)" d="M348.5319 302.92C348.5319 306.2337 345.8456 308.92 342.5319 308.92C339.2182 308.92 336.5319 306.2337 336.5319 302.92C336.5319 299.6063 339.2182 296.92 342.5319 296.92C345.8456 296.92 348.5319 299.6063 348.5319 302.92Z" fill-rule="nonzero"/><path fill="#434343" clip-path="url(#id_0)" d="M357.21982 302.92C357.21982 306.2337 354.53354 308.92 351.21982 308.92C347.90613 308.92 345.21982 306.2337 345.21982 302.92C345.21982 299.6063 347.90613 296.92 351.21982 296.92C354.53354 296.92 357.21982 299.6063 357.21982 302.92Z" fill-rule="nonzero"/><path fill="#434343" clip-path="url(#id_0)" d="M365.90775 302.92C365.90775 306.2337 363.22147 308.92 359.90775 308.92C356.59406 308.92 353.90775 306.2337 353.90775 302.92C353.90775 299.6063 356.59406 296.92 359.90775 296.92C363.22147 296.92 365.90775 299.6063 365.90775 302.92Z" fill-rule="nonzero"/><path fill="#434343" clip-path="url(#id_0)" d="M374.5957 304.72043C374.5957 308.03415 371.9094 310.72043 368.5957 310.72043C365.28198 310.72043 362.5957 308.03415 362.5957 304.72043C362.5957 301.40674 365.28198 298.72043 368.5957 298.72043C371.9094 298.72043 374.5957 301.40674 374.5957 304.72043Z" fill-rule="nonzero"/><path fill="#434343" clip-path="url(#id_0)" d="M383.28363 305.75534C383.28363 309.06903 380.59732 311.75534 377.28363 311.75534C373.9699 311.75534 371.28363 309.06903 371.28363 305.75534C371.28363 302.44162 373.9699 299.75534 377.28363 299.75534C380.59732 299.75534 383.28363 302.44162 383.28363 305.75534Z" fill-rule="nonzero"/><path fill="#434343" clip-path="url(#id_0)" d="M391.97156 307.58414C391.97156 310.89783 389.28525 313.58414 385.97156 313.58414C382.65784 313.58414 379.97156 310.89783 379.97156 307.58414C379.97156 304.27042 382.65784 301.58414 385.97156 301.58414C389.28525 301.58414 391.97156 304.27042 391.97156 307.58414Z" fill-rule="nonzero"/><path fill="#434343" clip-path="url(#id_0)" d="M400.6595 310.7597C400.6595 314.0734 397.9732 316.7597 394.6595 316.7597C391.34576 316.7597 388.6595 314.0734 388.6595 310.7597C388.6595 307.44598 391.34576 304.7597 394.6595 304.7597C397.9732 304.7597 400.6595 307.44598 400.6595 310.7597Z" fill-rule="nonzero"/><path fill="#434343" clip-path="url(#id_0)" d="M409.3474 312.39C409.3474 315.70374 406.66113 318.39 403.3474 318.39C400.0337 318.39 397.3474 315.70374 397.3474 312.39C397.3474 309.0763 400.0337 306.39 403.3474 306.39C406.66113 306.39 409.3474 309.0763 409.3474 312.39Z" fill-rule="nonzero"/><path fill="#434343" clip-path="url(#id_0)" d="M418.03534 317.09668C418.03534 320.41037 415.34906 323.09668 412.03534 323.09668C408.72165 323.09668 406.03534 320.41037 406.03534 317.09668C406.03534 313.78296 408.72165 311.09668 412.03534 311.09668C415.34906 311.09668 418.03534 313.78296 418.03534 317.09668Z" fill-rule="nonzero"/><path fill="#434343" clip-path="url(#id_0)" d="M426.72327 320.64084C426.72327 323.95453 424.037 326.64084 420.72327 326.64084C417.40958 326.64084 414.72327 323.95453 414.72327 320.64084C414.72327 317.32712 417.40958 314.64084 420.72327 314.64084C424.037 314.64084 426.72327 317.32712 426.72327 320.64084Z" fill-rule="nonzero"/><path fill="#434343" clip-path="url(#id_0)" d="M435.4112 320.64084C435.4112 323.95453 432.7249 326.64084 429.4112 326.64084C426.0975 326.64084 423.4112 323.95453 423.4112 320.64084C423.4112 317.32712 426.0975 314.64084 429.4112 314.64084C432.7249 314.64084 435.4112 317.32712 435.4112 320.64084Z" fill-rule="nonzero"/><path fill="#434343" clip-path="url(#id_0)" d="M444.09915 320.64084C444.09915 323.95453 441.41284 326.64084 438.09915 326.64084C434.78543 326.64084 432.09915 323.95453 432.09915 320.64084C432.09915 317.32712 434.78543 314.64084 438.09915 314.64084C441.41284 314.64084 444.09915 317.32712 444.09915 320.64084Z" fill-rule="nonzero"/><path fill="#434343" clip-path="url(#id_0)" d="M452.78708 320.9669C452.78708 324.2806 450.10077 326.9669 446.78708 326.9669C443.47336 326.9669 440.78708 324.2806 440.78708 320.9669C440.78708 317.6532 443.47336 314.9669 446.78708 314.9669C450.10077 314.9669 452.78708 317.6532 452.78708 320.9669Z" fill-rule="nonzero"/><path fill="#434343" clip-path="url(#id_0)" d="M461.475 322.76733C461.475 326.08105 458.7887 328.76733 455.475 328.76733C452.1613 328.76733 449.475 326.08105 449.475 322.76733C449.475 319.4536 452.1613 316.76733 455.475 316.76733C458.7887 316.76733 461.475 319.4536 461.475 322.76733Z" fill-rule="nonzero"/><path fill="#434343" clip-path="url(#id_0)" d="M470.16293 322.82404C470.16293 326.13776 467.47665 328.82404 464.16293 328.82404C460.8492 328.82404 458.16293 326.13776 458.16293 322.82404C458.16293 319.51035 460.8492 316.82404 464.16293 316.82404C467.47665 316.82404 470.16293 319.51035 470.16293 322.82404Z" fill-rule="nonzero"/><path fill="#434343" clip-path="url(#id_0)" d="M478.85086 324.1141C478.85086 327.42783 476.16458 330.1141 472.85086 330.1141C469.53714 330.1141 466.85086 327.42783 466.85086 324.1141C466.85086 320.8004 469.53714 318.1141 472.85086 318.1141C476.16458 318.1141 478.85086 320.8004 478.85086 324.1141Z" fill-rule="nonzero"/><path fill="#434343" clip-path="url(#id_0)" d="M487.5388 324.17084C487.5388 327.48453 484.8525 330.17084 481.5388 330.17084C478.2251 330.17084 475.5388 327.48453 475.5388 324.17084C475.5388 320.85712 478.2251 318.17084 481.5388 318.17084C484.8525 318.17084 487.5388 320.85712 487.5388 324.17084Z" fill-rule="nonzero"/><path fill="#434343" clip-path="url(#id_0)" d="M496.2267 329.7281C496.2267 333.04178 493.54044 335.7281 490.2267 335.7281C486.91302 335.7281 484.2267 333.04178 484.2267 329.7281C484.2267 326.41437 486.91302 323.7281 490.2267 323.7281C493.54044 323.7281 496.2267 326.41437 496.2267 329.7281Z" fill-rule="nonzero"/><path fill="#434343" clip-path="url(#id_0)" d="M504.91464 331.27335C504.91464 334.58704 502.22836 337.27335 498.91464 337.27335C495.60095 337.27335 492.91464 334.58704 492.91464 331.27335C492.91464 327.95963 495.60095 325.27335 498.91464 325.27335C502.22836 325.27335 504.91464 327.95963 504.91464 331.27335Z" fill-rule="nonzero"/><path fill="#434343" clip-path="url(#id_0)" d="M513.6026 331.27335C513.6026 334.58704 510.9163 337.27335 507.6026 337.27335C504.28888 337.27335 501.6026 334.58704 501.6026 331.27335C501.6026 327.95963 504.28888 325.27335 507.6026 325.27335C510.9163 325.27335 513.6026 327.95963 513.6026 331.27335Z" fill-rule="nonzero"/><path fill="#434343" clip-path="url(#id_0)" d="M522.2905 333.44235C522.2905 336.75607 519.60425 339.44235 516.2905 339.44235C512.9768 339.44235 510.29053 336.75607 510.29053 333.44235C510.29053 330.12866 512.9768 327.44235 516.2905 327.44235C519.60425 327.44235 522.2905 330.12866 522.2905 333.44235Z" fill-rule="nonzero"/><path fill="#434343" clip-path="url(#id_0)" d="M530.97845 336.40527C530.97845 339.719 528.2922 342.40527 524.97845 342.40527C521.66473 342.40527 518.97845 339.719 518.97845 336.40527C518.97845 333.09158 521.66473 330.40527 524.97845 330.40527C528.2922 330.40527 530.97845 333.09158 530.97845 336.40527Z" fill-rule="nonzero"/><path fill="#434343" clip-path="url(#id_0)" d="M539.6664 336.944C539.6664 340.25772 536.9801 342.944 533.6664 342.944C530.35266 342.944 527.6664 340.25772 527.6664 336.944C527.6664 333.63028 530.35266 330.944 533.6664 330.944C536.9801 330.944 539.6664 333.63028 539.6664 336.944Z" fill-rule="nonzero"/><path fill="#434343" clip-path="url(#id_0)" d="M548.3543 337.96472C548.3543 341.27844 545.668 343.96472 542.3543 343.96472C539.0406 343.96472 536.3543 341.27844 536.3543 337.96472C536.3543 334.651 539.0406 331.96472 542.3543 331.96472C545.668 331.96472 548.3543 334.651 548.3543 337.96472Z" fill-rule="nonzero"/><path fill="#434343" clip-path="url(#id_0)" d="M557.04224 338.00726C557.04224 341.32095 554.35596 344.00726 551.04224 344.00726C547.7285 344.00726 545.04224 341.32095 545.04224 338.00726C545.04224 334.69354 547.7285 332.00726 551.04224 332.00726C554.35596 332.00726 557.04224 334.69354 557.04224 338.00726Z" fill-rule="nonzero"/><path fill="#434343" clip-path="url(#id_0)" d="M565.73016 338.29077C565.73016 341.6045 563.0439 344.29077 559.73016 344.29077C556.41644 344.29077 553.73016 341.6045 553.73016 338.29077C553.73016 334.97708 556.41644 332.29077 559.73016 332.29077C563.0439 332.29077 565.73016 334.97708 565.73016 338.29077Z" fill-rule="nonzero"/><path fill="#434343" clip-path="url(#id_0)" d="M574.4181 338.29077C574.4181 341.6045 571.7318 344.29077 568.4181 344.29077C565.1044 344.29077 562.4181 341.6045 562.4181 338.29077C562.4181 334.97708 565.1044 332.29077 568.4181 332.29077C571.7318 332.29077 574.4181 334.97708 574.4181 338.29077Z" fill-rule="nonzero"/><path fill="#434343" clip-path="url(#id_0)" d="M583.106 340.6583C583.106 343.972 580.41974 346.6583 577.106 346.6583C573.7923 346.6583 571.106 343.972 571.106 340.6583C571.106 337.34457 573.7923 334.6583 577.106 334.6583C580.41974 334.6583 583.106 337.34457 583.106 340.6583Z" fill-rule="nonzero"/><path fill="#000000" d="M26.784388 219.13646L26.690638 218.07396Q27.346888 217.99583 27.753138 217.71458Q28.159388 217.43333 28.425013 216.85521Q28.675013 216.26146 28.675013 215.52708Q28.675013 214.88646 28.487513 214.38646Q28.284388 213.88646 27.956263 213.65208Q27.612513 213.40208 27.221888 213.40208Q26.815638 213.40208 26.518763 213.63646Q26.206263 213.87083 26.003138 214.40208Q25.862513 214.76146 25.581263 215.94896Q25.300013 217.12083 25.050013 217.58958Q24.721888 218.21458 24.253138 218.51146Q23.768763 218.80833 23.175013 218.80833Q22.534388 218.80833 21.971888 218.44896Q21.393763 218.07396 21.112513 217.37083Q20.815638 216.65208 20.815638 215.79271Q20.815638 214.83958 21.128138 214.10521Q21.425013 213.37083 22.034388 212.98021Q22.628138 212.58958 23.378138 212.55833L23.456263 213.65208Q22.643763 213.74583 22.237513 214.26146Q21.815638 214.76146 21.815638 215.74583Q21.815638 216.77708 22.190638 217.24583Q22.565638 217.71458 23.096888 217.71458Q23.565638 217.71458 23.862513 217.38646Q24.159388 217.05833 24.471888 215.68333Q24.784388 214.29271 25.018763 213.77708Q25.378138 213.02708 25.909388 212.66771Q26.425013 212.30833 27.128138 212.30833Q27.815638 212.30833 28.425013 212.69896Q29.018763 213.08958 29.362513 213.82396Q29.690638 214.55833 29.690638 215.48021Q29.690638 216.65208 29.362513 217.44896Q29.018763 218.23021 28.331263 218.68333Q27.643763 219.12083 26.784388 219.13646ZM27.268763 206.82396L27.409388 205.79271Q28.471888 205.96458 29.081263 206.66771Q29.690638 207.37083 29.690638 208.38646Q29.690638 209.66771 28.862513 210.44896Q28.018763 211.21458 26.456263 211.21458Q25.456263 211.21458 24.706263 210.88646Q23.940638 210.54271 23.565638 209.87083Q23.190638 209.18333 23.190638 208.37083Q23.190638 207.37083 23.706263 206.73021Q24.206263 206.07396 25.159388 205.88646L25.315638 206.91771Q24.690638 207.05833 24.378138 207.43333Q24.050013 207.80833 24.050013 208.33958Q24.050013 209.13646 24.628138 209.63646Q25.190638 210.13646 26.425013 210.13646Q27.690638 210.13646 28.253138 209.65208Q28.815638 209.16771 28.815638 208.40208Q28.815638 207.77708 28.440638 207.37083Q28.065638 206.94896 27.268763 206.82396ZM26.440638 205.27708Q24.706263 205.27708 23.878138 204.32396Q23.190638 203.52708 23.190638 202.37083Q23.190638 201.08958 24.034388 200.27708Q24.862513 199.44896 26.346888 199.44896Q27.550013 199.44896 28.237513 199.80833Q28.925013 200.16771 29.315638 200.87083Q29.690638 201.55833 29.690638 202.37083Q29.690638 203.66771 28.862513 204.48021Q28.018763 205.27708 26.440638 205.27708ZM26.440638 204.19896Q27.628138 204.19896 28.221888 203.68333Q28.815638 203.15208 28.815638 202.37083Q28.815638 201.57396 28.221888 201.05833Q27.628138 200.54271 26.409388 200.54271Q25.253138 200.54271 24.659388 201.07396Q24.065638 201.58958 24.065638 202.37083Q24.065638 203.15208 24.659388 203.68333Q25.237513 204.19896 26.440638 204.19896ZM29.550013 197.90208L23.331263 197.90208L23.331263 196.94896L24.268763 196.94896Q23.612513 196.58958 23.409388 196.29271Q23.190638 195.98021 23.190638 195.60521Q23.190638 195.07396 23.518763 194.52708L24.503138 194.88646Q24.268763 195.27708 24.268763 195.65208Q24.268763 196.01146 24.487513 196.29271Q24.690638 196.55833 25.065638 196.66771Q25.628138 196.85521 26.284388 196.85521L29.550013 196.85521L29.550013 197.90208ZM27.550013 189.63646L27.675013 188.54271Q28.628138 188.79271 29.159388 189.49583Q29.690638 190.19896 29.690638 191.27708Q29.690638 192.63646 28.846888 193.44896Q28.003138 194.24583 26.487513 194.24583Q24.925013 194.24583 24.065638 193.43333Q23.190638 192.62083 23.190638 191.33958Q23.190638 190.08958 24.034388 189.30833Q24.878138 188.51146 26.425013 188.51146Q26.518763 188.51146 26.706263 188.51146L26.706263 193.15208Q27.737513 193.08958 28.284388 192.57396Q28.815638 192.05833 28.815638 191.27708Q28.815638 190.69896 28.518763 190.29271Q28.206263 189.87083 27.550013 189.63646ZM25.846888 193.08958L25.846888 189.62083Q25.050013 189.68333 24.659388 190.01146Q24.050013 190.52708 24.050013 191.32396Q24.050013 192.05833 24.534388 192.55833Q25.018763 193.04271 25.846888 193.08958Z" fill-rule="nonzero"/><path fill="#000000" d="M65.05 345.21564Q65.05 343.6844 65.3625 342.7625Q65.675 341.825 66.28438 341.325Q66.90938 340.825 67.84688 340.825Q68.53438 340.825 69.05 341.10626Q69.58125 341.3875 69.925 341.91876Q70.26875 342.4344 70.45625 343.1844Q70.64375 343.9344 70.64375 345.21564Q70.64375 346.73126 70.33125 347.65314Q70.03438 348.575 69.40938 349.09064Q68.8 349.59064 67.84688 349.59064Q66.6125 349.59064 65.89375 348.7Q65.05 347.6375 65.05 345.21564ZM66.12813 345.21564Q66.12813 347.325 66.62813 348.02814Q67.12813 348.73126 67.84688 348.73126Q68.58125 348.73126 69.06563 348.02814Q69.56563 347.325 69.56563 345.21564Q69.56563 343.09064 69.06563 342.40314Q68.58125 341.7 67.83125 341.7Q67.1125 341.7 66.675 342.3094Q66.12813 343.09064 66.12813 345.21564Z" fill-rule="nonzero"/><path fill="#000000" d="M63.596874 320.08105L63.596874 321.09668L57.909374 321.09668Q57.909374 320.72168 58.034374 320.3623Q58.253124 319.78418 58.721874 319.22168Q59.20625 318.65918 60.1125 317.9248Q61.51875 316.76855 62.003124 316.09668Q62.503124 315.4248 62.503124 314.83105Q62.503124 314.20605 62.05 313.78418Q61.596874 313.34668 60.878124 313.34668Q60.1125 313.34668 59.659374 313.7998Q59.20625 314.25293 59.190624 315.06543L58.1125 314.95605Q58.221874 313.7373 58.940624 313.1123Q59.675 312.47168 60.909374 312.47168Q62.14375 312.47168 62.8625 313.15918Q63.58125 313.84668 63.58125 314.8623Q63.58125 315.37793 63.3625 315.87793Q63.159374 316.3623 62.659374 316.9248Q62.175 317.47168 61.05 318.4248Q60.096874 319.22168 59.815624 319.51855Q59.55 319.7998 59.378124 320.08105L63.596874 320.08105ZM65.05 316.8623Q65.05 315.33105 65.3625 314.40918Q65.675 313.47168 66.28438 312.97168Q66.90938 312.47168 67.84688 312.47168Q68.53438 312.47168 69.05 312.75293Q69.58125 313.03418 69.925 313.56543Q70.26875 314.08105 70.45625 314.83105Q70.64375 315.58105 70.64375 316.8623Q70.64375 318.37793 70.33125 319.2998Q70.03438 320.22168 69.40938 320.7373Q68.8 321.2373 67.84688 321.2373Q66.6125 321.2373 65.89375 320.34668Q65.05 319.28418 65.05 316.8623ZM66.12813 316.8623Q66.12813 318.97168 66.62813 319.6748Q67.12813 320.37793 67.84688 320.37793Q68.58125 320.37793 69.06563 319.6748Q69.56563 318.97168 69.56563 316.8623Q69.56563 314.7373 69.06563 314.0498Q68.58125 313.34668 67.83125 313.34668Q67.1125 313.34668 66.675 313.95605Q66.12813 314.7373 66.12813 316.8623Z" fill-rule="nonzero"/><path fill="#000000" d="M61.425 292.74335L61.425 290.68085L57.70625 290.68085L57.70625 289.7121L61.628124 284.1496L62.4875 284.1496L62.4875 289.7121L63.64375 289.7121L63.64375 290.68085L62.4875 290.68085L62.4875 292.74335L61.425 292.74335ZM61.425 289.7121L61.425 285.85272L58.7375 289.7121L61.425 289.7121ZM65.05 288.50897Q65.05 286.97772 65.3625 286.05585Q65.675 285.11835 66.28438 284.61835Q66.90938 284.11835 67.84688 284.11835Q68.53438 284.11835 69.05 284.3996Q69.58125 284.68085 69.925 285.2121Q70.26875 285.72772 70.45625 286.47772Q70.64375 287.22772 70.64375 288.50897Q70.64375 290.0246 70.33125 290.94647Q70.03438 291.86835 69.40938 292.38397Q68.8 292.88397 67.84688 292.88397Q66.6125 292.88397 65.89375 291.99335Q65.05 290.93085 65.05 288.50897ZM66.12813 288.50897Q66.12813 290.61835 66.62813 291.32147Q67.12813 292.0246 67.84688 292.0246Q68.58125 292.0246 69.06563 291.32147Q69.56563 290.61835 69.56563 288.50897Q69.56563 286.38397 69.06563 285.69647Q68.58125 284.99335 67.83125 284.99335Q67.1125 284.99335 66.675 285.60272Q66.12813 286.38397 66.12813 288.50897Z" fill-rule="nonzero"/><path fill="#000000" d="M63.51875 257.90564L62.471874 257.98376Q62.33125 257.35876 62.08125 257.0775Q61.64375 256.6244 61.01875 256.6244Q60.51875 256.6244 60.128124 256.90564Q59.64375 257.28064 59.346874 257.98376Q59.065624 258.67126 59.05 259.9525Q59.425 259.3744 59.971874 259.09314Q60.534374 258.8119 61.14375 258.8119Q62.190624 258.8119 62.925 259.59314Q63.675 260.3744 63.675 261.59314Q63.675 262.40564 63.315624 263.10876Q62.971874 263.79626 62.3625 264.17126Q61.753124 264.53064 60.9875 264.53064Q59.659374 264.53064 58.83125 263.5619Q58.003124 262.59314 58.003124 260.3744Q58.003124 257.8744 58.925 256.7494Q59.721874 255.76501 61.08125 255.76501Q62.096874 255.76501 62.7375 256.34314Q63.39375 256.90564 63.51875 257.90564ZM59.221874 261.60876Q59.221874 262.15564 59.440624 262.65564Q59.675 263.14 60.08125 263.40564Q60.503124 263.67126 60.971874 263.67126Q61.628124 263.67126 62.1125 263.14Q62.596874 262.59314 62.596874 261.67126Q62.596874 260.78064 62.1125 260.265Q61.64375 259.7494 60.925 259.7494Q60.20625 259.7494 59.70625 260.265Q59.221874 260.78064 59.221874 261.60876ZM65.05 260.15564Q65.05 258.6244 65.3625 257.7025Q65.675 256.765 66.28438 256.265Q66.90938 255.76501 67.84688 255.76501Q68.53438 255.76501 69.05 256.04626Q69.58125 256.3275 69.925 256.85876Q70.26875 257.3744 70.45625 258.1244Q70.64375 258.8744 70.64375 260.15564Q70.64375 261.67126 70.33125 262.59314Q70.03438 263.515 69.40938 264.03064Q68.8 264.53064 67.84688 264.53064Q66.6125 264.53064 65.89375 263.64Q65.05 262.5775 65.05 260.15564ZM66.12813 260.15564Q66.12813 262.265 66.62813 262.96814Q67.12813 263.67126 67.84688 263.67126Q68.58125 263.67126 69.06563 262.96814Q69.56563 262.265 69.56563 260.15564Q69.56563 258.03064 69.06563 257.34314Q68.58125 256.64 67.83125 256.64Q67.1125 256.64 66.675 257.2494Q66.12813 258.03064 66.12813 260.15564Z" fill-rule="nonzero"/><path fill="#000000" d="M59.675 231.38042Q59.01875 231.13042 58.690624 230.69292Q58.378124 230.23979 58.378124 229.63042Q58.378124 228.69292 59.05 228.05229Q59.7375 227.41167 60.846874 227.41167Q61.971874 227.41167 62.659374 228.06792Q63.346874 228.72417 63.346874 229.66167Q63.346874 230.25542 63.034374 230.69292Q62.721874 231.13042 62.08125 231.38042Q62.878124 231.63042 63.284374 232.20854Q63.690624 232.78667 63.690624 233.58354Q63.690624 234.67729 62.909374 235.42729Q62.14375 236.17729 60.8625 236.17729Q59.596874 236.17729 58.815624 235.42729Q58.034374 234.67729 58.034374 233.55229Q58.034374 232.70854 58.45625 232.14604Q58.89375 231.58354 59.675 231.38042ZM59.45625 229.58354Q59.45625 230.19292 59.846874 230.58354Q60.253124 230.97417 60.878124 230.97417Q61.4875 230.97417 61.878124 230.59917Q62.26875 230.20854 62.26875 229.64604Q62.26875 229.06792 61.8625 228.67729Q61.45625 228.27104 60.8625 228.27104Q60.253124 228.27104 59.846874 228.66167Q59.45625 229.05229 59.45625 229.58354ZM59.128124 233.55229Q59.128124 234.00542 59.33125 234.42729Q59.55 234.84917 59.971874 235.08354Q60.39375 235.31792 60.878124 235.31792Q61.628124 235.31792 62.1125 234.83354Q62.6125 234.34917 62.6125 233.59917Q62.6125 232.83354 62.1125 232.33354Q61.6125 231.83354 60.846874 231.83354Q60.096874 231.83354 59.6125 232.33354Q59.128124 232.81792 59.128124 233.55229ZM65.05 231.80229Q65.05 230.27104 65.3625 229.34917Q65.675 228.41167 66.28438 227.91167Q66.90938 227.41167 67.84688 227.41167Q68.53438 227.41167 69.05 227.69292Q69.58125 227.97417 69.925 228.50542Q70.26875 229.02104 70.45625 229.77104Q70.64375 230.52104 70.64375 231.80229Q70.64375 233.31792 70.33125 234.23979Q70.03438 235.16167 69.40938 235.67729Q68.8 236.17729 67.84688 236.17729Q66.6125 236.17729 65.89375 235.28667Q65.05 234.22417 65.05 231.80229ZM66.12813 231.80229Q66.12813 233.91167 66.62813 234.61479Q67.12813 235.31792 67.84688 235.31792Q68.58125 235.31792 69.06563 234.61479Q69.56563 233.91167 69.56563 231.80229Q69.56563 229.67729 69.06563 228.98979Q68.58125 228.28667 67.83125 228.28667Q67.1125 228.28667 66.675 228.89604Q66.12813 229.67729 66.12813 231.80229Z" fill-rule="nonzero"/><path fill="#000000" d="M55.01875 207.68333L53.971874 207.68333L53.971874 200.96458Q53.58125 201.32396 52.95625 201.69896Q52.346874 202.05833 51.8625 202.23021L51.8625 201.21458Q52.7375 200.79271 53.39375 200.21458Q54.065624 199.62083 54.346874 199.05833L55.01875 199.05833L55.01875 207.68333ZM58.05 203.44896Q58.05 201.91771 58.3625 200.99583Q58.675 200.05833 59.284374 199.55833Q59.909374 199.05833 60.846874 199.05833Q61.534374 199.05833 62.05 199.33958Q62.58125 199.62083 62.925 200.15208Q63.26875 200.66771 63.45625 201.41771Q63.64375 202.16771 63.64375 203.44896Q63.64375 204.96458 63.33125 205.88646Q63.034374 206.80833 62.409374 207.32396Q61.8 207.82396 60.846874 207.82396Q59.6125 207.82396 58.89375 206.93333Q58.05 205.87083 58.05 203.44896ZM59.128124 203.44896Q59.128124 205.55833 59.628124 206.26146Q60.128124 206.96458 60.846874 206.96458Q61.58125 206.96458 62.065624 206.26146Q62.565624 205.55833 62.565624 203.44896Q62.565624 201.32396 62.065624 200.63646Q61.58125 199.93333 60.83125 199.93333Q60.1125 199.93333 59.675 200.54271Q59.128124 201.32396 59.128124 203.44896ZM65.05 203.44896Q65.05 201.91771 65.3625 200.99583Q65.675 200.05833 66.28438 199.55833Q66.90938 199.05833 67.84688 199.05833Q68.53438 199.05833 69.05 199.33958Q69.58125 199.62083 69.925 200.15208Q70.26875 200.66771 70.45625 201.41771Q70.64375 202.16771 70.64375 203.44896Q70.64375 204.96458 70.33125 205.88646Q70.03438 206.80833 69.40938 207.32396Q68.8 207.82396 67.84688 207.82396Q66.6125 207.82396 65.89375 206.93333Q65.05 205.87083 65.05 203.44896ZM66.12813 203.44896Q66.12813 205.55833 66.62813 206.26146Q67.12813 206.96458 67.84688 206.96458Q68.58125 206.96458 69.06563 206.26146Q69.56563 205.55833 69.56563 203.44896Q69.56563 201.32396 69.06563 200.63646Q68.58125 199.93333 67.83125 199.93333Q67.1125 199.93333 66.675 200.54271Q66.12813 201.32396 66.12813 203.44896Z" fill-rule="nonzero"/><path fill="#000000" d="M55.01875 179.33L53.971874 179.33L53.971874 172.61125Q53.58125 172.97063 52.95625 173.34563Q52.346874 173.705 51.8625 173.87688L51.8625 172.86125Q52.7375 172.43938 53.39375 171.86125Q54.065624 171.2675 54.346874 170.705L55.01875 170.705L55.01875 179.33ZM63.596874 178.31438L63.596874 179.33L57.909374 179.33Q57.909374 178.955 58.034374 178.59563Q58.253124 178.0175 58.721874 177.455Q59.20625 176.8925 60.1125 176.15813Q61.51875 175.00188 62.003124 174.33Q62.503124 173.65813 62.503124 173.06438Q62.503124 172.43938 62.05 172.0175Q61.596874 171.58 60.878124 171.58Q60.1125 171.58 59.659374 172.03313Q59.20625 172.48625 59.190624 173.29875L58.1125 173.18938Q58.221874 171.97063 58.940624 171.34563Q59.675 170.705 60.909374 170.705Q62.14375 170.705 62.8625 171.3925Q63.58125 172.08 63.58125 173.09563Q63.58125 173.61125 63.3625 174.11125Q63.159374 174.59563 62.659374 175.15813Q62.175 175.705 61.05 176.65813Q60.096874 177.455 59.815624 177.75188Q59.55 178.03313 59.378124 178.31438L63.596874 178.31438ZM65.05 175.09563Q65.05 173.56438 65.3625 172.6425Q65.675 171.705 66.28438 171.205Q66.90938 170.705 67.84688 170.705Q68.53438 170.705 69.05 170.98625Q69.58125 171.2675 69.925 171.79875Q70.26875 172.31438 70.45625 173.06438Q70.64375 173.81438 70.64375 175.09563Q70.64375 176.61125 70.33125 177.53313Q70.03438 178.455 69.40938 178.97063Q68.8 179.47063 67.84688 179.47063Q66.6125 179.47063 65.89375 178.58Q65.05 177.5175 65.05 175.09563ZM66.12813 175.09563Q66.12813 177.205 66.62813 177.90813Q67.12813 178.61125 67.84688 178.61125Q68.58125 178.61125 69.06563 177.90813Q69.56563 177.205 69.56563 175.09563Q69.56563 172.97063 69.06563 172.28313Q68.58125 171.58 67.83125 171.58Q67.1125 171.58 66.675 172.18938Q66.12813 172.97063 66.12813 175.09563Z" fill-rule="nonzero"/><path fill="#000000" d="M55.01875 150.97667L53.971874 150.97667L53.971874 144.25792Q53.58125 144.6173 52.95625 144.9923Q52.346874 145.35167 51.8625 145.52354L51.8625 144.50792Q52.7375 144.08604 53.39375 143.50792Q54.065624 142.91417 54.346874 142.35167L55.01875 142.35167L55.01875 150.97667ZM61.425 150.97667L61.425 148.91417L57.70625 148.91417L57.70625 147.94542L61.628124 142.38292L62.4875 142.38292L62.4875 147.94542L63.64375 147.94542L63.64375 148.91417L62.4875 148.91417L62.4875 150.97667L61.425 150.97667ZM61.425 147.94542L61.425 144.08604L58.7375 147.94542L61.425 147.94542ZM65.05 146.7423Q65.05 145.21104 65.3625 144.28917Q65.675 143.35167 66.28438 142.85167Q66.90938 142.35167 67.84688 142.35167Q68.53438 142.35167 69.05 142.63292Q69.58125 142.91417 69.925 143.44542Q70.26875 143.96104 70.45625 144.71104Q70.64375 145.46104 70.64375 146.7423Q70.64375 148.25792 70.33125 149.1798Q70.03438 150.10167 69.40938 150.6173Q68.8 151.1173 67.84688 151.1173Q66.6125 151.1173 65.89375 150.22667Q65.05 149.16417 65.05 146.7423ZM66.12813 146.7423Q66.12813 148.85167 66.62813 149.5548Q67.12813 150.25792 67.84688 150.25792Q68.58125 150.25792 69.06563 149.5548Q69.56563 148.85167 69.56563 146.7423Q69.56563 144.6173 69.06563 143.9298Q68.58125 143.22667 67.83125 143.22667Q67.1125 143.22667 66.675 143.83604Q66.12813 144.6173 66.12813 146.7423Z" fill-rule="nonzero"/><path fill="#000000" d="M55.01875 122.62334L53.971874 122.62334L53.971874 115.90459Q53.58125 116.26396 52.95625 116.63896Q52.346874 116.99834 51.8625 117.17021L51.8625 116.15459Q52.7375 115.73271 53.39375 115.15459Q54.065624 114.56084 54.346874 113.99834L55.01875 113.99834L55.01875 122.62334ZM63.51875 116.13896L62.471874 116.21709Q62.33125 115.59209 62.08125 115.31084Q61.64375 114.85771 61.01875 114.85771Q60.51875 114.85771 60.128124 115.13896Q59.64375 115.51396 59.346874 116.21709Q59.065624 116.90459 59.05 118.18584Q59.425 117.60771 59.971874 117.32646Q60.534374 117.04521 61.14375 117.04521Q62.190624 117.04521 62.925 117.82646Q63.675 118.60771 63.675 119.82646Q63.675 120.63896 63.315624 121.34209Q62.971874 122.02959 62.3625 122.40459Q61.753124 122.76396 60.9875 122.76396Q59.659374 122.76396 58.83125 121.79521Q58.003124 120.82646 58.003124 118.60771Q58.003124 116.10771 58.925 114.98271Q59.721874 113.99834 61.08125 113.99834Q62.096874 113.99834 62.7375 114.57646Q63.39375 115.13896 63.51875 116.13896ZM59.221874 119.84209Q59.221874 120.38896 59.440624 120.88896Q59.675 121.37334 60.08125 121.63896Q60.503124 121.90459 60.971874 121.90459Q61.628124 121.90459 62.1125 121.37334Q62.596874 120.82646 62.596874 119.90459Q62.596874 119.01396 62.1125 118.49834Q61.64375 117.98271 60.925 117.98271Q60.20625 117.98271 59.70625 118.49834Q59.221874 119.01396 59.221874 119.84209ZM65.05 118.38896Q65.05 116.85771 65.3625 115.93584Q65.675 114.99834 66.28438 114.49834Q66.90938 113.99834 67.84688 113.99834Q68.53438 113.99834 69.05 114.27959Q69.58125 114.56084 69.925 115.09209Q70.26875 115.60771 70.45625 116.35771Q70.64375 117.10771 70.64375 118.38896Q70.64375 119.90459 70.33125 120.82646Q70.03438 121.74834 69.40938 122.26396Q68.8 122.76396 67.84688 122.76396Q66.6125 122.76396 65.89375 121.87334Q65.05 120.81084 65.05 118.38896ZM66.12813 118.38896Q66.12813 120.49834 66.62813 121.20146Q67.12813 121.90459 67.84688 121.90459Q68.58125 121.90459 69.06563 121.20146Q69.56563 120.49834 69.56563 118.38896Q69.56563 116.26396 69.06563 115.57646Q68.58125 114.87334 67.83125 114.87334Q67.1125 114.87334 66.675 115.48271Q66.12813 116.26396 66.12813 118.38896Z" fill-rule="nonzero"/><path fill="#000000" d="M55.01875 94.27L53.971874 94.27L53.971874 87.55125Q53.58125 87.91062 52.95625 88.28562Q52.346874 88.645 51.8625 88.81687L51.8625 87.80125Q52.7375 87.37937 53.39375 86.80125Q54.065624 86.2075 54.346874 85.645L55.01875 85.645L55.01875 94.27ZM59.675 89.61375Q59.01875 89.36375 58.690624 88.92625Q58.378124 88.47312 58.378124 87.86375Q58.378124 86.92625 59.05 86.28562Q59.7375 85.645 60.846874 85.645Q61.971874 85.645 62.659374 86.30125Q63.346874 86.9575 63.346874 87.895Q63.346874 88.48875 63.034374 88.92625Q62.721874 89.36375 62.08125 89.61375Q62.878124 89.86375 63.284374 90.44187Q63.690624 91.02 63.690624 91.81687Q63.690624 92.91062 62.909374 93.66062Q62.14375 94.41062 60.8625 94.41062Q59.596874 94.41062 58.815624 93.66062Q58.034374 92.91062 58.034374 91.78562Q58.034374 90.94187 58.45625 90.37937Q58.89375 89.81687 59.675 89.61375ZM59.45625 87.81687Q59.45625 88.42625 59.846874 88.81687Q60.253124 89.2075 60.878124 89.2075Q61.4875 89.2075 61.878124 88.8325Q62.26875 88.44187 62.26875 87.87937Q62.26875 87.30125 61.8625 86.91062Q61.45625 86.50437 60.8625 86.50437Q60.253124 86.50437 59.846874 86.895Q59.45625 87.28562 59.45625 87.81687ZM59.128124 91.78562Q59.128124 92.23875 59.33125 92.66062Q59.55 93.0825 59.971874 93.31687Q60.39375 93.55125 60.878124 93.55125Q61.628124 93.55125 62.1125 93.06687Q62.6125 92.5825 62.6125 91.8325Q62.6125 91.06687 62.1125 90.56687Q61.6125 90.06687 60.846874 90.06687Q60.096874 90.06687 59.6125 90.56687Q59.128124 91.05125 59.128124 91.78562ZM65.05 90.03562Q65.05 88.50437 65.3625 87.5825Q65.675 86.645 66.28438 86.145Q66.90938 85.645 67.84688 85.645Q68.53438 85.645 69.05 85.92625Q69.58125 86.2075 69.925 86.73875Q70.26875 87.25437 70.45625 88.00437Q70.64375 88.75437 70.64375 90.03562Q70.64375 91.55125 70.33125 92.47312Q70.03438 93.395 69.40938 93.91062Q68.8 94.41062 67.84688 94.41062Q66.6125 94.41062 65.89375 93.52Q65.05 92.4575 65.05 90.03562ZM66.12813 90.03562Q66.12813 92.145 66.62813 92.84812Q67.12813 93.55125 67.84688 93.55125Q68.58125 93.55125 69.06563 92.84812Q69.56563 92.145 69.56563 90.03562Q69.56563 87.91062 69.06563 87.22312Q68.58125 86.52 67.83125 86.52Q67.1125 86.52 66.675 87.12937Q66.12813 87.91062 66.12813 90.03562Z" fill-rule="nonzero"/><path fill="#000000" d="M56.596874 64.90104L56.596874 65.916664L50.909374 65.916664Q50.909374 65.541664 51.034374 65.18229Q51.253124 64.604164 51.721874 64.041664Q52.20625 63.479164 53.1125 62.74479Q54.51875 61.58854 55.003124 60.916664Q55.503124 60.24479 55.503124 59.65104Q55.503124 59.02604 55.05 58.604164Q54.596874 58.166664 53.878124 58.166664Q53.1125 58.166664 52.659374 58.61979Q52.20625 59.072914 52.190624 59.885414L51.1125 59.77604Q51.221874 58.55729 51.940624 57.93229Q52.675 57.291664 53.909374 57.291664Q55.14375 57.291664 55.8625 57.979164Q56.58125 58.666664 56.58125 59.68229Q56.58125 60.197914 56.3625 60.697914Q56.159374 61.18229 55.659374 61.74479Q55.175 62.291664 54.05 63.24479Q53.096874 64.041664 52.815624 64.33854Q52.55 64.61979 52.378124 64.90104L56.596874 64.90104ZM58.05 61.68229Q58.05 60.15104 58.3625 59.229164Q58.675 58.291664 59.284374 57.791664Q59.909374 57.291664 60.846874 57.291664Q61.534374 57.291664 62.05 57.572914Q62.58125 57.854164 62.925 58.385414Q63.26875 58.90104 63.45625 59.65104Q63.64375 60.40104 63.64375 61.68229Q63.64375 63.197914 63.33125 64.11979Q63.034374 65.041664 62.409374 65.55729Q61.8 66.05729 60.846874 66.05729Q59.6125 66.05729 58.89375 65.166664Q58.05 64.104164 58.05 61.68229ZM59.128124 61.68229Q59.128124 63.791664 59.628124 64.49479Q60.128124 65.197914 60.846874 65.197914Q61.58125 65.197914 62.065624 64.49479Q62.565624 63.791664 62.565624 61.68229Q62.565624 59.55729 62.065624 58.86979Q61.58125 58.166664 60.83125 58.166664Q60.1125 58.166664 59.675 58.77604Q59.128124 59.55729 59.128124 61.68229ZM65.05 61.68229Q65.05 60.15104 65.3625 59.229164Q65.675 58.291664 66.28438 57.791664Q66.90938 57.291664 67.84688 57.291664Q68.53438 57.291664 69.05 57.572914Q69.58125 57.854164 69.925 58.385414Q70.26875 58.90104 70.45625 59.65104Q70.64375 60.40104 70.64375 61.68229Q70.64375 63.197914 70.33125 64.11979Q70.03438 65.041664 69.40938 65.55729Q68.8 66.05729 67.84688 66.05729Q66.6125 66.05729 65.89375 65.166664Q65.05 64.104164 65.05 61.68229ZM66.12813 61.68229Q66.12813 63.791664 66.62813 64.49479Q67.12813 65.197914 67.84688 65.197914Q68.58125 65.197914 69.06563 64.49479Q69.56563 63.791664 69.56563 61.68229Q69.56563 59.55729 69.06563 58.86979Q68.58125 58.166664 67.83125 58.166664Q67.1125 58.166664 66.675 58.77604Q66.12813 59.55729 66.12813 61.68229Z" fill-rule="nonzero"/><path fill="#757575" d="M23.7375 37.55L23.7375 24.925L19.01875 24.925L19.01875 23.2375L30.3625 23.2375L30.3625 24.925L25.628124 24.925L25.628124 37.55L23.7375 37.55ZM31.221874 32.3625Q31.221874 29.4875 32.815624 28.096874Q34.159374 26.940624 36.08125 26.940624Q38.221874 26.940624 39.565624 28.346874Q40.925 29.753124 40.925 32.221874Q40.925 34.221874 40.33125 35.378124Q39.7375 36.51875 38.58125 37.159374Q37.440624 37.784374 36.08125 37.784374Q33.89375 37.784374 32.55 36.39375Q31.221874 34.9875 31.221874 32.3625ZM33.01875 32.3625Q33.01875 34.3625 33.878124 35.346874Q34.753124 36.33125 36.08125 36.33125Q37.39375 36.33125 38.253124 35.346874Q39.128124 34.346874 39.128124 32.3Q39.128124 30.378124 38.253124 29.39375Q37.378124 28.39375 36.08125 28.39375Q34.753124 28.39375 33.878124 29.39375Q33.01875 30.378124 33.01875 32.3625ZM46.70625 35.971874L46.95625 37.534374Q46.221874 37.690624 45.628124 37.690624Q44.675 37.690624 44.14375 37.39375Q43.628124 37.08125 43.409374 36.596874Q43.190624 36.096874 43.190624 34.51875L43.190624 28.55L41.909374 28.55L41.909374 27.175L43.190624 27.175L43.190624 24.6125L44.940624 23.55L44.940624 27.175L46.70625 27.175L46.70625 28.55L44.940624 28.55L44.940624 34.6125Q44.940624 35.3625 45.034374 35.58125Q45.128124 35.784374 45.33125 35.925Q45.55 36.05 45.940624 36.05Q46.221874 36.05 46.70625 35.971874ZM55.64375 36.26875Q54.659374 37.096874 53.753124 37.440624Q52.846874 37.784374 51.815624 37.784374Q50.1125 37.784374 49.190624 36.95625Q48.26875 36.1125 48.26875 34.815624Q48.26875 34.05 48.6125 33.425Q48.971874 32.8 49.534374 32.425Q50.096874 32.034374 50.8 31.83125Q51.315624 31.70625 52.3625 31.565624Q54.4875 31.315624 55.4875 30.971874Q55.503124 30.6125 55.503124 30.503124Q55.503124 29.440624 55.003124 28.9875Q54.33125 28.39375 53.003124 28.39375Q51.753124 28.39375 51.159374 28.83125Q50.58125 29.26875 50.3 30.378124L48.58125 30.14375Q48.815624 29.034374 49.346874 28.3625Q49.878124 27.675 50.89375 27.315624Q51.909374 26.940624 53.253124 26.940624Q54.58125 26.940624 55.409374 27.253124Q56.2375 27.565624 56.628124 28.05Q57.01875 28.51875 57.175 29.2375Q57.26875 29.690624 57.26875 30.8625L57.26875 33.20625Q57.26875 35.659374 57.378124 36.315624Q57.4875 36.95625 57.83125 37.55L55.9875 37.55Q55.721874 37.003124 55.64375 36.26875ZM55.4875 32.346874Q54.534374 32.7375 52.6125 33.003124Q51.534374 33.159374 51.08125 33.3625Q50.64375 33.55 50.39375 33.925Q50.14375 34.3 50.14375 34.76875Q50.14375 35.471874 50.675 35.940624Q51.20625 36.409374 52.2375 36.409374Q53.253124 36.409374 54.034374 35.971874Q54.83125 35.51875 55.20625 34.753124Q55.4875 34.14375 55.4875 32.9875L55.4875 32.346874ZM59.83125 37.55L59.83125 23.2375L61.58125 23.2375L61.58125 37.55L59.83125 37.55Z" fill-rule="nonzero"/></svg>