<svg version="1.1" viewBox="0.0 0.0 680.0 420.0" fill="none" stroke="none" stroke-linecap="square" stroke-miterlimit="10" width="680" height="420" xmlns:xlink="http://www.w3.org/1999/xlink" xmlns="http://www.w3.org/2000/svg"><path fill="#ffffff" d="M0 0L680.0 0L680.0 420.0L0 420.0L0 0Z" fill-rule="nonzero"/><path stroke="#333333" stroke-width="1.0" stroke-linecap="butt" d="M80.5 392.5L659.5 392.5" fill-rule="nonzero"/><path stroke="#cccccc" stroke-width="1.0" stroke-linecap="butt" d="M80.5 359.5L659.5 359.5" fill-rule="nonzero"/><path stroke="#cccccc" stroke-width="1.0" stroke-linecap="butt" d="M80.5 326.5L659.5 326.5" fill-rule="nonzero"/><path stroke="#cccccc" stroke-width="1.0" stroke-linecap="butt" d="M80.5 294.5L659.5 294.5" fill-rule="nonzero"/><path stroke="#cccccc" stroke-width="1.0" stroke-linecap="butt" d="M80.5 261.5L659.5 261.5" fill-rule="nonzero"/><path stroke="#cccccc" stroke-width="1.0" stroke-linecap="butt" d="M80.5 229.5L659.5 229.5" fill-rule="nonzero"/><path stroke="#cccccc" stroke-width="1.0" stroke-linecap="butt" d="M80.5 196.5L659.5 196.5" fill-rule="nonzero"/><path stroke="#cccccc" stroke-width="1.0" stroke-linecap="butt" d="M80.5 163.5L659.5 163.5" fill-rule="nonzero"/><path stroke="#cccccc" stroke-width="1.0" stroke-linecap="butt" d="M80.5 131.5L659.5 131.5" fill-rule="nonzero"/><path stroke="#cccccc" stroke-width="1.0" stroke-linecap="butt" d="M80.5 98.5L659.5 98.5" fill-rule="nonzero"/><path stroke="#cccccc" stroke-width="1.0" stroke-linecap="butt" d="M80.5 66.5L659.5 66.5" fill-rule="nonzero"/><clipPath id="id_0"><path d="M80.0 66.0L659.0 66.0L659.0 392.0L80.0 392.0L80.0 66.0Z" clip-rule="nonzero"/></clipPath><path stroke="#434343" stroke-width="2.0" stroke-linecap="butt" clip-path="url(#id_0)" d="M84.7459 66.0L94.2377 66.0L103.72951 202.92L113.22131 268.12L122.71311 268.12L132.20493 268.12L141.69672 268.12L151.18852 268.12L160.68033 268.12L170.17213 268.12L179.66394 317.02L189.15573 317.02L198.64754 317.02L208.13934 317.02L217.63115 317.02L227.12296 352.88L236.61476 352.88L246.10655 352.88L255.59836 352.88L265.09015 352.88L274.58197 352.88L284.07376 352.88L293.56558 352.88L303.05737 352.88L312.5492 352.88L322.041 352.88L331.53278 352.88L341.0246 352.88L350.5164 352.88L360.0082 352.88L369.5 352.88L378.9918 352.88L388.4836 352.88L397.9754 375.7L407.46722 375.7L416.959 375.7L426.4508 392.0L435.94263 392.0L445.43442 392.0L454.92624 392.0L464.41803 392.0L473.90985 392.0L483.40164 392.0L492.89343 392.0L502.38525 392.0L511.87704 392.0L521.36884 392.0L530.86066 392.0L540.3525 392.0L549.84424 392.0L559.33606 392.0L568.8279 392.0L578.3197 392.0L587.81146 392.0L597.3033 392.0L606.7951 392.0L616.28687 392.0L625.7787 392.0L635.2705 392.0L644.76227 392.0L654.2541 392.0" fill-rule="nonzero"/><path fill="#434343" clip-path="url(#id_0)" d="M90.7459 66.0C90.7459 69.313705 88.05961 72.0 84.7459 72.0C81.43219 72.0 78.7459 69.313705 78.7459 66.0C78.7459 62.68629 81.43219 60.0 84.7459 60.0C88.05961 60.0 90.7459 62.68629 90.7459 66.0Z" fill-rule="nonzero"/><path fill="#434343" clip-path="url(#id_0)" d="M100.2377 66.0C100.2377 69.313705 97.551414 72.0 94.2377 72.0C90.923996 72.0 88.2377 69.313705 88.2377 66.0C88.2377 62.68629 90.923996 60.0 94.2377 60.0C97.551414 60.0 100.2377 62.68629 100.2377 66.0Z" fill-rule="nonzero"/><path fill="#434343" clip-path="url(#id_0)" d="M109.72951 202.92C109.72951 206.2337 107.04321 208.92 103.72951 208.92C100.4158 208.92 97.72951 206.2337 97.72951 202.92C97.72951 199.6063 100.4158 196.92 103.72951 196.92C107.04321 196.92 109.72951 199.6063 109.72951 202.92Z" fill-rule="nonzero"/><path fill="#434343" clip-path="url(#id_0)" d="M119.22131 268.12C119.22131 271.43372 116.53502 274.12 113.22131 274.12C109.9076 274.12 107.22131 271.43372 107.22131 268.12C107.22131 264.8063 109.9076 262.12 113.22131 262.12C116.53502 262.12 119.22131 264.8063 119.22131 268.12Z" fill-rule="nonzero"/><path fill="#434343" clip-path="url(#id_0)" d="M128.71312 268.12C128.71312 271.43372 126.026825 274.12 122.71311 274.12C119.39941 274.12 116.71311 271.43372 116.71311 268.12C116.71311 264.8063 119.39941 262.12 122.71311 262.12C126.026825 262.12 128.71312 264.8063 128.71312 268.12Z" fill-rule="nonzero"/><path fill="#434343" clip-path="url(#id_0)" d="M138.20493 268.12C138.20493 271.43372 135.51863 274.12 132.20493 274.12C128.8912 274.12 126.20492 271.43372 126.20492 268.12C126.20492 264.8063 128.8912 262.12 132.20493 262.12C135.51863 262.12 138.20493 264.8063 138.20493 268.12Z" fill-rule="nonzero"/><path fill="#434343" clip-path="url(#id_0)" d="M147.69672 268.12C147.69672 271.43372 145.01044 274.12 141.69672 274.12C138.38301 274.12 135.69672 271.43372 135.69672 268.12C135.69672 264.8063 138.38301 262.12 141.69672 262.12C145.01044 262.12 147.69672 264.8063 147.69672 268.12Z" fill-rule="nonzero"/><path fill="#434343" clip-path="url(#id_0)" d="M157.18852 268.12C157.18852 271.43372 154.50223 274.12 151.18852 274.12C147.87482 274.12 145.18852 271.43372 145.18852 268.12C145.18852 264.8063 147.87482 262.12 151.18852 262.12C154.50223 262.12 157.18852 264.8063 157.18852 268.12Z" fill-rule="nonzero"/><path fill="#434343" clip-path="url(#id_0)" d="M166.68033 268.12C166.68033 271.43372 163.99403 274.12 160.68033 274.12C157.36662 274.12 154.68033 271.43372 154.68033 268.12C154.68033 264.8063 157.36662 262.12 160.68033 262.12C163.99403 262.12 166.68033 264.8063 166.68033 268.12Z" fill-rule="nonzero"/><path fill="#434343" clip-path="url(#id_0)" d="M176.17213 268.12C176.17213 271.43372 173.48584 274.12 170.17213 274.12C166.85843 274.12 164.17213 271.43372 164.17213 268.12C164.17213 264.8063 166.85843 262.12 170.17213 262.12C173.48584 262.12 176.17213 264.8063 176.17213 268.12Z" fill-rule="nonzero"/><path fill="#434343" clip-path="url(#id_0)" d="M185.66394 317.02C185.66394 320.3337 182.97765 323.02 179.66394 323.02C176.35022 323.02 173.66394 320.3337 173.66394 317.02C173.66394 313.7063 176.35022 311.02 179.66394 311.02C182.97765 311.02 185.66394 313.7063 185.66394 317.02Z" fill-rule="nonzero"/><path fill="#434343" clip-path="url(#id_0)" d="M195.15573 317.02C195.15573 320.3337 192.46945 323.02 189.15573 323.02C185.84203 323.02 183.15573 320.3337 183.15573 317.02C183.15573 313.7063 185.84203 311.02 189.15573 311.02C192.46945 311.02 195.15573 313.7063 195.15573 317.02Z" fill-rule="nonzero"/><path fill="#434343" clip-path="url(#id_0)" d="M204.64754 317.02C204.64754 320.3337 201.96124 323.02 198.64754 323.02C195.33383 323.02 192.64754 320.3337 192.64754 317.02C192.64754 313.7063 195.33383 311.02 198.64754 311.02C201.96124 311.02 204.64754 313.7063 204.64754 317.02Z" fill-rule="nonzero"/><path fill="#434343" clip-path="url(#id_0)" d="M214.13934 317.02C214.13934 320.3337 211.45305 323.02 208.13934 323.02C204.82564 323.02 202.13934 320.3337 202.13934 317.02C202.13934 313.7063 204.82564 311.02 208.13934 311.02C211.45305 311.02 214.13934 313.7063 214.13934 317.02Z" fill-rule="nonzero"/><path fill="#434343" clip-path="url(#id_0)" d="M223.63115 317.02C223.63115 320.3337 220.94485 323.02 217.63115 323.02C214.31744 323.02 211.63115 320.3337 211.63115 317.02C211.63115 313.7063 214.31744 311.02 217.63115 311.02C220.94485 311.02 223.63115 313.7063 223.63115 317.02Z" fill-rule="nonzero"/><path fill="#434343" clip-path="url(#id_0)" d="M233.12296 352.88C233.12296 356.1937 230.43666 358.88 227.12296 358.88C223.80925 358.88 221.12296 356.1937 221.12296 352.88C221.12296 349.56628 223.80925 346.88 227.12296 346.88C230.43666 346.88 233.12296 349.56628 233.12296 352.88Z" fill-rule="nonzero"/><path fill="#434343" clip-path="url(#id_0)" d="M242.61476 352.88C242.61476 356.1937 239.92847 358.88 236.61476 358.88C233.30104 358.88 230.61476 356.1937 230.61476 352.88C230.61476 349.56628 233.30104 346.88 236.61476 346.88C239.92847 346.88 242.61476 349.56628 242.61476 352.88Z" fill-rule="nonzero"/><path fill="#434343" clip-path="url(#id_0)" d="M252.10655 352.88C252.10655 356.1937 249.42027 358.88 246.10655 358.88C242.79285 358.88 240.10655 356.1937 240.10655 352.88C240.10655 349.56628 242.79285 346.88 246.10655 346.88C249.42027 346.88 252.10655 349.56628 252.10655 352.88Z" fill-rule="nonzero"/><path fill="#434343" clip-path="url(#id_0)" d="M261.59836 352.88C261.59836 356.1937 258.91208 358.88 255.59836 358.88C252.28465 358.88 249.59836 356.1937 249.59836 352.88C249.59836 349.56628 252.28465 346.88 255.59836 346.88C258.91208 346.88 261.59836 349.56628 261.59836 352.88Z" fill-rule="nonzero"/><path fill="#434343" clip-path="url(#id_0)" d="M271.09015 352.88C271.09015 356.1937 268.40387 358.88 265.09015 358.88C261.77646 358.88 259.09015 356.1937 259.09015 352.88C259.09015 349.56628 261.77646 346.88 265.09015 346.88C268.40387 346.88 271.09015 349.56628 271.09015 352.88Z" fill-rule="nonzero"/><path fill="#434343" clip-path="url(#id_0)" d="M280.58197 352.88C280.58197 356.1937 277.8957 358.88 274.58197 358.88C271.26825 358.88 268.58197 356.1937 268.58197 352.88C268.58197 349.56628 271.26825 346.88 274.58197 346.88C277.8957 346.88 280.58197 349.56628 280.58197 352.88Z" fill-rule="nonzero"/><path fill="#434343" clip-path="url(#id_0)" d="M290.07376 352.88C290.07376 356.1937 287.38748 358.88 284.07376 358.88C280.76007 358.88 278.07376 356.1937 278.07376 352.88C278.07376 349.56628 280.76007 346.88 284.07376 346.88C287.38748 346.88 290.07376 349.56628 290.07376 352.88Z" fill-rule="nonzero"/><path fill="#434343" clip-path="url(#id_0)" d="M299.56558 352.88C299.56558 356.1937 296.87927 358.88 293.56558 358.88C290.25186 358.88 287.56558 356.1937 287.56558 352.88C287.56558 349.56628 290.25186 346.88 293.56558 346.88C296.87927 346.88 299.56558 349.56628 299.56558 352.88Z" fill-rule="nonzero"/><path fill="#434343" clip-path="url(#id_0)" d="M309.05737 352.88C309.05737 356.1937 306.3711 358.88 303.05737 358.88C299.74368 358.88 297.05737 356.1937 297.05737 352.88C297.05737 349.56628 299.74368 346.88 303.05737 346.88C306.3711 346.88 309.05737 349.56628 309.05737 352.88Z" fill-rule="nonzero"/><path fill="#434343" clip-path="url(#id_0)" d="M318.5492 352.88C318.5492 356.1937 315.86288 358.88 312.5492 358.88C309.23547 358.88 306.5492 356.1937 306.5492 352.88C306.5492 349.56628 309.23547 346.88 312.5492 346.88C315.86288 346.88 318.5492 349.56628 318.5492 352.88Z" fill-rule="nonzero"/><path fill="#434343" clip-path="url(#id_0)" d="M328.041 352.88C328.041 356.1937 325.3547 358.88 322.041 358.88C318.72726 358.88 316.041 356.1937 316.041 352.88C316.041 349.56628 318.72726 346.88 322.041 346.88C325.3547 346.88 328.041 349.56628 328.041 352.88Z" fill-rule="nonzero"/><path fill="#434343" clip-path="url(#id_0)" d="M337.53278 352.88C337.53278 356.1937 334.8465 358.88 331.53278 358.88C328.2191 358.88 325.53278 356.1937 325.53278 352.88C325.53278 349.56628 328.2191 346.88 331.53278 346.88C334.8465 346.88 337.53278 349.56628 337.53278 352.88Z" fill-rule="nonzero"/><path fill="#434343" clip-path="url(#id_0)" d="M347.0246 352.88C347.0246 356.1937 344.3383 358.88 341.0246 358.88C337.71088 358.88 335.0246 356.1937 335.0246 352.88C335.0246 349.56628 337.71088 346.88 341.0246 346.88C344.3383 346.88 347.0246 349.56628 347.0246 352.88Z" fill-rule="nonzero"/><path fill="#434343" clip-path="url(#id_0)" d="M356.5164 352.88C356.5164 356.1937 353.8301 358.88 350.5164 358.88C347.2027 358.88 344.5164 356.1937 344.5164 352.88C344.5164 349.56628 347.2027 346.88 350.5164 346.88C353.8301 346.88 356.5164 349.56628 356.5164 352.88Z" fill-rule="nonzero"/><path fill="#434343" clip-path="url(#id_0)" d="M366.0082 352.88C366.0082 356.1937 363.3219 358.88 360.0082 358.88C356.6945 358.88 354.0082 356.1937 354.0082 352.88C354.0082 349.56628 356.6945 346.88 360.0082 346.88C363.3219 346.88 366.0082 349.56628 366.0082 352.88Z" fill-rule="nonzero"/><path fill="#434343" clip-path="url(#id_0)" d="M375.5 352.88C375.5 356.1937 372.81372 358.88 369.5 358.88C366.18628 358.88 363.5 356.1937 363.5 352.88C363.5 349.56628 366.18628 346.88 369.5 346.88C372.81372 346.88 375.5 349.56628 375.5 352.88Z" fill-rule="nonzero"/><path fill="#434343" clip-path="url(#id_0)" d="M384.9918 352.88C384.9918 356.1937 382.3055 358.88 378.9918 358.88C375.6781 358.88 372.9918 356.1937 372.9918 352.88C372.9918 349.56628 375.6781 346.88 378.9918 346.88C382.3055 346.88 384.9918 349.56628 384.9918 352.88Z" fill-rule="nonzero"/><path fill="#434343" clip-path="url(#id_0)" d="M394.4836 352.88C394.4836 356.1937 391.7973 358.88 388.4836 358.88C385.1699 358.88 382.4836 356.1937 382.4836 352.88C382.4836 349.56628 385.1699 346.88 388.4836 346.88C391.7973 346.88 394.4836 349.56628 394.4836 352.88Z" fill-rule="nonzero"/><path fill="#434343" clip-path="url(#id_0)" d="M403.9754 375.7C403.9754 379.0137 401.28912 381.7 397.9754 381.7C394.6617 381.7 391.9754 379.0137 391.9754 375.7C391.9754 372.3863 394.6617 369.7 397.9754 369.7C401.28912 369.7 403.9754 372.3863 403.9754 375.7Z" fill-rule="nonzero"/><path fill="#434343" clip-path="url(#id_0)" d="M413.46722 375.7C413.46722 379.0137 410.7809 381.7 407.46722 381.7C404.1535 381.7 401.46722 379.0137 401.46722 375.7C401.46722 372.3863 404.1535 369.7 407.46722 369.7C410.7809 369.7 413.46722 372.3863 413.46722 375.7Z" fill-rule="nonzero"/><path fill="#434343" clip-path="url(#id_0)" d="M422.959 375.7C422.959 379.0137 420.27274 381.7 416.959 381.7C413.6453 381.7 410.959 379.0137 410.959 375.7C410.959 372.3863 413.6453 369.7 416.959 369.7C420.27274 369.7 422.959 372.3863 422.959 375.7Z" fill-rule="nonzero"/><path fill="#434343" clip-path="url(#id_0)" d="M432.4508 392.0C432.4508 395.31372 429.76453 398.0 426.4508 398.0C423.13712 398.0 420.4508 395.31372 420.4508 392.0C420.4508 388.68628 423.13712 386.0 426.4508 386.0C429.76453 386.0 432.4508 388.68628 432.4508 392.0Z" fill-rule="nonzero"/><path fill="#434343" clip-path="url(#id_0)" d="M441.94263 392.0C441.94263 395.31372 439.25632 398.0 435.94263 398.0C432.6289 398.0 429.94263 395.31372 429.94263 392.0C429.94263 388.68628 432.6289 386.0 435.94263 386.0C439.25632 386.0 441.94263 388.68628 441.94263 392.0Z" fill-rule="nonzero"/><path fill="#434343" clip-path="url(#id_0)" d="M451.43442 392.0C451.43442 395.31372 448.74814 398.0 445.43442 398.0C442.12073 398.0 439.43442 395.31372 439.43442 392.0C439.43442 388.68628 442.12073 386.0 445.43442 386.0C448.74814 386.0 451.43442 388.68628 451.43442 392.0Z" fill-rule="nonzero"/><path fill="#434343" clip-path="url(#id_0)" d="M460.92624 392.0C460.92624 395.31372 458.23993 398.0 454.92624 398.0C451.61252 398.0 448.92624 395.31372 448.92624 392.0C448.92624 388.68628 451.61252 386.0 454.92624 386.0C458.23993 386.0 460.92624 388.68628 460.92624 392.0Z" fill-rule="nonzero"/><path fill="#434343" clip-path="url(#id_0)" d="M470.41803 392.0C470.41803 395.31372 467.73175 398.0 464.41803 398.0C461.1043 398.0 458.41803 395.31372 458.41803 392.0C458.41803 388.68628 461.1043 386.0 464.41803 386.0C467.73175 386.0 470.41803 388.68628 470.41803 392.0Z" fill-rule="nonzero"/><path fill="#434343" clip-path="url(#id_0)" d="M479.90985 392.0C479.90985 395.31372 477.22354 398.0 473.90985 398.0C470.59613 398.0 467.90985 395.31372 467.90985 392.0C467.90985 388.68628 470.59613 386.0 473.90985 386.0C477.22354 386.0 479.90985 388.68628 479.90985 392.0Z" fill-rule="nonzero"/><path fill="#434343" clip-path="url(#id_0)" d="M489.40164 392.0C489.40164 395.31372 486.71536 398.0 483.40164 398.0C480.08792 398.0 477.40164 395.31372 477.40164 392.0C477.40164 388.68628 480.08792 386.0 483.40164 386.0C486.71536 386.0 489.40164 388.68628 489.40164 392.0Z" fill-rule="nonzero"/><path fill="#434343" clip-path="url(#id_0)" d="M498.89343 392.0C498.89343 395.31372 496.20715 398.0 492.89343 398.0C489.57974 398.0 486.89343 395.31372 486.89343 392.0C486.89343 388.68628 489.57974 386.0 492.89343 386.0C496.20715 386.0 498.89343 388.68628 498.89343 392.0Z" fill-rule="nonzero"/><path fill="#434343" clip-path="url(#id_0)" d="M508.38525 392.0C508.38525 395.31372 505.69894 398.0 502.38525 398.0C499.07153 398.0 496.38525 395.31372 496.38525 392.0C496.38525 388.68628 499.07153 386.0 502.38525 386.0C505.69894 386.0 508.38525 388.68628 508.38525 392.0Z" fill-rule="nonzero"/><path fill="#434343" clip-path="url(#id_0)" d="M517.8771 392.0C517.8771 395.31372 515.19073 398.0 511.87704 398.0C508.56335 398.0 505.87704 395.31372 505.87704 392.0C505.87704 388.68628 508.56335 386.0 511.87704 386.0C515.19073 386.0 517.8771 388.68628 517.8771 392.0Z" fill-rule="nonzero"/><path fill="#434343" clip-path="url(#id_0)" d="M527.36884 392.0C527.36884 395.31372 524.68256 398.0 521.36884 398.0C518.0551 398.0 515.36884 395.31372 515.36884 392.0C515.36884 388.68628 518.0551 386.0 521.36884 386.0C524.68256 386.0 527.36884 388.68628 527.36884 392.0Z" fill-rule="nonzero"/><path fill="#434343" clip-path="url(#id_0)" d="M536.86066 392.0C536.86066 395.31372 534.1744 398.0 530.86066 398.0C527.54694 398.0 524.86066 395.31372 524.86066 392.0C524.86066 388.68628 527.54694 386.0 530.86066 386.0C534.1744 386.0 536.86066 388.68628 536.86066 392.0Z" fill-rule="nonzero"/><path fill="#434343" clip-path="url(#id_0)" d="M546.3525 392.0C546.3525 395.31372 543.66614 398.0 540.3525 398.0C537.03876 398.0 534.3525 395.31372 534.3525 392.0C534.3525 388.68628 537.03876 386.0 540.3525 386.0C543.66614 386.0 546.3525 388.68628 546.3525 392.0Z" fill-rule="nonzero"/><path fill="#434343" clip-path="url(#id_0)" d="M555.84424 392.0C555.84424 395.31372 553.15796 398.0 549.84424 398.0C546.5306 398.0 543.84424 395.31372 543.84424 392.0C543.84424 388.68628 546.5306 386.0 549.84424 386.0C553.15796 386.0 555.84424 388.68628 555.84424 392.0Z" fill-rule="nonzero"/><path fill="#434343" clip-path="url(#id_0)" d="M565.33606 392.0C565.33606 395.31372 562.6498 398.0 559.33606 398.0C556.02234 398.0 553.33606 395.31372 553.33606 392.0C553.33606 388.68628 556.02234 386.0 559.33606 386.0C562.6498 386.0 565.33606 388.68628 565.33606 392.0Z" fill-rule="nonzero"/><path fill="#434343" clip-path="url(#id_0)" d="M574.8279 392.0C574.8279 395.31372 572.1416 398.0 568.8279 398.0C565.51416 398.0 562.8279 395.31372 562.8279 392.0C562.8279 388.68628 565.51416 386.0 568.8279 386.0C572.1416 386.0 574.8279 388.68628 574.8279 392.0Z" fill-rule="nonzero"/><path fill="#434343" clip-path="url(#id_0)" d="M584.3197 392.0C584.3197 395.31372 581.63336 398.0 578.3197 398.0C575.006 398.0 572.3197 395.31372 572.3197 392.0C572.3197 388.68628 575.006 386.0 578.3197 386.0C581.63336 386.0 584.3197 388.68628 584.3197 392.0Z" fill-rule="nonzero"/><path fill="#434343" clip-path="url(#id_0)" d="M593.81146 392.0C593.81146 395.31372 591.1252 398.0 587.81146 398.0C584.49774 398.0 581.81146 395.31372 581.81146 392.0C581.81146 388.68628 584.49774 386.0 587.81146 386.0C591.1252 386.0 593.81146 388.68628 593.81146 392.0Z" fill-rule="nonzero"/><path fill="#434343" clip-path="url(#id_0)" d="M603.3033 392.0C603.3033 395.31372 600.617 398.0 597.3033 398.0C593.98956 398.0 591.3033 395.31372 591.3033 392.0C591.3033 388.68628 593.98956 386.0 597.3033 386.0C600.617 386.0 603.3033 388.68628 603.3033 392.0Z" fill-rule="nonzero"/><path fill="#434343" clip-path="url(#id_0)" d="M612.7951 392.0C612.7951 395.31372 610.10876 398.0 606.7951 398.0C603.4814 398.0 600.7951 395.31372 600.7951 392.0C600.7951 388.68628 603.4814 386.0 606.7951 386.0C610.10876 386.0 612.7951 388.68628 612.7951 392.0Z" fill-rule="nonzero"/><path fill="#434343" clip-path="url(#id_0)" d="M622.28687 392.0C622.28687 395.31372 619.6006 398.0 616.28687 398.0C612.9732 398.0 610.28687 395.31372 610.28687 392.0C610.28687 388.68628 612.9732 386.0 616.28687 386.0C619.6006 386.0 622.28687 388.68628 622.28687 392.0Z" fill-rule="nonzero"/><path fill="#434343" clip-path="url(#id_0)" d="M631.7787 392.0C631.7787 395.31372 629.0924 398.0 625.7787 398.0C622.46497 398.0 619.7787 395.31372 619.7787 392.0C619.7787 388.68628 622.46497 386.0 625.7787 386.0C629.0924 386.0 631.7787 388.68628 631.7787 392.0Z" fill-rule="nonzero"/><path fill="#434343" clip-path="url(#id_0)" d="M641.2705 392.0C641.2705 395.31372 638.5842 398.0 635.2705 398.0C631.9568 398.0 629.2705 395.31372 629.2705 392.0C629.2705 388.68628 631.9568 386.0 635.2705 386.0C638.5842 386.0 641.2705 388.68628 641.2705 392.0Z" fill-rule="nonzero"/><path fill="#434343" clip-path="url(#id_0)" d="M650.76227 392.0C650.76227 395.31372 648.076 398.0 644.76227 398.0C641.4486 398.0 638.76227 395.31372 638.76227 392.0C638.76227 388.68628 641.4486 386.0 644.76227 386.0C648.076 386.0 650.76227 388.68628 650.76227 392.0Z" fill-rule="nonzero"/><path fill="#434343" clip-path="url(#id_0)" d="M660.2541 392.0C660.2541 395.31372 657.5678 398.0 654.2541 398.0C650.94037 398.0 648.2541 395.31372 648.2541 392.0C648.2541 388.68628 650.94037 386.0 654.2541 386.0C657.5678 386.0 660.2541 388.68628 660.2541 392.0Z" fill-rule="nonzero"/><path fill="#000000" d="M29.234375 244.45312L29.140625 243.39062Q29.796875 243.3125 30.203125 243.03125Q30.609375 242.75 30.875 242.17188Q31.125 241.57812 31.125 240.84375Q31.125 240.20312 30.9375 239.70312Q30.734375 239.20312 30.40625 238.96875Q30.0625 238.71875 29.671875 238.71875Q29.265625 238.71875 28.96875 238.95312Q28.65625 239.1875 28.453125 239.71875Q28.3125 240.07812 28.03125 241.26562Q27.75 242.4375 27.5 242.90625Q27.171875 243.53125 26.703125 243.82812Q26.21875 244.125 25.625 244.125Q24.984375 244.125 24.421875 243.76562Q23.84375 243.39062 23.5625 242.6875Q23.265625 241.96875 23.265625 241.10938Q23.265625 240.15625 23.578125 239.42188Q23.875 238.6875 24.484375 238.29688Q25.078125 237.90625 25.828125 237.875L25.90625 238.96875Q25.09375 239.0625 24.6875 239.57812Q24.265625 240.07812 24.265625 241.0625Q24.265625 242.09375 24.640625 242.5625Q25.015625 243.03125 25.546875 243.03125Q26.015625 243.03125 26.3125 242.70312Q26.609375 242.375 26.921875 241.0Q27.234375 239.60938 27.46875 239.09375Q27.828125 238.34375 28.359375 237.98438Q28.875 237.625 29.578125 237.625Q30.265625 237.625 30.875 238.01562Q31.46875 238.40625 31.8125 239.14062Q32.140625 239.875 32.140625 240.79688Q32.140625 241.96875 31.8125 242.76562Q31.46875 243.54688 30.78125 244.0Q30.09375 244.4375 29.234375 244.45312ZM29.71875 232.14062L29.859375 231.10938Q30.921875 231.28125 31.53125 231.98438Q32.140625 232.6875 32.140625 233.70312Q32.140625 234.98438 31.3125 235.76562Q30.46875 236.53125 28.90625 236.53125Q27.90625 236.53125 27.15625 236.20312Q26.390625 235.85938 26.015625 235.1875Q25.640625 234.5 25.640625 233.6875Q25.640625 232.6875 26.15625 232.04688Q26.65625 231.39062 27.609375 231.20312L27.765625 232.23438Q27.140625 232.375 26.828125 232.75Q26.5 233.125 26.5 233.65625Q26.5 234.45312 27.078125 234.95312Q27.640625 235.45312 28.875 235.45312Q30.140625 235.45312 30.703125 234.96875Q31.265625 234.48438 31.265625 233.71875Q31.265625 233.09375 30.890625 232.6875Q30.515625 232.26562 29.71875 232.14062ZM28.890625 230.59375Q27.15625 230.59375 26.328125 229.64062Q25.640625 228.84375 25.640625 227.6875Q25.640625 226.40625 26.484375 225.59375Q27.3125 224.76562 28.796875 224.76562Q30.0 224.76562 30.6875 225.125Q31.375 225.48438 31.765625 226.1875Q32.140625 226.875 32.140625 227.6875Q32.140625 228.98438 31.3125 229.79688Q30.46875 230.59375 28.890625 230.59375ZM28.890625 229.51562Q30.078125 229.51562 30.671875 229.0Q31.265625 228.46875 31.265625 227.6875Q31.265625 226.89062 30.671875 226.375Q30.078125 225.85938 28.859375 225.85938Q27.703125 225.85938 27.109375 226.39062Q26.515625 226.90625 26.515625 227.6875Q26.515625 228.46875 27.109375 229.0Q27.6875 229.51562 28.890625 229.51562ZM32.0 223.21875L25.78125 223.21875L25.78125 222.26562L26.71875 222.26562Q26.0625 221.90625 25.859375 221.60938Q25.640625 221.29688 25.640625 220.92188Q25.640625 220.39062 25.96875 219.84375L26.953125 220.20312Q26.71875 220.59375 26.71875 220.96875Q26.71875 221.32812 26.9375 221.60938Q27.140625 221.875 27.515625 221.98438Q28.078125 222.17188 28.734375 222.17188L32.0 222.17188L32.0 223.21875ZM30.0 214.95312L30.125 213.85938Q31.078125 214.10938 31.609375 214.8125Q32.140625 215.51562 32.140625 216.59375Q32.140625 217.95312 31.296875 218.76562Q30.453125 219.5625 28.9375 219.5625Q27.375 219.5625 26.515625 218.75Q25.640625 217.9375 25.640625 216.65625Q25.640625 215.40625 26.484375 214.625Q27.328125 213.82812 28.875 213.82812Q28.96875 213.82812 29.15625 213.82812L29.15625 218.46875Q30.1875 218.40625 30.734375 217.89062Q31.265625 217.375 31.265625 216.59375Q31.265625 216.01562 30.96875 215.60938Q30.65625 215.1875 30.0 214.95312ZM28.296875 218.40625L28.296875 214.9375Q27.5 215.0 27.109375 215.32812Q26.5 215.84375 26.5 216.64062Q26.5 217.375 26.984375 217.875Q27.46875 218.35938 28.296875 218.40625Z" fill-rule="nonzero"/><path fill="#000000" d="M67.5 391.76562Q67.5 390.23438 67.8125 389.3125Q68.125 388.375 68.734375 387.875Q69.359375 387.375 70.296875 387.375Q70.984375 387.375 71.5 387.65625Q72.03125 387.9375 72.375 388.46875Q72.71875 388.98438 72.90625 389.73438Q73.09375 390.48438 73.09375 391.76562Q73.09375 393.28125 72.78125 394.20312Q72.484375 395.125 71.859375 395.64062Q71.25 396.14062 70.296875 396.14062Q69.0625 396.14062 68.34375 395.25Q67.5 394.1875 67.5 391.76562ZM68.578125 391.76562Q68.578125 393.875 69.078125 394.57812Q69.578125 395.28125 70.296875 395.28125Q71.03125 395.28125 71.515625 394.57812Q72.015625 393.875 72.015625 391.76562Q72.015625 389.64062 71.515625 388.95312Q71.03125 388.25 70.28125 388.25Q69.5625 388.25 69.125 388.85938Q68.578125 389.64062 68.578125 391.76562Z" fill-rule="nonzero"/><path fill="#000000" d="M64.46875 363.4L63.421875 363.4L63.421875 356.68124Q63.03125 357.04062 62.40625 357.41562Q61.796875 357.775 61.3125 357.94687L61.3125 356.93124Q62.1875 356.50937 62.84375 355.93124Q63.515625 355.3375 63.796875 354.775L64.46875 354.775L64.46875 363.4ZM67.5 359.16562Q67.5 357.63437 67.8125 356.7125Q68.125 355.775 68.734375 355.275Q69.359375 354.775 70.296875 354.775Q70.984375 354.775 71.5 355.05624Q72.03125 355.3375 72.375 355.86874Q72.71875 356.38437 72.90625 357.13437Q73.09375 357.88437 73.09375 359.16562Q73.09375 360.68124 72.78125 361.60312Q72.484375 362.525 71.859375 363.04062Q71.25 363.54062 70.296875 363.54062Q69.0625 363.54062 68.34375 362.65Q67.5 361.5875 67.5 359.16562ZM68.578125 359.16562Q68.578125 361.275 69.078125 361.97812Q69.578125 362.68124 70.296875 362.68124Q71.03125 362.68124 71.515625 361.97812Q72.015625 361.275 72.015625 359.16562Q72.015625 357.04062 71.515625 356.35312Q71.03125 355.65 70.28125 355.65Q69.5625 355.65 69.125 356.25937Q68.578125 357.04062 68.578125 359.16562Z" fill-rule="nonzero"/><path fill="#000000" d="M66.046875 329.78436L66.046875 330.8L60.359375 330.8Q60.359375 330.425 60.484375 330.0656Q60.703125 329.4875 61.171875 328.925Q61.65625 328.3625 62.5625 327.6281Q63.96875 326.47186 64.453125 325.8Q64.953125 325.1281 64.953125 324.53436Q64.953125 323.90936 64.5 323.4875Q64.046875 323.05 63.328125 323.05Q62.5625 323.05 62.109375 323.5031Q61.65625 323.95624 61.640625 324.76874L60.5625 324.65936Q60.671875 323.4406 61.390625 322.8156Q62.125 322.175 63.359375 322.175Q64.59375 322.175 65.3125 322.8625Q66.03125 323.55 66.03125 324.5656Q66.03125 325.08124 65.8125 325.58124Q65.609375 326.0656 65.109375 326.6281Q64.625 327.175 63.5 328.1281Q62.546875 328.925 62.265625 329.22186Q62.0 329.5031 61.828125 329.78436L66.046875 329.78436ZM67.5 326.5656Q67.5 325.03436 67.8125 324.1125Q68.125 323.175 68.734375 322.675Q69.359375 322.175 70.296875 322.175Q70.984375 322.175 71.5 322.45624Q72.03125 322.7375 72.375 323.26874Q72.71875 323.78436 72.90625 324.53436Q73.09375 325.28436 73.09375 326.5656Q73.09375 328.08124 72.78125 329.0031Q72.484375 329.925 71.859375 330.4406Q71.25 330.9406 70.296875 330.9406Q69.0625 330.9406 68.34375 330.05Q67.5 328.9875 67.5 326.5656ZM68.578125 326.5656Q68.578125 328.675 69.078125 329.3781Q69.578125 330.08124 70.296875 330.08124Q71.03125 330.08124 71.515625 329.3781Q72.015625 328.675 72.015625 326.5656Q72.015625 324.4406 71.515625 323.7531Q71.03125 323.05 70.28125 323.05Q69.5625 323.05 69.125 323.65936Q68.578125 324.4406 68.578125 326.5656Z" fill-rule="nonzero"/><path fill="#000000" d="M60.5 295.9344L61.5625 295.79376Q61.734375 296.6844 62.171875 297.09064Q62.609375 297.48126 63.234375 297.48126Q63.984375 297.48126 64.5 296.96564Q65.015625 296.45 65.015625 295.6844Q65.015625 294.96564 64.53125 294.4969Q64.0625 294.0125 63.328125 294.0125Q63.03125 294.0125 62.578125 294.1375L62.703125 293.2Q62.8125 293.21564 62.875 293.21564Q63.546875 293.21564 64.078125 292.8719Q64.625 292.5125 64.625 291.77814Q64.625 291.2 64.234375 290.825Q63.84375 290.4344 63.21875 290.4344Q62.609375 290.4344 62.1875 290.825Q61.78125 291.21564 61.671875 291.98126L60.609375 291.79376Q60.796875 290.7469 61.484375 290.16876Q62.171875 289.575 63.1875 289.575Q63.890625 289.575 64.484375 289.8875Q65.078125 290.1844 65.390625 290.7Q65.703125 291.21564 65.703125 291.8094Q65.703125 292.35626 65.40625 292.825Q65.109375 293.27814 64.53125 293.54376Q65.28125 293.71564 65.703125 294.27814Q66.125 294.825 66.125 295.66876Q66.125 296.79376 65.296875 297.575Q64.484375 298.35626 63.234375 298.35626Q62.109375 298.35626 61.359375 297.6844Q60.609375 296.9969 60.5 295.9344ZM67.5 293.96564Q67.5 292.4344 67.8125 291.5125Q68.125 290.575 68.734375 290.075Q69.359375 289.575 70.296875 289.575Q70.984375 289.575 71.5 289.85626Q72.03125 290.1375 72.375 290.66876Q72.71875 291.1844 72.90625 291.9344Q73.09375 292.6844 73.09375 293.96564Q73.09375 295.48126 72.78125 296.40314Q72.484375 297.325 71.859375 297.84064Q71.25 298.34064 70.296875 298.34064Q69.0625 298.34064 68.34375 297.45Q67.5 296.3875 67.5 293.96564ZM68.578125 293.96564Q68.578125 296.075 69.078125 296.77814Q69.578125 297.48126 70.296875 297.48126Q71.03125 297.48126 71.515625 296.77814Q72.015625 296.075 72.015625 293.96564Q72.015625 291.84064 71.515625 291.15314Q71.03125 290.45 70.28125 290.45Q69.5625 290.45 69.125 291.0594Q68.578125 291.84064 68.578125 293.96564Z" fill-rule="nonzero"/><path fill="#000000" d="M63.875 265.6L63.875 263.5375L60.15625 263.5375L60.15625 262.56876L64.078125 257.00626L64.9375 257.00626L64.9375 262.56876L66.09375 262.56876L66.09375 263.5375L64.9375 263.5375L64.9375 265.6L63.875 265.6ZM63.875 262.56876L63.875 258.70938L61.1875 262.56876L63.875 262.56876ZM67.5 261.36563Q67.5 259.83438 67.8125 258.9125Q68.125 257.975 68.734375 257.475Q69.359375 256.975 70.296875 256.975Q70.984375 256.975 71.5 257.25626Q72.03125 257.5375 72.375 258.06876Q72.71875 258.58438 72.90625 259.33438Q73.09375 260.08438 73.09375 261.36563Q73.09375 262.88126 72.78125 263.80313Q72.484375 264.725 71.859375 265.24063Q71.25 265.74063 70.296875 265.74063Q69.0625 265.74063 68.34375 264.85Q67.5 263.7875 67.5 261.36563ZM68.578125 261.36563Q68.578125 263.475 69.078125 264.17813Q69.578125 264.88126 70.296875 264.88126Q71.03125 264.88126 71.515625 264.17813Q72.015625 263.475 72.015625 261.36563Q72.015625 259.24063 71.515625 258.55313Q71.03125 257.85 70.28125 257.85Q69.5625 257.85 69.125 258.45938Q68.578125 259.24063 68.578125 261.36563Z" fill-rule="nonzero"/><path fill="#000000" d="M60.5 230.75L61.609375 230.65625Q61.734375 231.46875 62.171875 231.875Q62.625 232.28125 63.265625 232.28125Q64.015625 232.28125 64.546875 231.70312Q65.078125 231.125 65.078125 230.1875Q65.078125 229.28125 64.5625 228.76562Q64.0625 228.23438 63.234375 228.23438Q62.734375 228.23438 62.3125 228.46875Q61.90625 228.70312 61.671875 229.0625L60.6875 228.9375L61.515625 224.53125L65.796875 224.53125L65.796875 225.53125L62.359375 225.53125L61.90625 227.84375Q62.671875 227.29688 63.515625 227.29688Q64.640625 227.29688 65.40625 228.07812Q66.1875 228.85938 66.1875 230.09375Q66.1875 231.25 65.515625 232.10938Q64.6875 233.14062 63.265625 233.14062Q62.09375 233.14062 61.34375 232.48438Q60.609375 231.82812 60.5 230.75ZM67.5 228.76562Q67.5 227.23438 67.8125 226.3125Q68.125 225.375 68.734375 224.875Q69.359375 224.375 70.296875 224.375Q70.984375 224.375 71.5 224.65625Q72.03125 224.9375 72.375 225.46875Q72.71875 225.98438 72.90625 226.73438Q73.09375 227.48438 73.09375 228.76562Q73.09375 230.28125 72.78125 231.20312Q72.484375 232.125 71.859375 232.64062Q71.25 233.14062 70.296875 233.14062Q69.0625 233.14062 68.34375 232.25Q67.5 231.1875 67.5 228.76562ZM68.578125 228.76562Q68.578125 230.875 69.078125 231.57812Q69.578125 232.28125 70.296875 232.28125Q71.03125 232.28125 71.515625 231.57812Q72.015625 230.875 72.015625 228.76562Q72.015625 226.64062 71.515625 225.95312Q71.03125 225.25 70.28125 225.25Q69.5625 225.25 69.125 225.85938Q68.578125 226.64062 68.578125 228.76562Z" fill-rule="nonzero"/><path fill="#000000" d="M65.96875 193.91562L64.921875 193.99374Q64.78125 193.36874 64.53125 193.0875Q64.09375 192.63437 63.46875 192.63437Q62.96875 192.63437 62.578125 192.91562Q62.09375 193.29062 61.796875 193.99374Q61.515625 194.68124 61.5 195.9625Q61.875 195.38437 62.421875 195.10312Q62.984375 194.82187 63.59375 194.82187Q64.640625 194.82187 65.375 195.60312Q66.125 196.38437 66.125 197.60312Q66.125 198.41562 65.765625 199.11874Q65.421875 199.80624 64.8125 200.18124Q64.203125 200.54062 63.4375 200.54062Q62.109375 200.54062 61.28125 199.57187Q60.453125 198.60312 60.453125 196.38437Q60.453125 193.88437 61.375 192.75937Q62.171875 191.775 63.53125 191.775Q64.546875 191.775 65.1875 192.35312Q65.84375 192.91562 65.96875 193.91562ZM61.671875 197.61874Q61.671875 198.16562 61.890625 198.66562Q62.125 199.15 62.53125 199.41562Q62.953125 199.68124 63.421875 199.68124Q64.078125 199.68124 64.5625 199.15Q65.046875 198.60312 65.046875 197.68124Q65.046875 196.79062 64.5625 196.275Q64.09375 195.75937 63.375 195.75937Q62.65625 195.75937 62.15625 196.275Q61.671875 196.79062 61.671875 197.61874ZM67.5 196.16562Q67.5 194.63437 67.8125 193.7125Q68.125 192.775 68.734375 192.275Q69.359375 191.775 70.296875 191.775Q70.984375 191.775 71.5 192.05624Q72.03125 192.3375 72.375 192.86874Q72.71875 193.38437 72.90625 194.13437Q73.09375 194.88437 73.09375 196.16562Q73.09375 197.68124 72.78125 198.60312Q72.484375 199.525 71.859375 200.04062Q71.25 200.54062 70.296875 200.54062Q69.0625 200.54062 68.34375 199.65Q67.5 198.5875 67.5 196.16562ZM68.578125 196.16562Q68.578125 198.275 69.078125 198.97812Q69.578125 199.68124 70.296875 199.68124Q71.03125 199.68124 71.515625 198.97812Q72.015625 198.275 72.015625 196.16562Q72.015625 194.04062 71.515625 193.35312Q71.03125 192.65 70.28125 192.65Q69.5625 192.65 69.125 193.25937Q68.578125 194.04062 68.578125 196.16562Z" fill-rule="nonzero"/><path fill="#000000" d="M60.5625 160.33125L60.5625 159.31563L66.125 159.31563L66.125 160.14375Q65.3125 161.01875 64.5 162.47188Q63.703125 163.90938 63.265625 165.44063Q62.9375 166.51875 62.859375 167.8L61.765625 167.8Q61.78125 166.78438 62.15625 165.34688Q62.546875 163.90938 63.25 162.58125Q63.96875 161.25313 64.78125 160.33125L60.5625 160.33125ZM67.5 163.56563Q67.5 162.03438 67.8125 161.1125Q68.125 160.175 68.734375 159.675Q69.359375 159.175 70.296875 159.175Q70.984375 159.175 71.5 159.45625Q72.03125 159.7375 72.375 160.26875Q72.71875 160.78438 72.90625 161.53438Q73.09375 162.28438 73.09375 163.56563Q73.09375 165.08125 72.78125 166.00313Q72.484375 166.925 71.859375 167.44063Q71.25 167.94063 70.296875 167.94063Q69.0625 167.94063 68.34375 167.05Q67.5 165.9875 67.5 163.56563ZM68.578125 163.56563Q68.578125 165.675 69.078125 166.37813Q69.578125 167.08125 70.296875 167.08125Q71.03125 167.08125 71.515625 166.37813Q72.015625 165.675 72.015625 163.56563Q72.015625 161.44063 71.515625 160.75313Q71.03125 160.05 70.28125 160.05Q69.5625 160.05 69.125 160.65938Q68.578125 161.44063 68.578125 163.56563Z" fill-rule="nonzero"/><path fill="#000000" d="M62.125 130.54375Q61.46875 130.29375 61.140625 129.85625Q60.828125 129.40312 60.828125 128.79375Q60.828125 127.85625 61.5 127.21562Q62.1875 126.575 63.296875 126.575Q64.421875 126.575 65.109375 127.23125Q65.796875 127.8875 65.796875 128.825Q65.796875 129.41875 65.484375 129.85625Q65.171875 130.29375 64.53125 130.54375Q65.328125 130.79375 65.734375 131.37187Q66.140625 131.95 66.140625 132.74687Q66.140625 133.84062 65.359375 134.59062Q64.59375 135.34062 63.3125 135.34062Q62.046875 135.34062 61.265625 134.59062Q60.484375 133.84062 60.484375 132.71562Q60.484375 131.87187 60.90625 131.30937Q61.34375 130.74687 62.125 130.54375ZM61.90625 128.74687Q61.90625 129.35625 62.296875 129.74687Q62.703125 130.1375 63.328125 130.1375Q63.9375 130.1375 64.328125 129.7625Q64.71875 129.37187 64.71875 128.80937Q64.71875 128.23125 64.3125 127.84062Q63.90625 127.43437 63.3125 127.43437Q62.703125 127.43437 62.296875 127.825Q61.90625 128.21562 61.90625 128.74687ZM61.578125 132.71562Q61.578125 133.16875 61.78125 133.59062Q62.0 134.0125 62.421875 134.24687Q62.84375 134.48125 63.328125 134.48125Q64.078125 134.48125 64.5625 133.99687Q65.0625 133.5125 65.0625 132.7625Q65.0625 131.99687 64.5625 131.49687Q64.0625 130.99687 63.296875 130.99687Q62.546875 130.99687 62.0625 131.49687Q61.578125 131.98125 61.578125 132.71562ZM67.5 130.96562Q67.5 129.43437 67.8125 128.5125Q68.125 127.575 68.734375 127.075Q69.359375 126.575 70.296875 126.575Q70.984375 126.575 71.5 126.85625Q72.03125 127.1375 72.375 127.66875Q72.71875 128.18437 72.90625 128.93437Q73.09375 129.68437 73.09375 130.96562Q73.09375 132.48125 72.78125 133.40312Q72.484375 134.325 71.859375 134.84062Q71.25 135.34062 70.296875 135.34062Q69.0625 135.34062 68.34375 134.45Q67.5 133.3875 67.5 130.96562ZM68.578125 130.96562Q68.578125 133.075 69.078125 133.77812Q69.578125 134.48125 70.296875 134.48125Q71.03125 134.48125 71.515625 133.77812Q72.015625 133.075 72.015625 130.96562Q72.015625 128.84062 71.515625 128.15312Q71.03125 127.45 70.28125 127.45Q69.5625 127.45 69.125 128.05937Q68.578125 128.84062 68.578125 130.96562Z" fill-rule="nonzero"/><path fill="#000000" d="M60.65625 100.61562L61.671875 100.52187Q61.796875 101.24062 62.15625 101.56875Q62.53125 101.88125 63.09375 101.88125Q63.578125 101.88125 63.9375 101.6625Q64.3125 101.42812 64.546875 101.06875Q64.78125 100.69375 64.9375 100.06875Q65.09375 99.42812 65.09375 98.77187Q65.09375 98.69375 65.09375 98.55312Q64.78125 99.05312 64.234375 99.38125Q63.6875 99.69375 63.046875 99.69375Q61.96875 99.69375 61.234375 98.92812Q60.5 98.14687 60.5 96.88125Q60.5 95.56875 61.265625 94.77187Q62.046875 93.975 63.203125 93.975Q64.03125 93.975 64.71875 94.42812Q65.421875 94.88125 65.78125 95.725Q66.140625 96.55312 66.140625 98.13125Q66.140625 99.77187 65.78125 100.75625Q65.4375 101.725 64.71875 102.24062Q64.015625 102.74062 63.078125 102.74062Q62.0625 102.74062 61.421875 102.19375Q60.78125 101.63125 60.65625 100.61562ZM64.96875 96.81875Q64.96875 95.9125 64.484375 95.38125Q64.015625 94.85 63.328125 94.85Q62.625 94.85 62.09375 95.42812Q61.578125 95.99062 61.578125 96.9125Q61.578125 97.725 62.078125 98.24062Q62.578125 98.75625 63.296875 98.75625Q64.03125 98.75625 64.5 98.24062Q64.96875 97.725 64.96875 96.81875ZM67.5 98.36562Q67.5 96.83437 67.8125 95.9125Q68.125 94.975 68.734375 94.475Q69.359375 93.975 70.296875 93.975Q70.984375 93.975 71.5 94.25625Q72.03125 94.5375 72.375 95.06875Q72.71875 95.58437 72.90625 96.33437Q73.09375 97.08437 73.09375 98.36562Q73.09375 99.88125 72.78125 100.80312Q72.484375 101.725 71.859375 102.24062Q71.25 102.74062 70.296875 102.74062Q69.0625 102.74062 68.34375 101.85Q67.5 100.7875 67.5 98.36562ZM68.578125 98.36562Q68.578125 100.475 69.078125 101.17812Q69.578125 101.88125 70.296875 101.88125Q71.03125 101.88125 71.515625 101.17812Q72.015625 100.475 72.015625 98.36562Q72.015625 96.24062 71.515625 95.55312Q71.03125 94.85 70.28125 94.85Q69.5625 94.85 69.125 95.45937Q68.578125 96.24062 68.578125 98.36562Z" fill-rule="nonzero"/><path fill="#000000" d="M57.46875 70.0L56.421875 70.0L56.421875 63.28125Q56.03125 63.640625 55.40625 64.015625Q54.796875 64.375 54.3125 64.546875L54.3125 63.53125Q55.1875 63.109375 55.84375 62.53125Q56.515625 61.9375 56.796875 61.375L57.46875 61.375L57.46875 70.0ZM60.5 65.765625Q60.5 64.234375 60.8125 63.3125Q61.125 62.375 61.734375 61.875Q62.359375 61.375 63.296875 61.375Q63.984375 61.375 64.5 61.65625Q65.03125 61.9375 65.375 62.46875Q65.71875 62.984375 65.90625 63.734375Q66.09375 64.484375 66.09375 65.765625Q66.09375 67.28125 65.78125 68.203125Q65.484375 69.125 64.859375 69.640625Q64.25 70.140625 63.296875 70.140625Q62.0625 70.140625 61.34375 69.25Q60.5 68.1875 60.5 65.765625ZM61.578125 65.765625Q61.578125 67.875 62.078125 68.578125Q62.578125 69.28125 63.296875 69.28125Q64.03125 69.28125 64.515625 68.578125Q65.015625 67.875 65.015625 65.765625Q65.015625 63.640625 64.515625 62.953125Q64.03125 62.25 63.28125 62.25Q62.5625 62.25 62.125 62.859375Q61.578125 63.640625 61.578125 65.765625ZM67.5 65.765625Q67.5 64.234375 67.8125 63.3125Q68.125 62.375 68.734375 61.875Q69.359375 61.375 70.296875 61.375Q70.984375 61.375 71.5 61.65625Q72.03125 61.9375 72.375 62.46875Q72.71875 62.984375 72.90625 63.734375Q73.09375 64.484375 73.09375 65.765625Q73.09375 67.28125 72.78125 68.203125Q72.484375 69.125 71.859375 69.640625Q71.25 70.140625 70.296875 70.140625Q69.0625 70.140625 68.34375 69.25Q67.5 68.1875 67.5 65.765625ZM68.578125 65.765625Q68.578125 67.875 69.078125 68.578125Q69.578125 69.28125 70.296875 69.28125Q71.03125 69.28125 71.515625 68.578125Q72.015625 67.875 72.015625 65.765625Q72.015625 63.640625 71.515625 62.953125Q71.03125 62.25 70.28125 62.25Q69.5625 62.25 69.125 62.859375Q68.578125 63.640625 68.578125 65.765625Z" fill-rule="nonzero"/><path fill="#757575" d="M22.46875 40.0L22.46875 25.6875L24.359375 25.6875L24.359375 32.78125L31.46875 25.6875L34.03125 25.6875L28.03125 31.484375L34.296875 40.0L31.796875 40.0L26.703125 32.75L24.359375 35.03125L24.359375 40.0L22.46875 40.0ZM34.671875 34.8125Q34.671875 31.9375 36.265625 30.546875Q37.609375 29.390625 39.53125 29.390625Q41.671875 29.390625 43.015625 30.796875Q44.375 32.203125 44.375 34.671875Q44.375 36.671875 43.78125 37.828125Q43.1875 38.96875 42.03125 39.609375Q40.890625 40.234375 39.53125 40.234375Q37.34375 40.234375 36.0 38.84375Q34.671875 37.4375 34.671875 34.8125ZM36.46875 34.8125Q36.46875 36.8125 37.328125 37.796875Q38.203125 38.78125 39.53125 38.78125Q40.84375 38.78125 41.703125 37.796875Q42.578125 36.796875 42.578125 34.75Q42.578125 32.828125 41.703125 31.84375Q40.828125 30.84375 39.53125 30.84375Q38.203125 30.84375 37.328125 31.84375Q36.46875 32.828125 36.46875 34.8125ZM46.3125 40.0L46.3125 25.6875L48.078125 25.6875L48.078125 30.8125Q49.3125 29.390625 51.1875 29.390625Q52.328125 29.390625 53.171875 29.84375Q54.03125 30.296875 54.390625 31.109375Q54.765625 31.90625 54.765625 33.421875L54.765625 40.0L53.015625 40.0L53.015625 33.421875Q53.015625 32.109375 52.4375 31.515625Q51.859375 30.90625 50.828125 30.90625Q50.046875 30.90625 49.34375 31.3125Q48.65625 31.71875 48.359375 32.421875Q48.078125 33.109375 48.078125 34.328125L48.078125 40.0L46.3125 40.0ZM55.640625 35.703125L55.640625 33.9375L61.03125 33.9375L61.03125 35.703125L55.640625 35.703125ZM63.46875 40.0L63.46875 25.6875L65.359375 25.6875L65.359375 38.3125L72.40625 38.3125L72.40625 40.0L63.46875 40.0ZM81.09375 38.71875Q80.109375 39.546875 79.203125 39.890625Q78.296875 40.234375 77.265625 40.234375Q75.5625 40.234375 74.640625 39.40625Q73.71875 38.5625 73.71875 37.265625Q73.71875 36.5 74.0625 35.875Q74.421875 35.25 74.984375 34.875Q75.546875 34.484375 76.25 34.28125Q76.765625 34.15625 77.8125 34.015625Q79.9375 33.765625 80.9375 33.421875Q80.953125 33.0625 80.953125 32.953125Q80.953125 31.890625 80.453125 31.4375Q79.78125 30.84375 78.453125 30.84375Q77.203125 30.84375 76.609375 31.28125Q76.03125 31.71875 75.75 32.828125L74.03125 32.59375Q74.265625 31.484375 74.796875 30.8125Q75.328125 30.125 76.34375 29.765625Q77.359375 29.390625 78.703125 29.390625Q80.03125 29.390625 80.859375 29.703125Q81.6875 30.015625 82.078125 30.5Q82.46875 30.96875 82.625 31.6875Q82.71875 32.140625 82.71875 33.3125L82.71875 35.65625Q82.71875 38.109375 82.828125 38.765625Q82.9375 39.40625 83.28125 40.0L81.4375 40.0Q81.171875 39.453125 81.09375 38.71875ZM80.9375 34.796875Q79.984375 35.1875 78.0625 35.453125Q76.984375 35.609375 76.53125 35.8125Q76.09375 36.0 75.84375 36.375Q75.59375 36.75 75.59375 37.21875Q75.59375 37.921875 76.125 38.390625Q76.65625 38.859375 77.6875 38.859375Q78.703125 38.859375 79.484375 38.421875Q80.28125 37.96875 80.65625 37.203125Q80.9375 36.59375 80.9375 35.4375L80.9375 34.796875ZM85.3125 40.0L85.3125 29.625L86.90625 29.625L86.90625 31.109375Q88.046875 29.390625 90.203125 29.390625Q91.140625 29.390625 91.921875 29.734375Q92.71875 30.0625 93.109375 30.609375Q93.5 31.15625 93.65625 31.90625Q93.75 32.40625 93.75 33.625L93.75 40.0L91.984375 40.0L91.984375 33.6875Q91.984375 32.609375 91.78125 32.078125Q91.578125 31.546875 91.046875 31.234375Q90.53125 30.921875 89.828125 30.921875Q88.703125 30.921875 87.890625 31.640625Q87.078125 32.34375 87.078125 34.328125L87.078125 40.0L85.3125 40.0ZM99.15625 38.421875L99.40625 39.984375Q98.671875 40.140625 98.078125 40.140625Q97.125 40.140625 96.59375 39.84375Q96.078125 39.53125 95.859375 39.046875Q95.640625 38.546875 95.640625 36.96875L95.640625 31.0L94.359375 31.0L94.359375 29.625L95.640625 29.625L95.640625 27.0625L97.390625 26.0L97.390625 29.625L99.15625 29.625L99.15625 31.0L97.390625 31.0L97.390625 37.0625Q97.390625 37.8125 97.484375 38.03125Q97.578125 38.234375 97.78125 38.375Q98.0 38.5 98.390625 38.5Q98.671875 38.5 99.15625 38.421875ZM108.09375 38.71875Q107.109375 39.546875 106.203125 39.890625Q105.296875 40.234375 104.265625 40.234375Q102.5625 40.234375 101.640625 39.40625Q100.71875 38.5625 100.71875 37.265625Q100.71875 36.5 101.0625 35.875Q101.421875 35.25 101.984375 34.875Q102.546875 34.484375 103.25 34.28125Q103.765625 34.15625 104.8125 34.015625Q106.9375 33.765625 107.9375 33.421875Q107.953125 33.0625 107.953125 32.953125Q107.953125 31.890625 107.453125 31.4375Q106.78125 30.84375 105.453125 30.84375Q104.203125 30.84375 103.609375 31.28125Q103.03125 31.71875 102.75 32.828125L101.03125 32.59375Q101.265625 31.484375 101.796875 30.8125Q102.328125 30.125 103.34375 29.765625Q104.359375 29.390625 105.703125 29.390625Q107.03125 29.390625 107.859375 29.703125Q108.6875 30.015625 109.078125 30.5Q109.46875 30.96875 109.625 31.6875Q109.71875 32.140625 109.71875 33.3125L109.71875 35.65625Q109.71875 38.109375 109.828125 38.765625Q109.9375 39.40625 110.28125 40.0L108.4375 40.0Q108.171875 39.453125 108.09375 38.71875ZM107.9375 34.796875Q106.984375 35.1875 105.0625 35.453125Q103.984375 35.609375 103.53125 35.8125Q103.09375 36.0 102.84375 36.375Q102.59375 36.75 102.59375 37.21875Q102.59375 37.921875 103.125 38.390625Q103.65625 38.859375 104.6875 38.859375Q105.703125 38.859375 106.484375 38.421875Q107.28125 37.96875 107.65625 37.203125Q107.9375 36.59375 107.9375 35.4375L107.9375 34.796875Z" fill-rule="nonzero"/></svg>