<svg version="1.1" viewBox="0.0 0.0 600.0 371.0" fill="none" stroke="none" stroke-linecap="square" stroke-miterlimit="10" width="600" height="371" xmlns:xlink="http://www.w3.org/1999/xlink" xmlns="http://www.w3.org/2000/svg"><path fill="#ffffff" d="M0 0L600.0 0L600.0 371.0L0 371.0L0 0Z" fill-rule="nonzero"/><path stroke="#333333" stroke-width="1.0" stroke-linecap="butt" d="M77.5 345.5L581.5 345.5" fill-rule="nonzero"/><path stroke="#cccccc" stroke-width="1.0" stroke-linecap="butt" d="M77.5 317.5L581.5 317.5" fill-rule="nonzero"/><path stroke="#cccccc" stroke-width="1.0" stroke-linecap="butt" d="M77.5 288.5L581.5 288.5" fill-rule="nonzero"/><path stroke="#cccccc" stroke-width="1.0" stroke-linecap="butt" d="M77.5 260.5L581.5 260.5" fill-rule="nonzero"/><path stroke="#cccccc" stroke-width="1.0" stroke-linecap="butt" d="M77.5 232.5L581.5 232.5" fill-rule="nonzero"/><path stroke="#cccccc" stroke-width="1.0" stroke-linecap="butt" d="M77.5 203.5L581.5 203.5" fill-rule="nonzero"/><path stroke="#cccccc" stroke-width="1.0" stroke-linecap="butt" d="M77.5 175.5L581.5 175.5" fill-rule="nonzero"/><path stroke="#cccccc" stroke-width="1.0" stroke-linecap="butt" d="M77.5 146.5L581.5 146.5" fill-rule="nonzero"/><path stroke="#cccccc" stroke-width="1.0" stroke-linecap="butt" d="M77.5 118.5L581.5 118.5" fill-rule="nonzero"/><path stroke="#cccccc" stroke-width="1.0" stroke-linecap="butt" d="M77.5 90.5L581.5 90.5" fill-rule="nonzero"/><path stroke="#cccccc" stroke-width="1.0" stroke-linecap="butt" d="M77.5 61.5L581.5 61.5" fill-rule="nonzero"/><clipPath id="id_0"><path d="M77.55 61.916668L581.45 61.916668L581.45 345.45L77.55 345.45L77.55 61.916668Z" clip-rule="nonzero"/></clipPath><path stroke="#434343" stroke-width="2.0" stroke-linecap="butt" clip-path="url(#id_0)" d="M82.91064 61.916668L93.63191 61.916668L104.353195 61.916668L115.07447 61.916668L125.795746 61.916668L136.51703 61.916668L147.2383 61.916668L157.95958 61.916668L168.68085 61.916668L179.40213 104.44666L190.1234 104.44666L200.84468 104.44666L211.56596 104.44666L222.28723 175.33L233.00851 175.33L243.72978 175.33L254.45107 175.33L265.17233 175.33L275.89362 175.33L286.6149 175.33L297.33618 175.33L308.05743 175.33L318.77872 217.86L329.5 217.86L340.22128 260.39L350.94257 260.39L361.66382 260.39L372.3851 260.39L383.10638 260.39L393.82767 260.39L404.54895 260.39L415.2702 260.39L425.9915 260.39L436.71277 260.39L447.43405 260.39L458.1553 260.39L468.8766 260.39L479.59787 260.39L490.31915 260.39L501.04044 260.39L511.7617 302.92L522.483 302.92L533.2043 345.45L543.92554 345.45L554.6468 345.45L565.3681 345.45L576.08936 345.45" fill-rule="nonzero"/><path fill="#434343" clip-path="url(#id_0)" d="M88.91064 61.916668C88.91064 65.23038 86.22435 67.916664 82.91064 67.916664C79.59693 67.916664 76.91064 65.23038 76.91064 61.916668C76.91064 58.60296 79.59693 55.916668 82.91064 55.916668C86.22435 55.916668 88.91064 58.60296 88.91064 61.916668Z" fill-rule="nonzero"/><path fill="#434343" clip-path="url(#id_0)" d="M99.63191 61.916668C99.63191 65.23038 96.945625 67.916664 93.63191 67.916664C90.31821 67.916664 87.63191 65.23038 87.63191 61.916668C87.63191 58.60296 90.31821 55.916668 93.63191 55.916668C96.945625 55.916668 99.63191 58.60296 99.63191 61.916668Z" fill-rule="nonzero"/><path fill="#434343" clip-path="url(#id_0)" d="M110.353195 61.916668C110.353195 65.23038 107.6669 67.916664 104.353195 67.916664C101.03948 67.916664 98.353195 65.23038 98.353195 61.916668C98.353195 58.60296 101.03948 55.916668 104.353195 55.916668C107.6669 55.916668 110.353195 58.60296 110.353195 61.916668Z" fill-rule="nonzero"/><path fill="#434343" clip-path="url(#id_0)" d="M121.07447 61.916668C121.07447 65.23038 118.388176 67.916664 115.07447 67.916664C111.76076 67.916664 109.07447 65.23038 109.07447 61.916668C109.07447 58.60296 111.76076 55.916668 115.07447 55.916668C118.388176 55.916668 121.07447 58.60296 121.07447 61.916668Z" fill-rule="nonzero"/><path fill="#434343" clip-path="url(#id_0)" d="M131.79575 61.916668C131.79575 65.23038 129.10945 67.916664 125.795746 67.916664C122.48203 67.916664 119.795746 65.23038 119.795746 61.916668C119.795746 58.60296 122.48203 55.916668 125.795746 55.916668C129.10945 55.916668 131.79575 58.60296 131.79575 61.916668Z" fill-rule="nonzero"/><path fill="#434343" clip-path="url(#id_0)" d="M142.51703 61.916668C142.51703 65.23038 139.83073 67.916664 136.51703 67.916664C133.20331 67.916664 130.51703 65.23038 130.51703 61.916668C130.51703 58.60296 133.20331 55.916668 136.51703 55.916668C139.83073 55.916668 142.51703 58.60296 142.51703 61.916668Z" fill-rule="nonzero"/><path fill="#434343" clip-path="url(#id_0)" d="M153.2383 61.916668C153.2383 65.23038 150.552 67.916664 147.2383 67.916664C143.92459 67.916664 141.2383 65.23038 141.2383 61.916668C141.2383 58.60296 143.92459 55.916668 147.2383 55.916668C150.552 55.916668 153.2383 58.60296 153.2383 61.916668Z" fill-rule="nonzero"/><path fill="#434343" clip-path="url(#id_0)" d="M163.95958 61.916668C163.95958 65.23038 161.27328 67.916664 157.95958 67.916664C154.64586 67.916664 151.95958 65.23038 151.95958 61.916668C151.95958 58.60296 154.64586 55.916668 157.95958 55.916668C161.27328 55.916668 163.95958 58.60296 163.95958 61.916668Z" fill-rule="nonzero"/><path fill="#434343" clip-path="url(#id_0)" d="M174.68085 61.916668C174.68085 65.23038 171.99455 67.916664 168.68085 67.916664C165.36714 67.916664 162.68085 65.23038 162.68085 61.916668C162.68085 58.60296 165.36714 55.916668 168.68085 55.916668C171.99455 55.916668 174.68085 58.60296 174.68085 61.916668Z" fill-rule="nonzero"/><path fill="#434343" clip-path="url(#id_0)" d="M185.40213 104.44666C185.40213 107.760376 182.71584 110.44666 179.40213 110.44666C176.08842 110.44666 173.40213 107.760376 173.40213 104.44666C173.40213 101.13296 176.08842 98.44666 179.40213 98.44666C182.71584 98.44666 185.40213 101.13296 185.40213 104.44666Z" fill-rule="nonzero"/><path fill="#434343" clip-path="url(#id_0)" d="M196.1234 104.44666C196.1234 107.760376 193.43712 110.44666 190.1234 110.44666C186.8097 110.44666 184.1234 107.760376 184.1234 104.44666C184.1234 101.13296 186.8097 98.44666 190.1234 98.44666C193.43712 98.44666 196.1234 101.13296 196.1234 104.44666Z" fill-rule="nonzero"/><path fill="#434343" clip-path="url(#id_0)" d="M206.84468 104.44666C206.84468 107.760376 204.15839 110.44666 200.84468 110.44666C197.53098 110.44666 194.84468 107.760376 194.84468 104.44666C194.84468 101.13296 197.53098 98.44666 200.84468 98.44666C204.15839 98.44666 206.84468 101.13296 206.84468 104.44666Z" fill-rule="nonzero"/><path fill="#434343" clip-path="url(#id_0)" d="M217.56596 104.44666C217.56596 107.760376 214.87967 110.44666 211.56596 110.44666C208.25224 110.44666 205.56596 107.760376 205.56596 104.44666C205.56596 101.13296 208.25224 98.44666 211.56596 98.44666C214.87967 98.44666 217.56596 101.13296 217.56596 104.44666Z" fill-rule="nonzero"/><path fill="#434343" clip-path="url(#id_0)" d="M228.28723 175.33C228.28723 178.6437 225.60094 181.33 222.28723 181.33C218.97353 181.33 216.28723 178.6437 216.28723 175.33C216.28723 172.0163 218.97353 169.33 222.28723 169.33C225.60094 169.33 228.28723 172.0163 228.28723 175.33Z" fill-rule="nonzero"/><path fill="#434343" clip-path="url(#id_0)" d="M239.00851 175.33C239.00851 178.6437 236.32222 181.33 233.00851 181.33C229.69481 181.33 227.00851 178.6437 227.00851 175.33C227.00851 172.0163 229.69481 169.33 233.00851 169.33C236.32222 169.33 239.00851 172.0163 239.00851 175.33Z" fill-rule="nonzero"/><path fill="#434343" clip-path="url(#id_0)" d="M249.72978 175.33C249.72978 178.6437 247.0435 181.33 243.72978 181.33C240.41608 181.33 237.72978 178.6437 237.72978 175.33C237.72978 172.0163 240.41608 169.33 243.72978 169.33C247.0435 169.33 249.72978 172.0163 249.72978 175.33Z" fill-rule="nonzero"/><path fill="#434343" clip-path="url(#id_0)" d="M260.45105 175.33C260.45105 178.6437 257.76477 181.33 254.45107 181.33C251.13736 181.33 248.45107 178.6437 248.45107 175.33C248.45107 172.0163 251.13736 169.33 254.45107 169.33C257.76477 169.33 260.45105 172.0163 260.45105 175.33Z" fill-rule="nonzero"/><path fill="#434343" clip-path="url(#id_0)" d="M271.17233 175.33C271.17233 178.6437 268.48605 181.33 265.17233 181.33C261.85864 181.33 259.17233 178.6437 259.17233 175.33C259.17233 172.0163 261.85864 169.33 265.17233 169.33C268.48605 169.33 271.17233 172.0163 271.17233 175.33Z" fill-rule="nonzero"/><path fill="#434343" clip-path="url(#id_0)" d="M281.89362 175.33C281.89362 178.6437 279.20734 181.33 275.89362 181.33C272.5799 181.33 269.89362 178.6437 269.89362 175.33C269.89362 172.0163 272.5799 169.33 275.89362 169.33C279.20734 169.33 281.89362 172.0163 281.89362 175.33Z" fill-rule="nonzero"/><path fill="#434343" clip-path="url(#id_0)" d="M292.6149 175.33C292.6149 178.6437 289.9286 181.33 286.6149 181.33C283.30118 181.33 280.6149 178.6437 280.6149 175.33C280.6149 172.0163 283.30118 169.33 286.6149 169.33C289.9286 169.33 292.6149 172.0163 292.6149 175.33Z" fill-rule="nonzero"/><path fill="#434343" clip-path="url(#id_0)" d="M303.33618 175.33C303.33618 178.6437 300.64987 181.33 297.33618 181.33C294.02246 181.33 291.33618 178.6437 291.33618 175.33C291.33618 172.0163 294.02246 169.33 297.33618 169.33C300.64987 169.33 303.33618 172.0163 303.33618 175.33Z" fill-rule="nonzero"/><path fill="#434343" clip-path="url(#id_0)" d="M314.05743 175.33C314.05743 178.6437 311.37115 181.33 308.05743 181.33C304.74374 181.33 302.05743 178.6437 302.05743 175.33C302.05743 172.0163 304.74374 169.33 308.05743 169.33C311.37115 169.33 314.05743 172.0163 314.05743 175.33Z" fill-rule="nonzero"/><path fill="#434343" clip-path="url(#id_0)" d="M324.77872 217.86C324.77872 221.1737 322.09244 223.86 318.77872 223.86C315.46503 223.86 312.77872 221.1737 312.77872 217.86C312.77872 214.5463 315.46503 211.86 318.77872 211.86C322.09244 211.86 324.77872 214.5463 324.77872 217.86Z" fill-rule="nonzero"/><path fill="#434343" clip-path="url(#id_0)" d="M335.5 217.86C335.5 221.1737 332.81372 223.86 329.5 223.86C326.18628 223.86 323.5 221.1737 323.5 217.86C323.5 214.5463 326.18628 211.86 329.5 211.86C332.81372 211.86 335.5 214.5463 335.5 217.86Z" fill-rule="nonzero"/><path fill="#434343" clip-path="url(#id_0)" d="M346.22128 260.39C346.22128 263.7037 343.53497 266.39 340.22128 266.39C336.90756 266.39 334.22128 263.7037 334.22128 260.39C334.22128 257.0763 336.90756 254.39 340.22128 254.39C343.53497 254.39 346.22128 257.0763 346.22128 260.39Z" fill-rule="nonzero"/><path fill="#434343" clip-path="url(#id_0)" d="M356.94257 260.39C356.94257 263.7037 354.25626 266.39 350.94257 266.39C347.62885 266.39 344.94257 263.7037 344.94257 260.39C344.94257 257.0763 347.62885 254.39 350.94257 254.39C354.25626 254.39 356.94257 257.0763 356.94257 260.39Z" fill-rule="nonzero"/><path fill="#434343" clip-path="url(#id_0)" d="M367.66382 260.39C367.66382 263.7037 364.97754 266.39 361.66382 266.39C358.35013 266.39 355.66382 263.7037 355.66382 260.39C355.66382 257.0763 358.35013 254.39 361.66382 254.39C364.97754 254.39 367.66382 257.0763 367.66382 260.39Z" fill-rule="nonzero"/><path fill="#434343" clip-path="url(#id_0)" d="M378.3851 260.39C378.3851 263.7037 375.69882 266.39 372.3851 266.39C369.0714 266.39 366.3851 263.7037 366.3851 260.39C366.3851 257.0763 369.0714 254.39 372.3851 254.39C375.69882 254.39 378.3851 257.0763 378.3851 260.39Z" fill-rule="nonzero"/><path fill="#434343" clip-path="url(#id_0)" d="M389.10638 260.39C389.10638 263.7037 386.4201 266.39 383.10638 266.39C379.79266 266.39 377.10638 263.7037 377.10638 260.39C377.10638 257.0763 379.79266 254.39 383.10638 254.39C386.4201 254.39 389.10638 257.0763 389.10638 260.39Z" fill-rule="nonzero"/><path fill="#434343" clip-path="url(#id_0)" d="M399.82767 260.39C399.82767 263.7037 397.14136 266.39 393.82767 266.39C390.51395 266.39 387.82767 263.7037 387.82767 260.39C387.82767 257.0763 390.51395 254.39 393.82767 254.39C397.14136 254.39 399.82767 257.0763 399.82767 260.39Z" fill-rule="nonzero"/><path fill="#434343" clip-path="url(#id_0)" d="M410.54895 260.39C410.54895 263.7037 407.86264 266.39 404.54895 266.39C401.23523 266.39 398.54895 263.7037 398.54895 260.39C398.54895 257.0763 401.23523 254.39 404.54895 254.39C407.86264 254.39 410.54895 257.0763 410.54895 260.39Z" fill-rule="nonzero"/><path fill="#434343" clip-path="url(#id_0)" d="M421.2702 260.39C421.2702 263.7037 418.58392 266.39 415.2702 266.39C411.9565 266.39 409.2702 263.7037 409.2702 260.39C409.2702 257.0763 411.9565 254.39 415.2702 254.39C418.58392 254.39 421.2702 257.0763 421.2702 260.39Z" fill-rule="nonzero"/><path fill="#434343" clip-path="url(#id_0)" d="M431.9915 260.39C431.9915 263.7037 429.3052 266.39 425.9915 266.39C422.6778 266.39 419.9915 263.7037 419.9915 260.39C419.9915 257.0763 422.6778 254.39 425.9915 254.39C429.3052 254.39 431.9915 257.0763 431.9915 260.39Z" fill-rule="nonzero"/><path fill="#434343" clip-path="url(#id_0)" d="M442.71277 260.39C442.71277 263.7037 440.0265 266.39 436.71277 266.39C433.39905 266.39 430.71277 263.7037 430.71277 260.39C430.71277 257.0763 433.39905 254.39 436.71277 254.39C440.0265 254.39 442.71277 257.0763 442.71277 260.39Z" fill-rule="nonzero"/><path fill="#434343" clip-path="url(#id_0)" d="M453.43405 260.39C453.43405 263.7037 450.74774 266.39 447.43405 266.39C444.12033 266.39 441.43405 263.7037 441.43405 260.39C441.43405 257.0763 444.12033 254.39 447.43405 254.39C450.74774 254.39 453.43405 257.0763 453.43405 260.39Z" fill-rule="nonzero"/><path fill="#434343" clip-path="url(#id_0)" d="M464.1553 260.39C464.1553 263.7037 461.46902 266.39 458.1553 266.39C454.8416 266.39 452.1553 263.7037 452.1553 260.39C452.1553 257.0763 454.8416 254.39 458.1553 254.39C461.46902 254.39 464.1553 257.0763 464.1553 260.39Z" fill-rule="nonzero"/><path fill="#434343" clip-path="url(#id_0)" d="M474.8766 260.39C474.8766 263.7037 472.1903 266.39 468.8766 266.39C465.5629 266.39 462.8766 263.7037 462.8766 260.39C462.8766 257.0763 465.5629 254.39 468.8766 254.39C472.1903 254.39 474.8766 257.0763 474.8766 260.39Z" fill-rule="nonzero"/><path fill="#434343" clip-path="url(#id_0)" d="M485.59787 260.39C485.59787 263.7037 482.9116 266.39 479.59787 266.39C476.28415 266.39 473.59787 263.7037 473.59787 260.39C473.59787 257.0763 476.28415 254.39 479.59787 254.39C482.9116 254.39 485.59787 257.0763 485.59787 260.39Z" fill-rule="nonzero"/><path fill="#434343" clip-path="url(#id_0)" d="M496.31915 260.39C496.31915 263.7037 493.63284 266.39 490.31915 266.39C487.00543 266.39 484.31915 263.7037 484.31915 260.39C484.31915 257.0763 487.00543 254.39 490.31915 254.39C493.63284 254.39 496.31915 257.0763 496.31915 260.39Z" fill-rule="nonzero"/><path fill="#434343" clip-path="url(#id_0)" d="M507.04044 260.39C507.04044 263.7037 504.35413 266.39 501.04044 266.39C497.7267 266.39 495.04044 263.7037 495.04044 260.39C495.04044 257.0763 497.7267 254.39 501.04044 254.39C504.35413 254.39 507.04044 257.0763 507.04044 260.39Z" fill-rule="nonzero"/><path fill="#434343" clip-path="url(#id_0)" d="M517.7617 302.92C517.7617 306.2337 515.07544 308.92 511.7617 308.92C508.448 308.92 505.7617 306.2337 505.7617 302.92C505.7617 299.6063 508.448 296.92 511.7617 296.92C515.07544 296.92 517.7617 299.6063 517.7617 302.92Z" fill-rule="nonzero"/><path fill="#434343" clip-path="url(#id_0)" d="M528.483 302.92C528.483 306.2337 525.7967 308.92 522.483 308.92C519.16925 308.92 516.483 306.2337 516.483 302.92C516.483 299.6063 519.16925 296.92 522.483 296.92C525.7967 296.92 528.483 299.6063 528.483 302.92Z" fill-rule="nonzero"/><path fill="#434343" clip-path="url(#id_0)" d="M539.2043 345.45C539.2043 348.7637 536.51794 351.45 533.2043 351.45C529.89056 351.45 527.2043 348.7637 527.2043 345.45C527.2043 342.1363 529.89056 339.45 533.2043 339.45C536.51794 339.45 539.2043 342.1363 539.2043 345.45Z" fill-rule="nonzero"/><path fill="#434343" clip-path="url(#id_0)" d="M549.92554 345.45C549.92554 348.7637 547.23926 351.45 543.92554 351.45C540.6118 351.45 537.92554 348.7637 537.92554 345.45C537.92554 342.1363 540.6118 339.45 543.92554 339.45C547.23926 339.45 549.92554 342.1363 549.92554 345.45Z" fill-rule="nonzero"/><path fill="#434343" clip-path="url(#id_0)" d="M560.6468 345.45C560.6468 348.7637 557.9605 351.45 554.6468 351.45C551.3331 351.45 548.6468 348.7637 548.6468 345.45C548.6468 342.1363 551.3331 339.45 554.6468 339.45C557.9605 339.45 560.6468 342.1363 560.6468 345.45Z" fill-rule="nonzero"/><path fill="#434343" clip-path="url(#id_0)" d="M571.3681 345.45C571.3681 348.7637 568.6818 351.45 565.3681 351.45C562.0544 351.45 559.3681 348.7637 559.3681 345.45C559.3681 342.1363 562.0544 339.45 565.3681 339.45C568.6818 339.45 571.3681 342.1363 571.3681 345.45Z" fill-rule="nonzero"/><path fill="#434343" clip-path="url(#id_0)" d="M582.08936 345.45C582.08936 348.7637 579.4031 351.45 576.08936 351.45C572.77563 351.45 570.08936 348.7637 570.08936 345.45C570.08936 342.1363 572.77563 339.45 576.08936 339.45C579.4031 339.45 582.08936 342.1363 582.08936 345.45Z" fill-rule="nonzero"/><path fill="#000000" d="M26.784388 219.13646L26.690638 218.07396Q27.346888 217.99583 27.753138 217.71458Q28.159388 217.43333 28.425013 216.85521Q28.675013 216.26146 28.675013 215.52708Q28.675013 214.88646 28.487513 214.38646Q28.284388 213.88646 27.956263 213.65208Q27.612513 213.40208 27.221888 213.40208Q26.815638 213.40208 26.518763 213.63646Q26.206263 213.87083 26.003138 214.40208Q25.862513 214.76146 25.581263 215.94896Q25.300013 217.12083 25.050013 217.58958Q24.721888 218.21458 24.253138 218.51146Q23.768763 218.80833 23.175013 218.80833Q22.534388 218.80833 21.971888 218.44896Q21.393763 218.07396 21.112513 217.37083Q20.815638 216.65208 20.815638 215.79271Q20.815638 214.83958 21.128138 214.10521Q21.425013 213.37083 22.034388 212.98021Q22.628138 212.58958 23.378138 212.55833L23.456263 213.65208Q22.643763 213.74583 22.237513 214.26146Q21.815638 214.76146 21.815638 215.74583Q21.815638 216.77708 22.190638 217.24583Q22.565638 217.71458 23.096888 217.71458Q23.565638 217.71458 23.862513 217.38646Q24.159388 217.05833 24.471888 215.68333Q24.784388 214.29271 25.018763 213.77708Q25.378138 213.02708 25.909388 212.66771Q26.425013 212.30833 27.128138 212.30833Q27.815638 212.30833 28.425013 212.69896Q29.018763 213.08958 29.362513 213.82396Q29.690638 214.55833 29.690638 215.48021Q29.690638 216.65208 29.362513 217.44896Q29.018763 218.23021 28.331263 218.68333Q27.643763 219.12083 26.784388 219.13646ZM27.268763 206.82396L27.409388 205.79271Q28.471888 205.96458 29.081263 206.66771Q29.690638 207.37083 29.690638 208.38646Q29.690638 209.66771 28.862513 210.44896Q28.018763 211.21458 26.456263 211.21458Q25.456263 211.21458 24.706263 210.88646Q23.940638 210.54271 23.565638 209.87083Q23.190638 209.18333 23.190638 208.37083Q23.190638 207.37083 23.706263 206.73021Q24.206263 206.07396 25.159388 205.88646L25.315638 206.91771Q24.690638 207.05833 24.378138 207.43333Q24.050013 207.80833 24.050013 208.33958Q24.050013 209.13646 24.628138 209.63646Q25.190638 210.13646 26.425013 210.13646Q27.690638 210.13646 28.253138 209.65208Q28.815638 209.16771 28.815638 208.40208Q28.815638 207.77708 28.440638 207.37083Q28.065638 206.94896 27.268763 206.82396ZM26.440638 205.27708Q24.706263 205.27708 23.878138 204.32396Q23.190638 203.52708 23.190638 202.37083Q23.190638 201.08958 24.034388 200.27708Q24.862513 199.44896 26.346888 199.44896Q27.550013 199.44896 28.237513 199.80833Q28.925013 200.16771 29.315638 200.87083Q29.690638 201.55833 29.690638 202.37083Q29.690638 203.66771 28.862513 204.48021Q28.018763 205.27708 26.440638 205.27708ZM26.440638 204.19896Q27.628138 204.19896 28.221888 203.68333Q28.815638 203.15208 28.815638 202.37083Q28.815638 201.57396 28.221888 201.05833Q27.628138 200.54271 26.409388 200.54271Q25.253138 200.54271 24.659388 201.07396Q24.065638 201.58958 24.065638 202.37083Q24.065638 203.15208 24.659388 203.68333Q25.237513 204.19896 26.440638 204.19896ZM29.550013 197.90208L23.331263 197.90208L23.331263 196.94896L24.268763 196.94896Q23.612513 196.58958 23.409388 196.29271Q23.190638 195.98021 23.190638 195.60521Q23.190638 195.07396 23.518763 194.52708L24.503138 194.88646Q24.268763 195.27708 24.268763 195.65208Q24.268763 196.01146 24.487513 196.29271Q24.690638 196.55833 25.065638 196.66771Q25.628138 196.85521 26.284388 196.85521L29.550013 196.85521L29.550013 197.90208ZM27.550013 189.63646L27.675013 188.54271Q28.628138 188.79271 29.159388 189.49583Q29.690638 190.19896 29.690638 191.27708Q29.690638 192.63646 28.846888 193.44896Q28.003138 194.24583 26.487513 194.24583Q24.925013 194.24583 24.065638 193.43333Q23.190638 192.62083 23.190638 191.33958Q23.190638 190.08958 24.034388 189.30833Q24.878138 188.51146 26.425013 188.51146Q26.518763 188.51146 26.706263 188.51146L26.706263 193.15208Q27.737513 193.08958 28.284388 192.57396Q28.815638 192.05833 28.815638 191.27708Q28.815638 190.69896 28.518763 190.29271Q28.206263 189.87083 27.550013 189.63646ZM25.846888 193.08958L25.846888 189.62083Q25.050013 189.68333 24.659388 190.01146Q24.050013 190.52708 24.050013 191.32396Q24.050013 192.05833 24.534388 192.55833Q25.018763 193.04271 25.846888 193.08958Z" fill-rule="nonzero"/><path fill="#000000" d="M65.05 345.21564Q65.05 343.6844 65.3625 342.7625Q65.675 341.825 66.28438 341.325Q66.90938 340.825 67.84688 340.825Q68.53438 340.825 69.05 341.10626Q69.58125 341.3875 69.925 341.91876Q70.26875 342.4344 70.45625 343.1844Q70.64375 343.9344 70.64375 345.21564Q70.64375 346.73126 70.33125 347.65314Q70.03438 348.575 69.40938 349.09064Q68.8 349.59064 67.84688 349.59064Q66.6125 349.59064 65.89375 348.7Q65.05 347.6375 65.05 345.21564ZM66.12813 345.21564Q66.12813 347.325 66.62813 348.02814Q67.12813 348.73126 67.84688 348.73126Q68.58125 348.73126 69.06563 348.02814Q69.56563 347.325 69.56563 345.21564Q69.56563 343.09064 69.06563 342.40314Q68.58125 341.7 67.83125 341.7Q67.1125 341.7 66.675 342.3094Q66.12813 343.09064 66.12813 345.21564Z" fill-rule="nonzero"/><path fill="#000000" d="M62.01875 321.09668L60.971874 321.09668L60.971874 314.37793Q60.58125 314.7373 59.95625 315.1123Q59.346874 315.47168 58.8625 315.64355L58.8625 314.62793Q59.7375 314.20605 60.39375 313.62793Q61.065624 313.03418 61.346874 312.47168L62.01875 312.47168L62.01875 321.09668ZM65.05 316.8623Q65.05 315.33105 65.3625 314.40918Q65.675 313.47168 66.28438 312.97168Q66.90938 312.47168 67.84688 312.47168Q68.53438 312.47168 69.05 312.75293Q69.58125 313.03418 69.925 313.56543Q70.26875 314.08105 70.45625 314.83105Q70.64375 315.58105 70.64375 316.8623Q70.64375 318.37793 70.33125 319.2998Q70.03438 320.22168 69.40938 320.7373Q68.8 321.2373 67.84688 321.2373Q66.6125 321.2373 65.89375 320.34668Q65.05 319.28418 65.05 316.8623ZM66.12813 316.8623Q66.12813 318.97168 66.62813 319.6748Q67.12813 320.37793 67.84688 320.37793Q68.58125 320.37793 69.06563 319.6748Q69.56563 318.97168 69.56563 316.8623Q69.56563 314.7373 69.06563 314.0498Q68.58125 313.34668 67.83125 313.34668Q67.1125 313.34668 66.675 313.95605Q66.12813 314.7373 66.12813 316.8623Z" fill-rule="nonzero"/><path fill="#000000" d="M63.596874 291.72772L63.596874 292.74335L57.909374 292.74335Q57.909374 292.36835 58.034374 292.00897Q58.253124 291.43085 58.721874 290.86835Q59.20625 290.30585 60.1125 289.57147Q61.51875 288.41522 62.003124 287.74335Q62.503124 287.07147 62.503124 286.47772Q62.503124 285.85272 62.05 285.43085Q61.596874 284.99335 60.878124 284.99335Q60.1125 284.99335 59.659374 285.44647Q59.20625 285.8996 59.190624 286.7121L58.1125 286.60272Q58.221874 285.38397 58.940624 284.75897Q59.675 284.11835 60.909374 284.11835Q62.14375 284.11835 62.8625 284.80585Q63.58125 285.49335 63.58125 286.50897Q63.58125 287.0246 63.3625 287.5246Q63.159374 288.00897 62.659374 288.57147Q62.175 289.11835 61.05 290.07147Q60.096874 290.86835 59.815624 291.16522Q59.55 291.44647 59.378124 291.72772L63.596874 291.72772ZM65.05 288.50897Q65.05 286.97772 65.3625 286.05585Q65.675 285.11835 66.28438 284.61835Q66.90938 284.11835 67.84688 284.11835Q68.53438 284.11835 69.05 284.3996Q69.58125 284.68085 69.925 285.2121Q70.26875 285.72772 70.45625 286.47772Q70.64375 287.22772 70.64375 288.50897Q70.64375 290.0246 70.33125 290.94647Q70.03438 291.86835 69.40938 292.38397Q68.8 292.88397 67.84688 292.88397Q66.6125 292.88397 65.89375 291.99335Q65.05 290.93085 65.05 288.50897ZM66.12813 288.50897Q66.12813 290.61835 66.62813 291.32147Q67.12813 292.0246 67.84688 292.0246Q68.58125 292.0246 69.06563 291.32147Q69.56563 290.61835 69.56563 288.50897Q69.56563 286.38397 69.06563 285.69647Q68.58125 284.99335 67.83125 284.99335Q67.1125 284.99335 66.675 285.60272Q66.12813 286.38397 66.12813 288.50897Z" fill-rule="nonzero"/><path fill="#000000" d="M58.05 262.1244L59.1125 261.98376Q59.284374 262.8744 59.721874 263.28064Q60.159374 263.67126 60.784374 263.67126Q61.534374 263.67126 62.05 263.15564Q62.565624 262.64 62.565624 261.8744Q62.565624 261.15564 62.08125 260.6869Q61.6125 260.2025 60.878124 260.2025Q60.58125 260.2025 60.128124 260.3275L60.253124 259.39Q60.3625 259.40564 60.425 259.40564Q61.096874 259.40564 61.628124 259.0619Q62.175 258.7025 62.175 257.96814Q62.175 257.39 61.784374 257.015Q61.39375 256.6244 60.76875 256.6244Q60.159374 256.6244 59.7375 257.015Q59.33125 257.40564 59.221874 258.17126L58.159374 257.98376Q58.346874 256.9369 59.034374 256.35876Q59.721874 255.76501 60.7375 255.76501Q61.440624 255.76501 62.034374 256.0775Q62.628124 256.3744 62.940624 256.89Q63.253124 257.40564 63.253124 257.9994Q63.253124 258.54626 62.95625 259.015Q62.659374 259.46814 62.08125 259.73376Q62.83125 259.90564 63.253124 260.46814Q63.675 261.015 63.675 261.85876Q63.675 262.98376 62.846874 263.765Q62.034374 264.54626 60.784374 264.54626Q59.659374 264.54626 58.909374 263.8744Q58.159374 263.1869 58.05 262.1244ZM65.05 260.15564Q65.05 258.6244 65.3625 257.7025Q65.675 256.765 66.28438 256.265Q66.90938 255.76501 67.84688 255.76501Q68.53438 255.76501 69.05 256.04626Q69.58125 256.3275 69.925 256.85876Q70.26875 257.3744 70.45625 258.1244Q70.64375 258.8744 70.64375 260.15564Q70.64375 261.67126 70.33125 262.59314Q70.03438 263.515 69.40938 264.03064Q68.8 264.53064 67.84688 264.53064Q66.6125 264.53064 65.89375 263.64Q65.05 262.5775 65.05 260.15564ZM66.12813 260.15564Q66.12813 262.265 66.62813 262.96814Q67.12813 263.67126 67.84688 263.67126Q68.58125 263.67126 69.06563 262.96814Q69.56563 262.265 69.56563 260.15564Q69.56563 258.03064 69.06563 257.34314Q68.58125 256.64 67.83125 256.64Q67.1125 256.64 66.675 257.2494Q66.12813 258.03064 66.12813 260.15564Z" fill-rule="nonzero"/><path fill="#000000" d="M61.425 236.03667L61.425 233.97417L57.70625 233.97417L57.70625 233.00542L61.628124 227.44292L62.4875 227.44292L62.4875 233.00542L63.64375 233.00542L63.64375 233.97417L62.4875 233.97417L62.4875 236.03667L61.425 236.03667ZM61.425 233.00542L61.425 229.14604L58.7375 233.00542L61.425 233.00542ZM65.05 231.80229Q65.05 230.27104 65.3625 229.34917Q65.675 228.41167 66.28438 227.91167Q66.90938 227.41167 67.84688 227.41167Q68.53438 227.41167 69.05 227.69292Q69.58125 227.97417 69.925 228.50542Q70.26875 229.02104 70.45625 229.77104Q70.64375 230.52104 70.64375 231.80229Q70.64375 233.31792 70.33125 234.23979Q70.03438 235.16167 69.40938 235.67729Q68.8 236.17729 67.84688 236.17729Q66.6125 236.17729 65.89375 235.28667Q65.05 234.22417 65.05 231.80229ZM66.12813 231.80229Q66.12813 233.91167 66.62813 234.61479Q67.12813 235.31792 67.84688 235.31792Q68.58125 235.31792 69.06563 234.61479Q69.56563 233.91167 69.56563 231.80229Q69.56563 229.67729 69.06563 228.98979Q68.58125 228.28667 67.83125 228.28667Q67.1125 228.28667 66.675 228.89604Q66.12813 229.67729 66.12813 231.80229Z" fill-rule="nonzero"/><path fill="#000000" d="M58.05 205.43333L59.159374 205.33958Q59.284374 206.15208 59.721874 206.55833Q60.175 206.96458 60.815624 206.96458Q61.565624 206.96458 62.096874 206.38646Q62.628124 205.80833 62.628124 204.87083Q62.628124 203.96458 62.1125 203.44896Q61.6125 202.91771 60.784374 202.91771Q60.284374 202.91771 59.8625 203.15208Q59.45625 203.38646 59.221874 203.74583L58.2375 203.62083L59.065624 199.21458L63.346874 199.21458L63.346874 200.21458L59.909374 200.21458L59.45625 202.52708Q60.221874 201.98021 61.065624 201.98021Q62.190624 201.98021 62.95625 202.76146Q63.7375 203.54271 63.7375 204.77708Q63.7375 205.93333 63.065624 206.79271Q62.2375 207.82396 60.815624 207.82396Q59.64375 207.82396 58.89375 207.16771Q58.159374 206.51146 58.05 205.43333ZM65.05 203.44896Q65.05 201.91771 65.3625 200.99583Q65.675 200.05833 66.28438 199.55833Q66.90938 199.05833 67.84688 199.05833Q68.53438 199.05833 69.05 199.33958Q69.58125 199.62083 69.925 200.15208Q70.26875 200.66771 70.45625 201.41771Q70.64375 202.16771 70.64375 203.44896Q70.64375 204.96458 70.33125 205.88646Q70.03438 206.80833 69.40938 207.32396Q68.8 207.82396 67.84688 207.82396Q66.6125 207.82396 65.89375 206.93333Q65.05 205.87083 65.05 203.44896ZM66.12813 203.44896Q66.12813 205.55833 66.62813 206.26146Q67.12813 206.96458 67.84688 206.96458Q68.58125 206.96458 69.06563 206.26146Q69.56563 205.55833 69.56563 203.44896Q69.56563 201.32396 69.06563 200.63646Q68.58125 199.93333 67.83125 199.93333Q67.1125 199.93333 66.675 200.54271Q66.12813 201.32396 66.12813 203.44896Z" fill-rule="nonzero"/><path fill="#000000" d="M63.51875 172.84563L62.471874 172.92375Q62.33125 172.29875 62.08125 172.0175Q61.64375 171.56438 61.01875 171.56438Q60.51875 171.56438 60.128124 171.84563Q59.64375 172.22063 59.346874 172.92375Q59.065624 173.61125 59.05 174.8925Q59.425 174.31438 59.971874 174.03313Q60.534374 173.75188 61.14375 173.75188Q62.190624 173.75188 62.925 174.53313Q63.675 175.31438 63.675 176.53313Q63.675 177.34563 63.315624 178.04875Q62.971874 178.73625 62.3625 179.11125Q61.753124 179.47063 60.9875 179.47063Q59.659374 179.47063 58.83125 178.50188Q58.003124 177.53313 58.003124 175.31438Q58.003124 172.81438 58.925 171.68938Q59.721874 170.705 61.08125 170.705Q62.096874 170.705 62.7375 171.28313Q63.39375 171.84563 63.51875 172.84563ZM59.221874 176.54875Q59.221874 177.09563 59.440624 177.59563Q59.675 178.08 60.08125 178.34563Q60.503124 178.61125 60.971874 178.61125Q61.628124 178.61125 62.1125 178.08Q62.596874 177.53313 62.596874 176.61125Q62.596874 175.72063 62.1125 175.205Q61.64375 174.68938 60.925 174.68938Q60.20625 174.68938 59.70625 175.205Q59.221874 175.72063 59.221874 176.54875ZM65.05 175.09563Q65.05 173.56438 65.3625 172.6425Q65.675 171.705 66.28438 171.205Q66.90938 170.705 67.84688 170.705Q68.53438 170.705 69.05 170.98625Q69.58125 171.2675 69.925 171.79875Q70.26875 172.31438 70.45625 173.06438Q70.64375 173.81438 70.64375 175.09563Q70.64375 176.61125 70.33125 177.53313Q70.03438 178.455 69.40938 178.97063Q68.8 179.47063 67.84688 179.47063Q66.6125 179.47063 65.89375 178.58Q65.05 177.5175 65.05 175.09563ZM66.12813 175.09563Q66.12813 177.205 66.62813 177.90813Q67.12813 178.61125 67.84688 178.61125Q68.58125 178.61125 69.06563 177.90813Q69.56563 177.205 69.56563 175.09563Q69.56563 172.97063 69.06563 172.28313Q68.58125 171.58 67.83125 171.58Q67.1125 171.58 66.675 172.18938Q66.12813 172.97063 66.12813 175.09563Z" fill-rule="nonzero"/><path fill="#000000" d="M58.1125 143.50792L58.1125 142.4923L63.675 142.4923L63.675 143.32042Q62.8625 144.19542 62.05 145.64854Q61.253124 147.08604 60.815624 148.6173Q60.4875 149.69542 60.409374 150.97667L59.315624 150.97667Q59.33125 149.96104 59.70625 148.52354Q60.096874 147.08604 60.8 145.75792Q61.51875 144.4298 62.33125 143.50792L58.1125 143.50792ZM65.05 146.7423Q65.05 145.21104 65.3625 144.28917Q65.675 143.35167 66.28438 142.85167Q66.90938 142.35167 67.84688 142.35167Q68.53438 142.35167 69.05 142.63292Q69.58125 142.91417 69.925 143.44542Q70.26875 143.96104 70.45625 144.71104Q70.64375 145.46104 70.64375 146.7423Q70.64375 148.25792 70.33125 149.1798Q70.03438 150.10167 69.40938 150.6173Q68.8 151.1173 67.84688 151.1173Q66.6125 151.1173 65.89375 150.22667Q65.05 149.16417 65.05 146.7423ZM66.12813 146.7423Q66.12813 148.85167 66.62813 149.5548Q67.12813 150.25792 67.84688 150.25792Q68.58125 150.25792 69.06563 149.5548Q69.56563 148.85167 69.56563 146.7423Q69.56563 144.6173 69.06563 143.9298Q68.58125 143.22667 67.83125 143.22667Q67.1125 143.22667 66.675 143.83604Q66.12813 144.6173 66.12813 146.7423Z" fill-rule="nonzero"/><path fill="#000000" d="M59.675 117.96709Q59.01875 117.71709 58.690624 117.27959Q58.378124 116.82646 58.378124 116.21709Q58.378124 115.27959 59.05 114.63896Q59.7375 113.99834 60.846874 113.99834Q61.971874 113.99834 62.659374 114.65459Q63.346874 115.31084 63.346874 116.24834Q63.346874 116.84209 63.034374 117.27959Q62.721874 117.71709 62.08125 117.96709Q62.878124 118.21709 63.284374 118.79521Q63.690624 119.37334 63.690624 120.17021Q63.690624 121.26396 62.909374 122.01396Q62.14375 122.76396 60.8625 122.76396Q59.596874 122.76396 58.815624 122.01396Q58.034374 121.26396 58.034374 120.13896Q58.034374 119.29521 58.45625 118.73271Q58.89375 118.17021 59.675 117.96709ZM59.45625 116.17021Q59.45625 116.77959 59.846874 117.17021Q60.253124 117.56084 60.878124 117.56084Q61.4875 117.56084 61.878124 117.18584Q62.26875 116.79521 62.26875 116.23271Q62.26875 115.65459 61.8625 115.26396Q61.45625 114.85771 60.8625 114.85771Q60.253124 114.85771 59.846874 115.24834Q59.45625 115.63896 59.45625 116.17021ZM59.128124 120.13896Q59.128124 120.59209 59.33125 121.01396Q59.55 121.43584 59.971874 121.67021Q60.39375 121.90459 60.878124 121.90459Q61.628124 121.90459 62.1125 121.42021Q62.6125 120.93584 62.6125 120.18584Q62.6125 119.42021 62.1125 118.92021Q61.6125 118.42021 60.846874 118.42021Q60.096874 118.42021 59.6125 118.92021Q59.128124 119.40459 59.128124 120.13896ZM65.05 118.38896Q65.05 116.85771 65.3625 115.93584Q65.675 114.99834 66.28438 114.49834Q66.90938 113.99834 67.84688 113.99834Q68.53438 113.99834 69.05 114.27959Q69.58125 114.56084 69.925 115.09209Q70.26875 115.60771 70.45625 116.35771Q70.64375 117.10771 70.64375 118.38896Q70.64375 119.90459 70.33125 120.82646Q70.03438 121.74834 69.40938 122.26396Q68.8 122.76396 67.84688 122.76396Q66.6125 122.76396 65.89375 121.87334Q65.05 120.81084 65.05 118.38896ZM66.12813 118.38896Q66.12813 120.49834 66.62813 121.20146Q67.12813 121.90459 67.84688 121.90459Q68.58125 121.90459 69.06563 121.20146Q69.56563 120.49834 69.56563 118.38896Q69.56563 116.26396 69.06563 115.57646Q68.58125 114.87334 67.83125 114.87334Q67.1125 114.87334 66.675 115.48271Q66.12813 116.26396 66.12813 118.38896Z" fill-rule="nonzero"/><path fill="#000000" d="M58.20625 92.28562L59.221874 92.19187Q59.346874 92.91062 59.70625 93.23875Q60.08125 93.55125 60.64375 93.55125Q61.128124 93.55125 61.4875 93.3325Q61.8625 93.09812 62.096874 92.73875Q62.33125 92.36375 62.4875 91.73875Q62.64375 91.09812 62.64375 90.44187Q62.64375 90.36375 62.64375 90.22312Q62.33125 90.72312 61.784374 91.05125Q61.2375 91.36375 60.596874 91.36375Q59.51875 91.36375 58.784374 90.59812Q58.05 89.81687 58.05 88.55125Q58.05 87.23875 58.815624 86.44187Q59.596874 85.645 60.753124 85.645Q61.58125 85.645 62.26875 86.09812Q62.971874 86.55125 63.33125 87.395Q63.690624 88.22312 63.690624 89.80125Q63.690624 91.44187 63.33125 92.42625Q62.9875 93.395 62.26875 93.91062Q61.565624 94.41062 60.628124 94.41062Q59.6125 94.41062 58.971874 93.86375Q58.33125 93.30125 58.20625 92.28562ZM62.51875 88.48875Q62.51875 87.5825 62.034374 87.05125Q61.565624 86.52 60.878124 86.52Q60.175 86.52 59.64375 87.09812Q59.128124 87.66062 59.128124 88.5825Q59.128124 89.395 59.628124 89.91062Q60.128124 90.42625 60.846874 90.42625Q61.58125 90.42625 62.05 89.91062Q62.51875 89.395 62.51875 88.48875ZM65.05 90.03562Q65.05 88.50437 65.3625 87.5825Q65.675 86.645 66.28438 86.145Q66.90938 85.645 67.84688 85.645Q68.53438 85.645 69.05 85.92625Q69.58125 86.2075 69.925 86.73875Q70.26875 87.25437 70.45625 88.00437Q70.64375 88.75437 70.64375 90.03562Q70.64375 91.55125 70.33125 92.47312Q70.03438 93.395 69.40938 93.91062Q68.8 94.41062 67.84688 94.41062Q66.6125 94.41062 65.89375 93.52Q65.05 92.4575 65.05 90.03562ZM66.12813 90.03562Q66.12813 92.145 66.62813 92.84812Q67.12813 93.55125 67.84688 93.55125Q68.58125 93.55125 69.06563 92.84812Q69.56563 92.145 69.56563 90.03562Q69.56563 87.91062 69.06563 87.22312Q68.58125 86.52 67.83125 86.52Q67.1125 86.52 66.675 87.12937Q66.12813 87.91062 66.12813 90.03562Z" fill-rule="nonzero"/><path fill="#000000" d="M55.01875 65.916664L53.971874 65.916664L53.971874 59.197914Q53.58125 59.55729 52.95625 59.93229Q52.346874 60.291664 51.8625 60.46354L51.8625 59.447914Q52.7375 59.02604 53.39375 58.447914Q54.065624 57.854164 54.346874 57.291664L55.01875 57.291664L55.01875 65.916664ZM58.05 61.68229Q58.05 60.15104 58.3625 59.229164Q58.675 58.291664 59.284374 57.791664Q59.909374 57.291664 60.846874 57.291664Q61.534374 57.291664 62.05 57.572914Q62.58125 57.854164 62.925 58.385414Q63.26875 58.90104 63.45625 59.65104Q63.64375 60.40104 63.64375 61.68229Q63.64375 63.197914 63.33125 64.11979Q63.034374 65.041664 62.409374 65.55729Q61.8 66.05729 60.846874 66.05729Q59.6125 66.05729 58.89375 65.166664Q58.05 64.104164 58.05 61.68229ZM59.128124 61.68229Q59.128124 63.791664 59.628124 64.49479Q60.128124 65.197914 60.846874 65.197914Q61.58125 65.197914 62.065624 64.49479Q62.565624 63.791664 62.565624 61.68229Q62.565624 59.55729 62.065624 58.86979Q61.58125 58.166664 60.83125 58.166664Q60.1125 58.166664 59.675 58.77604Q59.128124 59.55729 59.128124 61.68229ZM65.05 61.68229Q65.05 60.15104 65.3625 59.229164Q65.675 58.291664 66.28438 57.791664Q66.90938 57.291664 67.84688 57.291664Q68.53438 57.291664 69.05 57.572914Q69.58125 57.854164 69.925 58.385414Q70.26875 58.90104 70.45625 59.65104Q70.64375 60.40104 70.64375 61.68229Q70.64375 63.197914 70.33125 64.11979Q70.03438 65.041664 69.40938 65.55729Q68.8 66.05729 67.84688 66.05729Q66.6125 66.05729 65.89375 65.166664Q65.05 64.104164 65.05 61.68229ZM66.12813 61.68229Q66.12813 63.791664 66.62813 64.49479Q67.12813 65.197914 67.84688 65.197914Q68.58125 65.197914 69.06563 64.49479Q69.56563 63.791664 69.56563 61.68229Q69.56563 59.55729 69.06563 58.86979Q68.58125 58.166664 67.83125 58.166664Q67.1125 58.166664 66.675 58.77604Q66.12813 59.55729 66.12813 61.68229Z" fill-rule="nonzero"/><path fill="#757575" d="M20.034374 37.55L20.034374 23.2375L22.89375 23.2375L26.26875 33.3625Q26.7375 34.784374 26.95625 35.4875Q27.20625 34.70625 27.721874 33.190624L31.14375 23.2375L33.690624 23.2375L33.690624 37.55L31.878124 37.55L31.878124 25.565624L27.70625 37.55L26.003124 37.55L21.8625 25.3625L21.8625 37.55L20.034374 37.55ZM43.64375 36.26875Q42.659374 37.096874 41.753124 37.440624Q40.846874 37.784374 39.815624 37.784374Q38.1125 37.784374 37.190624 36.95625Q36.26875 36.1125 36.26875 34.815624Q36.26875 34.05 36.6125 33.425Q36.971874 32.8 37.534374 32.425Q38.096874 32.034374 38.8 31.83125Q39.315624 31.70625 40.3625 31.565624Q42.4875 31.315624 43.4875 30.971874Q43.503124 30.6125 43.503124 30.503124Q43.503124 29.440624 43.003124 28.9875Q42.33125 28.39375 41.003124 28.39375Q39.753124 28.39375 39.159374 28.83125Q38.58125 29.26875 38.3 30.378124L36.58125 30.14375Q36.815624 29.034374 37.346874 28.3625Q37.878124 27.675 38.89375 27.315624Q39.909374 26.940624 41.253124 26.940624Q42.58125 26.940624 43.409374 27.253124Q44.2375 27.565624 44.628124 28.05Q45.01875 28.51875 45.175 29.2375Q45.26875 29.690624 45.26875 30.8625L45.26875 33.20625Q45.26875 35.659374 45.378124 36.315624Q45.4875 36.95625 45.83125 37.55L43.9875 37.55Q43.721874 37.003124 43.64375 36.26875ZM43.4875 32.346874Q42.534374 32.7375 40.6125 33.003124Q39.534374 33.159374 39.08125 33.3625Q38.64375 33.55 38.39375 33.925Q38.14375 34.3 38.14375 34.76875Q38.14375 35.471874 38.675 35.940624Q39.20625 36.409374 40.2375 36.409374Q41.253124 36.409374 42.034374 35.971874Q42.83125 35.51875 43.20625 34.753124Q43.4875 34.14375 43.4875 32.9875L43.4875 32.346874ZM54.596874 37.55L54.596874 36.2375Q53.6125 37.784374 51.690624 37.784374Q50.45625 37.784374 49.409374 37.096874Q48.378124 36.409374 47.8 35.190624Q47.2375 33.971874 47.2375 32.378124Q47.2375 30.815624 47.753124 29.55Q48.26875 28.284374 49.3 27.6125Q50.346874 26.940624 51.6125 26.940624Q52.55 26.940624 53.284374 27.346874Q54.01875 27.7375 54.4875 28.3625L54.4875 23.2375L56.221874 23.2375L56.221874 37.55L54.596874 37.55ZM49.034374 32.378124Q49.034374 34.3625 49.878124 35.346874Q50.721874 36.33125 51.8625 36.33125Q53.01875 36.33125 53.815624 35.39375Q54.628124 34.45625 54.628124 32.51875Q54.628124 30.39375 53.8 29.39375Q52.9875 28.39375 51.784374 28.39375Q50.6125 28.39375 49.815624 29.3625Q49.034374 30.315624 49.034374 32.378124ZM65.59688 37.55L65.59688 36.2375Q64.6125 37.784374 62.690624 37.784374Q61.45625 37.784374 60.409374 37.096874Q59.378124 36.409374 58.8 35.190624Q58.2375 33.971874 58.2375 32.378124Q58.2375 30.815624 58.753124 29.55Q59.26875 28.284374 60.3 27.6125Q61.346874 26.940624 62.6125 26.940624Q63.55 26.940624 64.28438 27.346874Q65.01875 27.7375 65.4875 28.3625L65.4875 23.2375L67.22188 23.2375L67.22188 37.55L65.59688 37.55ZM60.034374 32.378124Q60.034374 34.3625 60.878124 35.346874Q61.721874 36.33125 62.8625 36.33125Q64.01875 36.33125 64.81563 35.39375Q65.62813 34.45625 65.62813 32.51875Q65.62813 30.39375 64.8 29.39375Q63.9875 28.39375 62.784374 28.39375Q61.6125 28.39375 60.815624 29.3625Q60.034374 30.315624 60.034374 32.378124ZM69.78438 41.55L69.59688 39.89375Q70.175 40.05 70.59688 40.05Q71.19063 40.05 71.53438 39.846874Q71.89375 39.659374 72.1125 39.315624Q72.28438 39.05 72.65938 38.003124Q72.70625 37.846874 72.81563 37.565624L68.87813 27.175L70.76875 27.175L72.925 33.190624Q73.34688 34.33125 73.675 35.58125Q73.9875 34.378124 74.39375 33.221874L76.6125 27.175L78.37813 27.175L74.425 37.721874Q73.8 39.440624 73.44063 40.08125Q72.97188 40.95625 72.3625 41.346874Q71.76875 41.753124 70.925 41.753124Q70.40938 41.753124 69.78438 41.55ZM79.87813 28.3L79.425 25.628124L79.425 23.2375L81.425 23.2375L81.425 25.628124L80.95625 28.3L79.87813 28.3ZM83.15938 34.45625L84.90938 34.175Q85.05 35.221874 85.72188 35.784374Q86.39375 36.33125 87.59688 36.33125Q88.8 36.33125 89.37813 35.846874Q89.97188 35.346874 89.97188 34.690624Q89.97188 34.096874 89.45625 33.753124Q89.09688 33.51875 87.65938 33.159374Q85.72188 32.659374 84.97188 32.315624Q84.2375 31.95625 83.84688 31.33125Q83.45625 30.690624 83.45625 29.925Q83.45625 29.2375 83.76875 28.64375Q84.09688 28.05 84.64375 27.659374Q85.05 27.3625 85.75313 27.159374Q86.47188 26.940624 87.28438 26.940624Q88.50313 26.940624 89.425 27.3Q90.34688 27.64375 90.78438 28.253124Q91.22188 28.846874 91.39375 29.846874L89.675 30.08125Q89.55 29.284374 88.9875 28.846874Q88.425 28.39375 87.40938 28.39375Q86.19063 28.39375 85.675 28.8Q85.15938 29.190624 85.15938 29.721874Q85.15938 30.065624 85.37813 30.346874Q85.58125 30.628124 86.05 30.815624Q86.31563 30.909374 87.59688 31.253124Q89.47188 31.753124 90.20625 32.08125Q90.94063 32.39375 91.3625 33.003124Q91.78438 33.596874 91.78438 34.503124Q91.78438 35.378124 91.26875 36.159374Q90.75313 36.940624 89.78438 37.3625Q88.81563 37.784374 87.59688 37.784374Q85.58125 37.784374 84.51875 36.940624Q83.45625 36.096874 83.15938 34.45625ZM100.09688 37.55L100.09688 23.2375L105.4875 23.2375Q106.925 23.2375 107.675 23.3625Q108.72188 23.55 109.44063 24.05Q110.15938 24.534374 110.58125 25.425Q111.01875 26.315624 111.01875 27.378124Q111.01875 29.20625 109.84688 30.471874Q108.69063 31.721874 105.65938 31.721874L101.9875 31.721874L101.9875 37.55L100.09688 37.55ZM101.9875 30.034374L105.69063 30.034374Q107.51875 30.034374 108.28438 29.3625Q109.06563 28.675 109.06563 27.425Q109.06563 26.534374 108.6125 25.89375Q108.15938 25.253124 107.425 25.05Q106.94063 24.925 105.64375 24.925L101.9875 24.925L101.9875 30.034374ZM119.64375 36.26875Q118.65938 37.096874 117.75313 37.440624Q116.84688 37.784374 115.81563 37.784374Q114.1125 37.784374 113.19063 36.95625Q112.26875 36.1125 112.26875 34.815624Q112.26875 34.05 112.6125 33.425Q112.97188 32.8 113.53438 32.425Q114.09688 32.034374 114.8 31.83125Q115.31563 31.70625 116.3625 31.565624Q118.4875 31.315624 119.4875 30.971874Q119.50313 30.6125 119.50313 30.503124Q119.50313 29.440624 119.00313 28.9875Q118.33125 28.39375 117.00313 28.39375Q115.75313 28.39375 115.15938 28.83125Q114.58125 29.26875 114.3 30.378124L112.58125 30.14375Q112.81563 29.034374 113.34688 28.3625Q113.87813 27.675 114.89375 27.315624Q115.90938 26.940624 117.25313 26.940624Q118.58125 26.940624 119.40938 27.253124Q120.2375 27.565624 120.62813 28.05Q121.01875 28.51875 121.175 29.2375Q121.26875 29.690624 121.26875 30.8625L121.26875 33.20625Q121.26875 35.659374 121.37813 36.315624Q121.4875 36.95625 121.83125 37.55L119.9875 37.55Q119.72188 37.003124 119.64375 36.26875ZM119.4875 32.346874Q118.53438 32.7375 116.6125 33.003124Q115.53438 33.159374 115.08125 33.3625Q114.64375 33.55 114.39375 33.925Q114.14375 34.3 114.14375 34.76875Q114.14375 35.471874 114.675 35.940624Q115.20625 36.409374 116.2375 36.409374Q117.25313 36.409374 118.03438 35.971874Q118.83125 35.51875 119.20625 34.753124Q119.4875 34.14375 119.4875 32.9875L119.4875 32.346874ZM123.84688 37.55L123.84688 27.175L125.425 27.175L125.425 28.753124Q126.03438 27.64375 126.55 27.3Q127.06563 26.940624 127.675 26.940624Q128.56563 26.940624 129.4875 27.503124L128.87813 29.14375Q128.2375 28.753124 127.59688 28.753124Q127.01875 28.753124 126.55 29.1125Q126.09688 29.45625 125.89375 30.065624Q125.6125 31.003124 125.6125 32.1125L125.6125 37.55L123.84688 37.55ZM134.70625 35.971874L134.95625 37.534374Q134.22188 37.690624 133.62813 37.690624Q132.675 37.690624 132.14375 37.39375Q131.62813 37.08125 131.40938 36.596874Q131.19063 36.096874 131.19063 34.51875L131.19063 28.55L129.90938 28.55L129.90938 27.175L131.19063 27.175L131.19063 24.6125L132.94063 23.55L132.94063 27.175L134.70625 27.175L134.70625 28.55L132.94063 28.55L132.94063 34.6125Q132.94063 35.3625 133.03438 35.58125Q133.12813 35.784374 133.33125 35.925Q133.55 36.05 133.94063 36.05Q134.22188 36.05 134.70625 35.971874ZM136.78438 41.55L136.59688 39.89375Q137.175 40.05 137.59688 40.05Q138.19063 40.05 138.53438 39.846874Q138.89375 39.659374 139.1125 39.315624Q139.28438 39.05 139.65938 38.003124Q139.70625 37.846874 139.81563 37.565624L135.87813 27.175L137.76875 27.175L139.925 33.190624Q140.34688 34.33125 140.675 35.58125Q140.9875 34.378124 141.39375 33.221874L143.6125 27.175L145.37813 27.175L141.425 37.721874Q140.8 39.440624 140.44063 40.08125Q139.97188 40.95625 139.3625 41.346874Q138.76875 41.753124 137.925 41.753124Q137.40938 41.753124 136.78438 41.55Z" fill-rule="nonzero"/></svg>