<svg version="1.1" viewBox="0.0 0.0 600.0 371.0" fill="none" stroke="none" stroke-linecap="square" stroke-miterlimit="10" width="600" height="371" xmlns:xlink="http://www.w3.org/1999/xlink" xmlns="http://www.w3.org/2000/svg"><path fill="#ffffff" d="M0 0L600.0 0L600.0 371.0L0 371.0L0 0Z" fill-rule="nonzero"/><path stroke="#333333" stroke-width="1.0" stroke-linecap="butt" d="M77.5 345.5L581.5 345.5" fill-rule="nonzero"/><path stroke="#cccccc" stroke-width="1.0" stroke-linecap="butt" d="M77.5 317.5L581.5 317.5" fill-rule="nonzero"/><path stroke="#cccccc" stroke-width="1.0" stroke-linecap="butt" d="M77.5 288.5L581.5 288.5" fill-rule="nonzero"/><path stroke="#cccccc" stroke-width="1.0" stroke-linecap="butt" d="M77.5 260.5L581.5 260.5" fill-rule="nonzero"/><path stroke="#cccccc" stroke-width="1.0" stroke-linecap="butt" d="M77.5 232.5L581.5 232.5" fill-rule="nonzero"/><path stroke="#cccccc" stroke-width="1.0" stroke-linecap="butt" d="M77.5 203.5L581.5 203.5" fill-rule="nonzero"/><path stroke="#cccccc" stroke-width="1.0" stroke-linecap="butt" d="M77.5 175.5L581.5 175.5" fill-rule="nonzero"/><path stroke="#cccccc" stroke-width="1.0" stroke-linecap="butt" d="M77.5 146.5L581.5 146.5" fill-rule="nonzero"/><path stroke="#cccccc" stroke-width="1.0" stroke-linecap="butt" d="M77.5 118.5L581.5 118.5" fill-rule="nonzero"/><path stroke="#cccccc" stroke-width="1.0" stroke-linecap="butt" d="M77.5 90.5L581.5 90.5" fill-rule="nonzero"/><path stroke="#cccccc" stroke-width="1.0" stroke-linecap="butt" d="M77.5 61.5L581.5 61.5" fill-rule="nonzero"/><clipPath id="id_0"><path d="M77.55 61.916668L581.45 61.916668L581.45 345.45L77.55 345.45L77.55 61.916668Z" clip-rule="nonzero"/></clipPath><path stroke="#434343" stroke-width="2.0" stroke-linecap="butt" clip-path="url(#id_0)" d="M82.91064 61.916668L93.63191 61.916668L104.353195 61.916668L115.07447 61.916668L125.795746 61.916668L136.51703 81.764L147.2383 81.764L157.95958 124.294L168.68085 124.294L179.40213 124.294L190.1234 124.294L200.84468 138.47067L211.56596 195.17734L222.28723 195.17734L233.00851 209.354L243.72978 280.23734L254.45107 288.74335L265.17233 331.27335L275.89362 331.27335L286.6149 331.27335L297.33618 331.27335L308.05743 331.27335L318.77872 331.27335L329.5 331.27335L340.22128 331.27335L350.94257 331.27335L361.66382 331.27335L372.3851 331.27335L383.10638 345.45L393.82767 345.45L404.54895 345.45L415.2702 345.45L425.9915 345.45L436.71277 345.45L447.43405 345.45L458.1553 345.45L468.8766 345.45L479.59787 345.45L490.31915 345.45L501.04044 345.45L511.7617 345.45L522.483 345.45L533.2043 345.45L543.92554 345.45L554.6468 345.45L565.3681 345.45L576.08936 345.45" fill-rule="nonzero"/><path fill="#434343" clip-path="url(#id_0)" d="M88.91064 61.916668C88.91064 65.23038 86.22435 67.916664 82.91064 67.916664C79.59693 67.916664 76.91064 65.23038 76.91064 61.916668C76.91064 58.60296 79.59693 55.916668 82.91064 55.916668C86.22435 55.916668 88.91064 58.60296 88.91064 61.916668Z" fill-rule="nonzero"/><path fill="#434343" clip-path="url(#id_0)" d="M99.63191 61.916668C99.63191 65.23038 96.945625 67.916664 93.63191 67.916664C90.31821 67.916664 87.63191 65.23038 87.63191 61.916668C87.63191 58.60296 90.31821 55.916668 93.63191 55.916668C96.945625 55.916668 99.63191 58.60296 99.63191 61.916668Z" fill-rule="nonzero"/><path fill="#434343" clip-path="url(#id_0)" d="M110.353195 61.916668C110.353195 65.23038 107.6669 67.916664 104.353195 67.916664C101.03948 67.916664 98.353195 65.23038 98.353195 61.916668C98.353195 58.60296 101.03948 55.916668 104.353195 55.916668C107.6669 55.916668 110.353195 58.60296 110.353195 61.916668Z" fill-rule="nonzero"/><path fill="#434343" clip-path="url(#id_0)" d="M121.07447 61.916668C121.07447 65.23038 118.388176 67.916664 115.07447 67.916664C111.76076 67.916664 109.07447 65.23038 109.07447 61.916668C109.07447 58.60296 111.76076 55.916668 115.07447 55.916668C118.388176 55.916668 121.07447 58.60296 121.07447 61.916668Z" fill-rule="nonzero"/><path fill="#434343" clip-path="url(#id_0)" d="M131.79575 61.916668C131.79575 65.23038 129.10945 67.916664 125.795746 67.916664C122.48203 67.916664 119.795746 65.23038 119.795746 61.916668C119.795746 58.60296 122.48203 55.916668 125.795746 55.916668C129.10945 55.916668 131.79575 58.60296 131.79575 61.916668Z" fill-rule="nonzero"/><path fill="#434343" clip-path="url(#id_0)" d="M142.51703 81.764C142.51703 85.077705 139.83073 87.764 136.51703 87.764C133.20331 87.764 130.51703 85.077705 130.51703 81.764C130.51703 78.450294 133.20331 75.764 136.51703 75.764C139.83073 75.764 142.51703 78.450294 142.51703 81.764Z" fill-rule="nonzero"/><path fill="#434343" clip-path="url(#id_0)" d="M153.2383 81.764C153.2383 85.077705 150.552 87.764 147.2383 87.764C143.92459 87.764 141.2383 85.077705 141.2383 81.764C141.2383 78.450294 143.92459 75.764 147.2383 75.764C150.552 75.764 153.2383 78.450294 153.2383 81.764Z" fill-rule="nonzero"/><path fill="#434343" clip-path="url(#id_0)" d="M163.95958 124.294C163.95958 127.60771 161.27328 130.294 157.95958 130.294C154.64586 130.294 151.95958 127.60771 151.95958 124.294C151.95958 120.98029 154.64586 118.294 157.95958 118.294C161.27328 118.294 163.95958 120.98029 163.95958 124.294Z" fill-rule="nonzero"/><path fill="#434343" clip-path="url(#id_0)" d="M174.68085 124.294C174.68085 127.60771 171.99455 130.294 168.68085 130.294C165.36714 130.294 162.68085 127.60771 162.68085 124.294C162.68085 120.98029 165.36714 118.294 168.68085 118.294C171.99455 118.294 174.68085 120.98029 174.68085 124.294Z" fill-rule="nonzero"/><path fill="#434343" clip-path="url(#id_0)" d="M185.40213 124.294C185.40213 127.60771 182.71584 130.294 179.40213 130.294C176.08842 130.294 173.40213 127.60771 173.40213 124.294C173.40213 120.98029 176.08842 118.294 179.40213 118.294C182.71584 118.294 185.40213 120.98029 185.40213 124.294Z" fill-rule="nonzero"/><path fill="#434343" clip-path="url(#id_0)" d="M196.1234 124.294C196.1234 127.60771 193.43712 130.294 190.1234 130.294C186.8097 130.294 184.1234 127.60771 184.1234 124.294C184.1234 120.98029 186.8097 118.294 190.1234 118.294C193.43712 118.294 196.1234 120.98029 196.1234 124.294Z" fill-rule="nonzero"/><path fill="#434343" clip-path="url(#id_0)" d="M206.84468 138.47067C206.84468 141.78438 204.15839 144.47067 200.84468 144.47067C197.53098 144.47067 194.84468 141.78438 194.84468 138.47067C194.84468 135.15695 197.53098 132.47067 200.84468 132.47067C204.15839 132.47067 206.84468 135.15695 206.84468 138.47067Z" fill-rule="nonzero"/><path fill="#434343" clip-path="url(#id_0)" d="M217.56596 195.17734C217.56596 198.49104 214.87967 201.17734 211.56596 201.17734C208.25224 201.17734 205.56596 198.49104 205.56596 195.17734C205.56596 191.86363 208.25224 189.17734 211.56596 189.17734C214.87967 189.17734 217.56596 191.86363 217.56596 195.17734Z" fill-rule="nonzero"/><path fill="#434343" clip-path="url(#id_0)" d="M228.28723 195.17734C228.28723 198.49104 225.60094 201.17734 222.28723 201.17734C218.97353 201.17734 216.28723 198.49104 216.28723 195.17734C216.28723 191.86363 218.97353 189.17734 222.28723 189.17734C225.60094 189.17734 228.28723 191.86363 228.28723 195.17734Z" fill-rule="nonzero"/><path fill="#434343" clip-path="url(#id_0)" d="M239.00851 209.354C239.00851 212.66771 236.32222 215.354 233.00851 215.354C229.69481 215.354 227.00851 212.66771 227.00851 209.354C227.00851 206.0403 229.69481 203.354 233.00851 203.354C236.32222 203.354 239.00851 206.0403 239.00851 209.354Z" fill-rule="nonzero"/><path fill="#434343" clip-path="url(#id_0)" d="M249.72978 280.23734C249.72978 283.55106 247.0435 286.23734 243.72978 286.23734C240.41608 286.23734 237.72978 283.55106 237.72978 280.23734C237.72978 276.9236 240.41608 274.23734 243.72978 274.23734C247.0435 274.23734 249.72978 276.9236 249.72978 280.23734Z" fill-rule="nonzero"/><path fill="#434343" clip-path="url(#id_0)" d="M260.45105 288.74335C260.45105 292.05704 257.76477 294.74335 254.45107 294.74335C251.13736 294.74335 248.45107 292.05704 248.45107 288.74335C248.45107 285.42963 251.13736 282.74335 254.45107 282.74335C257.76477 282.74335 260.45105 285.42963 260.45105 288.74335Z" fill-rule="nonzero"/><path fill="#434343" clip-path="url(#id_0)" d="M271.17233 331.27335C271.17233 334.58704 268.48605 337.27335 265.17233 337.27335C261.85864 337.27335 259.17233 334.58704 259.17233 331.27335C259.17233 327.95963 261.85864 325.27335 265.17233 325.27335C268.48605 325.27335 271.17233 327.95963 271.17233 331.27335Z" fill-rule="nonzero"/><path fill="#434343" clip-path="url(#id_0)" d="M281.89362 331.27335C281.89362 334.58704 279.20734 337.27335 275.89362 337.27335C272.5799 337.27335 269.89362 334.58704 269.89362 331.27335C269.89362 327.95963 272.5799 325.27335 275.89362 325.27335C279.20734 325.27335 281.89362 327.95963 281.89362 331.27335Z" fill-rule="nonzero"/><path fill="#434343" clip-path="url(#id_0)" d="M292.6149 331.27335C292.6149 334.58704 289.9286 337.27335 286.6149 337.27335C283.30118 337.27335 280.6149 334.58704 280.6149 331.27335C280.6149 327.95963 283.30118 325.27335 286.6149 325.27335C289.9286 325.27335 292.6149 327.95963 292.6149 331.27335Z" fill-rule="nonzero"/><path fill="#434343" clip-path="url(#id_0)" d="M303.33618 331.27335C303.33618 334.58704 300.64987 337.27335 297.33618 337.27335C294.02246 337.27335 291.33618 334.58704 291.33618 331.27335C291.33618 327.95963 294.02246 325.27335 297.33618 325.27335C300.64987 325.27335 303.33618 327.95963 303.33618 331.27335Z" fill-rule="nonzero"/><path fill="#434343" clip-path="url(#id_0)" d="M314.05743 331.27335C314.05743 334.58704 311.37115 337.27335 308.05743 337.27335C304.74374 337.27335 302.05743 334.58704 302.05743 331.27335C302.05743 327.95963 304.74374 325.27335 308.05743 325.27335C311.37115 325.27335 314.05743 327.95963 314.05743 331.27335Z" fill-rule="nonzero"/><path fill="#434343" clip-path="url(#id_0)" d="M324.77872 331.27335C324.77872 334.58704 322.09244 337.27335 318.77872 337.27335C315.46503 337.27335 312.77872 334.58704 312.77872 331.27335C312.77872 327.95963 315.46503 325.27335 318.77872 325.27335C322.09244 325.27335 324.77872 327.95963 324.77872 331.27335Z" fill-rule="nonzero"/><path fill="#434343" clip-path="url(#id_0)" d="M335.5 331.27335C335.5 334.58704 332.81372 337.27335 329.5 337.27335C326.18628 337.27335 323.5 334.58704 323.5 331.27335C323.5 327.95963 326.18628 325.27335 329.5 325.27335C332.81372 325.27335 335.5 327.95963 335.5 331.27335Z" fill-rule="nonzero"/><path fill="#434343" clip-path="url(#id_0)" d="M346.22128 331.27335C346.22128 334.58704 343.53497 337.27335 340.22128 337.27335C336.90756 337.27335 334.22128 334.58704 334.22128 331.27335C334.22128 327.95963 336.90756 325.27335 340.22128 325.27335C343.53497 325.27335 346.22128 327.95963 346.22128 331.27335Z" fill-rule="nonzero"/><path fill="#434343" clip-path="url(#id_0)" d="M356.94257 331.27335C356.94257 334.58704 354.25626 337.27335 350.94257 337.27335C347.62885 337.27335 344.94257 334.58704 344.94257 331.27335C344.94257 327.95963 347.62885 325.27335 350.94257 325.27335C354.25626 325.27335 356.94257 327.95963 356.94257 331.27335Z" fill-rule="nonzero"/><path fill="#434343" clip-path="url(#id_0)" d="M367.66382 331.27335C367.66382 334.58704 364.97754 337.27335 361.66382 337.27335C358.35013 337.27335 355.66382 334.58704 355.66382 331.27335C355.66382 327.95963 358.35013 325.27335 361.66382 325.27335C364.97754 325.27335 367.66382 327.95963 367.66382 331.27335Z" fill-rule="nonzero"/><path fill="#434343" clip-path="url(#id_0)" d="M378.3851 331.27335C378.3851 334.58704 375.69882 337.27335 372.3851 337.27335C369.0714 337.27335 366.3851 334.58704 366.3851 331.27335C366.3851 327.95963 369.0714 325.27335 372.3851 325.27335C375.69882 325.27335 378.3851 327.95963 378.3851 331.27335Z" fill-rule="nonzero"/><path fill="#434343" clip-path="url(#id_0)" d="M389.10638 345.45C389.10638 348.7637 386.4201 351.45 383.10638 351.45C379.79266 351.45 377.10638 348.7637 377.10638 345.45C377.10638 342.1363 379.79266 339.45 383.10638 339.45C386.4201 339.45 389.10638 342.1363 389.10638 345.45Z" fill-rule="nonzero"/><path fill="#434343" clip-path="url(#id_0)" d="M399.82767 345.45C399.82767 348.7637 397.14136 351.45 393.82767 351.45C390.51395 351.45 387.82767 348.7637 387.82767 345.45C387.82767 342.1363 390.51395 339.45 393.82767 339.45C397.14136 339.45 399.82767 342.1363 399.82767 345.45Z" fill-rule="nonzero"/><path fill="#434343" clip-path="url(#id_0)" d="M410.54895 345.45C410.54895 348.7637 407.86264 351.45 404.54895 351.45C401.23523 351.45 398.54895 348.7637 398.54895 345.45C398.54895 342.1363 401.23523 339.45 404.54895 339.45C407.86264 339.45 410.54895 342.1363 410.54895 345.45Z" fill-rule="nonzero"/><path fill="#434343" clip-path="url(#id_0)" d="M421.2702 345.45C421.2702 348.7637 418.58392 351.45 415.2702 351.45C411.9565 351.45 409.2702 348.7637 409.2702 345.45C409.2702 342.1363 411.9565 339.45 415.2702 339.45C418.58392 339.45 421.2702 342.1363 421.2702 345.45Z" fill-rule="nonzero"/><path fill="#434343" clip-path="url(#id_0)" d="M431.9915 345.45C431.9915 348.7637 429.3052 351.45 425.9915 351.45C422.6778 351.45 419.9915 348.7637 419.9915 345.45C419.9915 342.1363 422.6778 339.45 425.9915 339.45C429.3052 339.45 431.9915 342.1363 431.9915 345.45Z" fill-rule="nonzero"/><path fill="#434343" clip-path="url(#id_0)" d="M442.71277 345.45C442.71277 348.7637 440.0265 351.45 436.71277 351.45C433.39905 351.45 430.71277 348.7637 430.71277 345.45C430.71277 342.1363 433.39905 339.45 436.71277 339.45C440.0265 339.45 442.71277 342.1363 442.71277 345.45Z" fill-rule="nonzero"/><path fill="#434343" clip-path="url(#id_0)" d="M453.43405 345.45C453.43405 348.7637 450.74774 351.45 447.43405 351.45C444.12033 351.45 441.43405 348.7637 441.43405 345.45C441.43405 342.1363 444.12033 339.45 447.43405 339.45C450.74774 339.45 453.43405 342.1363 453.43405 345.45Z" fill-rule="nonzero"/><path fill="#434343" clip-path="url(#id_0)" d="M464.1553 345.45C464.1553 348.7637 461.46902 351.45 458.1553 351.45C454.8416 351.45 452.1553 348.7637 452.1553 345.45C452.1553 342.1363 454.8416 339.45 458.1553 339.45C461.46902 339.45 464.1553 342.1363 464.1553 345.45Z" fill-rule="nonzero"/><path fill="#434343" clip-path="url(#id_0)" d="M474.8766 345.45C474.8766 348.7637 472.1903 351.45 468.8766 351.45C465.5629 351.45 462.8766 348.7637 462.8766 345.45C462.8766 342.1363 465.5629 339.45 468.8766 339.45C472.1903 339.45 474.8766 342.1363 474.8766 345.45Z" fill-rule="nonzero"/><path fill="#434343" clip-path="url(#id_0)" d="M485.59787 345.45C485.59787 348.7637 482.9116 351.45 479.59787 351.45C476.28415 351.45 473.59787 348.7637 473.59787 345.45C473.59787 342.1363 476.28415 339.45 479.59787 339.45C482.9116 339.45 485.59787 342.1363 485.59787 345.45Z" fill-rule="nonzero"/><path fill="#434343" clip-path="url(#id_0)" d="M496.31915 345.45C496.31915 348.7637 493.63284 351.45 490.31915 351.45C487.00543 351.45 484.31915 348.7637 484.31915 345.45C484.31915 342.1363 487.00543 339.45 490.31915 339.45C493.63284 339.45 496.31915 342.1363 496.31915 345.45Z" fill-rule="nonzero"/><path fill="#434343" clip-path="url(#id_0)" d="M507.04044 345.45C507.04044 348.7637 504.35413 351.45 501.04044 351.45C497.7267 351.45 495.04044 348.7637 495.04044 345.45C495.04044 342.1363 497.7267 339.45 501.04044 339.45C504.35413 339.45 507.04044 342.1363 507.04044 345.45Z" fill-rule="nonzero"/><path fill="#434343" clip-path="url(#id_0)" d="M517.7617 345.45C517.7617 348.7637 515.07544 351.45 511.7617 351.45C508.448 351.45 505.7617 348.7637 505.7617 345.45C505.7617 342.1363 508.448 339.45 511.7617 339.45C515.07544 339.45 517.7617 342.1363 517.7617 345.45Z" fill-rule="nonzero"/><path fill="#434343" clip-path="url(#id_0)" d="M528.483 345.45C528.483 348.7637 525.7967 351.45 522.483 351.45C519.16925 351.45 516.483 348.7637 516.483 345.45C516.483 342.1363 519.16925 339.45 522.483 339.45C525.7967 339.45 528.483 342.1363 528.483 345.45Z" fill-rule="nonzero"/><path fill="#434343" clip-path="url(#id_0)" d="M539.2043 345.45C539.2043 348.7637 536.51794 351.45 533.2043 351.45C529.89056 351.45 527.2043 348.7637 527.2043 345.45C527.2043 342.1363 529.89056 339.45 533.2043 339.45C536.51794 339.45 539.2043 342.1363 539.2043 345.45Z" fill-rule="nonzero"/><path fill="#434343" clip-path="url(#id_0)" d="M549.92554 345.45C549.92554 348.7637 547.23926 351.45 543.92554 351.45C540.6118 351.45 537.92554 348.7637 537.92554 345.45C537.92554 342.1363 540.6118 339.45 543.92554 339.45C547.23926 339.45 549.92554 342.1363 549.92554 345.45Z" fill-rule="nonzero"/><path fill="#434343" clip-path="url(#id_0)" d="M560.6468 345.45C560.6468 348.7637 557.9605 351.45 554.6468 351.45C551.3331 351.45 548.6468 348.7637 548.6468 345.45C548.6468 342.1363 551.3331 339.45 554.6468 339.45C557.9605 339.45 560.6468 342.1363 560.6468 345.45Z" fill-rule="nonzero"/><path fill="#434343" clip-path="url(#id_0)" d="M571.3681 345.45C571.3681 348.7637 568.6818 351.45 565.3681 351.45C562.0544 351.45 559.3681 348.7637 559.3681 345.45C559.3681 342.1363 562.0544 339.45 565.3681 339.45C568.6818 339.45 571.3681 342.1363 571.3681 345.45Z" fill-rule="nonzero"/><path fill="#434343" clip-path="url(#id_0)" d="M582.08936 345.45C582.08936 348.7637 579.4031 351.45 576.08936 351.45C572.77563 351.45 570.08936 348.7637 570.08936 345.45C570.08936 342.1363 572.77563 339.45 576.08936 339.45C579.4031 339.45 582.08936 342.1363 582.08936 345.45Z" fill-rule="nonzero"/><path fill="#000000" d="M26.784388 219.13646L26.690638 218.07396Q27.346888 217.99583 27.753138 217.71458Q28.159388 217.43333 28.425013 216.85521Q28.675013 216.26146 28.675013 215.52708Q28.675013 214.88646 28.487513 214.38646Q28.284388 213.88646 27.956263 213.65208Q27.612513 213.40208 27.221888 213.40208Q26.815638 213.40208 26.518763 213.63646Q26.206263 213.87083 26.003138 214.40208Q25.862513 214.76146 25.581263 215.94896Q25.300013 217.12083 25.050013 217.58958Q24.721888 218.21458 24.253138 218.51146Q23.768763 218.80833 23.175013 218.80833Q22.534388 218.80833 21.971888 218.44896Q21.393763 218.07396 21.112513 217.37083Q20.815638 216.65208 20.815638 215.79271Q20.815638 214.83958 21.128138 214.10521Q21.425013 213.37083 22.034388 212.98021Q22.628138 212.58958 23.378138 212.55833L23.456263 213.65208Q22.643763 213.74583 22.237513 214.26146Q21.815638 214.76146 21.815638 215.74583Q21.815638 216.77708 22.190638 217.24583Q22.565638 217.71458 23.096888 217.71458Q23.565638 217.71458 23.862513 217.38646Q24.159388 217.05833 24.471888 215.68333Q24.784388 214.29271 25.018763 213.77708Q25.378138 213.02708 25.909388 212.66771Q26.425013 212.30833 27.128138 212.30833Q27.815638 212.30833 28.425013 212.69896Q29.018763 213.08958 29.362513 213.82396Q29.690638 214.55833 29.690638 215.48021Q29.690638 216.65208 29.362513 217.44896Q29.018763 218.23021 28.331263 218.68333Q27.643763 219.12083 26.784388 219.13646ZM27.268763 206.82396L27.409388 205.79271Q28.471888 205.96458 29.081263 206.66771Q29.690638 207.37083 29.690638 208.38646Q29.690638 209.66771 28.862513 210.44896Q28.018763 211.21458 26.456263 211.21458Q25.456263 211.21458 24.706263 210.88646Q23.940638 210.54271 23.565638 209.87083Q23.190638 209.18333 23.190638 208.37083Q23.190638 207.37083 23.706263 206.73021Q24.206263 206.07396 25.159388 205.88646L25.315638 206.91771Q24.690638 207.05833 24.378138 207.43333Q24.050013 207.80833 24.050013 208.33958Q24.050013 209.13646 24.628138 209.63646Q25.190638 210.13646 26.425013 210.13646Q27.690638 210.13646 28.253138 209.65208Q28.815638 209.16771 28.815638 208.40208Q28.815638 207.77708 28.440638 207.37083Q28.065638 206.94896 27.268763 206.82396ZM26.440638 205.27708Q24.706263 205.27708 23.878138 204.32396Q23.190638 203.52708 23.190638 202.37083Q23.190638 201.08958 24.034388 200.27708Q24.862513 199.44896 26.346888 199.44896Q27.550013 199.44896 28.237513 199.80833Q28.925013 200.16771 29.315638 200.87083Q29.690638 201.55833 29.690638 202.37083Q29.690638 203.66771 28.862513 204.48021Q28.018763 205.27708 26.440638 205.27708ZM26.440638 204.19896Q27.628138 204.19896 28.221888 203.68333Q28.815638 203.15208 28.815638 202.37083Q28.815638 201.57396 28.221888 201.05833Q27.628138 200.54271 26.409388 200.54271Q25.253138 200.54271 24.659388 201.07396Q24.065638 201.58958 24.065638 202.37083Q24.065638 203.15208 24.659388 203.68333Q25.237513 204.19896 26.440638 204.19896ZM29.550013 197.90208L23.331263 197.90208L23.331263 196.94896L24.268763 196.94896Q23.612513 196.58958 23.409388 196.29271Q23.190638 195.98021 23.190638 195.60521Q23.190638 195.07396 23.518763 194.52708L24.503138 194.88646Q24.268763 195.27708 24.268763 195.65208Q24.268763 196.01146 24.487513 196.29271Q24.690638 196.55833 25.065638 196.66771Q25.628138 196.85521 26.284388 196.85521L29.550013 196.85521L29.550013 197.90208ZM27.550013 189.63646L27.675013 188.54271Q28.628138 188.79271 29.159388 189.49583Q29.690638 190.19896 29.690638 191.27708Q29.690638 192.63646 28.846888 193.44896Q28.003138 194.24583 26.487513 194.24583Q24.925013 194.24583 24.065638 193.43333Q23.190638 192.62083 23.190638 191.33958Q23.190638 190.08958 24.034388 189.30833Q24.878138 188.51146 26.425013 188.51146Q26.518763 188.51146 26.706263 188.51146L26.706263 193.15208Q27.737513 193.08958 28.284388 192.57396Q28.815638 192.05833 28.815638 191.27708Q28.815638 190.69896 28.518763 190.29271Q28.206263 189.87083 27.550013 189.63646ZM25.846888 193.08958L25.846888 189.62083Q25.050013 189.68333 24.659388 190.01146Q24.050013 190.52708 24.050013 191.32396Q24.050013 192.05833 24.534388 192.55833Q25.018763 193.04271 25.846888 193.08958Z" fill-rule="nonzero"/><path fill="#000000" d="M65.05 345.21564Q65.05 343.6844 65.3625 342.7625Q65.675 341.825 66.28438 341.325Q66.90938 340.825 67.84688 340.825Q68.53438 340.825 69.05 341.10626Q69.58125 341.3875 69.925 341.91876Q70.26875 342.4344 70.45625 343.1844Q70.64375 343.9344 70.64375 345.21564Q70.64375 346.73126 70.33125 347.65314Q70.03438 348.575 69.40938 349.09064Q68.8 349.59064 67.84688 349.59064Q66.6125 349.59064 65.89375 348.7Q65.05 347.6375 65.05 345.21564ZM66.12813 345.21564Q66.12813 347.325 66.62813 348.02814Q67.12813 348.73126 67.84688 348.73126Q68.58125 348.73126 69.06563 348.02814Q69.56563 347.325 69.56563 345.21564Q69.56563 343.09064 69.06563 342.40314Q68.58125 341.7 67.83125 341.7Q67.1125 341.7 66.675 342.3094Q66.12813 343.09064 66.12813 345.21564Z" fill-rule="nonzero"/><path fill="#000000" d="M62.01875 321.09668L60.971874 321.09668L60.971874 314.37793Q60.58125 314.7373 59.95625 315.1123Q59.346874 315.47168 58.8625 315.64355L58.8625 314.62793Q59.7375 314.20605 60.39375 313.62793Q61.065624 313.03418 61.346874 312.47168L62.01875 312.47168L62.01875 321.09668ZM65.05 316.8623Q65.05 315.33105 65.3625 314.40918Q65.675 313.47168 66.28438 312.97168Q66.90938 312.47168 67.84688 312.47168Q68.53438 312.47168 69.05 312.75293Q69.58125 313.03418 69.925 313.56543Q70.26875 314.08105 70.45625 314.83105Q70.64375 315.58105 70.64375 316.8623Q70.64375 318.37793 70.33125 319.2998Q70.03438 320.22168 69.40938 320.7373Q68.8 321.2373 67.84688 321.2373Q66.6125 321.2373 65.89375 320.34668Q65.05 319.28418 65.05 316.8623ZM66.12813 316.8623Q66.12813 318.97168 66.62813 319.6748Q67.12813 320.37793 67.84688 320.37793Q68.58125 320.37793 69.06563 319.6748Q69.56563 318.97168 69.56563 316.8623Q69.56563 314.7373 69.06563 314.0498Q68.58125 313.34668 67.83125 313.34668Q67.1125 313.34668 66.675 313.95605Q66.12813 314.7373 66.12813 316.8623Z" fill-rule="nonzero"/><path fill="#000000" d="M63.596874 291.72772L63.596874 292.74335L57.909374 292.74335Q57.909374 292.36835 58.034374 292.00897Q58.253124 291.43085 58.721874 290.86835Q59.20625 290.30585 60.1125 289.57147Q61.51875 288.41522 62.003124 287.74335Q62.503124 287.07147 62.503124 286.47772Q62.503124 285.85272 62.05 285.43085Q61.596874 284.99335 60.878124 284.99335Q60.1125 284.99335 59.659374 285.44647Q59.20625 285.8996 59.190624 286.7121L58.1125 286.60272Q58.221874 285.38397 58.940624 284.75897Q59.675 284.11835 60.909374 284.11835Q62.14375 284.11835 62.8625 284.80585Q63.58125 285.49335 63.58125 286.50897Q63.58125 287.0246 63.3625 287.5246Q63.159374 288.00897 62.659374 288.57147Q62.175 289.11835 61.05 290.07147Q60.096874 290.86835 59.815624 291.16522Q59.55 291.44647 59.378124 291.72772L63.596874 291.72772ZM65.05 288.50897Q65.05 286.97772 65.3625 286.05585Q65.675 285.11835 66.28438 284.61835Q66.90938 284.11835 67.84688 284.11835Q68.53438 284.11835 69.05 284.3996Q69.58125 284.68085 69.925 285.2121Q70.26875 285.72772 70.45625 286.47772Q70.64375 287.22772 70.64375 288.50897Q70.64375 290.0246 70.33125 290.94647Q70.03438 291.86835 69.40938 292.38397Q68.8 292.88397 67.84688 292.88397Q66.6125 292.88397 65.89375 291.99335Q65.05 290.93085 65.05 288.50897ZM66.12813 288.50897Q66.12813 290.61835 66.62813 291.32147Q67.12813 292.0246 67.84688 292.0246Q68.58125 292.0246 69.06563 291.32147Q69.56563 290.61835 69.56563 288.50897Q69.56563 286.38397 69.06563 285.69647Q68.58125 284.99335 67.83125 284.99335Q67.1125 284.99335 66.675 285.60272Q66.12813 286.38397 66.12813 288.50897Z" fill-rule="nonzero"/><path fill="#000000" d="M58.05 262.1244L59.1125 261.98376Q59.284374 262.8744 59.721874 263.28064Q60.159374 263.67126 60.784374 263.67126Q61.534374 263.67126 62.05 263.15564Q62.565624 262.64 62.565624 261.8744Q62.565624 261.15564 62.08125 260.6869Q61.6125 260.2025 60.878124 260.2025Q60.58125 260.2025 60.128124 260.3275L60.253124 259.39Q60.3625 259.40564 60.425 259.40564Q61.096874 259.40564 61.628124 259.0619Q62.175 258.7025 62.175 257.96814Q62.175 257.39 61.784374 257.015Q61.39375 256.6244 60.76875 256.6244Q60.159374 256.6244 59.7375 257.015Q59.33125 257.40564 59.221874 258.17126L58.159374 257.98376Q58.346874 256.9369 59.034374 256.35876Q59.721874 255.76501 60.7375 255.76501Q61.440624 255.76501 62.034374 256.0775Q62.628124 256.3744 62.940624 256.89Q63.253124 257.40564 63.253124 257.9994Q63.253124 258.54626 62.95625 259.015Q62.659374 259.46814 62.08125 259.73376Q62.83125 259.90564 63.253124 260.46814Q63.675 261.015 63.675 261.85876Q63.675 262.98376 62.846874 263.765Q62.034374 264.54626 60.784374 264.54626Q59.659374 264.54626 58.909374 263.8744Q58.159374 263.1869 58.05 262.1244ZM65.05 260.15564Q65.05 258.6244 65.3625 257.7025Q65.675 256.765 66.28438 256.265Q66.90938 255.76501 67.84688 255.76501Q68.53438 255.76501 69.05 256.04626Q69.58125 256.3275 69.925 256.85876Q70.26875 257.3744 70.45625 258.1244Q70.64375 258.8744 70.64375 260.15564Q70.64375 261.67126 70.33125 262.59314Q70.03438 263.515 69.40938 264.03064Q68.8 264.53064 67.84688 264.53064Q66.6125 264.53064 65.89375 263.64Q65.05 262.5775 65.05 260.15564ZM66.12813 260.15564Q66.12813 262.265 66.62813 262.96814Q67.12813 263.67126 67.84688 263.67126Q68.58125 263.67126 69.06563 262.96814Q69.56563 262.265 69.56563 260.15564Q69.56563 258.03064 69.06563 257.34314Q68.58125 256.64 67.83125 256.64Q67.1125 256.64 66.675 257.2494Q66.12813 258.03064 66.12813 260.15564Z" fill-rule="nonzero"/><path fill="#000000" d="M61.425 236.03667L61.425 233.97417L57.70625 233.97417L57.70625 233.00542L61.628124 227.44292L62.4875 227.44292L62.4875 233.00542L63.64375 233.00542L63.64375 233.97417L62.4875 233.97417L62.4875 236.03667L61.425 236.03667ZM61.425 233.00542L61.425 229.14604L58.7375 233.00542L61.425 233.00542ZM65.05 231.80229Q65.05 230.27104 65.3625 229.34917Q65.675 228.41167 66.28438 227.91167Q66.90938 227.41167 67.84688 227.41167Q68.53438 227.41167 69.05 227.69292Q69.58125 227.97417 69.925 228.50542Q70.26875 229.02104 70.45625 229.77104Q70.64375 230.52104 70.64375 231.80229Q70.64375 233.31792 70.33125 234.23979Q70.03438 235.16167 69.40938 235.67729Q68.8 236.17729 67.84688 236.17729Q66.6125 236.17729 65.89375 235.28667Q65.05 234.22417 65.05 231.80229ZM66.12813 231.80229Q66.12813 233.91167 66.62813 234.61479Q67.12813 235.31792 67.84688 235.31792Q68.58125 235.31792 69.06563 234.61479Q69.56563 233.91167 69.56563 231.80229Q69.56563 229.67729 69.06563 228.98979Q68.58125 228.28667 67.83125 228.28667Q67.1125 228.28667 66.675 228.89604Q66.12813 229.67729 66.12813 231.80229Z" fill-rule="nonzero"/><path fill="#000000" d="M58.05 205.43333L59.159374 205.33958Q59.284374 206.15208 59.721874 206.55833Q60.175 206.96458 60.815624 206.96458Q61.565624 206.96458 62.096874 206.38646Q62.628124 205.80833 62.628124 204.87083Q62.628124 203.96458 62.1125 203.44896Q61.6125 202.91771 60.784374 202.91771Q60.284374 202.91771 59.8625 203.15208Q59.45625 203.38646 59.221874 203.74583L58.2375 203.62083L59.065624 199.21458L63.346874 199.21458L63.346874 200.21458L59.909374 200.21458L59.45625 202.52708Q60.221874 201.98021 61.065624 201.98021Q62.190624 201.98021 62.95625 202.76146Q63.7375 203.54271 63.7375 204.77708Q63.7375 205.93333 63.065624 206.79271Q62.2375 207.82396 60.815624 207.82396Q59.64375 207.82396 58.89375 207.16771Q58.159374 206.51146 58.05 205.43333ZM65.05 203.44896Q65.05 201.91771 65.3625 200.99583Q65.675 200.05833 66.28438 199.55833Q66.90938 199.05833 67.84688 199.05833Q68.53438 199.05833 69.05 199.33958Q69.58125 199.62083 69.925 200.15208Q70.26875 200.66771 70.45625 201.41771Q70.64375 202.16771 70.64375 203.44896Q70.64375 204.96458 70.33125 205.88646Q70.03438 206.80833 69.40938 207.32396Q68.8 207.82396 67.84688 207.82396Q66.6125 207.82396 65.89375 206.93333Q65.05 205.87083 65.05 203.44896ZM66.12813 203.44896Q66.12813 205.55833 66.62813 206.26146Q67.12813 206.96458 67.84688 206.96458Q68.58125 206.96458 69.06563 206.26146Q69.56563 205.55833 69.56563 203.44896Q69.56563 201.32396 69.06563 200.63646Q68.58125 199.93333 67.83125 199.93333Q67.1125 199.93333 66.675 200.54271Q66.12813 201.32396 66.12813 203.44896Z" fill-rule="nonzero"/><path fill="#000000" d="M63.51875 172.84563L62.471874 172.92375Q62.33125 172.29875 62.08125 172.0175Q61.64375 171.56438 61.01875 171.56438Q60.51875 171.56438 60.128124 171.84563Q59.64375 172.22063 59.346874 172.92375Q59.065624 173.61125 59.05 174.8925Q59.425 174.31438 59.971874 174.03313Q60.534374 173.75188 61.14375 173.75188Q62.190624 173.75188 62.925 174.53313Q63.675 175.31438 63.675 176.53313Q63.675 177.34563 63.315624 178.04875Q62.971874 178.73625 62.3625 179.11125Q61.753124 179.47063 60.9875 179.47063Q59.659374 179.47063 58.83125 178.50188Q58.003124 177.53313 58.003124 175.31438Q58.003124 172.81438 58.925 171.68938Q59.721874 170.705 61.08125 170.705Q62.096874 170.705 62.7375 171.28313Q63.39375 171.84563 63.51875 172.84563ZM59.221874 176.54875Q59.221874 177.09563 59.440624 177.59563Q59.675 178.08 60.08125 178.34563Q60.503124 178.61125 60.971874 178.61125Q61.628124 178.61125 62.1125 178.08Q62.596874 177.53313 62.596874 176.61125Q62.596874 175.72063 62.1125 175.205Q61.64375 174.68938 60.925 174.68938Q60.20625 174.68938 59.70625 175.205Q59.221874 175.72063 59.221874 176.54875ZM65.05 175.09563Q65.05 173.56438 65.3625 172.6425Q65.675 171.705 66.28438 171.205Q66.90938 170.705 67.84688 170.705Q68.53438 170.705 69.05 170.98625Q69.58125 171.2675 69.925 171.79875Q70.26875 172.31438 70.45625 173.06438Q70.64375 173.81438 70.64375 175.09563Q70.64375 176.61125 70.33125 177.53313Q70.03438 178.455 69.40938 178.97063Q68.8 179.47063 67.84688 179.47063Q66.6125 179.47063 65.89375 178.58Q65.05 177.5175 65.05 175.09563ZM66.12813 175.09563Q66.12813 177.205 66.62813 177.90813Q67.12813 178.61125 67.84688 178.61125Q68.58125 178.61125 69.06563 177.90813Q69.56563 177.205 69.56563 175.09563Q69.56563 172.97063 69.06563 172.28313Q68.58125 171.58 67.83125 171.58Q67.1125 171.58 66.675 172.18938Q66.12813 172.97063 66.12813 175.09563Z" fill-rule="nonzero"/><path fill="#000000" d="M58.1125 143.50792L58.1125 142.4923L63.675 142.4923L63.675 143.32042Q62.8625 144.19542 62.05 145.64854Q61.253124 147.08604 60.815624 148.6173Q60.4875 149.69542 60.409374 150.97667L59.315624 150.97667Q59.33125 149.96104 59.70625 148.52354Q60.096874 147.08604 60.8 145.75792Q61.51875 144.4298 62.33125 143.50792L58.1125 143.50792ZM65.05 146.7423Q65.05 145.21104 65.3625 144.28917Q65.675 143.35167 66.28438 142.85167Q66.90938 142.35167 67.84688 142.35167Q68.53438 142.35167 69.05 142.63292Q69.58125 142.91417 69.925 143.44542Q70.26875 143.96104 70.45625 144.71104Q70.64375 145.46104 70.64375 146.7423Q70.64375 148.25792 70.33125 149.1798Q70.03438 150.10167 69.40938 150.6173Q68.8 151.1173 67.84688 151.1173Q66.6125 151.1173 65.89375 150.22667Q65.05 149.16417 65.05 146.7423ZM66.12813 146.7423Q66.12813 148.85167 66.62813 149.5548Q67.12813 150.25792 67.84688 150.25792Q68.58125 150.25792 69.06563 149.5548Q69.56563 148.85167 69.56563 146.7423Q69.56563 144.6173 69.06563 143.9298Q68.58125 143.22667 67.83125 143.22667Q67.1125 143.22667 66.675 143.83604Q66.12813 144.6173 66.12813 146.7423Z" fill-rule="nonzero"/><path fill="#000000" d="M59.675 117.96709Q59.01875 117.71709 58.690624 117.27959Q58.378124 116.82646 58.378124 116.21709Q58.378124 115.27959 59.05 114.63896Q59.7375 113.99834 60.846874 113.99834Q61.971874 113.99834 62.659374 114.65459Q63.346874 115.31084 63.346874 116.24834Q63.346874 116.84209 63.034374 117.27959Q62.721874 117.71709 62.08125 117.96709Q62.878124 118.21709 63.284374 118.79521Q63.690624 119.37334 63.690624 120.17021Q63.690624 121.26396 62.909374 122.01396Q62.14375 122.76396 60.8625 122.76396Q59.596874 122.76396 58.815624 122.01396Q58.034374 121.26396 58.034374 120.13896Q58.034374 119.29521 58.45625 118.73271Q58.89375 118.17021 59.675 117.96709ZM59.45625 116.17021Q59.45625 116.77959 59.846874 117.17021Q60.253124 117.56084 60.878124 117.56084Q61.4875 117.56084 61.878124 117.18584Q62.26875 116.79521 62.26875 116.23271Q62.26875 115.65459 61.8625 115.26396Q61.45625 114.85771 60.8625 114.85771Q60.253124 114.85771 59.846874 115.24834Q59.45625 115.63896 59.45625 116.17021ZM59.128124 120.13896Q59.128124 120.59209 59.33125 121.01396Q59.55 121.43584 59.971874 121.67021Q60.39375 121.90459 60.878124 121.90459Q61.628124 121.90459 62.1125 121.42021Q62.6125 120.93584 62.6125 120.18584Q62.6125 119.42021 62.1125 118.92021Q61.6125 118.42021 60.846874 118.42021Q60.096874 118.42021 59.6125 118.92021Q59.128124 119.40459 59.128124 120.13896ZM65.05 118.38896Q65.05 116.85771 65.3625 115.93584Q65.675 114.99834 66.28438 114.49834Q66.90938 113.99834 67.84688 113.99834Q68.53438 113.99834 69.05 114.27959Q69.58125 114.56084 69.925 115.09209Q70.26875 115.60771 70.45625 116.35771Q70.64375 117.10771 70.64375 118.38896Q70.64375 119.90459 70.33125 120.82646Q70.03438 121.74834 69.40938 122.26396Q68.8 122.76396 67.84688 122.76396Q66.6125 122.76396 65.89375 121.87334Q65.05 120.81084 65.05 118.38896ZM66.12813 118.38896Q66.12813 120.49834 66.62813 121.20146Q67.12813 121.90459 67.84688 121.90459Q68.58125 121.90459 69.06563 121.20146Q69.56563 120.49834 69.56563 118.38896Q69.56563 116.26396 69.06563 115.57646Q68.58125 114.87334 67.83125 114.87334Q67.1125 114.87334 66.675 115.48271Q66.12813 116.26396 66.12813 118.38896Z" fill-rule="nonzero"/><path fill="#000000" d="M58.20625 92.28562L59.221874 92.19187Q59.346874 92.91062 59.70625 93.23875Q60.08125 93.55125 60.64375 93.55125Q61.128124 93.55125 61.4875 93.3325Q61.8625 93.09812 62.096874 92.73875Q62.33125 92.36375 62.4875 91.73875Q62.64375 91.09812 62.64375 90.44187Q62.64375 90.36375 62.64375 90.22312Q62.33125 90.72312 61.784374 91.05125Q61.2375 91.36375 60.596874 91.36375Q59.51875 91.36375 58.784374 90.59812Q58.05 89.81687 58.05 88.55125Q58.05 87.23875 58.815624 86.44187Q59.596874 85.645 60.753124 85.645Q61.58125 85.645 62.26875 86.09812Q62.971874 86.55125 63.33125 87.395Q63.690624 88.22312 63.690624 89.80125Q63.690624 91.44187 63.33125 92.42625Q62.9875 93.395 62.26875 93.91062Q61.565624 94.41062 60.628124 94.41062Q59.6125 94.41062 58.971874 93.86375Q58.33125 93.30125 58.20625 92.28562ZM62.51875 88.48875Q62.51875 87.5825 62.034374 87.05125Q61.565624 86.52 60.878124 86.52Q60.175 86.52 59.64375 87.09812Q59.128124 87.66062 59.128124 88.5825Q59.128124 89.395 59.628124 89.91062Q60.128124 90.42625 60.846874 90.42625Q61.58125 90.42625 62.05 89.91062Q62.51875 89.395 62.51875 88.48875ZM65.05 90.03562Q65.05 88.50437 65.3625 87.5825Q65.675 86.645 66.28438 86.145Q66.90938 85.645 67.84688 85.645Q68.53438 85.645 69.05 85.92625Q69.58125 86.2075 69.925 86.73875Q70.26875 87.25437 70.45625 88.00437Q70.64375 88.75437 70.64375 90.03562Q70.64375 91.55125 70.33125 92.47312Q70.03438 93.395 69.40938 93.91062Q68.8 94.41062 67.84688 94.41062Q66.6125 94.41062 65.89375 93.52Q65.05 92.4575 65.05 90.03562ZM66.12813 90.03562Q66.12813 92.145 66.62813 92.84812Q67.12813 93.55125 67.84688 93.55125Q68.58125 93.55125 69.06563 92.84812Q69.56563 92.145 69.56563 90.03562Q69.56563 87.91062 69.06563 87.22312Q68.58125 86.52 67.83125 86.52Q67.1125 86.52 66.675 87.12937Q66.12813 87.91062 66.12813 90.03562Z" fill-rule="nonzero"/><path fill="#000000" d="M55.01875 65.916664L53.971874 65.916664L53.971874 59.197914Q53.58125 59.55729 52.95625 59.93229Q52.346874 60.291664 51.8625 60.46354L51.8625 59.447914Q52.7375 59.02604 53.39375 58.447914Q54.065624 57.854164 54.346874 57.291664L55.01875 57.291664L55.01875 65.916664ZM58.05 61.68229Q58.05 60.15104 58.3625 59.229164Q58.675 58.291664 59.284374 57.791664Q59.909374 57.291664 60.846874 57.291664Q61.534374 57.291664 62.05 57.572914Q62.58125 57.854164 62.925 58.385414Q63.26875 58.90104 63.45625 59.65104Q63.64375 60.40104 63.64375 61.68229Q63.64375 63.197914 63.33125 64.11979Q63.034374 65.041664 62.409374 65.55729Q61.8 66.05729 60.846874 66.05729Q59.6125 66.05729 58.89375 65.166664Q58.05 64.104164 58.05 61.68229ZM59.128124 61.68229Q59.128124 63.791664 59.628124 64.49479Q60.128124 65.197914 60.846874 65.197914Q61.58125 65.197914 62.065624 64.49479Q62.565624 63.791664 62.565624 61.68229Q62.565624 59.55729 62.065624 58.86979Q61.58125 58.166664 60.83125 58.166664Q60.1125 58.166664 59.675 58.77604Q59.128124 59.55729 59.128124 61.68229ZM65.05 61.68229Q65.05 60.15104 65.3625 59.229164Q65.675 58.291664 66.28438 57.791664Q66.90938 57.291664 67.84688 57.291664Q68.53438 57.291664 69.05 57.572914Q69.58125 57.854164 69.925 58.385414Q70.26875 58.90104 70.45625 59.65104Q70.64375 60.40104 70.64375 61.68229Q70.64375 63.197914 70.33125 64.11979Q70.03438 65.041664 69.40938 65.55729Q68.8 66.05729 67.84688 66.05729Q66.6125 66.05729 65.89375 65.166664Q65.05 64.104164 65.05 61.68229ZM66.12813 61.68229Q66.12813 63.791664 66.62813 64.49479Q67.12813 65.197914 67.84688 65.197914Q68.58125 65.197914 69.06563 64.49479Q69.56563 63.791664 69.56563 61.68229Q69.56563 59.55729 69.06563 58.86979Q68.58125 58.166664 67.83125 58.166664Q67.1125 58.166664 66.675 58.77604Q66.12813 59.55729 66.12813 61.68229Z" fill-rule="nonzero"/><path fill="#757575" d="M20.096874 37.55L20.096874 23.2375L25.01875 23.2375Q26.690624 23.2375 27.58125 23.440624Q28.8 23.721874 29.675 24.45625Q30.8 25.425 31.3625 26.909374Q31.925 28.39375 31.925 30.315624Q31.925 31.940624 31.55 33.20625Q31.175 34.45625 30.565624 35.284374Q29.971874 36.1125 29.26875 36.596874Q28.565624 37.065624 27.565624 37.315624Q26.565624 37.55 25.253124 37.55L20.096874 37.55ZM21.9875 35.8625L25.05 35.8625Q26.45625 35.8625 27.253124 35.596874Q28.065624 35.33125 28.55 34.846874Q29.221874 34.175 29.596874 33.05Q29.971874 31.909374 29.971874 30.284374Q29.971874 28.034374 29.2375 26.83125Q28.503124 25.628124 27.440624 25.221874Q26.690624 24.925 25.003124 24.925L21.9875 24.925L21.9875 35.8625ZM40.64375 36.26875Q39.659374 37.096874 38.753124 37.440624Q37.846874 37.784374 36.815624 37.784374Q35.1125 37.784374 34.190624 36.95625Q33.26875 36.1125 33.26875 34.815624Q33.26875 34.05 33.6125 33.425Q33.971874 32.8 34.534374 32.425Q35.096874 32.034374 35.8 31.83125Q36.315624 31.70625 37.3625 31.565624Q39.4875 31.315624 40.4875 30.971874Q40.503124 30.6125 40.503124 30.503124Q40.503124 29.440624 40.003124 28.9875Q39.33125 28.39375 38.003124 28.39375Q36.753124 28.39375 36.159374 28.83125Q35.58125 29.26875 35.3 30.378124L33.58125 30.14375Q33.815624 29.034374 34.346874 28.3625Q34.878124 27.675 35.89375 27.315624Q36.909374 26.940624 38.253124 26.940624Q39.58125 26.940624 40.409374 27.253124Q41.2375 27.565624 41.628124 28.05Q42.01875 28.51875 42.175 29.2375Q42.26875 29.690624 42.26875 30.8625L42.26875 33.20625Q42.26875 35.659374 42.378124 36.315624Q42.4875 36.95625 42.83125 37.55L40.9875 37.55Q40.721874 37.003124 40.64375 36.26875ZM40.4875 32.346874Q39.534374 32.7375 37.6125 33.003124Q36.534374 33.159374 36.08125 33.3625Q35.64375 33.55 35.39375 33.925Q35.14375 34.3 35.14375 34.76875Q35.14375 35.471874 35.675 35.940624Q36.20625 36.409374 37.2375 36.409374Q38.253124 36.409374 39.034374 35.971874Q39.83125 35.51875 40.20625 34.753124Q40.4875 34.14375 40.4875 32.9875L40.4875 32.346874ZM44.846874 37.55L44.846874 27.175L46.425 27.175L46.425 28.753124Q47.034374 27.64375 47.55 27.3Q48.065624 26.940624 48.675 26.940624Q49.565624 26.940624 50.4875 27.503124L49.878124 29.14375Q49.2375 28.753124 48.596874 28.753124Q48.01875 28.753124 47.55 29.1125Q47.096874 29.45625 46.89375 30.065624Q46.6125 31.003124 46.6125 32.1125L46.6125 37.55L44.846874 37.55ZM51.878124 37.55L51.878124 23.2375L53.64375 23.2375L53.64375 31.39375L57.8 27.175L60.065624 27.175L56.1125 31.01875L60.471874 37.55L58.3 37.55L54.878124 32.253124L53.64375 33.440624L53.64375 37.55L51.878124 37.55ZM68.64375 33.753124L70.3625 33.971874Q70.08125 35.76875 68.90938 36.784374Q67.75313 37.784374 66.05 37.784374Q63.925 37.784374 62.628124 36.39375Q61.33125 35.003124 61.33125 32.409374Q61.33125 30.721874 61.878124 29.471874Q62.440624 28.20625 63.58125 27.58125Q64.72188 26.940624 66.06563 26.940624Q67.75313 26.940624 68.81563 27.8Q69.89375 28.659374 70.20625 30.221874L68.4875 30.4875Q68.25313 29.440624 67.62813 28.925Q67.00313 28.39375 66.12813 28.39375Q64.8 28.39375 63.971874 29.346874Q63.14375 30.3 63.14375 32.346874Q63.14375 34.440624 63.940624 35.39375Q64.7375 36.33125 66.03438 36.33125Q67.06563 36.33125 67.75313 35.70625Q68.45625 35.065624 68.64375 33.753124ZM71.78438 41.55L71.59688 39.89375Q72.175 40.05 72.59688 40.05Q73.19063 40.05 73.53438 39.846874Q73.89375 39.659374 74.1125 39.315624Q74.28438 39.05 74.65938 38.003124Q74.70625 37.846874 74.81563 37.565624L70.87813 27.175L72.76875 27.175L74.925 33.190624Q75.34688 34.33125 75.675 35.58125Q75.9875 34.378124 76.39375 33.221874L78.6125 27.175L80.37813 27.175L76.425 37.721874Q75.8 39.440624 75.44063 40.08125Q74.97188 40.95625 74.3625 41.346874Q73.76875 41.753124 72.925 41.753124Q72.40938 41.753124 71.78438 41.55ZM88.64375 33.753124L90.3625 33.971874Q90.08125 35.76875 88.90938 36.784374Q87.75313 37.784374 86.05 37.784374Q83.925 37.784374 82.62813 36.39375Q81.33125 35.003124 81.33125 32.409374Q81.33125 30.721874 81.87813 29.471874Q82.44063 28.20625 83.58125 27.58125Q84.72188 26.940624 86.06563 26.940624Q87.75313 26.940624 88.81563 27.8Q89.89375 28.659374 90.20625 30.221874L88.4875 30.4875Q88.25313 29.440624 87.62813 28.925Q87.00313 28.39375 86.12813 28.39375Q84.8 28.39375 83.97188 29.346874Q83.14375 30.3 83.14375 32.346874Q83.14375 34.440624 83.94063 35.39375Q84.7375 36.33125 86.03438 36.33125Q87.06563 36.33125 87.75313 35.70625Q88.45625 35.065624 88.64375 33.753124ZM91.83125 37.55L91.83125 23.2375L93.58125 23.2375L93.58125 37.55L91.83125 37.55ZM102.97188 34.20625L104.78438 34.440624Q104.3625 36.01875 103.19063 36.909374Q102.03438 37.784374 100.22188 37.784374Q97.95625 37.784374 96.6125 36.39375Q95.28438 34.9875 95.28438 32.45625Q95.28438 29.83125 96.62813 28.39375Q97.97188 26.940624 100.12813 26.940624Q102.20625 26.940624 103.51875 28.3625Q104.84688 29.76875 104.84688 32.346874Q104.84688 32.503124 104.83125 32.815624L97.09688 32.815624Q97.19063 34.51875 98.06563 35.425Q98.94063 36.33125 100.2375 36.33125Q101.20625 36.33125 101.87813 35.83125Q102.56563 35.315624 102.97188 34.20625ZM97.19063 31.3625L102.9875 31.3625Q102.87813 30.065624 102.33125 29.409374Q101.4875 28.39375 100.14375 28.39375Q98.94063 28.39375 98.1125 29.20625Q97.28438 30.003124 97.19063 31.3625Z" fill-rule="nonzero"/></svg>