<svg version="1.1" viewBox="0.0 0.0 600.0 371.0" fill="none" stroke="none" stroke-linecap="square" stroke-miterlimit="10" width="600" height="371" xmlns:xlink="http://www.w3.org/1999/xlink" xmlns="http://www.w3.org/2000/svg"><path fill="#ffffff" d="M0 0L600.0 0L600.0 371.0L0 371.0L0 0Z" fill-rule="nonzero"/><path stroke="#333333" stroke-width="1.0" stroke-linecap="butt" d="M77.5 345.5L581.5 345.5" fill-rule="nonzero"/><path stroke="#cccccc" stroke-width="1.0" stroke-linecap="butt" d="M77.5 317.5L581.5 317.5" fill-rule="nonzero"/><path stroke="#cccccc" stroke-width="1.0" stroke-linecap="butt" d="M77.5 288.5L581.5 288.5" fill-rule="nonzero"/><path stroke="#cccccc" stroke-width="1.0" stroke-linecap="butt" d="M77.5 260.5L581.5 260.5" fill-rule="nonzero"/><path stroke="#cccccc" stroke-width="1.0" stroke-linecap="butt" d="M77.5 232.5L581.5 232.5" fill-rule="nonzero"/><path stroke="#cccccc" stroke-width="1.0" stroke-linecap="butt" d="M77.5 203.5L581.5 203.5" fill-rule="nonzero"/><path stroke="#cccccc" stroke-width="1.0" stroke-linecap="butt" d="M77.5 175.5L581.5 175.5" fill-rule="nonzero"/><path stroke="#cccccc" stroke-width="1.0" stroke-linecap="butt" d="M77.5 146.5L581.5 146.5" fill-rule="nonzero"/><path stroke="#cccccc" stroke-width="1.0" stroke-linecap="butt" d="M77.5 118.5L581.5 118.5" fill-rule="nonzero"/><path stroke="#cccccc" stroke-width="1.0" stroke-linecap="butt" d="M77.5 90.5L581.5 90.5" fill-rule="nonzero"/><path stroke="#cccccc" stroke-width="1.0" stroke-linecap="butt" d="M77.5 61.5L581.5 61.5" fill-rule="nonzero"/><clipPath id="id_0"><path d="M77.55 61.916668L581.45 61.916668L581.45 345.45L77.55 345.45L77.55 61.916668Z" clip-rule="nonzero"/></clipPath><path stroke="#434343" stroke-width="2.0" stroke-linecap="butt" clip-path="url(#id_0)" d="M82.91064 61.916668L93.63191 203.68333L104.353195 203.68333L115.07447 232.03667L125.795746 232.03667L136.51703 232.03667L147.2383 260.39L157.95958 317.09668L168.68085 317.09668L179.40213 317.09668L190.1234 317.09668L200.84468 317.09668L211.56596 317.09668L222.28723 331.27335L233.00851 331.27335L243.72978 331.27335L254.45107 331.27335L265.17233 331.27335L275.89362 331.27335L286.6149 345.45L297.33618 345.45L308.05743 345.45L318.77872 345.45L329.5 345.45L340.22128 345.45L350.94257 345.45L361.66382 345.45L372.3851 345.45L383.10638 345.45L393.82767 345.45L404.54895 345.45L415.2702 345.45L425.9915 345.45L436.71277 345.45L447.43405 345.45L458.1553 345.45L468.8766 345.45L479.59787 345.45L490.31915 345.45L501.04044 345.45L511.7617 345.45L522.483 345.45L533.2043 345.45L543.92554 345.45L554.6468 345.45L565.3681 345.45L576.08936 345.45" fill-rule="nonzero"/><path fill="#434343" clip-path="url(#id_0)" d="M88.91064 61.916668C88.91064 65.23038 86.22435 67.916664 82.91064 67.916664C79.59693 67.916664 76.91064 65.23038 76.91064 61.916668C76.91064 58.60296 79.59693 55.916668 82.91064 55.916668C86.22435 55.916668 88.91064 58.60296 88.91064 61.916668Z" fill-rule="nonzero"/><path fill="#434343" clip-path="url(#id_0)" d="M99.63191 203.68333C99.63191 206.99704 96.945625 209.68333 93.63191 209.68333C90.31821 209.68333 87.63191 206.99704 87.63191 203.68333C87.63191 200.36963 90.31821 197.68333 93.63191 197.68333C96.945625 197.68333 99.63191 200.36963 99.63191 203.68333Z" fill-rule="nonzero"/><path fill="#434343" clip-path="url(#id_0)" d="M110.353195 203.68333C110.353195 206.99704 107.6669 209.68333 104.353195 209.68333C101.03948 209.68333 98.353195 206.99704 98.353195 203.68333C98.353195 200.36963 101.03948 197.68333 104.353195 197.68333C107.6669 197.68333 110.353195 200.36963 110.353195 203.68333Z" fill-rule="nonzero"/><path fill="#434343" clip-path="url(#id_0)" d="M121.07447 232.03667C121.07447 235.35037 118.388176 238.03667 115.07447 238.03667C111.76076 238.03667 109.07447 235.35037 109.07447 232.03667C109.07447 228.72296 111.76076 226.03667 115.07447 226.03667C118.388176 226.03667 121.07447 228.72296 121.07447 232.03667Z" fill-rule="nonzero"/><path fill="#434343" clip-path="url(#id_0)" d="M131.79575 232.03667C131.79575 235.35037 129.10945 238.03667 125.795746 238.03667C122.48203 238.03667 119.795746 235.35037 119.795746 232.03667C119.795746 228.72296 122.48203 226.03667 125.795746 226.03667C129.10945 226.03667 131.79575 228.72296 131.79575 232.03667Z" fill-rule="nonzero"/><path fill="#434343" clip-path="url(#id_0)" d="M142.51703 232.03667C142.51703 235.35037 139.83073 238.03667 136.51703 238.03667C133.20331 238.03667 130.51703 235.35037 130.51703 232.03667C130.51703 228.72296 133.20331 226.03667 136.51703 226.03667C139.83073 226.03667 142.51703 228.72296 142.51703 232.03667Z" fill-rule="nonzero"/><path fill="#434343" clip-path="url(#id_0)" d="M153.2383 260.39C153.2383 263.7037 150.552 266.39 147.2383 266.39C143.92459 266.39 141.2383 263.7037 141.2383 260.39C141.2383 257.0763 143.92459 254.39 147.2383 254.39C150.552 254.39 153.2383 257.0763 153.2383 260.39Z" fill-rule="nonzero"/><path fill="#434343" clip-path="url(#id_0)" d="M163.95958 317.09668C163.95958 320.41037 161.27328 323.09668 157.95958 323.09668C154.64586 323.09668 151.95958 320.41037 151.95958 317.09668C151.95958 313.78296 154.64586 311.09668 157.95958 311.09668C161.27328 311.09668 163.95958 313.78296 163.95958 317.09668Z" fill-rule="nonzero"/><path fill="#434343" clip-path="url(#id_0)" d="M174.68085 317.09668C174.68085 320.41037 171.99455 323.09668 168.68085 323.09668C165.36714 323.09668 162.68085 320.41037 162.68085 317.09668C162.68085 313.78296 165.36714 311.09668 168.68085 311.09668C171.99455 311.09668 174.68085 313.78296 174.68085 317.09668Z" fill-rule="nonzero"/><path fill="#434343" clip-path="url(#id_0)" d="M185.40213 317.09668C185.40213 320.41037 182.71584 323.09668 179.40213 323.09668C176.08842 323.09668 173.40213 320.41037 173.40213 317.09668C173.40213 313.78296 176.08842 311.09668 179.40213 311.09668C182.71584 311.09668 185.40213 313.78296 185.40213 317.09668Z" fill-rule="nonzero"/><path fill="#434343" clip-path="url(#id_0)" d="M196.1234 317.09668C196.1234 320.41037 193.43712 323.09668 190.1234 323.09668C186.8097 323.09668 184.1234 320.41037 184.1234 317.09668C184.1234 313.78296 186.8097 311.09668 190.1234 311.09668C193.43712 311.09668 196.1234 313.78296 196.1234 317.09668Z" fill-rule="nonzero"/><path fill="#434343" clip-path="url(#id_0)" d="M206.84468 317.09668C206.84468 320.41037 204.15839 323.09668 200.84468 323.09668C197.53098 323.09668 194.84468 320.41037 194.84468 317.09668C194.84468 313.78296 197.53098 311.09668 200.84468 311.09668C204.15839 311.09668 206.84468 313.78296 206.84468 317.09668Z" fill-rule="nonzero"/><path fill="#434343" clip-path="url(#id_0)" d="M217.56596 317.09668C217.56596 320.41037 214.87967 323.09668 211.56596 323.09668C208.25224 323.09668 205.56596 320.41037 205.56596 317.09668C205.56596 313.78296 208.25224 311.09668 211.56596 311.09668C214.87967 311.09668 217.56596 313.78296 217.56596 317.09668Z" fill-rule="nonzero"/><path fill="#434343" clip-path="url(#id_0)" d="M228.28723 331.27335C228.28723 334.58704 225.60094 337.27335 222.28723 337.27335C218.97353 337.27335 216.28723 334.58704 216.28723 331.27335C216.28723 327.95963 218.97353 325.27335 222.28723 325.27335C225.60094 325.27335 228.28723 327.95963 228.28723 331.27335Z" fill-rule="nonzero"/><path fill="#434343" clip-path="url(#id_0)" d="M239.00851 331.27335C239.00851 334.58704 236.32222 337.27335 233.00851 337.27335C229.69481 337.27335 227.00851 334.58704 227.00851 331.27335C227.00851 327.95963 229.69481 325.27335 233.00851 325.27335C236.32222 325.27335 239.00851 327.95963 239.00851 331.27335Z" fill-rule="nonzero"/><path fill="#434343" clip-path="url(#id_0)" d="M249.72978 331.27335C249.72978 334.58704 247.0435 337.27335 243.72978 337.27335C240.41608 337.27335 237.72978 334.58704 237.72978 331.27335C237.72978 327.95963 240.41608 325.27335 243.72978 325.27335C247.0435 325.27335 249.72978 327.95963 249.72978 331.27335Z" fill-rule="nonzero"/><path fill="#434343" clip-path="url(#id_0)" d="M260.45105 331.27335C260.45105 334.58704 257.76477 337.27335 254.45107 337.27335C251.13736 337.27335 248.45107 334.58704 248.45107 331.27335C248.45107 327.95963 251.13736 325.27335 254.45107 325.27335C257.76477 325.27335 260.45105 327.95963 260.45105 331.27335Z" fill-rule="nonzero"/><path fill="#434343" clip-path="url(#id_0)" d="M271.17233 331.27335C271.17233 334.58704 268.48605 337.27335 265.17233 337.27335C261.85864 337.27335 259.17233 334.58704 259.17233 331.27335C259.17233 327.95963 261.85864 325.27335 265.17233 325.27335C268.48605 325.27335 271.17233 327.95963 271.17233 331.27335Z" fill-rule="nonzero"/><path fill="#434343" clip-path="url(#id_0)" d="M281.89362 331.27335C281.89362 334.58704 279.20734 337.27335 275.89362 337.27335C272.5799 337.27335 269.89362 334.58704 269.89362 331.27335C269.89362 327.95963 272.5799 325.27335 275.89362 325.27335C279.20734 325.27335 281.89362 327.95963 281.89362 331.27335Z" fill-rule="nonzero"/><path fill="#434343" clip-path="url(#id_0)" d="M292.6149 345.45C292.6149 348.7637 289.9286 351.45 286.6149 351.45C283.30118 351.45 280.6149 348.7637 280.6149 345.45C280.6149 342.1363 283.30118 339.45 286.6149 339.45C289.9286 339.45 292.6149 342.1363 292.6149 345.45Z" fill-rule="nonzero"/><path fill="#434343" clip-path="url(#id_0)" d="M303.33618 345.45C303.33618 348.7637 300.64987 351.45 297.33618 351.45C294.02246 351.45 291.33618 348.7637 291.33618 345.45C291.33618 342.1363 294.02246 339.45 297.33618 339.45C300.64987 339.45 303.33618 342.1363 303.33618 345.45Z" fill-rule="nonzero"/><path fill="#434343" clip-path="url(#id_0)" d="M314.05743 345.45C314.05743 348.7637 311.37115 351.45 308.05743 351.45C304.74374 351.45 302.05743 348.7637 302.05743 345.45C302.05743 342.1363 304.74374 339.45 308.05743 339.45C311.37115 339.45 314.05743 342.1363 314.05743 345.45Z" fill-rule="nonzero"/><path fill="#434343" clip-path="url(#id_0)" d="M324.77872 345.45C324.77872 348.7637 322.09244 351.45 318.77872 351.45C315.46503 351.45 312.77872 348.7637 312.77872 345.45C312.77872 342.1363 315.46503 339.45 318.77872 339.45C322.09244 339.45 324.77872 342.1363 324.77872 345.45Z" fill-rule="nonzero"/><path fill="#434343" clip-path="url(#id_0)" d="M335.5 345.45C335.5 348.7637 332.81372 351.45 329.5 351.45C326.18628 351.45 323.5 348.7637 323.5 345.45C323.5 342.1363 326.18628 339.45 329.5 339.45C332.81372 339.45 335.5 342.1363 335.5 345.45Z" fill-rule="nonzero"/><path fill="#434343" clip-path="url(#id_0)" d="M346.22128 345.45C346.22128 348.7637 343.53497 351.45 340.22128 351.45C336.90756 351.45 334.22128 348.7637 334.22128 345.45C334.22128 342.1363 336.90756 339.45 340.22128 339.45C343.53497 339.45 346.22128 342.1363 346.22128 345.45Z" fill-rule="nonzero"/><path fill="#434343" clip-path="url(#id_0)" d="M356.94257 345.45C356.94257 348.7637 354.25626 351.45 350.94257 351.45C347.62885 351.45 344.94257 348.7637 344.94257 345.45C344.94257 342.1363 347.62885 339.45 350.94257 339.45C354.25626 339.45 356.94257 342.1363 356.94257 345.45Z" fill-rule="nonzero"/><path fill="#434343" clip-path="url(#id_0)" d="M367.66382 345.45C367.66382 348.7637 364.97754 351.45 361.66382 351.45C358.35013 351.45 355.66382 348.7637 355.66382 345.45C355.66382 342.1363 358.35013 339.45 361.66382 339.45C364.97754 339.45 367.66382 342.1363 367.66382 345.45Z" fill-rule="nonzero"/><path fill="#434343" clip-path="url(#id_0)" d="M378.3851 345.45C378.3851 348.7637 375.69882 351.45 372.3851 351.45C369.0714 351.45 366.3851 348.7637 366.3851 345.45C366.3851 342.1363 369.0714 339.45 372.3851 339.45C375.69882 339.45 378.3851 342.1363 378.3851 345.45Z" fill-rule="nonzero"/><path fill="#434343" clip-path="url(#id_0)" d="M389.10638 345.45C389.10638 348.7637 386.4201 351.45 383.10638 351.45C379.79266 351.45 377.10638 348.7637 377.10638 345.45C377.10638 342.1363 379.79266 339.45 383.10638 339.45C386.4201 339.45 389.10638 342.1363 389.10638 345.45Z" fill-rule="nonzero"/><path fill="#434343" clip-path="url(#id_0)" d="M399.82767 345.45C399.82767 348.7637 397.14136 351.45 393.82767 351.45C390.51395 351.45 387.82767 348.7637 387.82767 345.45C387.82767 342.1363 390.51395 339.45 393.82767 339.45C397.14136 339.45 399.82767 342.1363 399.82767 345.45Z" fill-rule="nonzero"/><path fill="#434343" clip-path="url(#id_0)" d="M410.54895 345.45C410.54895 348.7637 407.86264 351.45 404.54895 351.45C401.23523 351.45 398.54895 348.7637 398.54895 345.45C398.54895 342.1363 401.23523 339.45 404.54895 339.45C407.86264 339.45 410.54895 342.1363 410.54895 345.45Z" fill-rule="nonzero"/><path fill="#434343" clip-path="url(#id_0)" d="M421.2702 345.45C421.2702 348.7637 418.58392 351.45 415.2702 351.45C411.9565 351.45 409.2702 348.7637 409.2702 345.45C409.2702 342.1363 411.9565 339.45 415.2702 339.45C418.58392 339.45 421.2702 342.1363 421.2702 345.45Z" fill-rule="nonzero"/><path fill="#434343" clip-path="url(#id_0)" d="M431.9915 345.45C431.9915 348.7637 429.3052 351.45 425.9915 351.45C422.6778 351.45 419.9915 348.7637 419.9915 345.45C419.9915 342.1363 422.6778 339.45 425.9915 339.45C429.3052 339.45 431.9915 342.1363 431.9915 345.45Z" fill-rule="nonzero"/><path fill="#434343" clip-path="url(#id_0)" d="M442.71277 345.45C442.71277 348.7637 440.0265 351.45 436.71277 351.45C433.39905 351.45 430.71277 348.7637 430.71277 345.45C430.71277 342.1363 433.39905 339.45 436.71277 339.45C440.0265 339.45 442.71277 342.1363 442.71277 345.45Z" fill-rule="nonzero"/><path fill="#434343" clip-path="url(#id_0)" d="M453.43405 345.45C453.43405 348.7637 450.74774 351.45 447.43405 351.45C444.12033 351.45 441.43405 348.7637 441.43405 345.45C441.43405 342.1363 444.12033 339.45 447.43405 339.45C450.74774 339.45 453.43405 342.1363 453.43405 345.45Z" fill-rule="nonzero"/><path fill="#434343" clip-path="url(#id_0)" d="M464.1553 345.45C464.1553 348.7637 461.46902 351.45 458.1553 351.45C454.8416 351.45 452.1553 348.7637 452.1553 345.45C452.1553 342.1363 454.8416 339.45 458.1553 339.45C461.46902 339.45 464.1553 342.1363 464.1553 345.45Z" fill-rule="nonzero"/><path fill="#434343" clip-path="url(#id_0)" d="M474.8766 345.45C474.8766 348.7637 472.1903 351.45 468.8766 351.45C465.5629 351.45 462.8766 348.7637 462.8766 345.45C462.8766 342.1363 465.5629 339.45 468.8766 339.45C472.1903 339.45 474.8766 342.1363 474.8766 345.45Z" fill-rule="nonzero"/><path fill="#434343" clip-path="url(#id_0)" d="M485.59787 345.45C485.59787 348.7637 482.9116 351.45 479.59787 351.45C476.28415 351.45 473.59787 348.7637 473.59787 345.45C473.59787 342.1363 476.28415 339.45 479.59787 339.45C482.9116 339.45 485.59787 342.1363 485.59787 345.45Z" fill-rule="nonzero"/><path fill="#434343" clip-path="url(#id_0)" d="M496.31915 345.45C496.31915 348.7637 493.63284 351.45 490.31915 351.45C487.00543 351.45 484.31915 348.7637 484.31915 345.45C484.31915 342.1363 487.00543 339.45 490.31915 339.45C493.63284 339.45 496.31915 342.1363 496.31915 345.45Z" fill-rule="nonzero"/><path fill="#434343" clip-path="url(#id_0)" d="M507.04044 345.45C507.04044 348.7637 504.35413 351.45 501.04044 351.45C497.7267 351.45 495.04044 348.7637 495.04044 345.45C495.04044 342.1363 497.7267 339.45 501.04044 339.45C504.35413 339.45 507.04044 342.1363 507.04044 345.45Z" fill-rule="nonzero"/><path fill="#434343" clip-path="url(#id_0)" d="M517.7617 345.45C517.7617 348.7637 515.07544 351.45 511.7617 351.45C508.448 351.45 505.7617 348.7637 505.7617 345.45C505.7617 342.1363 508.448 339.45 511.7617 339.45C515.07544 339.45 517.7617 342.1363 517.7617 345.45Z" fill-rule="nonzero"/><path fill="#434343" clip-path="url(#id_0)" d="M528.483 345.45C528.483 348.7637 525.7967 351.45 522.483 351.45C519.16925 351.45 516.483 348.7637 516.483 345.45C516.483 342.1363 519.16925 339.45 522.483 339.45C525.7967 339.45 528.483 342.1363 528.483 345.45Z" fill-rule="nonzero"/><path fill="#434343" clip-path="url(#id_0)" d="M539.2043 345.45C539.2043 348.7637 536.51794 351.45 533.2043 351.45C529.89056 351.45 527.2043 348.7637 527.2043 345.45C527.2043 342.1363 529.89056 339.45 533.2043 339.45C536.51794 339.45 539.2043 342.1363 539.2043 345.45Z" fill-rule="nonzero"/><path fill="#434343" clip-path="url(#id_0)" d="M549.92554 345.45C549.92554 348.7637 547.23926 351.45 543.92554 351.45C540.6118 351.45 537.92554 348.7637 537.92554 345.45C537.92554 342.1363 540.6118 339.45 543.92554 339.45C547.23926 339.45 549.92554 342.1363 549.92554 345.45Z" fill-rule="nonzero"/><path fill="#434343" clip-path="url(#id_0)" d="M560.6468 345.45C560.6468 348.7637 557.9605 351.45 554.6468 351.45C551.3331 351.45 548.6468 348.7637 548.6468 345.45C548.6468 342.1363 551.3331 339.45 554.6468 339.45C557.9605 339.45 560.6468 342.1363 560.6468 345.45Z" fill-rule="nonzero"/><path fill="#434343" clip-path="url(#id_0)" d="M571.3681 345.45C571.3681 348.7637 568.6818 351.45 565.3681 351.45C562.0544 351.45 559.3681 348.7637 559.3681 345.45C559.3681 342.1363 562.0544 339.45 565.3681 339.45C568.6818 339.45 571.3681 342.1363 571.3681 345.45Z" fill-rule="nonzero"/><path fill="#434343" clip-path="url(#id_0)" d="M582.08936 345.45C582.08936 348.7637 579.4031 351.45 576.08936 351.45C572.77563 351.45 570.08936 348.7637 570.08936 345.45C570.08936 342.1363 572.77563 339.45 576.08936 339.45C579.4031 339.45 582.08936 342.1363 582.08936 345.45Z" fill-rule="nonzero"/><path fill="#000000" d="M26.784388 219.13646L26.690638 218.07396Q27.346888 217.99583 27.753138 217.71458Q28.159388 217.43333 28.425013 216.85521Q28.675013 216.26146 28.675013 215.52708Q28.675013 214.88646 28.487513 214.38646Q28.284388 213.88646 27.956263 213.65208Q27.612513 213.40208 27.221888 213.40208Q26.815638 213.40208 26.518763 213.63646Q26.206263 213.87083 26.003138 214.40208Q25.862513 214.76146 25.581263 215.94896Q25.300013 217.12083 25.050013 217.58958Q24.721888 218.21458 24.253138 218.51146Q23.768763 218.80833 23.175013 218.80833Q22.534388 218.80833 21.971888 218.44896Q21.393763 218.07396 21.112513 217.37083Q20.815638 216.65208 20.815638 215.79271Q20.815638 214.83958 21.128138 214.10521Q21.425013 213.37083 22.034388 212.98021Q22.628138 212.58958 23.378138 212.55833L23.456263 213.65208Q22.643763 213.74583 22.237513 214.26146Q21.815638 214.76146 21.815638 215.74583Q21.815638 216.77708 22.190638 217.24583Q22.565638 217.71458 23.096888 217.71458Q23.565638 217.71458 23.862513 217.38646Q24.159388 217.05833 24.471888 215.68333Q24.784388 214.29271 25.018763 213.77708Q25.378138 213.02708 25.909388 212.66771Q26.425013 212.30833 27.128138 212.30833Q27.815638 212.30833 28.425013 212.69896Q29.018763 213.08958 29.362513 213.82396Q29.690638 214.55833 29.690638 215.48021Q29.690638 216.65208 29.362513 217.44896Q29.018763 218.23021 28.331263 218.68333Q27.643763 219.12083 26.784388 219.13646ZM27.268763 206.82396L27.409388 205.79271Q28.471888 205.96458 29.081263 206.66771Q29.690638 207.37083 29.690638 208.38646Q29.690638 209.66771 28.862513 210.44896Q28.018763 211.21458 26.456263 211.21458Q25.456263 211.21458 24.706263 210.88646Q23.940638 210.54271 23.565638 209.87083Q23.190638 209.18333 23.190638 208.37083Q23.190638 207.37083 23.706263 206.73021Q24.206263 206.07396 25.159388 205.88646L25.315638 206.91771Q24.690638 207.05833 24.378138 207.43333Q24.050013 207.80833 24.050013 208.33958Q24.050013 209.13646 24.628138 209.63646Q25.190638 210.13646 26.425013 210.13646Q27.690638 210.13646 28.253138 209.65208Q28.815638 209.16771 28.815638 208.40208Q28.815638 207.77708 28.440638 207.37083Q28.065638 206.94896 27.268763 206.82396ZM26.440638 205.27708Q24.706263 205.27708 23.878138 204.32396Q23.190638 203.52708 23.190638 202.37083Q23.190638 201.08958 24.034388 200.27708Q24.862513 199.44896 26.346888 199.44896Q27.550013 199.44896 28.237513 199.80833Q28.925013 200.16771 29.315638 200.87083Q29.690638 201.55833 29.690638 202.37083Q29.690638 203.66771 28.862513 204.48021Q28.018763 205.27708 26.440638 205.27708ZM26.440638 204.19896Q27.628138 204.19896 28.221888 203.68333Q28.815638 203.15208 28.815638 202.37083Q28.815638 201.57396 28.221888 201.05833Q27.628138 200.54271 26.409388 200.54271Q25.253138 200.54271 24.659388 201.07396Q24.065638 201.58958 24.065638 202.37083Q24.065638 203.15208 24.659388 203.68333Q25.237513 204.19896 26.440638 204.19896ZM29.550013 197.90208L23.331263 197.90208L23.331263 196.94896L24.268763 196.94896Q23.612513 196.58958 23.409388 196.29271Q23.190638 195.98021 23.190638 195.60521Q23.190638 195.07396 23.518763 194.52708L24.503138 194.88646Q24.268763 195.27708 24.268763 195.65208Q24.268763 196.01146 24.487513 196.29271Q24.690638 196.55833 25.065638 196.66771Q25.628138 196.85521 26.284388 196.85521L29.550013 196.85521L29.550013 197.90208ZM27.550013 189.63646L27.675013 188.54271Q28.628138 188.79271 29.159388 189.49583Q29.690638 190.19896 29.690638 191.27708Q29.690638 192.63646 28.846888 193.44896Q28.003138 194.24583 26.487513 194.24583Q24.925013 194.24583 24.065638 193.43333Q23.190638 192.62083 23.190638 191.33958Q23.190638 190.08958 24.034388 189.30833Q24.878138 188.51146 26.425013 188.51146Q26.518763 188.51146 26.706263 188.51146L26.706263 193.15208Q27.737513 193.08958 28.284388 192.57396Q28.815638 192.05833 28.815638 191.27708Q28.815638 190.69896 28.518763 190.29271Q28.206263 189.87083 27.550013 189.63646ZM25.846888 193.08958L25.846888 189.62083Q25.050013 189.68333 24.659388 190.01146Q24.050013 190.52708 24.050013 191.32396Q24.050013 192.05833 24.534388 192.55833Q25.018763 193.04271 25.846888 193.08958Z" fill-rule="nonzero"/><path fill="#000000" d="M65.05 345.21564Q65.05 343.6844 65.3625 342.7625Q65.675 341.825 66.28438 341.325Q66.90938 340.825 67.84688 340.825Q68.53438 340.825 69.05 341.10626Q69.58125 341.3875 69.925 341.91876Q70.26875 342.4344 70.45625 343.1844Q70.64375 343.9344 70.64375 345.21564Q70.64375 346.73126 70.33125 347.65314Q70.03438 348.575 69.40938 349.09064Q68.8 349.59064 67.84688 349.59064Q66.6125 349.59064 65.89375 348.7Q65.05 347.6375 65.05 345.21564ZM66.12813 345.21564Q66.12813 347.325 66.62813 348.02814Q67.12813 348.73126 67.84688 348.73126Q68.58125 348.73126 69.06563 348.02814Q69.56563 347.325 69.56563 345.21564Q69.56563 343.09064 69.06563 342.40314Q68.58125 341.7 67.83125 341.7Q67.1125 341.7 66.675 342.3094Q66.12813 343.09064 66.12813 345.21564Z" fill-rule="nonzero"/><path fill="#000000" d="M62.01875 321.09668L60.971874 321.09668L60.971874 314.37793Q60.58125 314.7373 59.95625 315.1123Q59.346874 315.47168 58.8625 315.64355L58.8625 314.62793Q59.7375 314.20605 60.39375 313.62793Q61.065624 313.03418 61.346874 312.47168L62.01875 312.47168L62.01875 321.09668ZM65.05 316.8623Q65.05 315.33105 65.3625 314.40918Q65.675 313.47168 66.28438 312.97168Q66.90938 312.47168 67.84688 312.47168Q68.53438 312.47168 69.05 312.75293Q69.58125 313.03418 69.925 313.56543Q70.26875 314.08105 70.45625 314.83105Q70.64375 315.58105 70.64375 316.8623Q70.64375 318.37793 70.33125 319.2998Q70.03438 320.22168 69.40938 320.7373Q68.8 321.2373 67.84688 321.2373Q66.6125 321.2373 65.89375 320.34668Q65.05 319.28418 65.05 316.8623ZM66.12813 316.8623Q66.12813 318.97168 66.62813 319.6748Q67.12813 320.37793 67.84688 320.37793Q68.58125 320.37793 69.06563 319.6748Q69.56563 318.97168 69.56563 316.8623Q69.56563 314.7373 69.06563 314.0498Q68.58125 313.34668 67.83125 313.34668Q67.1125 313.34668 66.675 313.95605Q66.12813 314.7373 66.12813 316.8623Z" fill-rule="nonzero"/><path fill="#000000" d="M63.596874 291.72772L63.596874 292.74335L57.909374 292.74335Q57.909374 292.36835 58.034374 292.00897Q58.253124 291.43085 58.721874 290.86835Q59.20625 290.30585 60.1125 289.57147Q61.51875 288.41522 62.003124 287.74335Q62.503124 287.07147 62.503124 286.47772Q62.503124 285.85272 62.05 285.43085Q61.596874 284.99335 60.878124 284.99335Q60.1125 284.99335 59.659374 285.44647Q59.20625 285.8996 59.190624 286.7121L58.1125 286.60272Q58.221874 285.38397 58.940624 284.75897Q59.675 284.11835 60.909374 284.11835Q62.14375 284.11835 62.8625 284.80585Q63.58125 285.49335 63.58125 286.50897Q63.58125 287.0246 63.3625 287.5246Q63.159374 288.00897 62.659374 288.57147Q62.175 289.11835 61.05 290.07147Q60.096874 290.86835 59.815624 291.16522Q59.55 291.44647 59.378124 291.72772L63.596874 291.72772ZM65.05 288.50897Q65.05 286.97772 65.3625 286.05585Q65.675 285.11835 66.28438 284.61835Q66.90938 284.11835 67.84688 284.11835Q68.53438 284.11835 69.05 284.3996Q69.58125 284.68085 69.925 285.2121Q70.26875 285.72772 70.45625 286.47772Q70.64375 287.22772 70.64375 288.50897Q70.64375 290.0246 70.33125 290.94647Q70.03438 291.86835 69.40938 292.38397Q68.8 292.88397 67.84688 292.88397Q66.6125 292.88397 65.89375 291.99335Q65.05 290.93085 65.05 288.50897ZM66.12813 288.50897Q66.12813 290.61835 66.62813 291.32147Q67.12813 292.0246 67.84688 292.0246Q68.58125 292.0246 69.06563 291.32147Q69.56563 290.61835 69.56563 288.50897Q69.56563 286.38397 69.06563 285.69647Q68.58125 284.99335 67.83125 284.99335Q67.1125 284.99335 66.675 285.60272Q66.12813 286.38397 66.12813 288.50897Z" fill-rule="nonzero"/><path fill="#000000" d="M58.05 262.1244L59.1125 261.98376Q59.284374 262.8744 59.721874 263.28064Q60.159374 263.67126 60.784374 263.67126Q61.534374 263.67126 62.05 263.15564Q62.565624 262.64 62.565624 261.8744Q62.565624 261.15564 62.08125 260.6869Q61.6125 260.2025 60.878124 260.2025Q60.58125 260.2025 60.128124 260.3275L60.253124 259.39Q60.3625 259.40564 60.425 259.40564Q61.096874 259.40564 61.628124 259.0619Q62.175 258.7025 62.175 257.96814Q62.175 257.39 61.784374 257.015Q61.39375 256.6244 60.76875 256.6244Q60.159374 256.6244 59.7375 257.015Q59.33125 257.40564 59.221874 258.17126L58.159374 257.98376Q58.346874 256.9369 59.034374 256.35876Q59.721874 255.76501 60.7375 255.76501Q61.440624 255.76501 62.034374 256.0775Q62.628124 256.3744 62.940624 256.89Q63.253124 257.40564 63.253124 257.9994Q63.253124 258.54626 62.95625 259.015Q62.659374 259.46814 62.08125 259.73376Q62.83125 259.90564 63.253124 260.46814Q63.675 261.015 63.675 261.85876Q63.675 262.98376 62.846874 263.765Q62.034374 264.54626 60.784374 264.54626Q59.659374 264.54626 58.909374 263.8744Q58.159374 263.1869 58.05 262.1244ZM65.05 260.15564Q65.05 258.6244 65.3625 257.7025Q65.675 256.765 66.28438 256.265Q66.90938 255.76501 67.84688 255.76501Q68.53438 255.76501 69.05 256.04626Q69.58125 256.3275 69.925 256.85876Q70.26875 257.3744 70.45625 258.1244Q70.64375 258.8744 70.64375 260.15564Q70.64375 261.67126 70.33125 262.59314Q70.03438 263.515 69.40938 264.03064Q68.8 264.53064 67.84688 264.53064Q66.6125 264.53064 65.89375 263.64Q65.05 262.5775 65.05 260.15564ZM66.12813 260.15564Q66.12813 262.265 66.62813 262.96814Q67.12813 263.67126 67.84688 263.67126Q68.58125 263.67126 69.06563 262.96814Q69.56563 262.265 69.56563 260.15564Q69.56563 258.03064 69.06563 257.34314Q68.58125 256.64 67.83125 256.64Q67.1125 256.64 66.675 257.2494Q66.12813 258.03064 66.12813 260.15564Z" fill-rule="nonzero"/><path fill="#000000" d="M61.425 236.03667L61.425 233.97417L57.70625 233.97417L57.70625 233.00542L61.628124 227.44292L62.4875 227.44292L62.4875 233.00542L63.64375 233.00542L63.64375 233.97417L62.4875 233.97417L62.4875 236.03667L61.425 236.03667ZM61.425 233.00542L61.425 229.14604L58.7375 233.00542L61.425 233.00542ZM65.05 231.80229Q65.05 230.27104 65.3625 229.34917Q65.675 228.41167 66.28438 227.91167Q66.90938 227.41167 67.84688 227.41167Q68.53438 227.41167 69.05 227.69292Q69.58125 227.97417 69.925 228.50542Q70.26875 229.02104 70.45625 229.77104Q70.64375 230.52104 70.64375 231.80229Q70.64375 233.31792 70.33125 234.23979Q70.03438 235.16167 69.40938 235.67729Q68.8 236.17729 67.84688 236.17729Q66.6125 236.17729 65.89375 235.28667Q65.05 234.22417 65.05 231.80229ZM66.12813 231.80229Q66.12813 233.91167 66.62813 234.61479Q67.12813 235.31792 67.84688 235.31792Q68.58125 235.31792 69.06563 234.61479Q69.56563 233.91167 69.56563 231.80229Q69.56563 229.67729 69.06563 228.98979Q68.58125 228.28667 67.83125 228.28667Q67.1125 228.28667 66.675 228.89604Q66.12813 229.67729 66.12813 231.80229Z" fill-rule="nonzero"/><path fill="#000000" d="M58.05 205.43333L59.159374 205.33958Q59.284374 206.15208 59.721874 206.55833Q60.175 206.96458 60.815624 206.96458Q61.565624 206.96458 62.096874 206.38646Q62.628124 205.80833 62.628124 204.87083Q62.628124 203.96458 62.1125 203.44896Q61.6125 202.91771 60.784374 202.91771Q60.284374 202.91771 59.8625 203.15208Q59.45625 203.38646 59.221874 203.74583L58.2375 203.62083L59.065624 199.21458L63.346874 199.21458L63.346874 200.21458L59.909374 200.21458L59.45625 202.52708Q60.221874 201.98021 61.065624 201.98021Q62.190624 201.98021 62.95625 202.76146Q63.7375 203.54271 63.7375 204.77708Q63.7375 205.93333 63.065624 206.79271Q62.2375 207.82396 60.815624 207.82396Q59.64375 207.82396 58.89375 207.16771Q58.159374 206.51146 58.05 205.43333ZM65.05 203.44896Q65.05 201.91771 65.3625 200.99583Q65.675 200.05833 66.28438 199.55833Q66.90938 199.05833 67.84688 199.05833Q68.53438 199.05833 69.05 199.33958Q69.58125 199.62083 69.925 200.15208Q70.26875 200.66771 70.45625 201.41771Q70.64375 202.16771 70.64375 203.44896Q70.64375 204.96458 70.33125 205.88646Q70.03438 206.80833 69.40938 207.32396Q68.8 207.82396 67.84688 207.82396Q66.6125 207.82396 65.89375 206.93333Q65.05 205.87083 65.05 203.44896ZM66.12813 203.44896Q66.12813 205.55833 66.62813 206.26146Q67.12813 206.96458 67.84688 206.96458Q68.58125 206.96458 69.06563 206.26146Q69.56563 205.55833 69.56563 203.44896Q69.56563 201.32396 69.06563 200.63646Q68.58125 199.93333 67.83125 199.93333Q67.1125 199.93333 66.675 200.54271Q66.12813 201.32396 66.12813 203.44896Z" fill-rule="nonzero"/><path fill="#000000" d="M63.51875 172.84563L62.471874 172.92375Q62.33125 172.29875 62.08125 172.0175Q61.64375 171.56438 61.01875 171.56438Q60.51875 171.56438 60.128124 171.84563Q59.64375 172.22063 59.346874 172.92375Q59.065624 173.61125 59.05 174.8925Q59.425 174.31438 59.971874 174.03313Q60.534374 173.75188 61.14375 173.75188Q62.190624 173.75188 62.925 174.53313Q63.675 175.31438 63.675 176.53313Q63.675 177.34563 63.315624 178.04875Q62.971874 178.73625 62.3625 179.11125Q61.753124 179.47063 60.9875 179.47063Q59.659374 179.47063 58.83125 178.50188Q58.003124 177.53313 58.003124 175.31438Q58.003124 172.81438 58.925 171.68938Q59.721874 170.705 61.08125 170.705Q62.096874 170.705 62.7375 171.28313Q63.39375 171.84563 63.51875 172.84563ZM59.221874 176.54875Q59.221874 177.09563 59.440624 177.59563Q59.675 178.08 60.08125 178.34563Q60.503124 178.61125 60.971874 178.61125Q61.628124 178.61125 62.1125 178.08Q62.596874 177.53313 62.596874 176.61125Q62.596874 175.72063 62.1125 175.205Q61.64375 174.68938 60.925 174.68938Q60.20625 174.68938 59.70625 175.205Q59.221874 175.72063 59.221874 176.54875ZM65.05 175.09563Q65.05 173.56438 65.3625 172.6425Q65.675 171.705 66.28438 171.205Q66.90938 170.705 67.84688 170.705Q68.53438 170.705 69.05 170.98625Q69.58125 171.2675 69.925 171.79875Q70.26875 172.31438 70.45625 173.06438Q70.64375 173.81438 70.64375 175.09563Q70.64375 176.61125 70.33125 177.53313Q70.03438 178.455 69.40938 178.97063Q68.8 179.47063 67.84688 179.47063Q66.6125 179.47063 65.89375 178.58Q65.05 177.5175 65.05 175.09563ZM66.12813 175.09563Q66.12813 177.205 66.62813 177.90813Q67.12813 178.61125 67.84688 178.61125Q68.58125 178.61125 69.06563 177.90813Q69.56563 177.205 69.56563 175.09563Q69.56563 172.97063 69.06563 172.28313Q68.58125 171.58 67.83125 171.58Q67.1125 171.58 66.675 172.18938Q66.12813 172.97063 66.12813 175.09563Z" fill-rule="nonzero"/><path fill="#000000" d="M58.1125 143.50792L58.1125 142.4923L63.675 142.4923L63.675 143.32042Q62.8625 144.19542 62.05 145.64854Q61.253124 147.08604 60.815624 148.6173Q60.4875 149.69542 60.409374 150.97667L59.315624 150.97667Q59.33125 149.96104 59.70625 148.52354Q60.096874 147.08604 60.8 145.75792Q61.51875 144.4298 62.33125 143.50792L58.1125 143.50792ZM65.05 146.7423Q65.05 145.21104 65.3625 144.28917Q65.675 143.35167 66.28438 142.85167Q66.90938 142.35167 67.84688 142.35167Q68.53438 142.35167 69.05 142.63292Q69.58125 142.91417 69.925 143.44542Q70.26875 143.96104 70.45625 144.71104Q70.64375 145.46104 70.64375 146.7423Q70.64375 148.25792 70.33125 149.1798Q70.03438 150.10167 69.40938 150.6173Q68.8 151.1173 67.84688 151.1173Q66.6125 151.1173 65.89375 150.22667Q65.05 149.16417 65.05 146.7423ZM66.12813 146.7423Q66.12813 148.85167 66.62813 149.5548Q67.12813 150.25792 67.84688 150.25792Q68.58125 150.25792 69.06563 149.5548Q69.56563 148.85167 69.56563 146.7423Q69.56563 144.6173 69.06563 143.9298Q68.58125 143.22667 67.83125 143.22667Q67.1125 143.22667 66.675 143.83604Q66.12813 144.6173 66.12813 146.7423Z" fill-rule="nonzero"/><path fill="#000000" d="M59.675 117.96709Q59.01875 117.71709 58.690624 117.27959Q58.378124 116.82646 58.378124 116.21709Q58.378124 115.27959 59.05 114.63896Q59.7375 113.99834 60.846874 113.99834Q61.971874 113.99834 62.659374 114.65459Q63.346874 115.31084 63.346874 116.24834Q63.346874 116.84209 63.034374 117.27959Q62.721874 117.71709 62.08125 117.96709Q62.878124 118.21709 63.284374 118.79521Q63.690624 119.37334 63.690624 120.17021Q63.690624 121.26396 62.909374 122.01396Q62.14375 122.76396 60.8625 122.76396Q59.596874 122.76396 58.815624 122.01396Q58.034374 121.26396 58.034374 120.13896Q58.034374 119.29521 58.45625 118.73271Q58.89375 118.17021 59.675 117.96709ZM59.45625 116.17021Q59.45625 116.77959 59.846874 117.17021Q60.253124 117.56084 60.878124 117.56084Q61.4875 117.56084 61.878124 117.18584Q62.26875 116.79521 62.26875 116.23271Q62.26875 115.65459 61.8625 115.26396Q61.45625 114.85771 60.8625 114.85771Q60.253124 114.85771 59.846874 115.24834Q59.45625 115.63896 59.45625 116.17021ZM59.128124 120.13896Q59.128124 120.59209 59.33125 121.01396Q59.55 121.43584 59.971874 121.67021Q60.39375 121.90459 60.878124 121.90459Q61.628124 121.90459 62.1125 121.42021Q62.6125 120.93584 62.6125 120.18584Q62.6125 119.42021 62.1125 118.92021Q61.6125 118.42021 60.846874 118.42021Q60.096874 118.42021 59.6125 118.92021Q59.128124 119.40459 59.128124 120.13896ZM65.05 118.38896Q65.05 116.85771 65.3625 115.93584Q65.675 114.99834 66.28438 114.49834Q66.90938 113.99834 67.84688 113.99834Q68.53438 113.99834 69.05 114.27959Q69.58125 114.56084 69.925 115.09209Q70.26875 115.60771 70.45625 116.35771Q70.64375 117.10771 70.64375 118.38896Q70.64375 119.90459 70.33125 120.82646Q70.03438 121.74834 69.40938 122.26396Q68.8 122.76396 67.84688 122.76396Q66.6125 122.76396 65.89375 121.87334Q65.05 120.81084 65.05 118.38896ZM66.12813 118.38896Q66.12813 120.49834 66.62813 121.20146Q67.12813 121.90459 67.84688 121.90459Q68.58125 121.90459 69.06563 121.20146Q69.56563 120.49834 69.56563 118.38896Q69.56563 116.26396 69.06563 115.57646Q68.58125 114.87334 67.83125 114.87334Q67.1125 114.87334 66.675 115.48271Q66.12813 116.26396 66.12813 118.38896Z" fill-rule="nonzero"/><path fill="#000000" d="M58.20625 92.28562L59.221874 92.19187Q59.346874 92.91062 59.70625 93.23875Q60.08125 93.55125 60.64375 93.55125Q61.128124 93.55125 61.4875 93.3325Q61.8625 93.09812 62.096874 92.73875Q62.33125 92.36375 62.4875 91.73875Q62.64375 91.09812 62.64375 90.44187Q62.64375 90.36375 62.64375 90.22312Q62.33125 90.72312 61.784374 91.05125Q61.2375 91.36375 60.596874 91.36375Q59.51875 91.36375 58.784374 90.59812Q58.05 89.81687 58.05 88.55125Q58.05 87.23875 58.815624 86.44187Q59.596874 85.645 60.753124 85.645Q61.58125 85.645 62.26875 86.09812Q62.971874 86.55125 63.33125 87.395Q63.690624 88.22312 63.690624 89.80125Q63.690624 91.44187 63.33125 92.42625Q62.9875 93.395 62.26875 93.91062Q61.565624 94.41062 60.628124 94.41062Q59.6125 94.41062 58.971874 93.86375Q58.33125 93.30125 58.20625 92.28562ZM62.51875 88.48875Q62.51875 87.5825 62.034374 87.05125Q61.565624 86.52 60.878124 86.52Q60.175 86.52 59.64375 87.09812Q59.128124 87.66062 59.128124 88.5825Q59.128124 89.395 59.628124 89.91062Q60.128124 90.42625 60.846874 90.42625Q61.58125 90.42625 62.05 89.91062Q62.51875 89.395 62.51875 88.48875ZM65.05 90.03562Q65.05 88.50437 65.3625 87.5825Q65.675 86.645 66.28438 86.145Q66.90938 85.645 67.84688 85.645Q68.53438 85.645 69.05 85.92625Q69.58125 86.2075 69.925 86.73875Q70.26875 87.25437 70.45625 88.00437Q70.64375 88.75437 70.64375 90.03562Q70.64375 91.55125 70.33125 92.47312Q70.03438 93.395 69.40938 93.91062Q68.8 94.41062 67.84688 94.41062Q66.6125 94.41062 65.89375 93.52Q65.05 92.4575 65.05 90.03562ZM66.12813 90.03562Q66.12813 92.145 66.62813 92.84812Q67.12813 93.55125 67.84688 93.55125Q68.58125 93.55125 69.06563 92.84812Q69.56563 92.145 69.56563 90.03562Q69.56563 87.91062 69.06563 87.22312Q68.58125 86.52 67.83125 86.52Q67.1125 86.52 66.675 87.12937Q66.12813 87.91062 66.12813 90.03562Z" fill-rule="nonzero"/><path fill="#000000" d="M55.01875 65.916664L53.971874 65.916664L53.971874 59.197914Q53.58125 59.55729 52.95625 59.93229Q52.346874 60.291664 51.8625 60.46354L51.8625 59.447914Q52.7375 59.02604 53.39375 58.447914Q54.065624 57.854164 54.346874 57.291664L55.01875 57.291664L55.01875 65.916664ZM58.05 61.68229Q58.05 60.15104 58.3625 59.229164Q58.675 58.291664 59.284374 57.791664Q59.909374 57.291664 60.846874 57.291664Q61.534374 57.291664 62.05 57.572914Q62.58125 57.854164 62.925 58.385414Q63.26875 58.90104 63.45625 59.65104Q63.64375 60.40104 63.64375 61.68229Q63.64375 63.197914 63.33125 64.11979Q63.034374 65.041664 62.409374 65.55729Q61.8 66.05729 60.846874 66.05729Q59.6125 66.05729 58.89375 65.166664Q58.05 64.104164 58.05 61.68229ZM59.128124 61.68229Q59.128124 63.791664 59.628124 64.49479Q60.128124 65.197914 60.846874 65.197914Q61.58125 65.197914 62.065624 64.49479Q62.565624 63.791664 62.565624 61.68229Q62.565624 59.55729 62.065624 58.86979Q61.58125 58.166664 60.83125 58.166664Q60.1125 58.166664 59.675 58.77604Q59.128124 59.55729 59.128124 61.68229ZM65.05 61.68229Q65.05 60.15104 65.3625 59.229164Q65.675 58.291664 66.28438 57.791664Q66.90938 57.291664 67.84688 57.291664Q68.53438 57.291664 69.05 57.572914Q69.58125 57.854164 69.925 58.385414Q70.26875 58.90104 70.45625 59.65104Q70.64375 60.40104 70.64375 61.68229Q70.64375 63.197914 70.33125 64.11979Q70.03438 65.041664 69.40938 65.55729Q68.8 66.05729 67.84688 66.05729Q66.6125 66.05729 65.89375 65.166664Q65.05 64.104164 65.05 61.68229ZM66.12813 61.68229Q66.12813 63.791664 66.62813 64.49479Q67.12813 65.197914 67.84688 65.197914Q68.58125 65.197914 69.06563 64.49479Q69.56563 63.791664 69.56563 61.68229Q69.56563 59.55729 69.06563 58.86979Q68.58125 58.166664 67.83125 58.166664Q67.1125 58.166664 66.675 58.77604Q66.12813 59.55729 66.12813 61.68229Z" fill-rule="nonzero"/><path fill="#757575" d="M30.315624 32.534374L32.20625 33.003124Q31.6125 35.346874 30.065624 36.58125Q28.51875 37.8 26.26875 37.8Q23.95625 37.8 22.503124 36.8625Q21.065624 35.909374 20.3 34.128124Q19.55 32.33125 19.55 30.284374Q19.55 28.05 20.39375 26.39375Q21.253124 24.721874 22.83125 23.8625Q24.409374 22.9875 26.3 22.9875Q28.45625 22.9875 29.909374 24.08125Q31.378124 25.175 31.95625 27.159374L30.096874 27.596874Q29.596874 26.034374 28.64375 25.33125Q27.70625 24.6125 26.26875 24.6125Q24.6125 24.6125 23.503124 25.409374Q22.39375 26.190624 21.940624 27.534374Q21.503124 28.8625 21.503124 30.26875Q21.503124 32.096874 22.034374 33.471874Q22.565624 34.83125 23.690624 35.503124Q24.815624 36.175 26.1125 36.175Q27.70625 36.175 28.815624 35.253124Q29.925 34.33125 30.315624 32.534374ZM33.221874 32.3625Q33.221874 29.4875 34.815624 28.096874Q36.159374 26.940624 38.08125 26.940624Q40.221874 26.940624 41.565624 28.346874Q42.925 29.753124 42.925 32.221874Q42.925 34.221874 42.33125 35.378124Q41.7375 36.51875 40.58125 37.159374Q39.440624 37.784374 38.08125 37.784374Q35.89375 37.784374 34.55 36.39375Q33.221874 34.9875 33.221874 32.3625ZM35.01875 32.3625Q35.01875 34.3625 35.878124 35.346874Q36.753124 36.33125 38.08125 36.33125Q39.39375 36.33125 40.253124 35.346874Q41.128124 34.346874 41.128124 32.3Q41.128124 30.378124 40.253124 29.39375Q39.378124 28.39375 38.08125 28.39375Q36.753124 28.39375 35.878124 29.39375Q35.01875 30.378124 35.01875 32.3625ZM44.83125 37.55L44.83125 23.2375L46.58125 23.2375L46.58125 37.55L44.83125 37.55ZM48.83125 37.55L48.83125 23.2375L50.58125 23.2375L50.58125 37.55L48.83125 37.55ZM52.878124 25.253124L52.878124 23.2375L54.64375 23.2375L54.64375 25.253124L52.878124 25.253124ZM52.878124 37.55L52.878124 27.175L54.64375 27.175L54.64375 37.55L52.878124 37.55ZM56.159374 34.45625L57.909374 34.175Q58.05 35.221874 58.721874 35.784374Q59.39375 36.33125 60.596874 36.33125Q61.8 36.33125 62.378124 35.846874Q62.971874 35.346874 62.971874 34.690624Q62.971874 34.096874 62.45625 33.753124Q62.096874 33.51875 60.659374 33.159374Q58.721874 32.659374 57.971874 32.315624Q57.2375 31.95625 56.846874 31.33125Q56.45625 30.690624 56.45625 29.925Q56.45625 29.2375 56.76875 28.64375Q57.096874 28.05 57.64375 27.659374Q58.05 27.3625 58.753124 27.159374Q59.471874 26.940624 60.284374 26.940624Q61.503124 26.940624 62.425 27.3Q63.346874 27.64375 63.784374 28.253124Q64.22188 28.846874 64.39375 29.846874L62.675 30.08125Q62.55 29.284374 61.9875 28.846874Q61.425 28.39375 60.409374 28.39375Q59.190624 28.39375 58.675 28.8Q58.159374 29.190624 58.159374 29.721874Q58.159374 30.065624 58.378124 30.346874Q58.58125 30.628124 59.05 30.815624Q59.315624 30.909374 60.596874 31.253124Q62.471874 31.753124 63.20625 32.08125Q63.940624 32.39375 64.3625 33.003124Q64.78438 33.596874 64.78438 34.503124Q64.78438 35.378124 64.26875 36.159374Q63.753124 36.940624 62.784374 37.3625Q61.815624 37.784374 60.596874 37.784374Q58.58125 37.784374 57.51875 36.940624Q56.45625 36.096874 56.159374 34.45625ZM66.87813 25.253124L66.87813 23.2375L68.64375 23.2375L68.64375 25.253124L66.87813 25.253124ZM66.87813 37.55L66.87813 27.175L68.64375 27.175L68.64375 37.55L66.87813 37.55ZM70.22188 32.3625Q70.22188 29.4875 71.81563 28.096874Q73.15938 26.940624 75.08125 26.940624Q77.22188 26.940624 78.56563 28.346874Q79.925 29.753124 79.925 32.221874Q79.925 34.221874 79.33125 35.378124Q78.7375 36.51875 77.58125 37.159374Q76.44063 37.784374 75.08125 37.784374Q72.89375 37.784374 71.55 36.39375Q70.22188 34.9875 70.22188 32.3625ZM72.01875 32.3625Q72.01875 34.3625 72.87813 35.346874Q73.75313 36.33125 75.08125 36.33125Q76.39375 36.33125 77.25313 35.346874Q78.12813 34.346874 78.12813 32.3Q78.12813 30.378124 77.25313 29.39375Q76.37813 28.39375 75.08125 28.39375Q73.75313 28.39375 72.87813 29.39375Q72.01875 30.378124 72.01875 32.3625ZM81.8625 37.55L81.8625 27.175L83.45625 27.175L83.45625 28.659374Q84.59688 26.940624 86.75313 26.940624Q87.69063 26.940624 88.47188 27.284374Q89.26875 27.6125 89.65938 28.159374Q90.05 28.70625 90.20625 29.45625Q90.3 29.95625 90.3 31.175L90.3 37.55L88.53438 37.55L88.53438 31.2375Q88.53438 30.159374 88.33125 29.628124Q88.12813 29.096874 87.59688 28.784374Q87.08125 28.471874 86.37813 28.471874Q85.25313 28.471874 84.44063 29.190624Q83.62813 29.89375 83.62813 31.878124L83.62813 37.55L81.8625 37.55ZM98.19063 37.55L98.19063 23.2375L107.84688 23.2375L107.84688 24.925L100.08125 24.925L100.08125 29.3625L106.8 29.3625L106.8 31.05L100.08125 31.05L100.08125 37.55L98.19063 37.55ZM109.84688 37.55L109.84688 27.175L111.425 27.175L111.425 28.753124Q112.03438 27.64375 112.55 27.3Q113.06563 26.940624 113.675 26.940624Q114.56563 26.940624 115.4875 27.503124L114.87813 29.14375Q114.2375 28.753124 113.59688 28.753124Q113.01875 28.753124 112.55 29.1125Q112.09688 29.45625 111.89375 30.065624Q111.6125 31.003124 111.6125 32.1125L111.6125 37.55L109.84688 37.55ZM123.97188 34.20625L125.78438 34.440624Q125.3625 36.01875 124.19063 36.909374Q123.03438 37.784374 121.22188 37.784374Q118.95625 37.784374 117.6125 36.39375Q116.28438 34.9875 116.28438 32.45625Q116.28438 29.83125 117.62813 28.39375Q118.97188 26.940624 121.12813 26.940624Q123.20625 26.940624 124.51875 28.3625Q125.84688 29.76875 125.84688 32.346874Q125.84688 32.503124 125.83125 32.815624L118.09688 32.815624Q118.19063 34.51875 119.06563 35.425Q119.94063 36.33125 121.2375 36.33125Q122.20625 36.33125 122.87813 35.83125Q123.56563 35.315624 123.97188 34.20625ZM118.19063 31.3625L123.9875 31.3625Q123.87813 30.065624 123.33125 29.409374Q122.4875 28.39375 121.14375 28.39375Q119.94063 28.39375 119.1125 29.20625Q118.28438 30.003124 118.19063 31.3625ZM134.97188 34.20625L136.78438 34.440624Q136.3625 36.01875 135.19063 36.909374Q134.03438 37.784374 132.22188 37.784374Q129.95625 37.784374 128.6125 36.39375Q127.28438 34.9875 127.28438 32.45625Q127.28438 29.83125 128.62813 28.39375Q129.97188 26.940624 132.12813 26.940624Q134.20625 26.940624 135.51875 28.3625Q136.84688 29.76875 136.84688 32.346874Q136.84688 32.503124 136.83125 32.815624L129.09688 32.815624Q129.19063 34.51875 130.06563 35.425Q130.94063 36.33125 132.2375 36.33125Q133.20625 36.33125 133.87813 35.83125Q134.56563 35.315624 134.97188 34.20625ZM129.19063 31.3625L134.9875 31.3625Q134.87813 30.065624 134.33125 29.409374Q133.4875 28.39375 132.14375 28.39375Q130.94063 28.39375 130.1125 29.20625Q129.28438 30.003124 129.19063 31.3625ZM144.45625 32.95625L146.2375 32.8Q146.3625 33.8625 146.81563 34.55Q147.28438 35.2375 148.25313 35.675Q149.2375 36.096874 150.47188 36.096874Q151.55 36.096874 152.37813 35.784374Q153.20625 35.45625 153.6125 34.89375Q154.01875 34.33125 154.01875 33.659374Q154.01875 32.9875 153.62813 32.4875Q153.2375 31.9875 152.34688 31.64375Q151.76875 31.409374 149.78438 30.940624Q147.81563 30.471874 147.03438 30.05Q146.00313 29.51875 145.50313 28.721874Q145.00313 27.925 145.00313 26.940624Q145.00313 25.846874 145.6125 24.909374Q146.22188 23.971874 147.40938 23.4875Q148.59688 22.9875 150.03438 22.9875Q151.62813 22.9875 152.84688 23.503124Q154.06563 24.01875 154.70625 25.01875Q155.3625 26.003124 155.40938 27.26875L153.59688 27.409374Q153.45625 26.05 152.6125 25.3625Q151.76875 24.659374 150.1125 24.659374Q148.39375 24.659374 147.59688 25.3Q146.81563 25.925 146.81563 26.8Q146.81563 27.58125 147.37813 28.08125Q147.925 28.58125 150.2375 29.096874Q152.55 29.6125 153.40938 30.003124Q154.65938 30.58125 155.25313 31.471874Q155.84688 32.346874 155.84688 33.503124Q155.84688 34.64375 155.19063 35.659374Q154.53438 36.675 153.3 37.2375Q152.08125 37.8 150.55 37.8Q148.6125 37.8 147.3 37.2375Q145.9875 36.659374 145.2375 35.51875Q144.4875 34.378124 144.45625 32.95625ZM159.78438 37.55L156.6125 27.175L158.425 27.175L160.08125 33.159374L160.69063 35.39375Q160.7375 35.221874 161.22188 33.253124L162.87813 27.175L164.69063 27.175L166.2375 33.190624L166.75313 35.175L167.34688 33.175L169.12813 27.175L170.83125 27.175L167.59688 37.55L165.76875 37.55L164.1125 31.33125L163.72188 29.565624L161.6125 37.55L159.78438 37.55ZM179.64375 36.26875Q178.65938 37.096874 177.75313 37.440624Q176.84688 37.784374 175.81563 37.784374Q174.1125 37.784374 173.19063 36.95625Q172.26875 36.1125 172.26875 34.815624Q172.26875 34.05 172.6125 33.425Q172.97188 32.8 173.53438 32.425Q174.09688 32.034374 174.8 31.83125Q175.31563 31.70625 176.3625 31.565624Q178.4875 31.315624 179.4875 30.971874Q179.50313 30.6125 179.50313 30.503124Q179.50313 29.440624 179.00313 28.9875Q178.33125 28.39375 177.00313 28.39375Q175.75313 28.39375 175.15938 28.83125Q174.58125 29.26875 174.3 30.378124L172.58125 30.14375Q172.81563 29.034374 173.34688 28.3625Q173.87813 27.675 174.89375 27.315624Q175.90938 26.940624 177.25313 26.940624Q178.58125 26.940624 179.40938 27.253124Q180.2375 27.565624 180.62813 28.05Q181.01875 28.51875 181.175 29.2375Q181.26875 29.690624 181.26875 30.8625L181.26875 33.20625Q181.26875 35.659374 181.37813 36.315624Q181.4875 36.95625 181.83125 37.55L179.9875 37.55Q179.72188 37.003124 179.64375 36.26875ZM179.4875 32.346874Q178.53438 32.7375 176.6125 33.003124Q175.53438 33.159374 175.08125 33.3625Q174.64375 33.55 174.39375 33.925Q174.14375 34.3 174.14375 34.76875Q174.14375 35.471874 174.675 35.940624Q175.20625 36.409374 176.2375 36.409374Q177.25313 36.409374 178.03438 35.971874Q178.83125 35.51875 179.20625 34.753124Q179.4875 34.14375 179.4875 32.9875L179.4875 32.346874ZM183.84688 37.55L183.84688 27.175L185.425 27.175L185.425 28.753124Q186.03438 27.64375 186.55 27.3Q187.06563 26.940624 187.675 26.940624Q188.56563 26.940624 189.4875 27.503124L188.87813 29.14375Q188.2375 28.753124 187.59688 28.753124Q187.01875 28.753124 186.55 29.1125Q186.09688 29.45625 185.89375 30.065624Q185.6125 31.003124 185.6125 32.1125L185.6125 37.55L183.84688 37.55ZM190.8625 37.55L190.8625 27.175L192.44063 27.175L192.44063 28.628124Q192.925 27.878124 193.7375 27.409374Q194.55 26.940624 195.58125 26.940624Q196.7375 26.940624 197.47188 27.425Q198.20625 27.89375 198.51875 28.753124Q199.75313 26.940624 201.72188 26.940624Q203.26875 26.940624 204.09688 27.8Q204.925 28.659374 204.925 30.425L204.925 37.55L203.175 37.55L203.175 31.01875Q203.175 29.95625 203.00313 29.503124Q202.83125 29.034374 202.37813 28.753124Q201.94063 28.471874 201.33125 28.471874Q200.2375 28.471874 199.50313 29.20625Q198.78438 29.925 198.78438 31.51875L198.78438 37.55L197.03438 37.55L197.03438 30.815624Q197.03438 29.64375 196.59688 29.065624Q196.175 28.471874 195.19063 28.471874Q194.45625 28.471874 193.81563 28.8625Q193.19063 29.253124 192.90938 30.003124Q192.62813 30.753124 192.62813 32.175L192.62813 37.55L190.8625 37.55ZM206.87813 25.253124L206.87813 23.2375L208.64375 23.2375L208.64375 25.253124L206.87813 25.253124ZM206.87813 37.55L206.87813 27.175L208.64375 27.175L208.64375 37.55L206.87813 37.55ZM210.8625 37.55L210.8625 27.175L212.45625 27.175L212.45625 28.659374Q213.59688 26.940624 215.75313 26.940624Q216.69063 26.940624 217.47188 27.284374Q218.26875 27.6125 218.65938 28.159374Q219.05 28.70625 219.20625 29.45625Q219.3 29.95625 219.3 31.175L219.3 37.55L217.53438 37.55L217.53438 31.2375Q217.53438 30.159374 217.33125 29.628124Q217.12813 29.096874 216.59688 28.784374Q216.08125 28.471874 215.37813 28.471874Q214.25313 28.471874 213.44063 29.190624Q212.62813 29.89375 212.62813 31.878124L212.62813 37.55L210.8625 37.55ZM220.55 38.409374L222.25313 38.659374Q222.3625 39.45625 222.84688 39.815624Q223.50313 40.3 224.64375 40.3Q225.8625 40.3 226.51875 39.815624Q227.19063 39.33125 227.425 38.45625Q227.56563 37.909374 227.55 36.190624Q226.39375 37.55 224.675 37.55Q222.53438 37.55 221.3625 36.003124Q220.19063 34.45625 220.19063 32.3Q220.19063 30.815624 220.72188 29.565624Q221.26875 28.315624 222.28438 27.628124Q223.31563 26.940624 224.69063 26.940624Q226.51875 26.940624 227.72188 28.425L227.72188 27.175L229.33125 27.175L229.33125 36.14375Q229.33125 38.565624 228.83125 39.565624Q228.34688 40.58125 227.26875 41.159374Q226.20625 41.753124 224.64375 41.753124Q222.8 41.753124 221.64375 40.925Q220.50313 40.096874 220.55 38.409374ZM222.00313 32.175Q222.00313 34.221874 222.81563 35.159374Q223.62813 36.096874 224.84688 36.096874Q226.05 36.096874 226.8625 35.159374Q227.69063 34.221874 227.69063 32.2375Q227.69063 30.33125 226.84688 29.3625Q226.00313 28.39375 224.81563 28.39375Q223.64375 28.39375 222.81563 29.346874Q222.00313 30.3 222.00313 32.175Z" fill-rule="nonzero"/></svg>