<svg version="1.1" viewBox="0.0 0.0 600.0 371.0" fill="none" stroke="none" stroke-linecap="square" stroke-miterlimit="10" width="600" height="371" xmlns:xlink="http://www.w3.org/1999/xlink" xmlns="http://www.w3.org/2000/svg"><path fill="#ffffff" d="M0 0L600.0 0L600.0 371.0L0 371.0L0 0Z" fill-rule="nonzero"/><path stroke="#333333" stroke-width="1.0" stroke-linecap="butt" d="M77.5 345.5L581.5 345.5" fill-rule="nonzero"/><path stroke="#cccccc" stroke-width="1.0" stroke-linecap="butt" d="M77.5 317.5L581.5 317.5" fill-rule="nonzero"/><path stroke="#cccccc" stroke-width="1.0" stroke-linecap="butt" d="M77.5 288.5L581.5 288.5" fill-rule="nonzero"/><path stroke="#cccccc" stroke-width="1.0" stroke-linecap="butt" d="M77.5 260.5L581.5 260.5" fill-rule="nonzero"/><path stroke="#cccccc" stroke-width="1.0" stroke-linecap="butt" d="M77.5 232.5L581.5 232.5" fill-rule="nonzero"/><path stroke="#cccccc" stroke-width="1.0" stroke-linecap="butt" d="M77.5 203.5L581.5 203.5" fill-rule="nonzero"/><path stroke="#cccccc" stroke-width="1.0" stroke-linecap="butt" d="M77.5 175.5L581.5 175.5" fill-rule="nonzero"/><path stroke="#cccccc" stroke-width="1.0" stroke-linecap="butt" d="M77.5 146.5L581.5 146.5" fill-rule="nonzero"/><path stroke="#cccccc" stroke-width="1.0" stroke-linecap="butt" d="M77.5 118.5L581.5 118.5" fill-rule="nonzero"/><path stroke="#cccccc" stroke-width="1.0" stroke-linecap="butt" d="M77.5 90.5L581.5 90.5" fill-rule="nonzero"/><path stroke="#cccccc" stroke-width="1.0" stroke-linecap="butt" d="M77.5 61.5L581.5 61.5" fill-rule="nonzero"/><clipPath id="id_0"><path d="M77.55 61.916668L581.45 61.916668L581.45 345.45L77.55 345.45L77.55 61.916668Z" clip-rule="nonzero"/></clipPath><path stroke="#434343" stroke-width="2.0" stroke-linecap="butt" clip-path="url(#id_0)" d="M82.91064 61.916668L93.63191 115.788L104.353195 123.34889L115.07447 134.69022L125.795746 139.41577L136.51703 156.42778L147.2383 170.60445L157.95958 205.57356L168.68085 205.57356L179.40213 213.13445L190.1234 219.75023L200.84468 222.58556L211.56596 229.20134L222.28723 229.20134L233.00851 238.65245L243.72978 243.378L254.45107 246.21333L265.17233 250.93889L275.89362 250.93889L286.6149 257.55466L297.33618 265.11557L308.05743 274.56668L318.77872 274.56668L329.5 279.29224L340.22128 284.0178L350.94257 288.74335L361.66382 298.19446L372.3851 307.64557L383.10638 307.64557L393.82767 312.37112L404.54895 312.37112L415.2702 312.37112L425.9915 317.09668L436.71277 317.09668L447.43405 317.09668L458.1553 317.09668L468.8766 317.09668L479.59787 317.09668L490.31915 317.09668L501.04044 317.09668L511.7617 326.5478L522.483 331.27335L533.2043 335.9989L543.92554 335.9989L554.6468 340.72446L565.3681 340.72446L576.08936 340.72446" fill-rule="nonzero"/><path fill="#434343" clip-path="url(#id_0)" d="M88.91064 61.916668C88.91064 65.23038 86.22435 67.916664 82.91064 67.916664C79.59693 67.916664 76.91064 65.23038 76.91064 61.916668C76.91064 58.60296 79.59693 55.916668 82.91064 55.916668C86.22435 55.916668 88.91064 58.60296 88.91064 61.916668Z" fill-rule="nonzero"/><path fill="#434343" clip-path="url(#id_0)" d="M99.63191 115.788C99.63191 119.10171 96.945625 121.788 93.63191 121.788C90.31821 121.788 87.63191 119.10171 87.63191 115.788C87.63191 112.47429 90.31821 109.788 93.63191 109.788C96.945625 109.788 99.63191 112.47429 99.63191 115.788Z" fill-rule="nonzero"/><path fill="#434343" clip-path="url(#id_0)" d="M110.353195 123.34889C110.353195 126.6626 107.6669 129.34889 104.353195 129.34889C101.03948 129.34889 98.353195 126.6626 98.353195 123.34889C98.353195 120.03518 101.03948 117.34889 104.353195 117.34889C107.6669 117.34889 110.353195 120.03518 110.353195 123.34889Z" fill-rule="nonzero"/><path fill="#434343" clip-path="url(#id_0)" d="M121.07447 134.69022C121.07447 138.00394 118.388176 140.69022 115.07447 140.69022C111.76076 140.69022 109.07447 138.00394 109.07447 134.69022C109.07447 131.37651 111.76076 128.69022 115.07447 128.69022C118.388176 128.69022 121.07447 131.37651 121.07447 134.69022Z" fill-rule="nonzero"/><path fill="#434343" clip-path="url(#id_0)" d="M131.79575 139.41577C131.79575 142.72949 129.10945 145.41577 125.795746 145.41577C122.48203 145.41577 119.795746 142.72949 119.795746 139.41577C119.795746 136.10207 122.48203 133.41577 125.795746 133.41577C129.10945 133.41577 131.79575 136.10207 131.79575 139.41577Z" fill-rule="nonzero"/><path fill="#434343" clip-path="url(#id_0)" d="M142.51703 156.42778C142.51703 159.74149 139.83073 162.42778 136.51703 162.42778C133.20331 162.42778 130.51703 159.74149 130.51703 156.42778C130.51703 153.11407 133.20331 150.42778 136.51703 150.42778C139.83073 150.42778 142.51703 153.11407 142.51703 156.42778Z" fill-rule="nonzero"/><path fill="#434343" clip-path="url(#id_0)" d="M153.2383 170.60445C153.2383 173.91815 150.552 176.60445 147.2383 176.60445C143.92459 176.60445 141.2383 173.91815 141.2383 170.60445C141.2383 167.29074 143.92459 164.60445 147.2383 164.60445C150.552 164.60445 153.2383 167.29074 153.2383 170.60445Z" fill-rule="nonzero"/><path fill="#434343" clip-path="url(#id_0)" d="M163.95958 205.57356C163.95958 208.88727 161.27328 211.57356 157.95958 211.57356C154.64586 211.57356 151.95958 208.88727 151.95958 205.57356C151.95958 202.25984 154.64586 199.57356 157.95958 199.57356C161.27328 199.57356 163.95958 202.25984 163.95958 205.57356Z" fill-rule="nonzero"/><path fill="#434343" clip-path="url(#id_0)" d="M174.68085 205.57356C174.68085 208.88727 171.99455 211.57356 168.68085 211.57356C165.36714 211.57356 162.68085 208.88727 162.68085 205.57356C162.68085 202.25984 165.36714 199.57356 168.68085 199.57356C171.99455 199.57356 174.68085 202.25984 174.68085 205.57356Z" fill-rule="nonzero"/><path fill="#434343" clip-path="url(#id_0)" d="M185.40213 213.13445C185.40213 216.44815 182.71584 219.13445 179.40213 219.13445C176.08842 219.13445 173.40213 216.44815 173.40213 213.13445C173.40213 209.82074 176.08842 207.13445 179.40213 207.13445C182.71584 207.13445 185.40213 209.82074 185.40213 213.13445Z" fill-rule="nonzero"/><path fill="#434343" clip-path="url(#id_0)" d="M196.1234 219.75023C196.1234 223.06393 193.43712 225.75023 190.1234 225.75023C186.8097 225.75023 184.1234 223.06393 184.1234 219.75023C184.1234 216.43651 186.8097 213.75023 190.1234 213.75023C193.43712 213.75023 196.1234 216.43651 196.1234 219.75023Z" fill-rule="nonzero"/><path fill="#434343" clip-path="url(#id_0)" d="M206.84468 222.58556C206.84468 225.89926 204.15839 228.58556 200.84468 228.58556C197.53098 228.58556 194.84468 225.89926 194.84468 222.58556C194.84468 219.27185 197.53098 216.58556 200.84468 216.58556C204.15839 216.58556 206.84468 219.27185 206.84468 222.58556Z" fill-rule="nonzero"/><path fill="#434343" clip-path="url(#id_0)" d="M217.56596 229.20134C217.56596 232.51505 214.87967 235.20134 211.56596 235.20134C208.25224 235.20134 205.56596 232.51505 205.56596 229.20134C205.56596 225.88762 208.25224 223.20134 211.56596 223.20134C214.87967 223.20134 217.56596 225.88762 217.56596 229.20134Z" fill-rule="nonzero"/><path fill="#434343" clip-path="url(#id_0)" d="M228.28723 229.20134C228.28723 232.51505 225.60094 235.20134 222.28723 235.20134C218.97353 235.20134 216.28723 232.51505 216.28723 229.20134C216.28723 225.88762 218.97353 223.20134 222.28723 223.20134C225.60094 223.20134 228.28723 225.88762 228.28723 229.20134Z" fill-rule="nonzero"/><path fill="#434343" clip-path="url(#id_0)" d="M239.00851 238.65245C239.00851 241.96616 236.32222 244.65245 233.00851 244.65245C229.69481 244.65245 227.00851 241.96616 227.00851 238.65245C227.00851 235.33873 229.69481 232.65245 233.00851 232.65245C236.32222 232.65245 239.00851 235.33873 239.00851 238.65245Z" fill-rule="nonzero"/><path fill="#434343" clip-path="url(#id_0)" d="M249.72978 243.378C249.72978 246.69171 247.0435 249.378 243.72978 249.378C240.41608 249.378 237.72978 246.69171 237.72978 243.378C237.72978 240.06429 240.41608 237.378 243.72978 237.378C247.0435 237.378 249.72978 240.06429 249.72978 243.378Z" fill-rule="nonzero"/><path fill="#434343" clip-path="url(#id_0)" d="M260.45105 246.21333C260.45105 249.52704 257.76477 252.21333 254.45107 252.21333C251.13736 252.21333 248.45107 249.52704 248.45107 246.21333C248.45107 242.89963 251.13736 240.21333 254.45107 240.21333C257.76477 240.21333 260.45105 242.89963 260.45105 246.21333Z" fill-rule="nonzero"/><path fill="#434343" clip-path="url(#id_0)" d="M271.17233 250.93889C271.17233 254.2526 268.48605 256.9389 265.17233 256.9389C261.85864 256.9389 259.17233 254.2526 259.17233 250.93889C259.17233 247.62518 261.85864 244.93889 265.17233 244.93889C268.48605 244.93889 271.17233 247.62518 271.17233 250.93889Z" fill-rule="nonzero"/><path fill="#434343" clip-path="url(#id_0)" d="M281.89362 250.93889C281.89362 254.2526 279.20734 256.9389 275.89362 256.9389C272.5799 256.9389 269.89362 254.2526 269.89362 250.93889C269.89362 247.62518 272.5799 244.93889 275.89362 244.93889C279.20734 244.93889 281.89362 247.62518 281.89362 250.93889Z" fill-rule="nonzero"/><path fill="#434343" clip-path="url(#id_0)" d="M292.6149 257.55466C292.6149 260.86838 289.9286 263.55466 286.6149 263.55466C283.30118 263.55466 280.6149 260.86838 280.6149 257.55466C280.6149 254.24095 283.30118 251.55467 286.6149 251.55467C289.9286 251.55467 292.6149 254.24095 292.6149 257.55466Z" fill-rule="nonzero"/><path fill="#434343" clip-path="url(#id_0)" d="M303.33618 265.11557C303.33618 268.42926 300.64987 271.11557 297.33618 271.11557C294.02246 271.11557 291.33618 268.42926 291.33618 265.11557C291.33618 261.80185 294.02246 259.11557 297.33618 259.11557C300.64987 259.11557 303.33618 261.80185 303.33618 265.11557Z" fill-rule="nonzero"/><path fill="#434343" clip-path="url(#id_0)" d="M314.05743 274.56668C314.05743 277.88037 311.37115 280.56668 308.05743 280.56668C304.74374 280.56668 302.05743 277.88037 302.05743 274.56668C302.05743 271.25296 304.74374 268.56668 308.05743 268.56668C311.37115 268.56668 314.05743 271.25296 314.05743 274.56668Z" fill-rule="nonzero"/><path fill="#434343" clip-path="url(#id_0)" d="M324.77872 274.56668C324.77872 277.88037 322.09244 280.56668 318.77872 280.56668C315.46503 280.56668 312.77872 277.88037 312.77872 274.56668C312.77872 271.25296 315.46503 268.56668 318.77872 268.56668C322.09244 268.56668 324.77872 271.25296 324.77872 274.56668Z" fill-rule="nonzero"/><path fill="#434343" clip-path="url(#id_0)" d="M335.5 279.29224C335.5 282.60593 332.81372 285.29224 329.5 285.29224C326.18628 285.29224 323.5 282.60593 323.5 279.29224C323.5 275.97852 326.18628 273.29224 329.5 273.29224C332.81372 273.29224 335.5 275.97852 335.5 279.29224Z" fill-rule="nonzero"/><path fill="#434343" clip-path="url(#id_0)" d="M346.22128 284.0178C346.22128 287.33148 343.53497 290.0178 340.22128 290.0178C336.90756 290.0178 334.22128 287.33148 334.22128 284.0178C334.22128 280.70407 336.90756 278.0178 340.22128 278.0178C343.53497 278.0178 346.22128 280.70407 346.22128 284.0178Z" fill-rule="nonzero"/><path fill="#434343" clip-path="url(#id_0)" d="M356.94257 288.74335C356.94257 292.05704 354.25626 294.74335 350.94257 294.74335C347.62885 294.74335 344.94257 292.05704 344.94257 288.74335C344.94257 285.42963 347.62885 282.74335 350.94257 282.74335C354.25626 282.74335 356.94257 285.42963 356.94257 288.74335Z" fill-rule="nonzero"/><path fill="#434343" clip-path="url(#id_0)" d="M367.66382 298.19446C367.66382 301.50815 364.97754 304.19446 361.66382 304.19446C358.35013 304.19446 355.66382 301.50815 355.66382 298.19446C355.66382 294.88074 358.35013 292.19446 361.66382 292.19446C364.97754 292.19446 367.66382 294.88074 367.66382 298.19446Z" fill-rule="nonzero"/><path fill="#434343" clip-path="url(#id_0)" d="M378.3851 307.64557C378.3851 310.95926 375.69882 313.64557 372.3851 313.64557C369.0714 313.64557 366.3851 310.95926 366.3851 307.64557C366.3851 304.33185 369.0714 301.64557 372.3851 301.64557C375.69882 301.64557 378.3851 304.33185 378.3851 307.64557Z" fill-rule="nonzero"/><path fill="#434343" clip-path="url(#id_0)" d="M389.10638 307.64557C389.10638 310.95926 386.4201 313.64557 383.10638 313.64557C379.79266 313.64557 377.10638 310.95926 377.10638 307.64557C377.10638 304.33185 379.79266 301.64557 383.10638 301.64557C386.4201 301.64557 389.10638 304.33185 389.10638 307.64557Z" fill-rule="nonzero"/><path fill="#434343" clip-path="url(#id_0)" d="M399.82767 312.37112C399.82767 315.6848 397.14136 318.37112 393.82767 318.37112C390.51395 318.37112 387.82767 315.6848 387.82767 312.37112C387.82767 309.0574 390.51395 306.37112 393.82767 306.37112C397.14136 306.37112 399.82767 309.0574 399.82767 312.37112Z" fill-rule="nonzero"/><path fill="#434343" clip-path="url(#id_0)" d="M410.54895 312.37112C410.54895 315.6848 407.86264 318.37112 404.54895 318.37112C401.23523 318.37112 398.54895 315.6848 398.54895 312.37112C398.54895 309.0574 401.23523 306.37112 404.54895 306.37112C407.86264 306.37112 410.54895 309.0574 410.54895 312.37112Z" fill-rule="nonzero"/><path fill="#434343" clip-path="url(#id_0)" d="M421.2702 312.37112C421.2702 315.6848 418.58392 318.37112 415.2702 318.37112C411.9565 318.37112 409.2702 315.6848 409.2702 312.37112C409.2702 309.0574 411.9565 306.37112 415.2702 306.37112C418.58392 306.37112 421.2702 309.0574 421.2702 312.37112Z" fill-rule="nonzero"/><path fill="#434343" clip-path="url(#id_0)" d="M431.9915 317.09668C431.9915 320.41037 429.3052 323.09668 425.9915 323.09668C422.6778 323.09668 419.9915 320.41037 419.9915 317.09668C419.9915 313.78296 422.6778 311.09668 425.9915 311.09668C429.3052 311.09668 431.9915 313.78296 431.9915 317.09668Z" fill-rule="nonzero"/><path fill="#434343" clip-path="url(#id_0)" d="M442.71277 317.09668C442.71277 320.41037 440.0265 323.09668 436.71277 323.09668C433.39905 323.09668 430.71277 320.41037 430.71277 317.09668C430.71277 313.78296 433.39905 311.09668 436.71277 311.09668C440.0265 311.09668 442.71277 313.78296 442.71277 317.09668Z" fill-rule="nonzero"/><path fill="#434343" clip-path="url(#id_0)" d="M453.43405 317.09668C453.43405 320.41037 450.74774 323.09668 447.43405 323.09668C444.12033 323.09668 441.43405 320.41037 441.43405 317.09668C441.43405 313.78296 444.12033 311.09668 447.43405 311.09668C450.74774 311.09668 453.43405 313.78296 453.43405 317.09668Z" fill-rule="nonzero"/><path fill="#434343" clip-path="url(#id_0)" d="M464.1553 317.09668C464.1553 320.41037 461.46902 323.09668 458.1553 323.09668C454.8416 323.09668 452.1553 320.41037 452.1553 317.09668C452.1553 313.78296 454.8416 311.09668 458.1553 311.09668C461.46902 311.09668 464.1553 313.78296 464.1553 317.09668Z" fill-rule="nonzero"/><path fill="#434343" clip-path="url(#id_0)" d="M474.8766 317.09668C474.8766 320.41037 472.1903 323.09668 468.8766 323.09668C465.5629 323.09668 462.8766 320.41037 462.8766 317.09668C462.8766 313.78296 465.5629 311.09668 468.8766 311.09668C472.1903 311.09668 474.8766 313.78296 474.8766 317.09668Z" fill-rule="nonzero"/><path fill="#434343" clip-path="url(#id_0)" d="M485.59787 317.09668C485.59787 320.41037 482.9116 323.09668 479.59787 323.09668C476.28415 323.09668 473.59787 320.41037 473.59787 317.09668C473.59787 313.78296 476.28415 311.09668 479.59787 311.09668C482.9116 311.09668 485.59787 313.78296 485.59787 317.09668Z" fill-rule="nonzero"/><path fill="#434343" clip-path="url(#id_0)" d="M496.31915 317.09668C496.31915 320.41037 493.63284 323.09668 490.31915 323.09668C487.00543 323.09668 484.31915 320.41037 484.31915 317.09668C484.31915 313.78296 487.00543 311.09668 490.31915 311.09668C493.63284 311.09668 496.31915 313.78296 496.31915 317.09668Z" fill-rule="nonzero"/><path fill="#434343" clip-path="url(#id_0)" d="M507.04044 317.09668C507.04044 320.41037 504.35413 323.09668 501.04044 323.09668C497.7267 323.09668 495.04044 320.41037 495.04044 317.09668C495.04044 313.78296 497.7267 311.09668 501.04044 311.09668C504.35413 311.09668 507.04044 313.78296 507.04044 317.09668Z" fill-rule="nonzero"/><path fill="#434343" clip-path="url(#id_0)" d="M517.7617 326.5478C517.7617 329.86148 515.07544 332.5478 511.7617 332.5478C508.448 332.5478 505.7617 329.86148 505.7617 326.5478C505.7617 323.23407 508.448 320.5478 511.7617 320.5478C515.07544 320.5478 517.7617 323.23407 517.7617 326.5478Z" fill-rule="nonzero"/><path fill="#434343" clip-path="url(#id_0)" d="M528.483 331.27335C528.483 334.58704 525.7967 337.27335 522.483 337.27335C519.16925 337.27335 516.483 334.58704 516.483 331.27335C516.483 327.95963 519.16925 325.27335 522.483 325.27335C525.7967 325.27335 528.483 327.95963 528.483 331.27335Z" fill-rule="nonzero"/><path fill="#434343" clip-path="url(#id_0)" d="M539.2043 335.9989C539.2043 339.3126 536.51794 341.9989 533.2043 341.9989C529.89056 341.9989 527.2043 339.3126 527.2043 335.9989C527.2043 332.68518 529.89056 329.9989 533.2043 329.9989C536.51794 329.9989 539.2043 332.68518 539.2043 335.9989Z" fill-rule="nonzero"/><path fill="#434343" clip-path="url(#id_0)" d="M549.92554 335.9989C549.92554 339.3126 547.23926 341.9989 543.92554 341.9989C540.6118 341.9989 537.92554 339.3126 537.92554 335.9989C537.92554 332.68518 540.6118 329.9989 543.92554 329.9989C547.23926 329.9989 549.92554 332.68518 549.92554 335.9989Z" fill-rule="nonzero"/><path fill="#434343" clip-path="url(#id_0)" d="M560.6468 340.72446C560.6468 344.03815 557.9605 346.72446 554.6468 346.72446C551.3331 346.72446 548.6468 344.03815 548.6468 340.72446C548.6468 337.41074 551.3331 334.72446 554.6468 334.72446C557.9605 334.72446 560.6468 337.41074 560.6468 340.72446Z" fill-rule="nonzero"/><path fill="#434343" clip-path="url(#id_0)" d="M571.3681 340.72446C571.3681 344.03815 568.6818 346.72446 565.3681 346.72446C562.0544 346.72446 559.3681 344.03815 559.3681 340.72446C559.3681 337.41074 562.0544 334.72446 565.3681 334.72446C568.6818 334.72446 571.3681 337.41074 571.3681 340.72446Z" fill-rule="nonzero"/><path fill="#434343" clip-path="url(#id_0)" d="M582.08936 340.72446C582.08936 344.03815 579.4031 346.72446 576.08936 346.72446C572.77563 346.72446 570.08936 344.03815 570.08936 340.72446C570.08936 337.41074 572.77563 334.72446 576.08936 334.72446C579.4031 334.72446 582.08936 337.41074 582.08936 340.72446Z" fill-rule="nonzero"/><path fill="#000000" d="M26.784388 219.13646L26.690638 218.07396Q27.346888 217.99583 27.753138 217.71458Q28.159388 217.43333 28.425013 216.85521Q28.675013 216.26146 28.675013 215.52708Q28.675013 214.88646 28.487513 214.38646Q28.284388 213.88646 27.956263 213.65208Q27.612513 213.40208 27.221888 213.40208Q26.815638 213.40208 26.518763 213.63646Q26.206263 213.87083 26.003138 214.40208Q25.862513 214.76146 25.581263 215.94896Q25.300013 217.12083 25.050013 217.58958Q24.721888 218.21458 24.253138 218.51146Q23.768763 218.80833 23.175013 218.80833Q22.534388 218.80833 21.971888 218.44896Q21.393763 218.07396 21.112513 217.37083Q20.815638 216.65208 20.815638 215.79271Q20.815638 214.83958 21.128138 214.10521Q21.425013 213.37083 22.034388 212.98021Q22.628138 212.58958 23.378138 212.55833L23.456263 213.65208Q22.643763 213.74583 22.237513 214.26146Q21.815638 214.76146 21.815638 215.74583Q21.815638 216.77708 22.190638 217.24583Q22.565638 217.71458 23.096888 217.71458Q23.565638 217.71458 23.862513 217.38646Q24.159388 217.05833 24.471888 215.68333Q24.784388 214.29271 25.018763 213.77708Q25.378138 213.02708 25.909388 212.66771Q26.425013 212.30833 27.128138 212.30833Q27.815638 212.30833 28.425013 212.69896Q29.018763 213.08958 29.362513 213.82396Q29.690638 214.55833 29.690638 215.48021Q29.690638 216.65208 29.362513 217.44896Q29.018763 218.23021 28.331263 218.68333Q27.643763 219.12083 26.784388 219.13646ZM27.268763 206.82396L27.409388 205.79271Q28.471888 205.96458 29.081263 206.66771Q29.690638 207.37083 29.690638 208.38646Q29.690638 209.66771 28.862513 210.44896Q28.018763 211.21458 26.456263 211.21458Q25.456263 211.21458 24.706263 210.88646Q23.940638 210.54271 23.565638 209.87083Q23.190638 209.18333 23.190638 208.37083Q23.190638 207.37083 23.706263 206.73021Q24.206263 206.07396 25.159388 205.88646L25.315638 206.91771Q24.690638 207.05833 24.378138 207.43333Q24.050013 207.80833 24.050013 208.33958Q24.050013 209.13646 24.628138 209.63646Q25.190638 210.13646 26.425013 210.13646Q27.690638 210.13646 28.253138 209.65208Q28.815638 209.16771 28.815638 208.40208Q28.815638 207.77708 28.440638 207.37083Q28.065638 206.94896 27.268763 206.82396ZM26.440638 205.27708Q24.706263 205.27708 23.878138 204.32396Q23.190638 203.52708 23.190638 202.37083Q23.190638 201.08958 24.034388 200.27708Q24.862513 199.44896 26.346888 199.44896Q27.550013 199.44896 28.237513 199.80833Q28.925013 200.16771 29.315638 200.87083Q29.690638 201.55833 29.690638 202.37083Q29.690638 203.66771 28.862513 204.48021Q28.018763 205.27708 26.440638 205.27708ZM26.440638 204.19896Q27.628138 204.19896 28.221888 203.68333Q28.815638 203.15208 28.815638 202.37083Q28.815638 201.57396 28.221888 201.05833Q27.628138 200.54271 26.409388 200.54271Q25.253138 200.54271 24.659388 201.07396Q24.065638 201.58958 24.065638 202.37083Q24.065638 203.15208 24.659388 203.68333Q25.237513 204.19896 26.440638 204.19896ZM29.550013 197.90208L23.331263 197.90208L23.331263 196.94896L24.268763 196.94896Q23.612513 196.58958 23.409388 196.29271Q23.190638 195.98021 23.190638 195.60521Q23.190638 195.07396 23.518763 194.52708L24.503138 194.88646Q24.268763 195.27708 24.268763 195.65208Q24.268763 196.01146 24.487513 196.29271Q24.690638 196.55833 25.065638 196.66771Q25.628138 196.85521 26.284388 196.85521L29.550013 196.85521L29.550013 197.90208ZM27.550013 189.63646L27.675013 188.54271Q28.628138 188.79271 29.159388 189.49583Q29.690638 190.19896 29.690638 191.27708Q29.690638 192.63646 28.846888 193.44896Q28.003138 194.24583 26.487513 194.24583Q24.925013 194.24583 24.065638 193.43333Q23.190638 192.62083 23.190638 191.33958Q23.190638 190.08958 24.034388 189.30833Q24.878138 188.51146 26.425013 188.51146Q26.518763 188.51146 26.706263 188.51146L26.706263 193.15208Q27.737513 193.08958 28.284388 192.57396Q28.815638 192.05833 28.815638 191.27708Q28.815638 190.69896 28.518763 190.29271Q28.206263 189.87083 27.550013 189.63646ZM25.846888 193.08958L25.846888 189.62083Q25.050013 189.68333 24.659388 190.01146Q24.050013 190.52708 24.050013 191.32396Q24.050013 192.05833 24.534388 192.55833Q25.018763 193.04271 25.846888 193.08958Z" fill-rule="nonzero"/><path fill="#000000" d="M65.05 345.21564Q65.05 343.6844 65.3625 342.7625Q65.675 341.825 66.28438 341.325Q66.90938 340.825 67.84688 340.825Q68.53438 340.825 69.05 341.10626Q69.58125 341.3875 69.925 341.91876Q70.26875 342.4344 70.45625 343.1844Q70.64375 343.9344 70.64375 345.21564Q70.64375 346.73126 70.33125 347.65314Q70.03438 348.575 69.40938 349.09064Q68.8 349.59064 67.84688 349.59064Q66.6125 349.59064 65.89375 348.7Q65.05 347.6375 65.05 345.21564ZM66.12813 345.21564Q66.12813 347.325 66.62813 348.02814Q67.12813 348.73126 67.84688 348.73126Q68.58125 348.73126 69.06563 348.02814Q69.56563 347.325 69.56563 345.21564Q69.56563 343.09064 69.06563 342.40314Q68.58125 341.7 67.83125 341.7Q67.1125 341.7 66.675 342.3094Q66.12813 343.09064 66.12813 345.21564Z" fill-rule="nonzero"/><path fill="#000000" d="M58.05 318.83105L59.1125 318.69043Q59.284374 319.58105 59.721874 319.9873Q60.159374 320.37793 60.784374 320.37793Q61.534374 320.37793 62.05 319.8623Q62.565624 319.34668 62.565624 318.58105Q62.565624 317.8623 62.08125 317.39355Q61.6125 316.90918 60.878124 316.90918Q60.58125 316.90918 60.128124 317.03418L60.253124 316.09668Q60.3625 316.1123 60.425 316.1123Q61.096874 316.1123 61.628124 315.76855Q62.175 315.40918 62.175 314.6748Q62.175 314.09668 61.784374 313.72168Q61.39375 313.33105 60.76875 313.33105Q60.159374 313.33105 59.7375 313.72168Q59.33125 314.1123 59.221874 314.87793L58.159374 314.69043Q58.346874 313.64355 59.034374 313.06543Q59.721874 312.47168 60.7375 312.47168Q61.440624 312.47168 62.034374 312.78418Q62.628124 313.08105 62.940624 313.59668Q63.253124 314.1123 63.253124 314.70605Q63.253124 315.25293 62.95625 315.72168Q62.659374 316.1748 62.08125 316.44043Q62.83125 316.6123 63.253124 317.1748Q63.675 317.72168 63.675 318.56543Q63.675 319.69043 62.846874 320.47168Q62.034374 321.25293 60.784374 321.25293Q59.659374 321.25293 58.909374 320.58105Q58.159374 319.89355 58.05 318.83105ZM65.05 316.8623Q65.05 315.33105 65.3625 314.40918Q65.675 313.47168 66.28438 312.97168Q66.90938 312.47168 67.84688 312.47168Q68.53438 312.47168 69.05 312.75293Q69.58125 313.03418 69.925 313.56543Q70.26875 314.08105 70.45625 314.83105Q70.64375 315.58105 70.64375 316.8623Q70.64375 318.37793 70.33125 319.2998Q70.03438 320.22168 69.40938 320.7373Q68.8 321.2373 67.84688 321.2373Q66.6125 321.2373 65.89375 320.34668Q65.05 319.28418 65.05 316.8623ZM66.12813 316.8623Q66.12813 318.97168 66.62813 319.6748Q67.12813 320.37793 67.84688 320.37793Q68.58125 320.37793 69.06563 319.6748Q69.56563 318.97168 69.56563 316.8623Q69.56563 314.7373 69.06563 314.0498Q68.58125 313.34668 67.83125 313.34668Q67.1125 313.34668 66.675 313.95605Q66.12813 314.7373 66.12813 316.8623Z" fill-rule="nonzero"/><path fill="#000000" d="M63.51875 286.25897L62.471874 286.3371Q62.33125 285.7121 62.08125 285.43085Q61.64375 284.97772 61.01875 284.97772Q60.51875 284.97772 60.128124 285.25897Q59.64375 285.63397 59.346874 286.3371Q59.065624 287.0246 59.05 288.30585Q59.425 287.72772 59.971874 287.44647Q60.534374 287.16522 61.14375 287.16522Q62.190624 287.16522 62.925 287.94647Q63.675 288.72772 63.675 289.94647Q63.675 290.75897 63.315624 291.4621Q62.971874 292.1496 62.3625 292.5246Q61.753124 292.88397 60.9875 292.88397Q59.659374 292.88397 58.83125 291.91522Q58.003124 290.94647 58.003124 288.72772Q58.003124 286.22772 58.925 285.10272Q59.721874 284.11835 61.08125 284.11835Q62.096874 284.11835 62.7375 284.69647Q63.39375 285.25897 63.51875 286.25897ZM59.221874 289.9621Q59.221874 290.50897 59.440624 291.00897Q59.675 291.49335 60.08125 291.75897Q60.503124 292.0246 60.971874 292.0246Q61.628124 292.0246 62.1125 291.49335Q62.596874 290.94647 62.596874 290.0246Q62.596874 289.13397 62.1125 288.61835Q61.64375 288.10272 60.925 288.10272Q60.20625 288.10272 59.70625 288.61835Q59.221874 289.13397 59.221874 289.9621ZM65.05 288.50897Q65.05 286.97772 65.3625 286.05585Q65.675 285.11835 66.28438 284.61835Q66.90938 284.11835 67.84688 284.11835Q68.53438 284.11835 69.05 284.3996Q69.58125 284.68085 69.925 285.2121Q70.26875 285.72772 70.45625 286.47772Q70.64375 287.22772 70.64375 288.50897Q70.64375 290.0246 70.33125 290.94647Q70.03438 291.86835 69.40938 292.38397Q68.8 292.88397 67.84688 292.88397Q66.6125 292.88397 65.89375 291.99335Q65.05 290.93085 65.05 288.50897ZM66.12813 288.50897Q66.12813 290.61835 66.62813 291.32147Q67.12813 292.0246 67.84688 292.0246Q68.58125 292.0246 69.06563 291.32147Q69.56563 290.61835 69.56563 288.50897Q69.56563 286.38397 69.06563 285.69647Q68.58125 284.99335 67.83125 284.99335Q67.1125 284.99335 66.675 285.60272Q66.12813 286.38397 66.12813 288.50897Z" fill-rule="nonzero"/><path fill="#000000" d="M58.20625 262.40564L59.221874 262.3119Q59.346874 263.03064 59.70625 263.35876Q60.08125 263.67126 60.64375 263.67126Q61.128124 263.67126 61.4875 263.4525Q61.8625 263.21814 62.096874 262.85876Q62.33125 262.48376 62.4875 261.85876Q62.64375 261.21814 62.64375 260.5619Q62.64375 260.48376 62.64375 260.34314Q62.33125 260.84314 61.784374 261.17126Q61.2375 261.48376 60.596874 261.48376Q59.51875 261.48376 58.784374 260.71814Q58.05 259.9369 58.05 258.67126Q58.05 257.35876 58.815624 256.5619Q59.596874 255.76501 60.753124 255.76501Q61.58125 255.76501 62.26875 256.21814Q62.971874 256.67126 63.33125 257.515Q63.690624 258.34314 63.690624 259.92126Q63.690624 261.5619 63.33125 262.54626Q62.9875 263.515 62.26875 264.03064Q61.565624 264.53064 60.628124 264.53064Q59.6125 264.53064 58.971874 263.98376Q58.33125 263.42126 58.20625 262.40564ZM62.51875 258.60876Q62.51875 257.7025 62.034374 257.17126Q61.565624 256.64 60.878124 256.64Q60.175 256.64 59.64375 257.21814Q59.128124 257.78064 59.128124 258.7025Q59.128124 259.515 59.628124 260.03064Q60.128124 260.54626 60.846874 260.54626Q61.58125 260.54626 62.05 260.03064Q62.51875 259.515 62.51875 258.60876ZM65.05 260.15564Q65.05 258.6244 65.3625 257.7025Q65.675 256.765 66.28438 256.265Q66.90938 255.76501 67.84688 255.76501Q68.53438 255.76501 69.05 256.04626Q69.58125 256.3275 69.925 256.85876Q70.26875 257.3744 70.45625 258.1244Q70.64375 258.8744 70.64375 260.15564Q70.64375 261.67126 70.33125 262.59314Q70.03438 263.515 69.40938 264.03064Q68.8 264.53064 67.84688 264.53064Q66.6125 264.53064 65.89375 263.64Q65.05 262.5775 65.05 260.15564ZM66.12813 260.15564Q66.12813 262.265 66.62813 262.96814Q67.12813 263.67126 67.84688 263.67126Q68.58125 263.67126 69.06563 262.96814Q69.56563 262.265 69.56563 260.15564Q69.56563 258.03064 69.06563 257.34314Q68.58125 256.64 67.83125 256.64Q67.1125 256.64 66.675 257.2494Q66.12813 258.03064 66.12813 260.15564Z" fill-rule="nonzero"/><path fill="#000000" d="M55.01875 236.03667L53.971874 236.03667L53.971874 229.31792Q53.58125 229.67729 52.95625 230.05229Q52.346874 230.41167 51.8625 230.58354L51.8625 229.56792Q52.7375 229.14604 53.39375 228.56792Q54.065624 227.97417 54.346874 227.41167L55.01875 227.41167L55.01875 236.03667ZM63.596874 235.02104L63.596874 236.03667L57.909374 236.03667Q57.909374 235.66167 58.034374 235.30229Q58.253124 234.72417 58.721874 234.16167Q59.20625 233.59917 60.1125 232.86479Q61.51875 231.70854 62.003124 231.03667Q62.503124 230.36479 62.503124 229.77104Q62.503124 229.14604 62.05 228.72417Q61.596874 228.28667 60.878124 228.28667Q60.1125 228.28667 59.659374 228.73979Q59.20625 229.19292 59.190624 230.00542L58.1125 229.89604Q58.221874 228.67729 58.940624 228.05229Q59.675 227.41167 60.909374 227.41167Q62.14375 227.41167 62.8625 228.09917Q63.58125 228.78667 63.58125 229.80229Q63.58125 230.31792 63.3625 230.81792Q63.159374 231.30229 62.659374 231.86479Q62.175 232.41167 61.05 233.36479Q60.096874 234.16167 59.815624 234.45854Q59.55 234.73979 59.378124 235.02104L63.596874 235.02104ZM65.05 231.80229Q65.05 230.27104 65.3625 229.34917Q65.675 228.41167 66.28438 227.91167Q66.90938 227.41167 67.84688 227.41167Q68.53438 227.41167 69.05 227.69292Q69.58125 227.97417 69.925 228.50542Q70.26875 229.02104 70.45625 229.77104Q70.64375 230.52104 70.64375 231.80229Q70.64375 233.31792 70.33125 234.23979Q70.03438 235.16167 69.40938 235.67729Q68.8 236.17729 67.84688 236.17729Q66.6125 236.17729 65.89375 235.28667Q65.05 234.22417 65.05 231.80229ZM66.12813 231.80229Q66.12813 233.91167 66.62813 234.61479Q67.12813 235.31792 67.84688 235.31792Q68.58125 235.31792 69.06563 234.61479Q69.56563 233.91167 69.56563 231.80229Q69.56563 229.67729 69.06563 228.98979Q68.58125 228.28667 67.83125 228.28667Q67.1125 228.28667 66.675 228.89604Q66.12813 229.67729 66.12813 231.80229Z" fill-rule="nonzero"/><path fill="#000000" d="M55.01875 207.68333L53.971874 207.68333L53.971874 200.96458Q53.58125 201.32396 52.95625 201.69896Q52.346874 202.05833 51.8625 202.23021L51.8625 201.21458Q52.7375 200.79271 53.39375 200.21458Q54.065624 199.62083 54.346874 199.05833L55.01875 199.05833L55.01875 207.68333ZM58.05 205.43333L59.159374 205.33958Q59.284374 206.15208 59.721874 206.55833Q60.175 206.96458 60.815624 206.96458Q61.565624 206.96458 62.096874 206.38646Q62.628124 205.80833 62.628124 204.87083Q62.628124 203.96458 62.1125 203.44896Q61.6125 202.91771 60.784374 202.91771Q60.284374 202.91771 59.8625 203.15208Q59.45625 203.38646 59.221874 203.74583L58.2375 203.62083L59.065624 199.21458L63.346874 199.21458L63.346874 200.21458L59.909374 200.21458L59.45625 202.52708Q60.221874 201.98021 61.065624 201.98021Q62.190624 201.98021 62.95625 202.76146Q63.7375 203.54271 63.7375 204.77708Q63.7375 205.93333 63.065624 206.79271Q62.2375 207.82396 60.815624 207.82396Q59.64375 207.82396 58.89375 207.16771Q58.159374 206.51146 58.05 205.43333ZM65.05 203.44896Q65.05 201.91771 65.3625 200.99583Q65.675 200.05833 66.28438 199.55833Q66.90938 199.05833 67.84688 199.05833Q68.53438 199.05833 69.05 199.33958Q69.58125 199.62083 69.925 200.15208Q70.26875 200.66771 70.45625 201.41771Q70.64375 202.16771 70.64375 203.44896Q70.64375 204.96458 70.33125 205.88646Q70.03438 206.80833 69.40938 207.32396Q68.8 207.82396 67.84688 207.82396Q66.6125 207.82396 65.89375 206.93333Q65.05 205.87083 65.05 203.44896ZM66.12813 203.44896Q66.12813 205.55833 66.62813 206.26146Q67.12813 206.96458 67.84688 206.96458Q68.58125 206.96458 69.06563 206.26146Q69.56563 205.55833 69.56563 203.44896Q69.56563 201.32396 69.06563 200.63646Q68.58125 199.93333 67.83125 199.93333Q67.1125 199.93333 66.675 200.54271Q66.12813 201.32396 66.12813 203.44896Z" fill-rule="nonzero"/><path fill="#000000" d="M55.01875 179.33L53.971874 179.33L53.971874 172.61125Q53.58125 172.97063 52.95625 173.34563Q52.346874 173.705 51.8625 173.87688L51.8625 172.86125Q52.7375 172.43938 53.39375 171.86125Q54.065624 171.2675 54.346874 170.705L55.01875 170.705L55.01875 179.33ZM59.675 174.67375Q59.01875 174.42375 58.690624 173.98625Q58.378124 173.53313 58.378124 172.92375Q58.378124 171.98625 59.05 171.34563Q59.7375 170.705 60.846874 170.705Q61.971874 170.705 62.659374 171.36125Q63.346874 172.0175 63.346874 172.955Q63.346874 173.54875 63.034374 173.98625Q62.721874 174.42375 62.08125 174.67375Q62.878124 174.92375 63.284374 175.50188Q63.690624 176.08 63.690624 176.87688Q63.690624 177.97063 62.909374 178.72063Q62.14375 179.47063 60.8625 179.47063Q59.596874 179.47063 58.815624 178.72063Q58.034374 177.97063 58.034374 176.84563Q58.034374 176.00188 58.45625 175.43938Q58.89375 174.87688 59.675 174.67375ZM59.45625 172.87688Q59.45625 173.48625 59.846874 173.87688Q60.253124 174.2675 60.878124 174.2675Q61.4875 174.2675 61.878124 173.8925Q62.26875 173.50188 62.26875 172.93938Q62.26875 172.36125 61.8625 171.97063Q61.45625 171.56438 60.8625 171.56438Q60.253124 171.56438 59.846874 171.955Q59.45625 172.34563 59.45625 172.87688ZM59.128124 176.84563Q59.128124 177.29875 59.33125 177.72063Q59.55 178.1425 59.971874 178.37688Q60.39375 178.61125 60.878124 178.61125Q61.628124 178.61125 62.1125 178.12688Q62.6125 177.6425 62.6125 176.8925Q62.6125 176.12688 62.1125 175.62688Q61.6125 175.12688 60.846874 175.12688Q60.096874 175.12688 59.6125 175.62688Q59.128124 176.11125 59.128124 176.84563ZM65.05 175.09563Q65.05 173.56438 65.3625 172.6425Q65.675 171.705 66.28438 171.205Q66.90938 170.705 67.84688 170.705Q68.53438 170.705 69.05 170.98625Q69.58125 171.2675 69.925 171.79875Q70.26875 172.31438 70.45625 173.06438Q70.64375 173.81438 70.64375 175.09563Q70.64375 176.61125 70.33125 177.53313Q70.03438 178.455 69.40938 178.97063Q68.8 179.47063 67.84688 179.47063Q66.6125 179.47063 65.89375 178.58Q65.05 177.5175 65.05 175.09563ZM66.12813 175.09563Q66.12813 177.205 66.62813 177.90813Q67.12813 178.61125 67.84688 178.61125Q68.58125 178.61125 69.06563 177.90813Q69.56563 177.205 69.56563 175.09563Q69.56563 172.97063 69.06563 172.28313Q68.58125 171.58 67.83125 171.58Q67.1125 171.58 66.675 172.18938Q66.12813 172.97063 66.12813 175.09563Z" fill-rule="nonzero"/><path fill="#000000" d="M56.596874 149.96104L56.596874 150.97667L50.909374 150.97667Q50.909374 150.60167 51.034374 150.2423Q51.253124 149.66417 51.721874 149.10167Q52.20625 148.53917 53.1125 147.8048Q54.51875 146.64854 55.003124 145.97667Q55.503124 145.3048 55.503124 144.71104Q55.503124 144.08604 55.05 143.66417Q54.596874 143.22667 53.878124 143.22667Q53.1125 143.22667 52.659374 143.6798Q52.20625 144.13292 52.190624 144.94542L51.1125 144.83604Q51.221874 143.6173 51.940624 142.9923Q52.675 142.35167 53.909374 142.35167Q55.14375 142.35167 55.8625 143.03917Q56.58125 143.72667 56.58125 144.7423Q56.58125 145.25792 56.3625 145.75792Q56.159374 146.2423 55.659374 146.8048Q55.175 147.35167 54.05 148.3048Q53.096874 149.10167 52.815624 149.39854Q52.55 149.6798 52.378124 149.96104L56.596874 149.96104ZM62.01875 150.97667L60.971874 150.97667L60.971874 144.25792Q60.58125 144.6173 59.95625 144.9923Q59.346874 145.35167 58.8625 145.52354L58.8625 144.50792Q59.7375 144.08604 60.39375 143.50792Q61.065624 142.91417 61.346874 142.35167L62.01875 142.35167L62.01875 150.97667ZM65.05 146.7423Q65.05 145.21104 65.3625 144.28917Q65.675 143.35167 66.28438 142.85167Q66.90938 142.35167 67.84688 142.35167Q68.53438 142.35167 69.05 142.63292Q69.58125 142.91417 69.925 143.44542Q70.26875 143.96104 70.45625 144.71104Q70.64375 145.46104 70.64375 146.7423Q70.64375 148.25792 70.33125 149.1798Q70.03438 150.10167 69.40938 150.6173Q68.8 151.1173 67.84688 151.1173Q66.6125 151.1173 65.89375 150.22667Q65.05 149.16417 65.05 146.7423ZM66.12813 146.7423Q66.12813 148.85167 66.62813 149.5548Q67.12813 150.25792 67.84688 150.25792Q68.58125 150.25792 69.06563 149.5548Q69.56563 148.85167 69.56563 146.7423Q69.56563 144.6173 69.06563 143.9298Q68.58125 143.22667 67.83125 143.22667Q67.1125 143.22667 66.675 143.83604Q66.12813 144.6173 66.12813 146.7423Z" fill-rule="nonzero"/><path fill="#000000" d="M56.596874 121.60771L56.596874 122.62334L50.909374 122.62334Q50.909374 122.24834 51.034374 121.88896Q51.253124 121.31084 51.721874 120.74834Q52.20625 120.18584 53.1125 119.45146Q54.51875 118.29521 55.003124 117.62334Q55.503124 116.95146 55.503124 116.35771Q55.503124 115.73271 55.05 115.31084Q54.596874 114.87334 53.878124 114.87334Q53.1125 114.87334 52.659374 115.32646Q52.20625 115.77959 52.190624 116.59209L51.1125 116.48271Q51.221874 115.26396 51.940624 114.63896Q52.675 113.99834 53.909374 113.99834Q55.14375 113.99834 55.8625 114.68584Q56.58125 115.37334 56.58125 116.38896Q56.58125 116.90459 56.3625 117.40459Q56.159374 117.88896 55.659374 118.45146Q55.175 118.99834 54.05 119.95146Q53.096874 120.74834 52.815624 121.04521Q52.55 121.32646 52.378124 121.60771L56.596874 121.60771ZM61.425 122.62334L61.425 120.56084L57.70625 120.56084L57.70625 119.59209L61.628124 114.02959L62.4875 114.02959L62.4875 119.59209L63.64375 119.59209L63.64375 120.56084L62.4875 120.56084L62.4875 122.62334L61.425 122.62334ZM61.425 119.59209L61.425 115.73271L58.7375 119.59209L61.425 119.59209ZM65.05 118.38896Q65.05 116.85771 65.3625 115.93584Q65.675 114.99834 66.28438 114.49834Q66.90938 113.99834 67.84688 113.99834Q68.53438 113.99834 69.05 114.27959Q69.58125 114.56084 69.925 115.09209Q70.26875 115.60771 70.45625 116.35771Q70.64375 117.10771 70.64375 118.38896Q70.64375 119.90459 70.33125 120.82646Q70.03438 121.74834 69.40938 122.26396Q68.8 122.76396 67.84688 122.76396Q66.6125 122.76396 65.89375 121.87334Q65.05 120.81084 65.05 118.38896ZM66.12813 118.38896Q66.12813 120.49834 66.62813 121.20146Q67.12813 121.90459 67.84688 121.90459Q68.58125 121.90459 69.06563 121.20146Q69.56563 120.49834 69.56563 118.38896Q69.56563 116.26396 69.06563 115.57646Q68.58125 114.87334 67.83125 114.87334Q67.1125 114.87334 66.675 115.48271Q66.12813 116.26396 66.12813 118.38896Z" fill-rule="nonzero"/><path fill="#000000" d="M56.596874 93.25437L56.596874 94.27L50.909374 94.27Q50.909374 93.895 51.034374 93.53562Q51.253124 92.9575 51.721874 92.395Q52.20625 91.8325 53.1125 91.09812Q54.51875 89.94187 55.003124 89.27Q55.503124 88.59812 55.503124 88.00437Q55.503124 87.37937 55.05 86.9575Q54.596874 86.52 53.878124 86.52Q53.1125 86.52 52.659374 86.97312Q52.20625 87.42625 52.190624 88.23875L51.1125 88.12937Q51.221874 86.91062 51.940624 86.28562Q52.675 85.645 53.909374 85.645Q55.14375 85.645 55.8625 86.3325Q56.58125 87.02 56.58125 88.03562Q56.58125 88.55125 56.3625 89.05125Q56.159374 89.53562 55.659374 90.09812Q55.175 90.645 54.05 91.59812Q53.096874 92.395 52.815624 92.69187Q52.55 92.97312 52.378124 93.25437L56.596874 93.25437ZM58.1125 86.80125L58.1125 85.78562L63.675 85.78562L63.675 86.61375Q62.8625 87.48875 62.05 88.94187Q61.253124 90.37937 60.815624 91.91062Q60.4875 92.98875 60.409374 94.27L59.315624 94.27Q59.33125 93.25437 59.70625 91.81687Q60.096874 90.37937 60.8 89.05125Q61.51875 87.72312 62.33125 86.80125L58.1125 86.80125ZM65.05 90.03562Q65.05 88.50437 65.3625 87.5825Q65.675 86.645 66.28438 86.145Q66.90938 85.645 67.84688 85.645Q68.53438 85.645 69.05 85.92625Q69.58125 86.2075 69.925 86.73875Q70.26875 87.25437 70.45625 88.00437Q70.64375 88.75437 70.64375 90.03562Q70.64375 91.55125 70.33125 92.47312Q70.03438 93.395 69.40938 93.91062Q68.8 94.41062 67.84688 94.41062Q66.6125 94.41062 65.89375 93.52Q65.05 92.4575 65.05 90.03562ZM66.12813 90.03562Q66.12813 92.145 66.62813 92.84812Q67.12813 93.55125 67.84688 93.55125Q68.58125 93.55125 69.06563 92.84812Q69.56563 92.145 69.56563 90.03562Q69.56563 87.91062 69.06563 87.22312Q68.58125 86.52 67.83125 86.52Q67.1125 86.52 66.675 87.12937Q66.12813 87.91062 66.12813 90.03562Z" fill-rule="nonzero"/><path fill="#000000" d="M51.05 63.65104L52.1125 63.510414Q52.284374 64.40104 52.721874 64.80729Q53.159374 65.197914 53.784374 65.197914Q54.534374 65.197914 55.05 64.68229Q55.565624 64.166664 55.565624 63.40104Q55.565624 62.68229 55.08125 62.21354Q54.6125 61.729164 53.878124 61.729164Q53.58125 61.729164 53.128124 61.854164L53.253124 60.916664Q53.3625 60.93229 53.425 60.93229Q54.096874 60.93229 54.628124 60.58854Q55.175 60.229164 55.175 59.49479Q55.175 58.916664 54.784374 58.541664Q54.39375 58.15104 53.76875 58.15104Q53.159374 58.15104 52.7375 58.541664Q52.33125 58.93229 52.221874 59.697914L51.159374 59.510414Q51.346874 58.46354 52.034374 57.885414Q52.721874 57.291664 53.7375 57.291664Q54.440624 57.291664 55.034374 57.604164Q55.628124 57.90104 55.940624 58.416664Q56.253124 58.93229 56.253124 59.52604Q56.253124 60.072914 55.95625 60.541664Q55.659374 60.99479 55.08125 61.260414Q55.83125 61.43229 56.253124 61.99479Q56.675 62.541664 56.675 63.385414Q56.675 64.510414 55.846874 65.291664Q55.034374 66.072914 53.784374 66.072914Q52.659374 66.072914 51.909374 65.40104Q51.159374 64.71354 51.05 63.65104ZM58.05 61.68229Q58.05 60.15104 58.3625 59.229164Q58.675 58.291664 59.284374 57.791664Q59.909374 57.291664 60.846874 57.291664Q61.534374 57.291664 62.05 57.572914Q62.58125 57.854164 62.925 58.385414Q63.26875 58.90104 63.45625 59.65104Q63.64375 60.40104 63.64375 61.68229Q63.64375 63.197914 63.33125 64.11979Q63.034374 65.041664 62.409374 65.55729Q61.8 66.05729 60.846874 66.05729Q59.6125 66.05729 58.89375 65.166664Q58.05 64.104164 58.05 61.68229ZM59.128124 61.68229Q59.128124 63.791664 59.628124 64.49479Q60.128124 65.197914 60.846874 65.197914Q61.58125 65.197914 62.065624 64.49479Q62.565624 63.791664 62.565624 61.68229Q62.565624 59.55729 62.065624 58.86979Q61.58125 58.166664 60.83125 58.166664Q60.1125 58.166664 59.675 58.77604Q59.128124 59.55729 59.128124 61.68229ZM65.05 61.68229Q65.05 60.15104 65.3625 59.229164Q65.675 58.291664 66.28438 57.791664Q66.90938 57.291664 67.84688 57.291664Q68.53438 57.291664 69.05 57.572914Q69.58125 57.854164 69.925 58.385414Q70.26875 58.90104 70.45625 59.65104Q70.64375 60.40104 70.64375 61.68229Q70.64375 63.197914 70.33125 64.11979Q70.03438 65.041664 69.40938 65.55729Q68.8 66.05729 67.84688 66.05729Q66.6125 66.05729 65.89375 65.166664Q65.05 64.104164 65.05 61.68229ZM66.12813 61.68229Q66.12813 63.791664 66.62813 64.49479Q67.12813 65.197914 67.84688 65.197914Q68.58125 65.197914 69.06563 64.49479Q69.56563 63.791664 69.56563 61.68229Q69.56563 59.55729 69.06563 58.86979Q68.58125 58.166664 67.83125 58.166664Q67.1125 58.166664 66.675 58.77604Q66.12813 59.55729 66.12813 61.68229Z" fill-rule="nonzero"/><path fill="#757575" d="M23.7375 37.55L23.7375 24.925L19.01875 24.925L19.01875 23.2375L30.3625 23.2375L30.3625 24.925L25.628124 24.925L25.628124 37.55L23.7375 37.55ZM31.221874 32.3625Q31.221874 29.4875 32.815624 28.096874Q34.159374 26.940624 36.08125 26.940624Q38.221874 26.940624 39.565624 28.346874Q40.925 29.753124 40.925 32.221874Q40.925 34.221874 40.33125 35.378124Q39.7375 36.51875 38.58125 37.159374Q37.440624 37.784374 36.08125 37.784374Q33.89375 37.784374 32.55 36.39375Q31.221874 34.9875 31.221874 32.3625ZM33.01875 32.3625Q33.01875 34.3625 33.878124 35.346874Q34.753124 36.33125 36.08125 36.33125Q37.39375 36.33125 38.253124 35.346874Q39.128124 34.346874 39.128124 32.3Q39.128124 30.378124 38.253124 29.39375Q37.378124 28.39375 36.08125 28.39375Q34.753124 28.39375 33.878124 29.39375Q33.01875 30.378124 33.01875 32.3625ZM46.70625 35.971874L46.95625 37.534374Q46.221874 37.690624 45.628124 37.690624Q44.675 37.690624 44.14375 37.39375Q43.628124 37.08125 43.409374 36.596874Q43.190624 36.096874 43.190624 34.51875L43.190624 28.55L41.909374 28.55L41.909374 27.175L43.190624 27.175L43.190624 24.6125L44.940624 23.55L44.940624 27.175L46.70625 27.175L46.70625 28.55L44.940624 28.55L44.940624 34.6125Q44.940624 35.3625 45.034374 35.58125Q45.128124 35.784374 45.33125 35.925Q45.55 36.05 45.940624 36.05Q46.221874 36.05 46.70625 35.971874ZM55.64375 36.26875Q54.659374 37.096874 53.753124 37.440624Q52.846874 37.784374 51.815624 37.784374Q50.1125 37.784374 49.190624 36.95625Q48.26875 36.1125 48.26875 34.815624Q48.26875 34.05 48.6125 33.425Q48.971874 32.8 49.534374 32.425Q50.096874 32.034374 50.8 31.83125Q51.315624 31.70625 52.3625 31.565624Q54.4875 31.315624 55.4875 30.971874Q55.503124 30.6125 55.503124 30.503124Q55.503124 29.440624 55.003124 28.9875Q54.33125 28.39375 53.003124 28.39375Q51.753124 28.39375 51.159374 28.83125Q50.58125 29.26875 50.3 30.378124L48.58125 30.14375Q48.815624 29.034374 49.346874 28.3625Q49.878124 27.675 50.89375 27.315624Q51.909374 26.940624 53.253124 26.940624Q54.58125 26.940624 55.409374 27.253124Q56.2375 27.565624 56.628124 28.05Q57.01875 28.51875 57.175 29.2375Q57.26875 29.690624 57.26875 30.8625L57.26875 33.20625Q57.26875 35.659374 57.378124 36.315624Q57.4875 36.95625 57.83125 37.55L55.9875 37.55Q55.721874 37.003124 55.64375 36.26875ZM55.4875 32.346874Q54.534374 32.7375 52.6125 33.003124Q51.534374 33.159374 51.08125 33.3625Q50.64375 33.55 50.39375 33.925Q50.14375 34.3 50.14375 34.76875Q50.14375 35.471874 50.675 35.940624Q51.20625 36.409374 52.2375 36.409374Q53.253124 36.409374 54.034374 35.971874Q54.83125 35.51875 55.20625 34.753124Q55.4875 34.14375 55.4875 32.9875L55.4875 32.346874ZM59.83125 37.55L59.83125 23.2375L61.58125 23.2375L61.58125 37.55L59.83125 37.55Z" fill-rule="nonzero"/></svg>