<svg version="1.1" viewBox="0.0 0.0 600.0 371.0" fill="none" stroke="none" stroke-linecap="square" stroke-miterlimit="10" width="600" height="371" xmlns:xlink="http://www.w3.org/1999/xlink" xmlns="http://www.w3.org/2000/svg"><path fill="#ffffff" d="M0 0L600.0 0L600.0 371.0L0 371.0L0 0Z" fill-rule="nonzero"/><path stroke="#333333" stroke-width="1.0" stroke-linecap="butt" d="M78.5 344.5L581.5 344.5" fill-rule="nonzero"/><path stroke="#cccccc" stroke-width="1.0" stroke-linecap="butt" d="M78.5 316.5L581.5 316.5" fill-rule="nonzero"/><path stroke="#cccccc" stroke-width="1.0" stroke-linecap="butt" d="M78.5 288.5L581.5 288.5" fill-rule="nonzero"/><path stroke="#cccccc" stroke-width="1.0" stroke-linecap="butt" d="M78.5 260.5L581.5 260.5" fill-rule="nonzero"/><path stroke="#cccccc" stroke-width="1.0" stroke-linecap="butt" d="M78.5 231.5L581.5 231.5" fill-rule="nonzero"/><path stroke="#cccccc" stroke-width="1.0" stroke-linecap="butt" d="M78.5 203.5L581.5 203.5" fill-rule="nonzero"/><path stroke="#cccccc" stroke-width="1.0" stroke-linecap="butt" d="M78.5 175.5L581.5 175.5" fill-rule="nonzero"/><path stroke="#cccccc" stroke-width="1.0" stroke-linecap="butt" d="M78.5 147.5L581.5 147.5" fill-rule="nonzero"/><path stroke="#cccccc" stroke-width="1.0" stroke-linecap="butt" d="M78.5 118.5L581.5 118.5" fill-rule="nonzero"/><path stroke="#cccccc" stroke-width="1.0" stroke-linecap="butt" d="M78.5 90.5L581.5 90.5" fill-rule="nonzero"/><path stroke="#cccccc" stroke-width="1.0" stroke-linecap="butt" d="M78.5 62.5L581.5 62.5" fill-rule="nonzero"/><clipPath id="id_0"><path d="M78.55 62.416668L581.45 62.416668L581.45 344.95L78.55 344.95L78.55 62.416668Z" clip-rule="nonzero"/></clipPath><path stroke="#434343" stroke-width="2.0" stroke-linecap="butt" clip-path="url(#id_0)" d="M84.397675 62.416668L96.093025 62.416668L107.788376 62.416668L119.48372 62.416668L131.17908 62.416668L142.87442 62.416668L154.56976 62.416668L166.26512 62.416668L177.96046 62.416668L189.6558 62.416668L201.35117 62.416668L213.04651 62.416668L224.74187 62.416668L236.43721 62.416668L248.13255 62.416668L259.8279 62.416668L271.52325 62.416668L283.2186 62.416668L294.91394 62.416668L306.6093 62.416668L318.30466 101.97134L330.0 181.08067L341.69534 231.93666L353.3907 231.93666L365.08606 231.93666L376.7814 231.93666L388.47675 231.93666L400.1721 231.93666L411.86743 231.93666L423.5628 311.046L435.25815 311.046L446.9535 311.046L458.64883 311.046L470.34418 344.95L482.03952 344.95L493.7349 344.95L505.43024 344.95L517.1256 344.95L528.8209 344.95L540.5163 344.95L552.2116 344.95L563.907 344.95L575.60236 344.95" fill-rule="nonzero"/><path fill="#434343" clip-path="url(#id_0)" d="M90.397675 62.416668C90.397675 65.73038 87.71138 68.416664 84.397675 68.416664C81.08397 68.416664 78.397675 65.73038 78.397675 62.416668C78.397675 59.10296 81.08397 56.416668 84.397675 56.416668C87.71138 56.416668 90.397675 59.10296 90.397675 62.416668Z" fill-rule="nonzero"/><path fill="#434343" clip-path="url(#id_0)" d="M102.093025 62.416668C102.093025 65.73038 99.40673 68.416664 96.093025 68.416664C92.77931 68.416664 90.093025 65.73038 90.093025 62.416668C90.093025 59.10296 92.77931 56.416668 96.093025 56.416668C99.40673 56.416668 102.093025 59.10296 102.093025 62.416668Z" fill-rule="nonzero"/><path fill="#434343" clip-path="url(#id_0)" d="M113.788376 62.416668C113.788376 65.73038 111.10208 68.416664 107.788376 68.416664C104.47466 68.416664 101.788376 65.73038 101.788376 62.416668C101.788376 59.10296 104.47466 56.416668 107.788376 56.416668C111.10208 56.416668 113.788376 59.10296 113.788376 62.416668Z" fill-rule="nonzero"/><path fill="#434343" clip-path="url(#id_0)" d="M125.48372 62.416668C125.48372 65.73038 122.79743 68.416664 119.48372 68.416664C116.17001 68.416664 113.48372 65.73038 113.48372 62.416668C113.48372 59.10296 116.17001 56.416668 119.48372 56.416668C122.79743 56.416668 125.48372 59.10296 125.48372 62.416668Z" fill-rule="nonzero"/><path fill="#434343" clip-path="url(#id_0)" d="M137.17908 62.416668C137.17908 65.73038 134.49278 68.416664 131.17908 68.416664C127.865364 68.416664 125.17907 65.73038 125.17907 62.416668C125.17907 59.10296 127.865364 56.416668 131.17908 56.416668C134.49278 56.416668 137.17908 59.10296 137.17908 62.416668Z" fill-rule="nonzero"/><path fill="#434343" clip-path="url(#id_0)" d="M148.87442 62.416668C148.87442 65.73038 146.18813 68.416664 142.87442 68.416664C139.56071 68.416664 136.87442 65.73038 136.87442 62.416668C136.87442 59.10296 139.56071 56.416668 142.87442 56.416668C146.18813 56.416668 148.87442 59.10296 148.87442 62.416668Z" fill-rule="nonzero"/><path fill="#434343" clip-path="url(#id_0)" d="M160.56976 62.416668C160.56976 65.73038 157.88347 68.416664 154.56976 68.416664C151.25606 68.416664 148.56976 65.73038 148.56976 62.416668C148.56976 59.10296 151.25606 56.416668 154.56976 56.416668C157.88347 56.416668 160.56976 59.10296 160.56976 62.416668Z" fill-rule="nonzero"/><path fill="#434343" clip-path="url(#id_0)" d="M172.26512 62.416668C172.26512 65.73038 169.57883 68.416664 166.26512 68.416664C162.9514 68.416664 160.26512 65.73038 160.26512 62.416668C160.26512 59.10296 162.9514 56.416668 166.26512 56.416668C169.57883 56.416668 172.26512 59.10296 172.26512 62.416668Z" fill-rule="nonzero"/><path fill="#434343" clip-path="url(#id_0)" d="M183.96046 62.416668C183.96046 65.73038 181.27417 68.416664 177.96046 68.416664C174.64676 68.416664 171.96046 65.73038 171.96046 62.416668C171.96046 59.10296 174.64676 56.416668 177.96046 56.416668C181.27417 56.416668 183.96046 59.10296 183.96046 62.416668Z" fill-rule="nonzero"/><path fill="#434343" clip-path="url(#id_0)" d="M195.6558 62.416668C195.6558 65.73038 192.96953 68.416664 189.6558 68.416664C186.3421 68.416664 183.6558 65.73038 183.6558 62.416668C183.6558 59.10296 186.3421 56.416668 189.6558 56.416668C192.96953 56.416668 195.6558 59.10296 195.6558 62.416668Z" fill-rule="nonzero"/><path fill="#434343" clip-path="url(#id_0)" d="M207.35117 62.416668C207.35117 65.73038 204.66487 68.416664 201.35117 68.416664C198.03746 68.416664 195.35117 65.73038 195.35117 62.416668C195.35117 59.10296 198.03746 56.416668 201.35117 56.416668C204.66487 56.416668 207.35117 59.10296 207.35117 62.416668Z" fill-rule="nonzero"/><path fill="#434343" clip-path="url(#id_0)" d="M219.04651 62.416668C219.04651 65.73038 216.36021 68.416664 213.04651 68.416664C209.7328 68.416664 207.04651 65.73038 207.04651 62.416668C207.04651 59.10296 209.7328 56.416668 213.04651 56.416668C216.36021 56.416668 219.04651 59.10296 219.04651 62.416668Z" fill-rule="nonzero"/><path fill="#434343" clip-path="url(#id_0)" d="M230.74187 62.416668C230.74187 65.73038 228.05557 68.416664 224.74187 68.416664C221.42815 68.416664 218.74187 65.73038 218.74187 62.416668C218.74187 59.10296 221.42815 56.416668 224.74187 56.416668C228.05557 56.416668 230.74187 59.10296 230.74187 62.416668Z" fill-rule="nonzero"/><path fill="#434343" clip-path="url(#id_0)" d="M242.43721 62.416668C242.43721 65.73038 239.75092 68.416664 236.43721 68.416664C233.1235 68.416664 230.43721 65.73038 230.43721 62.416668C230.43721 59.10296 233.1235 56.416668 236.43721 56.416668C239.75092 56.416668 242.43721 59.10296 242.43721 62.416668Z" fill-rule="nonzero"/><path fill="#434343" clip-path="url(#id_0)" d="M254.13255 62.416668C254.13255 65.73038 251.44627 68.416664 248.13255 68.416664C244.81885 68.416664 242.13255 65.73038 242.13255 62.416668C242.13255 59.10296 244.81885 56.416668 248.13255 56.416668C251.44627 56.416668 254.13255 59.10296 254.13255 62.416668Z" fill-rule="nonzero"/><path fill="#434343" clip-path="url(#id_0)" d="M265.8279 62.416668C265.8279 65.73038 263.1416 68.416664 259.8279 68.416664C256.5142 68.416664 253.82791 65.73038 253.82791 62.416668C253.82791 59.10296 256.5142 56.416668 259.8279 56.416668C263.1416 56.416668 265.8279 59.10296 265.8279 62.416668Z" fill-rule="nonzero"/><path fill="#434343" clip-path="url(#id_0)" d="M277.52325 62.416668C277.52325 65.73038 274.83698 68.416664 271.52325 68.416664C268.20953 68.416664 265.52325 65.73038 265.52325 62.416668C265.52325 59.10296 268.20953 56.416668 271.52325 56.416668C274.83698 56.416668 277.52325 59.10296 277.52325 62.416668Z" fill-rule="nonzero"/><path fill="#434343" clip-path="url(#id_0)" d="M289.2186 62.416668C289.2186 65.73038 286.53232 68.416664 283.2186 68.416664C279.9049 68.416664 277.2186 65.73038 277.2186 62.416668C277.2186 59.10296 279.9049 56.416668 283.2186 56.416668C286.53232 56.416668 289.2186 59.10296 289.2186 62.416668Z" fill-rule="nonzero"/><path fill="#434343" clip-path="url(#id_0)" d="M300.91394 62.416668C300.91394 65.73038 298.22766 68.416664 294.91394 68.416664C291.60025 68.416664 288.91394 65.73038 288.91394 62.416668C288.91394 59.10296 291.60025 56.416668 294.91394 56.416668C298.22766 56.416668 300.91394 59.10296 300.91394 62.416668Z" fill-rule="nonzero"/><path fill="#434343" clip-path="url(#id_0)" d="M312.6093 62.416668C312.6093 65.73038 309.923 68.416664 306.6093 68.416664C303.2956 68.416664 300.6093 65.73038 300.6093 62.416668C300.6093 59.10296 303.2956 56.416668 306.6093 56.416668C309.923 56.416668 312.6093 59.10296 312.6093 62.416668Z" fill-rule="nonzero"/><path fill="#434343" clip-path="url(#id_0)" d="M324.30466 101.97134C324.30466 105.28504 321.61835 107.97134 318.30466 107.97134C314.99094 107.97134 312.30466 105.28504 312.30466 101.97134C312.30466 98.65762 314.99094 95.97134 318.30466 95.97134C321.61835 95.97134 324.30466 98.65762 324.30466 101.97134Z" fill-rule="nonzero"/><path fill="#434343" clip-path="url(#id_0)" d="M336.0 181.08067C336.0 184.39438 333.31372 187.08067 330.0 187.08067C326.68628 187.08067 324.0 184.39438 324.0 181.08067C324.0 177.76695 326.68628 175.08067 330.0 175.08067C333.31372 175.08067 336.0 177.76695 336.0 181.08067Z" fill-rule="nonzero"/><path fill="#434343" clip-path="url(#id_0)" d="M347.69534 231.93666C347.69534 235.25038 345.00906 237.93666 341.69534 237.93666C338.38165 237.93666 335.69534 235.25038 335.69534 231.93666C335.69534 228.62296 338.38165 225.93666 341.69534 225.93666C345.00906 225.93666 347.69534 228.62296 347.69534 231.93666Z" fill-rule="nonzero"/><path fill="#434343" clip-path="url(#id_0)" d="M359.3907 231.93666C359.3907 235.25038 356.7044 237.93666 353.3907 237.93666C350.077 237.93666 347.3907 235.25038 347.3907 231.93666C347.3907 228.62296 350.077 225.93666 353.3907 225.93666C356.7044 225.93666 359.3907 228.62296 359.3907 231.93666Z" fill-rule="nonzero"/><path fill="#434343" clip-path="url(#id_0)" d="M371.08606 231.93666C371.08606 235.25038 368.39975 237.93666 365.08606 237.93666C361.77234 237.93666 359.08606 235.25038 359.08606 231.93666C359.08606 228.62296 361.77234 225.93666 365.08606 225.93666C368.39975 225.93666 371.08606 228.62296 371.08606 231.93666Z" fill-rule="nonzero"/><path fill="#434343" clip-path="url(#id_0)" d="M382.7814 231.93666C382.7814 235.25038 380.0951 237.93666 376.7814 237.93666C373.46768 237.93666 370.7814 235.25038 370.7814 231.93666C370.7814 228.62296 373.46768 225.93666 376.7814 225.93666C380.0951 225.93666 382.7814 228.62296 382.7814 231.93666Z" fill-rule="nonzero"/><path fill="#434343" clip-path="url(#id_0)" d="M394.47675 231.93666C394.47675 235.25038 391.79047 237.93666 388.47675 237.93666C385.16302 237.93666 382.47675 235.25038 382.47675 231.93666C382.47675 228.62296 385.16302 225.93666 388.47675 225.93666C391.79047 225.93666 394.47675 228.62296 394.47675 231.93666Z" fill-rule="nonzero"/><path fill="#434343" clip-path="url(#id_0)" d="M406.1721 231.93666C406.1721 235.25038 403.4858 237.93666 400.1721 237.93666C396.8584 237.93666 394.1721 235.25038 394.1721 231.93666C394.1721 228.62296 396.8584 225.93666 400.1721 225.93666C403.4858 225.93666 406.1721 228.62296 406.1721 231.93666Z" fill-rule="nonzero"/><path fill="#434343" clip-path="url(#id_0)" d="M417.86743 231.93666C417.86743 235.25038 415.18115 237.93666 411.86743 237.93666C408.55374 237.93666 405.86743 235.25038 405.86743 231.93666C405.86743 228.62296 408.55374 225.93666 411.86743 225.93666C415.18115 225.93666 417.86743 228.62296 417.86743 231.93666Z" fill-rule="nonzero"/><path fill="#434343" clip-path="url(#id_0)" d="M429.5628 311.046C429.5628 314.3597 426.8765 317.046 423.5628 317.046C420.24908 317.046 417.5628 314.3597 417.5628 311.046C417.5628 307.7323 420.24908 305.046 423.5628 305.046C426.8765 305.046 429.5628 307.7323 429.5628 311.046Z" fill-rule="nonzero"/><path fill="#434343" clip-path="url(#id_0)" d="M441.25815 311.046C441.25815 314.3597 438.57184 317.046 435.25815 317.046C431.94443 317.046 429.25815 314.3597 429.25815 311.046C429.25815 307.7323 431.94443 305.046 435.25815 305.046C438.57184 305.046 441.25815 307.7323 441.25815 311.046Z" fill-rule="nonzero"/><path fill="#434343" clip-path="url(#id_0)" d="M452.9535 311.046C452.9535 314.3597 450.2672 317.046 446.9535 317.046C443.63977 317.046 440.9535 314.3597 440.9535 311.046C440.9535 307.7323 443.63977 305.046 446.9535 305.046C450.2672 305.046 452.9535 307.7323 452.9535 311.046Z" fill-rule="nonzero"/><path fill="#434343" clip-path="url(#id_0)" d="M464.64883 311.046C464.64883 314.3597 461.96255 317.046 458.64883 317.046C455.3351 317.046 452.64883 314.3597 452.64883 311.046C452.64883 307.7323 455.3351 305.046 458.64883 305.046C461.96255 305.046 464.64883 307.7323 464.64883 311.046Z" fill-rule="nonzero"/><path fill="#434343" clip-path="url(#id_0)" d="M476.34418 344.95C476.34418 348.2637 473.6579 350.95 470.34418 350.95C467.0305 350.95 464.34418 348.2637 464.34418 344.95C464.34418 341.6363 467.0305 338.95 470.34418 338.95C473.6579 338.95 476.34418 341.6363 476.34418 344.95Z" fill-rule="nonzero"/><path fill="#434343" clip-path="url(#id_0)" d="M488.03952 344.95C488.03952 348.2637 485.35324 350.95 482.03952 350.95C478.72583 350.95 476.03952 348.2637 476.03952 344.95C476.03952 341.6363 478.72583 338.95 482.03952 338.95C485.35324 338.95 488.03952 341.6363 488.03952 344.95Z" fill-rule="nonzero"/><path fill="#434343" clip-path="url(#id_0)" d="M499.7349 344.95C499.7349 348.2637 497.04858 350.95 493.7349 350.95C490.42117 350.95 487.7349 348.2637 487.7349 344.95C487.7349 341.6363 490.42117 338.95 493.7349 338.95C497.04858 338.95 499.7349 341.6363 499.7349 344.95Z" fill-rule="nonzero"/><path fill="#434343" clip-path="url(#id_0)" d="M511.43024 344.95C511.43024 348.2637 508.74393 350.95 505.43024 350.95C502.11652 350.95 499.43024 348.2637 499.43024 344.95C499.43024 341.6363 502.11652 338.95 505.43024 338.95C508.74393 338.95 511.43024 341.6363 511.43024 344.95Z" fill-rule="nonzero"/><path fill="#434343" clip-path="url(#id_0)" d="M523.1256 344.95C523.1256 348.2637 520.4393 350.95 517.1256 350.95C513.8119 350.95 511.12558 348.2637 511.12558 344.95C511.12558 341.6363 513.8119 338.95 517.1256 338.95C520.4393 338.95 523.1256 341.6363 523.1256 344.95Z" fill-rule="nonzero"/><path fill="#434343" clip-path="url(#id_0)" d="M534.8209 344.95C534.8209 348.2637 532.13464 350.95 528.8209 350.95C525.5072 350.95 522.8209 348.2637 522.8209 344.95C522.8209 341.6363 525.5072 338.95 528.8209 338.95C532.13464 338.95 534.8209 341.6363 534.8209 344.95Z" fill-rule="nonzero"/><path fill="#434343" clip-path="url(#id_0)" d="M546.5163 344.95C546.5163 348.2637 543.83 350.95 540.5163 350.95C537.2026 350.95 534.5163 348.2637 534.5163 344.95C534.5163 341.6363 537.2026 338.95 540.5163 338.95C543.83 338.95 546.5163 341.6363 546.5163 344.95Z" fill-rule="nonzero"/><path fill="#434343" clip-path="url(#id_0)" d="M558.2116 344.95C558.2116 348.2637 555.5253 350.95 552.2116 350.95C548.89795 350.95 546.2116 348.2637 546.2116 344.95C546.2116 341.6363 548.89795 338.95 552.2116 338.95C555.5253 338.95 558.2116 341.6363 558.2116 344.95Z" fill-rule="nonzero"/><path fill="#434343" clip-path="url(#id_0)" d="M569.907 344.95C569.907 348.2637 567.2207 350.95 563.907 350.95C560.59326 350.95 557.907 348.2637 557.907 344.95C557.907 341.6363 560.59326 338.95 563.907 338.95C567.2207 338.95 569.907 341.6363 569.907 344.95Z" fill-rule="nonzero"/><path fill="#434343" clip-path="url(#id_0)" d="M581.60236 344.95C581.60236 348.2637 578.916 350.95 575.60236 350.95C572.28864 350.95 569.60236 348.2637 569.60236 344.95C569.60236 341.6363 572.28864 338.95 575.60236 338.95C578.916 338.95 581.60236 341.6363 581.60236 344.95Z" fill-rule="nonzero"/><path fill="#424242" d="M26.753138 215.18333Q26.331263 216.62083 25.721888 217.29271Q25.112513 217.94896 24.221888 217.94896Q23.221888 217.94896 22.565638 217.15208Q21.893763 216.33958 21.893763 215.04271Q21.893763 214.16771 22.237513 213.48021Q22.581263 212.79271 23.175013 212.41771Q23.768763 212.02708 24.487513 212.02708L24.487513 213.16771Q23.706263 213.16771 23.268763 213.66771Q22.831263 214.15208 22.831263 215.04271Q22.831263 215.87083 23.206263 216.33958Q23.565638 216.80833 24.206263 216.80833Q24.737513 216.80833 25.096888 216.37083Q25.456263 215.91771 25.753138 214.85521Q26.050013 213.79271 26.409388 213.19896Q26.768763 212.58958 27.253138 212.30833Q27.737513 212.01146 28.378138 212.01146Q29.425013 212.01146 30.050013 212.82396Q30.675013 213.63646 30.675013 214.98021Q30.675013 215.87083 30.331263 216.63646Q29.987513 217.38646 29.409388 217.80833Q28.815638 218.21458 28.081263 218.21458L28.081263 217.08958Q28.846888 217.08958 29.300013 216.51146Q29.753138 215.93333 29.753138 214.98021Q29.753138 214.08958 29.393763 213.62083Q29.018763 213.15208 28.393763 213.15208Q27.768763 213.15208 27.425013 213.58958Q27.081263 214.02708 26.753138 215.18333ZM29.784388 208.32396Q29.784388 207.74583 29.440638 207.30833Q29.081263 206.87083 28.550013 206.82396L28.550013 205.79271Q29.096888 205.82396 29.596888 206.18333Q30.081263 206.52708 30.378138 207.10521Q30.675013 207.66771 30.675013 208.32396Q30.675013 209.62083 29.815638 210.38646Q28.940638 211.13646 27.440638 211.13646L27.253138 211.13646Q26.331263 211.13646 25.612513 210.80833Q24.893763 210.46458 24.503138 209.83958Q24.096888 209.19896 24.096888 208.32396Q24.096888 207.26146 24.737513 206.55833Q25.362513 205.83958 26.393763 205.79271L26.393763 206.82396Q25.768763 206.87083 25.378138 207.29271Q24.987513 207.71458 24.987513 208.32396Q24.987513 209.15208 25.581263 209.60521Q26.175013 210.05833 27.300013 210.05833L27.503138 210.05833Q28.596888 210.05833 29.190638 209.60521Q29.784388 209.15208 29.784388 208.32396ZM27.315638 205.15208Q26.393763 205.15208 25.643763 204.79271Q24.893763 204.41771 24.503138 203.76146Q24.096888 203.10521 24.096888 202.27708Q24.096888 200.98021 24.987513 200.18333Q25.878138 199.37083 27.378138 199.37083L27.456263 199.37083Q28.378138 199.37083 29.112513 199.73021Q29.846888 200.08958 30.268763 200.74583Q30.675013 201.40208 30.675013 202.26146Q30.675013 203.54271 29.784388 204.35521Q28.878138 205.15208 27.393763 205.15208L27.315638 205.15208ZM27.456263 204.05833Q28.503138 204.05833 29.143763 203.57396Q29.784388 203.07396 29.784388 202.26146Q29.784388 201.43333 29.143763 200.94896Q28.487513 200.46458 27.315638 200.46458Q26.284388 200.46458 25.643763 200.96458Q24.987513 201.44896 24.987513 202.27708Q24.987513 203.07396 25.628138 203.57396Q26.253138 204.05833 27.456263 204.05833ZM25.175013 194.79271Q25.143763 195.04271 25.143763 195.32396Q25.143763 196.40208 26.050013 196.77708L30.550013 196.77708L30.550013 197.85521L24.206263 197.85521L24.206263 196.80833L24.940638 196.79271Q24.096888 196.26146 24.096888 195.27708Q24.096888 194.96458 24.175013 194.79271L25.175013 194.79271ZM30.675013 191.23021Q30.675013 192.52708 29.831263 193.33958Q28.971888 194.13646 27.550013 194.13646L27.362513 194.13646Q26.409388 194.13646 25.675013 193.77708Q24.925013 193.41771 24.518763 192.77708Q24.096888 192.12083 24.096888 191.37083Q24.096888 190.13646 24.909388 189.44896Q25.721888 188.76146 27.237513 188.76146L27.690638 188.76146L27.690638 193.05833Q28.628138 193.02708 29.206263 192.51146Q29.784388 191.98021 29.784388 191.16771Q29.784388 190.60521 29.550013 190.21458Q29.315638 189.80833 28.925013 189.49583L29.440638 188.83958Q30.675013 189.63646 30.675013 191.23021ZM24.987513 191.37083Q24.987513 192.02708 25.471888 192.48021Q25.940638 192.91771 26.800013 193.01146L26.800013 189.83958L26.721888 189.83958Q25.893763 189.88646 25.440638 190.29271Q24.987513 190.68333 24.987513 191.37083Z" fill-rule="nonzero"/><path fill="#757575" d="M71.6125 345.8094Q71.6125 347.71564 70.95625 348.65314Q70.31563 349.575 68.925 349.575Q67.56563 349.575 66.90938 348.66876Q66.25313 347.7625 66.22188 345.95L66.22188 344.5125Q66.22188 342.6219 66.8625 341.71564Q67.51875 340.79376 68.90938 340.79376Q70.28438 340.79376 70.94063 341.6844Q71.59688 342.5594 71.6125 344.40314L71.6125 345.8094ZM70.51875 344.325Q70.51875 342.95 70.12813 342.325Q69.75313 341.6844 68.90938 341.6844Q68.08125 341.6844 67.69063 342.325Q67.31563 342.95 67.31563 344.2469L67.31563 345.98126Q67.31563 347.35626 67.70625 348.02814Q68.1125 348.6844 68.925 348.6844Q69.72188 348.6844 70.1125 348.0594Q70.50313 347.4344 70.51875 346.10626L70.51875 344.325Z" fill-rule="nonzero"/><path fill="#757575" d="M62.815624 321.19666L61.7375 321.19666L61.7375 313.9779L59.55 314.77478L59.55 313.7904L62.659374 312.61853L62.815624 312.61853L62.815624 321.19666ZM71.6125 317.55603Q71.6125 319.46228 70.95625 320.39978Q70.31563 321.32166 68.925 321.32166Q67.56563 321.32166 66.90938 320.4154Q66.25313 319.50916 66.22188 317.69666L66.22188 316.25916Q66.22188 314.36853 66.8625 313.46228Q67.51875 312.5404 68.90938 312.5404Q70.28438 312.5404 70.94063 313.43103Q71.59688 314.30603 71.6125 316.14978L71.6125 317.55603ZM70.51875 316.07166Q70.51875 314.69666 70.12813 314.07166Q69.75313 313.43103 68.90938 313.43103Q68.08125 313.43103 67.69063 314.07166Q67.31563 314.69666 67.31563 315.99353L67.31563 317.7279Q67.31563 319.1029 67.70625 319.77478Q68.1125 320.43103 68.925 320.43103Q69.72188 320.43103 70.1125 319.80603Q70.50313 319.18103 70.51875 317.8529L70.51875 316.07166Z" fill-rule="nonzero"/><path fill="#757575" d="M64.84688 292.94333L59.253124 292.94333L59.253124 292.16208L62.20625 288.88083Q62.8625 288.13083 63.1125 287.6777Q63.3625 287.20895 63.3625 286.70895Q63.3625 286.03708 62.95625 285.6152Q62.565624 285.1777 61.878124 285.1777Q61.08125 285.1777 60.628124 285.64645Q60.175 286.09958 60.175 286.9277L59.096874 286.9277Q59.096874 285.7402 59.846874 285.02145Q60.6125 284.28708 61.878124 284.28708Q63.08125 284.28708 63.76875 284.91208Q64.45625 285.53708 64.45625 286.58395Q64.45625 287.83395 62.846874 289.58395L60.565624 292.0527L64.84688 292.0527L64.84688 292.94333ZM71.6125 289.3027Q71.6125 291.20895 70.95625 292.14645Q70.31563 293.06833 68.925 293.06833Q67.56563 293.06833 66.90938 292.16208Q66.25313 291.25583 66.22188 289.44333L66.22188 288.00583Q66.22188 286.1152 66.8625 285.20895Q67.51875 284.28708 68.90938 284.28708Q70.28438 284.28708 70.94063 285.1777Q71.59688 286.0527 71.6125 287.89645L71.6125 289.3027ZM70.51875 287.81833Q70.51875 286.44333 70.12813 285.81833Q69.75313 285.1777 68.90938 285.1777Q68.08125 285.1777 67.69063 285.81833Q67.31563 286.44333 67.31563 287.7402L67.31563 289.47458Q67.31563 290.84958 67.70625 291.52145Q68.1125 292.1777 68.925 292.1777Q69.72188 292.1777 70.1125 291.5527Q70.50313 290.9277 70.51875 289.59958L70.51875 287.81833Z" fill-rule="nonzero"/><path fill="#757575" d="M60.83125 259.89313L61.64375 259.89313Q62.425 259.8775 62.8625 259.48688Q63.3 259.09625 63.3 258.42438Q63.3 256.92438 61.8 256.92438Q61.096874 256.92438 60.675 257.33063Q60.26875 257.73688 60.26875 258.39313L59.175 258.39313Q59.175 257.3775 59.909374 256.70563Q60.659374 256.03375 61.8 256.03375Q63.003124 256.03375 63.690624 256.67438Q64.37813 257.315 64.37813 258.45563Q64.37813 259.01813 64.01875 259.53375Q63.659374 260.04938 63.034374 260.315Q63.7375 260.53375 64.1125 261.04938Q64.50313 261.565 64.50313 262.315Q64.50313 263.45563 63.753124 264.14313Q63.003124 264.815 61.8 264.815Q60.6125 264.815 59.846874 264.15875Q59.096874 263.5025 59.096874 262.44L60.190624 262.44Q60.190624 263.11188 60.628124 263.51813Q61.065624 263.92438 61.815624 263.92438Q62.596874 263.92438 63.003124 263.51813Q63.425 263.09625 63.425 262.33063Q63.425 261.59625 62.971874 261.20563Q62.51875 260.79938 61.64375 260.78375L60.83125 260.78375L60.83125 259.89313ZM71.6125 261.04938Q71.6125 262.95563 70.95625 263.89313Q70.31563 264.815 68.925 264.815Q67.56563 264.815 66.90938 263.90875Q66.25313 263.0025 66.22188 261.19L66.22188 259.7525Q66.22188 257.86188 66.8625 256.95563Q67.51875 256.03375 68.90938 256.03375Q70.28438 256.03375 70.94063 256.92438Q71.59688 257.79938 71.6125 259.64313L71.6125 261.04938ZM70.51875 259.565Q70.51875 258.19 70.12813 257.565Q69.75313 256.92438 68.90938 256.92438Q68.08125 256.92438 67.69063 257.565Q67.31563 258.19 67.31563 259.48688L67.31563 261.22125Q67.31563 262.59625 67.70625 263.26813Q68.1125 263.92438 68.925 263.92438Q69.72188 263.92438 70.1125 263.29938Q70.50313 262.67438 70.51875 261.34625L70.51875 259.565Z" fill-rule="nonzero"/><path fill="#757575" d="M63.83125 233.57729L65.01875 233.57729L65.01875 234.45229L63.83125 234.45229L63.83125 236.43666L62.753124 236.43666L62.753124 234.45229L58.8625 234.45229L58.8625 233.81166L62.675 227.90541L63.83125 227.90541L63.83125 233.57729ZM60.096874 233.57729L62.753124 233.57729L62.753124 229.38979L62.6125 229.62416L60.096874 233.57729ZM71.6125 232.79604Q71.6125 234.70229 70.95625 235.63979Q70.31563 236.56166 68.925 236.56166Q67.56563 236.56166 66.90938 235.65541Q66.25313 234.74916 66.22188 232.93666L66.22188 231.49916Q66.22188 229.60854 66.8625 228.70229Q67.51875 227.78041 68.90938 227.78041Q70.28438 227.78041 70.94063 228.67104Q71.59688 229.54604 71.6125 231.38979L71.6125 232.79604ZM70.51875 231.31166Q70.51875 229.93666 70.12813 229.31166Q69.75313 228.67104 68.90938 228.67104Q68.08125 228.67104 67.69063 229.31166Q67.31563 229.93666 67.31563 231.23354L67.31563 232.96791Q67.31563 234.34291 67.70625 235.01479Q68.1125 235.67104 68.925 235.67104Q69.72188 235.67104 70.1125 235.04604Q70.50313 234.42104 70.51875 233.09291L70.51875 231.31166Z" fill-rule="nonzero"/><path fill="#757575" d="M59.753124 203.90208L60.190624 199.65208L64.56563 199.65208L64.56563 200.65208L61.1125 200.65208L60.846874 202.98021Q61.4875 202.60521 62.284374 202.60521Q63.440624 202.60521 64.12813 203.38646Q64.81563 204.15208 64.81563 205.46458Q64.81563 206.77708 64.09688 207.54271Q63.39375 208.30833 62.1125 208.30833Q60.9875 208.30833 60.26875 207.68333Q59.55 207.04271 59.45625 205.93333L60.471874 205.93333Q60.58125 206.66771 61.003124 207.04271Q61.425 207.41771 62.1125 207.41771Q62.8625 207.41771 63.3 206.90208Q63.7375 206.38646 63.7375 205.48021Q63.7375 204.62083 63.26875 204.10521Q62.8 203.58958 62.01875 203.58958Q61.315624 203.58958 60.909374 203.88646L60.628124 204.12083L59.753124 203.90208ZM71.6125 204.54271Q71.6125 206.44896 70.95625 207.38646Q70.31563 208.30833 68.925 208.30833Q67.56563 208.30833 66.90938 207.40208Q66.25313 206.49583 66.22188 204.68333L66.22188 203.24583Q66.22188 201.35521 66.8625 200.44896Q67.51875 199.52708 68.90938 199.52708Q70.28438 199.52708 70.94063 200.41771Q71.59688 201.29271 71.6125 203.13646L71.6125 204.54271ZM70.51875 203.05833Q70.51875 201.68333 70.12813 201.05833Q69.75313 200.41771 68.90938 200.41771Q68.08125 200.41771 67.69063 201.05833Q67.31563 201.68333 67.31563 202.98021L67.31563 204.71458Q67.31563 206.08958 67.70625 206.76146Q68.1125 207.41771 68.925 207.41771Q69.72188 207.41771 70.1125 206.79271Q70.50313 206.16771 70.51875 204.83958L70.51875 203.05833Z" fill-rule="nonzero"/><path fill="#757575" d="M63.51875 171.39874L63.51875 172.305L63.315624 172.305Q62.05 172.33624 61.3 173.07062Q60.55 173.78937 60.425 175.10187Q61.1125 174.33624 62.26875 174.33624Q63.378124 174.33624 64.05 175.1175Q64.72188 175.89874 64.72188 177.14874Q64.72188 178.46124 64.00313 179.25812Q63.284374 180.055 62.065624 180.055Q60.846874 180.055 60.08125 179.1175Q59.33125 178.16437 59.33125 176.68L59.33125 176.27374Q59.33125 173.91437 60.33125 172.66437Q61.33125 171.41437 63.315624 171.39874L63.51875 171.39874ZM62.096874 175.2425Q61.534374 175.2425 61.065624 175.57062Q60.596874 175.89874 60.409374 176.41437L60.409374 176.805Q60.409374 177.8675 60.878124 178.50812Q61.3625 179.14874 62.065624 179.14874Q62.8 179.14874 63.221874 178.6175Q63.64375 178.07062 63.64375 177.19562Q63.64375 176.32062 63.221874 175.78937Q62.8 175.2425 62.096874 175.2425ZM71.6125 176.28937Q71.6125 178.19562 70.95625 179.13312Q70.31563 180.055 68.925 180.055Q67.56563 180.055 66.90938 179.14874Q66.25313 178.2425 66.22188 176.43L66.22188 174.9925Q66.22188 173.10187 66.8625 172.19562Q67.51875 171.27374 68.90938 171.27374Q70.28438 171.27374 70.94063 172.16437Q71.59688 173.03937 71.6125 174.88312L71.6125 176.28937ZM70.51875 174.805Q70.51875 173.43 70.12813 172.805Q69.75313 172.16437 68.90938 172.16437Q68.08125 172.16437 67.69063 172.805Q67.31563 173.43 67.31563 174.72687L67.31563 176.46124Q67.31563 177.83624 67.70625 178.50812Q68.1125 179.16437 68.925 179.16437Q69.72188 179.16437 70.1125 178.53937Q70.50313 177.91437 70.51875 176.58624L70.51875 174.805Z" fill-rule="nonzero"/><path fill="#757575" d="M64.76875 143.75479L61.2375 151.67667L60.096874 151.67667L63.6125 144.03604L59.003124 144.03604L59.003124 143.14542L64.76875 143.14542L64.76875 143.75479ZM71.6125 148.03604Q71.6125 149.94229 70.95625 150.87979Q70.31563 151.80167 68.925 151.80167Q67.56563 151.80167 66.90938 150.89542Q66.25313 149.98917 66.22188 148.17667L66.22188 146.73917Q66.22188 144.84854 66.8625 143.94229Q67.51875 143.02042 68.90938 143.02042Q70.28438 143.02042 70.94063 143.91104Q71.59688 144.78604 71.6125 146.62979L71.6125 148.03604ZM70.51875 146.55167Q70.51875 145.17667 70.12813 144.55167Q69.75313 143.91104 68.90938 143.91104Q68.08125 143.91104 67.69063 144.55167Q67.31563 145.17667 67.31563 146.47354L67.31563 148.20792Q67.31563 149.58292 67.70625 150.25479Q68.1125 150.91104 68.925 150.91104Q69.72188 150.91104 70.1125 150.28604Q70.50313 149.66104 70.51875 148.33292L70.51875 146.55167Z" fill-rule="nonzero"/><path fill="#757575" d="M64.44063 117.11083Q64.44063 117.75146 64.09688 118.25146Q63.753124 118.75146 63.190624 119.03271Q63.846874 119.31396 64.2375 119.87646Q64.62813 120.42333 64.62813 121.12646Q64.62813 122.22021 63.878124 122.89208Q63.14375 123.54833 61.925 123.54833Q60.690624 123.54833 59.940624 122.89208Q59.20625 122.22021 59.20625 121.12646Q59.20625 120.42333 59.58125 119.87646Q59.95625 119.31396 60.628124 119.03271Q60.065624 118.75146 59.7375 118.25146Q59.409374 117.75146 59.409374 117.11083Q59.409374 116.03271 60.096874 115.40771Q60.784374 114.76708 61.925 114.76708Q63.05 114.76708 63.7375 115.40771Q64.44063 116.03271 64.44063 117.11083ZM63.55 121.09521Q63.55 120.37646 63.096874 119.93896Q62.64375 119.48583 61.909374 119.48583Q61.175 119.48583 60.721874 119.93896Q60.284374 120.37646 60.284374 121.11083Q60.284374 121.82958 60.721874 122.25146Q61.159374 122.65771 61.925 122.65771Q62.675 122.65771 63.1125 122.23583Q63.55 121.81396 63.55 121.09521ZM61.925 115.65771Q61.284374 115.65771 60.878124 116.06396Q60.4875 116.45458 60.4875 117.14208Q60.4875 117.78271 60.878124 118.18896Q61.26875 118.59521 61.909374 118.59521Q62.565624 118.59521 62.95625 118.18896Q63.346874 117.78271 63.346874 117.14208Q63.346874 116.48583 62.940624 116.07958Q62.534374 115.65771 61.925 115.65771ZM71.6125 119.78271Q71.6125 121.68896 70.95625 122.62646Q70.31563 123.54833 68.925 123.54833Q67.56563 123.54833 66.90938 122.64208Q66.25313 121.73583 66.22188 119.92333L66.22188 118.48583Q66.22188 116.59521 66.8625 115.68896Q67.51875 114.76708 68.90938 114.76708Q70.28438 114.76708 70.94063 115.65771Q71.59688 116.53271 71.6125 118.37646L71.6125 119.78271ZM70.51875 118.29833Q70.51875 116.92333 70.12813 116.29833Q69.75313 115.65771 68.90938 115.65771Q68.08125 115.65771 67.69063 116.29833Q67.31563 116.92333 67.31563 118.22021L67.31563 119.95458Q67.31563 121.32958 67.70625 122.00146Q68.1125 122.65771 68.925 122.65771Q69.72188 122.65771 70.1125 122.03271Q70.50313 121.40771 70.51875 120.07958L70.51875 118.29833Z" fill-rule="nonzero"/><path fill="#757575" d="M63.409374 91.42Q63.08125 91.82625 62.596874 92.07625Q62.128124 92.31062 61.565624 92.31062Q60.83125 92.31062 60.284374 91.95125Q59.7375 91.59187 59.440624 90.93562Q59.14375 90.26375 59.14375 89.46687Q59.14375 88.62312 59.45625 87.93562Q59.784374 87.24812 60.378124 86.88875Q60.9875 86.51375 61.784374 86.51375Q63.05 86.51375 63.76875 87.46687Q64.50313 88.42 64.50313 90.045L64.50313 90.3575Q64.50313 92.8575 63.51875 93.99812Q62.534374 95.13875 60.55 95.17L60.33125 95.17L60.33125 94.26375L60.565624 94.26375Q61.909374 94.2325 62.628124 93.56062Q63.346874 92.88875 63.409374 91.42ZM61.7375 91.42Q62.284374 91.42 62.7375 91.09187Q63.20625 90.74812 63.425 90.26375L63.425 89.82625Q63.425 88.76375 62.95625 88.09187Q62.4875 87.42 61.784374 87.42Q61.065624 87.42 60.628124 87.96687Q60.20625 88.51375 60.20625 89.42Q60.20625 90.295 60.6125 90.8575Q61.034374 91.42 61.7375 91.42ZM71.6125 91.52937Q71.6125 93.43562 70.95625 94.37312Q70.31563 95.295 68.925 95.295Q67.56563 95.295 66.90938 94.38875Q66.25313 93.4825 66.22188 91.67L66.22188 90.2325Q66.22188 88.34187 66.8625 87.43562Q67.51875 86.51375 68.90938 86.51375Q70.28438 86.51375 70.94063 87.40437Q71.59688 88.27937 71.6125 90.12312L71.6125 91.52937ZM70.51875 90.045Q70.51875 88.67 70.12813 88.045Q69.75313 87.40437 68.90938 87.40437Q68.08125 87.40437 67.69063 88.045Q67.31563 88.67 67.31563 89.96687L67.31563 91.70125Q67.31563 93.07625 67.70625 93.74812Q68.1125 94.40437 68.925 94.40437Q69.72188 94.40437 70.1125 93.77937Q70.50313 93.15437 70.51875 91.82625L70.51875 90.045Z" fill-rule="nonzero"/><path fill="#757575" d="M55.815624 66.916664L54.7375 66.916664L54.7375 59.697914L52.55 60.49479L52.55 59.510414L55.659374 58.33854L55.815624 58.33854L55.815624 66.916664ZM64.6125 63.27604Q64.6125 65.18229 63.95625 66.11979Q63.315624 67.041664 61.925 67.041664Q60.565624 67.041664 59.909374 66.135414Q59.253124 65.229164 59.221874 63.416664L59.221874 61.979164Q59.221874 60.08854 59.8625 59.18229Q60.51875 58.260414 61.909374 58.260414Q63.284374 58.260414 63.940624 59.15104Q64.59688 60.02604 64.6125 61.86979L64.6125 63.27604ZM63.51875 61.791664Q63.51875 60.416664 63.128124 59.791664Q62.753124 59.15104 61.909374 59.15104Q61.08125 59.15104 60.690624 59.791664Q60.315624 60.416664 60.315624 61.71354L60.315624 63.447914Q60.315624 64.822914 60.70625 65.49479Q61.1125 66.15104 61.925 66.15104Q62.721874 66.15104 63.1125 65.52604Q63.503124 64.90104 63.51875 63.572914L63.51875 61.791664ZM71.6125 63.27604Q71.6125 65.18229 70.95625 66.11979Q70.31563 67.041664 68.925 67.041664Q67.56563 67.041664 66.90938 66.135414Q66.25313 65.229164 66.22188 63.416664L66.22188 61.979164Q66.22188 60.08854 66.8625 59.18229Q67.51875 58.260414 68.90938 58.260414Q70.28438 58.260414 70.94063 59.15104Q71.59688 60.02604 71.6125 61.86979L71.6125 63.27604ZM70.51875 61.791664Q70.51875 60.416664 70.12813 59.791664Q69.75313 59.15104 68.90938 59.15104Q68.08125 59.15104 67.69063 59.791664Q67.31563 60.416664 67.31563 61.71354L67.31563 63.447914Q67.31563 64.822914 67.70625 65.49479Q68.1125 66.15104 68.925 66.15104Q69.72188 66.15104 70.1125 65.52604Q70.50313 64.90104 70.51875 63.572914L70.51875 61.791664Z" fill-rule="nonzero"/><path fill="#757575" d="M22.628124 23.33125L27.26875 34.925L31.925 23.33125L34.346874 23.33125L34.346874 37.55L32.471874 37.55L32.471874 32.01875L32.659374 26.034374L27.9875 37.55L26.55 37.55L21.89375 26.065624L22.08125 32.01875L22.08125 37.55L20.20625 37.55L20.20625 23.33125L22.628124 23.33125ZM41.3 37.753124Q39.159374 37.753124 37.8 36.346874Q36.45625 34.925 36.45625 32.565624L36.45625 32.221874Q36.45625 30.659374 37.05 29.425Q37.659374 28.190624 38.7375 27.4875Q39.815624 26.784374 41.08125 26.784374Q43.14375 26.784374 44.284374 28.14375Q45.425 29.503124 45.425 32.034374L45.425 32.784374L38.26875 32.784374Q38.3 34.346874 39.175 35.315624Q40.05 36.26875 41.39375 36.26875Q42.3625 36.26875 43.01875 35.878124Q43.690624 35.4875 44.190624 34.846874L45.284374 35.70625Q43.95625 37.753124 41.3 37.753124ZM41.08125 28.26875Q39.9875 28.26875 39.2375 29.065624Q38.503124 29.8625 38.33125 31.3L43.6125 31.3L43.6125 31.159374Q43.534374 29.784374 42.8625 29.034374Q42.20625 28.26875 41.08125 28.26875ZM50.3625 24.425L50.3625 26.9875L52.346874 26.9875L52.346874 28.378124L50.3625 28.378124L50.3625 34.925Q50.3625 35.565624 50.628124 35.89375Q50.89375 36.20625 51.534374 36.20625Q51.846874 36.20625 52.39375 36.08125L52.39375 37.55Q51.675 37.753124 51.003124 37.753124Q49.8 37.753124 49.175 37.01875Q48.565624 36.284374 48.565624 34.925L48.565624 28.378124L46.64375 28.378124L46.64375 26.9875L48.565624 26.9875L48.565624 24.425L50.3625 24.425ZM60.01875 28.596874Q59.6125 28.534374 59.14375 28.534374Q57.3625 28.534374 56.721874 30.05L56.721874 37.55L54.925 37.55L54.925 26.9875L56.675 26.9875L56.70625 28.20625Q57.596874 26.784374 59.221874 26.784374Q59.753124 26.784374 60.01875 26.925L60.01875 28.596874ZM61.440624 32.175Q61.440624 30.6125 62.05 29.378124Q62.659374 28.128124 63.7375 27.45625Q64.83125 26.784374 66.2375 26.784374Q68.39375 26.784374 69.72188 28.284374Q71.06563 29.76875 71.06563 32.253124L71.06563 32.378124Q71.06563 33.925 70.47188 35.159374Q69.87813 36.378124 68.76875 37.065624Q67.675 37.753124 66.25313 37.753124Q64.1125 37.753124 62.76875 36.253124Q61.440624 34.753124 61.440624 32.3L61.440624 32.175ZM63.253124 32.378124Q63.253124 34.14375 64.06563 35.20625Q64.89375 36.26875 66.25313 36.26875Q67.62813 36.26875 68.44063 35.190624Q69.25313 34.1125 69.25313 32.175Q69.25313 30.425 68.425 29.346874Q67.59688 28.26875 66.2375 28.26875Q64.89375 28.26875 64.06563 29.33125Q63.253124 30.39375 63.253124 32.378124ZM81.84688 32.378124Q81.84688 34.8 80.7375 36.284374Q79.64375 37.753124 77.75313 37.753124Q75.83125 37.753124 74.72188 36.51875L74.72188 41.6125L72.925 41.6125L72.925 26.9875L74.56563 26.9875L74.65938 28.159374Q75.75313 26.784374 77.72188 26.784374Q79.62813 26.784374 80.7375 28.221874Q81.84688 29.659374 81.84688 32.221874L81.84688 32.378124ZM80.03438 32.175Q80.03438 30.39375 79.26875 29.3625Q78.51875 28.315624 77.19063 28.315624Q75.55 28.315624 74.72188 29.76875L74.72188 34.83125Q75.53438 36.26875 77.20625 36.26875Q78.50313 36.26875 79.26875 35.2375Q80.03438 34.20625 80.03438 32.175ZM83.44063 32.175Q83.44063 30.6125 84.05 29.378124Q84.65938 28.128124 85.7375 27.45625Q86.83125 26.784374 88.2375 26.784374Q90.39375 26.784374 91.72188 28.284374Q93.06563 29.76875 93.06563 32.253124L93.06563 32.378124Q93.06563 33.925 92.47188 35.159374Q91.87813 36.378124 90.76875 37.065624Q89.675 37.753124 88.25313 37.753124Q86.1125 37.753124 84.76875 36.253124Q83.44063 34.753124 83.44063 32.3L83.44063 32.175ZM85.25313 32.378124Q85.25313 34.14375 86.06563 35.20625Q86.89375 36.26875 88.25313 36.26875Q89.62813 36.26875 90.44063 35.190624Q91.25313 34.1125 91.25313 32.175Q91.25313 30.425 90.425 29.346874Q89.59688 28.26875 88.2375 28.26875Q86.89375 28.26875 86.06563 29.33125Q85.25313 30.39375 85.25313 32.378124ZM96.87813 37.55L95.08125 37.55L95.08125 22.55L96.87813 22.55L96.87813 37.55ZM104.3 37.753124Q102.15938 37.753124 100.8 36.346874Q99.45625 34.925 99.45625 32.565624L99.45625 32.221874Q99.45625 30.659374 100.05 29.425Q100.65938 28.190624 101.7375 27.4875Q102.81563 26.784374 104.08125 26.784374Q106.14375 26.784374 107.28438 28.14375Q108.425 29.503124 108.425 32.034374L108.425 32.784374L101.26875 32.784374Q101.3 34.346874 102.175 35.315624Q103.05 36.26875 104.39375 36.26875Q105.3625 36.26875 106.01875 35.878124Q106.69063 35.4875 107.19063 34.846874L108.28438 35.70625Q106.95625 37.753124 104.3 37.753124ZM104.08125 28.26875Q102.9875 28.26875 102.2375 29.065624Q101.50313 29.8625 101.33125 31.3L106.6125 31.3L106.6125 31.159374Q106.53438 29.784374 105.8625 29.034374Q105.20625 28.26875 104.08125 28.26875Z" fill-rule="nonzero"/></svg>