<svg version="1.1" viewBox="0.0 0.0 600.0 371.0" fill="none" stroke="none" stroke-linecap="square" stroke-miterlimit="10" width="600" height="371" xmlns:xlink="http://www.w3.org/1999/xlink" xmlns="http://www.w3.org/2000/svg"><path fill="#ffffff" d="M0 0L600.0 0L600.0 371.0L0 371.0L0 0Z" fill-rule="nonzero"/><path stroke="#333333" stroke-width="1.0" stroke-linecap="butt" d="M78.5 344.5L581.5 344.5" fill-rule="nonzero"/><path stroke="#cccccc" stroke-width="1.0" stroke-linecap="butt" d="M78.5 297.5L581.5 297.5" fill-rule="nonzero"/><path stroke="#cccccc" stroke-width="1.0" stroke-linecap="butt" d="M78.5 250.5L581.5 250.5" fill-rule="nonzero"/><path stroke="#cccccc" stroke-width="1.0" stroke-linecap="butt" d="M78.5 203.5L581.5 203.5" fill-rule="nonzero"/><path stroke="#cccccc" stroke-width="1.0" stroke-linecap="butt" d="M78.5 156.5L581.5 156.5" fill-rule="nonzero"/><path stroke="#cccccc" stroke-width="1.0" stroke-linecap="butt" d="M78.5 109.5L581.5 109.5" fill-rule="nonzero"/><path stroke="#cccccc" stroke-width="1.0" stroke-linecap="butt" d="M78.5 62.5L581.5 62.5" fill-rule="nonzero"/><clipPath id="id_0"><path d="M78.55 62.416668L581.45 62.416668L581.45 344.95L78.55 344.95L78.55 62.416668Z" clip-rule="nonzero"/></clipPath><path stroke="#434343" stroke-width="2.0" stroke-linecap="butt" clip-path="url(#id_0)" d="M84.397675 62.416668L96.093025 62.416668L107.788376 62.416668L119.48372 62.416668L131.17908 80.31045L142.87442 80.31045L154.56976 99.146L166.26512 103.85489L177.96046 108.563774L189.6558 108.563774L201.35117 117.03978L213.04651 122.690445L224.74187 122.690445L236.43721 122.690445L248.13255 122.690445L259.8279 122.690445L271.52325 150.94377L283.2186 150.94377L294.91394 156.59445L306.6093 160.36156L318.30466 169.77933L330.0 179.19711L341.69534 182.02245L353.3907 183.906L365.08606 196.14911L376.7814 213.1011L388.47675 216.86823L400.1721 233.82022L411.86743 250.77222L423.5628 250.77222L435.25815 259.24823L446.9535 267.7242L458.64883 267.7242L470.34418 293.15222L482.03952 300.68643L493.7349 307.2789L505.43024 311.9878L517.1256 330.82333L528.8209 344.95L540.5163 344.95L552.2116 344.95L563.907 344.95L575.60236 344.95" fill-rule="nonzero"/><path fill="#434343" clip-path="url(#id_0)" d="M90.397675 62.416668C90.397675 65.73038 87.71138 68.416664 84.397675 68.416664C81.08397 68.416664 78.397675 65.73038 78.397675 62.416668C78.397675 59.10296 81.08397 56.416668 84.397675 56.416668C87.71138 56.416668 90.397675 59.10296 90.397675 62.416668Z" fill-rule="nonzero"/><path fill="#434343" clip-path="url(#id_0)" d="M102.093025 62.416668C102.093025 65.73038 99.40673 68.416664 96.093025 68.416664C92.77931 68.416664 90.093025 65.73038 90.093025 62.416668C90.093025 59.10296 92.77931 56.416668 96.093025 56.416668C99.40673 56.416668 102.093025 59.10296 102.093025 62.416668Z" fill-rule="nonzero"/><path fill="#434343" clip-path="url(#id_0)" d="M113.788376 62.416668C113.788376 65.73038 111.10208 68.416664 107.788376 68.416664C104.47466 68.416664 101.788376 65.73038 101.788376 62.416668C101.788376 59.10296 104.47466 56.416668 107.788376 56.416668C111.10208 56.416668 113.788376 59.10296 113.788376 62.416668Z" fill-rule="nonzero"/><path fill="#434343" clip-path="url(#id_0)" d="M125.48372 62.416668C125.48372 65.73038 122.79743 68.416664 119.48372 68.416664C116.17001 68.416664 113.48372 65.73038 113.48372 62.416668C113.48372 59.10296 116.17001 56.416668 119.48372 56.416668C122.79743 56.416668 125.48372 59.10296 125.48372 62.416668Z" fill-rule="nonzero"/><path fill="#434343" clip-path="url(#id_0)" d="M137.17908 80.31045C137.17908 83.62415 134.49278 86.31045 131.17908 86.31045C127.865364 86.31045 125.17907 83.62415 125.17907 80.31045C125.17907 76.996735 127.865364 74.31045 131.17908 74.31045C134.49278 74.31045 137.17908 76.996735 137.17908 80.31045Z" fill-rule="nonzero"/><path fill="#434343" clip-path="url(#id_0)" d="M148.87442 80.31045C148.87442 83.62415 146.18813 86.31045 142.87442 86.31045C139.56071 86.31045 136.87442 83.62415 136.87442 80.31045C136.87442 76.996735 139.56071 74.31045 142.87442 74.31045C146.18813 74.31045 148.87442 76.996735 148.87442 80.31045Z" fill-rule="nonzero"/><path fill="#434343" clip-path="url(#id_0)" d="M160.56976 99.146C160.56976 102.45971 157.88347 105.146 154.56976 105.146C151.25606 105.146 148.56976 102.45971 148.56976 99.146C148.56976 95.83229 151.25606 93.146 154.56976 93.146C157.88347 93.146 160.56976 95.83229 160.56976 99.146Z" fill-rule="nonzero"/><path fill="#434343" clip-path="url(#id_0)" d="M172.26512 103.85489C172.26512 107.168594 169.57883 109.85489 166.26512 109.85489C162.9514 109.85489 160.26512 107.168594 160.26512 103.85489C160.26512 100.54118 162.9514 97.85489 166.26512 97.85489C169.57883 97.85489 172.26512 100.54118 172.26512 103.85489Z" fill-rule="nonzero"/><path fill="#434343" clip-path="url(#id_0)" d="M183.96046 108.563774C183.96046 111.87749 181.27417 114.563774 177.96046 114.563774C174.64676 114.563774 171.96046 111.87749 171.96046 108.563774C171.96046 105.25007 174.64676 102.563774 177.96046 102.563774C181.27417 102.563774 183.96046 105.25007 183.96046 108.563774Z" fill-rule="nonzero"/><path fill="#434343" clip-path="url(#id_0)" d="M195.6558 108.563774C195.6558 111.87749 192.96953 114.563774 189.6558 114.563774C186.3421 114.563774 183.6558 111.87749 183.6558 108.563774C183.6558 105.25007 186.3421 102.563774 189.6558 102.563774C192.96953 102.563774 195.6558 105.25007 195.6558 108.563774Z" fill-rule="nonzero"/><path fill="#434343" clip-path="url(#id_0)" d="M207.35117 117.03978C207.35117 120.353485 204.66487 123.03978 201.35117 123.03978C198.03746 123.03978 195.35117 120.353485 195.35117 117.03978C195.35117 113.72607 198.03746 111.03978 201.35117 111.03978C204.66487 111.03978 207.35117 113.72607 207.35117 117.03978Z" fill-rule="nonzero"/><path fill="#434343" clip-path="url(#id_0)" d="M219.04651 122.690445C219.04651 126.00415 216.36021 128.69044 213.04651 128.69044C209.7328 128.69044 207.04651 126.00415 207.04651 122.690445C207.04651 119.37674 209.7328 116.690445 213.04651 116.690445C216.36021 116.690445 219.04651 119.37674 219.04651 122.690445Z" fill-rule="nonzero"/><path fill="#434343" clip-path="url(#id_0)" d="M230.74187 122.690445C230.74187 126.00415 228.05557 128.69044 224.74187 128.69044C221.42815 128.69044 218.74187 126.00415 218.74187 122.690445C218.74187 119.37674 221.42815 116.690445 224.74187 116.690445C228.05557 116.690445 230.74187 119.37674 230.74187 122.690445Z" fill-rule="nonzero"/><path fill="#434343" clip-path="url(#id_0)" d="M242.43721 122.690445C242.43721 126.00415 239.75092 128.69044 236.43721 128.69044C233.1235 128.69044 230.43721 126.00415 230.43721 122.690445C230.43721 119.37674 233.1235 116.690445 236.43721 116.690445C239.75092 116.690445 242.43721 119.37674 242.43721 122.690445Z" fill-rule="nonzero"/><path fill="#434343" clip-path="url(#id_0)" d="M254.13255 122.690445C254.13255 126.00415 251.44627 128.69044 248.13255 128.69044C244.81885 128.69044 242.13255 126.00415 242.13255 122.690445C242.13255 119.37674 244.81885 116.690445 248.13255 116.690445C251.44627 116.690445 254.13255 119.37674 254.13255 122.690445Z" fill-rule="nonzero"/><path fill="#434343" clip-path="url(#id_0)" d="M265.8279 122.690445C265.8279 126.00415 263.1416 128.69044 259.8279 128.69044C256.5142 128.69044 253.82791 126.00415 253.82791 122.690445C253.82791 119.37674 256.5142 116.690445 259.8279 116.690445C263.1416 116.690445 265.8279 119.37674 265.8279 122.690445Z" fill-rule="nonzero"/><path fill="#434343" clip-path="url(#id_0)" d="M277.52325 150.94377C277.52325 154.25749 274.83698 156.94377 271.52325 156.94377C268.20953 156.94377 265.52325 154.25749 265.52325 150.94377C265.52325 147.63007 268.20953 144.94377 271.52325 144.94377C274.83698 144.94377 277.52325 147.63007 277.52325 150.94377Z" fill-rule="nonzero"/><path fill="#434343" clip-path="url(#id_0)" d="M289.2186 150.94377C289.2186 154.25749 286.53232 156.94377 283.2186 156.94377C279.9049 156.94377 277.2186 154.25749 277.2186 150.94377C277.2186 147.63007 279.9049 144.94377 283.2186 144.94377C286.53232 144.94377 289.2186 147.63007 289.2186 150.94377Z" fill-rule="nonzero"/><path fill="#434343" clip-path="url(#id_0)" d="M300.91394 156.59445C300.91394 159.90816 298.22766 162.59445 294.91394 162.59445C291.60025 162.59445 288.91394 159.90816 288.91394 156.59445C288.91394 153.28073 291.60025 150.59445 294.91394 150.59445C298.22766 150.59445 300.91394 153.28073 300.91394 156.59445Z" fill-rule="nonzero"/><path fill="#434343" clip-path="url(#id_0)" d="M312.6093 160.36156C312.6093 163.67526 309.923 166.36156 306.6093 166.36156C303.2956 166.36156 300.6093 163.67526 300.6093 160.36156C300.6093 157.04785 303.2956 154.36156 306.6093 154.36156C309.923 154.36156 312.6093 157.04785 312.6093 160.36156Z" fill-rule="nonzero"/><path fill="#434343" clip-path="url(#id_0)" d="M324.30466 169.77933C324.30466 173.09305 321.61835 175.77933 318.30466 175.77933C314.99094 175.77933 312.30466 173.09305 312.30466 169.77933C312.30466 166.46562 314.99094 163.77933 318.30466 163.77933C321.61835 163.77933 324.30466 166.46562 324.30466 169.77933Z" fill-rule="nonzero"/><path fill="#434343" clip-path="url(#id_0)" d="M336.0 179.19711C336.0 182.51082 333.31372 185.19711 330.0 185.19711C326.68628 185.19711 324.0 182.51082 324.0 179.19711C324.0 175.8834 326.68628 173.19711 330.0 173.19711C333.31372 173.19711 336.0 175.8834 336.0 179.19711Z" fill-rule="nonzero"/><path fill="#434343" clip-path="url(#id_0)" d="M347.69534 182.02245C347.69534 185.33615 345.00906 188.02245 341.69534 188.02245C338.38165 188.02245 335.69534 185.33615 335.69534 182.02245C335.69534 178.70874 338.38165 176.02245 341.69534 176.02245C345.00906 176.02245 347.69534 178.70874 347.69534 182.02245Z" fill-rule="nonzero"/><path fill="#434343" clip-path="url(#id_0)" d="M359.3907 183.906C359.3907 187.21971 356.7044 189.906 353.3907 189.906C350.077 189.906 347.3907 187.21971 347.3907 183.906C347.3907 180.59229 350.077 177.906 353.3907 177.906C356.7044 177.906 359.3907 180.59229 359.3907 183.906Z" fill-rule="nonzero"/><path fill="#434343" clip-path="url(#id_0)" d="M371.08606 196.14911C371.08606 199.46281 368.39975 202.14911 365.08606 202.14911C361.77234 202.14911 359.08606 199.46281 359.08606 196.14911C359.08606 192.8354 361.77234 190.14911 365.08606 190.14911C368.39975 190.14911 371.08606 192.8354 371.08606 196.14911Z" fill-rule="nonzero"/><path fill="#434343" clip-path="url(#id_0)" d="M382.7814 213.1011C382.7814 216.41483 380.0951 219.1011 376.7814 219.1011C373.46768 219.1011 370.7814 216.41483 370.7814 213.1011C370.7814 209.7874 373.46768 207.1011 376.7814 207.1011C380.0951 207.1011 382.7814 209.7874 382.7814 213.1011Z" fill-rule="nonzero"/><path fill="#434343" clip-path="url(#id_0)" d="M394.47675 216.86823C394.47675 220.18193 391.79047 222.86823 388.47675 222.86823C385.16302 222.86823 382.47675 220.18193 382.47675 216.86823C382.47675 213.55452 385.16302 210.86823 388.47675 210.86823C391.79047 210.86823 394.47675 213.55452 394.47675 216.86823Z" fill-rule="nonzero"/><path fill="#434343" clip-path="url(#id_0)" d="M406.1721 233.82022C406.1721 237.13393 403.4858 239.82022 400.1721 239.82022C396.8584 239.82022 394.1721 237.13393 394.1721 233.82022C394.1721 230.50652 396.8584 227.82022 400.1721 227.82022C403.4858 227.82022 406.1721 230.50652 406.1721 233.82022Z" fill-rule="nonzero"/><path fill="#434343" clip-path="url(#id_0)" d="M417.86743 250.77222C417.86743 254.08594 415.18115 256.77222 411.86743 256.77222C408.55374 256.77222 405.86743 254.08594 405.86743 250.77222C405.86743 247.45851 408.55374 244.77222 411.86743 244.77222C415.18115 244.77222 417.86743 247.45851 417.86743 250.77222Z" fill-rule="nonzero"/><path fill="#434343" clip-path="url(#id_0)" d="M429.5628 250.77222C429.5628 254.08594 426.8765 256.77222 423.5628 256.77222C420.24908 256.77222 417.5628 254.08594 417.5628 250.77222C417.5628 247.45851 420.24908 244.77222 423.5628 244.77222C426.8765 244.77222 429.5628 247.45851 429.5628 250.77222Z" fill-rule="nonzero"/><path fill="#434343" clip-path="url(#id_0)" d="M441.25815 259.24823C441.25815 262.56192 438.57184 265.24823 435.25815 265.24823C431.94443 265.24823 429.25815 262.56192 429.25815 259.24823C429.25815 255.93451 431.94443 253.24821 435.25815 253.24821C438.57184 253.24821 441.25815 255.93451 441.25815 259.24823Z" fill-rule="nonzero"/><path fill="#434343" clip-path="url(#id_0)" d="M452.9535 267.7242C452.9535 271.03793 450.2672 273.7242 446.9535 273.7242C443.63977 273.7242 440.9535 271.03793 440.9535 267.7242C440.9535 264.41052 443.63977 261.7242 446.9535 261.7242C450.2672 261.7242 452.9535 264.41052 452.9535 267.7242Z" fill-rule="nonzero"/><path fill="#434343" clip-path="url(#id_0)" d="M464.64883 267.7242C464.64883 271.03793 461.96255 273.7242 458.64883 273.7242C455.3351 273.7242 452.64883 271.03793 452.64883 267.7242C452.64883 264.41052 455.3351 261.7242 458.64883 261.7242C461.96255 261.7242 464.64883 264.41052 464.64883 267.7242Z" fill-rule="nonzero"/><path fill="#434343" clip-path="url(#id_0)" d="M476.34418 293.15222C476.34418 296.46594 473.6579 299.15222 470.34418 299.15222C467.0305 299.15222 464.34418 296.46594 464.34418 293.15222C464.34418 289.8385 467.0305 287.15222 470.34418 287.15222C473.6579 287.15222 476.34418 289.8385 476.34418 293.15222Z" fill-rule="nonzero"/><path fill="#434343" clip-path="url(#id_0)" d="M488.03952 300.68643C488.03952 304.00015 485.35324 306.68643 482.03952 306.68643C478.72583 306.68643 476.03952 304.00015 476.03952 300.68643C476.03952 297.37274 478.72583 294.68643 482.03952 294.68643C485.35324 294.68643 488.03952 297.37274 488.03952 300.68643Z" fill-rule="nonzero"/><path fill="#434343" clip-path="url(#id_0)" d="M499.7349 307.2789C499.7349 310.5926 497.04858 313.2789 493.7349 313.2789C490.42117 313.2789 487.7349 310.5926 487.7349 307.2789C487.7349 303.96518 490.42117 301.2789 493.7349 301.2789C497.04858 301.2789 499.7349 303.96518 499.7349 307.2789Z" fill-rule="nonzero"/><path fill="#434343" clip-path="url(#id_0)" d="M511.43024 311.9878C511.43024 315.30148 508.74393 317.9878 505.43024 317.9878C502.11652 317.9878 499.43024 315.30148 499.43024 311.9878C499.43024 308.67407 502.11652 305.9878 505.43024 305.9878C508.74393 305.9878 511.43024 308.67407 511.43024 311.9878Z" fill-rule="nonzero"/><path fill="#434343" clip-path="url(#id_0)" d="M523.1256 330.82333C523.1256 334.13705 520.4393 336.82333 517.1256 336.82333C513.8119 336.82333 511.12558 334.13705 511.12558 330.82333C511.12558 327.5096 513.8119 324.82333 517.1256 324.82333C520.4393 324.82333 523.1256 327.5096 523.1256 330.82333Z" fill-rule="nonzero"/><path fill="#434343" clip-path="url(#id_0)" d="M534.8209 344.95C534.8209 348.2637 532.13464 350.95 528.8209 350.95C525.5072 350.95 522.8209 348.2637 522.8209 344.95C522.8209 341.6363 525.5072 338.95 528.8209 338.95C532.13464 338.95 534.8209 341.6363 534.8209 344.95Z" fill-rule="nonzero"/><path fill="#434343" clip-path="url(#id_0)" d="M546.5163 344.95C546.5163 348.2637 543.83 350.95 540.5163 350.95C537.2026 350.95 534.5163 348.2637 534.5163 344.95C534.5163 341.6363 537.2026 338.95 540.5163 338.95C543.83 338.95 546.5163 341.6363 546.5163 344.95Z" fill-rule="nonzero"/><path fill="#434343" clip-path="url(#id_0)" d="M558.2116 344.95C558.2116 348.2637 555.5253 350.95 552.2116 350.95C548.89795 350.95 546.2116 348.2637 546.2116 344.95C546.2116 341.6363 548.89795 338.95 552.2116 338.95C555.5253 338.95 558.2116 341.6363 558.2116 344.95Z" fill-rule="nonzero"/><path fill="#434343" clip-path="url(#id_0)" d="M569.907 344.95C569.907 348.2637 567.2207 350.95 563.907 350.95C560.59326 350.95 557.907 348.2637 557.907 344.95C557.907 341.6363 560.59326 338.95 563.907 338.95C567.2207 338.95 569.907 341.6363 569.907 344.95Z" fill-rule="nonzero"/><path fill="#434343" clip-path="url(#id_0)" d="M581.60236 344.95C581.60236 348.2637 578.916 350.95 575.60236 350.95C572.28864 350.95 569.60236 348.2637 569.60236 344.95C569.60236 341.6363 572.28864 338.95 575.60236 338.95C578.916 338.95 581.60236 341.6363 581.60236 344.95Z" fill-rule="nonzero"/><path fill="#424242" d="M26.753138 215.18333Q26.331263 216.62083 25.721888 217.29271Q25.112513 217.94896 24.221888 217.94896Q23.221888 217.94896 22.565638 217.15208Q21.893763 216.33958 21.893763 215.04271Q21.893763 214.16771 22.237513 213.48021Q22.581263 212.79271 23.175013 212.41771Q23.768763 212.02708 24.487513 212.02708L24.487513 213.16771Q23.706263 213.16771 23.268763 213.66771Q22.831263 214.15208 22.831263 215.04271Q22.831263 215.87083 23.206263 216.33958Q23.565638 216.80833 24.206263 216.80833Q24.737513 216.80833 25.096888 216.37083Q25.456263 215.91771 25.753138 214.85521Q26.050013 213.79271 26.409388 213.19896Q26.768763 212.58958 27.253138 212.30833Q27.737513 212.01146 28.378138 212.01146Q29.425013 212.01146 30.050013 212.82396Q30.675013 213.63646 30.675013 214.98021Q30.675013 215.87083 30.331263 216.63646Q29.987513 217.38646 29.409388 217.80833Q28.815638 218.21458 28.081263 218.21458L28.081263 217.08958Q28.846888 217.08958 29.300013 216.51146Q29.753138 215.93333 29.753138 214.98021Q29.753138 214.08958 29.393763 213.62083Q29.018763 213.15208 28.393763 213.15208Q27.768763 213.15208 27.425013 213.58958Q27.081263 214.02708 26.753138 215.18333ZM29.784388 208.32396Q29.784388 207.74583 29.440638 207.30833Q29.081263 206.87083 28.550013 206.82396L28.550013 205.79271Q29.096888 205.82396 29.596888 206.18333Q30.081263 206.52708 30.378138 207.10521Q30.675013 207.66771 30.675013 208.32396Q30.675013 209.62083 29.815638 210.38646Q28.940638 211.13646 27.440638 211.13646L27.253138 211.13646Q26.331263 211.13646 25.612513 210.80833Q24.893763 210.46458 24.503138 209.83958Q24.096888 209.19896 24.096888 208.32396Q24.096888 207.26146 24.737513 206.55833Q25.362513 205.83958 26.393763 205.79271L26.393763 206.82396Q25.768763 206.87083 25.378138 207.29271Q24.987513 207.71458 24.987513 208.32396Q24.987513 209.15208 25.581263 209.60521Q26.175013 210.05833 27.300013 210.05833L27.503138 210.05833Q28.596888 210.05833 29.190638 209.60521Q29.784388 209.15208 29.784388 208.32396ZM27.315638 205.15208Q26.393763 205.15208 25.643763 204.79271Q24.893763 204.41771 24.503138 203.76146Q24.096888 203.10521 24.096888 202.27708Q24.096888 200.98021 24.987513 200.18333Q25.878138 199.37083 27.378138 199.37083L27.456263 199.37083Q28.378138 199.37083 29.112513 199.73021Q29.846888 200.08958 30.268763 200.74583Q30.675013 201.40208 30.675013 202.26146Q30.675013 203.54271 29.784388 204.35521Q28.878138 205.15208 27.393763 205.15208L27.315638 205.15208ZM27.456263 204.05833Q28.503138 204.05833 29.143763 203.57396Q29.784388 203.07396 29.784388 202.26146Q29.784388 201.43333 29.143763 200.94896Q28.487513 200.46458 27.315638 200.46458Q26.284388 200.46458 25.643763 200.96458Q24.987513 201.44896 24.987513 202.27708Q24.987513 203.07396 25.628138 203.57396Q26.253138 204.05833 27.456263 204.05833ZM25.175013 194.79271Q25.143763 195.04271 25.143763 195.32396Q25.143763 196.40208 26.050013 196.77708L30.550013 196.77708L30.550013 197.85521L24.206263 197.85521L24.206263 196.80833L24.940638 196.79271Q24.096888 196.26146 24.096888 195.27708Q24.096888 194.96458 24.175013 194.79271L25.175013 194.79271ZM30.675013 191.23021Q30.675013 192.52708 29.831263 193.33958Q28.971888 194.13646 27.550013 194.13646L27.362513 194.13646Q26.409388 194.13646 25.675013 193.77708Q24.925013 193.41771 24.518763 192.77708Q24.096888 192.12083 24.096888 191.37083Q24.096888 190.13646 24.909388 189.44896Q25.721888 188.76146 27.237513 188.76146L27.690638 188.76146L27.690638 193.05833Q28.628138 193.02708 29.206263 192.51146Q29.784388 191.98021 29.784388 191.16771Q29.784388 190.60521 29.550013 190.21458Q29.315638 189.80833 28.925013 189.49583L29.440638 188.83958Q30.675013 189.63646 30.675013 191.23021ZM24.987513 191.37083Q24.987513 192.02708 25.471888 192.48021Q25.940638 192.91771 26.800013 193.01146L26.800013 189.83958L26.721888 189.83958Q25.893763 189.88646 25.440638 190.29271Q24.987513 190.68333 24.987513 191.37083Z" fill-rule="nonzero"/><path fill="#757575" d="M71.6125 345.8094Q71.6125 347.71564 70.95625 348.65314Q70.31563 349.575 68.925 349.575Q67.56563 349.575 66.90938 348.66876Q66.25313 347.7625 66.22188 345.95L66.22188 344.5125Q66.22188 342.6219 66.8625 341.71564Q67.51875 340.79376 68.90938 340.79376Q70.28438 340.79376 70.94063 341.6844Q71.59688 342.5594 71.6125 344.40314L71.6125 345.8094ZM70.51875 344.325Q70.51875 342.95 70.12813 342.325Q69.75313 341.6844 68.90938 341.6844Q68.08125 341.6844 67.69063 342.325Q67.31563 342.95 67.31563 344.2469L67.31563 345.98126Q67.31563 347.35626 67.70625 348.02814Q68.1125 348.6844 68.925 348.6844Q69.72188 348.6844 70.1125 348.0594Q70.50313 347.4344 70.51875 346.10626L70.51875 344.325Z" fill-rule="nonzero"/><path fill="#757575" d="M59.753124 298.07986L60.190624 293.82986L64.56563 293.82986L64.56563 294.82986L61.1125 294.82986L60.846874 297.158Q61.4875 296.783 62.284374 296.783Q63.440624 296.783 64.12813 297.56424Q64.81563 298.32986 64.81563 299.64236Q64.81563 300.95486 64.09688 301.7205Q63.39375 302.4861 62.1125 302.4861Q60.9875 302.4861 60.26875 301.8611Q59.55 301.2205 59.45625 300.1111L60.471874 300.1111Q60.58125 300.8455 61.003124 301.2205Q61.425 301.5955 62.1125 301.5955Q62.8625 301.5955 63.3 301.07986Q63.7375 300.56424 63.7375 299.658Q63.7375 298.7986 63.26875 298.283Q62.8 297.76736 62.01875 297.76736Q61.315624 297.76736 60.909374 298.06424L60.628124 298.2986L59.753124 298.07986ZM71.6125 298.7205Q71.6125 300.62674 70.95625 301.56424Q70.31563 302.4861 68.925 302.4861Q67.56563 302.4861 66.90938 301.57986Q66.25313 300.6736 66.22188 298.8611L66.22188 297.4236Q66.22188 295.533 66.8625 294.62674Q67.51875 293.70486 68.90938 293.70486Q70.28438 293.70486 70.94063 294.5955Q71.59688 295.4705 71.6125 297.31424L71.6125 298.7205ZM70.51875 297.2361Q70.51875 295.8611 70.12813 295.2361Q69.75313 294.5955 68.90938 294.5955Q68.08125 294.5955 67.69063 295.2361Q67.31563 295.8611 67.31563 297.158L67.31563 298.89236Q67.31563 300.26736 67.70625 300.93924Q68.1125 301.5955 68.925 301.5955Q69.72188 301.5955 70.1125 300.9705Q70.50313 300.3455 70.51875 299.01736L70.51875 297.2361Z" fill-rule="nonzero"/><path fill="#757575" d="M55.815624 255.27222L54.7375 255.27222L54.7375 248.05347L52.55 248.85034L52.55 247.86597L55.659374 246.69409L55.815624 246.69409L55.815624 255.27222ZM64.6125 251.63159Q64.6125 253.53784 63.95625 254.47534Q63.315624 255.39722 61.925 255.39722Q60.565624 255.39722 59.909374 254.49097Q59.253124 253.58472 59.221874 251.77222L59.221874 250.33472Q59.221874 248.44409 59.8625 247.53784Q60.51875 246.61597 61.909374 246.61597Q63.284374 246.61597 63.940624 247.50659Q64.59688 248.38159 64.6125 250.22534L64.6125 251.63159ZM63.51875 250.14722Q63.51875 248.77222 63.128124 248.14722Q62.753124 247.50659 61.909374 247.50659Q61.08125 247.50659 60.690624 248.14722Q60.315624 248.77222 60.315624 250.06909L60.315624 251.80347Q60.315624 253.17847 60.70625 253.85034Q61.1125 254.50659 61.925 254.50659Q62.721874 254.50659 63.1125 253.88159Q63.503124 253.25659 63.51875 251.92847L63.51875 250.14722ZM71.6125 251.63159Q71.6125 253.53784 70.95625 254.47534Q70.31563 255.39722 68.925 255.39722Q67.56563 255.39722 66.90938 254.49097Q66.25313 253.58472 66.22188 251.77222L66.22188 250.33472Q66.22188 248.44409 66.8625 247.53784Q67.51875 246.61597 68.90938 246.61597Q70.28438 246.61597 70.94063 247.50659Q71.59688 248.38159 71.6125 250.22534L71.6125 251.63159ZM70.51875 250.14722Q70.51875 248.77222 70.12813 248.14722Q69.75313 247.50659 68.90938 247.50659Q68.08125 247.50659 67.69063 248.14722Q67.31563 248.77222 67.31563 250.06909L67.31563 251.80347Q67.31563 253.17847 67.70625 253.85034Q68.1125 254.50659 68.925 254.50659Q69.72188 254.50659 70.1125 253.88159Q70.50313 253.25659 70.51875 251.92847L70.51875 250.14722Z" fill-rule="nonzero"/><path fill="#757575" d="M55.815624 208.18333L54.7375 208.18333L54.7375 200.96458L52.55 201.76146L52.55 200.77708L55.659374 199.60521L55.815624 199.60521L55.815624 208.18333ZM59.753124 203.90208L60.190624 199.65208L64.56563 199.65208L64.56563 200.65208L61.1125 200.65208L60.846874 202.98021Q61.4875 202.60521 62.284374 202.60521Q63.440624 202.60521 64.12813 203.38646Q64.81563 204.15208 64.81563 205.46458Q64.81563 206.77708 64.09688 207.54271Q63.39375 208.30833 62.1125 208.30833Q60.9875 208.30833 60.26875 207.68333Q59.55 207.04271 59.45625 205.93333L60.471874 205.93333Q60.58125 206.66771 61.003124 207.04271Q61.425 207.41771 62.1125 207.41771Q62.8625 207.41771 63.3 206.90208Q63.7375 206.38646 63.7375 205.48021Q63.7375 204.62083 63.26875 204.10521Q62.8 203.58958 62.01875 203.58958Q61.315624 203.58958 60.909374 203.88646L60.628124 204.12083L59.753124 203.90208ZM71.6125 204.54271Q71.6125 206.44896 70.95625 207.38646Q70.31563 208.30833 68.925 208.30833Q67.56563 208.30833 66.90938 207.40208Q66.25313 206.49583 66.22188 204.68333L66.22188 203.24583Q66.22188 201.35521 66.8625 200.44896Q67.51875 199.52708 68.90938 199.52708Q70.28438 199.52708 70.94063 200.41771Q71.59688 201.29271 71.6125 203.13646L71.6125 204.54271ZM70.51875 203.05833Q70.51875 201.68333 70.12813 201.05833Q69.75313 200.41771 68.90938 200.41771Q68.08125 200.41771 67.69063 201.05833Q67.31563 201.68333 67.31563 202.98021L67.31563 204.71458Q67.31563 206.08958 67.70625 206.76146Q68.1125 207.41771 68.925 207.41771Q69.72188 207.41771 70.1125 206.79271Q70.50313 206.16771 70.51875 204.83958L70.51875 203.05833Z" fill-rule="nonzero"/><path fill="#757575" d="M57.846874 161.09445L52.253124 161.09445L52.253124 160.3132L55.20625 157.03195Q55.8625 156.28195 56.1125 155.82883Q56.3625 155.36008 56.3625 154.86008Q56.3625 154.1882 55.95625 153.76633Q55.565624 153.32883 54.878124 153.32883Q54.08125 153.32883 53.628124 153.79758Q53.175 154.2507 53.175 155.07883L52.096874 155.07883Q52.096874 153.89133 52.846874 153.17258Q53.6125 152.4382 54.878124 152.4382Q56.08125 152.4382 56.76875 153.0632Q57.45625 153.6882 57.45625 154.73508Q57.45625 155.98508 55.846874 157.73508L53.565624 160.20383L57.846874 160.20383L57.846874 161.09445ZM64.6125 157.45383Q64.6125 159.36008 63.95625 160.29758Q63.315624 161.21945 61.925 161.21945Q60.565624 161.21945 59.909374 160.3132Q59.253124 159.40695 59.221874 157.59445L59.221874 156.15695Q59.221874 154.26633 59.8625 153.36008Q60.51875 152.4382 61.909374 152.4382Q63.284374 152.4382 63.940624 153.32883Q64.59688 154.20383 64.6125 156.04758L64.6125 157.45383ZM63.51875 155.96945Q63.51875 154.59445 63.128124 153.96945Q62.753124 153.32883 61.909374 153.32883Q61.08125 153.32883 60.690624 153.96945Q60.315624 154.59445 60.315624 155.89133L60.315624 157.6257Q60.315624 159.0007 60.70625 159.67258Q61.1125 160.32883 61.925 160.32883Q62.721874 160.32883 63.1125 159.70383Q63.503124 159.07883 63.51875 157.7507L63.51875 155.96945ZM71.6125 157.45383Q71.6125 159.36008 70.95625 160.29758Q70.31563 161.21945 68.925 161.21945Q67.56563 161.21945 66.90938 160.3132Q66.25313 159.40695 66.22188 157.59445L66.22188 156.15695Q66.22188 154.26633 66.8625 153.36008Q67.51875 152.4382 68.90938 152.4382Q70.28438 152.4382 70.94063 153.32883Q71.59688 154.20383 71.6125 156.04758L71.6125 157.45383ZM70.51875 155.96945Q70.51875 154.59445 70.12813 153.96945Q69.75313 153.32883 68.90938 153.32883Q68.08125 153.32883 67.69063 153.96945Q67.31563 154.59445 67.31563 155.89133L67.31563 157.6257Q67.31563 159.0007 67.70625 159.67258Q68.1125 160.32883 68.925 160.32883Q69.72188 160.32883 70.1125 159.70383Q70.50313 159.07883 70.51875 157.7507L70.51875 155.96945Z" fill-rule="nonzero"/><path fill="#757575" d="M57.846874 114.005554L52.253124 114.005554L52.253124 113.224304L55.20625 109.943054Q55.8625 109.193054 56.1125 108.73993Q56.3625 108.27118 56.3625 107.77118Q56.3625 107.099304 55.95625 106.67743Q55.565624 106.23993 54.878124 106.23993Q54.08125 106.23993 53.628124 106.70868Q53.175 107.161804 53.175 107.98993L52.096874 107.98993Q52.096874 106.80243 52.846874 106.08368Q53.6125 105.349304 54.878124 105.349304Q56.08125 105.349304 56.76875 105.974304Q57.45625 106.599304 57.45625 107.64618Q57.45625 108.89618 55.846874 110.64618L53.565624 113.11493L57.846874 113.11493L57.846874 114.005554ZM59.753124 109.724304L60.190624 105.474304L64.56563 105.474304L64.56563 106.474304L61.1125 106.474304L60.846874 108.80243Q61.4875 108.42743 62.284374 108.42743Q63.440624 108.42743 64.12813 109.20868Q64.81563 109.974304 64.81563 111.286804Q64.81563 112.599304 64.09688 113.36493Q63.39375 114.130554 62.1125 114.130554Q60.9875 114.130554 60.26875 113.505554Q59.55 112.86493 59.45625 111.755554L60.471874 111.755554Q60.58125 112.48993 61.003124 112.86493Q61.425 113.23993 62.1125 113.23993Q62.8625 113.23993 63.3 112.724304Q63.7375 112.20868 63.7375 111.30243Q63.7375 110.443054 63.26875 109.92743Q62.8 109.411804 62.01875 109.411804Q61.315624 109.411804 60.909374 109.70868L60.628124 109.943054L59.753124 109.724304ZM71.6125 110.36493Q71.6125 112.27118 70.95625 113.20868Q70.31563 114.130554 68.925 114.130554Q67.56563 114.130554 66.90938 113.224304Q66.25313 112.318054 66.22188 110.505554L66.22188 109.068054Q66.22188 107.17743 66.8625 106.27118Q67.51875 105.349304 68.90938 105.349304Q70.28438 105.349304 70.94063 106.23993Q71.59688 107.11493 71.6125 108.95868L71.6125 110.36493ZM70.51875 108.880554Q70.51875 107.505554 70.12813 106.880554Q69.75313 106.23993 68.90938 106.23993Q68.08125 106.23993 67.69063 106.880554Q67.31563 107.505554 67.31563 108.80243L67.31563 110.536804Q67.31563 111.911804 67.70625 112.58368Q68.1125 113.23993 68.925 113.23993Q69.72188 113.23993 70.1125 112.61493Q70.50313 111.98993 70.51875 110.661804L70.51875 108.880554Z" fill-rule="nonzero"/><path fill="#757575" d="M53.83125 62.11979L54.64375 62.11979Q55.425 62.104164 55.8625 61.71354Q56.3 61.322914 56.3 60.65104Q56.3 59.15104 54.8 59.15104Q54.096874 59.15104 53.675 59.55729Q53.26875 59.96354 53.26875 60.61979L52.175 60.61979Q52.175 59.604164 52.909374 58.93229Q53.659374 58.260414 54.8 58.260414Q56.003124 58.260414 56.690624 58.90104Q57.378124 59.541664 57.378124 60.68229Q57.378124 61.24479 57.01875 61.760414Q56.659374 62.27604 56.034374 62.541664Q56.7375 62.760414 57.1125 63.27604Q57.503124 63.791664 57.503124 64.541664Q57.503124 65.68229 56.753124 66.36979Q56.003124 67.041664 54.8 67.041664Q53.6125 67.041664 52.846874 66.385414Q52.096874 65.729164 52.096874 64.666664L53.190624 64.666664Q53.190624 65.33854 53.628124 65.74479Q54.065624 66.15104 54.815624 66.15104Q55.596874 66.15104 56.003124 65.74479Q56.425 65.322914 56.425 64.55729Q56.425 63.822914 55.971874 63.43229Q55.51875 63.02604 54.64375 63.010414L53.83125 63.010414L53.83125 62.11979ZM64.6125 63.27604Q64.6125 65.18229 63.95625 66.11979Q63.315624 67.041664 61.925 67.041664Q60.565624 67.041664 59.909374 66.135414Q59.253124 65.229164 59.221874 63.416664L59.221874 61.979164Q59.221874 60.08854 59.8625 59.18229Q60.51875 58.260414 61.909374 58.260414Q63.284374 58.260414 63.940624 59.15104Q64.59688 60.02604 64.6125 61.86979L64.6125 63.27604ZM63.51875 61.791664Q63.51875 60.416664 63.128124 59.791664Q62.753124 59.15104 61.909374 59.15104Q61.08125 59.15104 60.690624 59.791664Q60.315624 60.416664 60.315624 61.71354L60.315624 63.447914Q60.315624 64.822914 60.70625 65.49479Q61.1125 66.15104 61.925 66.15104Q62.721874 66.15104 63.1125 65.52604Q63.503124 64.90104 63.51875 63.572914L63.51875 61.791664ZM71.6125 63.27604Q71.6125 65.18229 70.95625 66.11979Q70.31563 67.041664 68.925 67.041664Q67.56563 67.041664 66.90938 66.135414Q66.25313 65.229164 66.22188 63.416664L66.22188 61.979164Q66.22188 60.08854 66.8625 59.18229Q67.51875 58.260414 68.90938 58.260414Q70.28438 58.260414 70.94063 59.15104Q71.59688 60.02604 71.6125 61.86979L71.6125 63.27604ZM70.51875 61.791664Q70.51875 60.416664 70.12813 59.791664Q69.75313 59.15104 68.90938 59.15104Q68.08125 59.15104 67.69063 59.791664Q67.31563 60.416664 67.31563 61.71354L67.31563 63.447914Q67.31563 64.822914 67.70625 65.49479Q68.1125 66.15104 68.925 66.15104Q69.72188 66.15104 70.1125 65.52604Q70.50313 64.90104 70.51875 63.572914L70.51875 61.791664Z" fill-rule="nonzero"/><path fill="#757575" d="M30.01875 24.878124L25.45625 24.878124L25.45625 37.55L23.596874 37.55L23.596874 24.878124L19.034374 24.878124L19.034374 23.33125L30.01875 23.33125L30.01875 24.878124ZM31.440624 32.175Q31.440624 30.6125 32.05 29.378124Q32.659374 28.128124 33.7375 27.45625Q34.83125 26.784374 36.2375 26.784374Q38.39375 26.784374 39.721874 28.284374Q41.065624 29.76875 41.065624 32.253124L41.065624 32.378124Q41.065624 33.925 40.471874 35.159374Q39.878124 36.378124 38.76875 37.065624Q37.675 37.753124 36.253124 37.753124Q34.1125 37.753124 32.76875 36.253124Q31.440624 34.753124 31.440624 32.3L31.440624 32.175ZM33.253124 32.378124Q33.253124 34.14375 34.065624 35.20625Q34.89375 36.26875 36.253124 36.26875Q37.628124 36.26875 38.440624 35.190624Q39.253124 34.1125 39.253124 32.175Q39.253124 30.425 38.425 29.346874Q37.596874 28.26875 36.2375 28.26875Q34.89375 28.26875 34.065624 29.33125Q33.253124 30.39375 33.253124 32.378124ZM45.3625 24.425L45.3625 26.9875L47.346874 26.9875L47.346874 28.378124L45.3625 28.378124L45.3625 34.925Q45.3625 35.565624 45.628124 35.89375Q45.89375 36.20625 46.534374 36.20625Q46.846874 36.20625 47.39375 36.08125L47.39375 37.55Q46.675 37.753124 46.003124 37.753124Q44.8 37.753124 44.175 37.01875Q43.565624 36.284374 43.565624 34.925L43.565624 28.378124L41.64375 28.378124L41.64375 26.9875L43.565624 26.9875L43.565624 24.425L45.3625 24.425ZM56.440624 37.55Q56.284374 37.2375 56.190624 36.440624Q54.925 37.753124 53.175 37.753124Q51.6125 37.753124 50.6125 36.8625Q49.6125 35.971874 49.6125 34.6125Q49.6125 32.971874 50.8625 32.065624Q52.128124 31.14375 54.39375 31.14375L56.159374 31.14375L56.159374 30.315624Q56.159374 29.3625 55.58125 28.8Q55.01875 28.2375 53.925 28.2375Q52.95625 28.2375 52.3 28.7375Q51.64375 29.221874 51.64375 29.909374L49.83125 29.909374Q49.83125 29.128124 50.39375 28.39375Q50.95625 27.64375 51.909374 27.221874Q52.878124 26.784374 54.034374 26.784374Q55.8625 26.784374 56.89375 27.70625Q57.925 28.6125 57.971874 30.221874L57.971874 35.08125Q57.971874 36.534374 58.33125 37.39375L58.33125 37.55L56.440624 37.55ZM53.440624 36.175Q54.3 36.175 55.05 35.7375Q55.815624 35.3 56.159374 34.596874L56.159374 32.425L54.7375 32.425Q51.425 32.425 51.425 34.3625Q51.425 35.221874 51.9875 35.70625Q52.55 36.175 53.440624 36.175ZM62.878124 37.55L61.08125 37.55L61.08125 22.55L62.878124 22.55L62.878124 37.55ZM75.39375 31.20625Q72.97188 30.51875 71.87813 29.51875Q70.78438 28.503124 70.78438 27.01875Q70.78438 25.33125 72.12813 24.2375Q73.47188 23.128124 75.6125 23.128124Q77.08125 23.128124 78.22188 23.70625Q79.37813 24.26875 80.00313 25.26875Q80.62813 26.253124 80.62813 27.440624L78.75313 27.440624Q78.75313 26.159374 77.925 25.425Q77.1125 24.675 75.6125 24.675Q74.22188 24.675 73.44063 25.284374Q72.675 25.89375 72.675 26.9875Q72.675 27.846874 73.40938 28.45625Q74.14375 29.05 75.90938 29.55Q77.69063 30.05 78.69063 30.659374Q79.69063 31.253124 80.175 32.05Q80.65938 32.846874 80.65938 33.940624Q80.65938 35.659374 79.31563 36.70625Q77.97188 37.753124 75.70625 37.753124Q74.25313 37.753124 72.97188 37.190624Q71.70625 36.628124 71.01875 35.659374Q70.33125 34.675 70.33125 33.425L72.22188 33.425Q72.22188 34.721874 73.175 35.471874Q74.12813 36.20625 75.70625 36.20625Q77.19063 36.20625 77.9875 35.6125Q78.78438 35.003124 78.78438 33.95625Q78.78438 32.909374 78.05 32.346874Q77.31563 31.76875 75.39375 31.20625ZM87.15938 36.26875Q88.12813 36.26875 88.84688 35.690624Q89.56563 35.096874 89.64375 34.221874L91.3625 34.221874Q91.3 35.128124 90.72188 35.95625Q90.15938 36.76875 89.19063 37.26875Q88.2375 37.753124 87.15938 37.753124Q85.00313 37.753124 83.72188 36.315624Q82.45625 34.8625 82.45625 32.3625L82.45625 32.065624Q82.45625 30.51875 83.01875 29.315624Q83.58125 28.1125 84.64375 27.45625Q85.70625 26.784374 87.14375 26.784374Q88.925 26.784374 90.09688 27.846874Q91.28438 28.909374 91.3625 30.6125L89.64375 30.6125Q89.56563 29.596874 88.8625 28.940624Q88.175 28.26875 87.14375 28.26875Q85.76875 28.26875 85.00313 29.26875Q84.25313 30.253124 84.25313 32.128124L84.25313 32.471874Q84.25313 34.3 85.00313 35.284374Q85.75313 36.26875 87.15938 36.26875ZM92.44063 32.175Q92.44063 30.6125 93.05 29.378124Q93.65938 28.128124 94.7375 27.45625Q95.83125 26.784374 97.2375 26.784374Q99.39375 26.784374 100.72188 28.284374Q102.06563 29.76875 102.06563 32.253124L102.06563 32.378124Q102.06563 33.925 101.47188 35.159374Q100.87813 36.378124 99.76875 37.065624Q98.675 37.753124 97.25313 37.753124Q95.1125 37.753124 93.76875 36.253124Q92.44063 34.753124 92.44063 32.3L92.44063 32.175ZM94.25313 32.378124Q94.25313 34.14375 95.06563 35.20625Q95.89375 36.26875 97.25313 36.26875Q98.62813 36.26875 99.44063 35.190624Q100.25313 34.1125 100.25313 32.175Q100.25313 30.425 99.425 29.346874Q98.59688 28.26875 97.2375 28.26875Q95.89375 28.26875 95.06563 29.33125Q94.25313 30.39375 94.25313 32.378124ZM109.01875 28.596874Q108.6125 28.534374 108.14375 28.534374Q106.3625 28.534374 105.72188 30.05L105.72188 37.55L103.925 37.55L103.925 26.9875L105.675 26.9875L105.70625 28.20625Q106.59688 26.784374 108.22188 26.784374Q108.75313 26.784374 109.01875 26.925L109.01875 28.596874ZM115.3 37.753124Q113.15938 37.753124 111.8 36.346874Q110.45625 34.925 110.45625 32.565624L110.45625 32.221874Q110.45625 30.659374 111.05 29.425Q111.65938 28.190624 112.7375 27.4875Q113.81563 26.784374 115.08125 26.784374Q117.14375 26.784374 118.28438 28.14375Q119.425 29.503124 119.425 32.034374L119.425 32.784374L112.26875 32.784374Q112.3 34.346874 113.175 35.315624Q114.05 36.26875 115.39375 36.26875Q116.3625 36.26875 117.01875 35.878124Q117.69063 35.4875 118.19063 34.846874L119.28438 35.70625Q117.95625 37.753124 115.3 37.753124ZM115.08125 28.26875Q113.9875 28.26875 113.2375 29.065624Q112.50313 29.8625 112.33125 31.3L117.6125 31.3L117.6125 31.159374Q117.53438 29.784374 116.8625 29.034374Q116.20625 28.26875 115.08125 28.26875Z" fill-rule="nonzero"/></svg>