<svg version="1.1" viewBox="0.0 0.0 600.0 371.0" fill="none" stroke="none" stroke-linecap="square" stroke-miterlimit="10" width="600" height="371" xmlns:xlink="http://www.w3.org/1999/xlink" xmlns="http://www.w3.org/2000/svg"><path fill="#ffffff" d="M0 0L600.0 0L600.0 371.0L0 371.0L0 0Z" fill-rule="nonzero"/><path stroke="#333333" stroke-width="1.0" stroke-linecap="butt" d="M77.5 345.5L581.5 345.5" fill-rule="nonzero"/><path stroke="#cccccc" stroke-width="1.0" stroke-linecap="butt" d="M77.5 317.5L581.5 317.5" fill-rule="nonzero"/><path stroke="#cccccc" stroke-width="1.0" stroke-linecap="butt" d="M77.5 288.5L581.5 288.5" fill-rule="nonzero"/><path stroke="#cccccc" stroke-width="1.0" stroke-linecap="butt" d="M77.5 260.5L581.5 260.5" fill-rule="nonzero"/><path stroke="#cccccc" stroke-width="1.0" stroke-linecap="butt" d="M77.5 232.5L581.5 232.5" fill-rule="nonzero"/><path stroke="#cccccc" stroke-width="1.0" stroke-linecap="butt" d="M77.5 203.5L581.5 203.5" fill-rule="nonzero"/><path stroke="#cccccc" stroke-width="1.0" stroke-linecap="butt" d="M77.5 175.5L581.5 175.5" fill-rule="nonzero"/><path stroke="#cccccc" stroke-width="1.0" stroke-linecap="butt" d="M77.5 146.5L581.5 146.5" fill-rule="nonzero"/><path stroke="#cccccc" stroke-width="1.0" stroke-linecap="butt" d="M77.5 118.5L581.5 118.5" fill-rule="nonzero"/><path stroke="#cccccc" stroke-width="1.0" stroke-linecap="butt" d="M77.5 90.5L581.5 90.5" fill-rule="nonzero"/><path stroke="#cccccc" stroke-width="1.0" stroke-linecap="butt" d="M77.5 61.5L581.5 61.5" fill-rule="nonzero"/><clipPath id="id_0"><path d="M77.55 61.916668L581.45 61.916668L581.45 345.45L77.55 345.45L77.55 61.916668Z" clip-rule="nonzero"/></clipPath><path stroke="#434343" stroke-width="2.0" stroke-linecap="butt" clip-path="url(#id_0)" d="M81.54921 61.916668L89.54762 61.916668L97.54603 61.916668L105.54444 61.916668L113.542854 61.916668L121.54127 61.916668L129.53969 149.812L137.5381 149.812L145.53651 186.67134L153.53493 186.67134L161.53334 195.17734L169.53175 195.17734L177.53015 232.03667L185.52856 232.03667L193.52698 232.03667L201.52539 232.03667L209.5238 232.03667L217.52222 232.03667L225.52063 232.03667L233.51904 260.39L241.51746 260.39L249.51587 260.39L257.51428 260.39L265.5127 260.39L273.5111 260.39L281.50952 260.39L289.50793 260.39L297.50635 260.39L305.50476 260.39L313.50317 260.39L321.5016 260.39L329.5 305.75534L337.4984 305.75534L345.49683 305.75534L353.49524 305.75534L361.49365 305.75534L369.49207 305.75534L377.49048 305.75534L385.4889 305.75534L393.4873 305.75534L401.48572 305.75534L409.48413 305.75534L417.48254 305.75534L425.48096 305.75534L433.47937 305.75534L441.47778 305.75534L449.4762 305.75534L457.4746 305.75534L465.47302 305.75534L473.47144 305.75534L481.46985 345.45L489.46826 345.45L497.46667 345.45L505.4651 345.45L513.4635 345.45L521.4619 345.45L529.4603 345.45L537.45874 345.45L545.45715 345.45L553.45557 345.45L561.454 345.45L569.4524 345.45L577.4508 345.45" fill-rule="nonzero"/><path fill="#434343" clip-path="url(#id_0)" d="M87.54921 61.916668C87.54921 65.23038 84.862915 67.916664 81.54921 67.916664C78.2355 67.916664 75.54921 65.23038 75.54921 61.916668C75.54921 58.60296 78.2355 55.916668 81.54921 55.916668C84.862915 55.916668 87.54921 58.60296 87.54921 61.916668Z" fill-rule="nonzero"/><path fill="#434343" clip-path="url(#id_0)" d="M95.54762 61.916668C95.54762 65.23038 92.86133 67.916664 89.54762 67.916664C86.23391 67.916664 83.54762 65.23038 83.54762 61.916668C83.54762 58.60296 86.23391 55.916668 89.54762 55.916668C92.86133 55.916668 95.54762 58.60296 95.54762 61.916668Z" fill-rule="nonzero"/><path fill="#434343" clip-path="url(#id_0)" d="M103.54603 61.916668C103.54603 65.23038 100.85974 67.916664 97.54603 67.916664C94.23232 67.916664 91.54603 65.23038 91.54603 61.916668C91.54603 58.60296 94.23232 55.916668 97.54603 55.916668C100.85974 55.916668 103.54603 58.60296 103.54603 61.916668Z" fill-rule="nonzero"/><path fill="#434343" clip-path="url(#id_0)" d="M111.54444 61.916668C111.54444 65.23038 108.858154 67.916664 105.54444 67.916664C102.230736 67.916664 99.54444 65.23038 99.54444 61.916668C99.54444 58.60296 102.230736 55.916668 105.54444 55.916668C108.858154 55.916668 111.54444 58.60296 111.54444 61.916668Z" fill-rule="nonzero"/><path fill="#434343" clip-path="url(#id_0)" d="M119.542854 61.916668C119.542854 65.23038 116.85657 67.916664 113.542854 67.916664C110.22915 67.916664 107.542854 65.23038 107.542854 61.916668C107.542854 58.60296 110.22915 55.916668 113.542854 55.916668C116.85657 55.916668 119.542854 58.60296 119.542854 61.916668Z" fill-rule="nonzero"/><path fill="#434343" clip-path="url(#id_0)" d="M127.54127 61.916668C127.54127 65.23038 124.85498 67.916664 121.54127 67.916664C118.22756 67.916664 115.54127 65.23038 115.54127 61.916668C115.54127 58.60296 118.22756 55.916668 121.54127 55.916668C124.85498 55.916668 127.54127 58.60296 127.54127 61.916668Z" fill-rule="nonzero"/><path fill="#434343" clip-path="url(#id_0)" d="M135.53969 149.812C135.53969 153.1257 132.8534 155.812 129.53969 155.812C126.225975 155.812 123.53968 153.1257 123.53968 149.812C123.53968 146.49829 126.225975 143.812 129.53969 143.812C132.8534 143.812 135.53969 146.49829 135.53969 149.812Z" fill-rule="nonzero"/><path fill="#434343" clip-path="url(#id_0)" d="M143.5381 149.812C143.5381 153.1257 140.8518 155.812 137.5381 155.812C134.22438 155.812 131.5381 153.1257 131.5381 149.812C131.5381 146.49829 134.22438 143.812 137.5381 143.812C140.8518 143.812 143.5381 146.49829 143.5381 149.812Z" fill-rule="nonzero"/><path fill="#434343" clip-path="url(#id_0)" d="M151.53651 186.67134C151.53651 189.98505 148.85022 192.67134 145.53651 192.67134C142.2228 192.67134 139.53651 189.98505 139.53651 186.67134C139.53651 183.35762 142.2228 180.67134 145.53651 180.67134C148.85022 180.67134 151.53651 183.35762 151.53651 186.67134Z" fill-rule="nonzero"/><path fill="#434343" clip-path="url(#id_0)" d="M159.53493 186.67134C159.53493 189.98505 156.84863 192.67134 153.53493 192.67134C150.2212 192.67134 147.53493 189.98505 147.53493 186.67134C147.53493 183.35762 150.2212 180.67134 153.53493 180.67134C156.84863 180.67134 159.53493 183.35762 159.53493 186.67134Z" fill-rule="nonzero"/><path fill="#434343" clip-path="url(#id_0)" d="M167.53334 195.17734C167.53334 198.49104 164.84705 201.17734 161.53334 201.17734C158.21962 201.17734 155.53334 198.49104 155.53334 195.17734C155.53334 191.86363 158.21962 189.17734 161.53334 189.17734C164.84705 189.17734 167.53334 191.86363 167.53334 195.17734Z" fill-rule="nonzero"/><path fill="#434343" clip-path="url(#id_0)" d="M175.53175 195.17734C175.53175 198.49104 172.84546 201.17734 169.53175 201.17734C166.21803 201.17734 163.53175 198.49104 163.53175 195.17734C163.53175 191.86363 166.21803 189.17734 169.53175 189.17734C172.84546 189.17734 175.53175 191.86363 175.53175 195.17734Z" fill-rule="nonzero"/><path fill="#434343" clip-path="url(#id_0)" d="M183.53015 232.03667C183.53015 235.35037 180.84387 238.03667 177.53015 238.03667C174.21645 238.03667 171.53015 235.35037 171.53015 232.03667C171.53015 228.72296 174.21645 226.03667 177.53015 226.03667C180.84387 226.03667 183.53015 228.72296 183.53015 232.03667Z" fill-rule="nonzero"/><path fill="#434343" clip-path="url(#id_0)" d="M191.52856 232.03667C191.52856 235.35037 188.84229 238.03667 185.52856 238.03667C182.21486 238.03667 179.52856 235.35037 179.52856 232.03667C179.52856 228.72296 182.21486 226.03667 185.52856 226.03667C188.84229 226.03667 191.52856 228.72296 191.52856 232.03667Z" fill-rule="nonzero"/><path fill="#434343" clip-path="url(#id_0)" d="M199.52698 232.03667C199.52698 235.35037 196.8407 238.03667 193.52698 238.03667C190.21327 238.03667 187.52698 235.35037 187.52698 232.03667C187.52698 228.72296 190.21327 226.03667 193.52698 226.03667C196.8407 226.03667 199.52698 228.72296 199.52698 232.03667Z" fill-rule="nonzero"/><path fill="#434343" clip-path="url(#id_0)" d="M207.52539 232.03667C207.52539 235.35037 204.83911 238.03667 201.52539 238.03667C198.21169 238.03667 195.52539 235.35037 195.52539 232.03667C195.52539 228.72296 198.21169 226.03667 201.52539 226.03667C204.83911 226.03667 207.52539 228.72296 207.52539 232.03667Z" fill-rule="nonzero"/><path fill="#434343" clip-path="url(#id_0)" d="M215.5238 232.03667C215.5238 235.35037 212.83752 238.03667 209.5238 238.03667C206.2101 238.03667 203.5238 235.35037 203.5238 232.03667C203.5238 228.72296 206.2101 226.03667 209.5238 226.03667C212.83752 226.03667 215.5238 228.72296 215.5238 232.03667Z" fill-rule="nonzero"/><path fill="#434343" clip-path="url(#id_0)" d="M223.52222 232.03667C223.52222 235.35037 220.83594 238.03667 217.52222 238.03667C214.20851 238.03667 211.52222 235.35037 211.52222 232.03667C211.52222 228.72296 214.20851 226.03667 217.52222 226.03667C220.83594 226.03667 223.52222 228.72296 223.52222 232.03667Z" fill-rule="nonzero"/><path fill="#434343" clip-path="url(#id_0)" d="M231.52063 232.03667C231.52063 235.35037 228.83435 238.03667 225.52063 238.03667C222.20692 238.03667 219.52063 235.35037 219.52063 232.03667C219.52063 228.72296 222.20692 226.03667 225.52063 226.03667C228.83435 226.03667 231.52063 228.72296 231.52063 232.03667Z" fill-rule="nonzero"/><path fill="#434343" clip-path="url(#id_0)" d="M239.51904 260.39C239.51904 263.7037 236.83276 266.39 233.51904 266.39C230.20534 266.39 227.51904 263.7037 227.51904 260.39C227.51904 257.0763 230.20534 254.39 233.51904 254.39C236.83276 254.39 239.51904 257.0763 239.51904 260.39Z" fill-rule="nonzero"/><path fill="#434343" clip-path="url(#id_0)" d="M247.51746 260.39C247.51746 263.7037 244.83116 266.39 241.51746 266.39C238.20375 266.39 235.51746 263.7037 235.51746 260.39C235.51746 257.0763 238.20375 254.39 241.51746 254.39C244.83116 254.39 247.51746 257.0763 247.51746 260.39Z" fill-rule="nonzero"/><path fill="#434343" clip-path="url(#id_0)" d="M255.51587 260.39C255.51587 263.7037 252.82957 266.39 249.51587 266.39C246.20216 266.39 243.51587 263.7037 243.51587 260.39C243.51587 257.0763 246.20216 254.39 249.51587 254.39C252.82957 254.39 255.51587 257.0763 255.51587 260.39Z" fill-rule="nonzero"/><path fill="#434343" clip-path="url(#id_0)" d="M263.51428 260.39C263.51428 263.7037 260.828 266.39 257.51428 266.39C254.20058 266.39 251.51428 263.7037 251.51428 260.39C251.51428 257.0763 254.20058 254.39 257.51428 254.39C260.828 254.39 263.51428 257.0763 263.51428 260.39Z" fill-rule="nonzero"/><path fill="#434343" clip-path="url(#id_0)" d="M271.5127 260.39C271.5127 263.7037 268.82642 266.39 265.5127 266.39C262.199 266.39 259.5127 263.7037 259.5127 260.39C259.5127 257.0763 262.199 254.39 265.5127 254.39C268.82642 254.39 271.5127 257.0763 271.5127 260.39Z" fill-rule="nonzero"/><path fill="#434343" clip-path="url(#id_0)" d="M279.5111 260.39C279.5111 263.7037 276.82483 266.39 273.5111 266.39C270.1974 266.39 267.5111 263.7037 267.5111 260.39C267.5111 257.0763 270.1974 254.39 273.5111 254.39C276.82483 254.39 279.5111 257.0763 279.5111 260.39Z" fill-rule="nonzero"/><path fill="#434343" clip-path="url(#id_0)" d="M287.50952 260.39C287.50952 263.7037 284.82324 266.39 281.50952 266.39C278.1958 266.39 275.50952 263.7037 275.50952 260.39C275.50952 257.0763 278.1958 254.39 281.50952 254.39C284.82324 254.39 287.50952 257.0763 287.50952 260.39Z" fill-rule="nonzero"/><path fill="#434343" clip-path="url(#id_0)" d="M295.50793 260.39C295.50793 263.7037 292.82166 266.39 289.50793 266.39C286.1942 266.39 283.50793 263.7037 283.50793 260.39C283.50793 257.0763 286.1942 254.39 289.50793 254.39C292.82166 254.39 295.50793 257.0763 295.50793 260.39Z" fill-rule="nonzero"/><path fill="#434343" clip-path="url(#id_0)" d="M303.50635 260.39C303.50635 263.7037 300.82007 266.39 297.50635 266.39C294.19263 266.39 291.50635 263.7037 291.50635 260.39C291.50635 257.0763 294.19263 254.39 297.50635 254.39C300.82007 254.39 303.50635 257.0763 303.50635 260.39Z" fill-rule="nonzero"/><path fill="#434343" clip-path="url(#id_0)" d="M311.50476 260.39C311.50476 263.7037 308.81848 266.39 305.50476 266.39C302.19104 266.39 299.50476 263.7037 299.50476 260.39C299.50476 257.0763 302.19104 254.39 305.50476 254.39C308.81848 254.39 311.50476 257.0763 311.50476 260.39Z" fill-rule="nonzero"/><path fill="#434343" clip-path="url(#id_0)" d="M319.50317 260.39C319.50317 263.7037 316.8169 266.39 313.50317 266.39C310.18945 266.39 307.50317 263.7037 307.50317 260.39C307.50317 257.0763 310.18945 254.39 313.50317 254.39C316.8169 254.39 319.50317 257.0763 319.50317 260.39Z" fill-rule="nonzero"/><path fill="#434343" clip-path="url(#id_0)" d="M327.5016 260.39C327.5016 263.7037 324.8153 266.39 321.5016 266.39C318.18787 266.39 315.5016 263.7037 315.5016 260.39C315.5016 257.0763 318.18787 254.39 321.5016 254.39C324.8153 254.39 327.5016 257.0763 327.5016 260.39Z" fill-rule="nonzero"/><path fill="#434343" clip-path="url(#id_0)" d="M335.5 305.75534C335.5 309.06903 332.81372 311.75534 329.5 311.75534C326.18628 311.75534 323.5 309.06903 323.5 305.75534C323.5 302.44162 326.18628 299.75534 329.5 299.75534C332.81372 299.75534 335.5 302.44162 335.5 305.75534Z" fill-rule="nonzero"/><path fill="#434343" clip-path="url(#id_0)" d="M343.4984 305.75534C343.4984 309.06903 340.81213 311.75534 337.4984 311.75534C334.1847 311.75534 331.4984 309.06903 331.4984 305.75534C331.4984 302.44162 334.1847 299.75534 337.4984 299.75534C340.81213 299.75534 343.4984 302.44162 343.4984 305.75534Z" fill-rule="nonzero"/><path fill="#434343" clip-path="url(#id_0)" d="M351.49683 305.75534C351.49683 309.06903 348.81055 311.75534 345.49683 311.75534C342.1831 311.75534 339.49683 309.06903 339.49683 305.75534C339.49683 302.44162 342.1831 299.75534 345.49683 299.75534C348.81055 299.75534 351.49683 302.44162 351.49683 305.75534Z" fill-rule="nonzero"/><path fill="#434343" clip-path="url(#id_0)" d="M359.49524 305.75534C359.49524 309.06903 356.80896 311.75534 353.49524 311.75534C350.18152 311.75534 347.49524 309.06903 347.49524 305.75534C347.49524 302.44162 350.18152 299.75534 353.49524 299.75534C356.80896 299.75534 359.49524 302.44162 359.49524 305.75534Z" fill-rule="nonzero"/><path fill="#434343" clip-path="url(#id_0)" d="M367.49365 305.75534C367.49365 309.06903 364.80737 311.75534 361.49365 311.75534C358.17993 311.75534 355.49365 309.06903 355.49365 305.75534C355.49365 302.44162 358.17993 299.75534 361.49365 299.75534C364.80737 299.75534 367.49365 302.44162 367.49365 305.75534Z" fill-rule="nonzero"/><path fill="#434343" clip-path="url(#id_0)" d="M375.49207 305.75534C375.49207 309.06903 372.8058 311.75534 369.49207 311.75534C366.17834 311.75534 363.49207 309.06903 363.49207 305.75534C363.49207 302.44162 366.17834 299.75534 369.49207 299.75534C372.8058 299.75534 375.49207 302.44162 375.49207 305.75534Z" fill-rule="nonzero"/><path fill="#434343" clip-path="url(#id_0)" d="M383.49048 305.75534C383.49048 309.06903 380.8042 311.75534 377.49048 311.75534C374.17676 311.75534 371.49048 309.06903 371.49048 305.75534C371.49048 302.44162 374.17676 299.75534 377.49048 299.75534C380.8042 299.75534 383.49048 302.44162 383.49048 305.75534Z" fill-rule="nonzero"/><path fill="#434343" clip-path="url(#id_0)" d="M391.4889 305.75534C391.4889 309.06903 388.8026 311.75534 385.4889 311.75534C382.17517 311.75534 379.4889 309.06903 379.4889 305.75534C379.4889 302.44162 382.17517 299.75534 385.4889 299.75534C388.8026 299.75534 391.4889 302.44162 391.4889 305.75534Z" fill-rule="nonzero"/><path fill="#434343" clip-path="url(#id_0)" d="M399.4873 305.75534C399.4873 309.06903 396.801 311.75534 393.4873 311.75534C390.17358 311.75534 387.4873 309.06903 387.4873 305.75534C387.4873 302.44162 390.17358 299.75534 393.4873 299.75534C396.801 299.75534 399.4873 302.44162 399.4873 305.75534Z" fill-rule="nonzero"/><path fill="#434343" clip-path="url(#id_0)" d="M407.48572 305.75534C407.48572 309.06903 404.7994 311.75534 401.48572 311.75534C398.172 311.75534 395.48572 309.06903 395.48572 305.75534C395.48572 302.44162 398.172 299.75534 401.48572 299.75534C404.7994 299.75534 407.48572 302.44162 407.48572 305.75534Z" fill-rule="nonzero"/><path fill="#434343" clip-path="url(#id_0)" d="M415.48413 305.75534C415.48413 309.06903 412.79782 311.75534 409.48413 311.75534C406.1704 311.75534 403.48413 309.06903 403.48413 305.75534C403.48413 302.44162 406.1704 299.75534 409.48413 299.75534C412.79782 299.75534 415.48413 302.44162 415.48413 305.75534Z" fill-rule="nonzero"/><path fill="#434343" clip-path="url(#id_0)" d="M423.48254 305.75534C423.48254 309.06903 420.79623 311.75534 417.48254 311.75534C414.16882 311.75534 411.48254 309.06903 411.48254 305.75534C411.48254 302.44162 414.16882 299.75534 417.48254 299.75534C420.79623 299.75534 423.48254 302.44162 423.48254 305.75534Z" fill-rule="nonzero"/><path fill="#434343" clip-path="url(#id_0)" d="M431.48096 305.75534C431.48096 309.06903 428.79465 311.75534 425.48096 311.75534C422.16724 311.75534 419.48096 309.06903 419.48096 305.75534C419.48096 302.44162 422.16724 299.75534 425.48096 299.75534C428.79465 299.75534 431.48096 302.44162 431.48096 305.75534Z" fill-rule="nonzero"/><path fill="#434343" clip-path="url(#id_0)" d="M439.47937 305.75534C439.47937 309.06903 436.79306 311.75534 433.47937 311.75534C430.16565 311.75534 427.47937 309.06903 427.47937 305.75534C427.47937 302.44162 430.16565 299.75534 433.47937 299.75534C436.79306 299.75534 439.47937 302.44162 439.47937 305.75534Z" fill-rule="nonzero"/><path fill="#434343" clip-path="url(#id_0)" d="M447.47778 305.75534C447.47778 309.06903 444.79147 311.75534 441.47778 311.75534C438.16406 311.75534 435.47778 309.06903 435.47778 305.75534C435.47778 302.44162 438.16406 299.75534 441.47778 299.75534C444.79147 299.75534 447.47778 302.44162 447.47778 305.75534Z" fill-rule="nonzero"/><path fill="#434343" clip-path="url(#id_0)" d="M455.4762 305.75534C455.4762 309.06903 452.7899 311.75534 449.4762 311.75534C446.16248 311.75534 443.4762 309.06903 443.4762 305.75534C443.4762 302.44162 446.16248 299.75534 449.4762 299.75534C452.7899 299.75534 455.4762 302.44162 455.4762 305.75534Z" fill-rule="nonzero"/><path fill="#434343" clip-path="url(#id_0)" d="M463.4746 305.75534C463.4746 309.06903 460.7883 311.75534 457.4746 311.75534C454.1609 311.75534 451.4746 309.06903 451.4746 305.75534C451.4746 302.44162 454.1609 299.75534 457.4746 299.75534C460.7883 299.75534 463.4746 302.44162 463.4746 305.75534Z" fill-rule="nonzero"/><path fill="#434343" clip-path="url(#id_0)" d="M471.47302 305.75534C471.47302 309.06903 468.7867 311.75534 465.47302 311.75534C462.1593 311.75534 459.47302 309.06903 459.47302 305.75534C459.47302 302.44162 462.1593 299.75534 465.47302 299.75534C468.7867 299.75534 471.47302 302.44162 471.47302 305.75534Z" fill-rule="nonzero"/><path fill="#434343" clip-path="url(#id_0)" d="M479.47144 305.75534C479.47144 309.06903 476.78513 311.75534 473.47144 311.75534C470.1577 311.75534 467.47144 309.06903 467.47144 305.75534C467.47144 302.44162 470.1577 299.75534 473.47144 299.75534C476.78513 299.75534 479.47144 302.44162 479.47144 305.75534Z" fill-rule="nonzero"/><path fill="#434343" clip-path="url(#id_0)" d="M487.46985 345.45C487.46985 348.7637 484.78354 351.45 481.46985 351.45C478.15613 351.45 475.46985 348.7637 475.46985 345.45C475.46985 342.1363 478.15613 339.45 481.46985 339.45C484.78354 339.45 487.46985 342.1363 487.46985 345.45Z" fill-rule="nonzero"/><path fill="#434343" clip-path="url(#id_0)" d="M495.46826 345.45C495.46826 348.7637 492.78195 351.45 489.46826 351.45C486.15454 351.45 483.46826 348.7637 483.46826 345.45C483.46826 342.1363 486.15454 339.45 489.46826 339.45C492.78195 339.45 495.46826 342.1363 495.46826 345.45Z" fill-rule="nonzero"/><path fill="#434343" clip-path="url(#id_0)" d="M503.46667 345.45C503.46667 348.7637 500.78036 351.45 497.46667 351.45C494.15295 351.45 491.46667 348.7637 491.46667 345.45C491.46667 342.1363 494.15295 339.45 497.46667 339.45C500.78036 339.45 503.46667 342.1363 503.46667 345.45Z" fill-rule="nonzero"/><path fill="#434343" clip-path="url(#id_0)" d="M511.4651 345.45C511.4651 348.7637 508.77878 351.45 505.4651 351.45C502.15137 351.45 499.4651 348.7637 499.4651 345.45C499.4651 342.1363 502.15137 339.45 505.4651 339.45C508.77878 339.45 511.4651 342.1363 511.4651 345.45Z" fill-rule="nonzero"/><path fill="#434343" clip-path="url(#id_0)" d="M519.4635 345.45C519.4635 348.7637 516.7772 351.45 513.4635 351.45C510.14978 351.45 507.4635 348.7637 507.4635 345.45C507.4635 342.1363 510.14978 339.45 513.4635 339.45C516.7772 339.45 519.4635 342.1363 519.4635 345.45Z" fill-rule="nonzero"/><path fill="#434343" clip-path="url(#id_0)" d="M527.4619 345.45C527.4619 348.7637 524.77563 351.45 521.4619 351.45C518.1482 351.45 515.4619 348.7637 515.4619 345.45C515.4619 342.1363 518.1482 339.45 521.4619 339.45C524.77563 339.45 527.4619 342.1363 527.4619 345.45Z" fill-rule="nonzero"/><path fill="#434343" clip-path="url(#id_0)" d="M535.4603 345.45C535.4603 348.7637 532.77405 351.45 529.4603 351.45C526.1466 351.45 523.4603 348.7637 523.4603 345.45C523.4603 342.1363 526.1466 339.45 529.4603 339.45C532.77405 339.45 535.4603 342.1363 535.4603 345.45Z" fill-rule="nonzero"/><path fill="#434343" clip-path="url(#id_0)" d="M543.45874 345.45C543.45874 348.7637 540.77246 351.45 537.45874 351.45C534.145 351.45 531.45874 348.7637 531.45874 345.45C531.45874 342.1363 534.145 339.45 537.45874 339.45C540.77246 339.45 543.45874 342.1363 543.45874 345.45Z" fill-rule="nonzero"/><path fill="#434343" clip-path="url(#id_0)" d="M551.45715 345.45C551.45715 348.7637 548.7709 351.45 545.45715 351.45C542.14343 351.45 539.45715 348.7637 539.45715 345.45C539.45715 342.1363 542.14343 339.45 545.45715 339.45C548.7709 339.45 551.45715 342.1363 551.45715 345.45Z" fill-rule="nonzero"/><path fill="#434343" clip-path="url(#id_0)" d="M559.45557 345.45C559.45557 348.7637 556.7693 351.45 553.45557 351.45C550.14185 351.45 547.45557 348.7637 547.45557 345.45C547.45557 342.1363 550.14185 339.45 553.45557 339.45C556.7693 339.45 559.45557 342.1363 559.45557 345.45Z" fill-rule="nonzero"/><path fill="#434343" clip-path="url(#id_0)" d="M567.454 345.45C567.454 348.7637 564.7677 351.45 561.454 351.45C558.14026 351.45 555.454 348.7637 555.454 345.45C555.454 342.1363 558.14026 339.45 561.454 339.45C564.7677 339.45 567.454 342.1363 567.454 345.45Z" fill-rule="nonzero"/><path fill="#434343" clip-path="url(#id_0)" d="M575.4524 345.45C575.4524 348.7637 572.7661 351.45 569.4524 351.45C566.1387 351.45 563.4524 348.7637 563.4524 345.45C563.4524 342.1363 566.1387 339.45 569.4524 339.45C572.7661 339.45 575.4524 342.1363 575.4524 345.45Z" fill-rule="nonzero"/><path fill="#434343" clip-path="url(#id_0)" d="M583.4508 345.45C583.4508 348.7637 580.7645 351.45 577.4508 351.45C574.1371 351.45 571.4508 348.7637 571.4508 345.45C571.4508 342.1363 574.1371 339.45 577.4508 339.45C580.7645 339.45 583.4508 342.1363 583.4508 345.45Z" fill-rule="nonzero"/><path fill="#000000" d="M26.784388 219.13646L26.690638 218.07396Q27.346888 217.99583 27.753138 217.71458Q28.159388 217.43333 28.425013 216.85521Q28.675013 216.26146 28.675013 215.52708Q28.675013 214.88646 28.487513 214.38646Q28.284388 213.88646 27.956263 213.65208Q27.612513 213.40208 27.221888 213.40208Q26.815638 213.40208 26.518763 213.63646Q26.206263 213.87083 26.003138 214.40208Q25.862513 214.76146 25.581263 215.94896Q25.300013 217.12083 25.050013 217.58958Q24.721888 218.21458 24.253138 218.51146Q23.768763 218.80833 23.175013 218.80833Q22.534388 218.80833 21.971888 218.44896Q21.393763 218.07396 21.112513 217.37083Q20.815638 216.65208 20.815638 215.79271Q20.815638 214.83958 21.128138 214.10521Q21.425013 213.37083 22.034388 212.98021Q22.628138 212.58958 23.378138 212.55833L23.456263 213.65208Q22.643763 213.74583 22.237513 214.26146Q21.815638 214.76146 21.815638 215.74583Q21.815638 216.77708 22.190638 217.24583Q22.565638 217.71458 23.096888 217.71458Q23.565638 217.71458 23.862513 217.38646Q24.159388 217.05833 24.471888 215.68333Q24.784388 214.29271 25.018763 213.77708Q25.378138 213.02708 25.909388 212.66771Q26.425013 212.30833 27.128138 212.30833Q27.815638 212.30833 28.425013 212.69896Q29.018763 213.08958 29.362513 213.82396Q29.690638 214.55833 29.690638 215.48021Q29.690638 216.65208 29.362513 217.44896Q29.018763 218.23021 28.331263 218.68333Q27.643763 219.12083 26.784388 219.13646ZM27.268763 206.82396L27.409388 205.79271Q28.471888 205.96458 29.081263 206.66771Q29.690638 207.37083 29.690638 208.38646Q29.690638 209.66771 28.862513 210.44896Q28.018763 211.21458 26.456263 211.21458Q25.456263 211.21458 24.706263 210.88646Q23.940638 210.54271 23.565638 209.87083Q23.190638 209.18333 23.190638 208.37083Q23.190638 207.37083 23.706263 206.73021Q24.206263 206.07396 25.159388 205.88646L25.315638 206.91771Q24.690638 207.05833 24.378138 207.43333Q24.050013 207.80833 24.050013 208.33958Q24.050013 209.13646 24.628138 209.63646Q25.190638 210.13646 26.425013 210.13646Q27.690638 210.13646 28.253138 209.65208Q28.815638 209.16771 28.815638 208.40208Q28.815638 207.77708 28.440638 207.37083Q28.065638 206.94896 27.268763 206.82396ZM26.440638 205.27708Q24.706263 205.27708 23.878138 204.32396Q23.190638 203.52708 23.190638 202.37083Q23.190638 201.08958 24.034388 200.27708Q24.862513 199.44896 26.346888 199.44896Q27.550013 199.44896 28.237513 199.80833Q28.925013 200.16771 29.315638 200.87083Q29.690638 201.55833 29.690638 202.37083Q29.690638 203.66771 28.862513 204.48021Q28.018763 205.27708 26.440638 205.27708ZM26.440638 204.19896Q27.628138 204.19896 28.221888 203.68333Q28.815638 203.15208 28.815638 202.37083Q28.815638 201.57396 28.221888 201.05833Q27.628138 200.54271 26.409388 200.54271Q25.253138 200.54271 24.659388 201.07396Q24.065638 201.58958 24.065638 202.37083Q24.065638 203.15208 24.659388 203.68333Q25.237513 204.19896 26.440638 204.19896ZM29.550013 197.90208L23.331263 197.90208L23.331263 196.94896L24.268763 196.94896Q23.612513 196.58958 23.409388 196.29271Q23.190638 195.98021 23.190638 195.60521Q23.190638 195.07396 23.518763 194.52708L24.503138 194.88646Q24.268763 195.27708 24.268763 195.65208Q24.268763 196.01146 24.487513 196.29271Q24.690638 196.55833 25.065638 196.66771Q25.628138 196.85521 26.284388 196.85521L29.550013 196.85521L29.550013 197.90208ZM27.550013 189.63646L27.675013 188.54271Q28.628138 188.79271 29.159388 189.49583Q29.690638 190.19896 29.690638 191.27708Q29.690638 192.63646 28.846888 193.44896Q28.003138 194.24583 26.487513 194.24583Q24.925013 194.24583 24.065638 193.43333Q23.190638 192.62083 23.190638 191.33958Q23.190638 190.08958 24.034388 189.30833Q24.878138 188.51146 26.425013 188.51146Q26.518763 188.51146 26.706263 188.51146L26.706263 193.15208Q27.737513 193.08958 28.284388 192.57396Q28.815638 192.05833 28.815638 191.27708Q28.815638 190.69896 28.518763 190.29271Q28.206263 189.87083 27.550013 189.63646ZM25.846888 193.08958L25.846888 189.62083Q25.050013 189.68333 24.659388 190.01146Q24.050013 190.52708 24.050013 191.32396Q24.050013 192.05833 24.534388 192.55833Q25.018763 193.04271 25.846888 193.08958Z" fill-rule="nonzero"/><path fill="#000000" d="M65.05 345.21564Q65.05 343.6844 65.3625 342.7625Q65.675 341.825 66.28438 341.325Q66.90938 340.825 67.84688 340.825Q68.53438 340.825 69.05 341.10626Q69.58125 341.3875 69.925 341.91876Q70.26875 342.4344 70.45625 343.1844Q70.64375 343.9344 70.64375 345.21564Q70.64375 346.73126 70.33125 347.65314Q70.03438 348.575 69.40938 349.09064Q68.8 349.59064 67.84688 349.59064Q66.6125 349.59064 65.89375 348.7Q65.05 347.6375 65.05 345.21564ZM66.12813 345.21564Q66.12813 347.325 66.62813 348.02814Q67.12813 348.73126 67.84688 348.73126Q68.58125 348.73126 69.06563 348.02814Q69.56563 347.325 69.56563 345.21564Q69.56563 343.09064 69.06563 342.40314Q68.58125 341.7 67.83125 341.7Q67.1125 341.7 66.675 342.3094Q66.12813 343.09064 66.12813 345.21564Z" fill-rule="nonzero"/><path fill="#000000" d="M62.01875 321.09668L60.971874 321.09668L60.971874 314.37793Q60.58125 314.7373 59.95625 315.1123Q59.346874 315.47168 58.8625 315.64355L58.8625 314.62793Q59.7375 314.20605 60.39375 313.62793Q61.065624 313.03418 61.346874 312.47168L62.01875 312.47168L62.01875 321.09668ZM65.05 316.8623Q65.05 315.33105 65.3625 314.40918Q65.675 313.47168 66.28438 312.97168Q66.90938 312.47168 67.84688 312.47168Q68.53438 312.47168 69.05 312.75293Q69.58125 313.03418 69.925 313.56543Q70.26875 314.08105 70.45625 314.83105Q70.64375 315.58105 70.64375 316.8623Q70.64375 318.37793 70.33125 319.2998Q70.03438 320.22168 69.40938 320.7373Q68.8 321.2373 67.84688 321.2373Q66.6125 321.2373 65.89375 320.34668Q65.05 319.28418 65.05 316.8623ZM66.12813 316.8623Q66.12813 318.97168 66.62813 319.6748Q67.12813 320.37793 67.84688 320.37793Q68.58125 320.37793 69.06563 319.6748Q69.56563 318.97168 69.56563 316.8623Q69.56563 314.7373 69.06563 314.0498Q68.58125 313.34668 67.83125 313.34668Q67.1125 313.34668 66.675 313.95605Q66.12813 314.7373 66.12813 316.8623Z" fill-rule="nonzero"/><path fill="#000000" d="M63.596874 291.72772L63.596874 292.74335L57.909374 292.74335Q57.909374 292.36835 58.034374 292.00897Q58.253124 291.43085 58.721874 290.86835Q59.20625 290.30585 60.1125 289.57147Q61.51875 288.41522 62.003124 287.74335Q62.503124 287.07147 62.503124 286.47772Q62.503124 285.85272 62.05 285.43085Q61.596874 284.99335 60.878124 284.99335Q60.1125 284.99335 59.659374 285.44647Q59.20625 285.8996 59.190624 286.7121L58.1125 286.60272Q58.221874 285.38397 58.940624 284.75897Q59.675 284.11835 60.909374 284.11835Q62.14375 284.11835 62.8625 284.80585Q63.58125 285.49335 63.58125 286.50897Q63.58125 287.0246 63.3625 287.5246Q63.159374 288.00897 62.659374 288.57147Q62.175 289.11835 61.05 290.07147Q60.096874 290.86835 59.815624 291.16522Q59.55 291.44647 59.378124 291.72772L63.596874 291.72772ZM65.05 288.50897Q65.05 286.97772 65.3625 286.05585Q65.675 285.11835 66.28438 284.61835Q66.90938 284.11835 67.84688 284.11835Q68.53438 284.11835 69.05 284.3996Q69.58125 284.68085 69.925 285.2121Q70.26875 285.72772 70.45625 286.47772Q70.64375 287.22772 70.64375 288.50897Q70.64375 290.0246 70.33125 290.94647Q70.03438 291.86835 69.40938 292.38397Q68.8 292.88397 67.84688 292.88397Q66.6125 292.88397 65.89375 291.99335Q65.05 290.93085 65.05 288.50897ZM66.12813 288.50897Q66.12813 290.61835 66.62813 291.32147Q67.12813 292.0246 67.84688 292.0246Q68.58125 292.0246 69.06563 291.32147Q69.56563 290.61835 69.56563 288.50897Q69.56563 286.38397 69.06563 285.69647Q68.58125 284.99335 67.83125 284.99335Q67.1125 284.99335 66.675 285.60272Q66.12813 286.38397 66.12813 288.50897Z" fill-rule="nonzero"/><path fill="#000000" d="M58.05 262.1244L59.1125 261.98376Q59.284374 262.8744 59.721874 263.28064Q60.159374 263.67126 60.784374 263.67126Q61.534374 263.67126 62.05 263.15564Q62.565624 262.64 62.565624 261.8744Q62.565624 261.15564 62.08125 260.6869Q61.6125 260.2025 60.878124 260.2025Q60.58125 260.2025 60.128124 260.3275L60.253124 259.39Q60.3625 259.40564 60.425 259.40564Q61.096874 259.40564 61.628124 259.0619Q62.175 258.7025 62.175 257.96814Q62.175 257.39 61.784374 257.015Q61.39375 256.6244 60.76875 256.6244Q60.159374 256.6244 59.7375 257.015Q59.33125 257.40564 59.221874 258.17126L58.159374 257.98376Q58.346874 256.9369 59.034374 256.35876Q59.721874 255.76501 60.7375 255.76501Q61.440624 255.76501 62.034374 256.0775Q62.628124 256.3744 62.940624 256.89Q63.253124 257.40564 63.253124 257.9994Q63.253124 258.54626 62.95625 259.015Q62.659374 259.46814 62.08125 259.73376Q62.83125 259.90564 63.253124 260.46814Q63.675 261.015 63.675 261.85876Q63.675 262.98376 62.846874 263.765Q62.034374 264.54626 60.784374 264.54626Q59.659374 264.54626 58.909374 263.8744Q58.159374 263.1869 58.05 262.1244ZM65.05 260.15564Q65.05 258.6244 65.3625 257.7025Q65.675 256.765 66.28438 256.265Q66.90938 255.76501 67.84688 255.76501Q68.53438 255.76501 69.05 256.04626Q69.58125 256.3275 69.925 256.85876Q70.26875 257.3744 70.45625 258.1244Q70.64375 258.8744 70.64375 260.15564Q70.64375 261.67126 70.33125 262.59314Q70.03438 263.515 69.40938 264.03064Q68.8 264.53064 67.84688 264.53064Q66.6125 264.53064 65.89375 263.64Q65.05 262.5775 65.05 260.15564ZM66.12813 260.15564Q66.12813 262.265 66.62813 262.96814Q67.12813 263.67126 67.84688 263.67126Q68.58125 263.67126 69.06563 262.96814Q69.56563 262.265 69.56563 260.15564Q69.56563 258.03064 69.06563 257.34314Q68.58125 256.64 67.83125 256.64Q67.1125 256.64 66.675 257.2494Q66.12813 258.03064 66.12813 260.15564Z" fill-rule="nonzero"/><path fill="#000000" d="M61.425 236.03667L61.425 233.97417L57.70625 233.97417L57.70625 233.00542L61.628124 227.44292L62.4875 227.44292L62.4875 233.00542L63.64375 233.00542L63.64375 233.97417L62.4875 233.97417L62.4875 236.03667L61.425 236.03667ZM61.425 233.00542L61.425 229.14604L58.7375 233.00542L61.425 233.00542ZM65.05 231.80229Q65.05 230.27104 65.3625 229.34917Q65.675 228.41167 66.28438 227.91167Q66.90938 227.41167 67.84688 227.41167Q68.53438 227.41167 69.05 227.69292Q69.58125 227.97417 69.925 228.50542Q70.26875 229.02104 70.45625 229.77104Q70.64375 230.52104 70.64375 231.80229Q70.64375 233.31792 70.33125 234.23979Q70.03438 235.16167 69.40938 235.67729Q68.8 236.17729 67.84688 236.17729Q66.6125 236.17729 65.89375 235.28667Q65.05 234.22417 65.05 231.80229ZM66.12813 231.80229Q66.12813 233.91167 66.62813 234.61479Q67.12813 235.31792 67.84688 235.31792Q68.58125 235.31792 69.06563 234.61479Q69.56563 233.91167 69.56563 231.80229Q69.56563 229.67729 69.06563 228.98979Q68.58125 228.28667 67.83125 228.28667Q67.1125 228.28667 66.675 228.89604Q66.12813 229.67729 66.12813 231.80229Z" fill-rule="nonzero"/><path fill="#000000" d="M58.05 205.43333L59.159374 205.33958Q59.284374 206.15208 59.721874 206.55833Q60.175 206.96458 60.815624 206.96458Q61.565624 206.96458 62.096874 206.38646Q62.628124 205.80833 62.628124 204.87083Q62.628124 203.96458 62.1125 203.44896Q61.6125 202.91771 60.784374 202.91771Q60.284374 202.91771 59.8625 203.15208Q59.45625 203.38646 59.221874 203.74583L58.2375 203.62083L59.065624 199.21458L63.346874 199.21458L63.346874 200.21458L59.909374 200.21458L59.45625 202.52708Q60.221874 201.98021 61.065624 201.98021Q62.190624 201.98021 62.95625 202.76146Q63.7375 203.54271 63.7375 204.77708Q63.7375 205.93333 63.065624 206.79271Q62.2375 207.82396 60.815624 207.82396Q59.64375 207.82396 58.89375 207.16771Q58.159374 206.51146 58.05 205.43333ZM65.05 203.44896Q65.05 201.91771 65.3625 200.99583Q65.675 200.05833 66.28438 199.55833Q66.90938 199.05833 67.84688 199.05833Q68.53438 199.05833 69.05 199.33958Q69.58125 199.62083 69.925 200.15208Q70.26875 200.66771 70.45625 201.41771Q70.64375 202.16771 70.64375 203.44896Q70.64375 204.96458 70.33125 205.88646Q70.03438 206.80833 69.40938 207.32396Q68.8 207.82396 67.84688 207.82396Q66.6125 207.82396 65.89375 206.93333Q65.05 205.87083 65.05 203.44896ZM66.12813 203.44896Q66.12813 205.55833 66.62813 206.26146Q67.12813 206.96458 67.84688 206.96458Q68.58125 206.96458 69.06563 206.26146Q69.56563 205.55833 69.56563 203.44896Q69.56563 201.32396 69.06563 200.63646Q68.58125 199.93333 67.83125 199.93333Q67.1125 199.93333 66.675 200.54271Q66.12813 201.32396 66.12813 203.44896Z" fill-rule="nonzero"/><path fill="#000000" d="M63.51875 172.84563L62.471874 172.92375Q62.33125 172.29875 62.08125 172.0175Q61.64375 171.56438 61.01875 171.56438Q60.51875 171.56438 60.128124 171.84563Q59.64375 172.22063 59.346874 172.92375Q59.065624 173.61125 59.05 174.8925Q59.425 174.31438 59.971874 174.03313Q60.534374 173.75188 61.14375 173.75188Q62.190624 173.75188 62.925 174.53313Q63.675 175.31438 63.675 176.53313Q63.675 177.34563 63.315624 178.04875Q62.971874 178.73625 62.3625 179.11125Q61.753124 179.47063 60.9875 179.47063Q59.659374 179.47063 58.83125 178.50188Q58.003124 177.53313 58.003124 175.31438Q58.003124 172.81438 58.925 171.68938Q59.721874 170.705 61.08125 170.705Q62.096874 170.705 62.7375 171.28313Q63.39375 171.84563 63.51875 172.84563ZM59.221874 176.54875Q59.221874 177.09563 59.440624 177.59563Q59.675 178.08 60.08125 178.34563Q60.503124 178.61125 60.971874 178.61125Q61.628124 178.61125 62.1125 178.08Q62.596874 177.53313 62.596874 176.61125Q62.596874 175.72063 62.1125 175.205Q61.64375 174.68938 60.925 174.68938Q60.20625 174.68938 59.70625 175.205Q59.221874 175.72063 59.221874 176.54875ZM65.05 175.09563Q65.05 173.56438 65.3625 172.6425Q65.675 171.705 66.28438 171.205Q66.90938 170.705 67.84688 170.705Q68.53438 170.705 69.05 170.98625Q69.58125 171.2675 69.925 171.79875Q70.26875 172.31438 70.45625 173.06438Q70.64375 173.81438 70.64375 175.09563Q70.64375 176.61125 70.33125 177.53313Q70.03438 178.455 69.40938 178.97063Q68.8 179.47063 67.84688 179.47063Q66.6125 179.47063 65.89375 178.58Q65.05 177.5175 65.05 175.09563ZM66.12813 175.09563Q66.12813 177.205 66.62813 177.90813Q67.12813 178.61125 67.84688 178.61125Q68.58125 178.61125 69.06563 177.90813Q69.56563 177.205 69.56563 175.09563Q69.56563 172.97063 69.06563 172.28313Q68.58125 171.58 67.83125 171.58Q67.1125 171.58 66.675 172.18938Q66.12813 172.97063 66.12813 175.09563Z" fill-rule="nonzero"/><path fill="#000000" d="M58.1125 143.50792L58.1125 142.4923L63.675 142.4923L63.675 143.32042Q62.8625 144.19542 62.05 145.64854Q61.253124 147.08604 60.815624 148.6173Q60.4875 149.69542 60.409374 150.97667L59.315624 150.97667Q59.33125 149.96104 59.70625 148.52354Q60.096874 147.08604 60.8 145.75792Q61.51875 144.4298 62.33125 143.50792L58.1125 143.50792ZM65.05 146.7423Q65.05 145.21104 65.3625 144.28917Q65.675 143.35167 66.28438 142.85167Q66.90938 142.35167 67.84688 142.35167Q68.53438 142.35167 69.05 142.63292Q69.58125 142.91417 69.925 143.44542Q70.26875 143.96104 70.45625 144.71104Q70.64375 145.46104 70.64375 146.7423Q70.64375 148.25792 70.33125 149.1798Q70.03438 150.10167 69.40938 150.6173Q68.8 151.1173 67.84688 151.1173Q66.6125 151.1173 65.89375 150.22667Q65.05 149.16417 65.05 146.7423ZM66.12813 146.7423Q66.12813 148.85167 66.62813 149.5548Q67.12813 150.25792 67.84688 150.25792Q68.58125 150.25792 69.06563 149.5548Q69.56563 148.85167 69.56563 146.7423Q69.56563 144.6173 69.06563 143.9298Q68.58125 143.22667 67.83125 143.22667Q67.1125 143.22667 66.675 143.83604Q66.12813 144.6173 66.12813 146.7423Z" fill-rule="nonzero"/><path fill="#000000" d="M59.675 117.96709Q59.01875 117.71709 58.690624 117.27959Q58.378124 116.82646 58.378124 116.21709Q58.378124 115.27959 59.05 114.63896Q59.7375 113.99834 60.846874 113.99834Q61.971874 113.99834 62.659374 114.65459Q63.346874 115.31084 63.346874 116.24834Q63.346874 116.84209 63.034374 117.27959Q62.721874 117.71709 62.08125 117.96709Q62.878124 118.21709 63.284374 118.79521Q63.690624 119.37334 63.690624 120.17021Q63.690624 121.26396 62.909374 122.01396Q62.14375 122.76396 60.8625 122.76396Q59.596874 122.76396 58.815624 122.01396Q58.034374 121.26396 58.034374 120.13896Q58.034374 119.29521 58.45625 118.73271Q58.89375 118.17021 59.675 117.96709ZM59.45625 116.17021Q59.45625 116.77959 59.846874 117.17021Q60.253124 117.56084 60.878124 117.56084Q61.4875 117.56084 61.878124 117.18584Q62.26875 116.79521 62.26875 116.23271Q62.26875 115.65459 61.8625 115.26396Q61.45625 114.85771 60.8625 114.85771Q60.253124 114.85771 59.846874 115.24834Q59.45625 115.63896 59.45625 116.17021ZM59.128124 120.13896Q59.128124 120.59209 59.33125 121.01396Q59.55 121.43584 59.971874 121.67021Q60.39375 121.90459 60.878124 121.90459Q61.628124 121.90459 62.1125 121.42021Q62.6125 120.93584 62.6125 120.18584Q62.6125 119.42021 62.1125 118.92021Q61.6125 118.42021 60.846874 118.42021Q60.096874 118.42021 59.6125 118.92021Q59.128124 119.40459 59.128124 120.13896ZM65.05 118.38896Q65.05 116.85771 65.3625 115.93584Q65.675 114.99834 66.28438 114.49834Q66.90938 113.99834 67.84688 113.99834Q68.53438 113.99834 69.05 114.27959Q69.58125 114.56084 69.925 115.09209Q70.26875 115.60771 70.45625 116.35771Q70.64375 117.10771 70.64375 118.38896Q70.64375 119.90459 70.33125 120.82646Q70.03438 121.74834 69.40938 122.26396Q68.8 122.76396 67.84688 122.76396Q66.6125 122.76396 65.89375 121.87334Q65.05 120.81084 65.05 118.38896ZM66.12813 118.38896Q66.12813 120.49834 66.62813 121.20146Q67.12813 121.90459 67.84688 121.90459Q68.58125 121.90459 69.06563 121.20146Q69.56563 120.49834 69.56563 118.38896Q69.56563 116.26396 69.06563 115.57646Q68.58125 114.87334 67.83125 114.87334Q67.1125 114.87334 66.675 115.48271Q66.12813 116.26396 66.12813 118.38896Z" fill-rule="nonzero"/><path fill="#000000" d="M58.20625 92.28562L59.221874 92.19187Q59.346874 92.91062 59.70625 93.23875Q60.08125 93.55125 60.64375 93.55125Q61.128124 93.55125 61.4875 93.3325Q61.8625 93.09812 62.096874 92.73875Q62.33125 92.36375 62.4875 91.73875Q62.64375 91.09812 62.64375 90.44187Q62.64375 90.36375 62.64375 90.22312Q62.33125 90.72312 61.784374 91.05125Q61.2375 91.36375 60.596874 91.36375Q59.51875 91.36375 58.784374 90.59812Q58.05 89.81687 58.05 88.55125Q58.05 87.23875 58.815624 86.44187Q59.596874 85.645 60.753124 85.645Q61.58125 85.645 62.26875 86.09812Q62.971874 86.55125 63.33125 87.395Q63.690624 88.22312 63.690624 89.80125Q63.690624 91.44187 63.33125 92.42625Q62.9875 93.395 62.26875 93.91062Q61.565624 94.41062 60.628124 94.41062Q59.6125 94.41062 58.971874 93.86375Q58.33125 93.30125 58.20625 92.28562ZM62.51875 88.48875Q62.51875 87.5825 62.034374 87.05125Q61.565624 86.52 60.878124 86.52Q60.175 86.52 59.64375 87.09812Q59.128124 87.66062 59.128124 88.5825Q59.128124 89.395 59.628124 89.91062Q60.128124 90.42625 60.846874 90.42625Q61.58125 90.42625 62.05 89.91062Q62.51875 89.395 62.51875 88.48875ZM65.05 90.03562Q65.05 88.50437 65.3625 87.5825Q65.675 86.645 66.28438 86.145Q66.90938 85.645 67.84688 85.645Q68.53438 85.645 69.05 85.92625Q69.58125 86.2075 69.925 86.73875Q70.26875 87.25437 70.45625 88.00437Q70.64375 88.75437 70.64375 90.03562Q70.64375 91.55125 70.33125 92.47312Q70.03438 93.395 69.40938 93.91062Q68.8 94.41062 67.84688 94.41062Q66.6125 94.41062 65.89375 93.52Q65.05 92.4575 65.05 90.03562ZM66.12813 90.03562Q66.12813 92.145 66.62813 92.84812Q67.12813 93.55125 67.84688 93.55125Q68.58125 93.55125 69.06563 92.84812Q69.56563 92.145 69.56563 90.03562Q69.56563 87.91062 69.06563 87.22312Q68.58125 86.52 67.83125 86.52Q67.1125 86.52 66.675 87.12937Q66.12813 87.91062 66.12813 90.03562Z" fill-rule="nonzero"/><path fill="#000000" d="M55.01875 65.916664L53.971874 65.916664L53.971874 59.197914Q53.58125 59.55729 52.95625 59.93229Q52.346874 60.291664 51.8625 60.46354L51.8625 59.447914Q52.7375 59.02604 53.39375 58.447914Q54.065624 57.854164 54.346874 57.291664L55.01875 57.291664L55.01875 65.916664ZM58.05 61.68229Q58.05 60.15104 58.3625 59.229164Q58.675 58.291664 59.284374 57.791664Q59.909374 57.291664 60.846874 57.291664Q61.534374 57.291664 62.05 57.572914Q62.58125 57.854164 62.925 58.385414Q63.26875 58.90104 63.45625 59.65104Q63.64375 60.40104 63.64375 61.68229Q63.64375 63.197914 63.33125 64.11979Q63.034374 65.041664 62.409374 65.55729Q61.8 66.05729 60.846874 66.05729Q59.6125 66.05729 58.89375 65.166664Q58.05 64.104164 58.05 61.68229ZM59.128124 61.68229Q59.128124 63.791664 59.628124 64.49479Q60.128124 65.197914 60.846874 65.197914Q61.58125 65.197914 62.065624 64.49479Q62.565624 63.791664 62.565624 61.68229Q62.565624 59.55729 62.065624 58.86979Q61.58125 58.166664 60.83125 58.166664Q60.1125 58.166664 59.675 58.77604Q59.128124 59.55729 59.128124 61.68229ZM65.05 61.68229Q65.05 60.15104 65.3625 59.229164Q65.675 58.291664 66.28438 57.791664Q66.90938 57.291664 67.84688 57.291664Q68.53438 57.291664 69.05 57.572914Q69.58125 57.854164 69.925 58.385414Q70.26875 58.90104 70.45625 59.65104Q70.64375 60.40104 70.64375 61.68229Q70.64375 63.197914 70.33125 64.11979Q70.03438 65.041664 69.40938 65.55729Q68.8 66.05729 67.84688 66.05729Q66.6125 66.05729 65.89375 65.166664Q65.05 64.104164 65.05 61.68229ZM66.12813 61.68229Q66.12813 63.791664 66.62813 64.49479Q67.12813 65.197914 67.84688 65.197914Q68.58125 65.197914 69.06563 64.49479Q69.56563 63.791664 69.56563 61.68229Q69.56563 59.55729 69.06563 58.86979Q68.58125 58.166664 67.83125 58.166664Q67.1125 58.166664 66.675 58.77604Q66.12813 59.55729 66.12813 61.68229Z" fill-rule="nonzero"/><path fill="#757575" d="M23.7375 37.55L23.7375 24.925L19.01875 24.925L19.01875 23.2375L30.3625 23.2375L30.3625 24.925L25.628124 24.925L25.628124 37.55L23.7375 37.55ZM38.971874 34.20625L40.784374 34.440624Q40.3625 36.01875 39.190624 36.909374Q38.034374 37.784374 36.221874 37.784374Q33.95625 37.784374 32.6125 36.39375Q31.284374 34.9875 31.284374 32.45625Q31.284374 29.83125 32.628124 28.39375Q33.971874 26.940624 36.128124 26.940624Q38.20625 26.940624 39.51875 28.3625Q40.846874 29.76875 40.846874 32.346874Q40.846874 32.503124 40.83125 32.815624L33.096874 32.815624Q33.190624 34.51875 34.065624 35.425Q34.940624 36.33125 36.2375 36.33125Q37.20625 36.33125 37.878124 35.83125Q38.565624 35.315624 38.971874 34.20625ZM33.190624 31.3625L38.9875 31.3625Q38.878124 30.065624 38.33125 29.409374Q37.4875 28.39375 36.14375 28.39375Q34.940624 28.39375 34.1125 29.20625Q33.284374 30.003124 33.190624 31.3625ZM42.83125 37.55L42.83125 23.2375L44.58125 23.2375L44.58125 37.55L42.83125 37.55ZM53.971874 34.20625L55.784374 34.440624Q55.3625 36.01875 54.190624 36.909374Q53.034374 37.784374 51.221874 37.784374Q48.95625 37.784374 47.6125 36.39375Q46.284374 34.9875 46.284374 32.45625Q46.284374 29.83125 47.628124 28.39375Q48.971874 26.940624 51.128124 26.940624Q53.20625 26.940624 54.51875 28.3625Q55.846874 29.76875 55.846874 32.346874Q55.846874 32.503124 55.83125 32.815624L48.096874 32.815624Q48.190624 34.51875 49.065624 35.425Q49.940624 36.33125 51.2375 36.33125Q52.20625 36.33125 52.878124 35.83125Q53.565624 35.315624 53.971874 34.20625ZM48.190624 31.3625L53.9875 31.3625Q53.878124 30.065624 53.33125 29.409374Q52.4875 28.39375 51.14375 28.39375Q49.940624 28.39375 49.1125 29.20625Q48.284374 30.003124 48.190624 31.3625ZM58.284374 37.55L58.284374 28.55L56.7375 28.55L56.7375 27.175L58.284374 27.175L58.284374 26.08125Q58.284374 25.034374 58.471874 24.51875Q58.721874 23.83125 59.3625 23.409374Q60.003124 22.9875 61.159374 22.9875Q61.909374 22.9875 62.8 23.159374L62.534374 24.690624Q61.9875 24.596874 61.503124 24.596874Q60.70625 24.596874 60.3625 24.940624Q60.034374 25.284374 60.034374 26.221874L60.034374 27.175L62.065624 27.175L62.065624 28.55L60.034374 28.55L60.034374 37.55L58.284374 37.55ZM63.846874 37.55L63.846874 27.175L65.425 27.175L65.425 28.753124Q66.03438 27.64375 66.55 27.3Q67.06563 26.940624 67.675 26.940624Q68.56563 26.940624 69.4875 27.503124L68.87813 29.14375Q68.2375 28.753124 67.59688 28.753124Q67.01875 28.753124 66.55 29.1125Q66.09688 29.45625 65.89375 30.065624Q65.6125 31.003124 65.6125 32.1125L65.6125 37.55L63.846874 37.55ZM70.22188 32.3625Q70.22188 29.4875 71.81563 28.096874Q73.15938 26.940624 75.08125 26.940624Q77.22188 26.940624 78.56563 28.346874Q79.925 29.753124 79.925 32.221874Q79.925 34.221874 79.33125 35.378124Q78.7375 36.51875 77.58125 37.159374Q76.44063 37.784374 75.08125 37.784374Q72.89375 37.784374 71.55 36.39375Q70.22188 34.9875 70.22188 32.3625ZM72.01875 32.3625Q72.01875 34.3625 72.87813 35.346874Q73.75313 36.33125 75.08125 36.33125Q76.39375 36.33125 77.25313 35.346874Q78.12813 34.346874 78.12813 32.3Q78.12813 30.378124 77.25313 29.39375Q76.37813 28.39375 75.08125 28.39375Q73.75313 28.39375 72.87813 29.39375Q72.01875 30.378124 72.01875 32.3625ZM81.55 38.409374L83.25313 38.659374Q83.3625 39.45625 83.84688 39.815624Q84.50313 40.3 85.64375 40.3Q86.8625 40.3 87.51875 39.815624Q88.19063 39.33125 88.425 38.45625Q88.56563 37.909374 88.55 36.190624Q87.39375 37.55 85.675 37.55Q83.53438 37.55 82.3625 36.003124Q81.19063 34.45625 81.19063 32.3Q81.19063 30.815624 81.72188 29.565624Q82.26875 28.315624 83.28438 27.628124Q84.31563 26.940624 85.69063 26.940624Q87.51875 26.940624 88.72188 28.425L88.72188 27.175L90.33125 27.175L90.33125 36.14375Q90.33125 38.565624 89.83125 39.565624Q89.34688 40.58125 88.26875 41.159374Q87.20625 41.753124 85.64375 41.753124Q83.8 41.753124 82.64375 40.925Q81.50313 40.096874 81.55 38.409374ZM83.00313 32.175Q83.00313 34.221874 83.81563 35.159374Q84.62813 36.096874 85.84688 36.096874Q87.05 36.096874 87.8625 35.159374Q88.69063 34.221874 88.69063 32.2375Q88.69063 30.33125 87.84688 29.3625Q87.00313 28.39375 85.81563 28.39375Q84.64375 28.39375 83.81563 29.346874Q83.00313 30.3 83.00313 32.175ZM92.15938 34.45625L93.90938 34.175Q94.05 35.221874 94.72188 35.784374Q95.39375 36.33125 96.59688 36.33125Q97.8 36.33125 98.37813 35.846874Q98.97188 35.346874 98.97188 34.690624Q98.97188 34.096874 98.45625 33.753124Q98.09688 33.51875 96.65938 33.159374Q94.72188 32.659374 93.97188 32.315624Q93.2375 31.95625 92.84688 31.33125Q92.45625 30.690624 92.45625 29.925Q92.45625 29.2375 92.76875 28.64375Q93.09688 28.05 93.64375 27.659374Q94.05 27.3625 94.75313 27.159374Q95.47188 26.940624 96.28438 26.940624Q97.50313 26.940624 98.425 27.3Q99.34688 27.64375 99.78438 28.253124Q100.22188 28.846874 100.39375 29.846874L98.675 30.08125Q98.55 29.284374 97.9875 28.846874Q97.425 28.39375 96.40938 28.39375Q95.19063 28.39375 94.675 28.8Q94.15938 29.190624 94.15938 29.721874Q94.15938 30.065624 94.37813 30.346874Q94.58125 30.628124 95.05 30.815624Q95.31563 30.909374 96.59688 31.253124Q98.47188 31.753124 99.20625 32.08125Q99.94063 32.39375 100.3625 33.003124Q100.78438 33.596874 100.78438 34.503124Q100.78438 35.378124 100.26875 36.159374Q99.75313 36.940624 98.78438 37.3625Q97.81563 37.784374 96.59688 37.784374Q94.58125 37.784374 93.51875 36.940624Q92.45625 36.096874 92.15938 34.45625Z" fill-rule="nonzero"/></svg>