<svg version="1.1" viewBox="0.0 0.0 600.0 371.0" fill="none" stroke="none" stroke-linecap="square" stroke-miterlimit="10" width="600" height="371" xmlns:xlink="http://www.w3.org/1999/xlink" xmlns="http://www.w3.org/2000/svg"><path fill="#ffffff" d="M0 0L600.0 0L600.0 371.0L0 371.0L0 0Z" fill-rule="nonzero"/><path stroke="#333333" stroke-width="1.0" stroke-linecap="butt" d="M77.5 345.5L581.5 345.5" fill-rule="nonzero"/><path stroke="#cccccc" stroke-width="1.0" stroke-linecap="butt" d="M77.5 317.5L581.5 317.5" fill-rule="nonzero"/><path stroke="#cccccc" stroke-width="1.0" stroke-linecap="butt" d="M77.5 288.5L581.5 288.5" fill-rule="nonzero"/><path stroke="#cccccc" stroke-width="1.0" stroke-linecap="butt" d="M77.5 260.5L581.5 260.5" fill-rule="nonzero"/><path stroke="#cccccc" stroke-width="1.0" stroke-linecap="butt" d="M77.5 232.5L581.5 232.5" fill-rule="nonzero"/><path stroke="#cccccc" stroke-width="1.0" stroke-linecap="butt" d="M77.5 203.5L581.5 203.5" fill-rule="nonzero"/><path stroke="#cccccc" stroke-width="1.0" stroke-linecap="butt" d="M77.5 175.5L581.5 175.5" fill-rule="nonzero"/><path stroke="#cccccc" stroke-width="1.0" stroke-linecap="butt" d="M77.5 146.5L581.5 146.5" fill-rule="nonzero"/><path stroke="#cccccc" stroke-width="1.0" stroke-linecap="butt" d="M77.5 118.5L581.5 118.5" fill-rule="nonzero"/><path stroke="#cccccc" stroke-width="1.0" stroke-linecap="butt" d="M77.5 90.5L581.5 90.5" fill-rule="nonzero"/><path stroke="#cccccc" stroke-width="1.0" stroke-linecap="butt" d="M77.5 61.5L581.5 61.5" fill-rule="nonzero"/><clipPath id="id_0"><path d="M77.55 61.916668L581.45 61.916668L581.45 345.45L77.55 345.45L77.55 61.916668Z" clip-rule="nonzero"/></clipPath><path stroke="#434343" stroke-width="2.0" stroke-linecap="butt" clip-path="url(#id_0)" d="M81.54921 168.58191L89.54762 192.68224L97.54603 193.75967L105.54444 196.31146L113.542854 200.22423L121.54127 210.03448L129.53969 213.38017L137.5381 219.6746L145.53651 220.80875L153.53493 227.89708L161.53334 233.85127L169.53175 237.25368L177.53015 237.93416L185.52856 249.2755L193.52698 249.61574L201.52539 250.40962L209.5238 250.46634L217.52222 259.4827L225.52063 273.71606L233.51904 274.68008L241.51746 277.06177L249.51587 279.2166L257.51428 280.52087L265.5127 284.1501L273.5111 286.7019L281.50952 290.78476L289.50793 300.76514L297.50635 308.8742L305.50476 316.86984L313.50317 323.22098L321.5016 326.16974L329.5 330.9331L337.4984 330.9331L345.49683 330.9331L353.49524 341.36713L361.49365 341.82077L369.49207 345.45L377.49048 345.45L385.4889 345.45L393.4873 345.45L401.48572 345.45L409.48413 345.45L417.48254 345.45L425.48096 345.45L433.47937 345.45L441.47778 345.45L449.4762 345.45L457.4746 345.45L465.47302 345.45L473.47144 345.45L481.46985 345.45L489.46826 345.45L497.46667 345.45L505.4651 345.45L513.4635 345.45L521.4619 345.45L529.4603 345.45L537.45874 345.45L545.45715 345.45L553.45557 345.45L561.454 345.45L569.4524 345.45L577.4508 345.45" fill-rule="nonzero"/><path fill="#434343" clip-path="url(#id_0)" d="M87.54921 168.58191C87.54921 171.89561 84.862915 174.58191 81.54921 174.58191C78.2355 174.58191 75.54921 171.89561 75.54921 168.58191C75.54921 165.2682 78.2355 162.58191 81.54921 162.58191C84.862915 162.58191 87.54921 165.2682 87.54921 168.58191Z" fill-rule="nonzero"/><path fill="#434343" clip-path="url(#id_0)" d="M95.54762 192.68224C95.54762 195.99594 92.86133 198.68224 89.54762 198.68224C86.23391 198.68224 83.54762 195.99594 83.54762 192.68224C83.54762 189.36853 86.23391 186.68224 89.54762 186.68224C92.86133 186.68224 95.54762 189.36853 95.54762 192.68224Z" fill-rule="nonzero"/><path fill="#434343" clip-path="url(#id_0)" d="M103.54603 193.75967C103.54603 197.07338 100.85974 199.75967 97.54603 199.75967C94.23232 199.75967 91.54603 197.07338 91.54603 193.75967C91.54603 190.44595 94.23232 187.75967 97.54603 187.75967C100.85974 187.75967 103.54603 190.44595 103.54603 193.75967Z" fill-rule="nonzero"/><path fill="#434343" clip-path="url(#id_0)" d="M111.54444 196.31146C111.54444 199.62517 108.858154 202.31146 105.54444 202.31146C102.230736 202.31146 99.54444 199.62517 99.54444 196.31146C99.54444 192.99776 102.230736 190.31146 105.54444 190.31146C108.858154 190.31146 111.54444 192.99776 111.54444 196.31146Z" fill-rule="nonzero"/><path fill="#434343" clip-path="url(#id_0)" d="M119.542854 200.22423C119.542854 203.53793 116.85657 206.22423 113.542854 206.22423C110.22915 206.22423 107.542854 203.53793 107.542854 200.22423C107.542854 196.91052 110.22915 194.22423 113.542854 194.22423C116.85657 194.22423 119.542854 196.91052 119.542854 200.22423Z" fill-rule="nonzero"/><path fill="#434343" clip-path="url(#id_0)" d="M127.54127 210.03448C127.54127 213.34819 124.85498 216.03448 121.54127 216.03448C118.22756 216.03448 115.54127 213.34819 115.54127 210.03448C115.54127 206.72076 118.22756 204.03448 121.54127 204.03448C124.85498 204.03448 127.54127 206.72076 127.54127 210.03448Z" fill-rule="nonzero"/><path fill="#434343" clip-path="url(#id_0)" d="M135.53969 213.38017C135.53969 216.69388 132.8534 219.38017 129.53969 219.38017C126.225975 219.38017 123.53968 216.69388 123.53968 213.38017C123.53968 210.06647 126.225975 207.38017 129.53969 207.38017C132.8534 207.38017 135.53969 210.06647 135.53969 213.38017Z" fill-rule="nonzero"/><path fill="#434343" clip-path="url(#id_0)" d="M143.5381 219.6746C143.5381 222.98833 140.8518 225.6746 137.5381 225.6746C134.22438 225.6746 131.5381 222.98833 131.5381 219.6746C131.5381 216.3609 134.22438 213.6746 137.5381 213.6746C140.8518 213.6746 143.5381 216.3609 143.5381 219.6746Z" fill-rule="nonzero"/><path fill="#434343" clip-path="url(#id_0)" d="M151.53651 220.80875C151.53651 224.12245 148.85022 226.80875 145.53651 226.80875C142.2228 226.80875 139.53651 224.12245 139.53651 220.80875C139.53651 217.49504 142.2228 214.80875 145.53651 214.80875C148.85022 214.80875 151.53651 217.49504 151.53651 220.80875Z" fill-rule="nonzero"/><path fill="#434343" clip-path="url(#id_0)" d="M159.53493 227.89708C159.53493 231.21078 156.84863 233.89708 153.53493 233.89708C150.2212 233.89708 147.53493 231.21078 147.53493 227.89708C147.53493 224.58337 150.2212 221.89708 153.53493 221.89708C156.84863 221.89708 159.53493 224.58337 159.53493 227.89708Z" fill-rule="nonzero"/><path fill="#434343" clip-path="url(#id_0)" d="M167.53334 233.85127C167.53334 237.165 164.84705 239.85127 161.53334 239.85127C158.21962 239.85127 155.53334 237.165 155.53334 233.85127C155.53334 230.53757 158.21962 227.85127 161.53334 227.85127C164.84705 227.85127 167.53334 230.53757 167.53334 233.85127Z" fill-rule="nonzero"/><path fill="#434343" clip-path="url(#id_0)" d="M175.53175 237.25368C175.53175 240.56738 172.84546 243.25368 169.53175 243.25368C166.21803 243.25368 163.53175 240.56738 163.53175 237.25368C163.53175 233.93997 166.21803 231.25368 169.53175 231.25368C172.84546 231.25368 175.53175 233.93997 175.53175 237.25368Z" fill-rule="nonzero"/><path fill="#434343" clip-path="url(#id_0)" d="M183.53015 237.93416C183.53015 241.24786 180.84387 243.93416 177.53015 243.93416C174.21645 243.93416 171.53015 241.24786 171.53015 237.93416C171.53015 234.62045 174.21645 231.93416 177.53015 231.93416C180.84387 231.93416 183.53015 234.62045 183.53015 237.93416Z" fill-rule="nonzero"/><path fill="#434343" clip-path="url(#id_0)" d="M191.52856 249.2755C191.52856 252.5892 188.84229 255.2755 185.52856 255.2755C182.21486 255.2755 179.52856 252.5892 179.52856 249.2755C179.52856 245.96179 182.21486 243.2755 185.52856 243.2755C188.84229 243.2755 191.52856 245.96179 191.52856 249.2755Z" fill-rule="nonzero"/><path fill="#434343" clip-path="url(#id_0)" d="M199.52698 249.61574C199.52698 252.92944 196.8407 255.61574 193.52698 255.61574C190.21327 255.61574 187.52698 252.92944 187.52698 249.61574C187.52698 246.30202 190.21327 243.61574 193.52698 243.61574C196.8407 243.61574 199.52698 246.30202 199.52698 249.61574Z" fill-rule="nonzero"/><path fill="#434343" clip-path="url(#id_0)" d="M207.52539 250.40962C207.52539 253.72333 204.83911 256.40964 201.52539 256.40964C198.21169 256.40964 195.52539 253.72333 195.52539 250.40962C195.52539 247.09592 198.21169 244.40962 201.52539 244.40962C204.83911 244.40962 207.52539 247.09592 207.52539 250.40962Z" fill-rule="nonzero"/><path fill="#434343" clip-path="url(#id_0)" d="M215.5238 250.46634C215.5238 253.78004 212.83752 256.46634 209.5238 256.46634C206.2101 256.46634 203.5238 253.78004 203.5238 250.46634C203.5238 247.15262 206.2101 244.46634 209.5238 244.46634C212.83752 244.46634 215.5238 247.15262 215.5238 250.46634Z" fill-rule="nonzero"/><path fill="#434343" clip-path="url(#id_0)" d="M223.52222 259.4827C223.52222 262.7964 220.83594 265.4827 217.52222 265.4827C214.20851 265.4827 211.52222 262.7964 211.52222 259.4827C211.52222 256.16898 214.20851 253.4827 217.52222 253.4827C220.83594 253.4827 223.52222 256.16898 223.52222 259.4827Z" fill-rule="nonzero"/><path fill="#434343" clip-path="url(#id_0)" d="M231.52063 273.71606C231.52063 277.0298 228.83435 279.71606 225.52063 279.71606C222.20692 279.71606 219.52063 277.0298 219.52063 273.71606C219.52063 270.40234 222.20692 267.71606 225.52063 267.71606C228.83435 267.71606 231.52063 270.40234 231.52063 273.71606Z" fill-rule="nonzero"/><path fill="#434343" clip-path="url(#id_0)" d="M239.51904 274.68008C239.51904 277.99377 236.83276 280.68008 233.51904 280.68008C230.20534 280.68008 227.51904 277.99377 227.51904 274.68008C227.51904 271.36636 230.20534 268.68008 233.51904 268.68008C236.83276 268.68008 239.51904 271.36636 239.51904 274.68008Z" fill-rule="nonzero"/><path fill="#434343" clip-path="url(#id_0)" d="M247.51746 277.06177C247.51746 280.37546 244.83116 283.06177 241.51746 283.06177C238.20375 283.06177 235.51746 280.37546 235.51746 277.06177C235.51746 273.74805 238.20375 271.06177 241.51746 271.06177C244.83116 271.06177 247.51746 273.74805 247.51746 277.06177Z" fill-rule="nonzero"/><path fill="#434343" clip-path="url(#id_0)" d="M255.51587 279.2166C255.51587 282.53033 252.82957 285.2166 249.51587 285.2166C246.20216 285.2166 243.51587 282.53033 243.51587 279.2166C243.51587 275.9029 246.20216 273.2166 249.51587 273.2166C252.82957 273.2166 255.51587 275.9029 255.51587 279.2166Z" fill-rule="nonzero"/><path fill="#434343" clip-path="url(#id_0)" d="M263.51428 280.52087C263.51428 283.83456 260.828 286.52087 257.51428 286.52087C254.20058 286.52087 251.51428 283.83456 251.51428 280.52087C251.51428 277.20715 254.20058 274.52087 257.51428 274.52087C260.828 274.52087 263.51428 277.20715 263.51428 280.52087Z" fill-rule="nonzero"/><path fill="#434343" clip-path="url(#id_0)" d="M271.5127 284.1501C271.5127 287.4638 268.82642 290.1501 265.5127 290.1501C262.199 290.1501 259.5127 287.4638 259.5127 284.1501C259.5127 280.8364 262.199 278.1501 265.5127 278.1501C268.82642 278.1501 271.5127 280.8364 271.5127 284.1501Z" fill-rule="nonzero"/><path fill="#434343" clip-path="url(#id_0)" d="M279.5111 286.7019C279.5111 290.0156 276.82483 292.7019 273.5111 292.7019C270.1974 292.7019 267.5111 290.0156 267.5111 286.7019C267.5111 283.38818 270.1974 280.7019 273.5111 280.7019C276.82483 280.7019 279.5111 283.38818 279.5111 286.7019Z" fill-rule="nonzero"/><path fill="#434343" clip-path="url(#id_0)" d="M287.50952 290.78476C287.50952 294.09848 284.82324 296.78476 281.50952 296.78476C278.1958 296.78476 275.50952 294.09848 275.50952 290.78476C275.50952 287.47107 278.1958 284.78476 281.50952 284.78476C284.82324 284.78476 287.50952 287.47107 287.50952 290.78476Z" fill-rule="nonzero"/><path fill="#434343" clip-path="url(#id_0)" d="M295.50793 300.76514C295.50793 304.07886 292.82166 306.76514 289.50793 306.76514C286.1942 306.76514 283.50793 304.07886 283.50793 300.76514C283.50793 297.45145 286.1942 294.76514 289.50793 294.76514C292.82166 294.76514 295.50793 297.45145 295.50793 300.76514Z" fill-rule="nonzero"/><path fill="#434343" clip-path="url(#id_0)" d="M303.50635 308.8742C303.50635 312.1879 300.82007 314.8742 297.50635 314.8742C294.19263 314.8742 291.50635 312.1879 291.50635 308.8742C291.50635 305.5605 294.19263 302.8742 297.50635 302.8742C300.82007 302.8742 303.50635 305.5605 303.50635 308.8742Z" fill-rule="nonzero"/><path fill="#434343" clip-path="url(#id_0)" d="M311.50476 316.86984C311.50476 320.18356 308.81848 322.86984 305.50476 322.86984C302.19104 322.86984 299.50476 320.18356 299.50476 316.86984C299.50476 313.55612 302.19104 310.86984 305.50476 310.86984C308.81848 310.86984 311.50476 313.55612 311.50476 316.86984Z" fill-rule="nonzero"/><path fill="#434343" clip-path="url(#id_0)" d="M319.50317 323.22098C319.50317 326.5347 316.8169 329.22098 313.50317 329.22098C310.18945 329.22098 307.50317 326.5347 307.50317 323.22098C307.50317 319.9073 310.18945 317.22098 313.50317 317.22098C316.8169 317.22098 319.50317 319.9073 319.50317 323.22098Z" fill-rule="nonzero"/><path fill="#434343" clip-path="url(#id_0)" d="M327.5016 326.16974C327.5016 329.48343 324.8153 332.16974 321.5016 332.16974C318.18787 332.16974 315.5016 329.48343 315.5016 326.16974C315.5016 322.85602 318.18787 320.16974 321.5016 320.16974C324.8153 320.16974 327.5016 322.85602 327.5016 326.16974Z" fill-rule="nonzero"/><path fill="#434343" clip-path="url(#id_0)" d="M335.5 330.9331C335.5 334.2468 332.81372 336.9331 329.5 336.9331C326.18628 336.9331 323.5 334.2468 323.5 330.9331C323.5 327.6194 326.18628 324.9331 329.5 324.9331C332.81372 324.9331 335.5 327.6194 335.5 330.9331Z" fill-rule="nonzero"/><path fill="#434343" clip-path="url(#id_0)" d="M343.4984 330.9331C343.4984 334.2468 340.81213 336.9331 337.4984 336.9331C334.1847 336.9331 331.4984 334.2468 331.4984 330.9331C331.4984 327.6194 334.1847 324.9331 337.4984 324.9331C340.81213 324.9331 343.4984 327.6194 343.4984 330.9331Z" fill-rule="nonzero"/><path fill="#434343" clip-path="url(#id_0)" d="M351.49683 330.9331C351.49683 334.2468 348.81055 336.9331 345.49683 336.9331C342.1831 336.9331 339.49683 334.2468 339.49683 330.9331C339.49683 327.6194 342.1831 324.9331 345.49683 324.9331C348.81055 324.9331 351.49683 327.6194 351.49683 330.9331Z" fill-rule="nonzero"/><path fill="#434343" clip-path="url(#id_0)" d="M359.49524 341.36713C359.49524 344.68082 356.80896 347.36713 353.49524 347.36713C350.18152 347.36713 347.49524 344.68082 347.49524 341.36713C347.49524 338.0534 350.18152 335.36713 353.49524 335.36713C356.80896 335.36713 359.49524 338.0534 359.49524 341.36713Z" fill-rule="nonzero"/><path fill="#434343" clip-path="url(#id_0)" d="M367.49365 341.82077C367.49365 345.1345 364.80737 347.82077 361.49365 347.82077C358.17993 347.82077 355.49365 345.1345 355.49365 341.82077C355.49365 338.50708 358.17993 335.82077 361.49365 335.82077C364.80737 335.82077 367.49365 338.50708 367.49365 341.82077Z" fill-rule="nonzero"/><path fill="#434343" clip-path="url(#id_0)" d="M375.49207 345.45C375.49207 348.7637 372.8058 351.45 369.49207 351.45C366.17834 351.45 363.49207 348.7637 363.49207 345.45C363.49207 342.1363 366.17834 339.45 369.49207 339.45C372.8058 339.45 375.49207 342.1363 375.49207 345.45Z" fill-rule="nonzero"/><path fill="#434343" clip-path="url(#id_0)" d="M383.49048 345.45C383.49048 348.7637 380.8042 351.45 377.49048 351.45C374.17676 351.45 371.49048 348.7637 371.49048 345.45C371.49048 342.1363 374.17676 339.45 377.49048 339.45C380.8042 339.45 383.49048 342.1363 383.49048 345.45Z" fill-rule="nonzero"/><path fill="#434343" clip-path="url(#id_0)" d="M391.4889 345.45C391.4889 348.7637 388.8026 351.45 385.4889 351.45C382.17517 351.45 379.4889 348.7637 379.4889 345.45C379.4889 342.1363 382.17517 339.45 385.4889 339.45C388.8026 339.45 391.4889 342.1363 391.4889 345.45Z" fill-rule="nonzero"/><path fill="#434343" clip-path="url(#id_0)" d="M399.4873 345.45C399.4873 348.7637 396.801 351.45 393.4873 351.45C390.17358 351.45 387.4873 348.7637 387.4873 345.45C387.4873 342.1363 390.17358 339.45 393.4873 339.45C396.801 339.45 399.4873 342.1363 399.4873 345.45Z" fill-rule="nonzero"/><path fill="#434343" clip-path="url(#id_0)" d="M407.48572 345.45C407.48572 348.7637 404.7994 351.45 401.48572 351.45C398.172 351.45 395.48572 348.7637 395.48572 345.45C395.48572 342.1363 398.172 339.45 401.48572 339.45C404.7994 339.45 407.48572 342.1363 407.48572 345.45Z" fill-rule="nonzero"/><path fill="#434343" clip-path="url(#id_0)" d="M415.48413 345.45C415.48413 348.7637 412.79782 351.45 409.48413 351.45C406.1704 351.45 403.48413 348.7637 403.48413 345.45C403.48413 342.1363 406.1704 339.45 409.48413 339.45C412.79782 339.45 415.48413 342.1363 415.48413 345.45Z" fill-rule="nonzero"/><path fill="#434343" clip-path="url(#id_0)" d="M423.48254 345.45C423.48254 348.7637 420.79623 351.45 417.48254 351.45C414.16882 351.45 411.48254 348.7637 411.48254 345.45C411.48254 342.1363 414.16882 339.45 417.48254 339.45C420.79623 339.45 423.48254 342.1363 423.48254 345.45Z" fill-rule="nonzero"/><path fill="#434343" clip-path="url(#id_0)" d="M431.48096 345.45C431.48096 348.7637 428.79465 351.45 425.48096 351.45C422.16724 351.45 419.48096 348.7637 419.48096 345.45C419.48096 342.1363 422.16724 339.45 425.48096 339.45C428.79465 339.45 431.48096 342.1363 431.48096 345.45Z" fill-rule="nonzero"/><path fill="#434343" clip-path="url(#id_0)" d="M439.47937 345.45C439.47937 348.7637 436.79306 351.45 433.47937 351.45C430.16565 351.45 427.47937 348.7637 427.47937 345.45C427.47937 342.1363 430.16565 339.45 433.47937 339.45C436.79306 339.45 439.47937 342.1363 439.47937 345.45Z" fill-rule="nonzero"/><path fill="#434343" clip-path="url(#id_0)" d="M447.47778 345.45C447.47778 348.7637 444.79147 351.45 441.47778 351.45C438.16406 351.45 435.47778 348.7637 435.47778 345.45C435.47778 342.1363 438.16406 339.45 441.47778 339.45C444.79147 339.45 447.47778 342.1363 447.47778 345.45Z" fill-rule="nonzero"/><path fill="#434343" clip-path="url(#id_0)" d="M455.4762 345.45C455.4762 348.7637 452.7899 351.45 449.4762 351.45C446.16248 351.45 443.4762 348.7637 443.4762 345.45C443.4762 342.1363 446.16248 339.45 449.4762 339.45C452.7899 339.45 455.4762 342.1363 455.4762 345.45Z" fill-rule="nonzero"/><path fill="#434343" clip-path="url(#id_0)" d="M463.4746 345.45C463.4746 348.7637 460.7883 351.45 457.4746 351.45C454.1609 351.45 451.4746 348.7637 451.4746 345.45C451.4746 342.1363 454.1609 339.45 457.4746 339.45C460.7883 339.45 463.4746 342.1363 463.4746 345.45Z" fill-rule="nonzero"/><path fill="#434343" clip-path="url(#id_0)" d="M471.47302 345.45C471.47302 348.7637 468.7867 351.45 465.47302 351.45C462.1593 351.45 459.47302 348.7637 459.47302 345.45C459.47302 342.1363 462.1593 339.45 465.47302 339.45C468.7867 339.45 471.47302 342.1363 471.47302 345.45Z" fill-rule="nonzero"/><path fill="#434343" clip-path="url(#id_0)" d="M479.47144 345.45C479.47144 348.7637 476.78513 351.45 473.47144 351.45C470.1577 351.45 467.47144 348.7637 467.47144 345.45C467.47144 342.1363 470.1577 339.45 473.47144 339.45C476.78513 339.45 479.47144 342.1363 479.47144 345.45Z" fill-rule="nonzero"/><path fill="#434343" clip-path="url(#id_0)" d="M487.46985 345.45C487.46985 348.7637 484.78354 351.45 481.46985 351.45C478.15613 351.45 475.46985 348.7637 475.46985 345.45C475.46985 342.1363 478.15613 339.45 481.46985 339.45C484.78354 339.45 487.46985 342.1363 487.46985 345.45Z" fill-rule="nonzero"/><path fill="#434343" clip-path="url(#id_0)" d="M495.46826 345.45C495.46826 348.7637 492.78195 351.45 489.46826 351.45C486.15454 351.45 483.46826 348.7637 483.46826 345.45C483.46826 342.1363 486.15454 339.45 489.46826 339.45C492.78195 339.45 495.46826 342.1363 495.46826 345.45Z" fill-rule="nonzero"/><path fill="#434343" clip-path="url(#id_0)" d="M503.46667 345.45C503.46667 348.7637 500.78036 351.45 497.46667 351.45C494.15295 351.45 491.46667 348.7637 491.46667 345.45C491.46667 342.1363 494.15295 339.45 497.46667 339.45C500.78036 339.45 503.46667 342.1363 503.46667 345.45Z" fill-rule="nonzero"/><path fill="#434343" clip-path="url(#id_0)" d="M511.4651 345.45C511.4651 348.7637 508.77878 351.45 505.4651 351.45C502.15137 351.45 499.4651 348.7637 499.4651 345.45C499.4651 342.1363 502.15137 339.45 505.4651 339.45C508.77878 339.45 511.4651 342.1363 511.4651 345.45Z" fill-rule="nonzero"/><path fill="#434343" clip-path="url(#id_0)" d="M519.4635 345.45C519.4635 348.7637 516.7772 351.45 513.4635 351.45C510.14978 351.45 507.4635 348.7637 507.4635 345.45C507.4635 342.1363 510.14978 339.45 513.4635 339.45C516.7772 339.45 519.4635 342.1363 519.4635 345.45Z" fill-rule="nonzero"/><path fill="#434343" clip-path="url(#id_0)" d="M527.4619 345.45C527.4619 348.7637 524.77563 351.45 521.4619 351.45C518.1482 351.45 515.4619 348.7637 515.4619 345.45C515.4619 342.1363 518.1482 339.45 521.4619 339.45C524.77563 339.45 527.4619 342.1363 527.4619 345.45Z" fill-rule="nonzero"/><path fill="#434343" clip-path="url(#id_0)" d="M535.4603 345.45C535.4603 348.7637 532.77405 351.45 529.4603 351.45C526.1466 351.45 523.4603 348.7637 523.4603 345.45C523.4603 342.1363 526.1466 339.45 529.4603 339.45C532.77405 339.45 535.4603 342.1363 535.4603 345.45Z" fill-rule="nonzero"/><path fill="#434343" clip-path="url(#id_0)" d="M543.45874 345.45C543.45874 348.7637 540.77246 351.45 537.45874 351.45C534.145 351.45 531.45874 348.7637 531.45874 345.45C531.45874 342.1363 534.145 339.45 537.45874 339.45C540.77246 339.45 543.45874 342.1363 543.45874 345.45Z" fill-rule="nonzero"/><path fill="#434343" clip-path="url(#id_0)" d="M551.45715 345.45C551.45715 348.7637 548.7709 351.45 545.45715 351.45C542.14343 351.45 539.45715 348.7637 539.45715 345.45C539.45715 342.1363 542.14343 339.45 545.45715 339.45C548.7709 339.45 551.45715 342.1363 551.45715 345.45Z" fill-rule="nonzero"/><path fill="#434343" clip-path="url(#id_0)" d="M559.45557 345.45C559.45557 348.7637 556.7693 351.45 553.45557 351.45C550.14185 351.45 547.45557 348.7637 547.45557 345.45C547.45557 342.1363 550.14185 339.45 553.45557 339.45C556.7693 339.45 559.45557 342.1363 559.45557 345.45Z" fill-rule="nonzero"/><path fill="#434343" clip-path="url(#id_0)" d="M567.454 345.45C567.454 348.7637 564.7677 351.45 561.454 351.45C558.14026 351.45 555.454 348.7637 555.454 345.45C555.454 342.1363 558.14026 339.45 561.454 339.45C564.7677 339.45 567.454 342.1363 567.454 345.45Z" fill-rule="nonzero"/><path fill="#434343" clip-path="url(#id_0)" d="M575.4524 345.45C575.4524 348.7637 572.7661 351.45 569.4524 351.45C566.1387 351.45 563.4524 348.7637 563.4524 345.45C563.4524 342.1363 566.1387 339.45 569.4524 339.45C572.7661 339.45 575.4524 342.1363 575.4524 345.45Z" fill-rule="nonzero"/><path fill="#434343" clip-path="url(#id_0)" d="M583.4508 345.45C583.4508 348.7637 580.7645 351.45 577.4508 351.45C574.1371 351.45 571.4508 348.7637 571.4508 345.45C571.4508 342.1363 574.1371 339.45 577.4508 339.45C580.7645 339.45 583.4508 342.1363 583.4508 345.45Z" fill-rule="nonzero"/><path fill="#000000" d="M26.784388 219.13646L26.690638 218.07396Q27.346888 217.99583 27.753138 217.71458Q28.159388 217.43333 28.425013 216.85521Q28.675013 216.26146 28.675013 215.52708Q28.675013 214.88646 28.487513 214.38646Q28.284388 213.88646 27.956263 213.65208Q27.612513 213.40208 27.221888 213.40208Q26.815638 213.40208 26.518763 213.63646Q26.206263 213.87083 26.003138 214.40208Q25.862513 214.76146 25.581263 215.94896Q25.300013 217.12083 25.050013 217.58958Q24.721888 218.21458 24.253138 218.51146Q23.768763 218.80833 23.175013 218.80833Q22.534388 218.80833 21.971888 218.44896Q21.393763 218.07396 21.112513 217.37083Q20.815638 216.65208 20.815638 215.79271Q20.815638 214.83958 21.128138 214.10521Q21.425013 213.37083 22.034388 212.98021Q22.628138 212.58958 23.378138 212.55833L23.456263 213.65208Q22.643763 213.74583 22.237513 214.26146Q21.815638 214.76146 21.815638 215.74583Q21.815638 216.77708 22.190638 217.24583Q22.565638 217.71458 23.096888 217.71458Q23.565638 217.71458 23.862513 217.38646Q24.159388 217.05833 24.471888 215.68333Q24.784388 214.29271 25.018763 213.77708Q25.378138 213.02708 25.909388 212.66771Q26.425013 212.30833 27.128138 212.30833Q27.815638 212.30833 28.425013 212.69896Q29.018763 213.08958 29.362513 213.82396Q29.690638 214.55833 29.690638 215.48021Q29.690638 216.65208 29.362513 217.44896Q29.018763 218.23021 28.331263 218.68333Q27.643763 219.12083 26.784388 219.13646ZM27.268763 206.82396L27.409388 205.79271Q28.471888 205.96458 29.081263 206.66771Q29.690638 207.37083 29.690638 208.38646Q29.690638 209.66771 28.862513 210.44896Q28.018763 211.21458 26.456263 211.21458Q25.456263 211.21458 24.706263 210.88646Q23.940638 210.54271 23.565638 209.87083Q23.190638 209.18333 23.190638 208.37083Q23.190638 207.37083 23.706263 206.73021Q24.206263 206.07396 25.159388 205.88646L25.315638 206.91771Q24.690638 207.05833 24.378138 207.43333Q24.050013 207.80833 24.050013 208.33958Q24.050013 209.13646 24.628138 209.63646Q25.190638 210.13646 26.425013 210.13646Q27.690638 210.13646 28.253138 209.65208Q28.815638 209.16771 28.815638 208.40208Q28.815638 207.77708 28.440638 207.37083Q28.065638 206.94896 27.268763 206.82396ZM26.440638 205.27708Q24.706263 205.27708 23.878138 204.32396Q23.190638 203.52708 23.190638 202.37083Q23.190638 201.08958 24.034388 200.27708Q24.862513 199.44896 26.346888 199.44896Q27.550013 199.44896 28.237513 199.80833Q28.925013 200.16771 29.315638 200.87083Q29.690638 201.55833 29.690638 202.37083Q29.690638 203.66771 28.862513 204.48021Q28.018763 205.27708 26.440638 205.27708ZM26.440638 204.19896Q27.628138 204.19896 28.221888 203.68333Q28.815638 203.15208 28.815638 202.37083Q28.815638 201.57396 28.221888 201.05833Q27.628138 200.54271 26.409388 200.54271Q25.253138 200.54271 24.659388 201.07396Q24.065638 201.58958 24.065638 202.37083Q24.065638 203.15208 24.659388 203.68333Q25.237513 204.19896 26.440638 204.19896ZM29.550013 197.90208L23.331263 197.90208L23.331263 196.94896L24.268763 196.94896Q23.612513 196.58958 23.409388 196.29271Q23.190638 195.98021 23.190638 195.60521Q23.190638 195.07396 23.518763 194.52708L24.503138 194.88646Q24.268763 195.27708 24.268763 195.65208Q24.268763 196.01146 24.487513 196.29271Q24.690638 196.55833 25.065638 196.66771Q25.628138 196.85521 26.284388 196.85521L29.550013 196.85521L29.550013 197.90208ZM27.550013 189.63646L27.675013 188.54271Q28.628138 188.79271 29.159388 189.49583Q29.690638 190.19896 29.690638 191.27708Q29.690638 192.63646 28.846888 193.44896Q28.003138 194.24583 26.487513 194.24583Q24.925013 194.24583 24.065638 193.43333Q23.190638 192.62083 23.190638 191.33958Q23.190638 190.08958 24.034388 189.30833Q24.878138 188.51146 26.425013 188.51146Q26.518763 188.51146 26.706263 188.51146L26.706263 193.15208Q27.737513 193.08958 28.284388 192.57396Q28.815638 192.05833 28.815638 191.27708Q28.815638 190.69896 28.518763 190.29271Q28.206263 189.87083 27.550013 189.63646ZM25.846888 193.08958L25.846888 189.62083Q25.050013 189.68333 24.659388 190.01146Q24.050013 190.52708 24.050013 191.32396Q24.050013 192.05833 24.534388 192.55833Q25.018763 193.04271 25.846888 193.08958Z" fill-rule="nonzero"/><path fill="#000000" d="M65.05 345.21564Q65.05 343.6844 65.3625 342.7625Q65.675 341.825 66.28438 341.325Q66.90938 340.825 67.84688 340.825Q68.53438 340.825 69.05 341.10626Q69.58125 341.3875 69.925 341.91876Q70.26875 342.4344 70.45625 343.1844Q70.64375 343.9344 70.64375 345.21564Q70.64375 346.73126 70.33125 347.65314Q70.03438 348.575 69.40938 349.09064Q68.8 349.59064 67.84688 349.59064Q66.6125 349.59064 65.89375 348.7Q65.05 347.6375 65.05 345.21564ZM66.12813 345.21564Q66.12813 347.325 66.62813 348.02814Q67.12813 348.73126 67.84688 348.73126Q68.58125 348.73126 69.06563 348.02814Q69.56563 347.325 69.56563 345.21564Q69.56563 343.09064 69.06563 342.40314Q68.58125 341.7 67.83125 341.7Q67.1125 341.7 66.675 342.3094Q66.12813 343.09064 66.12813 345.21564Z" fill-rule="nonzero"/><path fill="#000000" d="M62.01875 321.09668L60.971874 321.09668L60.971874 314.37793Q60.58125 314.7373 59.95625 315.1123Q59.346874 315.47168 58.8625 315.64355L58.8625 314.62793Q59.7375 314.20605 60.39375 313.62793Q61.065624 313.03418 61.346874 312.47168L62.01875 312.47168L62.01875 321.09668ZM65.05 316.8623Q65.05 315.33105 65.3625 314.40918Q65.675 313.47168 66.28438 312.97168Q66.90938 312.47168 67.84688 312.47168Q68.53438 312.47168 69.05 312.75293Q69.58125 313.03418 69.925 313.56543Q70.26875 314.08105 70.45625 314.83105Q70.64375 315.58105 70.64375 316.8623Q70.64375 318.37793 70.33125 319.2998Q70.03438 320.22168 69.40938 320.7373Q68.8 321.2373 67.84688 321.2373Q66.6125 321.2373 65.89375 320.34668Q65.05 319.28418 65.05 316.8623ZM66.12813 316.8623Q66.12813 318.97168 66.62813 319.6748Q67.12813 320.37793 67.84688 320.37793Q68.58125 320.37793 69.06563 319.6748Q69.56563 318.97168 69.56563 316.8623Q69.56563 314.7373 69.06563 314.0498Q68.58125 313.34668 67.83125 313.34668Q67.1125 313.34668 66.675 313.95605Q66.12813 314.7373 66.12813 316.8623Z" fill-rule="nonzero"/><path fill="#000000" d="M63.596874 291.72772L63.596874 292.74335L57.909374 292.74335Q57.909374 292.36835 58.034374 292.00897Q58.253124 291.43085 58.721874 290.86835Q59.20625 290.30585 60.1125 289.57147Q61.51875 288.41522 62.003124 287.74335Q62.503124 287.07147 62.503124 286.47772Q62.503124 285.85272 62.05 285.43085Q61.596874 284.99335 60.878124 284.99335Q60.1125 284.99335 59.659374 285.44647Q59.20625 285.8996 59.190624 286.7121L58.1125 286.60272Q58.221874 285.38397 58.940624 284.75897Q59.675 284.11835 60.909374 284.11835Q62.14375 284.11835 62.8625 284.80585Q63.58125 285.49335 63.58125 286.50897Q63.58125 287.0246 63.3625 287.5246Q63.159374 288.00897 62.659374 288.57147Q62.175 289.11835 61.05 290.07147Q60.096874 290.86835 59.815624 291.16522Q59.55 291.44647 59.378124 291.72772L63.596874 291.72772ZM65.05 288.50897Q65.05 286.97772 65.3625 286.05585Q65.675 285.11835 66.28438 284.61835Q66.90938 284.11835 67.84688 284.11835Q68.53438 284.11835 69.05 284.3996Q69.58125 284.68085 69.925 285.2121Q70.26875 285.72772 70.45625 286.47772Q70.64375 287.22772 70.64375 288.50897Q70.64375 290.0246 70.33125 290.94647Q70.03438 291.86835 69.40938 292.38397Q68.8 292.88397 67.84688 292.88397Q66.6125 292.88397 65.89375 291.99335Q65.05 290.93085 65.05 288.50897ZM66.12813 288.50897Q66.12813 290.61835 66.62813 291.32147Q67.12813 292.0246 67.84688 292.0246Q68.58125 292.0246 69.06563 291.32147Q69.56563 290.61835 69.56563 288.50897Q69.56563 286.38397 69.06563 285.69647Q68.58125 284.99335 67.83125 284.99335Q67.1125 284.99335 66.675 285.60272Q66.12813 286.38397 66.12813 288.50897Z" fill-rule="nonzero"/><path fill="#000000" d="M58.05 262.1244L59.1125 261.98376Q59.284374 262.8744 59.721874 263.28064Q60.159374 263.67126 60.784374 263.67126Q61.534374 263.67126 62.05 263.15564Q62.565624 262.64 62.565624 261.8744Q62.565624 261.15564 62.08125 260.6869Q61.6125 260.2025 60.878124 260.2025Q60.58125 260.2025 60.128124 260.3275L60.253124 259.39Q60.3625 259.40564 60.425 259.40564Q61.096874 259.40564 61.628124 259.0619Q62.175 258.7025 62.175 257.96814Q62.175 257.39 61.784374 257.015Q61.39375 256.6244 60.76875 256.6244Q60.159374 256.6244 59.7375 257.015Q59.33125 257.40564 59.221874 258.17126L58.159374 257.98376Q58.346874 256.9369 59.034374 256.35876Q59.721874 255.76501 60.7375 255.76501Q61.440624 255.76501 62.034374 256.0775Q62.628124 256.3744 62.940624 256.89Q63.253124 257.40564 63.253124 257.9994Q63.253124 258.54626 62.95625 259.015Q62.659374 259.46814 62.08125 259.73376Q62.83125 259.90564 63.253124 260.46814Q63.675 261.015 63.675 261.85876Q63.675 262.98376 62.846874 263.765Q62.034374 264.54626 60.784374 264.54626Q59.659374 264.54626 58.909374 263.8744Q58.159374 263.1869 58.05 262.1244ZM65.05 260.15564Q65.05 258.6244 65.3625 257.7025Q65.675 256.765 66.28438 256.265Q66.90938 255.76501 67.84688 255.76501Q68.53438 255.76501 69.05 256.04626Q69.58125 256.3275 69.925 256.85876Q70.26875 257.3744 70.45625 258.1244Q70.64375 258.8744 70.64375 260.15564Q70.64375 261.67126 70.33125 262.59314Q70.03438 263.515 69.40938 264.03064Q68.8 264.53064 67.84688 264.53064Q66.6125 264.53064 65.89375 263.64Q65.05 262.5775 65.05 260.15564ZM66.12813 260.15564Q66.12813 262.265 66.62813 262.96814Q67.12813 263.67126 67.84688 263.67126Q68.58125 263.67126 69.06563 262.96814Q69.56563 262.265 69.56563 260.15564Q69.56563 258.03064 69.06563 257.34314Q68.58125 256.64 67.83125 256.64Q67.1125 256.64 66.675 257.2494Q66.12813 258.03064 66.12813 260.15564Z" fill-rule="nonzero"/><path fill="#000000" d="M61.425 236.03667L61.425 233.97417L57.70625 233.97417L57.70625 233.00542L61.628124 227.44292L62.4875 227.44292L62.4875 233.00542L63.64375 233.00542L63.64375 233.97417L62.4875 233.97417L62.4875 236.03667L61.425 236.03667ZM61.425 233.00542L61.425 229.14604L58.7375 233.00542L61.425 233.00542ZM65.05 231.80229Q65.05 230.27104 65.3625 229.34917Q65.675 228.41167 66.28438 227.91167Q66.90938 227.41167 67.84688 227.41167Q68.53438 227.41167 69.05 227.69292Q69.58125 227.97417 69.925 228.50542Q70.26875 229.02104 70.45625 229.77104Q70.64375 230.52104 70.64375 231.80229Q70.64375 233.31792 70.33125 234.23979Q70.03438 235.16167 69.40938 235.67729Q68.8 236.17729 67.84688 236.17729Q66.6125 236.17729 65.89375 235.28667Q65.05 234.22417 65.05 231.80229ZM66.12813 231.80229Q66.12813 233.91167 66.62813 234.61479Q67.12813 235.31792 67.84688 235.31792Q68.58125 235.31792 69.06563 234.61479Q69.56563 233.91167 69.56563 231.80229Q69.56563 229.67729 69.06563 228.98979Q68.58125 228.28667 67.83125 228.28667Q67.1125 228.28667 66.675 228.89604Q66.12813 229.67729 66.12813 231.80229Z" fill-rule="nonzero"/><path fill="#000000" d="M58.05 205.43333L59.159374 205.33958Q59.284374 206.15208 59.721874 206.55833Q60.175 206.96458 60.815624 206.96458Q61.565624 206.96458 62.096874 206.38646Q62.628124 205.80833 62.628124 204.87083Q62.628124 203.96458 62.1125 203.44896Q61.6125 202.91771 60.784374 202.91771Q60.284374 202.91771 59.8625 203.15208Q59.45625 203.38646 59.221874 203.74583L58.2375 203.62083L59.065624 199.21458L63.346874 199.21458L63.346874 200.21458L59.909374 200.21458L59.45625 202.52708Q60.221874 201.98021 61.065624 201.98021Q62.190624 201.98021 62.95625 202.76146Q63.7375 203.54271 63.7375 204.77708Q63.7375 205.93333 63.065624 206.79271Q62.2375 207.82396 60.815624 207.82396Q59.64375 207.82396 58.89375 207.16771Q58.159374 206.51146 58.05 205.43333ZM65.05 203.44896Q65.05 201.91771 65.3625 200.99583Q65.675 200.05833 66.28438 199.55833Q66.90938 199.05833 67.84688 199.05833Q68.53438 199.05833 69.05 199.33958Q69.58125 199.62083 69.925 200.15208Q70.26875 200.66771 70.45625 201.41771Q70.64375 202.16771 70.64375 203.44896Q70.64375 204.96458 70.33125 205.88646Q70.03438 206.80833 69.40938 207.32396Q68.8 207.82396 67.84688 207.82396Q66.6125 207.82396 65.89375 206.93333Q65.05 205.87083 65.05 203.44896ZM66.12813 203.44896Q66.12813 205.55833 66.62813 206.26146Q67.12813 206.96458 67.84688 206.96458Q68.58125 206.96458 69.06563 206.26146Q69.56563 205.55833 69.56563 203.44896Q69.56563 201.32396 69.06563 200.63646Q68.58125 199.93333 67.83125 199.93333Q67.1125 199.93333 66.675 200.54271Q66.12813 201.32396 66.12813 203.44896Z" fill-rule="nonzero"/><path fill="#000000" d="M63.51875 172.84563L62.471874 172.92375Q62.33125 172.29875 62.08125 172.0175Q61.64375 171.56438 61.01875 171.56438Q60.51875 171.56438 60.128124 171.84563Q59.64375 172.22063 59.346874 172.92375Q59.065624 173.61125 59.05 174.8925Q59.425 174.31438 59.971874 174.03313Q60.534374 173.75188 61.14375 173.75188Q62.190624 173.75188 62.925 174.53313Q63.675 175.31438 63.675 176.53313Q63.675 177.34563 63.315624 178.04875Q62.971874 178.73625 62.3625 179.11125Q61.753124 179.47063 60.9875 179.47063Q59.659374 179.47063 58.83125 178.50188Q58.003124 177.53313 58.003124 175.31438Q58.003124 172.81438 58.925 171.68938Q59.721874 170.705 61.08125 170.705Q62.096874 170.705 62.7375 171.28313Q63.39375 171.84563 63.51875 172.84563ZM59.221874 176.54875Q59.221874 177.09563 59.440624 177.59563Q59.675 178.08 60.08125 178.34563Q60.503124 178.61125 60.971874 178.61125Q61.628124 178.61125 62.1125 178.08Q62.596874 177.53313 62.596874 176.61125Q62.596874 175.72063 62.1125 175.205Q61.64375 174.68938 60.925 174.68938Q60.20625 174.68938 59.70625 175.205Q59.221874 175.72063 59.221874 176.54875ZM65.05 175.09563Q65.05 173.56438 65.3625 172.6425Q65.675 171.705 66.28438 171.205Q66.90938 170.705 67.84688 170.705Q68.53438 170.705 69.05 170.98625Q69.58125 171.2675 69.925 171.79875Q70.26875 172.31438 70.45625 173.06438Q70.64375 173.81438 70.64375 175.09563Q70.64375 176.61125 70.33125 177.53313Q70.03438 178.455 69.40938 178.97063Q68.8 179.47063 67.84688 179.47063Q66.6125 179.47063 65.89375 178.58Q65.05 177.5175 65.05 175.09563ZM66.12813 175.09563Q66.12813 177.205 66.62813 177.90813Q67.12813 178.61125 67.84688 178.61125Q68.58125 178.61125 69.06563 177.90813Q69.56563 177.205 69.56563 175.09563Q69.56563 172.97063 69.06563 172.28313Q68.58125 171.58 67.83125 171.58Q67.1125 171.58 66.675 172.18938Q66.12813 172.97063 66.12813 175.09563Z" fill-rule="nonzero"/><path fill="#000000" d="M58.1125 143.50792L58.1125 142.4923L63.675 142.4923L63.675 143.32042Q62.8625 144.19542 62.05 145.64854Q61.253124 147.08604 60.815624 148.6173Q60.4875 149.69542 60.409374 150.97667L59.315624 150.97667Q59.33125 149.96104 59.70625 148.52354Q60.096874 147.08604 60.8 145.75792Q61.51875 144.4298 62.33125 143.50792L58.1125 143.50792ZM65.05 146.7423Q65.05 145.21104 65.3625 144.28917Q65.675 143.35167 66.28438 142.85167Q66.90938 142.35167 67.84688 142.35167Q68.53438 142.35167 69.05 142.63292Q69.58125 142.91417 69.925 143.44542Q70.26875 143.96104 70.45625 144.71104Q70.64375 145.46104 70.64375 146.7423Q70.64375 148.25792 70.33125 149.1798Q70.03438 150.10167 69.40938 150.6173Q68.8 151.1173 67.84688 151.1173Q66.6125 151.1173 65.89375 150.22667Q65.05 149.16417 65.05 146.7423ZM66.12813 146.7423Q66.12813 148.85167 66.62813 149.5548Q67.12813 150.25792 67.84688 150.25792Q68.58125 150.25792 69.06563 149.5548Q69.56563 148.85167 69.56563 146.7423Q69.56563 144.6173 69.06563 143.9298Q68.58125 143.22667 67.83125 143.22667Q67.1125 143.22667 66.675 143.83604Q66.12813 144.6173 66.12813 146.7423Z" fill-rule="nonzero"/><path fill="#000000" d="M59.675 117.96709Q59.01875 117.71709 58.690624 117.27959Q58.378124 116.82646 58.378124 116.21709Q58.378124 115.27959 59.05 114.63896Q59.7375 113.99834 60.846874 113.99834Q61.971874 113.99834 62.659374 114.65459Q63.346874 115.31084 63.346874 116.24834Q63.346874 116.84209 63.034374 117.27959Q62.721874 117.71709 62.08125 117.96709Q62.878124 118.21709 63.284374 118.79521Q63.690624 119.37334 63.690624 120.17021Q63.690624 121.26396 62.909374 122.01396Q62.14375 122.76396 60.8625 122.76396Q59.596874 122.76396 58.815624 122.01396Q58.034374 121.26396 58.034374 120.13896Q58.034374 119.29521 58.45625 118.73271Q58.89375 118.17021 59.675 117.96709ZM59.45625 116.17021Q59.45625 116.77959 59.846874 117.17021Q60.253124 117.56084 60.878124 117.56084Q61.4875 117.56084 61.878124 117.18584Q62.26875 116.79521 62.26875 116.23271Q62.26875 115.65459 61.8625 115.26396Q61.45625 114.85771 60.8625 114.85771Q60.253124 114.85771 59.846874 115.24834Q59.45625 115.63896 59.45625 116.17021ZM59.128124 120.13896Q59.128124 120.59209 59.33125 121.01396Q59.55 121.43584 59.971874 121.67021Q60.39375 121.90459 60.878124 121.90459Q61.628124 121.90459 62.1125 121.42021Q62.6125 120.93584 62.6125 120.18584Q62.6125 119.42021 62.1125 118.92021Q61.6125 118.42021 60.846874 118.42021Q60.096874 118.42021 59.6125 118.92021Q59.128124 119.40459 59.128124 120.13896ZM65.05 118.38896Q65.05 116.85771 65.3625 115.93584Q65.675 114.99834 66.28438 114.49834Q66.90938 113.99834 67.84688 113.99834Q68.53438 113.99834 69.05 114.27959Q69.58125 114.56084 69.925 115.09209Q70.26875 115.60771 70.45625 116.35771Q70.64375 117.10771 70.64375 118.38896Q70.64375 119.90459 70.33125 120.82646Q70.03438 121.74834 69.40938 122.26396Q68.8 122.76396 67.84688 122.76396Q66.6125 122.76396 65.89375 121.87334Q65.05 120.81084 65.05 118.38896ZM66.12813 118.38896Q66.12813 120.49834 66.62813 121.20146Q67.12813 121.90459 67.84688 121.90459Q68.58125 121.90459 69.06563 121.20146Q69.56563 120.49834 69.56563 118.38896Q69.56563 116.26396 69.06563 115.57646Q68.58125 114.87334 67.83125 114.87334Q67.1125 114.87334 66.675 115.48271Q66.12813 116.26396 66.12813 118.38896Z" fill-rule="nonzero"/><path fill="#000000" d="M58.20625 92.28562L59.221874 92.19187Q59.346874 92.91062 59.70625 93.23875Q60.08125 93.55125 60.64375 93.55125Q61.128124 93.55125 61.4875 93.3325Q61.8625 93.09812 62.096874 92.73875Q62.33125 92.36375 62.4875 91.73875Q62.64375 91.09812 62.64375 90.44187Q62.64375 90.36375 62.64375 90.22312Q62.33125 90.72312 61.784374 91.05125Q61.2375 91.36375 60.596874 91.36375Q59.51875 91.36375 58.784374 90.59812Q58.05 89.81687 58.05 88.55125Q58.05 87.23875 58.815624 86.44187Q59.596874 85.645 60.753124 85.645Q61.58125 85.645 62.26875 86.09812Q62.971874 86.55125 63.33125 87.395Q63.690624 88.22312 63.690624 89.80125Q63.690624 91.44187 63.33125 92.42625Q62.9875 93.395 62.26875 93.91062Q61.565624 94.41062 60.628124 94.41062Q59.6125 94.41062 58.971874 93.86375Q58.33125 93.30125 58.20625 92.28562ZM62.51875 88.48875Q62.51875 87.5825 62.034374 87.05125Q61.565624 86.52 60.878124 86.52Q60.175 86.52 59.64375 87.09812Q59.128124 87.66062 59.128124 88.5825Q59.128124 89.395 59.628124 89.91062Q60.128124 90.42625 60.846874 90.42625Q61.58125 90.42625 62.05 89.91062Q62.51875 89.395 62.51875 88.48875ZM65.05 90.03562Q65.05 88.50437 65.3625 87.5825Q65.675 86.645 66.28438 86.145Q66.90938 85.645 67.84688 85.645Q68.53438 85.645 69.05 85.92625Q69.58125 86.2075 69.925 86.73875Q70.26875 87.25437 70.45625 88.00437Q70.64375 88.75437 70.64375 90.03562Q70.64375 91.55125 70.33125 92.47312Q70.03438 93.395 69.40938 93.91062Q68.8 94.41062 67.84688 94.41062Q66.6125 94.41062 65.89375 93.52Q65.05 92.4575 65.05 90.03562ZM66.12813 90.03562Q66.12813 92.145 66.62813 92.84812Q67.12813 93.55125 67.84688 93.55125Q68.58125 93.55125 69.06563 92.84812Q69.56563 92.145 69.56563 90.03562Q69.56563 87.91062 69.06563 87.22312Q68.58125 86.52 67.83125 86.52Q67.1125 86.52 66.675 87.12937Q66.12813 87.91062 66.12813 90.03562Z" fill-rule="nonzero"/><path fill="#000000" d="M55.01875 65.916664L53.971874 65.916664L53.971874 59.197914Q53.58125 59.55729 52.95625 59.93229Q52.346874 60.291664 51.8625 60.46354L51.8625 59.447914Q52.7375 59.02604 53.39375 58.447914Q54.065624 57.854164 54.346874 57.291664L55.01875 57.291664L55.01875 65.916664ZM58.05 61.68229Q58.05 60.15104 58.3625 59.229164Q58.675 58.291664 59.284374 57.791664Q59.909374 57.291664 60.846874 57.291664Q61.534374 57.291664 62.05 57.572914Q62.58125 57.854164 62.925 58.385414Q63.26875 58.90104 63.45625 59.65104Q63.64375 60.40104 63.64375 61.68229Q63.64375 63.197914 63.33125 64.11979Q63.034374 65.041664 62.409374 65.55729Q61.8 66.05729 60.846874 66.05729Q59.6125 66.05729 58.89375 65.166664Q58.05 64.104164 58.05 61.68229ZM59.128124 61.68229Q59.128124 63.791664 59.628124 64.49479Q60.128124 65.197914 60.846874 65.197914Q61.58125 65.197914 62.065624 64.49479Q62.565624 63.791664 62.565624 61.68229Q62.565624 59.55729 62.065624 58.86979Q61.58125 58.166664 60.83125 58.166664Q60.1125 58.166664 59.675 58.77604Q59.128124 59.55729 59.128124 61.68229ZM65.05 61.68229Q65.05 60.15104 65.3625 59.229164Q65.675 58.291664 66.28438 57.791664Q66.90938 57.291664 67.84688 57.291664Q68.53438 57.291664 69.05 57.572914Q69.58125 57.854164 69.925 58.385414Q70.26875 58.90104 70.45625 59.65104Q70.64375 60.40104 70.64375 61.68229Q70.64375 63.197914 70.33125 64.11979Q70.03438 65.041664 69.40938 65.55729Q68.8 66.05729 67.84688 66.05729Q66.6125 66.05729 65.89375 65.166664Q65.05 64.104164 65.05 61.68229ZM66.12813 61.68229Q66.12813 63.791664 66.62813 64.49479Q67.12813 65.197914 67.84688 65.197914Q68.58125 65.197914 69.06563 64.49479Q69.56563 63.791664 69.56563 61.68229Q69.56563 59.55729 69.06563 58.86979Q68.58125 58.166664 67.83125 58.166664Q67.1125 58.166664 66.675 58.77604Q66.12813 59.55729 66.12813 61.68229Z" fill-rule="nonzero"/><path fill="#757575" d="M20.01875 37.55L20.01875 23.2375L21.909374 23.2375L21.909374 35.8625L28.95625 35.8625L28.95625 37.55L20.01875 37.55ZM37.659374 37.55L37.659374 36.01875Q36.45625 37.784374 34.378124 37.784374Q33.45625 37.784374 32.659374 37.440624Q31.8625 37.08125 31.471874 36.55Q31.096874 36.01875 30.940624 35.2375Q30.83125 34.721874 30.83125 33.596874L30.83125 27.175L32.58125 27.175L32.58125 32.925Q32.58125 34.3 32.690624 34.784374Q32.8625 35.471874 33.39375 35.878124Q33.940624 36.26875 34.721874 36.26875Q35.51875 36.26875 36.20625 35.8625Q36.909374 35.45625 37.190624 34.76875Q37.4875 34.065624 37.4875 32.7375L37.4875 27.175L39.2375 27.175L39.2375 37.55L37.659374 37.55ZM47.64375 33.753124L49.3625 33.971874Q49.08125 35.76875 47.909374 36.784374Q46.753124 37.784374 45.05 37.784374Q42.925 37.784374 41.628124 36.39375Q40.33125 35.003124 40.33125 32.409374Q40.33125 30.721874 40.878124 29.471874Q41.440624 28.20625 42.58125 27.58125Q43.721874 26.940624 45.065624 26.940624Q46.753124 26.940624 47.815624 27.8Q48.89375 28.659374 49.20625 30.221874L47.4875 30.4875Q47.253124 29.440624 46.628124 28.925Q46.003124 28.39375 45.128124 28.39375Q43.8 28.39375 42.971874 29.346874Q42.14375 30.3 42.14375 32.346874Q42.14375 34.440624 42.940624 35.39375Q43.7375 36.33125 45.034374 36.33125Q46.065624 36.33125 46.753124 35.70625Q47.45625 35.065624 47.64375 33.753124ZM50.878124 37.55L50.878124 23.2375L52.64375 23.2375L52.64375 31.39375L56.8 27.175L59.065624 27.175L55.1125 31.01875L59.471874 37.55L57.3 37.55L53.878124 32.253124L52.64375 33.440624L52.64375 37.55L50.878124 37.55ZM60.784374 41.55L60.596874 39.89375Q61.175 40.05 61.596874 40.05Q62.190624 40.05 62.534374 39.846874Q62.89375 39.659374 63.1125 39.315624Q63.284374 39.05 63.659374 38.003124Q63.70625 37.846874 63.815624 37.565624L59.878124 27.175L61.76875 27.175L63.925 33.190624Q64.34688 34.33125 64.675 35.58125Q64.9875 34.378124 65.39375 33.221874L67.6125 27.175L69.37813 27.175L65.425 37.721874Q64.8 39.440624 64.44063 40.08125Q63.971874 40.95625 63.3625 41.346874Q62.76875 41.753124 61.925 41.753124Q61.409374 41.753124 60.784374 41.55ZM76.45625 32.95625L78.2375 32.8Q78.3625 33.8625 78.81563 34.55Q79.28438 35.2375 80.25313 35.675Q81.2375 36.096874 82.47188 36.096874Q83.55 36.096874 84.37813 35.784374Q85.20625 35.45625 85.6125 34.89375Q86.01875 34.33125 86.01875 33.659374Q86.01875 32.9875 85.62813 32.4875Q85.2375 31.9875 84.34688 31.64375Q83.76875 31.409374 81.78438 30.940624Q79.81563 30.471874 79.03438 30.05Q78.00313 29.51875 77.50313 28.721874Q77.00313 27.925 77.00313 26.940624Q77.00313 25.846874 77.6125 24.909374Q78.22188 23.971874 79.40938 23.4875Q80.59688 22.9875 82.03438 22.9875Q83.62813 22.9875 84.84688 23.503124Q86.06563 24.01875 86.70625 25.01875Q87.3625 26.003124 87.40938 27.26875L85.59688 27.409374Q85.45625 26.05 84.6125 25.3625Q83.76875 24.659374 82.1125 24.659374Q80.39375 24.659374 79.59688 25.3Q78.81563 25.925 78.81563 26.8Q78.81563 27.58125 79.37813 28.08125Q79.925 28.58125 82.2375 29.096874Q84.55 29.6125 85.40938 30.003124Q86.65938 30.58125 87.25313 31.471874Q87.84688 32.346874 87.84688 33.503124Q87.84688 34.64375 87.19063 35.659374Q86.53438 36.675 85.3 37.2375Q84.08125 37.8 82.55 37.8Q80.6125 37.8 79.3 37.2375Q77.9875 36.659374 77.2375 35.51875Q76.4875 34.378124 76.45625 32.95625ZM89.78438 41.55L89.59688 39.89375Q90.175 40.05 90.59688 40.05Q91.19063 40.05 91.53438 39.846874Q91.89375 39.659374 92.1125 39.315624Q92.28438 39.05 92.65938 38.003124Q92.70625 37.846874 92.81563 37.565624L88.87813 27.175L90.76875 27.175L92.925 33.190624Q93.34688 34.33125 93.675 35.58125Q93.9875 34.378124 94.39375 33.221874L96.6125 27.175L98.37813 27.175L94.425 37.721874Q93.8 39.440624 93.44063 40.08125Q92.97188 40.95625 92.3625 41.346874Q91.76875 41.753124 90.925 41.753124Q90.40938 41.753124 89.78438 41.55ZM99.8625 37.55L99.8625 27.175L101.44063 27.175L101.44063 28.628124Q101.925 27.878124 102.7375 27.409374Q103.55 26.940624 104.58125 26.940624Q105.7375 26.940624 106.47188 27.425Q107.20625 27.89375 107.51875 28.753124Q108.75313 26.940624 110.72188 26.940624Q112.26875 26.940624 113.09688 27.8Q113.925 28.659374 113.925 30.425L113.925 37.55L112.175 37.55L112.175 31.01875Q112.175 29.95625 112.00313 29.503124Q111.83125 29.034374 111.37813 28.753124Q110.94063 28.471874 110.33125 28.471874Q109.2375 28.471874 108.50313 29.20625Q107.78438 29.925 107.78438 31.51875L107.78438 37.55L106.03438 37.55L106.03438 30.815624Q106.03438 29.64375 105.59688 29.065624Q105.175 28.471874 104.19063 28.471874Q103.45625 28.471874 102.81563 28.8625Q102.19063 29.253124 101.90938 30.003124Q101.62813 30.753124 101.62813 32.175L101.62813 37.55L99.8625 37.55ZM117.4875 37.55L115.8625 37.55L115.8625 23.2375L117.6125 23.2375L117.6125 28.346874Q118.7375 26.940624 120.45625 26.940624Q121.40938 26.940624 122.26875 27.33125Q123.12813 27.721874 123.675 28.425Q124.22188 29.1125 124.53438 30.096874Q124.84688 31.08125 124.84688 32.20625Q124.84688 34.878124 123.53438 36.33125Q122.22188 37.784374 120.37813 37.784374Q118.53438 37.784374 117.4875 36.253124L117.4875 37.55ZM117.47188 32.284374Q117.47188 34.14375 117.97188 34.9875Q118.81563 36.33125 120.22188 36.33125Q121.37813 36.33125 122.20625 35.33125Q123.05 34.33125 123.05 32.346874Q123.05 30.315624 122.2375 29.3625Q121.44063 28.39375 120.3 28.39375Q119.14375 28.39375 118.3 29.39375Q117.47188 30.39375 117.47188 32.284374ZM126.22188 32.3625Q126.22188 29.4875 127.81563 28.096874Q129.15938 26.940624 131.08125 26.940624Q133.22188 26.940624 134.56563 28.346874Q135.925 29.753124 135.925 32.221874Q135.925 34.221874 135.33125 35.378124Q134.7375 36.51875 133.58125 37.159374Q132.44063 37.784374 131.08125 37.784374Q128.89375 37.784374 127.55 36.39375Q126.22188 34.9875 126.22188 32.3625ZM128.01875 32.3625Q128.01875 34.3625 128.87813 35.346874Q129.75313 36.33125 131.08125 36.33125Q132.39375 36.33125 133.25313 35.346874Q134.12813 34.346874 134.12813 32.3Q134.12813 30.378124 133.25313 29.39375Q132.37813 28.39375 131.08125 28.39375Q129.75313 28.39375 128.87813 29.39375Q128.01875 30.378124 128.01875 32.3625ZM137.83125 37.55L137.83125 23.2375L139.58125 23.2375L139.58125 37.55L137.83125 37.55ZM141.15938 34.45625L142.90938 34.175Q143.05 35.221874 143.72188 35.784374Q144.39375 36.33125 145.59688 36.33125Q146.8 36.33125 147.37813 35.846874Q147.97188 35.346874 147.97188 34.690624Q147.97188 34.096874 147.45625 33.753124Q147.09688 33.51875 145.65938 33.159374Q143.72188 32.659374 142.97188 32.315624Q142.2375 31.95625 141.84688 31.33125Q141.45625 30.690624 141.45625 29.925Q141.45625 29.2375 141.76875 28.64375Q142.09688 28.05 142.64375 27.659374Q143.05 27.3625 143.75313 27.159374Q144.47188 26.940624 145.28438 26.940624Q146.50313 26.940624 147.425 27.3Q148.34688 27.64375 148.78438 28.253124Q149.22188 28.846874 149.39375 29.846874L147.675 30.08125Q147.55 29.284374 146.9875 28.846874Q146.425 28.39375 145.40938 28.39375Q144.19063 28.39375 143.675 28.8Q143.15938 29.190624 143.15938 29.721874Q143.15938 30.065624 143.37813 30.346874Q143.58125 30.628124 144.05 30.815624Q144.31563 30.909374 145.59688 31.253124Q147.47188 31.753124 148.20625 32.08125Q148.94063 32.39375 149.3625 33.003124Q149.78438 33.596874 149.78438 34.503124Q149.78438 35.378124 149.26875 36.159374Q148.75313 36.940624 147.78438 37.3625Q146.81563 37.784374 145.59688 37.784374Q143.58125 37.784374 142.51875 36.940624Q141.45625 36.096874 141.15938 34.45625Z" fill-rule="nonzero"/></svg>