<svg version="1.1" viewBox="0.0 0.0 600.0 371.0" fill="none" stroke="none" stroke-linecap="square" stroke-miterlimit="10" width="600" height="371" xmlns:xlink="http://www.w3.org/1999/xlink" xmlns="http://www.w3.org/2000/svg"><path fill="#ffffff" d="M0 0L600.0 0L600.0 371.0L0 371.0L0 0Z" fill-rule="nonzero"/><path stroke="#333333" stroke-width="1.0" stroke-linecap="butt" d="M77.5 345.5L581.5 345.5" fill-rule="nonzero"/><path stroke="#cccccc" stroke-width="1.0" stroke-linecap="butt" d="M77.5 317.5L581.5 317.5" fill-rule="nonzero"/><path stroke="#cccccc" stroke-width="1.0" stroke-linecap="butt" d="M77.5 289.5L581.5 289.5" fill-rule="nonzero"/><path stroke="#cccccc" stroke-width="1.0" stroke-linecap="butt" d="M77.5 261.5L581.5 261.5" fill-rule="nonzero"/><path stroke="#cccccc" stroke-width="1.0" stroke-linecap="butt" d="M77.5 233.5L581.5 233.5" fill-rule="nonzero"/><path stroke="#cccccc" stroke-width="1.0" stroke-linecap="butt" d="M77.5 205.5L581.5 205.5" fill-rule="nonzero"/><path stroke="#cccccc" stroke-width="1.0" stroke-linecap="butt" d="M77.5 177.5L581.5 177.5" fill-rule="nonzero"/><path stroke="#cccccc" stroke-width="1.0" stroke-linecap="butt" d="M77.5 149.5L581.5 149.5" fill-rule="nonzero"/><path stroke="#cccccc" stroke-width="1.0" stroke-linecap="butt" d="M77.5 121.5L581.5 121.5" fill-rule="nonzero"/><path stroke="#cccccc" stroke-width="1.0" stroke-linecap="butt" d="M77.5 93.5L581.5 93.5" fill-rule="nonzero"/><path stroke="#cccccc" stroke-width="1.0" stroke-linecap="butt" d="M77.5 65.5L581.5 65.5" fill-rule="nonzero"/><clipPath id="id_0"><path d="M77.55 61.916668L581.45 61.916668L581.45 345.45L77.55 345.45L77.55 61.916668Z" clip-rule="nonzero"/></clipPath><path stroke="#434343" stroke-width="2.0" stroke-linecap="butt" clip-path="url(#id_0)" d="M81.54921 61.916668L89.54762 65.25104L97.54603 100.05174L105.54444 133.03116L113.542854 140.09218L121.54127 161.5274L129.53969 182.82253L137.5381 187.30571L145.53651 196.94455L153.53493 205.35051L161.53334 215.15749L169.53175 222.16246L177.53015 222.49869L185.52856 231.6612L193.52698 233.65062L201.52539 240.51549L209.5238 242.47688L217.52222 245.55907L225.52063 248.78136L233.51904 251.80751L241.51746 263.3517L249.51587 263.68793L257.51428 270.6929L265.5127 274.95193L273.5111 275.4563L281.50952 278.90274L289.50793 281.00424L297.50635 283.63812L305.50476 285.2072L313.50317 287.36475L321.5016 287.8411L329.5 289.41022L337.4984 290.86725L345.49683 292.32428L353.49524 293.7533L361.49365 295.0142L369.49207 296.80746L377.49048 297.92825L385.4889 298.48865L393.4873 303.42017L401.48572 303.42017L409.48413 303.42017L417.48254 303.42017L425.48096 303.42017L433.47937 303.42017L441.47778 303.42017L449.4762 303.42017L457.4746 310.25702L465.47302 312.72275L473.47144 323.37033L481.46985 324.0428L489.46826 325.83606L497.46667 325.83606L505.4651 325.83606L513.4635 325.83606L521.4619 325.83606L529.4603 325.83606L537.45874 325.83606L545.45715 325.83606L553.45557 335.92325L561.454 337.04404L569.4524 338.27692L577.4508 343.43256" fill-rule="nonzero"/><path fill="#434343" clip-path="url(#id_0)" d="M87.54921 61.916668C87.54921 65.23038 84.862915 67.916664 81.54921 67.916664C78.2355 67.916664 75.54921 65.23038 75.54921 61.916668C75.54921 58.60296 78.2355 55.916668 81.54921 55.916668C84.862915 55.916668 87.54921 58.60296 87.54921 61.916668Z" fill-rule="nonzero"/><path fill="#434343" clip-path="url(#id_0)" d="M95.54762 65.25104C95.54762 68.56474 92.86133 71.25104 89.54762 71.25104C86.23391 71.25104 83.54762 68.56474 83.54762 65.25104C83.54762 61.937325 86.23391 59.251034 89.54762 59.251034C92.86133 59.251034 95.54762 61.937325 95.54762 65.25104Z" fill-rule="nonzero"/><path fill="#434343" clip-path="url(#id_0)" d="M103.54603 100.05174C103.54603 103.365456 100.85974 106.05174 97.54603 106.05174C94.23232 106.05174 91.54603 103.365456 91.54603 100.05174C91.54603 96.73804 94.23232 94.05174 97.54603 94.05174C100.85974 94.05174 103.54603 96.73804 103.54603 100.05174Z" fill-rule="nonzero"/><path fill="#434343" clip-path="url(#id_0)" d="M111.54444 133.03116C111.54444 136.34488 108.858154 139.03116 105.54444 139.03116C102.230736 139.03116 99.54444 136.34488 99.54444 133.03116C99.54444 129.71745 102.230736 127.031166 105.54444 127.031166C108.858154 127.031166 111.54444 129.71745 111.54444 133.03116Z" fill-rule="nonzero"/><path fill="#434343" clip-path="url(#id_0)" d="M119.542854 140.09218C119.542854 143.40588 116.85657 146.09218 113.542854 146.09218C110.22915 146.09218 107.542854 143.40588 107.542854 140.09218C107.542854 136.77847 110.22915 134.09218 113.542854 134.09218C116.85657 134.09218 119.542854 136.77847 119.542854 140.09218Z" fill-rule="nonzero"/><path fill="#434343" clip-path="url(#id_0)" d="M127.54127 161.5274C127.54127 164.84111 124.85498 167.5274 121.54127 167.5274C118.22756 167.5274 115.54127 164.84111 115.54127 161.5274C115.54127 158.21368 118.22756 155.5274 121.54127 155.5274C124.85498 155.5274 127.54127 158.21368 127.54127 161.5274Z" fill-rule="nonzero"/><path fill="#434343" clip-path="url(#id_0)" d="M135.53969 182.82253C135.53969 186.13623 132.8534 188.82253 129.53969 188.82253C126.225975 188.82253 123.53968 186.13623 123.53968 182.82253C123.53968 179.5088 126.225975 176.82253 129.53969 176.82253C132.8534 176.82253 135.53969 179.5088 135.53969 182.82253Z" fill-rule="nonzero"/><path fill="#434343" clip-path="url(#id_0)" d="M143.5381 187.30571C143.5381 190.61942 140.8518 193.30571 137.5381 193.30571C134.22438 193.30571 131.5381 190.61942 131.5381 187.30571C131.5381 183.99199 134.22438 181.30571 137.5381 181.30571C140.8518 181.30571 143.5381 183.99199 143.5381 187.30571Z" fill-rule="nonzero"/><path fill="#434343" clip-path="url(#id_0)" d="M151.53651 196.94455C151.53651 200.25826 148.85022 202.94455 145.53651 202.94455C142.2228 202.94455 139.53651 200.25826 139.53651 196.94455C139.53651 193.63084 142.2228 190.94455 145.53651 190.94455C148.85022 190.94455 151.53651 193.63084 151.53651 196.94455Z" fill-rule="nonzero"/><path fill="#434343" clip-path="url(#id_0)" d="M159.53493 205.35051C159.53493 208.66423 156.84863 211.35051 153.53493 211.35051C150.2212 211.35051 147.53493 208.66423 147.53493 205.35051C147.53493 202.0368 150.2212 199.35051 153.53493 199.35051C156.84863 199.35051 159.53493 202.0368 159.53493 205.35051Z" fill-rule="nonzero"/><path fill="#434343" clip-path="url(#id_0)" d="M167.53334 215.15749C167.53334 218.47119 164.84705 221.15749 161.53334 221.15749C158.21962 221.15749 155.53334 218.47119 155.53334 215.15749C155.53334 211.84377 158.21962 209.15749 161.53334 209.15749C164.84705 209.15749 167.53334 211.84377 167.53334 215.15749Z" fill-rule="nonzero"/><path fill="#434343" clip-path="url(#id_0)" d="M175.53175 222.16246C175.53175 225.47617 172.84546 228.16246 169.53175 228.16246C166.21803 228.16246 163.53175 225.47617 163.53175 222.16246C163.53175 218.84874 166.21803 216.16246 169.53175 216.16246C172.84546 216.16246 175.53175 218.84874 175.53175 222.16246Z" fill-rule="nonzero"/><path fill="#434343" clip-path="url(#id_0)" d="M183.53015 222.49869C183.53015 225.81241 180.84387 228.49869 177.53015 228.49869C174.21645 228.49869 171.53015 225.81241 171.53015 222.49869C171.53015 219.18498 174.21645 216.49869 177.53015 216.49869C180.84387 216.49869 183.53015 219.18498 183.53015 222.49869Z" fill-rule="nonzero"/><path fill="#434343" clip-path="url(#id_0)" d="M191.52856 231.6612C191.52856 234.97491 188.84229 237.6612 185.52856 237.6612C182.21486 237.6612 179.52856 234.97491 179.52856 231.6612C179.52856 228.34749 182.21486 225.6612 185.52856 225.6612C188.84229 225.6612 191.52856 228.34749 191.52856 231.6612Z" fill-rule="nonzero"/><path fill="#434343" clip-path="url(#id_0)" d="M199.52698 233.65062C199.52698 236.96432 196.8407 239.65062 193.52698 239.65062C190.21327 239.65062 187.52698 236.96432 187.52698 233.65062C187.52698 230.3369 190.21327 227.65062 193.52698 227.65062C196.8407 227.65062 199.52698 230.3369 199.52698 233.65062Z" fill-rule="nonzero"/><path fill="#434343" clip-path="url(#id_0)" d="M207.52539 240.51549C207.52539 243.8292 204.83911 246.51549 201.52539 246.51549C198.21169 246.51549 195.52539 243.8292 195.52539 240.51549C195.52539 237.20178 198.21169 234.51549 201.52539 234.51549C204.83911 234.51549 207.52539 237.20178 207.52539 240.51549Z" fill-rule="nonzero"/><path fill="#434343" clip-path="url(#id_0)" d="M215.5238 242.47688C215.5238 245.79059 212.83752 248.47688 209.5238 248.47688C206.2101 248.47688 203.5238 245.79059 203.5238 242.47688C203.5238 239.16318 206.2101 236.47688 209.5238 236.47688C212.83752 236.47688 215.5238 239.16318 215.5238 242.47688Z" fill-rule="nonzero"/><path fill="#434343" clip-path="url(#id_0)" d="M223.52222 245.55907C223.52222 248.87277 220.83594 251.55907 217.52222 251.55907C214.20851 251.55907 211.52222 248.87277 211.52222 245.55907C211.52222 242.24536 214.20851 239.55907 217.52222 239.55907C220.83594 239.55907 223.52222 242.24536 223.52222 245.55907Z" fill-rule="nonzero"/><path fill="#434343" clip-path="url(#id_0)" d="M231.52063 248.78136C231.52063 252.09506 228.83435 254.78136 225.52063 254.78136C222.20692 254.78136 219.52063 252.09506 219.52063 248.78136C219.52063 245.46765 222.20692 242.78136 225.52063 242.78136C228.83435 242.78136 231.52063 245.46765 231.52063 248.78136Z" fill-rule="nonzero"/><path fill="#434343" clip-path="url(#id_0)" d="M239.51904 251.80751C239.51904 255.12122 236.83276 257.8075 233.51904 257.8075C230.20534 257.8075 227.51904 255.12122 227.51904 251.80751C227.51904 248.49379 230.20534 245.80751 233.51904 245.80751C236.83276 245.80751 239.51904 248.49379 239.51904 251.80751Z" fill-rule="nonzero"/><path fill="#434343" clip-path="url(#id_0)" d="M247.51746 263.3517C247.51746 266.6654 244.83116 269.3517 241.51746 269.3517C238.20375 269.3517 235.51746 266.6654 235.51746 263.3517C235.51746 260.038 238.20375 257.3517 241.51746 257.3517C244.83116 257.3517 247.51746 260.038 247.51746 263.3517Z" fill-rule="nonzero"/><path fill="#434343" clip-path="url(#id_0)" d="M255.51587 263.68793C255.51587 267.00165 252.82957 269.68793 249.51587 269.68793C246.20216 269.68793 243.51587 267.00165 243.51587 263.68793C243.51587 260.37424 246.20216 257.68793 249.51587 257.68793C252.82957 257.68793 255.51587 260.37424 255.51587 263.68793Z" fill-rule="nonzero"/><path fill="#434343" clip-path="url(#id_0)" d="M263.51428 270.6929C263.51428 274.00662 260.828 276.6929 257.51428 276.6929C254.20058 276.6929 251.51428 274.00662 251.51428 270.6929C251.51428 267.3792 254.20058 264.6929 257.51428 264.6929C260.828 264.6929 263.51428 267.3792 263.51428 270.6929Z" fill-rule="nonzero"/><path fill="#434343" clip-path="url(#id_0)" d="M271.5127 274.95193C271.5127 278.26566 268.82642 280.95193 265.5127 280.95193C262.199 280.95193 259.5127 278.26566 259.5127 274.95193C259.5127 271.63824 262.199 268.95193 265.5127 268.95193C268.82642 268.95193 271.5127 271.63824 271.5127 274.95193Z" fill-rule="nonzero"/><path fill="#434343" clip-path="url(#id_0)" d="M279.5111 275.4563C279.5111 278.77002 276.82483 281.4563 273.5111 281.4563C270.1974 281.4563 267.5111 278.77002 267.5111 275.4563C267.5111 272.14258 270.1974 269.4563 273.5111 269.4563C276.82483 269.4563 279.5111 272.14258 279.5111 275.4563Z" fill-rule="nonzero"/><path fill="#434343" clip-path="url(#id_0)" d="M287.50952 278.90274C287.50952 282.21646 284.82324 284.90274 281.50952 284.90274C278.1958 284.90274 275.50952 282.21646 275.50952 278.90274C275.50952 275.58905 278.1958 272.90274 281.50952 272.90274C284.82324 272.90274 287.50952 275.58905 287.50952 278.90274Z" fill-rule="nonzero"/><path fill="#434343" clip-path="url(#id_0)" d="M295.50793 281.00424C295.50793 284.31793 292.82166 287.00424 289.50793 287.00424C286.1942 287.00424 283.50793 284.31793 283.50793 281.00424C283.50793 277.69052 286.1942 275.00424 289.50793 275.00424C292.82166 275.00424 295.50793 277.69052 295.50793 281.00424Z" fill-rule="nonzero"/><path fill="#434343" clip-path="url(#id_0)" d="M303.50635 283.63812C303.50635 286.9518 300.82007 289.63812 297.50635 289.63812C294.19263 289.63812 291.50635 286.9518 291.50635 283.63812C291.50635 280.3244 294.19263 277.63812 297.50635 277.63812C300.82007 277.63812 303.50635 280.3244 303.50635 283.63812Z" fill-rule="nonzero"/><path fill="#434343" clip-path="url(#id_0)" d="M311.50476 285.2072C311.50476 288.52094 308.81848 291.2072 305.50476 291.2072C302.19104 291.2072 299.50476 288.52094 299.50476 285.2072C299.50476 281.89352 302.19104 279.2072 305.50476 279.2072C308.81848 279.2072 311.50476 281.89352 311.50476 285.2072Z" fill-rule="nonzero"/><path fill="#434343" clip-path="url(#id_0)" d="M319.50317 287.36475C319.50317 290.67847 316.8169 293.36475 313.50317 293.36475C310.18945 293.36475 307.50317 290.67847 307.50317 287.36475C307.50317 284.05106 310.18945 281.36475 313.50317 281.36475C316.8169 281.36475 319.50317 284.05106 319.50317 287.36475Z" fill-rule="nonzero"/><path fill="#434343" clip-path="url(#id_0)" d="M327.5016 287.8411C327.5016 291.15482 324.8153 293.8411 321.5016 293.8411C318.18787 293.8411 315.5016 291.15482 315.5016 287.8411C315.5016 284.52737 318.18787 281.8411 321.5016 281.8411C324.8153 281.8411 327.5016 284.52737 327.5016 287.8411Z" fill-rule="nonzero"/><path fill="#434343" clip-path="url(#id_0)" d="M335.5 289.41022C335.5 292.7239 332.81372 295.41022 329.5 295.41022C326.18628 295.41022 323.5 292.7239 323.5 289.41022C323.5 286.0965 326.18628 283.41022 329.5 283.41022C332.81372 283.41022 335.5 286.0965 335.5 289.41022Z" fill-rule="nonzero"/><path fill="#434343" clip-path="url(#id_0)" d="M343.4984 290.86725C343.4984 294.18094 340.81213 296.86725 337.4984 296.86725C334.1847 296.86725 331.4984 294.18094 331.4984 290.86725C331.4984 287.55353 334.1847 284.86725 337.4984 284.86725C340.81213 284.86725 343.4984 287.55353 343.4984 290.86725Z" fill-rule="nonzero"/><path fill="#434343" clip-path="url(#id_0)" d="M351.49683 292.32428C351.49683 295.63797 348.81055 298.32428 345.49683 298.32428C342.1831 298.32428 339.49683 295.63797 339.49683 292.32428C339.49683 289.01056 342.1831 286.32428 345.49683 286.32428C348.81055 286.32428 351.49683 289.01056 351.49683 292.32428Z" fill-rule="nonzero"/><path fill="#434343" clip-path="url(#id_0)" d="M359.49524 293.7533C359.49524 297.067 356.80896 299.7533 353.49524 299.7533C350.18152 299.7533 347.49524 297.067 347.49524 293.7533C347.49524 290.43958 350.18152 287.7533 353.49524 287.7533C356.80896 287.7533 359.49524 290.43958 359.49524 293.7533Z" fill-rule="nonzero"/><path fill="#434343" clip-path="url(#id_0)" d="M367.49365 295.0142C367.49365 298.32788 364.80737 301.0142 361.49365 301.0142C358.17993 301.0142 355.49365 298.32788 355.49365 295.0142C355.49365 291.70047 358.17993 289.0142 361.49365 289.0142C364.80737 289.0142 367.49365 291.70047 367.49365 295.0142Z" fill-rule="nonzero"/><path fill="#434343" clip-path="url(#id_0)" d="M375.49207 296.80746C375.49207 300.12115 372.8058 302.80746 369.49207 302.80746C366.17834 302.80746 363.49207 300.12115 363.49207 296.80746C363.49207 293.49374 366.17834 290.80746 369.49207 290.80746C372.8058 290.80746 375.49207 293.49374 375.49207 296.80746Z" fill-rule="nonzero"/><path fill="#434343" clip-path="url(#id_0)" d="M383.49048 297.92825C383.49048 301.24197 380.8042 303.92825 377.49048 303.92825C374.17676 303.92825 371.49048 301.24197 371.49048 297.92825C371.49048 294.61453 374.17676 291.92825 377.49048 291.92825C380.8042 291.92825 383.49048 294.61453 383.49048 297.92825Z" fill-rule="nonzero"/><path fill="#434343" clip-path="url(#id_0)" d="M391.4889 298.48865C391.4889 301.80237 388.8026 304.48865 385.4889 304.48865C382.17517 304.48865 379.4889 301.80237 379.4889 298.48865C379.4889 295.17496 382.17517 292.48865 385.4889 292.48865C388.8026 292.48865 391.4889 295.17496 391.4889 298.48865Z" fill-rule="nonzero"/><path fill="#434343" clip-path="url(#id_0)" d="M399.4873 303.42017C399.4873 306.73386 396.801 309.42017 393.4873 309.42017C390.17358 309.42017 387.4873 306.73386 387.4873 303.42017C387.4873 300.10645 390.17358 297.42017 393.4873 297.42017C396.801 297.42017 399.4873 300.10645 399.4873 303.42017Z" fill-rule="nonzero"/><path fill="#434343" clip-path="url(#id_0)" d="M407.48572 303.42017C407.48572 306.73386 404.7994 309.42017 401.48572 309.42017C398.172 309.42017 395.48572 306.73386 395.48572 303.42017C395.48572 300.10645 398.172 297.42017 401.48572 297.42017C404.7994 297.42017 407.48572 300.10645 407.48572 303.42017Z" fill-rule="nonzero"/><path fill="#434343" clip-path="url(#id_0)" d="M415.48413 303.42017C415.48413 306.73386 412.79782 309.42017 409.48413 309.42017C406.1704 309.42017 403.48413 306.73386 403.48413 303.42017C403.48413 300.10645 406.1704 297.42017 409.48413 297.42017C412.79782 297.42017 415.48413 300.10645 415.48413 303.42017Z" fill-rule="nonzero"/><path fill="#434343" clip-path="url(#id_0)" d="M423.48254 303.42017C423.48254 306.73386 420.79623 309.42017 417.48254 309.42017C414.16882 309.42017 411.48254 306.73386 411.48254 303.42017C411.48254 300.10645 414.16882 297.42017 417.48254 297.42017C420.79623 297.42017 423.48254 300.10645 423.48254 303.42017Z" fill-rule="nonzero"/><path fill="#434343" clip-path="url(#id_0)" d="M431.48096 303.42017C431.48096 306.73386 428.79465 309.42017 425.48096 309.42017C422.16724 309.42017 419.48096 306.73386 419.48096 303.42017C419.48096 300.10645 422.16724 297.42017 425.48096 297.42017C428.79465 297.42017 431.48096 300.10645 431.48096 303.42017Z" fill-rule="nonzero"/><path fill="#434343" clip-path="url(#id_0)" d="M439.47937 303.42017C439.47937 306.73386 436.79306 309.42017 433.47937 309.42017C430.16565 309.42017 427.47937 306.73386 427.47937 303.42017C427.47937 300.10645 430.16565 297.42017 433.47937 297.42017C436.79306 297.42017 439.47937 300.10645 439.47937 303.42017Z" fill-rule="nonzero"/><path fill="#434343" clip-path="url(#id_0)" d="M447.47778 303.42017C447.47778 306.73386 444.79147 309.42017 441.47778 309.42017C438.16406 309.42017 435.47778 306.73386 435.47778 303.42017C435.47778 300.10645 438.16406 297.42017 441.47778 297.42017C444.79147 297.42017 447.47778 300.10645 447.47778 303.42017Z" fill-rule="nonzero"/><path fill="#434343" clip-path="url(#id_0)" d="M455.4762 303.42017C455.4762 306.73386 452.7899 309.42017 449.4762 309.42017C446.16248 309.42017 443.4762 306.73386 443.4762 303.42017C443.4762 300.10645 446.16248 297.42017 449.4762 297.42017C452.7899 297.42017 455.4762 300.10645 455.4762 303.42017Z" fill-rule="nonzero"/><path fill="#434343" clip-path="url(#id_0)" d="M463.4746 310.25702C463.4746 313.5707 460.7883 316.25702 457.4746 316.25702C454.1609 316.25702 451.4746 313.5707 451.4746 310.25702C451.4746 306.9433 454.1609 304.25702 457.4746 304.25702C460.7883 304.25702 463.4746 306.9433 463.4746 310.25702Z" fill-rule="nonzero"/><path fill="#434343" clip-path="url(#id_0)" d="M471.47302 312.72275C471.47302 316.03647 468.7867 318.72275 465.47302 318.72275C462.1593 318.72275 459.47302 316.03647 459.47302 312.72275C459.47302 309.40906 462.1593 306.72275 465.47302 306.72275C468.7867 306.72275 471.47302 309.40906 471.47302 312.72275Z" fill-rule="nonzero"/><path fill="#434343" clip-path="url(#id_0)" d="M479.47144 323.37033C479.47144 326.68402 476.78513 329.37033 473.47144 329.37033C470.1577 329.37033 467.47144 326.68402 467.47144 323.37033C467.47144 320.0566 470.1577 317.37033 473.47144 317.37033C476.78513 317.37033 479.47144 320.0566 479.47144 323.37033Z" fill-rule="nonzero"/><path fill="#434343" clip-path="url(#id_0)" d="M487.46985 324.0428C487.46985 327.3565 484.78354 330.0428 481.46985 330.0428C478.15613 330.0428 475.46985 327.3565 475.46985 324.0428C475.46985 320.7291 478.15613 318.0428 481.46985 318.0428C484.78354 318.0428 487.46985 320.7291 487.46985 324.0428Z" fill-rule="nonzero"/><path fill="#434343" clip-path="url(#id_0)" d="M495.46826 325.83606C495.46826 329.14978 492.78195 331.83606 489.46826 331.83606C486.15454 331.83606 483.46826 329.14978 483.46826 325.83606C483.46826 322.52237 486.15454 319.83606 489.46826 319.83606C492.78195 319.83606 495.46826 322.52237 495.46826 325.83606Z" fill-rule="nonzero"/><path fill="#434343" clip-path="url(#id_0)" d="M503.46667 325.83606C503.46667 329.14978 500.78036 331.83606 497.46667 331.83606C494.15295 331.83606 491.46667 329.14978 491.46667 325.83606C491.46667 322.52237 494.15295 319.83606 497.46667 319.83606C500.78036 319.83606 503.46667 322.52237 503.46667 325.83606Z" fill-rule="nonzero"/><path fill="#434343" clip-path="url(#id_0)" d="M511.4651 325.83606C511.4651 329.14978 508.77878 331.83606 505.4651 331.83606C502.15137 331.83606 499.4651 329.14978 499.4651 325.83606C499.4651 322.52237 502.15137 319.83606 505.4651 319.83606C508.77878 319.83606 511.4651 322.52237 511.4651 325.83606Z" fill-rule="nonzero"/><path fill="#434343" clip-path="url(#id_0)" d="M519.4635 325.83606C519.4635 329.14978 516.7772 331.83606 513.4635 331.83606C510.14978 331.83606 507.4635 329.14978 507.4635 325.83606C507.4635 322.52237 510.14978 319.83606 513.4635 319.83606C516.7772 319.83606 519.4635 322.52237 519.4635 325.83606Z" fill-rule="nonzero"/><path fill="#434343" clip-path="url(#id_0)" d="M527.4619 325.83606C527.4619 329.14978 524.77563 331.83606 521.4619 331.83606C518.1482 331.83606 515.4619 329.14978 515.4619 325.83606C515.4619 322.52237 518.1482 319.83606 521.4619 319.83606C524.77563 319.83606 527.4619 322.52237 527.4619 325.83606Z" fill-rule="nonzero"/><path fill="#434343" clip-path="url(#id_0)" d="M535.4603 325.83606C535.4603 329.14978 532.77405 331.83606 529.4603 331.83606C526.1466 331.83606 523.4603 329.14978 523.4603 325.83606C523.4603 322.52237 526.1466 319.83606 529.4603 319.83606C532.77405 319.83606 535.4603 322.52237 535.4603 325.83606Z" fill-rule="nonzero"/><path fill="#434343" clip-path="url(#id_0)" d="M543.45874 325.83606C543.45874 329.14978 540.77246 331.83606 537.45874 331.83606C534.145 331.83606 531.45874 329.14978 531.45874 325.83606C531.45874 322.52237 534.145 319.83606 537.45874 319.83606C540.77246 319.83606 543.45874 322.52237 543.45874 325.83606Z" fill-rule="nonzero"/><path fill="#434343" clip-path="url(#id_0)" d="M551.45715 325.83606C551.45715 329.14978 548.7709 331.83606 545.45715 331.83606C542.14343 331.83606 539.45715 329.14978 539.45715 325.83606C539.45715 322.52237 542.14343 319.83606 545.45715 319.83606C548.7709 319.83606 551.45715 322.52237 551.45715 325.83606Z" fill-rule="nonzero"/><path fill="#434343" clip-path="url(#id_0)" d="M559.45557 335.92325C559.45557 339.23694 556.7693 341.92325 553.45557 341.92325C550.14185 341.92325 547.45557 339.23694 547.45557 335.92325C547.45557 332.60953 550.14185 329.92325 553.45557 329.92325C556.7693 329.92325 559.45557 332.60953 559.45557 335.92325Z" fill-rule="nonzero"/><path fill="#434343" clip-path="url(#id_0)" d="M567.454 337.04404C567.454 340.35773 564.7677 343.04404 561.454 343.04404C558.14026 343.04404 555.454 340.35773 555.454 337.04404C555.454 333.73032 558.14026 331.04404 561.454 331.04404C564.7677 331.04404 567.454 333.73032 567.454 337.04404Z" fill-rule="nonzero"/><path fill="#434343" clip-path="url(#id_0)" d="M575.4524 338.27692C575.4524 341.5906 572.7661 344.27692 569.4524 344.27692C566.1387 344.27692 563.4524 341.5906 563.4524 338.27692C563.4524 334.9632 566.1387 332.27692 569.4524 332.27692C572.7661 332.27692 575.4524 334.9632 575.4524 338.27692Z" fill-rule="nonzero"/><path fill="#434343" clip-path="url(#id_0)" d="M583.4508 343.43256C583.4508 346.74628 580.7645 349.43256 577.4508 349.43256C574.1371 349.43256 571.4508 346.74628 571.4508 343.43256C571.4508 340.11887 574.1371 337.43256 577.4508 337.43256C580.7645 337.43256 583.4508 340.11887 583.4508 343.43256Z" fill-rule="nonzero"/><path fill="#000000" d="M26.784388 219.13646L26.690638 218.07396Q27.346888 217.99583 27.753138 217.71458Q28.159388 217.43333 28.425013 216.85521Q28.675013 216.26146 28.675013 215.52708Q28.675013 214.88646 28.487513 214.38646Q28.284388 213.88646 27.956263 213.65208Q27.612513 213.40208 27.221888 213.40208Q26.815638 213.40208 26.518763 213.63646Q26.206263 213.87083 26.003138 214.40208Q25.862513 214.76146 25.581263 215.94896Q25.300013 217.12083 25.050013 217.58958Q24.721888 218.21458 24.253138 218.51146Q23.768763 218.80833 23.175013 218.80833Q22.534388 218.80833 21.971888 218.44896Q21.393763 218.07396 21.112513 217.37083Q20.815638 216.65208 20.815638 215.79271Q20.815638 214.83958 21.128138 214.10521Q21.425013 213.37083 22.034388 212.98021Q22.628138 212.58958 23.378138 212.55833L23.456263 213.65208Q22.643763 213.74583 22.237513 214.26146Q21.815638 214.76146 21.815638 215.74583Q21.815638 216.77708 22.190638 217.24583Q22.565638 217.71458 23.096888 217.71458Q23.565638 217.71458 23.862513 217.38646Q24.159388 217.05833 24.471888 215.68333Q24.784388 214.29271 25.018763 213.77708Q25.378138 213.02708 25.909388 212.66771Q26.425013 212.30833 27.128138 212.30833Q27.815638 212.30833 28.425013 212.69896Q29.018763 213.08958 29.362513 213.82396Q29.690638 214.55833 29.690638 215.48021Q29.690638 216.65208 29.362513 217.44896Q29.018763 218.23021 28.331263 218.68333Q27.643763 219.12083 26.784388 219.13646ZM27.268763 206.82396L27.409388 205.79271Q28.471888 205.96458 29.081263 206.66771Q29.690638 207.37083 29.690638 208.38646Q29.690638 209.66771 28.862513 210.44896Q28.018763 211.21458 26.456263 211.21458Q25.456263 211.21458 24.706263 210.88646Q23.940638 210.54271 23.565638 209.87083Q23.190638 209.18333 23.190638 208.37083Q23.190638 207.37083 23.706263 206.73021Q24.206263 206.07396 25.159388 205.88646L25.315638 206.91771Q24.690638 207.05833 24.378138 207.43333Q24.050013 207.80833 24.050013 208.33958Q24.050013 209.13646 24.628138 209.63646Q25.190638 210.13646 26.425013 210.13646Q27.690638 210.13646 28.253138 209.65208Q28.815638 209.16771 28.815638 208.40208Q28.815638 207.77708 28.440638 207.37083Q28.065638 206.94896 27.268763 206.82396ZM26.440638 205.27708Q24.706263 205.27708 23.878138 204.32396Q23.190638 203.52708 23.190638 202.37083Q23.190638 201.08958 24.034388 200.27708Q24.862513 199.44896 26.346888 199.44896Q27.550013 199.44896 28.237513 199.80833Q28.925013 200.16771 29.315638 200.87083Q29.690638 201.55833 29.690638 202.37083Q29.690638 203.66771 28.862513 204.48021Q28.018763 205.27708 26.440638 205.27708ZM26.440638 204.19896Q27.628138 204.19896 28.221888 203.68333Q28.815638 203.15208 28.815638 202.37083Q28.815638 201.57396 28.221888 201.05833Q27.628138 200.54271 26.409388 200.54271Q25.253138 200.54271 24.659388 201.07396Q24.065638 201.58958 24.065638 202.37083Q24.065638 203.15208 24.659388 203.68333Q25.237513 204.19896 26.440638 204.19896ZM29.550013 197.90208L23.331263 197.90208L23.331263 196.94896L24.268763 196.94896Q23.612513 196.58958 23.409388 196.29271Q23.190638 195.98021 23.190638 195.60521Q23.190638 195.07396 23.518763 194.52708L24.503138 194.88646Q24.268763 195.27708 24.268763 195.65208Q24.268763 196.01146 24.487513 196.29271Q24.690638 196.55833 25.065638 196.66771Q25.628138 196.85521 26.284388 196.85521L29.550013 196.85521L29.550013 197.90208ZM27.550013 189.63646L27.675013 188.54271Q28.628138 188.79271 29.159388 189.49583Q29.690638 190.19896 29.690638 191.27708Q29.690638 192.63646 28.846888 193.44896Q28.003138 194.24583 26.487513 194.24583Q24.925013 194.24583 24.065638 193.43333Q23.190638 192.62083 23.190638 191.33958Q23.190638 190.08958 24.034388 189.30833Q24.878138 188.51146 26.425013 188.51146Q26.518763 188.51146 26.706263 188.51146L26.706263 193.15208Q27.737513 193.08958 28.284388 192.57396Q28.815638 192.05833 28.815638 191.27708Q28.815638 190.69896 28.518763 190.29271Q28.206263 189.87083 27.550013 189.63646ZM25.846888 193.08958L25.846888 189.62083Q25.050013 189.68333 24.659388 190.01146Q24.050013 190.52708 24.050013 191.32396Q24.050013 192.05833 24.534388 192.55833Q25.018763 193.04271 25.846888 193.08958Z" fill-rule="nonzero"/><path fill="#000000" d="M65.05 345.21564Q65.05 343.6844 65.3625 342.7625Q65.675 341.825 66.28438 341.325Q66.90938 340.825 67.84688 340.825Q68.53438 340.825 69.05 341.10626Q69.58125 341.3875 69.925 341.91876Q70.26875 342.4344 70.45625 343.1844Q70.64375 343.9344 70.64375 345.21564Q70.64375 346.73126 70.33125 347.65314Q70.03438 348.575 69.40938 349.09064Q68.8 349.59064 67.84688 349.59064Q66.6125 349.59064 65.89375 348.7Q65.05 347.6375 65.05 345.21564ZM66.12813 345.21564Q66.12813 347.325 66.62813 348.02814Q67.12813 348.73126 67.84688 348.73126Q68.58125 348.73126 69.06563 348.02814Q69.56563 347.325 69.56563 345.21564Q69.56563 343.09064 69.06563 342.40314Q68.58125 341.7 67.83125 341.7Q67.1125 341.7 66.675 342.3094Q66.12813 343.09064 66.12813 345.21564Z" fill-rule="nonzero"/><path fill="#000000" d="M63.596874 320.4145L63.596874 321.4301L57.909374 321.4301Q57.909374 321.0551 58.034374 320.69574Q58.253124 320.1176 58.721874 319.5551Q59.20625 318.9926 60.1125 318.25824Q61.51875 317.102 62.003124 316.4301Q62.503124 315.75824 62.503124 315.1645Q62.503124 314.5395 62.05 314.1176Q61.596874 313.6801 60.878124 313.6801Q60.1125 313.6801 59.659374 314.13324Q59.20625 314.58636 59.190624 315.39886L58.1125 315.2895Q58.221874 314.07074 58.940624 313.44574Q59.675 312.8051 60.909374 312.8051Q62.14375 312.8051 62.8625 313.4926Q63.58125 314.1801 63.58125 315.19574Q63.58125 315.71136 63.3625 316.21136Q63.159374 316.69574 62.659374 317.25824Q62.175 317.8051 61.05 318.75824Q60.096874 319.5551 59.815624 319.852Q59.55 320.13324 59.378124 320.4145L63.596874 320.4145ZM65.05 317.19574Q65.05 315.6645 65.3625 314.7426Q65.675 313.8051 66.28438 313.3051Q66.90938 312.8051 67.84688 312.8051Q68.53438 312.8051 69.05 313.08636Q69.58125 313.3676 69.925 313.89886Q70.26875 314.4145 70.45625 315.1645Q70.64375 315.9145 70.64375 317.19574Q70.64375 318.71136 70.33125 319.63324Q70.03438 320.5551 69.40938 321.07074Q68.8 321.57074 67.84688 321.57074Q66.6125 321.57074 65.89375 320.6801Q65.05 319.6176 65.05 317.19574ZM66.12813 317.19574Q66.12813 319.3051 66.62813 320.00824Q67.12813 320.71136 67.84688 320.71136Q68.58125 320.71136 69.06563 320.00824Q69.56563 319.3051 69.56563 317.19574Q69.56563 315.07074 69.06563 314.38324Q68.58125 313.6801 67.83125 313.6801Q67.1125 313.6801 66.675 314.2895Q66.12813 315.07074 66.12813 317.19574Z" fill-rule="nonzero"/><path fill="#000000" d="M61.425 293.41022L61.425 291.34772L57.70625 291.34772L57.70625 290.37897L61.628124 284.81647L62.4875 284.81647L62.4875 290.37897L63.64375 290.37897L63.64375 291.34772L62.4875 291.34772L62.4875 293.41022L61.425 293.41022ZM61.425 290.37897L61.425 286.5196L58.7375 290.37897L61.425 290.37897ZM65.05 289.17584Q65.05 287.6446 65.3625 286.72272Q65.675 285.78522 66.28438 285.28522Q66.90938 284.78522 67.84688 284.78522Q68.53438 284.78522 69.05 285.06647Q69.58125 285.34772 69.925 285.87897Q70.26875 286.3946 70.45625 287.1446Q70.64375 287.8946 70.64375 289.17584Q70.64375 290.69147 70.33125 291.61334Q70.03438 292.53522 69.40938 293.05084Q68.8 293.55084 67.84688 293.55084Q66.6125 293.55084 65.89375 292.66022Q65.05 291.59772 65.05 289.17584ZM66.12813 289.17584Q66.12813 291.28522 66.62813 291.98834Q67.12813 292.69147 67.84688 292.69147Q68.58125 292.69147 69.06563 291.98834Q69.56563 291.28522 69.56563 289.17584Q69.56563 287.05084 69.06563 286.36334Q68.58125 285.66022 67.83125 285.66022Q67.1125 285.66022 66.675 286.2696Q66.12813 287.05084 66.12813 289.17584Z" fill-rule="nonzero"/><path fill="#000000" d="M63.51875 258.90594L62.471874 258.98407Q62.33125 258.35907 62.08125 258.07782Q61.64375 257.6247 61.01875 257.6247Q60.51875 257.6247 60.128124 257.90594Q59.64375 258.28094 59.346874 258.98407Q59.065624 259.67157 59.05 260.95282Q59.425 260.3747 59.971874 260.09344Q60.534374 259.8122 61.14375 259.8122Q62.190624 259.8122 62.925 260.59344Q63.675 261.3747 63.675 262.59344Q63.675 263.40594 63.315624 264.10907Q62.971874 264.79657 62.3625 265.17157Q61.753124 265.53094 60.9875 265.53094Q59.659374 265.53094 58.83125 264.5622Q58.003124 263.59344 58.003124 261.3747Q58.003124 258.8747 58.925 257.7497Q59.721874 256.76532 61.08125 256.76532Q62.096874 256.76532 62.7375 257.34344Q63.39375 257.90594 63.51875 258.90594ZM59.221874 262.60907Q59.221874 263.15594 59.440624 263.65594Q59.675 264.14032 60.08125 264.40594Q60.503124 264.67157 60.971874 264.67157Q61.628124 264.67157 62.1125 264.14032Q62.596874 263.59344 62.596874 262.67157Q62.596874 261.78094 62.1125 261.26532Q61.64375 260.7497 60.925 260.7497Q60.20625 260.7497 59.70625 261.26532Q59.221874 261.78094 59.221874 262.60907ZM65.05 261.15594Q65.05 259.6247 65.3625 258.70282Q65.675 257.76532 66.28438 257.26532Q66.90938 256.76532 67.84688 256.76532Q68.53438 256.76532 69.05 257.04657Q69.58125 257.32782 69.925 257.85907Q70.26875 258.3747 70.45625 259.1247Q70.64375 259.8747 70.64375 261.15594Q70.64375 262.67157 70.33125 263.59344Q70.03438 264.51532 69.40938 265.03094Q68.8 265.53094 67.84688 265.53094Q66.6125 265.53094 65.89375 264.64032Q65.05 263.57782 65.05 261.15594ZM66.12813 261.15594Q66.12813 263.26532 66.62813 263.96844Q67.12813 264.67157 67.84688 264.67157Q68.58125 264.67157 69.06563 263.96844Q69.56563 263.26532 69.56563 261.15594Q69.56563 259.03094 69.06563 258.34344Q68.58125 257.64032 67.83125 257.64032Q67.1125 257.64032 66.675 258.2497Q66.12813 259.03094 66.12813 261.15594Z" fill-rule="nonzero"/><path fill="#000000" d="M59.675 232.71416Q59.01875 232.46416 58.690624 232.02666Q58.378124 231.57353 58.378124 230.96416Q58.378124 230.02666 59.05 229.38603Q59.7375 228.7454 60.846874 228.7454Q61.971874 228.7454 62.659374 229.40166Q63.346874 230.0579 63.346874 230.9954Q63.346874 231.58916 63.034374 232.02666Q62.721874 232.46416 62.08125 232.71416Q62.878124 232.96416 63.284374 233.54228Q63.690624 234.1204 63.690624 234.91728Q63.690624 236.01103 62.909374 236.76103Q62.14375 237.51103 60.8625 237.51103Q59.596874 237.51103 58.815624 236.76103Q58.034374 236.01103 58.034374 234.88603Q58.034374 234.04228 58.45625 233.47978Q58.89375 232.91728 59.675 232.71416ZM59.45625 230.91728Q59.45625 231.52666 59.846874 231.91728Q60.253124 232.3079 60.878124 232.3079Q61.4875 232.3079 61.878124 231.9329Q62.26875 231.54228 62.26875 230.97978Q62.26875 230.40166 61.8625 230.01103Q61.45625 229.60478 60.8625 229.60478Q60.253124 229.60478 59.846874 229.9954Q59.45625 230.38603 59.45625 230.91728ZM59.128124 234.88603Q59.128124 235.33916 59.33125 235.76103Q59.55 236.1829 59.971874 236.41728Q60.39375 236.65166 60.878124 236.65166Q61.628124 236.65166 62.1125 236.16728Q62.6125 235.6829 62.6125 234.9329Q62.6125 234.16728 62.1125 233.66728Q61.6125 233.16728 60.846874 233.16728Q60.096874 233.16728 59.6125 233.66728Q59.128124 234.15166 59.128124 234.88603ZM65.05 233.13603Q65.05 231.60478 65.3625 230.6829Q65.675 229.7454 66.28438 229.2454Q66.90938 228.7454 67.84688 228.7454Q68.53438 228.7454 69.05 229.02666Q69.58125 229.3079 69.925 229.83916Q70.26875 230.35478 70.45625 231.10478Q70.64375 231.85478 70.64375 233.13603Q70.64375 234.65166 70.33125 235.57353Q70.03438 236.4954 69.40938 237.01103Q68.8 237.51103 67.84688 237.51103Q66.6125 237.51103 65.89375 236.6204Q65.05 235.5579 65.05 233.13603ZM66.12813 233.13603Q66.12813 235.2454 66.62813 235.94853Q67.12813 236.65166 67.84688 236.65166Q68.58125 236.65166 69.06563 235.94853Q69.56563 235.2454 69.56563 233.13603Q69.56563 231.01103 69.06563 230.32353Q68.58125 229.6204 67.83125 229.6204Q67.1125 229.6204 66.675 230.22978Q66.12813 231.01103 66.12813 233.13603Z" fill-rule="nonzero"/><path fill="#000000" d="M55.01875 209.35051L53.971874 209.35051L53.971874 202.63176Q53.58125 202.99113 52.95625 203.36613Q52.346874 203.72551 51.8625 203.89738L51.8625 202.88176Q52.7375 202.45988 53.39375 201.88176Q54.065624 201.28801 54.346874 200.72551L55.01875 200.72551L55.01875 209.35051ZM58.05 205.11613Q58.05 203.58488 58.3625 202.66301Q58.675 201.72551 59.284374 201.22551Q59.909374 200.72551 60.846874 200.72551Q61.534374 200.72551 62.05 201.00676Q62.58125 201.28801 62.925 201.81926Q63.26875 202.33488 63.45625 203.08488Q63.64375 203.83488 63.64375 205.11613Q63.64375 206.63176 63.33125 207.55363Q63.034374 208.47551 62.409374 208.99113Q61.8 209.49113 60.846874 209.49113Q59.6125 209.49113 58.89375 208.60051Q58.05 207.53801 58.05 205.11613ZM59.128124 205.11613Q59.128124 207.22551 59.628124 207.92863Q60.128124 208.63176 60.846874 208.63176Q61.58125 208.63176 62.065624 207.92863Q62.565624 207.22551 62.565624 205.11613Q62.565624 202.99113 62.065624 202.30363Q61.58125 201.60051 60.83125 201.60051Q60.1125 201.60051 59.675 202.20988Q59.128124 202.99113 59.128124 205.11613ZM65.05 205.11613Q65.05 203.58488 65.3625 202.66301Q65.675 201.72551 66.28438 201.22551Q66.90938 200.72551 67.84688 200.72551Q68.53438 200.72551 69.05 201.00676Q69.58125 201.28801 69.925 201.81926Q70.26875 202.33488 70.45625 203.08488Q70.64375 203.83488 70.64375 205.11613Q70.64375 206.63176 70.33125 207.55363Q70.03438 208.47551 69.40938 208.99113Q68.8 209.49113 67.84688 209.49113Q66.6125 209.49113 65.89375 208.60051Q65.05 207.53801 65.05 205.11613ZM66.12813 205.11613Q66.12813 207.22551 66.62813 207.92863Q67.12813 208.63176 67.84688 208.63176Q68.58125 208.63176 69.06563 207.92863Q69.56563 207.22551 69.56563 205.11613Q69.56563 202.99113 69.06563 202.30363Q68.58125 201.60051 67.83125 201.60051Q67.1125 201.60051 66.675 202.20988Q66.12813 202.99113 66.12813 205.11613Z" fill-rule="nonzero"/><path fill="#000000" d="M55.01875 181.33063L53.971874 181.33063L53.971874 174.61188Q53.58125 174.97125 52.95625 175.34625Q52.346874 175.70563 51.8625 175.8775L51.8625 174.86188Q52.7375 174.44 53.39375 173.86188Q54.065624 173.26813 54.346874 172.70563L55.01875 172.70563L55.01875 181.33063ZM63.596874 180.315L63.596874 181.33063L57.909374 181.33063Q57.909374 180.95563 58.034374 180.59625Q58.253124 180.01813 58.721874 179.45563Q59.20625 178.89313 60.1125 178.15875Q61.51875 177.0025 62.003124 176.33063Q62.503124 175.65875 62.503124 175.065Q62.503124 174.44 62.05 174.01813Q61.596874 173.58063 60.878124 173.58063Q60.1125 173.58063 59.659374 174.03375Q59.20625 174.48688 59.190624 175.29938L58.1125 175.19Q58.221874 173.97125 58.940624 173.34625Q59.675 172.70563 60.909374 172.70563Q62.14375 172.70563 62.8625 173.39313Q63.58125 174.08063 63.58125 175.09625Q63.58125 175.61188 63.3625 176.11188Q63.159374 176.59625 62.659374 177.15875Q62.175 177.70563 61.05 178.65875Q60.096874 179.45563 59.815624 179.7525Q59.55 180.03375 59.378124 180.315L63.596874 180.315ZM65.05 177.09625Q65.05 175.565 65.3625 174.64313Q65.675 173.70563 66.28438 173.20563Q66.90938 172.70563 67.84688 172.70563Q68.53438 172.70563 69.05 172.98688Q69.58125 173.26813 69.925 173.79938Q70.26875 174.315 70.45625 175.065Q70.64375 175.815 70.64375 177.09625Q70.64375 178.61188 70.33125 179.53375Q70.03438 180.45563 69.40938 180.97125Q68.8 181.47125 67.84688 181.47125Q66.6125 181.47125 65.89375 180.58063Q65.05 179.51813 65.05 177.09625ZM66.12813 177.09625Q66.12813 179.20563 66.62813 179.90875Q67.12813 180.61188 67.84688 180.61188Q68.58125 180.61188 69.06563 179.90875Q69.56563 179.20563 69.56563 177.09625Q69.56563 174.97125 69.06563 174.28375Q68.58125 173.58063 67.83125 173.58063Q67.1125 173.58063 66.675 174.19Q66.12813 174.97125 66.12813 177.09625Z" fill-rule="nonzero"/><path fill="#000000" d="M55.01875 153.31073L53.971874 153.31073L53.971874 146.59198Q53.58125 146.95135 52.95625 147.32635Q52.346874 147.68573 51.8625 147.8576L51.8625 146.84198Q52.7375 146.4201 53.39375 145.84198Q54.065624 145.24823 54.346874 144.68573L55.01875 144.68573L55.01875 153.31073ZM61.425 153.31073L61.425 151.24823L57.70625 151.24823L57.70625 150.27948L61.628124 144.71698L62.4875 144.71698L62.4875 150.27948L63.64375 150.27948L63.64375 151.24823L62.4875 151.24823L62.4875 153.31073L61.425 153.31073ZM61.425 150.27948L61.425 146.4201L58.7375 150.27948L61.425 150.27948ZM65.05 149.07635Q65.05 147.5451 65.3625 146.62323Q65.675 145.68573 66.28438 145.18573Q66.90938 144.68573 67.84688 144.68573Q68.53438 144.68573 69.05 144.96698Q69.58125 145.24823 69.925 145.77948Q70.26875 146.2951 70.45625 147.0451Q70.64375 147.7951 70.64375 149.07635Q70.64375 150.59198 70.33125 151.51385Q70.03438 152.43573 69.40938 152.95135Q68.8 153.45135 67.84688 153.45135Q66.6125 153.45135 65.89375 152.56073Q65.05 151.49823 65.05 149.07635ZM66.12813 149.07635Q66.12813 151.18573 66.62813 151.88885Q67.12813 152.59198 67.84688 152.59198Q68.58125 152.59198 69.06563 151.88885Q69.56563 151.18573 69.56563 149.07635Q69.56563 146.95135 69.06563 146.26385Q68.58125 145.56073 67.83125 145.56073Q67.1125 145.56073 66.675 146.1701Q66.12813 146.95135 66.12813 149.07635Z" fill-rule="nonzero"/><path fill="#000000" d="M55.01875 125.290825L53.971874 125.290825L53.971874 118.572075Q53.58125 118.93145 52.95625 119.30645Q52.346874 119.665825 51.8625 119.8377L51.8625 118.822075Q52.7375 118.4002 53.39375 117.822075Q54.065624 117.228325 54.346874 116.665825L55.01875 116.665825L55.01875 125.290825ZM63.51875 118.80645L62.471874 118.884575Q62.33125 118.259575 62.08125 117.978325Q61.64375 117.5252 61.01875 117.5252Q60.51875 117.5252 60.128124 117.80645Q59.64375 118.18145 59.346874 118.884575Q59.065624 119.572075 59.05 120.853325Q59.425 120.2752 59.971874 119.99395Q60.534374 119.7127 61.14375 119.7127Q62.190624 119.7127 62.925 120.49395Q63.675 121.2752 63.675 122.49395Q63.675 123.30645 63.315624 124.009575Q62.971874 124.697075 62.3625 125.072075Q61.753124 125.43145 60.9875 125.43145Q59.659374 125.43145 58.83125 124.4627Q58.003124 123.49395 58.003124 121.2752Q58.003124 118.7752 58.925 117.6502Q59.721874 116.665825 61.08125 116.665825Q62.096874 116.665825 62.7375 117.24395Q63.39375 117.80645 63.51875 118.80645ZM59.221874 122.509575Q59.221874 123.05645 59.440624 123.55645Q59.675 124.040825 60.08125 124.30645Q60.503124 124.572075 60.971874 124.572075Q61.628124 124.572075 62.1125 124.040825Q62.596874 123.49395 62.596874 122.572075Q62.596874 121.68145 62.1125 121.165825Q61.64375 120.6502 60.925 120.6502Q60.20625 120.6502 59.70625 121.165825Q59.221874 121.68145 59.221874 122.509575ZM65.05 121.05645Q65.05 119.5252 65.3625 118.603325Q65.675 117.665825 66.28438 117.165825Q66.90938 116.665825 67.84688 116.665825Q68.53438 116.665825 69.05 116.947075Q69.58125 117.228325 69.925 117.759575Q70.26875 118.2752 70.45625 119.0252Q70.64375 119.7752 70.64375 121.05645Q70.64375 122.572075 70.33125 123.49395Q70.03438 124.415825 69.40938 124.93145Q68.8 125.43145 67.84688 125.43145Q66.6125 125.43145 65.89375 124.540825Q65.05 123.478325 65.05 121.05645ZM66.12813 121.05645Q66.12813 123.165825 66.62813 123.86895Q67.12813 124.572075 67.84688 124.572075Q68.58125 124.572075 69.06563 123.86895Q69.56563 123.165825 69.56563 121.05645Q69.56563 118.93145 69.06563 118.24395Q68.58125 117.540825 67.83125 117.540825Q67.1125 117.540825 66.675 118.1502Q66.12813 118.93145 66.12813 121.05645Z" fill-rule="nonzero"/><path fill="#000000" d="M55.01875 97.27093L53.971874 97.27093L53.971874 90.55218Q53.58125 90.91155 52.95625 91.28655Q52.346874 91.64593 51.8625 91.8178L51.8625 90.80218Q52.7375 90.3803 53.39375 89.80218Q54.065624 89.20843 54.346874 88.64593L55.01875 88.64593L55.01875 97.27093ZM59.675 92.61468Q59.01875 92.36468 58.690624 91.92718Q58.378124 91.47405 58.378124 90.86468Q58.378124 89.92718 59.05 89.28655Q59.7375 88.64593 60.846874 88.64593Q61.971874 88.64593 62.659374 89.30218Q63.346874 89.95843 63.346874 90.89593Q63.346874 91.48968 63.034374 91.92718Q62.721874 92.36468 62.08125 92.61468Q62.878124 92.86468 63.284374 93.4428Q63.690624 94.02093 63.690624 94.8178Q63.690624 95.91155 62.909374 96.66155Q62.14375 97.41155 60.8625 97.41155Q59.596874 97.41155 58.815624 96.66155Q58.034374 95.91155 58.034374 94.78655Q58.034374 93.9428 58.45625 93.3803Q58.89375 92.8178 59.675 92.61468ZM59.45625 90.8178Q59.45625 91.42718 59.846874 91.8178Q60.253124 92.20843 60.878124 92.20843Q61.4875 92.20843 61.878124 91.83343Q62.26875 91.4428 62.26875 90.8803Q62.26875 90.30218 61.8625 89.91155Q61.45625 89.5053 60.8625 89.5053Q60.253124 89.5053 59.846874 89.89593Q59.45625 90.28655 59.45625 90.8178ZM59.128124 94.78655Q59.128124 95.23968 59.33125 95.66155Q59.55 96.08343 59.971874 96.3178Q60.39375 96.55218 60.878124 96.55218Q61.628124 96.55218 62.1125 96.0678Q62.6125 95.58343 62.6125 94.83343Q62.6125 94.0678 62.1125 93.5678Q61.6125 93.0678 60.846874 93.0678Q60.096874 93.0678 59.6125 93.5678Q59.128124 94.05218 59.128124 94.78655ZM65.05 93.03655Q65.05 91.5053 65.3625 90.58343Q65.675 89.64593 66.28438 89.14593Q66.90938 88.64593 67.84688 88.64593Q68.53438 88.64593 69.05 88.92718Q69.58125 89.20843 69.925 89.73968Q70.26875 90.2553 70.45625 91.0053Q70.64375 91.7553 70.64375 93.03655Q70.64375 94.55218 70.33125 95.47405Q70.03438 96.39593 69.40938 96.91155Q68.8 97.41155 67.84688 97.41155Q66.6125 97.41155 65.89375 96.52093Q65.05 95.45843 65.05 93.03655ZM66.12813 93.03655Q66.12813 95.14593 66.62813 95.84905Q67.12813 96.55218 67.84688 96.55218Q68.58125 96.55218 69.06563 95.84905Q69.56563 95.14593 69.56563 93.03655Q69.56563 90.91155 69.06563 90.22405Q68.58125 89.52093 67.83125 89.52093Q67.1125 89.52093 66.675 90.1303Q66.12813 90.91155 66.12813 93.03655Z" fill-rule="nonzero"/><path fill="#000000" d="M56.596874 68.23541L56.596874 69.25104L50.909374 69.25104Q50.909374 68.87604 51.034374 68.51666Q51.253124 67.93854 51.721874 67.37604Q52.20625 66.81354 53.1125 66.07916Q54.51875 64.92291 55.003124 64.25104Q55.503124 63.579163 55.503124 62.985413Q55.503124 62.360413 55.05 61.938538Q54.596874 61.501038 53.878124 61.501038Q53.1125 61.501038 52.659374 61.954163Q52.20625 62.407288 52.190624 63.219788L51.1125 63.110413Q51.221874 61.891663 51.940624 61.266663Q52.675 60.626038 53.909374 60.626038Q55.14375 60.626038 55.8625 61.313538Q56.58125 62.001038 56.58125 63.016663Q56.58125 63.532288 56.3625 64.03229Q56.159374 64.51666 55.659374 65.07916Q55.175 65.62604 54.05 66.57916Q53.096874 67.37604 52.815624 67.67291Q52.55 67.95416 52.378124 68.23541L56.596874 68.23541ZM58.05 65.01666Q58.05 63.485413 58.3625 62.563538Q58.675 61.626038 59.284374 61.126038Q59.909374 60.626038 60.846874 60.626038Q61.534374 60.626038 62.05 60.907288Q62.58125 61.188538 62.925 61.719788Q63.26875 62.235413 63.45625 62.985413Q63.64375 63.735413 63.64375 65.01666Q63.64375 66.53229 63.33125 67.45416Q63.034374 68.37604 62.409374 68.89166Q61.8 69.39166 60.846874 69.39166Q59.6125 69.39166 58.89375 68.50104Q58.05 67.43854 58.05 65.01666ZM59.128124 65.01666Q59.128124 67.12604 59.628124 67.82916Q60.128124 68.53229 60.846874 68.53229Q61.58125 68.53229 62.065624 67.82916Q62.565624 67.12604 62.565624 65.01666Q62.565624 62.891663 62.065624 62.204163Q61.58125 61.501038 60.83125 61.501038Q60.1125 61.501038 59.675 62.110413Q59.128124 62.891663 59.128124 65.01666ZM65.05 65.01666Q65.05 63.485413 65.3625 62.563538Q65.675 61.626038 66.28438 61.126038Q66.90938 60.626038 67.84688 60.626038Q68.53438 60.626038 69.05 60.907288Q69.58125 61.188538 69.925 61.719788Q70.26875 62.235413 70.45625 62.985413Q70.64375 63.735413 70.64375 65.01666Q70.64375 66.53229 70.33125 67.45416Q70.03438 68.37604 69.40938 68.89166Q68.8 69.39166 67.84688 69.39166Q66.6125 69.39166 65.89375 68.50104Q65.05 67.43854 65.05 65.01666ZM66.12813 65.01666Q66.12813 67.12604 66.62813 67.82916Q67.12813 68.53229 67.84688 68.53229Q68.58125 68.53229 69.06563 67.82916Q69.56563 67.12604 69.56563 65.01666Q69.56563 62.891663 69.06563 62.204163Q68.58125 61.501038 67.83125 61.501038Q67.1125 61.501038 66.675 62.110413Q66.12813 62.891663 66.12813 65.01666Z" fill-rule="nonzero"/><path fill="#757575" d="M23.7375 37.55L23.7375 24.925L19.01875 24.925L19.01875 23.2375L30.3625 23.2375L30.3625 24.925L25.628124 24.925L25.628124 37.55L23.7375 37.55ZM31.221874 32.3625Q31.221874 29.4875 32.815624 28.096874Q34.159374 26.940624 36.08125 26.940624Q38.221874 26.940624 39.565624 28.346874Q40.925 29.753124 40.925 32.221874Q40.925 34.221874 40.33125 35.378124Q39.7375 36.51875 38.58125 37.159374Q37.440624 37.784374 36.08125 37.784374Q33.89375 37.784374 32.55 36.39375Q31.221874 34.9875 31.221874 32.3625ZM33.01875 32.3625Q33.01875 34.3625 33.878124 35.346874Q34.753124 36.33125 36.08125 36.33125Q37.39375 36.33125 38.253124 35.346874Q39.128124 34.346874 39.128124 32.3Q39.128124 30.378124 38.253124 29.39375Q37.378124 28.39375 36.08125 28.39375Q34.753124 28.39375 33.878124 29.39375Q33.01875 30.378124 33.01875 32.3625ZM46.70625 35.971874L46.95625 37.534374Q46.221874 37.690624 45.628124 37.690624Q44.675 37.690624 44.14375 37.39375Q43.628124 37.08125 43.409374 36.596874Q43.190624 36.096874 43.190624 34.51875L43.190624 28.55L41.909374 28.55L41.909374 27.175L43.190624 27.175L43.190624 24.6125L44.940624 23.55L44.940624 27.175L46.70625 27.175L46.70625 28.55L44.940624 28.55L44.940624 34.6125Q44.940624 35.3625 45.034374 35.58125Q45.128124 35.784374 45.33125 35.925Q45.55 36.05 45.940624 36.05Q46.221874 36.05 46.70625 35.971874ZM55.64375 36.26875Q54.659374 37.096874 53.753124 37.440624Q52.846874 37.784374 51.815624 37.784374Q50.1125 37.784374 49.190624 36.95625Q48.26875 36.1125 48.26875 34.815624Q48.26875 34.05 48.6125 33.425Q48.971874 32.8 49.534374 32.425Q50.096874 32.034374 50.8 31.83125Q51.315624 31.70625 52.3625 31.565624Q54.4875 31.315624 55.4875 30.971874Q55.503124 30.6125 55.503124 30.503124Q55.503124 29.440624 55.003124 28.9875Q54.33125 28.39375 53.003124 28.39375Q51.753124 28.39375 51.159374 28.83125Q50.58125 29.26875 50.3 30.378124L48.58125 30.14375Q48.815624 29.034374 49.346874 28.3625Q49.878124 27.675 50.89375 27.315624Q51.909374 26.940624 53.253124 26.940624Q54.58125 26.940624 55.409374 27.253124Q56.2375 27.565624 56.628124 28.05Q57.01875 28.51875 57.175 29.2375Q57.26875 29.690624 57.26875 30.8625L57.26875 33.20625Q57.26875 35.659374 57.378124 36.315624Q57.4875 36.95625 57.83125 37.55L55.9875 37.55Q55.721874 37.003124 55.64375 36.26875ZM55.4875 32.346874Q54.534374 32.7375 52.6125 33.003124Q51.534374 33.159374 51.08125 33.3625Q50.64375 33.55 50.39375 33.925Q50.14375 34.3 50.14375 34.76875Q50.14375 35.471874 50.675 35.940624Q51.20625 36.409374 52.2375 36.409374Q53.253124 36.409374 54.034374 35.971874Q54.83125 35.51875 55.20625 34.753124Q55.4875 34.14375 55.4875 32.9875L55.4875 32.346874ZM59.83125 37.55L59.83125 23.2375L61.58125 23.2375L61.58125 37.55L59.83125 37.55Z" fill-rule="nonzero"/></svg>