<svg version="1.1" viewBox="0.0 0.0 680.0 420.0" fill="none" stroke="none" stroke-linecap="square" stroke-miterlimit="10" width="680" height="420" xmlns:xlink="http://www.w3.org/1999/xlink" xmlns="http://www.w3.org/2000/svg"><path fill="#ffffff" d="M0 0L680.0 0L680.0 420.0L0 420.0L0 0Z" fill-rule="nonzero"/><path stroke="#333333" stroke-width="1.0" stroke-linecap="butt" d="M80.5 392.5L659.5 392.5" fill-rule="nonzero"/><path stroke="#cccccc" stroke-width="1.0" stroke-linecap="butt" d="M80.5 359.5L659.5 359.5" fill-rule="nonzero"/><path stroke="#cccccc" stroke-width="1.0" stroke-linecap="butt" d="M80.5 326.5L659.5 326.5" fill-rule="nonzero"/><path stroke="#cccccc" stroke-width="1.0" stroke-linecap="butt" d="M80.5 294.5L659.5 294.5" fill-rule="nonzero"/><path stroke="#cccccc" stroke-width="1.0" stroke-linecap="butt" d="M80.5 261.5L659.5 261.5" fill-rule="nonzero"/><path stroke="#cccccc" stroke-width="1.0" stroke-linecap="butt" d="M80.5 229.5L659.5 229.5" fill-rule="nonzero"/><path stroke="#cccccc" stroke-width="1.0" stroke-linecap="butt" d="M80.5 196.5L659.5 196.5" fill-rule="nonzero"/><path stroke="#cccccc" stroke-width="1.0" stroke-linecap="butt" d="M80.5 163.5L659.5 163.5" fill-rule="nonzero"/><path stroke="#cccccc" stroke-width="1.0" stroke-linecap="butt" d="M80.5 131.5L659.5 131.5" fill-rule="nonzero"/><path stroke="#cccccc" stroke-width="1.0" stroke-linecap="butt" d="M80.5 98.5L659.5 98.5" fill-rule="nonzero"/><path stroke="#cccccc" stroke-width="1.0" stroke-linecap="butt" d="M80.5 66.5L659.5 66.5" fill-rule="nonzero"/><clipPath id="id_0"><path d="M80.0 66.0L659.0 66.0L659.0 392.0L80.0 392.0L80.0 66.0Z" clip-rule="nonzero"/></clipPath><path stroke="#434343" stroke-width="2.0" stroke-linecap="butt" clip-path="url(#id_0)" d="M88.77273 66.0L106.318184 66.0L123.86364 66.0L141.40909 66.0L158.95454 66.0L176.5 66.0L194.04546 66.0L211.59091 98.6L229.13637 245.3L246.68182 245.3L264.22726 310.5L281.77274 326.8L299.31818 326.8L316.86365 326.8L334.4091 326.8L351.95456 326.8L369.5 326.8L387.04544 326.8L404.5909 326.8L422.13635 392.0L439.68182 392.0L457.22726 392.0L474.77274 392.0L492.31818 392.0L509.86365 392.0L527.4091 392.0L544.9545 392.0L562.5 392.0L580.0455 392.0L597.5909 392.0L615.13635 392.0L632.6818 392.0L650.2273 392.0" fill-rule="nonzero"/><path fill="#434343" clip-path="url(#id_0)" d="M94.77273 66.0C94.77273 69.313705 92.08643 72.0 88.77273 72.0C85.45902 72.0 82.77273 69.313705 82.77273 66.0C82.77273 62.68629 85.45902 60.0 88.77273 60.0C92.08643 60.0 94.77273 62.68629 94.77273 66.0Z" fill-rule="nonzero"/><path fill="#434343" clip-path="url(#id_0)" d="M112.318184 66.0C112.318184 69.313705 109.63189 72.0 106.318184 72.0C103.00447 72.0 100.318184 69.313705 100.318184 66.0C100.318184 62.68629 103.00447 60.0 106.318184 60.0C109.63189 60.0 112.318184 62.68629 112.318184 66.0Z" fill-rule="nonzero"/><path fill="#434343" clip-path="url(#id_0)" d="M129.86363 66.0C129.86363 69.313705 127.177345 72.0 123.86364 72.0C120.54993 72.0 117.86364 69.313705 117.86364 66.0C117.86364 62.68629 120.54993 60.0 123.86364 60.0C127.177345 60.0 129.86363 62.68629 129.86363 66.0Z" fill-rule="nonzero"/><path fill="#434343" clip-path="url(#id_0)" d="M147.40909 66.0C147.40909 69.313705 144.7228 72.0 141.40909 72.0C138.09538 72.0 135.40909 69.313705 135.40909 66.0C135.40909 62.68629 138.09538 60.0 141.40909 60.0C144.7228 60.0 147.40909 62.68629 147.40909 66.0Z" fill-rule="nonzero"/><path fill="#434343" clip-path="url(#id_0)" d="M164.95454 66.0C164.95454 69.313705 162.26825 72.0 158.95454 72.0C155.64084 72.0 152.95454 69.313705 152.95454 66.0C152.95454 62.68629 155.64084 60.0 158.95454 60.0C162.26825 60.0 164.95454 62.68629 164.95454 66.0Z" fill-rule="nonzero"/><path fill="#434343" clip-path="url(#id_0)" d="M182.5 66.0C182.5 69.313705 179.8137 72.0 176.5 72.0C173.1863 72.0 170.5 69.313705 170.5 66.0C170.5 62.68629 173.1863 60.0 176.5 60.0C179.8137 60.0 182.5 62.68629 182.5 66.0Z" fill-rule="nonzero"/><path fill="#434343" clip-path="url(#id_0)" d="M200.04546 66.0C200.04546 69.313705 197.35916 72.0 194.04546 72.0C190.73175 72.0 188.04546 69.313705 188.04546 66.0C188.04546 62.68629 190.73175 60.0 194.04546 60.0C197.35916 60.0 200.04546 62.68629 200.04546 66.0Z" fill-rule="nonzero"/><path fill="#434343" clip-path="url(#id_0)" d="M217.59091 98.6C217.59091 101.91371 214.90462 104.6 211.59091 104.6C208.2772 104.6 205.59091 101.91371 205.59091 98.6C205.59091 95.28629 208.2772 92.6 211.59091 92.6C214.90462 92.6 217.59091 95.28629 217.59091 98.6Z" fill-rule="nonzero"/><path fill="#434343" clip-path="url(#id_0)" d="M235.13637 245.3C235.13637 248.61371 232.45007 251.3 229.13637 251.3C225.82266 251.3 223.13637 248.61371 223.13637 245.3C223.13637 241.9863 225.82266 239.3 229.13637 239.3C232.45007 239.3 235.13637 241.9863 235.13637 245.3Z" fill-rule="nonzero"/><path fill="#434343" clip-path="url(#id_0)" d="M252.68182 245.3C252.68182 248.61371 249.99553 251.3 246.68182 251.3C243.3681 251.3 240.68182 248.61371 240.68182 245.3C240.68182 241.9863 243.3681 239.3 246.68182 239.3C249.99553 239.3 252.68182 241.9863 252.68182 245.3Z" fill-rule="nonzero"/><path fill="#434343" clip-path="url(#id_0)" d="M270.22726 310.5C270.22726 313.81372 267.541 316.5 264.22726 316.5C260.91357 316.5 258.22726 313.81372 258.22726 310.5C258.22726 307.18628 260.91357 304.5 264.22726 304.5C267.541 304.5 270.22726 307.18628 270.22726 310.5Z" fill-rule="nonzero"/><path fill="#434343" clip-path="url(#id_0)" d="M287.77274 326.8C287.77274 330.1137 285.08643 332.8 281.77274 332.8C278.459 332.8 275.77274 330.1137 275.77274 326.8C275.77274 323.4863 278.459 320.8 281.77274 320.8C285.08643 320.8 287.77274 323.4863 287.77274 326.8Z" fill-rule="nonzero"/><path fill="#434343" clip-path="url(#id_0)" d="M305.31818 326.8C305.31818 330.1137 302.6319 332.8 299.31818 332.8C296.0045 332.8 293.31818 330.1137 293.31818 326.8C293.31818 323.4863 296.0045 320.8 299.31818 320.8C302.6319 320.8 305.31818 323.4863 305.31818 326.8Z" fill-rule="nonzero"/><path fill="#434343" clip-path="url(#id_0)" d="M322.86365 326.8C322.86365 330.1137 320.17734 332.8 316.86365 332.8C313.54993 332.8 310.86365 330.1137 310.86365 326.8C310.86365 323.4863 313.54993 320.8 316.86365 320.8C320.17734 320.8 322.86365 323.4863 322.86365 326.8Z" fill-rule="nonzero"/><path fill="#434343" clip-path="url(#id_0)" d="M340.4091 326.8C340.4091 330.1137 337.7228 332.8 334.4091 332.8C331.09537 332.8 328.4091 330.1137 328.4091 326.8C328.4091 323.4863 331.09537 320.8 334.4091 320.8C337.7228 320.8 340.4091 323.4863 340.4091 326.8Z" fill-rule="nonzero"/><path fill="#434343" clip-path="url(#id_0)" d="M357.95456 326.8C357.95456 330.1137 355.26825 332.8 351.95456 332.8C348.64084 332.8 345.95456 330.1137 345.95456 326.8C345.95456 323.4863 348.64084 320.8 351.95456 320.8C355.26825 320.8 357.95456 323.4863 357.95456 326.8Z" fill-rule="nonzero"/><path fill="#434343" clip-path="url(#id_0)" d="M375.5 326.8C375.5 330.1137 372.81372 332.8 369.5 332.8C366.18628 332.8 363.5 330.1137 363.5 326.8C363.5 323.4863 366.18628 320.8 369.5 320.8C372.81372 320.8 375.5 323.4863 375.5 326.8Z" fill-rule="nonzero"/><path fill="#434343" clip-path="url(#id_0)" d="M393.04544 326.8C393.04544 330.1137 390.35916 332.8 387.04544 332.8C383.73175 332.8 381.04544 330.1137 381.04544 326.8C381.04544 323.4863 383.73175 320.8 387.04544 320.8C390.35916 320.8 393.04544 323.4863 393.04544 326.8Z" fill-rule="nonzero"/><path fill="#434343" clip-path="url(#id_0)" d="M410.5909 326.8C410.5909 330.1137 407.90463 332.8 404.5909 332.8C401.2772 332.8 398.5909 330.1137 398.5909 326.8C398.5909 323.4863 401.2772 320.8 404.5909 320.8C407.90463 320.8 410.5909 323.4863 410.5909 326.8Z" fill-rule="nonzero"/><path fill="#434343" clip-path="url(#id_0)" d="M428.13635 392.0C428.13635 395.31372 425.45007 398.0 422.13635 398.0C418.82266 398.0 416.13635 395.31372 416.13635 392.0C416.13635 388.68628 418.82266 386.0 422.13635 386.0C425.45007 386.0 428.13635 388.68628 428.13635 392.0Z" fill-rule="nonzero"/><path fill="#434343" clip-path="url(#id_0)" d="M445.68182 392.0C445.68182 395.31372 442.9955 398.0 439.68182 398.0C436.3681 398.0 433.68182 395.31372 433.68182 392.0C433.68182 388.68628 436.3681 386.0 439.68182 386.0C442.9955 386.0 445.68182 388.68628 445.68182 392.0Z" fill-rule="nonzero"/><path fill="#434343" clip-path="url(#id_0)" d="M463.22726 392.0C463.22726 395.31372 460.541 398.0 457.22726 398.0C453.91357 398.0 451.22726 395.31372 451.22726 392.0C451.22726 388.68628 453.91357 386.0 457.22726 386.0C460.541 386.0 463.22726 388.68628 463.22726 392.0Z" fill-rule="nonzero"/><path fill="#434343" clip-path="url(#id_0)" d="M480.77274 392.0C480.77274 395.31372 478.08643 398.0 474.77274 398.0C471.459 398.0 468.77274 395.31372 468.77274 392.0C468.77274 388.68628 471.459 386.0 474.77274 386.0C478.08643 386.0 480.77274 388.68628 480.77274 392.0Z" fill-rule="nonzero"/><path fill="#434343" clip-path="url(#id_0)" d="M498.31818 392.0C498.31818 395.31372 495.6319 398.0 492.31818 398.0C489.0045 398.0 486.31818 395.31372 486.31818 392.0C486.31818 388.68628 489.0045 386.0 492.31818 386.0C495.6319 386.0 498.31818 388.68628 498.31818 392.0Z" fill-rule="nonzero"/><path fill="#434343" clip-path="url(#id_0)" d="M515.86365 392.0C515.86365 395.31372 513.17737 398.0 509.86365 398.0C506.54993 398.0 503.86365 395.31372 503.86365 392.0C503.86365 388.68628 506.54993 386.0 509.86365 386.0C513.17737 386.0 515.86365 388.68628 515.86365 392.0Z" fill-rule="nonzero"/><path fill="#434343" clip-path="url(#id_0)" d="M533.4091 392.0C533.4091 395.31372 530.7228 398.0 527.4091 398.0C524.0954 398.0 521.4091 395.31372 521.4091 392.0C521.4091 388.68628 524.0954 386.0 527.4091 386.0C530.7228 386.0 533.4091 388.68628 533.4091 392.0Z" fill-rule="nonzero"/><path fill="#434343" clip-path="url(#id_0)" d="M550.9545 392.0C550.9545 395.31372 548.26825 398.0 544.9545 398.0C541.6408 398.0 538.9545 395.31372 538.9545 392.0C538.9545 388.68628 541.6408 386.0 544.9545 386.0C548.26825 386.0 550.9545 388.68628 550.9545 392.0Z" fill-rule="nonzero"/><path fill="#434343" clip-path="url(#id_0)" d="M568.5 392.0C568.5 395.31372 565.8137 398.0 562.5 398.0C559.1863 398.0 556.5 395.31372 556.5 392.0C556.5 388.68628 559.1863 386.0 562.5 386.0C565.8137 386.0 568.5 388.68628 568.5 392.0Z" fill-rule="nonzero"/><path fill="#434343" clip-path="url(#id_0)" d="M586.0455 392.0C586.0455 395.31372 583.3592 398.0 580.0455 398.0C576.73175 398.0 574.0455 395.31372 574.0455 392.0C574.0455 388.68628 576.73175 386.0 580.0455 386.0C583.3592 386.0 586.0455 388.68628 586.0455 392.0Z" fill-rule="nonzero"/><path fill="#434343" clip-path="url(#id_0)" d="M603.5909 392.0C603.5909 395.31372 600.9046 398.0 597.5909 398.0C594.2772 398.0 591.5909 395.31372 591.5909 392.0C591.5909 388.68628 594.2772 386.0 597.5909 386.0C600.9046 386.0 603.5909 388.68628 603.5909 392.0Z" fill-rule="nonzero"/><path fill="#434343" clip-path="url(#id_0)" d="M621.13635 392.0C621.13635 395.31372 618.4501 398.0 615.13635 398.0C611.82263 398.0 609.13635 395.31372 609.13635 392.0C609.13635 388.68628 611.82263 386.0 615.13635 386.0C618.4501 386.0 621.13635 388.68628 621.13635 392.0Z" fill-rule="nonzero"/><path fill="#434343" clip-path="url(#id_0)" d="M638.6818 392.0C638.6818 395.31372 635.99554 398.0 632.6818 398.0C629.3681 398.0 626.6818 395.31372 626.6818 392.0C626.6818 388.68628 629.3681 386.0 632.6818 386.0C635.99554 386.0 638.6818 388.68628 638.6818 392.0Z" fill-rule="nonzero"/><path fill="#434343" clip-path="url(#id_0)" d="M656.2273 392.0C656.2273 395.31372 653.54095 398.0 650.2273 398.0C646.9136 398.0 644.2273 395.31372 644.2273 392.0C644.2273 388.68628 646.9136 386.0 650.2273 386.0C653.54095 386.0 656.2273 388.68628 656.2273 392.0Z" fill-rule="nonzero"/><path fill="#000000" d="M29.234375 244.45312L29.140625 243.39062Q29.796875 243.3125 30.203125 243.03125Q30.609375 242.75 30.875 242.17188Q31.125 241.57812 31.125 240.84375Q31.125 240.20312 30.9375 239.70312Q30.734375 239.20312 30.40625 238.96875Q30.0625 238.71875 29.671875 238.71875Q29.265625 238.71875 28.96875 238.95312Q28.65625 239.1875 28.453125 239.71875Q28.3125 240.07812 28.03125 241.26562Q27.75 242.4375 27.5 242.90625Q27.171875 243.53125 26.703125 243.82812Q26.21875 244.125 25.625 244.125Q24.984375 244.125 24.421875 243.76562Q23.84375 243.39062 23.5625 242.6875Q23.265625 241.96875 23.265625 241.10938Q23.265625 240.15625 23.578125 239.42188Q23.875 238.6875 24.484375 238.29688Q25.078125 237.90625 25.828125 237.875L25.90625 238.96875Q25.09375 239.0625 24.6875 239.57812Q24.265625 240.07812 24.265625 241.0625Q24.265625 242.09375 24.640625 242.5625Q25.015625 243.03125 25.546875 243.03125Q26.015625 243.03125 26.3125 242.70312Q26.609375 242.375 26.921875 241.0Q27.234375 239.60938 27.46875 239.09375Q27.828125 238.34375 28.359375 237.98438Q28.875 237.625 29.578125 237.625Q30.265625 237.625 30.875 238.01562Q31.46875 238.40625 31.8125 239.14062Q32.140625 239.875 32.140625 240.79688Q32.140625 241.96875 31.8125 242.76562Q31.46875 243.54688 30.78125 244.0Q30.09375 244.4375 29.234375 244.45312ZM29.71875 232.14062L29.859375 231.10938Q30.921875 231.28125 31.53125 231.98438Q32.140625 232.6875 32.140625 233.70312Q32.140625 234.98438 31.3125 235.76562Q30.46875 236.53125 28.90625 236.53125Q27.90625 236.53125 27.15625 236.20312Q26.390625 235.85938 26.015625 235.1875Q25.640625 234.5 25.640625 233.6875Q25.640625 232.6875 26.15625 232.04688Q26.65625 231.39062 27.609375 231.20312L27.765625 232.23438Q27.140625 232.375 26.828125 232.75Q26.5 233.125 26.5 233.65625Q26.5 234.45312 27.078125 234.95312Q27.640625 235.45312 28.875 235.45312Q30.140625 235.45312 30.703125 234.96875Q31.265625 234.48438 31.265625 233.71875Q31.265625 233.09375 30.890625 232.6875Q30.515625 232.26562 29.71875 232.14062ZM28.890625 230.59375Q27.15625 230.59375 26.328125 229.64062Q25.640625 228.84375 25.640625 227.6875Q25.640625 226.40625 26.484375 225.59375Q27.3125 224.76562 28.796875 224.76562Q30.0 224.76562 30.6875 225.125Q31.375 225.48438 31.765625 226.1875Q32.140625 226.875 32.140625 227.6875Q32.140625 228.98438 31.3125 229.79688Q30.46875 230.59375 28.890625 230.59375ZM28.890625 229.51562Q30.078125 229.51562 30.671875 229.0Q31.265625 228.46875 31.265625 227.6875Q31.265625 226.89062 30.671875 226.375Q30.078125 225.85938 28.859375 225.85938Q27.703125 225.85938 27.109375 226.39062Q26.515625 226.90625 26.515625 227.6875Q26.515625 228.46875 27.109375 229.0Q27.6875 229.51562 28.890625 229.51562ZM32.0 223.21875L25.78125 223.21875L25.78125 222.26562L26.71875 222.26562Q26.0625 221.90625 25.859375 221.60938Q25.640625 221.29688 25.640625 220.92188Q25.640625 220.39062 25.96875 219.84375L26.953125 220.20312Q26.71875 220.59375 26.71875 220.96875Q26.71875 221.32812 26.9375 221.60938Q27.140625 221.875 27.515625 221.98438Q28.078125 222.17188 28.734375 222.17188L32.0 222.17188L32.0 223.21875ZM30.0 214.95312L30.125 213.85938Q31.078125 214.10938 31.609375 214.8125Q32.140625 215.51562 32.140625 216.59375Q32.140625 217.95312 31.296875 218.76562Q30.453125 219.5625 28.9375 219.5625Q27.375 219.5625 26.515625 218.75Q25.640625 217.9375 25.640625 216.65625Q25.640625 215.40625 26.484375 214.625Q27.328125 213.82812 28.875 213.82812Q28.96875 213.82812 29.15625 213.82812L29.15625 218.46875Q30.1875 218.40625 30.734375 217.89062Q31.265625 217.375 31.265625 216.59375Q31.265625 216.01562 30.96875 215.60938Q30.65625 215.1875 30.0 214.95312ZM28.296875 218.40625L28.296875 214.9375Q27.5 215.0 27.109375 215.32812Q26.5 215.84375 26.5 216.64062Q26.5 217.375 26.984375 217.875Q27.46875 218.35938 28.296875 218.40625Z" fill-rule="nonzero"/><path fill="#000000" d="M67.5 391.76562Q67.5 390.23438 67.8125 389.3125Q68.125 388.375 68.734375 387.875Q69.359375 387.375 70.296875 387.375Q70.984375 387.375 71.5 387.65625Q72.03125 387.9375 72.375 388.46875Q72.71875 388.98438 72.90625 389.73438Q73.09375 390.48438 73.09375 391.76562Q73.09375 393.28125 72.78125 394.20312Q72.484375 395.125 71.859375 395.64062Q71.25 396.14062 70.296875 396.14062Q69.0625 396.14062 68.34375 395.25Q67.5 394.1875 67.5 391.76562ZM68.578125 391.76562Q68.578125 393.875 69.078125 394.57812Q69.578125 395.28125 70.296875 395.28125Q71.03125 395.28125 71.515625 394.57812Q72.015625 393.875 72.015625 391.76562Q72.015625 389.64062 71.515625 388.95312Q71.03125 388.25 70.28125 388.25Q69.5625 388.25 69.125 388.85938Q68.578125 389.64062 68.578125 391.76562Z" fill-rule="nonzero"/><path fill="#000000" d="M64.46875 363.4L63.421875 363.4L63.421875 356.68124Q63.03125 357.04062 62.40625 357.41562Q61.796875 357.775 61.3125 357.94687L61.3125 356.93124Q62.1875 356.50937 62.84375 355.93124Q63.515625 355.3375 63.796875 354.775L64.46875 354.775L64.46875 363.4ZM67.5 359.16562Q67.5 357.63437 67.8125 356.7125Q68.125 355.775 68.734375 355.275Q69.359375 354.775 70.296875 354.775Q70.984375 354.775 71.5 355.05624Q72.03125 355.3375 72.375 355.86874Q72.71875 356.38437 72.90625 357.13437Q73.09375 357.88437 73.09375 359.16562Q73.09375 360.68124 72.78125 361.60312Q72.484375 362.525 71.859375 363.04062Q71.25 363.54062 70.296875 363.54062Q69.0625 363.54062 68.34375 362.65Q67.5 361.5875 67.5 359.16562ZM68.578125 359.16562Q68.578125 361.275 69.078125 361.97812Q69.578125 362.68124 70.296875 362.68124Q71.03125 362.68124 71.515625 361.97812Q72.015625 361.275 72.015625 359.16562Q72.015625 357.04062 71.515625 356.35312Q71.03125 355.65 70.28125 355.65Q69.5625 355.65 69.125 356.25937Q68.578125 357.04062 68.578125 359.16562Z" fill-rule="nonzero"/><path fill="#000000" d="M66.046875 329.78436L66.046875 330.8L60.359375 330.8Q60.359375 330.425 60.484375 330.0656Q60.703125 329.4875 61.171875 328.925Q61.65625 328.3625 62.5625 327.6281Q63.96875 326.47186 64.453125 325.8Q64.953125 325.1281 64.953125 324.53436Q64.953125 323.90936 64.5 323.4875Q64.046875 323.05 63.328125 323.05Q62.5625 323.05 62.109375 323.5031Q61.65625 323.95624 61.640625 324.76874L60.5625 324.65936Q60.671875 323.4406 61.390625 322.8156Q62.125 322.175 63.359375 322.175Q64.59375 322.175 65.3125 322.8625Q66.03125 323.55 66.03125 324.5656Q66.03125 325.08124 65.8125 325.58124Q65.609375 326.0656 65.109375 326.6281Q64.625 327.175 63.5 328.1281Q62.546875 328.925 62.265625 329.22186Q62.0 329.5031 61.828125 329.78436L66.046875 329.78436ZM67.5 326.5656Q67.5 325.03436 67.8125 324.1125Q68.125 323.175 68.734375 322.675Q69.359375 322.175 70.296875 322.175Q70.984375 322.175 71.5 322.45624Q72.03125 322.7375 72.375 323.26874Q72.71875 323.78436 72.90625 324.53436Q73.09375 325.28436 73.09375 326.5656Q73.09375 328.08124 72.78125 329.0031Q72.484375 329.925 71.859375 330.4406Q71.25 330.9406 70.296875 330.9406Q69.0625 330.9406 68.34375 330.05Q67.5 328.9875 67.5 326.5656ZM68.578125 326.5656Q68.578125 328.675 69.078125 329.3781Q69.578125 330.08124 70.296875 330.08124Q71.03125 330.08124 71.515625 329.3781Q72.015625 328.675 72.015625 326.5656Q72.015625 324.4406 71.515625 323.7531Q71.03125 323.05 70.28125 323.05Q69.5625 323.05 69.125 323.65936Q68.578125 324.4406 68.578125 326.5656Z" fill-rule="nonzero"/><path fill="#000000" d="M60.5 295.9344L61.5625 295.79376Q61.734375 296.6844 62.171875 297.09064Q62.609375 297.48126 63.234375 297.48126Q63.984375 297.48126 64.5 296.96564Q65.015625 296.45 65.015625 295.6844Q65.015625 294.96564 64.53125 294.4969Q64.0625 294.0125 63.328125 294.0125Q63.03125 294.0125 62.578125 294.1375L62.703125 293.2Q62.8125 293.21564 62.875 293.21564Q63.546875 293.21564 64.078125 292.8719Q64.625 292.5125 64.625 291.77814Q64.625 291.2 64.234375 290.825Q63.84375 290.4344 63.21875 290.4344Q62.609375 290.4344 62.1875 290.825Q61.78125 291.21564 61.671875 291.98126L60.609375 291.79376Q60.796875 290.7469 61.484375 290.16876Q62.171875 289.575 63.1875 289.575Q63.890625 289.575 64.484375 289.8875Q65.078125 290.1844 65.390625 290.7Q65.703125 291.21564 65.703125 291.8094Q65.703125 292.35626 65.40625 292.825Q65.109375 293.27814 64.53125 293.54376Q65.28125 293.71564 65.703125 294.27814Q66.125 294.825 66.125 295.66876Q66.125 296.79376 65.296875 297.575Q64.484375 298.35626 63.234375 298.35626Q62.109375 298.35626 61.359375 297.6844Q60.609375 296.9969 60.5 295.9344ZM67.5 293.96564Q67.5 292.4344 67.8125 291.5125Q68.125 290.575 68.734375 290.075Q69.359375 289.575 70.296875 289.575Q70.984375 289.575 71.5 289.85626Q72.03125 290.1375 72.375 290.66876Q72.71875 291.1844 72.90625 291.9344Q73.09375 292.6844 73.09375 293.96564Q73.09375 295.48126 72.78125 296.40314Q72.484375 297.325 71.859375 297.84064Q71.25 298.34064 70.296875 298.34064Q69.0625 298.34064 68.34375 297.45Q67.5 296.3875 67.5 293.96564ZM68.578125 293.96564Q68.578125 296.075 69.078125 296.77814Q69.578125 297.48126 70.296875 297.48126Q71.03125 297.48126 71.515625 296.77814Q72.015625 296.075 72.015625 293.96564Q72.015625 291.84064 71.515625 291.15314Q71.03125 290.45 70.28125 290.45Q69.5625 290.45 69.125 291.0594Q68.578125 291.84064 68.578125 293.96564Z" fill-rule="nonzero"/><path fill="#000000" d="M63.875 265.6L63.875 263.5375L60.15625 263.5375L60.15625 262.56876L64.078125 257.00626L64.9375 257.00626L64.9375 262.56876L66.09375 262.56876L66.09375 263.5375L64.9375 263.5375L64.9375 265.6L63.875 265.6ZM63.875 262.56876L63.875 258.70938L61.1875 262.56876L63.875 262.56876ZM67.5 261.36563Q67.5 259.83438 67.8125 258.9125Q68.125 257.975 68.734375 257.475Q69.359375 256.975 70.296875 256.975Q70.984375 256.975 71.5 257.25626Q72.03125 257.5375 72.375 258.06876Q72.71875 258.58438 72.90625 259.33438Q73.09375 260.08438 73.09375 261.36563Q73.09375 262.88126 72.78125 263.80313Q72.484375 264.725 71.859375 265.24063Q71.25 265.74063 70.296875 265.74063Q69.0625 265.74063 68.34375 264.85Q67.5 263.7875 67.5 261.36563ZM68.578125 261.36563Q68.578125 263.475 69.078125 264.17813Q69.578125 264.88126 70.296875 264.88126Q71.03125 264.88126 71.515625 264.17813Q72.015625 263.475 72.015625 261.36563Q72.015625 259.24063 71.515625 258.55313Q71.03125 257.85 70.28125 257.85Q69.5625 257.85 69.125 258.45938Q68.578125 259.24063 68.578125 261.36563Z" fill-rule="nonzero"/><path fill="#000000" d="M60.5 230.75L61.609375 230.65625Q61.734375 231.46875 62.171875 231.875Q62.625 232.28125 63.265625 232.28125Q64.015625 232.28125 64.546875 231.70312Q65.078125 231.125 65.078125 230.1875Q65.078125 229.28125 64.5625 228.76562Q64.0625 228.23438 63.234375 228.23438Q62.734375 228.23438 62.3125 228.46875Q61.90625 228.70312 61.671875 229.0625L60.6875 228.9375L61.515625 224.53125L65.796875 224.53125L65.796875 225.53125L62.359375 225.53125L61.90625 227.84375Q62.671875 227.29688 63.515625 227.29688Q64.640625 227.29688 65.40625 228.07812Q66.1875 228.85938 66.1875 230.09375Q66.1875 231.25 65.515625 232.10938Q64.6875 233.14062 63.265625 233.14062Q62.09375 233.14062 61.34375 232.48438Q60.609375 231.82812 60.5 230.75ZM67.5 228.76562Q67.5 227.23438 67.8125 226.3125Q68.125 225.375 68.734375 224.875Q69.359375 224.375 70.296875 224.375Q70.984375 224.375 71.5 224.65625Q72.03125 224.9375 72.375 225.46875Q72.71875 225.98438 72.90625 226.73438Q73.09375 227.48438 73.09375 228.76562Q73.09375 230.28125 72.78125 231.20312Q72.484375 232.125 71.859375 232.64062Q71.25 233.14062 70.296875 233.14062Q69.0625 233.14062 68.34375 232.25Q67.5 231.1875 67.5 228.76562ZM68.578125 228.76562Q68.578125 230.875 69.078125 231.57812Q69.578125 232.28125 70.296875 232.28125Q71.03125 232.28125 71.515625 231.57812Q72.015625 230.875 72.015625 228.76562Q72.015625 226.64062 71.515625 225.95312Q71.03125 225.25 70.28125 225.25Q69.5625 225.25 69.125 225.85938Q68.578125 226.64062 68.578125 228.76562Z" fill-rule="nonzero"/><path fill="#000000" d="M65.96875 193.91562L64.921875 193.99374Q64.78125 193.36874 64.53125 193.0875Q64.09375 192.63437 63.46875 192.63437Q62.96875 192.63437 62.578125 192.91562Q62.09375 193.29062 61.796875 193.99374Q61.515625 194.68124 61.5 195.9625Q61.875 195.38437 62.421875 195.10312Q62.984375 194.82187 63.59375 194.82187Q64.640625 194.82187 65.375 195.60312Q66.125 196.38437 66.125 197.60312Q66.125 198.41562 65.765625 199.11874Q65.421875 199.80624 64.8125 200.18124Q64.203125 200.54062 63.4375 200.54062Q62.109375 200.54062 61.28125 199.57187Q60.453125 198.60312 60.453125 196.38437Q60.453125 193.88437 61.375 192.75937Q62.171875 191.775 63.53125 191.775Q64.546875 191.775 65.1875 192.35312Q65.84375 192.91562 65.96875 193.91562ZM61.671875 197.61874Q61.671875 198.16562 61.890625 198.66562Q62.125 199.15 62.53125 199.41562Q62.953125 199.68124 63.421875 199.68124Q64.078125 199.68124 64.5625 199.15Q65.046875 198.60312 65.046875 197.68124Q65.046875 196.79062 64.5625 196.275Q64.09375 195.75937 63.375 195.75937Q62.65625 195.75937 62.15625 196.275Q61.671875 196.79062 61.671875 197.61874ZM67.5 196.16562Q67.5 194.63437 67.8125 193.7125Q68.125 192.775 68.734375 192.275Q69.359375 191.775 70.296875 191.775Q70.984375 191.775 71.5 192.05624Q72.03125 192.3375 72.375 192.86874Q72.71875 193.38437 72.90625 194.13437Q73.09375 194.88437 73.09375 196.16562Q73.09375 197.68124 72.78125 198.60312Q72.484375 199.525 71.859375 200.04062Q71.25 200.54062 70.296875 200.54062Q69.0625 200.54062 68.34375 199.65Q67.5 198.5875 67.5 196.16562ZM68.578125 196.16562Q68.578125 198.275 69.078125 198.97812Q69.578125 199.68124 70.296875 199.68124Q71.03125 199.68124 71.515625 198.97812Q72.015625 198.275 72.015625 196.16562Q72.015625 194.04062 71.515625 193.35312Q71.03125 192.65 70.28125 192.65Q69.5625 192.65 69.125 193.25937Q68.578125 194.04062 68.578125 196.16562Z" fill-rule="nonzero"/><path fill="#000000" d="M60.5625 160.33125L60.5625 159.31563L66.125 159.31563L66.125 160.14375Q65.3125 161.01875 64.5 162.47188Q63.703125 163.90938 63.265625 165.44063Q62.9375 166.51875 62.859375 167.8L61.765625 167.8Q61.78125 166.78438 62.15625 165.34688Q62.546875 163.90938 63.25 162.58125Q63.96875 161.25313 64.78125 160.33125L60.5625 160.33125ZM67.5 163.56563Q67.5 162.03438 67.8125 161.1125Q68.125 160.175 68.734375 159.675Q69.359375 159.175 70.296875 159.175Q70.984375 159.175 71.5 159.45625Q72.03125 159.7375 72.375 160.26875Q72.71875 160.78438 72.90625 161.53438Q73.09375 162.28438 73.09375 163.56563Q73.09375 165.08125 72.78125 166.00313Q72.484375 166.925 71.859375 167.44063Q71.25 167.94063 70.296875 167.94063Q69.0625 167.94063 68.34375 167.05Q67.5 165.9875 67.5 163.56563ZM68.578125 163.56563Q68.578125 165.675 69.078125 166.37813Q69.578125 167.08125 70.296875 167.08125Q71.03125 167.08125 71.515625 166.37813Q72.015625 165.675 72.015625 163.56563Q72.015625 161.44063 71.515625 160.75313Q71.03125 160.05 70.28125 160.05Q69.5625 160.05 69.125 160.65938Q68.578125 161.44063 68.578125 163.56563Z" fill-rule="nonzero"/><path fill="#000000" d="M62.125 130.54375Q61.46875 130.29375 61.140625 129.85625Q60.828125 129.40312 60.828125 128.79375Q60.828125 127.85625 61.5 127.21562Q62.1875 126.575 63.296875 126.575Q64.421875 126.575 65.109375 127.23125Q65.796875 127.8875 65.796875 128.825Q65.796875 129.41875 65.484375 129.85625Q65.171875 130.29375 64.53125 130.54375Q65.328125 130.79375 65.734375 131.37187Q66.140625 131.95 66.140625 132.74687Q66.140625 133.84062 65.359375 134.59062Q64.59375 135.34062 63.3125 135.34062Q62.046875 135.34062 61.265625 134.59062Q60.484375 133.84062 60.484375 132.71562Q60.484375 131.87187 60.90625 131.30937Q61.34375 130.74687 62.125 130.54375ZM61.90625 128.74687Q61.90625 129.35625 62.296875 129.74687Q62.703125 130.1375 63.328125 130.1375Q63.9375 130.1375 64.328125 129.7625Q64.71875 129.37187 64.71875 128.80937Q64.71875 128.23125 64.3125 127.84062Q63.90625 127.43437 63.3125 127.43437Q62.703125 127.43437 62.296875 127.825Q61.90625 128.21562 61.90625 128.74687ZM61.578125 132.71562Q61.578125 133.16875 61.78125 133.59062Q62.0 134.0125 62.421875 134.24687Q62.84375 134.48125 63.328125 134.48125Q64.078125 134.48125 64.5625 133.99687Q65.0625 133.5125 65.0625 132.7625Q65.0625 131.99687 64.5625 131.49687Q64.0625 130.99687 63.296875 130.99687Q62.546875 130.99687 62.0625 131.49687Q61.578125 131.98125 61.578125 132.71562ZM67.5 130.96562Q67.5 129.43437 67.8125 128.5125Q68.125 127.575 68.734375 127.075Q69.359375 126.575 70.296875 126.575Q70.984375 126.575 71.5 126.85625Q72.03125 127.1375 72.375 127.66875Q72.71875 128.18437 72.90625 128.93437Q73.09375 129.68437 73.09375 130.96562Q73.09375 132.48125 72.78125 133.40312Q72.484375 134.325 71.859375 134.84062Q71.25 135.34062 70.296875 135.34062Q69.0625 135.34062 68.34375 134.45Q67.5 133.3875 67.5 130.96562ZM68.578125 130.96562Q68.578125 133.075 69.078125 133.77812Q69.578125 134.48125 70.296875 134.48125Q71.03125 134.48125 71.515625 133.77812Q72.015625 133.075 72.015625 130.96562Q72.015625 128.84062 71.515625 128.15312Q71.03125 127.45 70.28125 127.45Q69.5625 127.45 69.125 128.05937Q68.578125 128.84062 68.578125 130.96562Z" fill-rule="nonzero"/><path fill="#000000" d="M60.65625 100.61562L61.671875 100.52187Q61.796875 101.24062 62.15625 101.56875Q62.53125 101.88125 63.09375 101.88125Q63.578125 101.88125 63.9375 101.6625Q64.3125 101.42812 64.546875 101.06875Q64.78125 100.69375 64.9375 100.06875Q65.09375 99.42812 65.09375 98.77187Q65.09375 98.69375 65.09375 98.55312Q64.78125 99.05312 64.234375 99.38125Q63.6875 99.69375 63.046875 99.69375Q61.96875 99.69375 61.234375 98.92812Q60.5 98.14687 60.5 96.88125Q60.5 95.56875 61.265625 94.77187Q62.046875 93.975 63.203125 93.975Q64.03125 93.975 64.71875 94.42812Q65.421875 94.88125 65.78125 95.725Q66.140625 96.55312 66.140625 98.13125Q66.140625 99.77187 65.78125 100.75625Q65.4375 101.725 64.71875 102.24062Q64.015625 102.74062 63.078125 102.74062Q62.0625 102.74062 61.421875 102.19375Q60.78125 101.63125 60.65625 100.61562ZM64.96875 96.81875Q64.96875 95.9125 64.484375 95.38125Q64.015625 94.85 63.328125 94.85Q62.625 94.85 62.09375 95.42812Q61.578125 95.99062 61.578125 96.9125Q61.578125 97.725 62.078125 98.24062Q62.578125 98.75625 63.296875 98.75625Q64.03125 98.75625 64.5 98.24062Q64.96875 97.725 64.96875 96.81875ZM67.5 98.36562Q67.5 96.83437 67.8125 95.9125Q68.125 94.975 68.734375 94.475Q69.359375 93.975 70.296875 93.975Q70.984375 93.975 71.5 94.25625Q72.03125 94.5375 72.375 95.06875Q72.71875 95.58437 72.90625 96.33437Q73.09375 97.08437 73.09375 98.36562Q73.09375 99.88125 72.78125 100.80312Q72.484375 101.725 71.859375 102.24062Q71.25 102.74062 70.296875 102.74062Q69.0625 102.74062 68.34375 101.85Q67.5 100.7875 67.5 98.36562ZM68.578125 98.36562Q68.578125 100.475 69.078125 101.17812Q69.578125 101.88125 70.296875 101.88125Q71.03125 101.88125 71.515625 101.17812Q72.015625 100.475 72.015625 98.36562Q72.015625 96.24062 71.515625 95.55312Q71.03125 94.85 70.28125 94.85Q69.5625 94.85 69.125 95.45937Q68.578125 96.24062 68.578125 98.36562Z" fill-rule="nonzero"/><path fill="#000000" d="M57.46875 70.0L56.421875 70.0L56.421875 63.28125Q56.03125 63.640625 55.40625 64.015625Q54.796875 64.375 54.3125 64.546875L54.3125 63.53125Q55.1875 63.109375 55.84375 62.53125Q56.515625 61.9375 56.796875 61.375L57.46875 61.375L57.46875 70.0ZM60.5 65.765625Q60.5 64.234375 60.8125 63.3125Q61.125 62.375 61.734375 61.875Q62.359375 61.375 63.296875 61.375Q63.984375 61.375 64.5 61.65625Q65.03125 61.9375 65.375 62.46875Q65.71875 62.984375 65.90625 63.734375Q66.09375 64.484375 66.09375 65.765625Q66.09375 67.28125 65.78125 68.203125Q65.484375 69.125 64.859375 69.640625Q64.25 70.140625 63.296875 70.140625Q62.0625 70.140625 61.34375 69.25Q60.5 68.1875 60.5 65.765625ZM61.578125 65.765625Q61.578125 67.875 62.078125 68.578125Q62.578125 69.28125 63.296875 69.28125Q64.03125 69.28125 64.515625 68.578125Q65.015625 67.875 65.015625 65.765625Q65.015625 63.640625 64.515625 62.953125Q64.03125 62.25 63.28125 62.25Q62.5625 62.25 62.125 62.859375Q61.578125 63.640625 61.578125 65.765625ZM67.5 65.765625Q67.5 64.234375 67.8125 63.3125Q68.125 62.375 68.734375 61.875Q69.359375 61.375 70.296875 61.375Q70.984375 61.375 71.5 61.65625Q72.03125 61.9375 72.375 62.46875Q72.71875 62.984375 72.90625 63.734375Q73.09375 64.484375 73.09375 65.765625Q73.09375 67.28125 72.78125 68.203125Q72.484375 69.125 71.859375 69.640625Q71.25 70.140625 70.296875 70.140625Q69.0625 70.140625 68.34375 69.25Q67.5 68.1875 67.5 65.765625ZM68.578125 65.765625Q68.578125 67.875 69.078125 68.578125Q69.578125 69.28125 70.296875 69.28125Q71.03125 69.28125 71.515625 68.578125Q72.015625 67.875 72.015625 65.765625Q72.015625 63.640625 71.515625 62.953125Q71.03125 62.25 70.28125 62.25Q69.5625 62.25 69.125 62.859375Q68.578125 63.640625 68.578125 65.765625Z" fill-rule="nonzero"/><path fill="#757575" d="M22.640625 40.0L22.640625 25.6875L32.296875 25.6875L32.296875 27.375L24.53125 27.375L24.53125 31.8125L31.25 31.8125L31.25 33.5L24.53125 33.5L24.53125 40.0L22.640625 40.0ZM41.09375 38.71875Q40.109375 39.546875 39.203125 39.890625Q38.296875 40.234375 37.265625 40.234375Q35.5625 40.234375 34.640625 39.40625Q33.71875 38.5625 33.71875 37.265625Q33.71875 36.5 34.0625 35.875Q34.421875 35.25 34.984375 34.875Q35.546875 34.484375 36.25 34.28125Q36.765625 34.15625 37.8125 34.015625Q39.9375 33.765625 40.9375 33.421875Q40.953125 33.0625 40.953125 32.953125Q40.953125 31.890625 40.453125 31.4375Q39.78125 30.84375 38.453125 30.84375Q37.203125 30.84375 36.609375 31.28125Q36.03125 31.71875 35.75 32.828125L34.03125 32.59375Q34.265625 31.484375 34.796875 30.8125Q35.328125 30.125 36.34375 29.765625Q37.359375 29.390625 38.703125 29.390625Q40.03125 29.390625 40.859375 29.703125Q41.6875 30.015625 42.078125 30.5Q42.46875 30.96875 42.625 31.6875Q42.71875 32.140625 42.71875 33.3125L42.71875 35.65625Q42.71875 38.109375 42.828125 38.765625Q42.9375 39.40625 43.28125 40.0L41.4375 40.0Q41.171875 39.453125 41.09375 38.71875ZM40.9375 34.796875Q39.984375 35.1875 38.0625 35.453125Q36.984375 35.609375 36.53125 35.8125Q36.09375 36.0 35.84375 36.375Q35.59375 36.75 35.59375 37.21875Q35.59375 37.921875 36.125 38.390625Q36.65625 38.859375 37.6875 38.859375Q38.703125 38.859375 39.484375 38.421875Q40.28125 37.96875 40.65625 37.203125Q40.9375 36.59375 40.9375 35.4375L40.9375 34.796875ZM45.328125 27.703125L45.328125 25.6875L47.09375 25.6875L47.09375 27.703125L45.328125 27.703125ZM45.328125 40.0L45.328125 29.625L47.09375 29.625L47.09375 40.0L45.328125 40.0ZM49.296875 40.0L49.296875 29.625L50.875 29.625L50.875 31.203125Q51.484375 30.09375 52.0 29.75Q52.515625 29.390625 53.125 29.390625Q54.015625 29.390625 54.9375 29.953125L54.328125 31.59375Q53.6875 31.203125 53.046875 31.203125Q52.46875 31.203125 52.0 31.5625Q51.546875 31.90625 51.34375 32.515625Q51.0625 33.453125 51.0625 34.5625L51.0625 40.0L49.296875 40.0ZM62.484375 40.0L62.484375 25.6875L65.34375 25.6875L68.71875 35.8125Q69.1875 37.234375 69.40625 37.9375Q69.65625 37.15625 70.171875 35.640625L73.59375 25.6875L76.140625 25.6875L76.140625 40.0L74.328125 40.0L74.328125 28.015625L70.15625 40.0L68.453125 40.0L64.3125 27.8125L64.3125 40.0L62.484375 40.0ZM86.421875 36.65625L88.234375 36.890625Q87.8125 38.46875 86.640625 39.359375Q85.484375 40.234375 83.671875 40.234375Q81.40625 40.234375 80.0625 38.84375Q78.734375 37.4375 78.734375 34.90625Q78.734375 32.28125 80.078125 30.84375Q81.421875 29.390625 83.578125 29.390625Q85.65625 29.390625 86.96875 30.8125Q88.296875 32.21875 88.296875 34.796875Q88.296875 34.953125 88.28125 35.265625L80.546875 35.265625Q80.640625 36.96875 81.515625 37.875Q82.390625 38.78125 83.6875 38.78125Q84.65625 38.78125 85.328125 38.28125Q86.015625 37.765625 86.421875 36.65625ZM80.640625 33.8125L86.4375 33.8125Q86.328125 32.515625 85.78125 31.859375Q84.9375 30.84375 83.59375 30.84375Q82.390625 30.84375 81.5625 31.65625Q80.734375 32.453125 80.640625 33.8125ZM97.421875 36.65625L99.234375 36.890625Q98.8125 38.46875 97.640625 39.359375Q96.484375 40.234375 94.671875 40.234375Q92.40625 40.234375 91.0625 38.84375Q89.734375 37.4375 89.734375 34.90625Q89.734375 32.28125 91.078125 30.84375Q92.421875 29.390625 94.578125 29.390625Q96.65625 29.390625 97.96875 30.8125Q99.296875 32.21875 99.296875 34.796875Q99.296875 34.953125 99.28125 35.265625L91.546875 35.265625Q91.640625 36.96875 92.515625 37.875Q93.390625 38.78125 94.6875 38.78125Q95.65625 38.78125 96.328125 38.28125Q97.015625 37.765625 97.421875 36.65625ZM91.640625 33.8125L97.4375 33.8125Q97.328125 32.515625 96.78125 31.859375Q95.9375 30.84375 94.59375 30.84375Q93.390625 30.84375 92.5625 31.65625Q91.734375 32.453125 91.640625 33.8125ZM105.15625 38.421875L105.40625 39.984375Q104.671875 40.140625 104.078125 40.140625Q103.125 40.140625 102.59375 39.84375Q102.078125 39.53125 101.859375 39.046875Q101.640625 38.546875 101.640625 36.96875L101.640625 31.0L100.359375 31.0L100.359375 29.625L101.640625 29.625L101.640625 27.0625L103.390625 26.0L103.390625 29.625L105.15625 29.625L105.15625 31.0L103.390625 31.0L103.390625 37.0625Q103.390625 37.8125 103.484375 38.03125Q103.578125 38.234375 103.78125 38.375Q104.0 38.5 104.390625 38.5Q104.671875 38.5 105.15625 38.421875ZM107.328125 27.703125L107.328125 25.6875L109.09375 25.6875L109.09375 27.703125L107.328125 27.703125ZM107.328125 40.0L107.328125 29.625L109.09375 29.625L109.09375 40.0L107.328125 40.0ZM111.3125 40.0L111.3125 29.625L112.90625 29.625L112.90625 31.109375Q114.046875 29.390625 116.203125 29.390625Q117.140625 29.390625 117.921875 29.734375Q118.71875 30.0625 119.109375 30.609375Q119.5 31.15625 119.65625 31.90625Q119.75 32.40625 119.75 33.625L119.75 40.0L117.984375 40.0L117.984375 33.6875Q117.984375 32.609375 117.78125 32.078125Q117.578125 31.546875 117.046875 31.234375Q116.53125 30.921875 115.828125 30.921875Q114.703125 30.921875 113.890625 31.640625Q113.078125 32.34375 113.078125 34.328125L113.078125 40.0L111.3125 40.0ZM121.0 40.859375L122.703125 41.109375Q122.8125 41.90625 123.296875 42.265625Q123.953125 42.75 125.09375 42.75Q126.3125 42.75 126.96875 42.265625Q127.640625 41.78125 127.875 40.90625Q128.01562 40.359375 128.0 38.640625Q126.84375 40.0 125.125 40.0Q122.984375 40.0 121.8125 38.453125Q120.640625 36.90625 120.640625 34.75Q120.640625 33.265625 121.171875 32.015625Q121.71875 30.765625 122.734375 30.078125Q123.765625 29.390625 125.140625 29.390625Q126.96875 29.390625 128.17188 30.875L128.17188 29.625L129.78125 29.625L129.78125 38.59375Q129.78125 41.015625 129.28125 42.015625Q128.79688 43.03125 127.71875 43.609375Q126.65625 44.203125 125.09375 44.203125Q123.25 44.203125 122.09375 43.375Q120.953125 42.546875 121.0 40.859375ZM122.453125 34.625Q122.453125 36.671875 123.265625 37.609375Q124.078125 38.546875 125.296875 38.546875Q126.5 38.546875 127.3125 37.609375Q128.14062 36.671875 128.14062 34.6875Q128.14062 32.78125 127.296875 31.8125Q126.453125 30.84375 125.265625 30.84375Q124.09375 30.84375 123.265625 31.796875Q122.453125 32.75 122.453125 34.625ZM131.60938 36.90625L133.35938 36.625Q133.5 37.671875 134.17188 38.234375Q134.84375 38.78125 136.04688 38.78125Q137.25 38.78125 137.82812 38.296875Q138.42188 37.796875 138.42188 37.140625Q138.42188 36.546875 137.90625 36.203125Q137.54688 35.96875 136.10938 35.609375Q134.17188 35.109375 133.42188 34.765625Q132.6875 34.40625 132.29688 33.78125Q131.90625 33.140625 131.90625 32.375Q131.90625 31.6875 132.21875 31.09375Q132.54688 30.5 133.09375 30.109375Q133.5 29.8125 134.20312 29.609375Q134.92188 29.390625 135.73438 29.390625Q136.95312 29.390625 137.875 29.75Q138.79688 30.09375 139.23438 30.703125Q139.67188 31.296875 139.84375 32.296875L138.125 32.53125Q138.0 31.734375 137.4375 31.296875Q136.875 30.84375 135.85938 30.84375Q134.64062 30.84375 134.125 31.25Q133.60938 31.640625 133.60938 32.171875Q133.60938 32.515625 133.82812 32.796875Q134.03125 33.078125 134.5 33.265625Q134.76562 33.359375 136.04688 33.703125Q137.92188 34.203125 138.65625 34.53125Q139.39062 34.84375 139.8125 35.453125Q140.23438 36.046875 140.23438 36.953125Q140.23438 37.828125 139.71875 38.609375Q139.20312 39.390625 138.23438 39.8125Q137.26562 40.234375 136.04688 40.234375Q134.03125 40.234375 132.96875 39.390625Q131.90625 38.546875 131.60938 36.90625Z" fill-rule="nonzero"/></svg>