<svg version="1.1" viewBox="0.0 0.0 680.0 420.0" fill="none" stroke="none" stroke-linecap="square" stroke-miterlimit="10" width="680" height="420" xmlns:xlink="http://www.w3.org/1999/xlink" xmlns="http://www.w3.org/2000/svg"><path fill="#ffffff" d="M0 0L680.0 0L680.0 420.0L0 420.0L0 0Z" fill-rule="nonzero"/><path stroke="#333333" stroke-width="1.0" stroke-linecap="butt" d="M80.5 392.5L659.5 392.5" fill-rule="nonzero"/><path stroke="#cccccc" stroke-width="1.0" stroke-linecap="butt" d="M80.5 310.5L659.5 310.5" fill-rule="nonzero"/><path stroke="#cccccc" stroke-width="1.0" stroke-linecap="butt" d="M80.5 229.5L659.5 229.5" fill-rule="nonzero"/><path stroke="#cccccc" stroke-width="1.0" stroke-linecap="butt" d="M80.5 147.5L659.5 147.5" fill-rule="nonzero"/><path stroke="#cccccc" stroke-width="1.0" stroke-linecap="butt" d="M80.5 66.5L659.5 66.5" fill-rule="nonzero"/><path stroke="#e6e6e6" stroke-width="1.0" stroke-linecap="butt" d="M80.5 371.5L659.5 371.5" fill-rule="nonzero"/><path stroke="#e6e6e6" stroke-width="1.0" stroke-linecap="butt" d="M80.5 351.5L659.5 351.5" fill-rule="nonzero"/><path stroke="#e6e6e6" stroke-width="1.0" stroke-linecap="butt" d="M80.5 330.5L659.5 330.5" fill-rule="nonzero"/><path stroke="#e6e6e6" stroke-width="1.0" stroke-linecap="butt" d="M80.5 290.5L659.5 290.5" fill-rule="nonzero"/><path stroke="#e6e6e6" stroke-width="1.0" stroke-linecap="butt" d="M80.5 269.5L659.5 269.5" fill-rule="nonzero"/><path stroke="#e6e6e6" stroke-width="1.0" stroke-linecap="butt" d="M80.5 249.5L659.5 249.5" fill-rule="nonzero"/><path stroke="#e6e6e6" stroke-width="1.0" stroke-linecap="butt" d="M80.5 208.5L659.5 208.5" fill-rule="nonzero"/><path stroke="#e6e6e6" stroke-width="1.0" stroke-linecap="butt" d="M80.5 188.5L659.5 188.5" fill-rule="nonzero"/><path stroke="#e6e6e6" stroke-width="1.0" stroke-linecap="butt" d="M80.5 167.5L659.5 167.5" fill-rule="nonzero"/><path stroke="#e6e6e6" stroke-width="1.0" stroke-linecap="butt" d="M80.5 127.5L659.5 127.5" fill-rule="nonzero"/><path stroke="#e6e6e6" stroke-width="1.0" stroke-linecap="butt" d="M80.5 106.5L659.5 106.5" fill-rule="nonzero"/><path stroke="#e6e6e6" stroke-width="1.0" stroke-linecap="butt" d="M80.5 86.5L659.5 86.5" fill-rule="nonzero"/><clipPath id="id_0"><path d="M80.0 66.0L659.0 66.0L659.0 392.0L80.0 392.0L80.0 66.0Z" clip-rule="nonzero"/></clipPath><path stroke="#434343" stroke-width="2.0" stroke-linecap="butt" clip-path="url(#id_0)" d="M88.77273 66.0L106.318184 66.0L123.86364 66.0L141.40909 66.0L158.95454 66.0L176.5 66.0L194.04546 66.0L211.59091 74.15L229.13637 110.825L246.68182 110.825L264.22726 127.125L281.77274 131.2L299.31818 131.2L316.86365 131.2L334.4091 131.2L351.95456 131.2L369.5 131.2L387.04544 147.5L404.5909 147.5L422.13635 147.5L439.68182 147.5L457.22726 147.5L474.77274 147.5L492.31818 147.5L509.86365 171.95L527.4091 171.95L544.9545 188.25L562.5 229.0L580.0455 229.0L597.5909 253.45L615.13635 286.05L632.6818 286.05L650.2273 310.5" fill-rule="nonzero"/><path fill="#434343" clip-path="url(#id_0)" d="M94.77273 66.0C94.77273 69.313705 92.08643 72.0 88.77273 72.0C85.45902 72.0 82.77273 69.313705 82.77273 66.0C82.77273 62.68629 85.45902 60.0 88.77273 60.0C92.08643 60.0 94.77273 62.68629 94.77273 66.0Z" fill-rule="nonzero"/><path fill="#434343" clip-path="url(#id_0)" d="M112.318184 66.0C112.318184 69.313705 109.63189 72.0 106.318184 72.0C103.00447 72.0 100.318184 69.313705 100.318184 66.0C100.318184 62.68629 103.00447 60.0 106.318184 60.0C109.63189 60.0 112.318184 62.68629 112.318184 66.0Z" fill-rule="nonzero"/><path fill="#434343" clip-path="url(#id_0)" d="M129.86363 66.0C129.86363 69.313705 127.177345 72.0 123.86364 72.0C120.54993 72.0 117.86364 69.313705 117.86364 66.0C117.86364 62.68629 120.54993 60.0 123.86364 60.0C127.177345 60.0 129.86363 62.68629 129.86363 66.0Z" fill-rule="nonzero"/><path fill="#434343" clip-path="url(#id_0)" d="M147.40909 66.0C147.40909 69.313705 144.7228 72.0 141.40909 72.0C138.09538 72.0 135.40909 69.313705 135.40909 66.0C135.40909 62.68629 138.09538 60.0 141.40909 60.0C144.7228 60.0 147.40909 62.68629 147.40909 66.0Z" fill-rule="nonzero"/><path fill="#434343" clip-path="url(#id_0)" d="M164.95454 66.0C164.95454 69.313705 162.26825 72.0 158.95454 72.0C155.64084 72.0 152.95454 69.313705 152.95454 66.0C152.95454 62.68629 155.64084 60.0 158.95454 60.0C162.26825 60.0 164.95454 62.68629 164.95454 66.0Z" fill-rule="nonzero"/><path fill="#434343" clip-path="url(#id_0)" d="M182.5 66.0C182.5 69.313705 179.8137 72.0 176.5 72.0C173.1863 72.0 170.5 69.313705 170.5 66.0C170.5 62.68629 173.1863 60.0 176.5 60.0C179.8137 60.0 182.5 62.68629 182.5 66.0Z" fill-rule="nonzero"/><path fill="#434343" clip-path="url(#id_0)" d="M200.04546 66.0C200.04546 69.313705 197.35916 72.0 194.04546 72.0C190.73175 72.0 188.04546 69.313705 188.04546 66.0C188.04546 62.68629 190.73175 60.0 194.04546 60.0C197.35916 60.0 200.04546 62.68629 200.04546 66.0Z" fill-rule="nonzero"/><path fill="#434343" clip-path="url(#id_0)" d="M217.59091 74.15C217.59091 77.46371 214.90462 80.15 211.59091 80.15C208.2772 80.15 205.59091 77.46371 205.59091 74.15C205.59091 70.83629 208.2772 68.15 211.59091 68.15C214.90462 68.15 217.59091 70.83629 217.59091 74.15Z" fill-rule="nonzero"/><path fill="#434343" clip-path="url(#id_0)" d="M235.13637 110.825C235.13637 114.13871 232.45007 116.825 229.13637 116.825C225.82266 116.825 223.13637 114.13871 223.13637 110.825C223.13637 107.51129 225.82266 104.825 229.13637 104.825C232.45007 104.825 235.13637 107.51129 235.13637 110.825Z" fill-rule="nonzero"/><path fill="#434343" clip-path="url(#id_0)" d="M252.68182 110.825C252.68182 114.13871 249.99553 116.825 246.68182 116.825C243.3681 116.825 240.68182 114.13871 240.68182 110.825C240.68182 107.51129 243.3681 104.825 246.68182 104.825C249.99553 104.825 252.68182 107.51129 252.68182 110.825Z" fill-rule="nonzero"/><path fill="#434343" clip-path="url(#id_0)" d="M270.22726 127.125C270.22726 130.4387 267.541 133.125 264.22726 133.125C260.91357 133.125 258.22726 130.4387 258.22726 127.125C258.22726 123.811295 260.91357 121.125 264.22726 121.125C267.541 121.125 270.22726 123.811295 270.22726 127.125Z" fill-rule="nonzero"/><path fill="#434343" clip-path="url(#id_0)" d="M287.77274 131.2C287.77274 134.5137 285.08643 137.2 281.77274 137.2C278.459 137.2 275.77274 134.5137 275.77274 131.2C275.77274 127.88629 278.459 125.2 281.77274 125.2C285.08643 125.2 287.77274 127.88629 287.77274 131.2Z" fill-rule="nonzero"/><path fill="#434343" clip-path="url(#id_0)" d="M305.31818 131.2C305.31818 134.5137 302.6319 137.2 299.31818 137.2C296.0045 137.2 293.31818 134.5137 293.31818 131.2C293.31818 127.88629 296.0045 125.2 299.31818 125.2C302.6319 125.2 305.31818 127.88629 305.31818 131.2Z" fill-rule="nonzero"/><path fill="#434343" clip-path="url(#id_0)" d="M322.86365 131.2C322.86365 134.5137 320.17734 137.2 316.86365 137.2C313.54993 137.2 310.86365 134.5137 310.86365 131.2C310.86365 127.88629 313.54993 125.2 316.86365 125.2C320.17734 125.2 322.86365 127.88629 322.86365 131.2Z" fill-rule="nonzero"/><path fill="#434343" clip-path="url(#id_0)" d="M340.4091 131.2C340.4091 134.5137 337.7228 137.2 334.4091 137.2C331.09537 137.2 328.4091 134.5137 328.4091 131.2C328.4091 127.88629 331.09537 125.2 334.4091 125.2C337.7228 125.2 340.4091 127.88629 340.4091 131.2Z" fill-rule="nonzero"/><path fill="#434343" clip-path="url(#id_0)" d="M357.95456 131.2C357.95456 134.5137 355.26825 137.2 351.95456 137.2C348.64084 137.2 345.95456 134.5137 345.95456 131.2C345.95456 127.88629 348.64084 125.2 351.95456 125.2C355.26825 125.2 357.95456 127.88629 357.95456 131.2Z" fill-rule="nonzero"/><path fill="#434343" clip-path="url(#id_0)" d="M375.5 131.2C375.5 134.5137 372.81372 137.2 369.5 137.2C366.18628 137.2 363.5 134.5137 363.5 131.2C363.5 127.88629 366.18628 125.2 369.5 125.2C372.81372 125.2 375.5 127.88629 375.5 131.2Z" fill-rule="nonzero"/><path fill="#434343" clip-path="url(#id_0)" d="M393.04544 147.5C393.04544 150.8137 390.35916 153.5 387.04544 153.5C383.73175 153.5 381.04544 150.8137 381.04544 147.5C381.04544 144.1863 383.73175 141.5 387.04544 141.5C390.35916 141.5 393.04544 144.1863 393.04544 147.5Z" fill-rule="nonzero"/><path fill="#434343" clip-path="url(#id_0)" d="M410.5909 147.5C410.5909 150.8137 407.90463 153.5 404.5909 153.5C401.2772 153.5 398.5909 150.8137 398.5909 147.5C398.5909 144.1863 401.2772 141.5 404.5909 141.5C407.90463 141.5 410.5909 144.1863 410.5909 147.5Z" fill-rule="nonzero"/><path fill="#434343" clip-path="url(#id_0)" d="M428.13635 147.5C428.13635 150.8137 425.45007 153.5 422.13635 153.5C418.82266 153.5 416.13635 150.8137 416.13635 147.5C416.13635 144.1863 418.82266 141.5 422.13635 141.5C425.45007 141.5 428.13635 144.1863 428.13635 147.5Z" fill-rule="nonzero"/><path fill="#434343" clip-path="url(#id_0)" d="M445.68182 147.5C445.68182 150.8137 442.9955 153.5 439.68182 153.5C436.3681 153.5 433.68182 150.8137 433.68182 147.5C433.68182 144.1863 436.3681 141.5 439.68182 141.5C442.9955 141.5 445.68182 144.1863 445.68182 147.5Z" fill-rule="nonzero"/><path fill="#434343" clip-path="url(#id_0)" d="M463.22726 147.5C463.22726 150.8137 460.541 153.5 457.22726 153.5C453.91357 153.5 451.22726 150.8137 451.22726 147.5C451.22726 144.1863 453.91357 141.5 457.22726 141.5C460.541 141.5 463.22726 144.1863 463.22726 147.5Z" fill-rule="nonzero"/><path fill="#434343" clip-path="url(#id_0)" d="M480.77274 147.5C480.77274 150.8137 478.08643 153.5 474.77274 153.5C471.459 153.5 468.77274 150.8137 468.77274 147.5C468.77274 144.1863 471.459 141.5 474.77274 141.5C478.08643 141.5 480.77274 144.1863 480.77274 147.5Z" fill-rule="nonzero"/><path fill="#434343" clip-path="url(#id_0)" d="M498.31818 147.5C498.31818 150.8137 495.6319 153.5 492.31818 153.5C489.0045 153.5 486.31818 150.8137 486.31818 147.5C486.31818 144.1863 489.0045 141.5 492.31818 141.5C495.6319 141.5 498.31818 144.1863 498.31818 147.5Z" fill-rule="nonzero"/><path fill="#434343" clip-path="url(#id_0)" d="M515.86365 171.95C515.86365 175.2637 513.17737 177.95 509.86365 177.95C506.54993 177.95 503.86365 175.2637 503.86365 171.95C503.86365 168.63629 506.54993 165.95 509.86365 165.95C513.17737 165.95 515.86365 168.63629 515.86365 171.95Z" fill-rule="nonzero"/><path fill="#434343" clip-path="url(#id_0)" d="M533.4091 171.95C533.4091 175.2637 530.7228 177.95 527.4091 177.95C524.0954 177.95 521.4091 175.2637 521.4091 171.95C521.4091 168.63629 524.0954 165.95 527.4091 165.95C530.7228 165.95 533.4091 168.63629 533.4091 171.95Z" fill-rule="nonzero"/><path fill="#434343" clip-path="url(#id_0)" d="M550.9545 188.25C550.9545 191.5637 548.26825 194.25 544.9545 194.25C541.6408 194.25 538.9545 191.5637 538.9545 188.25C538.9545 184.9363 541.6408 182.25 544.9545 182.25C548.26825 182.25 550.9545 184.9363 550.9545 188.25Z" fill-rule="nonzero"/><path fill="#434343" clip-path="url(#id_0)" d="M568.5 229.0C568.5 232.3137 565.8137 235.0 562.5 235.0C559.1863 235.0 556.5 232.3137 556.5 229.0C556.5 225.6863 559.1863 223.0 562.5 223.0C565.8137 223.0 568.5 225.6863 568.5 229.0Z" fill-rule="nonzero"/><path fill="#434343" clip-path="url(#id_0)" d="M586.0455 229.0C586.0455 232.3137 583.3592 235.0 580.0455 235.0C576.73175 235.0 574.0455 232.3137 574.0455 229.0C574.0455 225.6863 576.73175 223.0 580.0455 223.0C583.3592 223.0 586.0455 225.6863 586.0455 229.0Z" fill-rule="nonzero"/><path fill="#434343" clip-path="url(#id_0)" d="M603.5909 253.45C603.5909 256.7637 600.9046 259.45 597.5909 259.45C594.2772 259.45 591.5909 256.7637 591.5909 253.45C591.5909 250.13629 594.2772 247.45 597.5909 247.45C600.9046 247.45 603.5909 250.13629 603.5909 253.45Z" fill-rule="nonzero"/><path fill="#434343" clip-path="url(#id_0)" d="M621.13635 286.05C621.13635 289.3637 618.4501 292.05 615.13635 292.05C611.82263 292.05 609.13635 289.3637 609.13635 286.05C609.13635 282.7363 611.82263 280.05 615.13635 280.05C618.4501 280.05 621.13635 282.7363 621.13635 286.05Z" fill-rule="nonzero"/><path fill="#434343" clip-path="url(#id_0)" d="M638.6818 286.05C638.6818 289.3637 635.99554 292.05 632.6818 292.05C629.3681 292.05 626.6818 289.3637 626.6818 286.05C626.6818 282.7363 629.3681 280.05 632.6818 280.05C635.99554 280.05 638.6818 282.7363 638.6818 286.05Z" fill-rule="nonzero"/><path fill="#434343" clip-path="url(#id_0)" d="M656.2273 310.5C656.2273 313.81372 653.54095 316.5 650.2273 316.5C646.9136 316.5 644.2273 313.81372 644.2273 310.5C644.2273 307.18628 646.9136 304.5 650.2273 304.5C653.54095 304.5 656.2273 307.18628 656.2273 310.5Z" fill-rule="nonzero"/><path fill="#000000" d="M29.234375 244.45312L29.140625 243.39062Q29.796875 243.3125 30.203125 243.03125Q30.609375 242.75 30.875 242.17188Q31.125 241.57812 31.125 240.84375Q31.125 240.20312 30.9375 239.70312Q30.734375 239.20312 30.40625 238.96875Q30.0625 238.71875 29.671875 238.71875Q29.265625 238.71875 28.96875 238.95312Q28.65625 239.1875 28.453125 239.71875Q28.3125 240.07812 28.03125 241.26562Q27.75 242.4375 27.5 242.90625Q27.171875 243.53125 26.703125 243.82812Q26.21875 244.125 25.625 244.125Q24.984375 244.125 24.421875 243.76562Q23.84375 243.39062 23.5625 242.6875Q23.265625 241.96875 23.265625 241.10938Q23.265625 240.15625 23.578125 239.42188Q23.875 238.6875 24.484375 238.29688Q25.078125 237.90625 25.828125 237.875L25.90625 238.96875Q25.09375 239.0625 24.6875 239.57812Q24.265625 240.07812 24.265625 241.0625Q24.265625 242.09375 24.640625 242.5625Q25.015625 243.03125 25.546875 243.03125Q26.015625 243.03125 26.3125 242.70312Q26.609375 242.375 26.921875 241.0Q27.234375 239.60938 27.46875 239.09375Q27.828125 238.34375 28.359375 237.98438Q28.875 237.625 29.578125 237.625Q30.265625 237.625 30.875 238.01562Q31.46875 238.40625 31.8125 239.14062Q32.140625 239.875 32.140625 240.79688Q32.140625 241.96875 31.8125 242.76562Q31.46875 243.54688 30.78125 244.0Q30.09375 244.4375 29.234375 244.45312ZM29.71875 232.14062L29.859375 231.10938Q30.921875 231.28125 31.53125 231.98438Q32.140625 232.6875 32.140625 233.70312Q32.140625 234.98438 31.3125 235.76562Q30.46875 236.53125 28.90625 236.53125Q27.90625 236.53125 27.15625 236.20312Q26.390625 235.85938 26.015625 235.1875Q25.640625 234.5 25.640625 233.6875Q25.640625 232.6875 26.15625 232.04688Q26.65625 231.39062 27.609375 231.20312L27.765625 232.23438Q27.140625 232.375 26.828125 232.75Q26.5 233.125 26.5 233.65625Q26.5 234.45312 27.078125 234.95312Q27.640625 235.45312 28.875 235.45312Q30.140625 235.45312 30.703125 234.96875Q31.265625 234.48438 31.265625 233.71875Q31.265625 233.09375 30.890625 232.6875Q30.515625 232.26562 29.71875 232.14062ZM28.890625 230.59375Q27.15625 230.59375 26.328125 229.64062Q25.640625 228.84375 25.640625 227.6875Q25.640625 226.40625 26.484375 225.59375Q27.3125 224.76562 28.796875 224.76562Q30.0 224.76562 30.6875 225.125Q31.375 225.48438 31.765625 226.1875Q32.140625 226.875 32.140625 227.6875Q32.140625 228.98438 31.3125 229.79688Q30.46875 230.59375 28.890625 230.59375ZM28.890625 229.51562Q30.078125 229.51562 30.671875 229.0Q31.265625 228.46875 31.265625 227.6875Q31.265625 226.89062 30.671875 226.375Q30.078125 225.85938 28.859375 225.85938Q27.703125 225.85938 27.109375 226.39062Q26.515625 226.90625 26.515625 227.6875Q26.515625 228.46875 27.109375 229.0Q27.6875 229.51562 28.890625 229.51562ZM32.0 223.21875L25.78125 223.21875L25.78125 222.26562L26.71875 222.26562Q26.0625 221.90625 25.859375 221.60938Q25.640625 221.29688 25.640625 220.92188Q25.640625 220.39062 25.96875 219.84375L26.953125 220.20312Q26.71875 220.59375 26.71875 220.96875Q26.71875 221.32812 26.9375 221.60938Q27.140625 221.875 27.515625 221.98438Q28.078125 222.17188 28.734375 222.17188L32.0 222.17188L32.0 223.21875ZM30.0 214.95312L30.125 213.85938Q31.078125 214.10938 31.609375 214.8125Q32.140625 215.51562 32.140625 216.59375Q32.140625 217.95312 31.296875 218.76562Q30.453125 219.5625 28.9375 219.5625Q27.375 219.5625 26.515625 218.75Q25.640625 217.9375 25.640625 216.65625Q25.640625 215.40625 26.484375 214.625Q27.328125 213.82812 28.875 213.82812Q28.96875 213.82812 29.15625 213.82812L29.15625 218.46875Q30.1875 218.40625 30.734375 217.89062Q31.265625 217.375 31.265625 216.59375Q31.265625 216.01562 30.96875 215.60938Q30.65625 215.1875 30.0 214.95312ZM28.296875 218.40625L28.296875 214.9375Q27.5 215.0 27.109375 215.32812Q26.5 215.84375 26.5 216.64062Q26.5 217.375 26.984375 217.875Q27.46875 218.35938 28.296875 218.40625Z" fill-rule="nonzero"/><path fill="#000000" d="M67.5 391.76562Q67.5 390.23438 67.8125 389.3125Q68.125 388.375 68.734375 387.875Q69.359375 387.375 70.296875 387.375Q70.984375 387.375 71.5 387.65625Q72.03125 387.9375 72.375 388.46875Q72.71875 388.98438 72.90625 389.73438Q73.09375 390.48438 73.09375 391.76562Q73.09375 393.28125 72.78125 394.20312Q72.484375 395.125 71.859375 395.64062Q71.25 396.14062 70.296875 396.14062Q69.0625 396.14062 68.34375 395.25Q67.5 394.1875 67.5 391.76562ZM68.578125 391.76562Q68.578125 393.875 69.078125 394.57812Q69.578125 395.28125 70.296875 395.28125Q71.03125 395.28125 71.515625 394.57812Q72.015625 393.875 72.015625 391.76562Q72.015625 389.64062 71.515625 388.95312Q71.03125 388.25 70.28125 388.25Q69.5625 388.25 69.125 388.85938Q68.578125 389.64062 68.578125 391.76562Z" fill-rule="nonzero"/><path fill="#000000" d="M57.46875 314.5L56.421875 314.5L56.421875 307.78125Q56.03125 308.14062 55.40625 308.51562Q54.796875 308.875 54.3125 309.04688L54.3125 308.03125Q55.1875 307.60938 55.84375 307.03125Q56.515625 306.4375 56.796875 305.875L57.46875 305.875L57.46875 314.5ZM60.5 310.26562Q60.5 308.73438 60.8125 307.8125Q61.125 306.875 61.734375 306.375Q62.359375 305.875 63.296875 305.875Q63.984375 305.875 64.5 306.15625Q65.03125 306.4375 65.375 306.96875Q65.71875 307.48438 65.90625 308.23438Q66.09375 308.98438 66.09375 310.26562Q66.09375 311.78125 65.78125 312.70312Q65.484375 313.625 64.859375 314.14062Q64.25 314.64062 63.296875 314.64062Q62.0625 314.64062 61.34375 313.75Q60.5 312.6875 60.5 310.26562ZM61.578125 310.26562Q61.578125 312.375 62.078125 313.07812Q62.578125 313.78125 63.296875 313.78125Q64.03125 313.78125 64.515625 313.07812Q65.015625 312.375 65.015625 310.26562Q65.015625 308.14062 64.515625 307.45312Q64.03125 306.75 63.28125 306.75Q62.5625 306.75 62.125 307.35938Q61.578125 308.14062 61.578125 310.26562ZM67.5 310.26562Q67.5 308.73438 67.8125 307.8125Q68.125 306.875 68.734375 306.375Q69.359375 305.875 70.296875 305.875Q70.984375 305.875 71.5 306.15625Q72.03125 306.4375 72.375 306.96875Q72.71875 307.48438 72.90625 308.23438Q73.09375 308.98438 73.09375 310.26562Q73.09375 311.78125 72.78125 312.70312Q72.484375 313.625 71.859375 314.14062Q71.25 314.64062 70.296875 314.64062Q69.0625 314.64062 68.34375 313.75Q67.5 312.6875 67.5 310.26562ZM68.578125 310.26562Q68.578125 312.375 69.078125 313.07812Q69.578125 313.78125 70.296875 313.78125Q71.03125 313.78125 71.515625 313.07812Q72.015625 312.375 72.015625 310.26562Q72.015625 308.14062 71.515625 307.45312Q71.03125 306.75 70.28125 306.75Q69.5625 306.75 69.125 307.35938Q68.578125 308.14062 68.578125 310.26562Z" fill-rule="nonzero"/><path fill="#000000" d="M59.046875 231.98438L59.046875 233.0L53.359375 233.0Q53.359375 232.625 53.484375 232.26562Q53.703125 231.6875 54.171875 231.125Q54.65625 230.5625 55.5625 229.82812Q56.96875 228.67188 57.453125 228.0Q57.953125 227.32812 57.953125 226.73438Q57.953125 226.10938 57.5 225.6875Q57.046875 225.25 56.328125 225.25Q55.5625 225.25 55.109375 225.70312Q54.65625 226.15625 54.640625 226.96875L53.5625 226.85938Q53.671875 225.64062 54.390625 225.01562Q55.125 224.375 56.359375 224.375Q57.59375 224.375 58.3125 225.0625Q59.03125 225.75 59.03125 226.76562Q59.03125 227.28125 58.8125 227.78125Q58.609375 228.26562 58.109375 228.82812Q57.625 229.375 56.5 230.32812Q55.546875 231.125 55.265625 231.42188Q55.0 231.70312 54.828125 231.98438L59.046875 231.98438ZM60.5 228.76562Q60.5 227.23438 60.8125 226.3125Q61.125 225.375 61.734375 224.875Q62.359375 224.375 63.296875 224.375Q63.984375 224.375 64.5 224.65625Q65.03125 224.9375 65.375 225.46875Q65.71875 225.98438 65.90625 226.73438Q66.09375 227.48438 66.09375 228.76562Q66.09375 230.28125 65.78125 231.20312Q65.484375 232.125 64.859375 232.64062Q64.25 233.14062 63.296875 233.14062Q62.0625 233.14062 61.34375 232.25Q60.5 231.1875 60.5 228.76562ZM61.578125 228.76562Q61.578125 230.875 62.078125 231.57812Q62.578125 232.28125 63.296875 232.28125Q64.03125 232.28125 64.515625 231.57812Q65.015625 230.875 65.015625 228.76562Q65.015625 226.64062 64.515625 225.95312Q64.03125 225.25 63.28125 225.25Q62.5625 225.25 62.125 225.85938Q61.578125 226.64062 61.578125 228.76562ZM67.5 228.76562Q67.5 227.23438 67.8125 226.3125Q68.125 225.375 68.734375 224.875Q69.359375 224.375 70.296875 224.375Q70.984375 224.375 71.5 224.65625Q72.03125 224.9375 72.375 225.46875Q72.71875 225.98438 72.90625 226.73438Q73.09375 227.48438 73.09375 228.76562Q73.09375 230.28125 72.78125 231.20312Q72.484375 232.125 71.859375 232.64062Q71.25 233.14062 70.296875 233.14062Q69.0625 233.14062 68.34375 232.25Q67.5 231.1875 67.5 228.76562ZM68.578125 228.76562Q68.578125 230.875 69.078125 231.57812Q69.578125 232.28125 70.296875 232.28125Q71.03125 232.28125 71.515625 231.57812Q72.015625 230.875 72.015625 228.76562Q72.015625 226.64062 71.515625 225.95312Q71.03125 225.25 70.28125 225.25Q69.5625 225.25 69.125 225.85938Q68.578125 226.64062 68.578125 228.76562Z" fill-rule="nonzero"/><path fill="#000000" d="M53.5 149.23438L54.5625 149.09375Q54.734375 149.98438 55.171875 150.39062Q55.609375 150.78125 56.234375 150.78125Q56.984375 150.78125 57.5 150.26562Q58.015625 149.75 58.015625 148.98438Q58.015625 148.26562 57.53125 147.79688Q57.0625 147.3125 56.328125 147.3125Q56.03125 147.3125 55.578125 147.4375L55.703125 146.5Q55.8125 146.51562 55.875 146.51562Q56.546875 146.51562 57.078125 146.17188Q57.625 145.8125 57.625 145.07812Q57.625 144.5 57.234375 144.125Q56.84375 143.73438 56.21875 143.73438Q55.609375 143.73438 55.1875 144.125Q54.78125 144.51562 54.671875 145.28125L53.609375 145.09375Q53.796875 144.04688 54.484375 143.46875Q55.171875 142.875 56.1875 142.875Q56.890625 142.875 57.484375 143.1875Q58.078125 143.48438 58.390625 144.0Q58.703125 144.51562 58.703125 145.10938Q58.703125 145.65625 58.40625 146.125Q58.109375 146.57812 57.53125 146.84375Q58.28125 147.01562 58.703125 147.57812Q59.125 148.125 59.125 148.96875Q59.125 150.09375 58.296875 150.875Q57.484375 151.65625 56.234375 151.65625Q55.109375 151.65625 54.359375 150.98438Q53.609375 150.29688 53.5 149.23438ZM60.5 147.26562Q60.5 145.73438 60.8125 144.8125Q61.125 143.875 61.734375 143.375Q62.359375 142.875 63.296875 142.875Q63.984375 142.875 64.5 143.15625Q65.03125 143.4375 65.375 143.96875Q65.71875 144.48438 65.90625 145.23438Q66.09375 145.98438 66.09375 147.26562Q66.09375 148.78125 65.78125 149.70312Q65.484375 150.625 64.859375 151.14062Q64.25 151.64062 63.296875 151.64062Q62.0625 151.64062 61.34375 150.75Q60.5 149.6875 60.5 147.26562ZM61.578125 147.26562Q61.578125 149.375 62.078125 150.07812Q62.578125 150.78125 63.296875 150.78125Q64.03125 150.78125 64.515625 150.07812Q65.015625 149.375 65.015625 147.26562Q65.015625 145.14062 64.515625 144.45312Q64.03125 143.75 63.28125 143.75Q62.5625 143.75 62.125 144.35938Q61.578125 145.14062 61.578125 147.26562ZM67.5 147.26562Q67.5 145.73438 67.8125 144.8125Q68.125 143.875 68.734375 143.375Q69.359375 142.875 70.296875 142.875Q70.984375 142.875 71.5 143.15625Q72.03125 143.4375 72.375 143.96875Q72.71875 144.48438 72.90625 145.23438Q73.09375 145.98438 73.09375 147.26562Q73.09375 148.78125 72.78125 149.70312Q72.484375 150.625 71.859375 151.14062Q71.25 151.64062 70.296875 151.64062Q69.0625 151.64062 68.34375 150.75Q67.5 149.6875 67.5 147.26562ZM68.578125 147.26562Q68.578125 149.375 69.078125 150.07812Q69.578125 150.78125 70.296875 150.78125Q71.03125 150.78125 71.515625 150.07812Q72.015625 149.375 72.015625 147.26562Q72.015625 145.14062 71.515625 144.45312Q71.03125 143.75 70.28125 143.75Q69.5625 143.75 69.125 144.35938Q68.578125 145.14062 68.578125 147.26562Z" fill-rule="nonzero"/><path fill="#000000" d="M56.875 70.0L56.875 67.9375L53.15625 67.9375L53.15625 66.96875L57.078125 61.40625L57.9375 61.40625L57.9375 66.96875L59.09375 66.96875L59.09375 67.9375L57.9375 67.9375L57.9375 70.0L56.875 70.0ZM56.875 66.96875L56.875 63.109375L54.1875 66.96875L56.875 66.96875ZM60.5 65.765625Q60.5 64.234375 60.8125 63.3125Q61.125 62.375 61.734375 61.875Q62.359375 61.375 63.296875 61.375Q63.984375 61.375 64.5 61.65625Q65.03125 61.9375 65.375 62.46875Q65.71875 62.984375 65.90625 63.734375Q66.09375 64.484375 66.09375 65.765625Q66.09375 67.28125 65.78125 68.203125Q65.484375 69.125 64.859375 69.640625Q64.25 70.140625 63.296875 70.140625Q62.0625 70.140625 61.34375 69.25Q60.5 68.1875 60.5 65.765625ZM61.578125 65.765625Q61.578125 67.875 62.078125 68.578125Q62.578125 69.28125 63.296875 69.28125Q64.03125 69.28125 64.515625 68.578125Q65.015625 67.875 65.015625 65.765625Q65.015625 63.640625 64.515625 62.953125Q64.03125 62.25 63.28125 62.25Q62.5625 62.25 62.125 62.859375Q61.578125 63.640625 61.578125 65.765625ZM67.5 65.765625Q67.5 64.234375 67.8125 63.3125Q68.125 62.375 68.734375 61.875Q69.359375 61.375 70.296875 61.375Q70.984375 61.375 71.5 61.65625Q72.03125 61.9375 72.375 62.46875Q72.71875 62.984375 72.90625 63.734375Q73.09375 64.484375 73.09375 65.765625Q73.09375 67.28125 72.78125 68.203125Q72.484375 69.125 71.859375 69.640625Q71.25 70.140625 70.296875 70.140625Q69.0625 70.140625 68.34375 69.25Q67.5 68.1875 67.5 65.765625ZM68.578125 65.765625Q68.578125 67.875 69.078125 68.578125Q69.578125 69.28125 70.296875 69.28125Q71.03125 69.28125 71.515625 68.578125Q72.015625 67.875 72.015625 65.765625Q72.015625 63.640625 71.515625 62.953125Q71.03125 62.25 70.28125 62.25Q69.5625 62.25 69.125 62.859375Q68.578125 63.640625 68.578125 65.765625Z" fill-rule="nonzero"/><path fill="#757575" d="M26.1875 40.0L26.1875 27.375L21.46875 27.375L21.46875 25.6875L32.8125 25.6875L32.8125 27.375L28.078125 27.375L28.078125 40.0L26.1875 40.0ZM33.671875 34.8125Q33.671875 31.9375 35.265625 30.546875Q36.609375 29.390625 38.53125 29.390625Q40.671875 29.390625 42.015625 30.796875Q43.375 32.203125 43.375 34.671875Q43.375 36.671875 42.78125 37.828125Q42.1875 38.96875 41.03125 39.609375Q39.890625 40.234375 38.53125 40.234375Q36.34375 40.234375 35.0 38.84375Q33.671875 37.4375 33.671875 34.8125ZM35.46875 34.8125Q35.46875 36.8125 36.328125 37.796875Q37.203125 38.78125 38.53125 38.78125Q39.84375 38.78125 40.703125 37.796875Q41.578125 36.796875 41.578125 34.75Q41.578125 32.828125 40.703125 31.84375Q39.828125 30.84375 38.53125 30.84375Q37.203125 30.84375 36.328125 31.84375Q35.46875 32.828125 35.46875 34.8125ZM49.15625 38.421875L49.40625 39.984375Q48.671875 40.140625 48.078125 40.140625Q47.125 40.140625 46.59375 39.84375Q46.078125 39.53125 45.859375 39.046875Q45.640625 38.546875 45.640625 36.96875L45.640625 31.0L44.359375 31.0L44.359375 29.625L45.640625 29.625L45.640625 27.0625L47.390625 26.0L47.390625 29.625L49.15625 29.625L49.15625 31.0L47.390625 31.0L47.390625 37.0625Q47.390625 37.8125 47.484375 38.03125Q47.578125 38.234375 47.78125 38.375Q48.0 38.5 48.390625 38.5Q48.671875 38.5 49.15625 38.421875ZM58.09375 38.71875Q57.109375 39.546875 56.203125 39.890625Q55.296875 40.234375 54.265625 40.234375Q52.5625 40.234375 51.640625 39.40625Q50.71875 38.5625 50.71875 37.265625Q50.71875 36.5 51.0625 35.875Q51.421875 35.25 51.984375 34.875Q52.546875 34.484375 53.25 34.28125Q53.765625 34.15625 54.8125 34.015625Q56.9375 33.765625 57.9375 33.421875Q57.953125 33.0625 57.953125 32.953125Q57.953125 31.890625 57.453125 31.4375Q56.78125 30.84375 55.453125 30.84375Q54.203125 30.84375 53.609375 31.28125Q53.03125 31.71875 52.75 32.828125L51.03125 32.59375Q51.265625 31.484375 51.796875 30.8125Q52.328125 30.125 53.34375 29.765625Q54.359375 29.390625 55.703125 29.390625Q57.03125 29.390625 57.859375 29.703125Q58.6875 30.015625 59.078125 30.5Q59.46875 30.96875 59.625 31.6875Q59.71875 32.140625 59.71875 33.3125L59.71875 35.65625Q59.71875 38.109375 59.828125 38.765625Q59.9375 39.40625 60.28125 40.0L58.4375 40.0Q58.171875 39.453125 58.09375 38.71875ZM57.9375 34.796875Q56.984375 35.1875 55.0625 35.453125Q53.984375 35.609375 53.53125 35.8125Q53.09375 36.0 52.84375 36.375Q52.59375 36.75 52.59375 37.21875Q52.59375 37.921875 53.125 38.390625Q53.65625 38.859375 54.6875 38.859375Q55.703125 38.859375 56.484375 38.421875Q57.28125 37.96875 57.65625 37.203125Q57.9375 36.59375 57.9375 35.4375L57.9375 34.796875ZM62.28125 40.0L62.28125 25.6875L64.03125 25.6875L64.03125 40.0L62.28125 40.0Z" fill-rule="nonzero"/></svg>