<svg version="1.1" viewBox="0.0 0.0 600.0 371.0" fill="none" stroke="none" stroke-linecap="square" stroke-miterlimit="10" width="600" height="371" xmlns:xlink="http://www.w3.org/1999/xlink" xmlns="http://www.w3.org/2000/svg"><path fill="#ffffff" d="M0 0L600.0 0L600.0 371.0L0 371.0L0 0Z" fill-rule="nonzero"/><path stroke="#333333" stroke-width="1.0" stroke-linecap="butt" d="M72.5 346.5L581.5 346.5" fill-rule="nonzero"/><path stroke="#cccccc" stroke-width="1.0" stroke-linecap="butt" d="M72.5 317.5L581.5 317.5" fill-rule="nonzero"/><path stroke="#cccccc" stroke-width="1.0" stroke-linecap="butt" d="M72.5 288.5L581.5 288.5" fill-rule="nonzero"/><path stroke="#cccccc" stroke-width="1.0" stroke-linecap="butt" d="M72.5 259.5L581.5 259.5" fill-rule="nonzero"/><path stroke="#cccccc" stroke-width="1.0" stroke-linecap="butt" d="M72.5 230.5L581.5 230.5" fill-rule="nonzero"/><path stroke="#cccccc" stroke-width="1.0" stroke-linecap="butt" d="M72.5 201.5L581.5 201.5" fill-rule="nonzero"/><path stroke="#cccccc" stroke-width="1.0" stroke-linecap="butt" d="M72.5 172.5L581.5 172.5" fill-rule="nonzero"/><path stroke="#cccccc" stroke-width="1.0" stroke-linecap="butt" d="M72.5 143.5L581.5 143.5" fill-rule="nonzero"/><path stroke="#cccccc" stroke-width="1.0" stroke-linecap="butt" d="M72.5 114.5L581.5 114.5" fill-rule="nonzero"/><path stroke="#cccccc" stroke-width="1.0" stroke-linecap="butt" d="M72.5 85.5L581.5 85.5" fill-rule="nonzero"/><path stroke="#cccccc" stroke-width="1.0" stroke-linecap="butt" d="M72.5 56.5L581.5 56.5" fill-rule="nonzero"/><clipPath id="id_0"><path d="M72.55 56.916668L581.45 56.916668L581.45 346.45L72.55 346.45L72.55 56.916668Z" clip-rule="nonzero"/></clipPath><path stroke="#434343" stroke-width="2.0" stroke-linecap="butt" clip-path="url(#id_0)" d="M77.74286 56.916668L88.12857 56.916668L98.51428 56.916668L108.9 56.916668L119.28571 56.916668L129.67143 56.916668L140.05714 56.916668L150.44286 56.916668L160.82857 56.916668L171.21428 56.916668L181.6 56.916668L191.98572 56.916668L202.37143 56.916668L212.75714 56.916668L223.14285 56.916668L233.52856 56.916668L243.91429 56.916668L254.3 56.916668L264.6857 137.986L275.07144 137.986L285.45715 137.986L295.84286 137.986L306.22858 137.986L316.6143 137.986L327.0 137.986L337.3857 221.95067L347.77142 221.95067L358.15714 259.59L368.54285 259.59L378.92856 259.59L389.3143 274.06668L399.7 274.06668L410.08572 274.06668L420.47144 274.06668L430.85715 308.81067L441.24286 308.81067L451.62857 308.81067L462.01428 308.81067L472.4 308.81067L482.7857 308.81067L493.17142 308.81067L503.55713 311.706L513.9429 311.706L524.32855 311.706L534.7143 346.45L545.1 346.45L555.4857 346.45L565.8714 346.45L576.25714 346.45" fill-rule="nonzero"/><path fill="#434343" clip-path="url(#id_0)" d="M83.74286 56.916668C83.74286 60.230373 81.056564 62.916668 77.74286 62.916668C74.429146 62.916668 71.74286 60.230373 71.74286 56.916668C71.74286 53.60296 74.429146 50.916668 77.74286 50.916668C81.056564 50.916668 83.74286 53.60296 83.74286 56.916668Z" fill-rule="nonzero"/><path fill="#434343" clip-path="url(#id_0)" d="M94.12857 56.916668C94.12857 60.230373 91.44228 62.916668 88.12857 62.916668C84.814865 62.916668 82.12857 60.230373 82.12857 56.916668C82.12857 53.60296 84.814865 50.916668 88.12857 50.916668C91.44228 50.916668 94.12857 53.60296 94.12857 56.916668Z" fill-rule="nonzero"/><path fill="#434343" clip-path="url(#id_0)" d="M104.51428 56.916668C104.51428 60.230373 101.827995 62.916668 98.51428 62.916668C95.20058 62.916668 92.51428 60.230373 92.51428 56.916668C92.51428 53.60296 95.20058 50.916668 98.51428 50.916668C101.827995 50.916668 104.51428 53.60296 104.51428 56.916668Z" fill-rule="nonzero"/><path fill="#434343" clip-path="url(#id_0)" d="M114.9 56.916668C114.9 60.230373 112.21371 62.916668 108.9 62.916668C105.58629 62.916668 102.9 60.230373 102.9 56.916668C102.9 53.60296 105.58629 50.916668 108.9 50.916668C112.21371 50.916668 114.9 53.60296 114.9 56.916668Z" fill-rule="nonzero"/><path fill="#434343" clip-path="url(#id_0)" d="M125.28571 56.916668C125.28571 60.230373 122.59943 62.916668 119.28571 62.916668C115.97201 62.916668 113.28571 60.230373 113.28571 56.916668C113.28571 53.60296 115.97201 50.916668 119.28571 50.916668C122.59943 50.916668 125.28571 53.60296 125.28571 56.916668Z" fill-rule="nonzero"/><path fill="#434343" clip-path="url(#id_0)" d="M135.67143 56.916668C135.67143 60.230373 132.98514 62.916668 129.67143 62.916668C126.35772 62.916668 123.671425 60.230373 123.671425 56.916668C123.671425 53.60296 126.35772 50.916668 129.67143 50.916668C132.98514 50.916668 135.67143 53.60296 135.67143 56.916668Z" fill-rule="nonzero"/><path fill="#434343" clip-path="url(#id_0)" d="M146.05714 56.916668C146.05714 60.230373 143.37085 62.916668 140.05714 62.916668C136.74344 62.916668 134.05714 60.230373 134.05714 56.916668C134.05714 53.60296 136.74344 50.916668 140.05714 50.916668C143.37085 50.916668 146.05714 53.60296 146.05714 56.916668Z" fill-rule="nonzero"/><path fill="#434343" clip-path="url(#id_0)" d="M156.44286 56.916668C156.44286 60.230373 153.75656 62.916668 150.44286 62.916668C147.12915 62.916668 144.44286 60.230373 144.44286 56.916668C144.44286 53.60296 147.12915 50.916668 150.44286 50.916668C153.75656 50.916668 156.44286 53.60296 156.44286 56.916668Z" fill-rule="nonzero"/><path fill="#434343" clip-path="url(#id_0)" d="M166.82857 56.916668C166.82857 60.230373 164.14227 62.916668 160.82857 62.916668C157.51486 62.916668 154.82857 60.230373 154.82857 56.916668C154.82857 53.60296 157.51486 50.916668 160.82857 50.916668C164.14227 50.916668 166.82857 53.60296 166.82857 56.916668Z" fill-rule="nonzero"/><path fill="#434343" clip-path="url(#id_0)" d="M177.21428 56.916668C177.21428 60.230373 174.528 62.916668 171.21428 62.916668C167.90057 62.916668 165.21428 60.230373 165.21428 56.916668C165.21428 53.60296 167.90057 50.916668 171.21428 50.916668C174.528 50.916668 177.21428 53.60296 177.21428 56.916668Z" fill-rule="nonzero"/><path fill="#434343" clip-path="url(#id_0)" d="M187.6 56.916668C187.6 60.230373 184.91371 62.916668 181.6 62.916668C178.28629 62.916668 175.6 60.230373 175.6 56.916668C175.6 53.60296 178.28629 50.916668 181.6 50.916668C184.91371 50.916668 187.6 53.60296 187.6 56.916668Z" fill-rule="nonzero"/><path fill="#434343" clip-path="url(#id_0)" d="M197.98572 56.916668C197.98572 60.230373 195.29942 62.916668 191.98572 62.916668C188.67201 62.916668 185.98572 60.230373 185.98572 56.916668C185.98572 53.60296 188.67201 50.916668 191.98572 50.916668C195.29942 50.916668 197.98572 53.60296 197.98572 56.916668Z" fill-rule="nonzero"/><path fill="#434343" clip-path="url(#id_0)" d="M208.37143 56.916668C208.37143 60.230373 205.68513 62.916668 202.37143 62.916668C199.05772 62.916668 196.37143 60.230373 196.37143 56.916668C196.37143 53.60296 199.05772 50.916668 202.37143 50.916668C205.68513 50.916668 208.37143 53.60296 208.37143 56.916668Z" fill-rule="nonzero"/><path fill="#434343" clip-path="url(#id_0)" d="M218.75714 56.916668C218.75714 60.230373 216.07085 62.916668 212.75714 62.916668C209.44344 62.916668 206.75714 60.230373 206.75714 56.916668C206.75714 53.60296 209.44344 50.916668 212.75714 50.916668C216.07085 50.916668 218.75714 53.60296 218.75714 56.916668Z" fill-rule="nonzero"/><path fill="#434343" clip-path="url(#id_0)" d="M229.14285 56.916668C229.14285 60.230373 226.45656 62.916668 223.14285 62.916668C219.82915 62.916668 217.14285 60.230373 217.14285 56.916668C217.14285 53.60296 219.82915 50.916668 223.14285 50.916668C226.45656 50.916668 229.14285 53.60296 229.14285 56.916668Z" fill-rule="nonzero"/><path fill="#434343" clip-path="url(#id_0)" d="M239.52856 56.916668C239.52856 60.230373 236.84229 62.916668 233.52856 62.916668C230.21486 62.916668 227.52856 60.230373 227.52856 56.916668C227.52856 53.60296 230.21486 50.916668 233.52856 50.916668C236.84229 50.916668 239.52856 53.60296 239.52856 56.916668Z" fill-rule="nonzero"/><path fill="#434343" clip-path="url(#id_0)" d="M249.91429 56.916668C249.91429 60.230373 247.228 62.916668 243.91429 62.916668C240.60057 62.916668 237.91429 60.230373 237.91429 56.916668C237.91429 53.60296 240.60057 50.916668 243.91429 50.916668C247.228 50.916668 249.91429 53.60296 249.91429 56.916668Z" fill-rule="nonzero"/><path fill="#434343" clip-path="url(#id_0)" d="M260.3 56.916668C260.3 60.230373 257.6137 62.916668 254.3 62.916668C250.9863 62.916668 248.3 60.230373 248.3 56.916668C248.3 53.60296 250.9863 50.916668 254.3 50.916668C257.6137 50.916668 260.3 53.60296 260.3 56.916668Z" fill-rule="nonzero"/><path fill="#434343" clip-path="url(#id_0)" d="M270.6857 137.986C270.6857 141.29971 267.99942 143.986 264.6857 143.986C261.372 143.986 258.6857 141.29971 258.6857 137.986C258.6857 134.67229 261.372 131.986 264.6857 131.986C267.99942 131.986 270.6857 134.67229 270.6857 137.986Z" fill-rule="nonzero"/><path fill="#434343" clip-path="url(#id_0)" d="M281.07144 137.986C281.07144 141.29971 278.38513 143.986 275.07144 143.986C271.75772 143.986 269.07144 141.29971 269.07144 137.986C269.07144 134.67229 271.75772 131.986 275.07144 131.986C278.38513 131.986 281.07144 134.67229 281.07144 137.986Z" fill-rule="nonzero"/><path fill="#434343" clip-path="url(#id_0)" d="M291.45715 137.986C291.45715 141.29971 288.77084 143.986 285.45715 143.986C282.14343 143.986 279.45715 141.29971 279.45715 137.986C279.45715 134.67229 282.14343 131.986 285.45715 131.986C288.77084 131.986 291.45715 134.67229 291.45715 137.986Z" fill-rule="nonzero"/><path fill="#434343" clip-path="url(#id_0)" d="M301.84286 137.986C301.84286 141.29971 299.15656 143.986 295.84286 143.986C292.52914 143.986 289.84286 141.29971 289.84286 137.986C289.84286 134.67229 292.52914 131.986 295.84286 131.986C299.15656 131.986 301.84286 134.67229 301.84286 137.986Z" fill-rule="nonzero"/><path fill="#434343" clip-path="url(#id_0)" d="M312.22858 137.986C312.22858 141.29971 309.54227 143.986 306.22858 143.986C302.91486 143.986 300.22858 141.29971 300.22858 137.986C300.22858 134.67229 302.91486 131.986 306.22858 131.986C309.54227 131.986 312.22858 134.67229 312.22858 137.986Z" fill-rule="nonzero"/><path fill="#434343" clip-path="url(#id_0)" d="M322.6143 137.986C322.6143 141.29971 319.928 143.986 316.6143 143.986C313.30057 143.986 310.6143 141.29971 310.6143 137.986C310.6143 134.67229 313.30057 131.986 316.6143 131.986C319.928 131.986 322.6143 134.67229 322.6143 137.986Z" fill-rule="nonzero"/><path fill="#434343" clip-path="url(#id_0)" d="M333.0 137.986C333.0 141.29971 330.31372 143.986 327.0 143.986C323.68628 143.986 321.0 141.29971 321.0 137.986C321.0 134.67229 323.68628 131.986 327.0 131.986C330.31372 131.986 333.0 134.67229 333.0 137.986Z" fill-rule="nonzero"/><path fill="#434343" clip-path="url(#id_0)" d="M343.3857 221.95067C343.3857 225.26437 340.69943 227.95067 337.3857 227.95067C334.072 227.95067 331.3857 225.26437 331.3857 221.95067C331.3857 218.63696 334.072 215.95067 337.3857 215.95067C340.69943 215.95067 343.3857 218.63696 343.3857 221.95067Z" fill-rule="nonzero"/><path fill="#434343" clip-path="url(#id_0)" d="M353.77142 221.95067C353.77142 225.26437 351.08514 227.95067 347.77142 227.95067C344.45773 227.95067 341.77142 225.26437 341.77142 221.95067C341.77142 218.63696 344.45773 215.95067 347.77142 215.95067C351.08514 215.95067 353.77142 218.63696 353.77142 221.95067Z" fill-rule="nonzero"/><path fill="#434343" clip-path="url(#id_0)" d="M364.15714 259.59C364.15714 262.90372 361.47086 265.59 358.15714 265.59C354.84344 265.59 352.15714 262.90372 352.15714 259.59C352.15714 256.2763 354.84344 253.59 358.15714 253.59C361.47086 253.59 364.15714 256.2763 364.15714 259.59Z" fill-rule="nonzero"/><path fill="#434343" clip-path="url(#id_0)" d="M374.54285 259.59C374.54285 262.90372 371.85657 265.59 368.54285 265.59C365.22916 265.59 362.54285 262.90372 362.54285 259.59C362.54285 256.2763 365.22916 253.59 368.54285 253.59C371.85657 253.59 374.54285 256.2763 374.54285 259.59Z" fill-rule="nonzero"/><path fill="#434343" clip-path="url(#id_0)" d="M384.92856 259.59C384.92856 262.90372 382.24228 265.59 378.92856 265.59C375.61487 265.59 372.92856 262.90372 372.92856 259.59C372.92856 256.2763 375.61487 253.59 378.92856 253.59C382.24228 253.59 384.92856 256.2763 384.92856 259.59Z" fill-rule="nonzero"/><path fill="#434343" clip-path="url(#id_0)" d="M395.3143 274.06668C395.3143 277.38037 392.628 280.06668 389.3143 280.06668C386.00058 280.06668 383.3143 277.38037 383.3143 274.06668C383.3143 270.75296 386.00058 268.06668 389.3143 268.06668C392.628 268.06668 395.3143 270.75296 395.3143 274.06668Z" fill-rule="nonzero"/><path fill="#434343" clip-path="url(#id_0)" d="M405.7 274.06668C405.7 277.38037 403.0137 280.06668 399.7 280.06668C396.3863 280.06668 393.7 277.38037 393.7 274.06668C393.7 270.75296 396.3863 268.06668 399.7 268.06668C403.0137 268.06668 405.7 270.75296 405.7 274.06668Z" fill-rule="nonzero"/><path fill="#434343" clip-path="url(#id_0)" d="M416.08572 274.06668C416.08572 277.38037 413.3994 280.06668 410.08572 280.06668C406.772 280.06668 404.08572 277.38037 404.08572 274.06668C404.08572 270.75296 406.772 268.06668 410.08572 268.06668C413.3994 268.06668 416.08572 270.75296 416.08572 274.06668Z" fill-rule="nonzero"/><path fill="#434343" clip-path="url(#id_0)" d="M426.47144 274.06668C426.47144 277.38037 423.78513 280.06668 420.47144 280.06668C417.1577 280.06668 414.47144 277.38037 414.47144 274.06668C414.47144 270.75296 417.1577 268.06668 420.47144 268.06668C423.78513 268.06668 426.47144 270.75296 426.47144 274.06668Z" fill-rule="nonzero"/><path fill="#434343" clip-path="url(#id_0)" d="M436.85715 308.81067C436.85715 312.1244 434.17084 314.81067 430.85715 314.81067C427.54343 314.81067 424.85715 312.1244 424.85715 308.81067C424.85715 305.49695 427.54343 302.81067 430.85715 302.81067C434.17084 302.81067 436.85715 305.49695 436.85715 308.81067Z" fill-rule="nonzero"/><path fill="#434343" clip-path="url(#id_0)" d="M447.24286 308.81067C447.24286 312.1244 444.55658 314.81067 441.24286 314.81067C437.92914 314.81067 435.24286 312.1244 435.24286 308.81067C435.24286 305.49695 437.92914 302.81067 441.24286 302.81067C444.55658 302.81067 447.24286 305.49695 447.24286 308.81067Z" fill-rule="nonzero"/><path fill="#434343" clip-path="url(#id_0)" d="M457.62857 308.81067C457.62857 312.1244 454.9423 314.81067 451.62857 314.81067C448.31485 314.81067 445.62857 312.1244 445.62857 308.81067C445.62857 305.49695 448.31485 302.81067 451.62857 302.81067C454.9423 302.81067 457.62857 305.49695 457.62857 308.81067Z" fill-rule="nonzero"/><path fill="#434343" clip-path="url(#id_0)" d="M468.01428 308.81067C468.01428 312.1244 465.328 314.81067 462.01428 314.81067C458.7006 314.81067 456.01428 312.1244 456.01428 308.81067C456.01428 305.49695 458.7006 302.81067 462.01428 302.81067C465.328 302.81067 468.01428 305.49695 468.01428 308.81067Z" fill-rule="nonzero"/><path fill="#434343" clip-path="url(#id_0)" d="M478.4 308.81067C478.4 312.1244 475.7137 314.81067 472.4 314.81067C469.0863 314.81067 466.4 312.1244 466.4 308.81067C466.4 305.49695 469.0863 302.81067 472.4 302.81067C475.7137 302.81067 478.4 305.49695 478.4 308.81067Z" fill-rule="nonzero"/><path fill="#434343" clip-path="url(#id_0)" d="M488.7857 308.81067C488.7857 312.1244 486.09943 314.81067 482.7857 314.81067C479.47202 314.81067 476.7857 312.1244 476.7857 308.81067C476.7857 305.49695 479.47202 302.81067 482.7857 302.81067C486.09943 302.81067 488.7857 305.49695 488.7857 308.81067Z" fill-rule="nonzero"/><path fill="#434343" clip-path="url(#id_0)" d="M499.17142 308.81067C499.17142 312.1244 496.48514 314.81067 493.17142 314.81067C489.85773 314.81067 487.17142 312.1244 487.17142 308.81067C487.17142 305.49695 489.85773 302.81067 493.17142 302.81067C496.48514 302.81067 499.17142 305.49695 499.17142 308.81067Z" fill-rule="nonzero"/><path fill="#434343" clip-path="url(#id_0)" d="M509.55713 311.706C509.55713 315.0197 506.87085 317.706 503.55713 317.706C500.24344 317.706 497.55713 315.0197 497.55713 311.706C497.55713 308.3923 500.24344 305.706 503.55713 305.706C506.87085 305.706 509.55713 308.3923 509.55713 311.706Z" fill-rule="nonzero"/><path fill="#434343" clip-path="url(#id_0)" d="M519.9429 311.706C519.9429 315.0197 517.2566 317.706 513.9429 317.706C510.62915 317.706 507.94287 315.0197 507.94287 311.706C507.94287 308.3923 510.62915 305.706 513.9429 305.706C517.2566 305.706 519.9429 308.3923 519.9429 311.706Z" fill-rule="nonzero"/><path fill="#434343" clip-path="url(#id_0)" d="M530.32855 311.706C530.32855 315.0197 527.6423 317.706 524.32855 317.706C521.0149 317.706 518.32855 315.0197 518.32855 311.706C518.32855 308.3923 521.0149 305.706 524.32855 305.706C527.6423 305.706 530.32855 308.3923 530.32855 311.706Z" fill-rule="nonzero"/><path fill="#434343" clip-path="url(#id_0)" d="M540.7143 346.45C540.7143 349.7637 538.028 352.45 534.7143 352.45C531.4006 352.45 528.7143 349.7637 528.7143 346.45C528.7143 343.1363 531.4006 340.45 534.7143 340.45C538.028 340.45 540.7143 343.1363 540.7143 346.45Z" fill-rule="nonzero"/><path fill="#434343" clip-path="url(#id_0)" d="M551.1 346.45C551.1 349.7637 548.4137 352.45 545.1 352.45C541.7863 352.45 539.1 349.7637 539.1 346.45C539.1 343.1363 541.7863 340.45 545.1 340.45C548.4137 340.45 551.1 343.1363 551.1 346.45Z" fill-rule="nonzero"/><path fill="#434343" clip-path="url(#id_0)" d="M561.4857 346.45C561.4857 349.7637 558.79944 352.45 555.4857 352.45C552.172 352.45 549.4857 349.7637 549.4857 346.45C549.4857 343.1363 552.172 340.45 555.4857 340.45C558.79944 340.45 561.4857 343.1363 561.4857 346.45Z" fill-rule="nonzero"/><path fill="#434343" clip-path="url(#id_0)" d="M571.8714 346.45C571.8714 349.7637 569.1851 352.45 565.8714 352.45C562.55774 352.45 559.8714 349.7637 559.8714 346.45C559.8714 343.1363 562.55774 340.45 565.8714 340.45C569.1851 340.45 571.8714 343.1363 571.8714 346.45Z" fill-rule="nonzero"/><path fill="#434343" clip-path="url(#id_0)" d="M582.25714 346.45C582.25714 349.7637 579.57086 352.45 576.25714 352.45C572.9434 352.45 570.25714 349.7637 570.25714 346.45C570.25714 343.1363 572.9434 340.45 576.25714 340.45C579.57086 340.45 582.25714 343.1363 582.25714 346.45Z" fill-rule="nonzero"/><path fill="#000000" d="M25.425013 211.10521Q25.956263 211.10521 26.378138 211.30833Q26.784388 211.49583 27.081263 211.85521Q27.362513 212.19896 27.518763 212.66771Q27.659388 213.13646 27.659388 213.68333Q27.659388 214.05833 27.596888 214.38646Q27.534388 214.71458 27.440638 214.96458Q27.346888 215.21458 27.253138 215.40208Q27.143763 215.57396 27.081263 215.63646Q27.003138 215.69896 26.893763 215.73021Q26.784388 215.76146 26.612513 215.76146Q26.471888 215.76146 26.393763 215.76146Q26.300013 215.74583 26.253138 215.73021Q26.206263 215.69896 26.190638 215.66771Q26.159388 215.62083 26.159388 215.57396Q26.159388 215.49583 26.268763 215.35521Q26.362513 215.19896 26.487513 214.96458Q26.596888 214.73021 26.706263 214.40208Q26.800013 214.07396 26.800013 213.63646Q26.800013 213.30833 26.721888 213.04271Q26.628138 212.76146 26.471888 212.57396Q26.300013 212.37083 26.065638 212.26146Q25.831263 212.15208 25.534388 212.15208Q25.206263 212.15208 24.987513 212.30833Q24.753138 212.44896 24.581263 212.69896Q24.409388 212.93333 24.268763 213.24583Q24.128138 213.54271 23.971888 213.87083Q23.815638 214.18333 23.643763 214.49583Q23.456263 214.79271 23.221888 215.04271Q22.971888 215.27708 22.643763 215.43333Q22.300013 215.57396 21.846888 215.57396Q21.362513 215.57396 21.003138 215.40208Q20.628138 215.23021 20.378138 214.93333Q20.112513 214.62083 19.987513 214.19896Q19.862513 213.76146 19.862513 213.27708Q19.862513 213.02708 19.909388 212.77708Q19.940638 212.51146 20.018763 212.29271Q20.096888 212.05833 20.190638 211.88646Q20.268763 211.71458 20.331263 211.66771Q20.378138 211.60521 20.409388 211.58958Q20.440638 211.55833 20.503138 211.55833Q20.550013 211.54271 20.628138 211.54271Q20.690638 211.52708 20.800013 211.52708Q20.909388 211.52708 20.987513 211.54271Q21.065638 211.54271 21.128138 211.57396Q21.175013 211.58958 21.206263 211.62083Q21.237513 211.65208 21.237513 211.68333Q21.237513 211.74583 21.159388 211.88646Q21.065638 212.02708 20.971888 212.23021Q20.862513 212.43333 20.784388 212.69896Q20.690638 212.96458 20.690638 213.30833Q20.690638 213.62083 20.784388 213.85521Q20.862513 214.08958 21.003138 214.24583Q21.143763 214.40208 21.346888 214.48021Q21.534388 214.55833 21.753138 214.55833Q22.065638 214.55833 22.300013 214.41771Q22.518763 214.26146 22.706263 214.02708Q22.878138 213.77708 23.018763 213.46458Q23.159388 213.15208 23.315638 212.83958Q23.471888 212.51146 23.643763 212.19896Q23.815638 211.88646 24.065638 211.65208Q24.315638 211.40208 24.643763 211.26146Q24.971888 211.10521 25.425013 211.10521ZM26.596888 205.49583Q26.706263 205.49583 26.784388 205.51146Q26.846888 205.51146 26.893763 205.52708Q26.940638 205.54271 26.987513 205.55833Q27.018763 205.57396 27.096888 205.65208Q27.175013 205.73021 27.284388 205.90208Q27.378138 206.07396 27.471888 206.29271Q27.550013 206.51146 27.596888 206.77708Q27.659388 207.02708 27.659388 207.30833Q27.659388 207.87083 27.471888 208.30833Q27.284388 208.74583 26.925013 209.04271Q26.565638 209.33958 26.050013 209.49583Q25.518763 209.65208 24.831263 209.65208Q24.050013 209.65208 23.487513 209.46458Q22.925013 209.27708 22.581263 208.94896Q22.221888 208.60521 22.050013 208.16771Q21.878138 207.71458 21.878138 207.19896Q21.878138 206.94896 21.925013 206.71458Q21.971888 206.46458 22.050013 206.27708Q22.112513 206.07396 22.221888 205.91771Q22.315638 205.76146 22.393763 205.69896Q22.456263 205.62083 22.503138 205.58958Q22.534388 205.55833 22.596888 205.54271Q22.643763 205.52708 22.721888 205.52708Q22.784388 205.51146 22.893763 205.51146Q23.128138 205.51146 23.221888 205.57396Q23.300013 205.62083 23.300013 205.69896Q23.300013 205.79271 23.206263 205.90208Q23.112513 206.01146 23.003138 206.19896Q22.878138 206.37083 22.784388 206.62083Q22.690638 206.87083 22.690638 207.19896Q22.690638 207.90208 23.221888 208.27708Q23.753138 208.65208 24.784388 208.65208Q25.284388 208.65208 25.675013 208.55833Q26.050013 208.44896 26.315638 208.26146Q26.565638 208.07396 26.690638 207.80833Q26.815638 207.52708 26.815638 207.18333Q26.815638 206.85521 26.721888 206.60521Q26.612513 206.33958 26.487513 206.16771Q26.362513 205.98021 26.268763 205.85521Q26.159388 205.73021 26.159388 205.65208Q26.159388 205.60521 26.190638 205.58958Q26.206263 205.55833 26.268763 205.54271Q26.315638 205.51146 26.409388 205.51146Q26.487513 205.49583 26.596888 205.49583ZM24.706263 199.38646Q25.346888 199.38646 25.893763 199.55833Q26.440638 199.71458 26.831263 200.05833Q27.221888 200.40208 27.440638 200.90208Q27.659388 201.40208 27.659388 202.07396Q27.659388 202.73021 27.471888 203.21458Q27.268763 203.69896 26.909388 204.02708Q26.534388 204.33958 26.018763 204.49583Q25.487513 204.65208 24.815638 204.65208Q24.175013 204.65208 23.628138 204.49583Q23.081263 204.32396 22.690638 203.99583Q22.300013 203.65208 22.081263 203.15208Q21.862513 202.63646 21.862513 201.96458Q21.862513 201.30833 22.065638 200.83958Q22.253138 200.35521 22.628138 200.02708Q22.987513 199.69896 23.518763 199.54271Q24.050013 199.38646 24.706263 199.38646ZM24.768763 200.40208Q24.346888 200.40208 23.971888 200.48021Q23.581263 200.55833 23.300013 200.74583Q23.003138 200.91771 22.846888 201.23021Q22.675013 201.54271 22.675013 202.01146Q22.675013 202.43333 22.831263 202.74583Q22.971888 203.04271 23.253138 203.24583Q23.534388 203.44896 23.925013 203.54271Q24.300013 203.63646 24.753138 203.63646Q25.175013 203.63646 25.565638 203.55833Q25.940638 203.48021 26.237513 203.30833Q26.518763 203.12083 26.690638 202.80833Q26.846888 202.49583 26.846888 202.02708Q26.846888 201.60521 26.690638 201.29271Q26.534388 200.98021 26.268763 200.79271Q25.987513 200.58958 25.612513 200.49583Q25.221888 200.40208 24.768763 200.40208ZM22.471888 194.19896Q22.596888 194.19896 22.690638 194.21458Q22.784388 194.21458 22.831263 194.23021Q22.878138 194.24583 22.909388 194.27708Q22.925013 194.30833 22.925013 194.35521Q22.925013 194.40208 22.909388 194.46458Q22.878138 194.52708 22.862513 194.62083Q22.831263 194.69896 22.815638 194.80833Q22.784388 194.91771 22.784388 195.04271Q22.784388 195.18333 22.846888 195.32396Q22.893763 195.46458 23.034388 195.62083Q23.159388 195.77708 23.393763 195.94896Q23.612513 196.12083 23.940638 196.32396L27.409388 196.32396Q27.456263 196.32396 27.487513 196.35521Q27.518763 196.37083 27.550013 196.41771Q27.565638 196.46458 27.565638 196.55833Q27.581263 196.65208 27.581263 196.80833Q27.581263 196.94896 27.565638 197.04271Q27.565638 197.13646 27.550013 197.19896Q27.518763 197.24583 27.487513 197.27708Q27.456263 197.29271 27.409388 197.29271L22.128138 197.29271Q22.081263 197.29271 22.050013 197.27708Q22.018763 197.24583 22.003138 197.19896Q21.971888 197.15208 21.956263 197.07396Q21.940638 196.98021 21.940638 196.83958Q21.940638 196.71458 21.956263 196.63646Q21.971888 196.54271 22.003138 196.49583Q22.018763 196.44896 22.050013 196.43333Q22.081263 196.41771 22.128138 196.41771L22.893763 196.41771Q22.581263 196.19896 22.378138 196.01146Q22.175013 195.80833 22.065638 195.65208Q21.956263 195.48021 21.909388 195.30833Q21.862513 195.13646 21.862513 194.96458Q21.862513 194.90208 21.878138 194.80833Q21.878138 194.69896 21.909388 194.60521Q21.925013 194.49583 21.956263 194.41771Q21.987513 194.32396 22.018763 194.29271Q22.050013 194.24583 22.081263 194.24583Q22.096888 194.23021 22.143763 194.23021Q22.175013 194.21458 22.268763 194.21458Q22.346888 194.19896 22.471888 194.19896ZM24.534388 188.79271Q24.768763 188.79271 24.862513 188.90208Q24.956263 189.01146 24.956263 189.16771L24.956263 192.62083Q25.393763 192.62083 25.753138 192.54271Q26.096888 192.44896 26.362513 192.24583Q26.612513 192.02708 26.753138 191.69896Q26.878138 191.37083 26.878138 190.90208Q26.878138 190.52708 26.815638 190.23021Q26.753138 189.93333 26.675013 189.73021Q26.596888 189.51146 26.534388 189.37083Q26.471888 189.23021 26.471888 189.16771Q26.471888 189.12083 26.503138 189.08958Q26.518763 189.05833 26.565638 189.04271Q26.596888 189.02708 26.675013 189.02708Q26.753138 189.01146 26.846888 189.01146Q26.925013 189.01146 26.987513 189.02708Q27.034388 189.02708 27.081263 189.04271Q27.128138 189.04271 27.159388 189.05833Q27.190638 189.07396 27.237513 189.10521Q27.268763 189.13646 27.346888 189.30833Q27.409388 189.46458 27.487513 189.71458Q27.550013 189.96458 27.596888 190.29271Q27.659388 190.62083 27.659388 190.99583Q27.659388 191.65208 27.487513 192.15208Q27.300013 192.63646 26.940638 192.96458Q26.581263 193.29271 26.050013 193.46458Q25.503138 193.63646 24.784388 193.63646Q24.112513 193.63646 23.565638 193.46458Q23.018763 193.29271 22.643763 192.96458Q22.268763 192.62083 22.065638 192.15208Q21.862513 191.68333 21.862513 191.10521Q21.862513 190.48021 22.065638 190.04271Q22.268763 189.60521 22.612513 189.32396Q22.940638 189.04271 23.393763 188.91771Q23.846888 188.79271 24.362513 188.79271L24.534388 188.79271ZM24.253138 189.76146Q23.487513 189.74583 23.065638 190.10521Q22.628138 190.44896 22.628138 191.15208Q22.628138 191.51146 22.768763 191.77708Q22.893763 192.04271 23.112513 192.23021Q23.331263 192.40208 23.628138 192.51146Q23.925013 192.60521 24.253138 192.62083L24.253138 189.76146Z" fill-rule="nonzero"/><path fill="#000000" d="M66.22188 345.6375Q66.22188 346.5125 66.08125 347.23126Q65.94063 347.95 65.6125 348.48126Q65.3 348.9969 64.78438 349.27814Q64.26875 349.5594 63.51875 349.5594Q62.8 349.5594 62.3 349.3094Q61.815624 349.04376 61.51875 348.5594Q61.221874 348.0594 61.096874 347.34064Q60.971874 346.60626 60.971874 345.66876Q60.971874 344.8094 61.1125 344.09064Q61.253124 343.35626 61.565624 342.84064Q61.89375 342.325 62.409374 342.04376Q62.925 341.7625 63.675 341.7625Q64.39375 341.7625 64.87813 342.0125Q65.3625 342.2625 65.65938 342.7625Q65.97188 343.2625 66.09688 343.98126Q66.22188 344.7 66.22188 345.6375ZM65.19063 345.71564Q65.19063 345.1375 65.14375 344.7Q65.09688 344.2469 65.01875 343.90314Q64.94063 343.54376 64.81563 343.29376Q64.69063 343.04376 64.51875 342.8875Q64.34688 342.73126 64.1125 342.65314Q63.89375 342.575 63.6125 342.575Q63.1125 342.575 62.8 342.8094Q62.4875 343.04376 62.3 343.46564Q62.128124 343.8719 62.065624 344.41876Q62.003124 344.96564 62.003124 345.60626Q62.003124 346.45 62.08125 347.04376Q62.175 347.6375 62.3625 348.0125Q62.565624 348.3875 62.8625 348.5594Q63.159374 348.73126 63.58125 348.73126Q63.909374 348.73126 64.14375 348.6375Q64.39375 348.52814 64.56563 348.34064Q64.75313 348.1375 64.8625 347.85626Q64.9875 347.575 65.05 347.2469Q65.12813 346.91876 65.15938 346.52814Q65.19063 346.1375 65.19063 345.71564Z" fill-rule="nonzero"/><path fill="#000000" d="M59.9875 320.09042Q59.9875 320.21542 59.95625 320.29355Q59.940624 320.35605 59.909374 320.40292Q59.89375 320.4498 59.846874 320.48105Q59.815624 320.49667 59.76875 320.49667L55.815624 320.49667Q55.76875 320.49667 55.7375 320.48105Q55.70625 320.4498 55.659374 320.40292Q55.628124 320.35605 55.6125 320.29355Q55.596874 320.21542 55.596874 320.09042Q55.596874 319.99667 55.6125 319.91855Q55.628124 319.84042 55.659374 319.79355Q55.690624 319.74667 55.721874 319.71542Q55.76875 319.68417 55.815624 319.68417L57.39375 319.68417L57.39375 313.91855L55.925 314.79355Q55.815624 314.85605 55.7375 314.87167Q55.675 314.87167 55.628124 314.84042Q55.596874 314.79355 55.58125 314.71542Q55.565624 314.62167 55.565624 314.49667Q55.565624 314.3873 55.565624 314.3248Q55.58125 314.24667 55.596874 314.1998Q55.628124 314.15292 55.659374 314.12167Q55.690624 314.09042 55.7375 314.04355L57.4875 312.93417Q57.503124 312.91855 57.534374 312.90292Q57.58125 312.8873 57.628124 312.8873Q57.690624 312.87167 57.753124 312.87167Q57.83125 312.85605 57.925 312.85605Q58.065624 312.85605 58.159374 312.87167Q58.253124 312.8873 58.3 312.90292Q58.3625 312.91855 58.378124 312.96542Q58.39375 312.99667 58.39375 313.02792L58.39375 319.68417L59.76875 319.68417Q59.815624 319.68417 59.846874 319.71542Q59.89375 319.74667 59.925 319.79355Q59.95625 319.84042 59.971874 319.91855Q59.9875 319.99667 59.9875 320.09042ZM66.22188 316.68417Q66.22188 317.55917 66.08125 318.27792Q65.94063 318.99667 65.6125 319.52792Q65.3 320.04355 64.78438 320.3248Q64.26875 320.60605 63.51875 320.60605Q62.8 320.60605 62.3 320.35605Q61.815624 320.09042 61.51875 319.60605Q61.221874 319.10605 61.096874 318.3873Q60.971874 317.65292 60.971874 316.71542Q60.971874 315.85605 61.1125 315.1373Q61.253124 314.40292 61.565624 313.8873Q61.89375 313.37167 62.409374 313.09042Q62.925 312.80917 63.675 312.80917Q64.39375 312.80917 64.87813 313.05917Q65.3625 313.30917 65.65938 313.80917Q65.97188 314.30917 66.09688 315.02792Q66.22188 315.74667 66.22188 316.68417ZM65.19063 316.7623Q65.19063 316.18417 65.14375 315.74667Q65.09688 315.29355 65.01875 314.9498Q64.94063 314.59042 64.81563 314.34042Q64.69063 314.09042 64.51875 313.93417Q64.34688 313.77792 64.1125 313.6998Q63.89375 313.62167 63.6125 313.62167Q63.1125 313.62167 62.8 313.85605Q62.4875 314.09042 62.3 314.5123Q62.128124 314.91855 62.065624 315.46542Q62.003124 316.0123 62.003124 316.65292Q62.003124 317.49667 62.08125 318.09042Q62.175 318.68417 62.3625 319.05917Q62.565624 319.43417 62.8625 319.60605Q63.159374 319.77792 63.58125 319.77792Q63.909374 319.77792 64.14375 319.68417Q64.39375 319.5748 64.56563 319.3873Q64.75313 319.18417 64.8625 318.90292Q64.9875 318.62167 65.05 318.29355Q65.12813 317.96542 65.15938 317.5748Q65.19063 317.18417 65.19063 316.7623Z" fill-rule="nonzero"/><path fill="#000000" d="M59.971874 291.10583Q59.971874 291.2152 59.95625 291.29333Q59.940624 291.37146 59.909374 291.43396Q59.878124 291.49646 59.83125 291.5277Q59.8 291.54333 59.7375 291.54333L55.55 291.54333Q55.471874 291.54333 55.409374 291.5277Q55.346874 291.49646 55.3 291.4496Q55.253124 291.4027 55.2375 291.3246Q55.221874 291.23083 55.221874 291.10583Q55.221874 290.98083 55.221874 290.9027Q55.2375 290.80896 55.26875 290.74646Q55.3 290.66833 55.33125 290.60583Q55.378124 290.54333 55.45625 290.4652L56.925 288.9027Q57.440624 288.37146 57.7375 287.9496Q58.05 287.5121 58.20625 287.16833Q58.378124 286.80896 58.425 286.5277Q58.4875 286.23083 58.4875 285.98083Q58.4875 285.73083 58.409374 285.5121Q58.33125 285.2777 58.175 285.10583Q58.01875 284.93396 57.784374 284.8402Q57.55 284.74646 57.2375 284.74646Q56.878124 284.74646 56.596874 284.8402Q56.315624 284.93396 56.096874 285.05896Q55.89375 285.16833 55.7375 285.2777Q55.596874 285.37146 55.534374 285.37146Q55.4875 285.37146 55.45625 285.35583Q55.425 285.3246 55.39375 285.2777Q55.378124 285.2152 55.3625 285.1371Q55.3625 285.04333 55.3625 284.91833Q55.3625 284.8402 55.3625 284.7777Q55.378124 284.6996 55.378124 284.6527Q55.39375 284.60583 55.409374 284.5746Q55.440624 284.5277 55.503124 284.4652Q55.58125 284.4027 55.753124 284.30896Q55.940624 284.1996 56.190624 284.10583Q56.45625 283.99646 56.76875 283.93396Q57.08125 283.85583 57.425 283.85583Q57.971874 283.85583 58.378124 284.0121Q58.8 284.1527 59.065624 284.43396Q59.346874 284.6996 59.471874 285.05896Q59.6125 285.41833 59.6125 285.8246Q59.6125 286.18396 59.55 286.54333Q59.4875 286.9027 59.284374 287.3246Q59.08125 287.74646 58.675 288.2621Q58.284374 288.7621 57.64375 289.43396L56.440624 290.68396L59.7375 290.68396Q59.784374 290.68396 59.83125 290.7152Q59.878124 290.74646 59.909374 290.79333Q59.940624 290.8402 59.95625 290.91833Q59.971874 290.99646 59.971874 291.10583ZM66.22188 287.73083Q66.22188 288.60583 66.08125 289.3246Q65.94063 290.04333 65.6125 290.5746Q65.3 291.0902 64.78438 291.37146Q64.26875 291.6527 63.51875 291.6527Q62.8 291.6527 62.3 291.4027Q61.815624 291.1371 61.51875 290.6527Q61.221874 290.1527 61.096874 289.43396Q60.971874 288.6996 60.971874 287.7621Q60.971874 286.9027 61.1125 286.18396Q61.253124 285.4496 61.565624 284.93396Q61.89375 284.41833 62.409374 284.1371Q62.925 283.85583 63.675 283.85583Q64.39375 283.85583 64.87813 284.10583Q65.3625 284.35583 65.65938 284.85583Q65.97188 285.35583 66.09688 286.0746Q66.22188 286.79333 66.22188 287.73083ZM65.19063 287.80896Q65.19063 287.23083 65.14375 286.79333Q65.09688 286.3402 65.01875 285.99646Q64.94063 285.6371 64.81563 285.3871Q64.69063 285.1371 64.51875 284.98083Q64.34688 284.8246 64.1125 284.74646Q63.89375 284.66833 63.6125 284.66833Q63.1125 284.66833 62.8 284.9027Q62.4875 285.1371 62.3 285.55896Q62.128124 285.9652 62.065624 286.5121Q62.003124 287.05896 62.003124 287.6996Q62.003124 288.54333 62.08125 289.1371Q62.175 289.73083 62.3625 290.10583Q62.565624 290.48083 62.8625 290.6527Q63.159374 290.8246 63.58125 290.8246Q63.909374 290.8246 64.14375 290.73083Q64.39375 290.62146 64.56563 290.43396Q64.75313 290.23083 64.8625 289.9496Q64.9875 289.66833 65.05 289.3402Q65.12813 289.0121 65.15938 288.62146Q65.19063 288.23083 65.19063 287.80896Z" fill-rule="nonzero"/><path fill="#000000" d="M59.909374 260.41812Q59.909374 260.94937 59.721874 261.37125Q59.55 261.7775 59.20625 262.07437Q58.8625 262.37125 58.3625 262.54312Q57.8625 262.69937 57.2375 262.69937Q56.8625 262.69937 56.51875 262.63687Q56.190624 262.57437 55.925 262.49625Q55.675 262.4025 55.503124 262.32437Q55.346874 262.23062 55.3 262.18375Q55.253124 262.13687 55.221874 262.10562Q55.20625 262.05875 55.190624 262.01187Q55.175 261.94937 55.159374 261.87125Q55.159374 261.7775 55.159374 261.6525Q55.159374 261.43375 55.190624 261.35562Q55.2375 261.2775 55.315624 261.2775Q55.3625 261.2775 55.51875 261.37125Q55.675 261.465 55.909374 261.57437Q56.159374 261.68375 56.4875 261.7775Q56.815624 261.87125 57.20625 261.87125Q57.596874 261.87125 57.89375 261.7775Q58.190624 261.66812 58.378124 261.49625Q58.58125 261.30875 58.675 261.05875Q58.784374 260.80875 58.784374 260.51187Q58.784374 260.19937 58.659374 259.94937Q58.534374 259.68375 58.284374 259.49625Q58.05 259.30875 57.690624 259.215Q57.33125 259.10562 56.878124 259.10562L56.159374 259.10562Q56.1125 259.10562 56.065624 259.09Q56.034374 259.05875 55.9875 259.01187Q55.95625 258.965 55.940624 258.88687Q55.925 258.80875 55.925 258.69937Q55.925 258.57437 55.940624 258.51187Q55.95625 258.43375 55.9875 258.38687Q56.01875 258.34 56.05 258.32437Q56.096874 258.30875 56.159374 258.30875L56.815624 258.30875Q57.20625 258.30875 57.503124 258.215Q57.815624 258.10562 58.034374 257.91812Q58.253124 257.73062 58.3625 257.48062Q58.471874 257.215 58.471874 256.88687Q58.471874 256.6525 58.39375 256.44937Q58.33125 256.23062 58.175 256.07437Q58.01875 255.9025 57.784374 255.82437Q57.55 255.73062 57.2375 255.73062Q56.89375 255.73062 56.6125 255.84Q56.33125 255.93375 56.096874 256.05875Q55.878124 256.16812 55.721874 256.2775Q55.58125 256.37125 55.534374 256.37125Q55.4875 256.37125 55.45625 256.35562Q55.425 256.34 55.39375 256.30875Q55.378124 256.26187 55.3625 256.18375Q55.3625 256.09 55.3625 255.965Q55.3625 255.88687 55.3625 255.82437Q55.378124 255.74625 55.39375 255.69937Q55.409374 255.6525 55.425 255.60562Q55.45625 255.55875 55.503124 255.51187Q55.565624 255.44937 55.7375 255.35562Q55.909374 255.24625 56.159374 255.1525Q56.409374 255.04312 56.7375 254.98062Q57.065624 254.9025 57.440624 254.9025Q57.95625 254.9025 58.346874 255.04312Q58.753124 255.16812 59.01875 255.41812Q59.284374 255.6525 59.409374 255.99625Q59.55 256.34 59.55 256.76187Q59.55 257.12125 59.45625 257.43375Q59.3625 257.73062 59.175 257.965Q59.003124 258.19937 58.7375 258.37125Q58.471874 258.54312 58.128124 258.60562L58.128124 258.62125Q58.51875 258.6525 58.846874 258.80875Q59.175 258.965 59.409374 259.19937Q59.64375 259.43375 59.76875 259.74625Q59.909374 260.05875 59.909374 260.41812ZM66.22188 258.7775Q66.22188 259.6525 66.08125 260.37125Q65.94063 261.09 65.6125 261.62125Q65.3 262.13687 64.78438 262.41812Q64.26875 262.69937 63.51875 262.69937Q62.8 262.69937 62.3 262.44937Q61.815624 262.18375 61.51875 261.69937Q61.221874 261.19937 61.096874 260.48062Q60.971874 259.74625 60.971874 258.80875Q60.971874 257.94937 61.1125 257.23062Q61.253124 256.49625 61.565624 255.98062Q61.89375 255.465 62.409374 255.18375Q62.925 254.9025 63.675 254.9025Q64.39375 254.9025 64.87813 255.1525Q65.3625 255.4025 65.65938 255.9025Q65.97188 256.4025 66.09688 257.12125Q66.22188 257.84 66.22188 258.7775ZM65.19063 258.85562Q65.19063 258.2775 65.14375 257.84Q65.09688 257.38687 65.01875 257.04312Q64.94063 256.68375 64.81563 256.43375Q64.69063 256.18375 64.51875 256.0275Q64.34688 255.87125 64.1125 255.79312Q63.89375 255.715 63.6125 255.715Q63.1125 255.715 62.8 255.94937Q62.4875 256.18375 62.3 256.60562Q62.128124 257.01187 62.065624 257.55875Q62.003124 258.10562 62.003124 258.74625Q62.003124 259.59 62.08125 260.18375Q62.175 260.7775 62.3625 261.1525Q62.565624 261.5275 62.8625 261.69937Q63.159374 261.87125 63.58125 261.87125Q63.909374 261.87125 64.14375 261.7775Q64.39375 261.66812 64.56563 261.48062Q64.75313 261.2775 64.8625 260.99625Q64.9875 260.715 65.05 260.38687Q65.12813 260.05875 65.15938 259.66812Q65.19063 259.2775 65.19063 258.85562Z" fill-rule="nonzero"/><path fill="#000000" d="M60.284374 231.48042Q60.284374 231.66792 60.221874 231.79292Q60.175 231.9023 60.065624 231.9023L59.20625 231.9023L59.20625 233.49605Q59.20625 233.54292 59.175 233.57417Q59.159374 233.60542 59.096874 233.63667Q59.05 233.6523 58.95625 233.6523Q58.8625 233.66792 58.70625 233.66792Q58.565624 233.66792 58.471874 233.6523Q58.378124 233.6523 58.315624 233.63667Q58.26875 233.60542 58.253124 233.57417Q58.2375 233.54292 58.2375 233.49605L58.2375 231.9023L55.096874 231.9023Q55.034374 231.9023 54.9875 231.88667Q54.940624 231.85542 54.89375 231.80855Q54.8625 231.76167 54.846874 231.68355Q54.83125 231.5898 54.83125 231.44917Q54.83125 231.3398 54.83125 231.26167Q54.846874 231.16792 54.8625 231.0898Q54.878124 231.01167 54.909374 230.94917Q54.940624 230.88667 54.971874 230.80855L57.70625 226.19917Q57.7375 226.1523 57.784374 226.12105Q57.846874 226.0898 57.925 226.07417Q58.01875 226.04292 58.14375 226.0273Q58.284374 226.01167 58.45625 226.01167Q58.659374 226.01167 58.8 226.0273Q58.940624 226.04292 59.01875 226.07417Q59.1125 226.0898 59.159374 226.13667Q59.20625 226.16792 59.20625 226.23042L59.20625 231.05855L60.065624 231.05855Q60.159374 231.05855 60.221874 231.16792Q60.284374 231.26167 60.284374 231.48042ZM58.2375 226.9023L58.221874 226.9023L55.753124 231.05855L58.2375 231.05855L58.2375 226.9023ZM66.22188 229.82417Q66.22188 230.69917 66.08125 231.41792Q65.94063 232.13667 65.6125 232.66792Q65.3 233.18355 64.78438 233.4648Q64.26875 233.74605 63.51875 233.74605Q62.8 233.74605 62.3 233.49605Q61.815624 233.23042 61.51875 232.74605Q61.221874 232.24605 61.096874 231.5273Q60.971874 230.79292 60.971874 229.85542Q60.971874 228.99605 61.1125 228.2773Q61.253124 227.54292 61.565624 227.0273Q61.89375 226.51167 62.409374 226.23042Q62.925 225.94917 63.675 225.94917Q64.39375 225.94917 64.87813 226.19917Q65.3625 226.44917 65.65938 226.94917Q65.97188 227.44917 66.09688 228.16792Q66.22188 228.88667 66.22188 229.82417ZM65.19063 229.9023Q65.19063 229.32417 65.14375 228.88667Q65.09688 228.43355 65.01875 228.0898Q64.94063 227.73042 64.81563 227.48042Q64.69063 227.23042 64.51875 227.07417Q64.34688 226.91792 64.1125 226.8398Q63.89375 226.76167 63.6125 226.76167Q63.1125 226.76167 62.8 226.99605Q62.4875 227.23042 62.3 227.6523Q62.128124 228.05855 62.065624 228.60542Q62.003124 229.1523 62.003124 229.79292Q62.003124 230.63667 62.08125 231.23042Q62.175 231.82417 62.3625 232.19917Q62.565624 232.57417 62.8625 232.74605Q63.159374 232.91792 63.58125 232.91792Q63.909374 232.91792 64.14375 232.82417Q64.39375 232.7148 64.56563 232.5273Q64.75313 232.32417 64.8625 232.04292Q64.9875 231.76167 65.05 231.43355Q65.12813 231.10542 65.15938 230.7148Q65.19063 230.32417 65.19063 229.9023Z" fill-rule="nonzero"/><path fill="#000000" d="M59.925 202.24583Q59.925 202.85521 59.721874 203.33958Q59.51875 203.80833 59.14375 204.13646Q58.76875 204.44896 58.253124 204.62083Q57.7375 204.79271 57.096874 204.79271Q56.753124 204.79271 56.425 204.74583Q56.1125 204.69896 55.8625 204.62083Q55.628124 204.54271 55.45625 204.48021Q55.3 204.40208 55.253124 204.37083Q55.221874 204.32396 55.20625 204.29271Q55.190624 204.26146 55.175 204.21458Q55.159374 204.15208 55.14375 204.07396Q55.14375 203.99583 55.14375 203.90208Q55.14375 203.79271 55.14375 203.71458Q55.159374 203.63646 55.175 203.58958Q55.20625 203.54271 55.2375 203.52708Q55.26875 203.49583 55.315624 203.49583Q55.378124 203.49583 55.4875 203.57396Q55.6125 203.63646 55.815624 203.73021Q56.034374 203.80833 56.33125 203.88646Q56.64375 203.96458 57.065624 203.96458Q57.45625 203.96458 57.784374 203.87083Q58.1125 203.77708 58.346874 203.57396Q58.596874 203.37083 58.721874 203.07396Q58.8625 202.77708 58.8625 202.33958Q58.8625 201.98021 58.7375 201.69896Q58.628124 201.41771 58.39375 201.23021Q58.159374 201.04271 57.8 200.96458Q57.440624 200.87083 56.925 200.87083Q56.565624 200.87083 56.3 200.90208Q56.05 200.93333 55.83125 200.93333Q55.675 200.93333 55.596874 200.87083Q55.534374 200.79271 55.534374 200.57396L55.534374 197.48021Q55.534374 197.29271 55.6125 197.19896Q55.70625 197.10521 55.878124 197.10521L59.2375 197.10521Q59.284374 197.10521 59.33125 197.13646Q59.378124 197.15208 59.39375 197.21458Q59.425 197.26146 59.440624 197.33958Q59.45625 197.41771 59.45625 197.52708Q59.45625 197.74583 59.39375 197.87083Q59.346874 197.98021 59.2375 197.98021L56.409374 197.98021L56.409374 200.10521Q56.6125 200.07396 56.815624 200.07396Q57.034374 200.05833 57.315624 200.05833Q57.971874 200.05833 58.45625 200.21458Q58.940624 200.37083 59.26875 200.66771Q59.596874 200.94896 59.753124 201.35521Q59.925 201.74583 59.925 202.24583ZM66.22188 200.87083Q66.22188 201.74583 66.08125 202.46458Q65.94063 203.18333 65.6125 203.71458Q65.3 204.23021 64.78438 204.51146Q64.26875 204.79271 63.51875 204.79271Q62.8 204.79271 62.3 204.54271Q61.815624 204.27708 61.51875 203.79271Q61.221874 203.29271 61.096874 202.57396Q60.971874 201.83958 60.971874 200.90208Q60.971874 200.04271 61.1125 199.32396Q61.253124 198.58958 61.565624 198.07396Q61.89375 197.55833 62.409374 197.27708Q62.925 196.99583 63.675 196.99583Q64.39375 196.99583 64.87813 197.24583Q65.3625 197.49583 65.65938 197.99583Q65.97188 198.49583 66.09688 199.21458Q66.22188 199.93333 66.22188 200.87083ZM65.19063 200.94896Q65.19063 200.37083 65.14375 199.93333Q65.09688 199.48021 65.01875 199.13646Q64.94063 198.77708 64.81563 198.52708Q64.69063 198.27708 64.51875 198.12083Q64.34688 197.96458 64.1125 197.88646Q63.89375 197.80833 63.6125 197.80833Q63.1125 197.80833 62.8 198.04271Q62.4875 198.27708 62.3 198.69896Q62.128124 199.10521 62.065624 199.65208Q62.003124 200.19896 62.003124 200.83958Q62.003124 201.68333 62.08125 202.27708Q62.175 202.87083 62.3625 203.24583Q62.565624 203.62083 62.8625 203.79271Q63.159374 203.96458 63.58125 203.96458Q63.909374 203.96458 64.14375 203.87083Q64.39375 203.76146 64.56563 203.57396Q64.75313 203.37083 64.8625 203.08958Q64.9875 202.80833 65.05 202.48021Q65.12813 202.15208 65.15938 201.76146Q65.19063 201.37083 65.19063 200.94896Z" fill-rule="nonzero"/><path fill="#000000" d="M60.159374 173.27687Q60.159374 173.77687 60.003124 174.24562Q59.846874 174.69875 59.534374 175.05812Q59.221874 175.4175 58.7375 175.63625Q58.253124 175.83937 57.58125 175.83937Q57.1125 175.83937 56.7375 175.73Q56.378124 175.605 56.1125 175.38625Q55.846874 175.1675 55.659374 174.855Q55.4875 174.5425 55.378124 174.13625Q55.26875 173.73 55.221874 173.26125Q55.175 172.77687 55.175 172.21437Q55.175 171.73 55.221874 171.23Q55.284374 170.73 55.409374 170.27687Q55.55 169.80812 55.784374 169.40187Q56.01875 168.99562 56.3625 168.69875Q56.70625 168.38625 57.190624 168.21437Q57.690624 168.0425 58.33125 168.0425Q58.55 168.0425 58.76875 168.07375Q58.9875 168.08937 59.175 168.13625Q59.3625 168.18312 59.4875 168.24562Q59.628124 168.2925 59.659374 168.32375Q59.70625 168.355 59.721874 168.40187Q59.753124 168.43312 59.753124 168.48Q59.76875 168.51125 59.76875 168.57375Q59.784374 168.62062 59.784374 168.71437Q59.784374 168.80812 59.784374 168.88625Q59.784374 168.96437 59.753124 169.01125Q59.7375 169.05812 59.70625 169.08937Q59.675 169.105 59.6125 169.105Q59.55 169.105 59.440624 169.07375Q59.33125 169.02687 59.175 168.98Q59.01875 168.93312 58.784374 168.88625Q58.565624 168.83937 58.26875 168.83937Q57.721874 168.83937 57.33125 169.07375Q56.940624 169.2925 56.690624 169.6675Q56.440624 170.0425 56.315624 170.5425Q56.190624 171.02687 56.175 171.57375Q56.33125 171.48 56.51875 171.40187Q56.70625 171.30812 56.925 171.24562Q57.159374 171.1675 57.409374 171.12062Q57.675 171.07375 57.95625 171.07375Q58.565624 171.07375 58.9875 171.24562Q59.409374 171.4175 59.675 171.71437Q59.940624 171.99562 60.05 172.40187Q60.159374 172.80812 60.159374 173.27687ZM59.14375 173.37062Q59.14375 173.02687 59.065624 172.74562Q59.003124 172.46437 58.846874 172.27687Q58.690624 172.08937 58.425 171.98Q58.159374 171.87062 57.76875 171.87062Q57.55 171.87062 57.33125 171.9175Q57.128124 171.94875 56.925 172.02687Q56.721874 172.08937 56.534374 172.18312Q56.346874 172.26125 56.190624 172.37062Q56.190624 173.12062 56.284374 173.63625Q56.39375 174.15187 56.565624 174.46437Q56.753124 174.76125 57.034374 174.90187Q57.315624 175.02687 57.675 175.02687Q58.05 175.02687 58.33125 174.88625Q58.6125 174.74562 58.784374 174.51125Q58.971874 174.27687 59.05 173.98Q59.14375 173.68312 59.14375 173.37062ZM66.22188 171.9175Q66.22188 172.7925 66.08125 173.51125Q65.94063 174.23 65.6125 174.76125Q65.3 175.27687 64.78438 175.55812Q64.26875 175.83937 63.51875 175.83937Q62.8 175.83937 62.3 175.58937Q61.815624 175.32375 61.51875 174.83937Q61.221874 174.33937 61.096874 173.62062Q60.971874 172.88625 60.971874 171.94875Q60.971874 171.08937 61.1125 170.37062Q61.253124 169.63625 61.565624 169.12062Q61.89375 168.605 62.409374 168.32375Q62.925 168.0425 63.675 168.0425Q64.39375 168.0425 64.87813 168.2925Q65.3625 168.5425 65.65938 169.0425Q65.97188 169.5425 66.09688 170.26125Q66.22188 170.98 66.22188 171.9175ZM65.19063 171.99562Q65.19063 171.4175 65.14375 170.98Q65.09688 170.52687 65.01875 170.18312Q64.94063 169.82375 64.81563 169.57375Q64.69063 169.32375 64.51875 169.1675Q64.34688 169.01125 64.1125 168.93312Q63.89375 168.855 63.6125 168.855Q63.1125 168.855 62.8 169.08937Q62.4875 169.32375 62.3 169.74562Q62.128124 170.15187 62.065624 170.69875Q62.003124 171.24562 62.003124 171.88625Q62.003124 172.73 62.08125 173.32375Q62.175 173.9175 62.3625 174.2925Q62.565624 174.6675 62.8625 174.83937Q63.159374 175.01125 63.58125 175.01125Q63.909374 175.01125 64.14375 174.9175Q64.39375 174.80812 64.56563 174.62062Q64.75313 174.4175 64.8625 174.13625Q64.9875 173.855 65.05 173.52687Q65.12813 173.19875 65.15938 172.80812Q65.19063 172.4175 65.19063 171.99562Z" fill-rule="nonzero"/><path fill="#000000" d="M60.08125 139.62042Q60.08125 139.7298 60.065624 139.82355Q60.065624 139.90167 60.05 139.9798Q60.034374 140.05792 60.003124 140.13605Q59.971874 140.21417 59.940624 140.2923L57.20625 146.58917Q57.175 146.65167 57.128124 146.69855Q57.096874 146.74542 57.01875 146.77667Q56.95625 146.7923 56.846874 146.7923Q56.753124 146.80792 56.596874 146.80792Q56.39375 146.80792 56.284374 146.7923Q56.175 146.77667 56.128124 146.74542Q56.08125 146.69855 56.08125 146.65167Q56.08125 146.58917 56.128124 146.51105L58.9875 140.07355L55.346874 140.07355Q55.2375 140.07355 55.175 139.96417Q55.128124 139.83917 55.128124 139.63605Q55.128124 139.52667 55.14375 139.44855Q55.159374 139.3548 55.190624 139.30792Q55.221874 139.24542 55.253124 139.2298Q55.3 139.19855 55.346874 139.19855L59.76875 139.19855Q59.846874 139.19855 59.909374 139.21417Q59.971874 139.2298 60.003124 139.2923Q60.034374 139.33917 60.05 139.4173Q60.08125 139.49542 60.08125 139.62042ZM66.22188 142.96417Q66.22188 143.83917 66.08125 144.55792Q65.94063 145.27667 65.6125 145.80792Q65.3 146.32355 64.78438 146.6048Q64.26875 146.88605 63.51875 146.88605Q62.8 146.88605 62.3 146.63605Q61.815624 146.37042 61.51875 145.88605Q61.221874 145.38605 61.096874 144.6673Q60.971874 143.93292 60.971874 142.99542Q60.971874 142.13605 61.1125 141.4173Q61.253124 140.68292 61.565624 140.1673Q61.89375 139.65167 62.409374 139.37042Q62.925 139.08917 63.675 139.08917Q64.39375 139.08917 64.87813 139.33917Q65.3625 139.58917 65.65938 140.08917Q65.97188 140.58917 66.09688 141.30792Q66.22188 142.02667 66.22188 142.96417ZM65.19063 143.0423Q65.19063 142.46417 65.14375 142.02667Q65.09688 141.57355 65.01875 141.2298Q64.94063 140.87042 64.81563 140.62042Q64.69063 140.37042 64.51875 140.21417Q64.34688 140.05792 64.1125 139.9798Q63.89375 139.90167 63.6125 139.90167Q63.1125 139.90167 62.8 140.13605Q62.4875 140.37042 62.3 140.7923Q62.128124 141.19855 62.065624 141.74542Q62.003124 142.2923 62.003124 142.93292Q62.003124 143.77667 62.08125 144.37042Q62.175 144.96417 62.3625 145.33917Q62.565624 145.71417 62.8625 145.88605Q63.159374 146.05792 63.58125 146.05792Q63.909374 146.05792 64.14375 145.96417Q64.39375 145.8548 64.56563 145.6673Q64.75313 145.46417 64.8625 145.18292Q64.9875 144.90167 65.05 144.57355Q65.12813 144.24542 65.15938 143.8548Q65.19063 143.46417 65.19063 143.0423Z" fill-rule="nonzero"/><path fill="#000000" d="M60.14375 115.87021Q60.14375 116.37021 59.95625 116.76083Q59.784374 117.13583 59.45625 117.40146Q59.128124 117.66708 58.64375 117.80771Q58.159374 117.93271 57.534374 117.93271Q56.940624 117.93271 56.471874 117.80771Q56.01875 117.68271 55.690624 117.44833Q55.378124 117.21396 55.20625 116.87021Q55.034374 116.51083 55.034374 116.05771Q55.034374 115.69833 55.14375 115.40146Q55.26875 115.10458 55.4875 114.85458Q55.70625 114.58896 56.01875 114.37021Q56.346874 114.15146 56.753124 113.94833Q56.409374 113.77646 56.128124 113.57333Q55.8625 113.37021 55.675 113.13583Q55.4875 112.90146 55.39375 112.63583Q55.3 112.35458 55.3 112.04208Q55.3 111.63583 55.440624 111.29208Q55.58125 110.94833 55.8625 110.69833Q56.159374 110.43271 56.6125 110.29208Q57.065624 110.13583 57.659374 110.13583Q58.2375 110.13583 58.64375 110.27646Q59.065624 110.40146 59.33125 110.65146Q59.6125 110.88583 59.7375 111.21396Q59.878124 111.52646 59.878124 111.88583Q59.878124 112.19833 59.76875 112.47958Q59.675 112.74521 59.4875 112.99521Q59.3 113.22958 59.01875 113.44833Q58.753124 113.66708 58.409374 113.85458Q58.815624 114.05771 59.14375 114.27646Q59.471874 114.49521 59.690624 114.74521Q59.909374 114.97958 60.01875 115.26083Q60.14375 115.54208 60.14375 115.87021ZM58.878124 111.97958Q58.878124 111.74521 58.784374 111.54208Q58.70625 111.33896 58.534374 111.19833Q58.378124 111.05771 58.128124 110.99521Q57.89375 110.91708 57.58125 110.91708Q56.940624 110.91708 56.6125 111.21396Q56.3 111.49521 56.3 111.97958Q56.3 112.21396 56.378124 112.41708Q56.45625 112.60458 56.6125 112.79208Q56.784374 112.96396 57.034374 113.13583Q57.3 113.29208 57.64375 113.47958Q58.2375 113.16708 58.55 112.80771Q58.878124 112.43271 58.878124 111.97958ZM59.128124 115.97958Q59.128124 115.71396 59.01875 115.49521Q58.925 115.27646 58.721874 115.08896Q58.51875 114.88583 58.20625 114.71396Q57.909374 114.54208 57.51875 114.33896Q57.14375 114.52646 56.8625 114.71396Q56.596874 114.88583 56.409374 115.08896Q56.2375 115.27646 56.14375 115.49521Q56.05 115.69833 56.05 115.96396Q56.05 116.52646 56.440624 116.83896Q56.83125 117.15146 57.596874 117.15146Q58.346874 117.15146 58.7375 116.83896Q59.128124 116.52646 59.128124 115.97958ZM66.22188 114.01083Q66.22188 114.88583 66.08125 115.60458Q65.94063 116.32333 65.6125 116.85458Q65.3 117.37021 64.78438 117.65146Q64.26875 117.93271 63.51875 117.93271Q62.8 117.93271 62.3 117.68271Q61.815624 117.41708 61.51875 116.93271Q61.221874 116.43271 61.096874 115.71396Q60.971874 114.97958 60.971874 114.04208Q60.971874 113.18271 61.1125 112.46396Q61.253124 111.72958 61.565624 111.21396Q61.89375 110.69833 62.409374 110.41708Q62.925 110.13583 63.675 110.13583Q64.39375 110.13583 64.87813 110.38583Q65.3625 110.63583 65.65938 111.13583Q65.97188 111.63583 66.09688 112.35458Q66.22188 113.07333 66.22188 114.01083ZM65.19063 114.08896Q65.19063 113.51083 65.14375 113.07333Q65.09688 112.62021 65.01875 112.27646Q64.94063 111.91708 64.81563 111.66708Q64.69063 111.41708 64.51875 111.26083Q64.34688 111.10458 64.1125 111.02646Q63.89375 110.94833 63.6125 110.94833Q63.1125 110.94833 62.8 111.18271Q62.4875 111.41708 62.3 111.83896Q62.128124 112.24521 62.065624 112.79208Q62.003124 113.33896 62.003124 113.97958Q62.003124 114.82333 62.08125 115.41708Q62.175 116.01083 62.3625 116.38583Q62.565624 116.76083 62.8625 116.93271Q63.159374 117.10458 63.58125 117.10458Q63.909374 117.10458 64.14375 117.01083Q64.39375 116.90146 64.56563 116.71396Q64.75313 116.51083 64.8625 116.22958Q64.9875 115.94833 65.05 115.62021Q65.12813 115.29208 65.15938 114.90146Q65.19063 114.51083 65.19063 114.08896Z" fill-rule="nonzero"/><path fill="#000000" d="M60.01875 84.77625Q60.01875 85.27625 59.95625 85.77625Q59.909374 86.27625 59.76875 86.745Q59.628124 87.21375 59.378124 87.62Q59.14375 88.02625 58.784374 88.33875Q58.425 88.63563 57.925 88.8075Q57.440624 88.97938 56.784374 88.97938Q56.534374 88.97938 56.284374 88.94813Q56.05 88.91688 55.8625 88.87Q55.675 88.82313 55.55 88.77625Q55.425 88.71375 55.3625 88.66688Q55.3 88.60438 55.26875 88.52625Q55.253124 88.4325 55.253124 88.27625Q55.253124 88.15125 55.253124 88.07313Q55.26875 87.995 55.284374 87.96375Q55.3 87.91688 55.33125 87.90125Q55.3625 87.88563 55.409374 87.88563Q55.471874 87.88563 55.58125 87.9325Q55.70625 87.97938 55.878124 88.02625Q56.065624 88.07313 56.3 88.12Q56.55 88.16688 56.846874 88.16688Q57.409374 88.16688 57.815624 87.94813Q58.2375 87.72938 58.4875 87.37Q58.753124 86.995 58.878124 86.51063Q59.003124 86.01063 59.01875 85.47938Q58.70625 85.65125 58.26875 85.79188Q57.83125 85.9325 57.26875 85.9325Q56.64375 85.9325 56.20625 85.76063Q55.784374 85.58875 55.51875 85.29188Q55.253124 84.995 55.14375 84.58875Q55.034374 84.1825 55.034374 83.6825Q55.034374 83.1825 55.175 82.72938Q55.33125 82.27625 55.628124 81.9325Q55.940624 81.58875 56.425 81.38563Q56.909374 81.1825 57.58125 81.1825Q58.05 81.1825 58.409374 81.3075Q58.784374 81.41688 59.05 81.65125Q59.315624 81.87 59.503124 82.19813Q59.690624 82.51063 59.8 82.91688Q59.925 83.3075 59.971874 83.79188Q60.01875 84.26063 60.01875 84.77625ZM59.003124 84.66688Q59.003124 83.91688 58.89375 83.40125Q58.8 82.88563 58.596874 82.57313Q58.409374 82.26063 58.128124 82.12Q57.846874 81.97938 57.4875 81.97938Q57.096874 81.97938 56.83125 82.12Q56.565624 82.26063 56.39375 82.495Q56.221874 82.71375 56.128124 83.01063Q56.05 83.3075 56.05 83.62Q56.05 83.96375 56.1125 84.245Q56.190624 84.52625 56.346874 84.72938Q56.51875 84.9325 56.784374 85.04188Q57.05 85.15125 57.440624 85.15125Q57.878124 85.15125 58.284374 85.02625Q58.70625 84.88563 59.003124 84.66688ZM66.22188 85.0575Q66.22188 85.9325 66.08125 86.65125Q65.94063 87.37 65.6125 87.90125Q65.3 88.41688 64.78438 88.69813Q64.26875 88.97938 63.51875 88.97938Q62.8 88.97938 62.3 88.72938Q61.815624 88.46375 61.51875 87.97938Q61.221874 87.47938 61.096874 86.76063Q60.971874 86.02625 60.971874 85.08875Q60.971874 84.22938 61.1125 83.51063Q61.253124 82.77625 61.565624 82.26063Q61.89375 81.745 62.409374 81.46375Q62.925 81.1825 63.675 81.1825Q64.39375 81.1825 64.87813 81.4325Q65.3625 81.6825 65.65938 82.1825Q65.97188 82.6825 66.09688 83.40125Q66.22188 84.12 66.22188 85.0575ZM65.19063 85.13563Q65.19063 84.5575 65.14375 84.12Q65.09688 83.66688 65.01875 83.32313Q64.94063 82.96375 64.81563 82.71375Q64.69063 82.46375 64.51875 82.3075Q64.34688 82.15125 64.1125 82.07313Q63.89375 81.995 63.6125 81.995Q63.1125 81.995 62.8 82.22938Q62.4875 82.46375 62.3 82.88563Q62.128124 83.29188 62.065624 83.83875Q62.003124 84.38563 62.003124 85.02625Q62.003124 85.87 62.08125 86.46375Q62.175 87.0575 62.3625 87.4325Q62.565624 87.8075 62.8625 87.97938Q63.159374 88.15125 63.58125 88.15125Q63.909374 88.15125 64.14375 88.0575Q64.39375 87.94813 64.56563 87.76063Q64.75313 87.5575 64.8625 87.27625Q64.9875 86.995 65.05 86.66688Q65.12813 86.33875 65.15938 85.94813Q65.19063 85.5575 65.19063 85.13563Z" fill-rule="nonzero"/><path fill="#000000" d="M53.9875 59.510418Q53.9875 59.635418 53.95625 59.713543Q53.940624 59.776043 53.909374 59.822918Q53.89375 59.869793 53.846874 59.901043Q53.815624 59.916668 53.76875 59.916668L49.815624 59.916668Q49.76875 59.916668 49.7375 59.901043Q49.70625 59.869793 49.659374 59.822918Q49.628124 59.776043 49.6125 59.713543Q49.596874 59.635418 49.596874 59.510418Q49.596874 59.416668 49.6125 59.338543Q49.628124 59.260418 49.659374 59.213543Q49.690624 59.166668 49.721874 59.135418Q49.76875 59.104168 49.815624 59.104168L51.39375 59.104168L51.39375 53.338543L49.925 54.213543Q49.815624 54.276043 49.7375 54.291668Q49.675 54.291668 49.628124 54.260418Q49.596874 54.213543 49.58125 54.135418Q49.565624 54.041668 49.565624 53.916668Q49.565624 53.807293 49.565624 53.744793Q49.58125 53.666668 49.596874 53.619793Q49.628124 53.572918 49.659374 53.541668Q49.690624 53.510418 49.7375 53.463543L51.4875 52.354168Q51.503124 52.338543 51.534374 52.322918Q51.58125 52.307293 51.628124 52.307293Q51.690624 52.291668 51.753124 52.291668Q51.83125 52.276043 51.925 52.276043Q52.065624 52.276043 52.159374 52.291668Q52.253124 52.307293 52.3 52.322918Q52.3625 52.338543 52.378124 52.385418Q52.39375 52.416668 52.39375 52.447918L52.39375 59.104168L53.76875 59.104168Q53.815624 59.104168 53.846874 59.135418Q53.89375 59.166668 53.925 59.213543Q53.95625 59.260418 53.971874 59.338543Q53.9875 59.416668 53.9875 59.510418ZM60.221874 56.104168Q60.221874 56.979168 60.08125 57.697918Q59.940624 58.416668 59.6125 58.947918Q59.3 59.463543 58.784374 59.744793Q58.26875 60.026043 57.51875 60.026043Q56.8 60.026043 56.3 59.776043Q55.815624 59.510418 55.51875 59.026043Q55.221874 58.526043 55.096874 57.807293Q54.971874 57.072918 54.971874 56.135418Q54.971874 55.276043 55.1125 54.557293Q55.253124 53.822918 55.565624 53.307293Q55.89375 52.791668 56.409374 52.510418Q56.925 52.229168 57.675 52.229168Q58.39375 52.229168 58.878124 52.479168Q59.3625 52.729168 59.659374 53.229168Q59.971874 53.729168 60.096874 54.447918Q60.221874 55.166668 60.221874 56.104168ZM59.190624 56.182293Q59.190624 55.604168 59.14375 55.166668Q59.096874 54.713543 59.01875 54.369793Q58.940624 54.010418 58.815624 53.760418Q58.690624 53.510418 58.51875 53.354168Q58.346874 53.197918 58.1125 53.119793Q57.89375 53.041668 57.6125 53.041668Q57.1125 53.041668 56.8 53.276043Q56.4875 53.510418 56.3 53.932293Q56.128124 54.338543 56.065624 54.885418Q56.003124 55.432293 56.003124 56.072918Q56.003124 56.916668 56.08125 57.510418Q56.175 58.104168 56.3625 58.479168Q56.565624 58.854168 56.8625 59.026043Q57.159374 59.197918 57.58125 59.197918Q57.909374 59.197918 58.14375 59.104168Q58.39375 58.994793 58.565624 58.807293Q58.753124 58.604168 58.8625 58.322918Q58.9875 58.041668 59.05 57.713543Q59.128124 57.385418 59.159374 56.994793Q59.190624 56.604168 59.190624 56.182293ZM66.22188 56.104168Q66.22188 56.979168 66.08125 57.697918Q65.94063 58.416668 65.6125 58.947918Q65.3 59.463543 64.78438 59.744793Q64.26875 60.026043 63.51875 60.026043Q62.8 60.026043 62.3 59.776043Q61.815624 59.510418 61.51875 59.026043Q61.221874 58.526043 61.096874 57.807293Q60.971874 57.072918 60.971874 56.135418Q60.971874 55.276043 61.1125 54.557293Q61.253124 53.822918 61.565624 53.307293Q61.89375 52.791668 62.409374 52.510418Q62.925 52.229168 63.675 52.229168Q64.39375 52.229168 64.87813 52.479168Q65.3625 52.729168 65.65938 53.229168Q65.97188 53.729168 66.09688 54.447918Q66.22188 55.166668 66.22188 56.104168ZM65.19063 56.182293Q65.19063 55.604168 65.14375 55.166668Q65.09688 54.713543 65.01875 54.369793Q64.94063 54.010418 64.81563 53.760418Q64.69063 53.510418 64.51875 53.354168Q64.34688 53.197918 64.1125 53.119793Q63.89375 53.041668 63.6125 53.041668Q63.1125 53.041668 62.8 53.276043Q62.4875 53.510418 62.3 53.932293Q62.128124 54.338543 62.065624 54.885418Q62.003124 55.432293 62.003124 56.072918Q62.003124 56.916668 62.08125 57.510418Q62.175 58.104168 62.3625 58.479168Q62.565624 58.854168 62.8625 59.026043Q63.159374 59.197918 63.58125 59.197918Q63.909374 59.197918 64.14375 59.104168Q64.39375 58.994793 64.56563 58.807293Q64.75313 58.604168 64.8625 58.322918Q64.9875 58.041668 65.05 57.713543Q65.12813 57.385418 65.15938 56.994793Q65.19063 56.604168 65.19063 56.182293Z" fill-rule="nonzero"/><path fill="#757575" d="M27.9875 23.6125Q27.9875 24.565624 27.675 25.33125Q27.3625 26.08125 26.784374 26.628124Q26.20625 27.159374 25.3625 27.45625Q24.51875 27.7375 23.346874 27.7375L21.909374 27.7375L21.909374 32.3Q21.909374 32.378124 21.8625 32.440624Q21.815624 32.4875 21.721874 32.534374Q21.64375 32.565624 21.471874 32.58125Q21.315624 32.6125 21.065624 32.6125Q20.83125 32.6125 20.659374 32.58125Q20.503124 32.565624 20.409374 32.534374Q20.315624 32.4875 20.26875 32.440624Q20.2375 32.378124 20.2375 32.3L20.2375 20.628124Q20.2375 20.2375 20.440624 20.08125Q20.64375 19.909374 20.89375 19.909374L23.596874 19.909374Q24.003124 19.909374 24.378124 19.95625Q24.76875 19.9875 25.26875 20.096874Q25.784374 20.20625 26.315624 20.51875Q26.846874 20.815624 27.221874 21.26875Q27.596874 21.721874 27.784374 22.315624Q27.9875 22.89375 27.9875 23.6125ZM26.221874 23.753124Q26.221874 22.971874 25.925 22.45625Q25.64375 21.940624 25.221874 21.690624Q24.8 21.440624 24.346874 21.378124Q23.89375 21.3 23.45625 21.3L21.909374 21.3L21.909374 26.3625L23.425 26.3625Q24.190624 26.3625 24.690624 26.175Q25.190624 25.971874 25.534374 25.628124Q25.878124 25.284374 26.05 24.8Q26.221874 24.315624 26.221874 23.753124ZM36.659374 32.315624Q36.659374 32.425 36.58125 32.4875Q36.503124 32.55 36.3625 32.58125Q36.2375 32.6125 35.971874 32.6125Q35.721874 32.6125 35.565624 32.58125Q35.409374 32.55 35.346874 32.4875Q35.284374 32.425 35.284374 32.315624L35.284374 31.440624Q34.70625 32.05 33.9875 32.39375Q33.284374 32.7375 32.503124 32.7375Q31.8 32.7375 31.2375 32.55Q30.675 32.378124 30.284374 32.034374Q29.89375 31.690624 29.675 31.190624Q29.45625 30.690624 29.45625 30.065624Q29.45625 29.315624 29.753124 28.76875Q30.05 28.221874 30.6125 27.8625Q31.190624 27.503124 32.003124 27.33125Q32.83125 27.14375 33.846874 27.14375L35.065624 27.14375L35.065624 26.45625Q35.065624 25.940624 34.95625 25.55Q34.846874 25.159374 34.6125 24.909374Q34.378124 24.64375 33.9875 24.51875Q33.6125 24.378124 33.05 24.378124Q32.45625 24.378124 31.971874 24.534374Q31.503124 24.675 31.14375 24.846874Q30.8 25.003124 30.55 25.159374Q30.315624 25.3 30.20625 25.3Q30.128124 25.3 30.065624 25.26875Q30.003124 25.221874 29.95625 25.14375Q29.925 25.065624 29.89375 24.940624Q29.878124 24.815624 29.878124 24.675Q29.878124 24.425 29.909374 24.284374Q29.940624 24.14375 30.065624 24.01875Q30.20625 23.89375 30.534374 23.721874Q30.8625 23.55 31.26875 23.409374Q31.690624 23.26875 32.190624 23.175Q32.690624 23.08125 33.20625 23.08125Q34.14375 23.08125 34.8 23.3Q35.471874 23.503124 35.878124 23.925Q36.3 24.33125 36.471874 24.95625Q36.659374 25.565624 36.659374 26.39375L36.659374 32.315624ZM35.065624 28.3L33.690624 28.3Q33.01875 28.3 32.534374 28.409374Q32.05 28.51875 31.721874 28.753124Q31.409374 28.971874 31.253124 29.284374Q31.096874 29.58125 31.096874 29.9875Q31.096874 30.659374 31.534374 31.065624Q31.971874 31.471874 32.753124 31.471874Q33.378124 31.471874 33.925 31.159374Q34.471874 30.83125 35.065624 30.159374L35.065624 28.3ZM47.6125 32.3Q47.6125 32.378124 47.565624 32.440624Q47.534374 32.4875 47.440624 32.534374Q47.3625 32.565624 47.20625 32.58125Q47.05 32.6125 46.815624 32.6125Q46.565624 32.6125 46.409374 32.58125Q46.253124 32.565624 46.159374 32.534374Q46.08125 32.4875 46.034374 32.440624Q46.003124 32.378124 46.003124 32.3L46.003124 27.159374Q46.003124 26.409374 45.878124 25.95625Q45.76875 25.4875 45.534374 25.159374Q45.315624 24.83125 44.95625 24.659374Q44.6125 24.471874 44.14375 24.471874Q43.534374 24.471874 42.925 24.909374Q42.315624 25.33125 41.659374 26.159374L41.659374 32.3Q41.659374 32.378124 41.6125 32.440624Q41.58125 32.4875 41.4875 32.534374Q41.409374 32.565624 41.253124 32.58125Q41.096874 32.6125 40.846874 32.6125Q40.6125 32.6125 40.45625 32.58125Q40.3 32.565624 40.20625 32.534374Q40.1125 32.4875 40.08125 32.440624Q40.05 32.378124 40.05 32.3L40.05 23.51875Q40.05 23.440624 40.065624 23.39375Q40.096874 23.33125 40.190624 23.284374Q40.284374 23.2375 40.409374 23.221874Q40.55 23.20625 40.784374 23.20625Q40.9875 23.20625 41.128124 23.221874Q41.26875 23.2375 41.346874 23.284374Q41.425 23.33125 41.45625 23.39375Q41.503124 23.440624 41.503124 23.51875L41.503124 24.675Q42.2375 23.846874 42.971874 23.471874Q43.721874 23.08125 44.471874 23.08125Q45.346874 23.08125 45.940624 23.378124Q46.55 23.675 46.909374 24.175Q47.284374 24.675 47.440624 25.346874Q47.6125 26.003124 47.6125 26.940624L47.6125 32.3ZM59.221874 27.815624Q59.221874 28.89375 58.940624 29.8Q58.659374 30.690624 58.096874 31.346874Q57.534374 32.003124 56.690624 32.378124Q55.846874 32.7375 54.721874 32.7375Q53.64375 32.7375 52.83125 32.425Q52.034374 32.096874 51.4875 31.4875Q50.95625 30.8625 50.690624 29.9875Q50.425 29.096874 50.425 27.9875Q50.425 26.909374 50.70625 26.01875Q50.9875 25.1125 51.55 24.45625Q52.1125 23.8 52.940624 23.440624Q53.784374 23.08125 54.909374 23.08125Q56.003124 23.08125 56.8 23.409374Q57.6125 23.721874 58.14375 24.346874Q58.675 24.95625 58.940624 25.83125Q59.221874 26.70625 59.221874 27.815624ZM57.51875 27.925Q57.51875 27.20625 57.378124 26.58125Q57.253124 25.940624 56.940624 25.471874Q56.64375 24.9875 56.128124 24.70625Q55.6125 24.425 54.846874 24.425Q54.128124 24.425 53.6125 24.675Q53.1125 24.925 52.76875 25.39375Q52.440624 25.8625 52.26875 26.503124Q52.1125 27.128124 52.1125 27.878124Q52.1125 28.596874 52.2375 29.2375Q52.378124 29.878124 52.690624 30.346874Q53.003124 30.815624 53.51875 31.096874Q54.034374 31.378124 54.8 31.378124Q55.503124 31.378124 56.01875 31.128124Q56.55 30.8625 56.878124 30.409374Q57.20625 29.95625 57.3625 29.315624Q57.51875 28.675 57.51875 27.925ZM67.175 24.096874Q67.175 24.3 67.15938 24.45625Q67.15938 24.596874 67.12813 24.690624Q67.09688 24.76875 67.05 24.815624Q67.01875 24.846874 66.94063 24.846874Q66.8625 24.846874 66.7375 24.815624Q66.62813 24.76875 66.4875 24.721874Q66.34688 24.675 66.175 24.64375Q66.00313 24.596874 65.8 24.596874Q65.55 24.596874 65.31563 24.70625Q65.08125 24.8 64.81563 25.01875Q64.56563 25.2375 64.28438 25.6125Q64.00313 25.9875 63.659374 26.51875L63.659374 32.3Q63.659374 32.378124 63.6125 32.440624Q63.58125 32.4875 63.4875 32.534374Q63.409374 32.565624 63.253124 32.58125Q63.096874 32.6125 62.846874 32.6125Q62.6125 32.6125 62.45625 32.58125Q62.3 32.565624 62.20625 32.534374Q62.1125 32.4875 62.08125 32.440624Q62.05 32.378124 62.05 32.3L62.05 23.51875Q62.05 23.440624 62.065624 23.39375Q62.096874 23.33125 62.190624 23.284374Q62.284374 23.2375 62.409374 23.221874Q62.55 23.20625 62.784374 23.20625Q62.9875 23.20625 63.128124 23.221874Q63.26875 23.2375 63.346874 23.284374Q63.425 23.33125 63.45625 23.39375Q63.503124 23.440624 63.503124 23.51875L63.503124 24.8Q63.8625 24.26875 64.175 23.940624Q64.50313 23.596874 64.78438 23.409374Q65.06563 23.221874 65.33125 23.159374Q65.6125 23.08125 65.90938 23.08125Q66.03438 23.08125 66.19063 23.096874Q66.34688 23.1125 66.51875 23.159374Q66.70625 23.190624 66.84688 23.2375Q66.9875 23.284374 67.03438 23.33125Q67.09688 23.378124 67.1125 23.425Q67.14375 23.471874 67.15938 23.534374Q67.175 23.596874 67.175 23.7375Q67.175 23.8625 67.175 24.096874ZM75.65938 32.315624Q75.65938 32.425 75.58125 32.4875Q75.50313 32.55 75.3625 32.58125Q75.2375 32.6125 74.97188 32.6125Q74.72188 32.6125 74.56563 32.58125Q74.40938 32.55 74.34688 32.4875Q74.28438 32.425 74.28438 32.315624L74.28438 31.440624Q73.70625 32.05 72.9875 32.39375Q72.28438 32.7375 71.50313 32.7375Q70.8 32.7375 70.2375 32.55Q69.675 32.378124 69.28438 32.034374Q68.89375 31.690624 68.675 31.190624Q68.45625 30.690624 68.45625 30.065624Q68.45625 29.315624 68.75313 28.76875Q69.05 28.221874 69.6125 27.8625Q70.19063 27.503124 71.00313 27.33125Q71.83125 27.14375 72.84688 27.14375L74.06563 27.14375L74.06563 26.45625Q74.06563 25.940624 73.95625 25.55Q73.84688 25.159374 73.6125 24.909374Q73.37813 24.64375 72.9875 24.51875Q72.6125 24.378124 72.05 24.378124Q71.45625 24.378124 70.97188 24.534374Q70.50313 24.675 70.14375 24.846874Q69.8 25.003124 69.55 25.159374Q69.31563 25.3 69.20625 25.3Q69.12813 25.3 69.06563 25.26875Q69.00313 25.221874 68.95625 25.14375Q68.925 25.065624 68.89375 24.940624Q68.87813 24.815624 68.87813 24.675Q68.87813 24.425 68.90938 24.284374Q68.94063 24.14375 69.06563 24.01875Q69.20625 23.89375 69.53438 23.721874Q69.8625 23.55 70.26875 23.409374Q70.69063 23.26875 71.19063 23.175Q71.69063 23.08125 72.20625 23.08125Q73.14375 23.08125 73.8 23.3Q74.47188 23.503124 74.87813 23.925Q75.3 24.33125 75.47188 24.95625Q75.65938 25.565624 75.65938 26.39375L75.65938 32.315624ZM74.06563 28.3L72.69063 28.3Q72.01875 28.3 71.53438 28.409374Q71.05 28.51875 70.72188 28.753124Q70.40938 28.971874 70.25313 29.284374Q70.09688 29.58125 70.09688 29.9875Q70.09688 30.659374 70.53438 31.065624Q70.97188 31.471874 71.75313 31.471874Q72.37813 31.471874 72.925 31.159374Q73.47188 30.83125 74.06563 30.159374L74.06563 28.3ZM92.08125 32.3Q92.08125 32.378124 92.03438 32.440624Q92.00313 32.4875 91.90938 32.534374Q91.83125 32.565624 91.675 32.58125Q91.51875 32.6125 91.28438 32.6125Q91.03438 32.6125 90.87813 32.58125Q90.72188 32.565624 90.62813 32.534374Q90.53438 32.4875 90.4875 32.440624Q90.45625 32.378124 90.45625 32.3L90.45625 26.95625Q90.45625 26.409374 90.3625 25.95625Q90.26875 25.4875 90.05 25.159374Q89.83125 24.83125 89.50313 24.659374Q89.175 24.471874 88.72188 24.471874Q88.15938 24.471874 87.59688 24.909374Q87.05 25.33125 86.3625 26.159374L86.3625 32.3Q86.3625 32.378124 86.31563 32.440624Q86.28438 32.4875 86.19063 32.534374Q86.1125 32.565624 85.95625 32.58125Q85.8 32.6125 85.56563 32.6125Q85.33125 32.6125 85.175 32.58125Q85.01875 32.565624 84.925 32.534374Q84.83125 32.4875 84.78438 32.440624Q84.75313 32.378124 84.75313 32.3L84.75313 26.95625Q84.75313 26.409374 84.64375 25.95625Q84.55 25.4875 84.33125 25.159374Q84.1125 24.83125 83.78438 24.659374Q83.45625 24.471874 83.00313 24.471874Q82.45625 24.471874 81.87813 24.909374Q81.31563 25.33125 80.65938 26.159374L80.65938 32.3Q80.65938 32.378124 80.6125 32.440624Q80.58125 32.4875 80.4875 32.534374Q80.40938 32.565624 80.25313 32.58125Q80.09688 32.6125 79.84688 32.6125Q79.6125 32.6125 79.45625 32.58125Q79.3 32.565624 79.20625 32.534374Q79.1125 32.4875 79.08125 32.440624Q79.05 32.378124 79.05 32.3L79.05 23.51875Q79.05 23.440624 79.06563 23.39375Q79.09688 23.33125 79.19063 23.284374Q79.28438 23.2375 79.40938 23.221874Q79.55 23.20625 79.78438 23.20625Q79.9875 23.20625 80.12813 23.221874Q80.26875 23.2375 80.34688 23.284374Q80.425 23.33125 80.45625 23.39375Q80.50313 23.440624 80.50313 23.51875L80.50313 24.675Q81.2375 23.846874 81.94063 23.471874Q82.64375 23.08125 83.34688 23.08125Q83.89375 23.08125 84.33125 23.20625Q84.76875 23.33125 85.09688 23.565624Q85.425 23.784374 85.65938 24.1125Q85.89375 24.425 86.05 24.815624Q86.50313 24.33125 86.89375 24.003124Q87.28438 23.675 87.64375 23.471874Q88.01875 23.26875 88.3625 23.175Q88.70625 23.08125 89.06563 23.08125Q89.90938 23.08125 90.4875 23.378124Q91.06563 23.675 91.425 24.175Q91.78438 24.675 91.925 25.346874Q92.08125 26.003124 92.08125 26.753124L92.08125 32.3ZM101.65938 32.315624Q101.65938 32.425 101.58125 32.4875Q101.50313 32.55 101.3625 32.58125Q101.2375 32.6125 100.97188 32.6125Q100.72188 32.6125 100.56563 32.58125Q100.40938 32.55 100.34688 32.4875Q100.28438 32.425 100.28438 32.315624L100.28438 31.440624Q99.70625 32.05 98.9875 32.39375Q98.28438 32.7375 97.50313 32.7375Q96.8 32.7375 96.2375 32.55Q95.675 32.378124 95.28438 32.034374Q94.89375 31.690624 94.675 31.190624Q94.45625 30.690624 94.45625 30.065624Q94.45625 29.315624 94.75313 28.76875Q95.05 28.221874 95.6125 27.8625Q96.19063 27.503124 97.00313 27.33125Q97.83125 27.14375 98.84688 27.14375L100.06563 27.14375L100.06563 26.45625Q100.06563 25.940624 99.95625 25.55Q99.84688 25.159374 99.6125 24.909374Q99.37813 24.64375 98.9875 24.51875Q98.6125 24.378124 98.05 24.378124Q97.45625 24.378124 96.97188 24.534374Q96.50313 24.675 96.14375 24.846874Q95.8 25.003124 95.55 25.159374Q95.31563 25.3 95.20625 25.3Q95.12813 25.3 95.06563 25.26875Q95.00313 25.221874 94.95625 25.14375Q94.925 25.065624 94.89375 24.940624Q94.87813 24.815624 94.87813 24.675Q94.87813 24.425 94.90938 24.284374Q94.94063 24.14375 95.06563 24.01875Q95.20625 23.89375 95.53438 23.721874Q95.8625 23.55 96.26875 23.409374Q96.69063 23.26875 97.19063 23.175Q97.69063 23.08125 98.20625 23.08125Q99.14375 23.08125 99.8 23.3Q100.47188 23.503124 100.87813 23.925Q101.3 24.33125 101.47188 24.95625Q101.65938 25.565624 101.65938 26.39375L101.65938 32.315624ZM100.06563 28.3L98.69063 28.3Q98.01875 28.3 97.53438 28.409374Q97.05 28.51875 96.72188 28.753124Q96.40938 28.971874 96.25313 29.284374Q96.09688 29.58125 96.09688 29.9875Q96.09688 30.659374 96.53438 31.065624Q96.97188 31.471874 97.75313 31.471874Q98.37813 31.471874 98.925 31.159374Q99.47188 30.83125 100.06563 30.159374L100.06563 28.3Z" fill-rule="nonzero"/></svg>