<svg version="1.1" viewBox="0.0 0.0 600.0 371.0" fill="none" stroke="none" stroke-linecap="square" stroke-miterlimit="10" width="600" height="371" xmlns:xlink="http://www.w3.org/1999/xlink" xmlns="http://www.w3.org/2000/svg"><path fill="#ffffff" d="M0 0L600.0 0L600.0 371.0L0 371.0L0 0Z" fill-rule="nonzero"/><path stroke="#333333" stroke-width="1.0" stroke-linecap="butt" d="M72.5 346.5L581.5 346.5" fill-rule="nonzero"/><path stroke="#cccccc" stroke-width="1.0" stroke-linecap="butt" d="M72.5 317.5L581.5 317.5" fill-rule="nonzero"/><path stroke="#cccccc" stroke-width="1.0" stroke-linecap="butt" d="M72.5 288.5L581.5 288.5" fill-rule="nonzero"/><path stroke="#cccccc" stroke-width="1.0" stroke-linecap="butt" d="M72.5 259.5L581.5 259.5" fill-rule="nonzero"/><path stroke="#cccccc" stroke-width="1.0" stroke-linecap="butt" d="M72.5 230.5L581.5 230.5" fill-rule="nonzero"/><path stroke="#cccccc" stroke-width="1.0" stroke-linecap="butt" d="M72.5 201.5L581.5 201.5" fill-rule="nonzero"/><path stroke="#cccccc" stroke-width="1.0" stroke-linecap="butt" d="M72.5 172.5L581.5 172.5" fill-rule="nonzero"/><path stroke="#cccccc" stroke-width="1.0" stroke-linecap="butt" d="M72.5 143.5L581.5 143.5" fill-rule="nonzero"/><path stroke="#cccccc" stroke-width="1.0" stroke-linecap="butt" d="M72.5 114.5L581.5 114.5" fill-rule="nonzero"/><path stroke="#cccccc" stroke-width="1.0" stroke-linecap="butt" d="M72.5 85.5L581.5 85.5" fill-rule="nonzero"/><path stroke="#cccccc" stroke-width="1.0" stroke-linecap="butt" d="M72.5 56.5L581.5 56.5" fill-rule="nonzero"/><clipPath id="id_0"><path d="M72.55 56.916668L581.45 56.916668L581.45 346.45L72.55 346.45L72.55 56.916668Z" clip-rule="nonzero"/></clipPath><path stroke="#434343" stroke-width="2.0" stroke-linecap="butt" clip-path="url(#id_0)" d="M77.74286 56.916668L88.12857 56.916668L98.51428 56.916668L108.9 56.916668L119.28571 56.916668L129.67143 56.916668L140.05714 56.916668L150.44286 56.916668L160.82857 155.358L171.21428 233.532L181.6 233.532L191.98572 233.532L202.37143 233.532L212.75714 233.532L223.14285 233.532L233.52856 233.532L243.91429 233.532L254.3 233.532L264.6857 233.532L275.07144 233.532L285.45715 233.532L295.84286 291.43866L306.22858 291.43866L316.6143 291.43866L327.0 291.43866L337.3857 291.43866L347.77142 291.43866L358.15714 291.43866L368.54285 291.43866L378.92856 291.43866L389.3143 346.45L399.7 346.45L410.08572 346.45L420.47144 346.45L430.85715 346.45L441.24286 346.45L451.62857 346.45L462.01428 346.45L472.4 346.45L482.7857 346.45L493.17142 346.45L503.55713 346.45L513.9429 346.45L524.32855 346.45L534.7143 346.45L545.1 346.45L555.4857 346.45L565.8714 346.45L576.25714 346.45" fill-rule="nonzero"/><path fill="#434343" clip-path="url(#id_0)" d="M83.74286 56.916668C83.74286 60.230373 81.056564 62.916668 77.74286 62.916668C74.429146 62.916668 71.74286 60.230373 71.74286 56.916668C71.74286 53.60296 74.429146 50.916668 77.74286 50.916668C81.056564 50.916668 83.74286 53.60296 83.74286 56.916668Z" fill-rule="nonzero"/><path fill="#434343" clip-path="url(#id_0)" d="M94.12857 56.916668C94.12857 60.230373 91.44228 62.916668 88.12857 62.916668C84.814865 62.916668 82.12857 60.230373 82.12857 56.916668C82.12857 53.60296 84.814865 50.916668 88.12857 50.916668C91.44228 50.916668 94.12857 53.60296 94.12857 56.916668Z" fill-rule="nonzero"/><path fill="#434343" clip-path="url(#id_0)" d="M104.51428 56.916668C104.51428 60.230373 101.827995 62.916668 98.51428 62.916668C95.20058 62.916668 92.51428 60.230373 92.51428 56.916668C92.51428 53.60296 95.20058 50.916668 98.51428 50.916668C101.827995 50.916668 104.51428 53.60296 104.51428 56.916668Z" fill-rule="nonzero"/><path fill="#434343" clip-path="url(#id_0)" d="M114.9 56.916668C114.9 60.230373 112.21371 62.916668 108.9 62.916668C105.58629 62.916668 102.9 60.230373 102.9 56.916668C102.9 53.60296 105.58629 50.916668 108.9 50.916668C112.21371 50.916668 114.9 53.60296 114.9 56.916668Z" fill-rule="nonzero"/><path fill="#434343" clip-path="url(#id_0)" d="M125.28571 56.916668C125.28571 60.230373 122.59943 62.916668 119.28571 62.916668C115.97201 62.916668 113.28571 60.230373 113.28571 56.916668C113.28571 53.60296 115.97201 50.916668 119.28571 50.916668C122.59943 50.916668 125.28571 53.60296 125.28571 56.916668Z" fill-rule="nonzero"/><path fill="#434343" clip-path="url(#id_0)" d="M135.67143 56.916668C135.67143 60.230373 132.98514 62.916668 129.67143 62.916668C126.35772 62.916668 123.671425 60.230373 123.671425 56.916668C123.671425 53.60296 126.35772 50.916668 129.67143 50.916668C132.98514 50.916668 135.67143 53.60296 135.67143 56.916668Z" fill-rule="nonzero"/><path fill="#434343" clip-path="url(#id_0)" d="M146.05714 56.916668C146.05714 60.230373 143.37085 62.916668 140.05714 62.916668C136.74344 62.916668 134.05714 60.230373 134.05714 56.916668C134.05714 53.60296 136.74344 50.916668 140.05714 50.916668C143.37085 50.916668 146.05714 53.60296 146.05714 56.916668Z" fill-rule="nonzero"/><path fill="#434343" clip-path="url(#id_0)" d="M156.44286 56.916668C156.44286 60.230373 153.75656 62.916668 150.44286 62.916668C147.12915 62.916668 144.44286 60.230373 144.44286 56.916668C144.44286 53.60296 147.12915 50.916668 150.44286 50.916668C153.75656 50.916668 156.44286 53.60296 156.44286 56.916668Z" fill-rule="nonzero"/><path fill="#434343" clip-path="url(#id_0)" d="M166.82857 155.358C166.82857 158.6717 164.14227 161.358 160.82857 161.358C157.51486 161.358 154.82857 158.6717 154.82857 155.358C154.82857 152.0443 157.51486 149.358 160.82857 149.358C164.14227 149.358 166.82857 152.0443 166.82857 155.358Z" fill-rule="nonzero"/><path fill="#434343" clip-path="url(#id_0)" d="M177.21428 233.532C177.21428 236.8457 174.528 239.532 171.21428 239.532C167.90057 239.532 165.21428 236.8457 165.21428 233.532C165.21428 230.21829 167.90057 227.532 171.21428 227.532C174.528 227.532 177.21428 230.21829 177.21428 233.532Z" fill-rule="nonzero"/><path fill="#434343" clip-path="url(#id_0)" d="M187.6 233.532C187.6 236.8457 184.91371 239.532 181.6 239.532C178.28629 239.532 175.6 236.8457 175.6 233.532C175.6 230.21829 178.28629 227.532 181.6 227.532C184.91371 227.532 187.6 230.21829 187.6 233.532Z" fill-rule="nonzero"/><path fill="#434343" clip-path="url(#id_0)" d="M197.98572 233.532C197.98572 236.8457 195.29942 239.532 191.98572 239.532C188.67201 239.532 185.98572 236.8457 185.98572 233.532C185.98572 230.21829 188.67201 227.532 191.98572 227.532C195.29942 227.532 197.98572 230.21829 197.98572 233.532Z" fill-rule="nonzero"/><path fill="#434343" clip-path="url(#id_0)" d="M208.37143 233.532C208.37143 236.8457 205.68513 239.532 202.37143 239.532C199.05772 239.532 196.37143 236.8457 196.37143 233.532C196.37143 230.21829 199.05772 227.532 202.37143 227.532C205.68513 227.532 208.37143 230.21829 208.37143 233.532Z" fill-rule="nonzero"/><path fill="#434343" clip-path="url(#id_0)" d="M218.75714 233.532C218.75714 236.8457 216.07085 239.532 212.75714 239.532C209.44344 239.532 206.75714 236.8457 206.75714 233.532C206.75714 230.21829 209.44344 227.532 212.75714 227.532C216.07085 227.532 218.75714 230.21829 218.75714 233.532Z" fill-rule="nonzero"/><path fill="#434343" clip-path="url(#id_0)" d="M229.14285 233.532C229.14285 236.8457 226.45656 239.532 223.14285 239.532C219.82915 239.532 217.14285 236.8457 217.14285 233.532C217.14285 230.21829 219.82915 227.532 223.14285 227.532C226.45656 227.532 229.14285 230.21829 229.14285 233.532Z" fill-rule="nonzero"/><path fill="#434343" clip-path="url(#id_0)" d="M239.52856 233.532C239.52856 236.8457 236.84229 239.532 233.52856 239.532C230.21486 239.532 227.52856 236.8457 227.52856 233.532C227.52856 230.21829 230.21486 227.532 233.52856 227.532C236.84229 227.532 239.52856 230.21829 239.52856 233.532Z" fill-rule="nonzero"/><path fill="#434343" clip-path="url(#id_0)" d="M249.91429 233.532C249.91429 236.8457 247.228 239.532 243.91429 239.532C240.60057 239.532 237.91429 236.8457 237.91429 233.532C237.91429 230.21829 240.60057 227.532 243.91429 227.532C247.228 227.532 249.91429 230.21829 249.91429 233.532Z" fill-rule="nonzero"/><path fill="#434343" clip-path="url(#id_0)" d="M260.3 233.532C260.3 236.8457 257.6137 239.532 254.3 239.532C250.9863 239.532 248.3 236.8457 248.3 233.532C248.3 230.21829 250.9863 227.532 254.3 227.532C257.6137 227.532 260.3 230.21829 260.3 233.532Z" fill-rule="nonzero"/><path fill="#434343" clip-path="url(#id_0)" d="M270.6857 233.532C270.6857 236.8457 267.99942 239.532 264.6857 239.532C261.372 239.532 258.6857 236.8457 258.6857 233.532C258.6857 230.21829 261.372 227.532 264.6857 227.532C267.99942 227.532 270.6857 230.21829 270.6857 233.532Z" fill-rule="nonzero"/><path fill="#434343" clip-path="url(#id_0)" d="M281.07144 233.532C281.07144 236.8457 278.38513 239.532 275.07144 239.532C271.75772 239.532 269.07144 236.8457 269.07144 233.532C269.07144 230.21829 271.75772 227.532 275.07144 227.532C278.38513 227.532 281.07144 230.21829 281.07144 233.532Z" fill-rule="nonzero"/><path fill="#434343" clip-path="url(#id_0)" d="M291.45715 233.532C291.45715 236.8457 288.77084 239.532 285.45715 239.532C282.14343 239.532 279.45715 236.8457 279.45715 233.532C279.45715 230.21829 282.14343 227.532 285.45715 227.532C288.77084 227.532 291.45715 230.21829 291.45715 233.532Z" fill-rule="nonzero"/><path fill="#434343" clip-path="url(#id_0)" d="M301.84286 291.43866C301.84286 294.75238 299.15656 297.43866 295.84286 297.43866C292.52914 297.43866 289.84286 294.75238 289.84286 291.43866C289.84286 288.12497 292.52914 285.43866 295.84286 285.43866C299.15656 285.43866 301.84286 288.12497 301.84286 291.43866Z" fill-rule="nonzero"/><path fill="#434343" clip-path="url(#id_0)" d="M312.22858 291.43866C312.22858 294.75238 309.54227 297.43866 306.22858 297.43866C302.91486 297.43866 300.22858 294.75238 300.22858 291.43866C300.22858 288.12497 302.91486 285.43866 306.22858 285.43866C309.54227 285.43866 312.22858 288.12497 312.22858 291.43866Z" fill-rule="nonzero"/><path fill="#434343" clip-path="url(#id_0)" d="M322.6143 291.43866C322.6143 294.75238 319.928 297.43866 316.6143 297.43866C313.30057 297.43866 310.6143 294.75238 310.6143 291.43866C310.6143 288.12497 313.30057 285.43866 316.6143 285.43866C319.928 285.43866 322.6143 288.12497 322.6143 291.43866Z" fill-rule="nonzero"/><path fill="#434343" clip-path="url(#id_0)" d="M333.0 291.43866C333.0 294.75238 330.31372 297.43866 327.0 297.43866C323.68628 297.43866 321.0 294.75238 321.0 291.43866C321.0 288.12497 323.68628 285.43866 327.0 285.43866C330.31372 285.43866 333.0 288.12497 333.0 291.43866Z" fill-rule="nonzero"/><path fill="#434343" clip-path="url(#id_0)" d="M343.3857 291.43866C343.3857 294.75238 340.69943 297.43866 337.3857 297.43866C334.072 297.43866 331.3857 294.75238 331.3857 291.43866C331.3857 288.12497 334.072 285.43866 337.3857 285.43866C340.69943 285.43866 343.3857 288.12497 343.3857 291.43866Z" fill-rule="nonzero"/><path fill="#434343" clip-path="url(#id_0)" d="M353.77142 291.43866C353.77142 294.75238 351.08514 297.43866 347.77142 297.43866C344.45773 297.43866 341.77142 294.75238 341.77142 291.43866C341.77142 288.12497 344.45773 285.43866 347.77142 285.43866C351.08514 285.43866 353.77142 288.12497 353.77142 291.43866Z" fill-rule="nonzero"/><path fill="#434343" clip-path="url(#id_0)" d="M364.15714 291.43866C364.15714 294.75238 361.47086 297.43866 358.15714 297.43866C354.84344 297.43866 352.15714 294.75238 352.15714 291.43866C352.15714 288.12497 354.84344 285.43866 358.15714 285.43866C361.47086 285.43866 364.15714 288.12497 364.15714 291.43866Z" fill-rule="nonzero"/><path fill="#434343" clip-path="url(#id_0)" d="M374.54285 291.43866C374.54285 294.75238 371.85657 297.43866 368.54285 297.43866C365.22916 297.43866 362.54285 294.75238 362.54285 291.43866C362.54285 288.12497 365.22916 285.43866 368.54285 285.43866C371.85657 285.43866 374.54285 288.12497 374.54285 291.43866Z" fill-rule="nonzero"/><path fill="#434343" clip-path="url(#id_0)" d="M384.92856 291.43866C384.92856 294.75238 382.24228 297.43866 378.92856 297.43866C375.61487 297.43866 372.92856 294.75238 372.92856 291.43866C372.92856 288.12497 375.61487 285.43866 378.92856 285.43866C382.24228 285.43866 384.92856 288.12497 384.92856 291.43866Z" fill-rule="nonzero"/><path fill="#434343" clip-path="url(#id_0)" d="M395.3143 346.45C395.3143 349.7637 392.628 352.45 389.3143 352.45C386.00058 352.45 383.3143 349.7637 383.3143 346.45C383.3143 343.1363 386.00058 340.45 389.3143 340.45C392.628 340.45 395.3143 343.1363 395.3143 346.45Z" fill-rule="nonzero"/><path fill="#434343" clip-path="url(#id_0)" d="M405.7 346.45C405.7 349.7637 403.0137 352.45 399.7 352.45C396.3863 352.45 393.7 349.7637 393.7 346.45C393.7 343.1363 396.3863 340.45 399.7 340.45C403.0137 340.45 405.7 343.1363 405.7 346.45Z" fill-rule="nonzero"/><path fill="#434343" clip-path="url(#id_0)" d="M416.08572 346.45C416.08572 349.7637 413.3994 352.45 410.08572 352.45C406.772 352.45 404.08572 349.7637 404.08572 346.45C404.08572 343.1363 406.772 340.45 410.08572 340.45C413.3994 340.45 416.08572 343.1363 416.08572 346.45Z" fill-rule="nonzero"/><path fill="#434343" clip-path="url(#id_0)" d="M426.47144 346.45C426.47144 349.7637 423.78513 352.45 420.47144 352.45C417.1577 352.45 414.47144 349.7637 414.47144 346.45C414.47144 343.1363 417.1577 340.45 420.47144 340.45C423.78513 340.45 426.47144 343.1363 426.47144 346.45Z" fill-rule="nonzero"/><path fill="#434343" clip-path="url(#id_0)" d="M436.85715 346.45C436.85715 349.7637 434.17084 352.45 430.85715 352.45C427.54343 352.45 424.85715 349.7637 424.85715 346.45C424.85715 343.1363 427.54343 340.45 430.85715 340.45C434.17084 340.45 436.85715 343.1363 436.85715 346.45Z" fill-rule="nonzero"/><path fill="#434343" clip-path="url(#id_0)" d="M447.24286 346.45C447.24286 349.7637 444.55658 352.45 441.24286 352.45C437.92914 352.45 435.24286 349.7637 435.24286 346.45C435.24286 343.1363 437.92914 340.45 441.24286 340.45C444.55658 340.45 447.24286 343.1363 447.24286 346.45Z" fill-rule="nonzero"/><path fill="#434343" clip-path="url(#id_0)" d="M457.62857 346.45C457.62857 349.7637 454.9423 352.45 451.62857 352.45C448.31485 352.45 445.62857 349.7637 445.62857 346.45C445.62857 343.1363 448.31485 340.45 451.62857 340.45C454.9423 340.45 457.62857 343.1363 457.62857 346.45Z" fill-rule="nonzero"/><path fill="#434343" clip-path="url(#id_0)" d="M468.01428 346.45C468.01428 349.7637 465.328 352.45 462.01428 352.45C458.7006 352.45 456.01428 349.7637 456.01428 346.45C456.01428 343.1363 458.7006 340.45 462.01428 340.45C465.328 340.45 468.01428 343.1363 468.01428 346.45Z" fill-rule="nonzero"/><path fill="#434343" clip-path="url(#id_0)" d="M478.4 346.45C478.4 349.7637 475.7137 352.45 472.4 352.45C469.0863 352.45 466.4 349.7637 466.4 346.45C466.4 343.1363 469.0863 340.45 472.4 340.45C475.7137 340.45 478.4 343.1363 478.4 346.45Z" fill-rule="nonzero"/><path fill="#434343" clip-path="url(#id_0)" d="M488.7857 346.45C488.7857 349.7637 486.09943 352.45 482.7857 352.45C479.47202 352.45 476.7857 349.7637 476.7857 346.45C476.7857 343.1363 479.47202 340.45 482.7857 340.45C486.09943 340.45 488.7857 343.1363 488.7857 346.45Z" fill-rule="nonzero"/><path fill="#434343" clip-path="url(#id_0)" d="M499.17142 346.45C499.17142 349.7637 496.48514 352.45 493.17142 352.45C489.85773 352.45 487.17142 349.7637 487.17142 346.45C487.17142 343.1363 489.85773 340.45 493.17142 340.45C496.48514 340.45 499.17142 343.1363 499.17142 346.45Z" fill-rule="nonzero"/><path fill="#434343" clip-path="url(#id_0)" d="M509.55713 346.45C509.55713 349.7637 506.87085 352.45 503.55713 352.45C500.24344 352.45 497.55713 349.7637 497.55713 346.45C497.55713 343.1363 500.24344 340.45 503.55713 340.45C506.87085 340.45 509.55713 343.1363 509.55713 346.45Z" fill-rule="nonzero"/><path fill="#434343" clip-path="url(#id_0)" d="M519.9429 346.45C519.9429 349.7637 517.2566 352.45 513.9429 352.45C510.62915 352.45 507.94287 349.7637 507.94287 346.45C507.94287 343.1363 510.62915 340.45 513.9429 340.45C517.2566 340.45 519.9429 343.1363 519.9429 346.45Z" fill-rule="nonzero"/><path fill="#434343" clip-path="url(#id_0)" d="M530.32855 346.45C530.32855 349.7637 527.6423 352.45 524.32855 352.45C521.0149 352.45 518.32855 349.7637 518.32855 346.45C518.32855 343.1363 521.0149 340.45 524.32855 340.45C527.6423 340.45 530.32855 343.1363 530.32855 346.45Z" fill-rule="nonzero"/><path fill="#434343" clip-path="url(#id_0)" d="M540.7143 346.45C540.7143 349.7637 538.028 352.45 534.7143 352.45C531.4006 352.45 528.7143 349.7637 528.7143 346.45C528.7143 343.1363 531.4006 340.45 534.7143 340.45C538.028 340.45 540.7143 343.1363 540.7143 346.45Z" fill-rule="nonzero"/><path fill="#434343" clip-path="url(#id_0)" d="M551.1 346.45C551.1 349.7637 548.4137 352.45 545.1 352.45C541.7863 352.45 539.1 349.7637 539.1 346.45C539.1 343.1363 541.7863 340.45 545.1 340.45C548.4137 340.45 551.1 343.1363 551.1 346.45Z" fill-rule="nonzero"/><path fill="#434343" clip-path="url(#id_0)" d="M561.4857 346.45C561.4857 349.7637 558.79944 352.45 555.4857 352.45C552.172 352.45 549.4857 349.7637 549.4857 346.45C549.4857 343.1363 552.172 340.45 555.4857 340.45C558.79944 340.45 561.4857 343.1363 561.4857 346.45Z" fill-rule="nonzero"/><path fill="#434343" clip-path="url(#id_0)" d="M571.8714 346.45C571.8714 349.7637 569.1851 352.45 565.8714 352.45C562.55774 352.45 559.8714 349.7637 559.8714 346.45C559.8714 343.1363 562.55774 340.45 565.8714 340.45C569.1851 340.45 571.8714 343.1363 571.8714 346.45Z" fill-rule="nonzero"/><path fill="#434343" clip-path="url(#id_0)" d="M582.25714 346.45C582.25714 349.7637 579.57086 352.45 576.25714 352.45C572.9434 352.45 570.25714 349.7637 570.25714 346.45C570.25714 343.1363 572.9434 340.45 576.25714 340.45C579.57086 340.45 582.25714 343.1363 582.25714 346.45Z" fill-rule="nonzero"/><path fill="#000000" d="M25.425013 211.10521Q25.956263 211.10521 26.378138 211.30833Q26.784388 211.49583 27.081263 211.85521Q27.362513 212.19896 27.518763 212.66771Q27.659388 213.13646 27.659388 213.68333Q27.659388 214.05833 27.596888 214.38646Q27.534388 214.71458 27.440638 214.96458Q27.346888 215.21458 27.253138 215.40208Q27.143763 215.57396 27.081263 215.63646Q27.003138 215.69896 26.893763 215.73021Q26.784388 215.76146 26.612513 215.76146Q26.471888 215.76146 26.393763 215.76146Q26.300013 215.74583 26.253138 215.73021Q26.206263 215.69896 26.190638 215.66771Q26.159388 215.62083 26.159388 215.57396Q26.159388 215.49583 26.268763 215.35521Q26.362513 215.19896 26.487513 214.96458Q26.596888 214.73021 26.706263 214.40208Q26.800013 214.07396 26.800013 213.63646Q26.800013 213.30833 26.721888 213.04271Q26.628138 212.76146 26.471888 212.57396Q26.300013 212.37083 26.065638 212.26146Q25.831263 212.15208 25.534388 212.15208Q25.206263 212.15208 24.987513 212.30833Q24.753138 212.44896 24.581263 212.69896Q24.409388 212.93333 24.268763 213.24583Q24.128138 213.54271 23.971888 213.87083Q23.815638 214.18333 23.643763 214.49583Q23.456263 214.79271 23.221888 215.04271Q22.971888 215.27708 22.643763 215.43333Q22.300013 215.57396 21.846888 215.57396Q21.362513 215.57396 21.003138 215.40208Q20.628138 215.23021 20.378138 214.93333Q20.112513 214.62083 19.987513 214.19896Q19.862513 213.76146 19.862513 213.27708Q19.862513 213.02708 19.909388 212.77708Q19.940638 212.51146 20.018763 212.29271Q20.096888 212.05833 20.190638 211.88646Q20.268763 211.71458 20.331263 211.66771Q20.378138 211.60521 20.409388 211.58958Q20.440638 211.55833 20.503138 211.55833Q20.550013 211.54271 20.628138 211.54271Q20.690638 211.52708 20.800013 211.52708Q20.909388 211.52708 20.987513 211.54271Q21.065638 211.54271 21.128138 211.57396Q21.175013 211.58958 21.206263 211.62083Q21.237513 211.65208 21.237513 211.68333Q21.237513 211.74583 21.159388 211.88646Q21.065638 212.02708 20.971888 212.23021Q20.862513 212.43333 20.784388 212.69896Q20.690638 212.96458 20.690638 213.30833Q20.690638 213.62083 20.784388 213.85521Q20.862513 214.08958 21.003138 214.24583Q21.143763 214.40208 21.346888 214.48021Q21.534388 214.55833 21.753138 214.55833Q22.065638 214.55833 22.300013 214.41771Q22.518763 214.26146 22.706263 214.02708Q22.878138 213.77708 23.018763 213.46458Q23.159388 213.15208 23.315638 212.83958Q23.471888 212.51146 23.643763 212.19896Q23.815638 211.88646 24.065638 211.65208Q24.315638 211.40208 24.643763 211.26146Q24.971888 211.10521 25.425013 211.10521ZM26.596888 205.49583Q26.706263 205.49583 26.784388 205.51146Q26.846888 205.51146 26.893763 205.52708Q26.940638 205.54271 26.987513 205.55833Q27.018763 205.57396 27.096888 205.65208Q27.175013 205.73021 27.284388 205.90208Q27.378138 206.07396 27.471888 206.29271Q27.550013 206.51146 27.596888 206.77708Q27.659388 207.02708 27.659388 207.30833Q27.659388 207.87083 27.471888 208.30833Q27.284388 208.74583 26.925013 209.04271Q26.565638 209.33958 26.050013 209.49583Q25.518763 209.65208 24.831263 209.65208Q24.050013 209.65208 23.487513 209.46458Q22.925013 209.27708 22.581263 208.94896Q22.221888 208.60521 22.050013 208.16771Q21.878138 207.71458 21.878138 207.19896Q21.878138 206.94896 21.925013 206.71458Q21.971888 206.46458 22.050013 206.27708Q22.112513 206.07396 22.221888 205.91771Q22.315638 205.76146 22.393763 205.69896Q22.456263 205.62083 22.503138 205.58958Q22.534388 205.55833 22.596888 205.54271Q22.643763 205.52708 22.721888 205.52708Q22.784388 205.51146 22.893763 205.51146Q23.128138 205.51146 23.221888 205.57396Q23.300013 205.62083 23.300013 205.69896Q23.300013 205.79271 23.206263 205.90208Q23.112513 206.01146 23.003138 206.19896Q22.878138 206.37083 22.784388 206.62083Q22.690638 206.87083 22.690638 207.19896Q22.690638 207.90208 23.221888 208.27708Q23.753138 208.65208 24.784388 208.65208Q25.284388 208.65208 25.675013 208.55833Q26.050013 208.44896 26.315638 208.26146Q26.565638 208.07396 26.690638 207.80833Q26.815638 207.52708 26.815638 207.18333Q26.815638 206.85521 26.721888 206.60521Q26.612513 206.33958 26.487513 206.16771Q26.362513 205.98021 26.268763 205.85521Q26.159388 205.73021 26.159388 205.65208Q26.159388 205.60521 26.190638 205.58958Q26.206263 205.55833 26.268763 205.54271Q26.315638 205.51146 26.409388 205.51146Q26.487513 205.49583 26.596888 205.49583ZM24.706263 199.38646Q25.346888 199.38646 25.893763 199.55833Q26.440638 199.71458 26.831263 200.05833Q27.221888 200.40208 27.440638 200.90208Q27.659388 201.40208 27.659388 202.07396Q27.659388 202.73021 27.471888 203.21458Q27.268763 203.69896 26.909388 204.02708Q26.534388 204.33958 26.018763 204.49583Q25.487513 204.65208 24.815638 204.65208Q24.175013 204.65208 23.628138 204.49583Q23.081263 204.32396 22.690638 203.99583Q22.300013 203.65208 22.081263 203.15208Q21.862513 202.63646 21.862513 201.96458Q21.862513 201.30833 22.065638 200.83958Q22.253138 200.35521 22.628138 200.02708Q22.987513 199.69896 23.518763 199.54271Q24.050013 199.38646 24.706263 199.38646ZM24.768763 200.40208Q24.346888 200.40208 23.971888 200.48021Q23.581263 200.55833 23.300013 200.74583Q23.003138 200.91771 22.846888 201.23021Q22.675013 201.54271 22.675013 202.01146Q22.675013 202.43333 22.831263 202.74583Q22.971888 203.04271 23.253138 203.24583Q23.534388 203.44896 23.925013 203.54271Q24.300013 203.63646 24.753138 203.63646Q25.175013 203.63646 25.565638 203.55833Q25.940638 203.48021 26.237513 203.30833Q26.518763 203.12083 26.690638 202.80833Q26.846888 202.49583 26.846888 202.02708Q26.846888 201.60521 26.690638 201.29271Q26.534388 200.98021 26.268763 200.79271Q25.987513 200.58958 25.612513 200.49583Q25.221888 200.40208 24.768763 200.40208ZM22.471888 194.19896Q22.596888 194.19896 22.690638 194.21458Q22.784388 194.21458 22.831263 194.23021Q22.878138 194.24583 22.909388 194.27708Q22.925013 194.30833 22.925013 194.35521Q22.925013 194.40208 22.909388 194.46458Q22.878138 194.52708 22.862513 194.62083Q22.831263 194.69896 22.815638 194.80833Q22.784388 194.91771 22.784388 195.04271Q22.784388 195.18333 22.846888 195.32396Q22.893763 195.46458 23.034388 195.62083Q23.159388 195.77708 23.393763 195.94896Q23.612513 196.12083 23.940638 196.32396L27.409388 196.32396Q27.456263 196.32396 27.487513 196.35521Q27.518763 196.37083 27.550013 196.41771Q27.565638 196.46458 27.565638 196.55833Q27.581263 196.65208 27.581263 196.80833Q27.581263 196.94896 27.565638 197.04271Q27.565638 197.13646 27.550013 197.19896Q27.518763 197.24583 27.487513 197.27708Q27.456263 197.29271 27.409388 197.29271L22.128138 197.29271Q22.081263 197.29271 22.050013 197.27708Q22.018763 197.24583 22.003138 197.19896Q21.971888 197.15208 21.956263 197.07396Q21.940638 196.98021 21.940638 196.83958Q21.940638 196.71458 21.956263 196.63646Q21.971888 196.54271 22.003138 196.49583Q22.018763 196.44896 22.050013 196.43333Q22.081263 196.41771 22.128138 196.41771L22.893763 196.41771Q22.581263 196.19896 22.378138 196.01146Q22.175013 195.80833 22.065638 195.65208Q21.956263 195.48021 21.909388 195.30833Q21.862513 195.13646 21.862513 194.96458Q21.862513 194.90208 21.878138 194.80833Q21.878138 194.69896 21.909388 194.60521Q21.925013 194.49583 21.956263 194.41771Q21.987513 194.32396 22.018763 194.29271Q22.050013 194.24583 22.081263 194.24583Q22.096888 194.23021 22.143763 194.23021Q22.175013 194.21458 22.268763 194.21458Q22.346888 194.19896 22.471888 194.19896ZM24.534388 188.79271Q24.768763 188.79271 24.862513 188.90208Q24.956263 189.01146 24.956263 189.16771L24.956263 192.62083Q25.393763 192.62083 25.753138 192.54271Q26.096888 192.44896 26.362513 192.24583Q26.612513 192.02708 26.753138 191.69896Q26.878138 191.37083 26.878138 190.90208Q26.878138 190.52708 26.815638 190.23021Q26.753138 189.93333 26.675013 189.73021Q26.596888 189.51146 26.534388 189.37083Q26.471888 189.23021 26.471888 189.16771Q26.471888 189.12083 26.503138 189.08958Q26.518763 189.05833 26.565638 189.04271Q26.596888 189.02708 26.675013 189.02708Q26.753138 189.01146 26.846888 189.01146Q26.925013 189.01146 26.987513 189.02708Q27.034388 189.02708 27.081263 189.04271Q27.128138 189.04271 27.159388 189.05833Q27.190638 189.07396 27.237513 189.10521Q27.268763 189.13646 27.346888 189.30833Q27.409388 189.46458 27.487513 189.71458Q27.550013 189.96458 27.596888 190.29271Q27.659388 190.62083 27.659388 190.99583Q27.659388 191.65208 27.487513 192.15208Q27.300013 192.63646 26.940638 192.96458Q26.581263 193.29271 26.050013 193.46458Q25.503138 193.63646 24.784388 193.63646Q24.112513 193.63646 23.565638 193.46458Q23.018763 193.29271 22.643763 192.96458Q22.268763 192.62083 22.065638 192.15208Q21.862513 191.68333 21.862513 191.10521Q21.862513 190.48021 22.065638 190.04271Q22.268763 189.60521 22.612513 189.32396Q22.940638 189.04271 23.393763 188.91771Q23.846888 188.79271 24.362513 188.79271L24.534388 188.79271ZM24.253138 189.76146Q23.487513 189.74583 23.065638 190.10521Q22.628138 190.44896 22.628138 191.15208Q22.628138 191.51146 22.768763 191.77708Q22.893763 192.04271 23.112513 192.23021Q23.331263 192.40208 23.628138 192.51146Q23.925013 192.60521 24.253138 192.62083L24.253138 189.76146Z" fill-rule="nonzero"/><path fill="#000000" d="M66.22188 345.6375Q66.22188 346.5125 66.08125 347.23126Q65.94063 347.95 65.6125 348.48126Q65.3 348.9969 64.78438 349.27814Q64.26875 349.5594 63.51875 349.5594Q62.8 349.5594 62.3 349.3094Q61.815624 349.04376 61.51875 348.5594Q61.221874 348.0594 61.096874 347.34064Q60.971874 346.60626 60.971874 345.66876Q60.971874 344.8094 61.1125 344.09064Q61.253124 343.35626 61.565624 342.84064Q61.89375 342.325 62.409374 342.04376Q62.925 341.7625 63.675 341.7625Q64.39375 341.7625 64.87813 342.0125Q65.3625 342.2625 65.65938 342.7625Q65.97188 343.2625 66.09688 343.98126Q66.22188 344.7 66.22188 345.6375ZM65.19063 345.71564Q65.19063 345.1375 65.14375 344.7Q65.09688 344.2469 65.01875 343.90314Q64.94063 343.54376 64.81563 343.29376Q64.69063 343.04376 64.51875 342.8875Q64.34688 342.73126 64.1125 342.65314Q63.89375 342.575 63.6125 342.575Q63.1125 342.575 62.8 342.8094Q62.4875 343.04376 62.3 343.46564Q62.128124 343.8719 62.065624 344.41876Q62.003124 344.96564 62.003124 345.60626Q62.003124 346.45 62.08125 347.04376Q62.175 347.6375 62.3625 348.0125Q62.565624 348.3875 62.8625 348.5594Q63.159374 348.73126 63.58125 348.73126Q63.909374 348.73126 64.14375 348.6375Q64.39375 348.52814 64.56563 348.34064Q64.75313 348.1375 64.8625 347.85626Q64.9875 347.575 65.05 347.2469Q65.12813 346.91876 65.15938 346.52814Q65.19063 346.1375 65.19063 345.71564Z" fill-rule="nonzero"/><path fill="#000000" d="M59.9875 320.09042Q59.9875 320.21542 59.95625 320.29355Q59.940624 320.35605 59.909374 320.40292Q59.89375 320.4498 59.846874 320.48105Q59.815624 320.49667 59.76875 320.49667L55.815624 320.49667Q55.76875 320.49667 55.7375 320.48105Q55.70625 320.4498 55.659374 320.40292Q55.628124 320.35605 55.6125 320.29355Q55.596874 320.21542 55.596874 320.09042Q55.596874 319.99667 55.6125 319.91855Q55.628124 319.84042 55.659374 319.79355Q55.690624 319.74667 55.721874 319.71542Q55.76875 319.68417 55.815624 319.68417L57.39375 319.68417L57.39375 313.91855L55.925 314.79355Q55.815624 314.85605 55.7375 314.87167Q55.675 314.87167 55.628124 314.84042Q55.596874 314.79355 55.58125 314.71542Q55.565624 314.62167 55.565624 314.49667Q55.565624 314.3873 55.565624 314.3248Q55.58125 314.24667 55.596874 314.1998Q55.628124 314.15292 55.659374 314.12167Q55.690624 314.09042 55.7375 314.04355L57.4875 312.93417Q57.503124 312.91855 57.534374 312.90292Q57.58125 312.8873 57.628124 312.8873Q57.690624 312.87167 57.753124 312.87167Q57.83125 312.85605 57.925 312.85605Q58.065624 312.85605 58.159374 312.87167Q58.253124 312.8873 58.3 312.90292Q58.3625 312.91855 58.378124 312.96542Q58.39375 312.99667 58.39375 313.02792L58.39375 319.68417L59.76875 319.68417Q59.815624 319.68417 59.846874 319.71542Q59.89375 319.74667 59.925 319.79355Q59.95625 319.84042 59.971874 319.91855Q59.9875 319.99667 59.9875 320.09042ZM66.22188 316.68417Q66.22188 317.55917 66.08125 318.27792Q65.94063 318.99667 65.6125 319.52792Q65.3 320.04355 64.78438 320.3248Q64.26875 320.60605 63.51875 320.60605Q62.8 320.60605 62.3 320.35605Q61.815624 320.09042 61.51875 319.60605Q61.221874 319.10605 61.096874 318.3873Q60.971874 317.65292 60.971874 316.71542Q60.971874 315.85605 61.1125 315.1373Q61.253124 314.40292 61.565624 313.8873Q61.89375 313.37167 62.409374 313.09042Q62.925 312.80917 63.675 312.80917Q64.39375 312.80917 64.87813 313.05917Q65.3625 313.30917 65.65938 313.80917Q65.97188 314.30917 66.09688 315.02792Q66.22188 315.74667 66.22188 316.68417ZM65.19063 316.7623Q65.19063 316.18417 65.14375 315.74667Q65.09688 315.29355 65.01875 314.9498Q64.94063 314.59042 64.81563 314.34042Q64.69063 314.09042 64.51875 313.93417Q64.34688 313.77792 64.1125 313.6998Q63.89375 313.62167 63.6125 313.62167Q63.1125 313.62167 62.8 313.85605Q62.4875 314.09042 62.3 314.5123Q62.128124 314.91855 62.065624 315.46542Q62.003124 316.0123 62.003124 316.65292Q62.003124 317.49667 62.08125 318.09042Q62.175 318.68417 62.3625 319.05917Q62.565624 319.43417 62.8625 319.60605Q63.159374 319.77792 63.58125 319.77792Q63.909374 319.77792 64.14375 319.68417Q64.39375 319.5748 64.56563 319.3873Q64.75313 319.18417 64.8625 318.90292Q64.9875 318.62167 65.05 318.29355Q65.12813 317.96542 65.15938 317.5748Q65.19063 317.18417 65.19063 316.7623Z" fill-rule="nonzero"/><path fill="#000000" d="M59.971874 291.10583Q59.971874 291.2152 59.95625 291.29333Q59.940624 291.37146 59.909374 291.43396Q59.878124 291.49646 59.83125 291.5277Q59.8 291.54333 59.7375 291.54333L55.55 291.54333Q55.471874 291.54333 55.409374 291.5277Q55.346874 291.49646 55.3 291.4496Q55.253124 291.4027 55.2375 291.3246Q55.221874 291.23083 55.221874 291.10583Q55.221874 290.98083 55.221874 290.9027Q55.2375 290.80896 55.26875 290.74646Q55.3 290.66833 55.33125 290.60583Q55.378124 290.54333 55.45625 290.4652L56.925 288.9027Q57.440624 288.37146 57.7375 287.9496Q58.05 287.5121 58.20625 287.16833Q58.378124 286.80896 58.425 286.5277Q58.4875 286.23083 58.4875 285.98083Q58.4875 285.73083 58.409374 285.5121Q58.33125 285.2777 58.175 285.10583Q58.01875 284.93396 57.784374 284.8402Q57.55 284.74646 57.2375 284.74646Q56.878124 284.74646 56.596874 284.8402Q56.315624 284.93396 56.096874 285.05896Q55.89375 285.16833 55.7375 285.2777Q55.596874 285.37146 55.534374 285.37146Q55.4875 285.37146 55.45625 285.35583Q55.425 285.3246 55.39375 285.2777Q55.378124 285.2152 55.3625 285.1371Q55.3625 285.04333 55.3625 284.91833Q55.3625 284.8402 55.3625 284.7777Q55.378124 284.6996 55.378124 284.6527Q55.39375 284.60583 55.409374 284.5746Q55.440624 284.5277 55.503124 284.4652Q55.58125 284.4027 55.753124 284.30896Q55.940624 284.1996 56.190624 284.10583Q56.45625 283.99646 56.76875 283.93396Q57.08125 283.85583 57.425 283.85583Q57.971874 283.85583 58.378124 284.0121Q58.8 284.1527 59.065624 284.43396Q59.346874 284.6996 59.471874 285.05896Q59.6125 285.41833 59.6125 285.8246Q59.6125 286.18396 59.55 286.54333Q59.4875 286.9027 59.284374 287.3246Q59.08125 287.74646 58.675 288.2621Q58.284374 288.7621 57.64375 289.43396L56.440624 290.68396L59.7375 290.68396Q59.784374 290.68396 59.83125 290.7152Q59.878124 290.74646 59.909374 290.79333Q59.940624 290.8402 59.95625 290.91833Q59.971874 290.99646 59.971874 291.10583ZM66.22188 287.73083Q66.22188 288.60583 66.08125 289.3246Q65.94063 290.04333 65.6125 290.5746Q65.3 291.0902 64.78438 291.37146Q64.26875 291.6527 63.51875 291.6527Q62.8 291.6527 62.3 291.4027Q61.815624 291.1371 61.51875 290.6527Q61.221874 290.1527 61.096874 289.43396Q60.971874 288.6996 60.971874 287.7621Q60.971874 286.9027 61.1125 286.18396Q61.253124 285.4496 61.565624 284.93396Q61.89375 284.41833 62.409374 284.1371Q62.925 283.85583 63.675 283.85583Q64.39375 283.85583 64.87813 284.10583Q65.3625 284.35583 65.65938 284.85583Q65.97188 285.35583 66.09688 286.0746Q66.22188 286.79333 66.22188 287.73083ZM65.19063 287.80896Q65.19063 287.23083 65.14375 286.79333Q65.09688 286.3402 65.01875 285.99646Q64.94063 285.6371 64.81563 285.3871Q64.69063 285.1371 64.51875 284.98083Q64.34688 284.8246 64.1125 284.74646Q63.89375 284.66833 63.6125 284.66833Q63.1125 284.66833 62.8 284.9027Q62.4875 285.1371 62.3 285.55896Q62.128124 285.9652 62.065624 286.5121Q62.003124 287.05896 62.003124 287.6996Q62.003124 288.54333 62.08125 289.1371Q62.175 289.73083 62.3625 290.10583Q62.565624 290.48083 62.8625 290.6527Q63.159374 290.8246 63.58125 290.8246Q63.909374 290.8246 64.14375 290.73083Q64.39375 290.62146 64.56563 290.43396Q64.75313 290.23083 64.8625 289.9496Q64.9875 289.66833 65.05 289.3402Q65.12813 289.0121 65.15938 288.62146Q65.19063 288.23083 65.19063 287.80896Z" fill-rule="nonzero"/><path fill="#000000" d="M59.909374 260.41812Q59.909374 260.94937 59.721874 261.37125Q59.55 261.7775 59.20625 262.07437Q58.8625 262.37125 58.3625 262.54312Q57.8625 262.69937 57.2375 262.69937Q56.8625 262.69937 56.51875 262.63687Q56.190624 262.57437 55.925 262.49625Q55.675 262.4025 55.503124 262.32437Q55.346874 262.23062 55.3 262.18375Q55.253124 262.13687 55.221874 262.10562Q55.20625 262.05875 55.190624 262.01187Q55.175 261.94937 55.159374 261.87125Q55.159374 261.7775 55.159374 261.6525Q55.159374 261.43375 55.190624 261.35562Q55.2375 261.2775 55.315624 261.2775Q55.3625 261.2775 55.51875 261.37125Q55.675 261.465 55.909374 261.57437Q56.159374 261.68375 56.4875 261.7775Q56.815624 261.87125 57.20625 261.87125Q57.596874 261.87125 57.89375 261.7775Q58.190624 261.66812 58.378124 261.49625Q58.58125 261.30875 58.675 261.05875Q58.784374 260.80875 58.784374 260.51187Q58.784374 260.19937 58.659374 259.94937Q58.534374 259.68375 58.284374 259.49625Q58.05 259.30875 57.690624 259.215Q57.33125 259.10562 56.878124 259.10562L56.159374 259.10562Q56.1125 259.10562 56.065624 259.09Q56.034374 259.05875 55.9875 259.01187Q55.95625 258.965 55.940624 258.88687Q55.925 258.80875 55.925 258.69937Q55.925 258.57437 55.940624 258.51187Q55.95625 258.43375 55.9875 258.38687Q56.01875 258.34 56.05 258.32437Q56.096874 258.30875 56.159374 258.30875L56.815624 258.30875Q57.20625 258.30875 57.503124 258.215Q57.815624 258.10562 58.034374 257.91812Q58.253124 257.73062 58.3625 257.48062Q58.471874 257.215 58.471874 256.88687Q58.471874 256.6525 58.39375 256.44937Q58.33125 256.23062 58.175 256.07437Q58.01875 255.9025 57.784374 255.82437Q57.55 255.73062 57.2375 255.73062Q56.89375 255.73062 56.6125 255.84Q56.33125 255.93375 56.096874 256.05875Q55.878124 256.16812 55.721874 256.2775Q55.58125 256.37125 55.534374 256.37125Q55.4875 256.37125 55.45625 256.35562Q55.425 256.34 55.39375 256.30875Q55.378124 256.26187 55.3625 256.18375Q55.3625 256.09 55.3625 255.965Q55.3625 255.88687 55.3625 255.82437Q55.378124 255.74625 55.39375 255.69937Q55.409374 255.6525 55.425 255.60562Q55.45625 255.55875 55.503124 255.51187Q55.565624 255.44937 55.7375 255.35562Q55.909374 255.24625 56.159374 255.1525Q56.409374 255.04312 56.7375 254.98062Q57.065624 254.9025 57.440624 254.9025Q57.95625 254.9025 58.346874 255.04312Q58.753124 255.16812 59.01875 255.41812Q59.284374 255.6525 59.409374 255.99625Q59.55 256.34 59.55 256.76187Q59.55 257.12125 59.45625 257.43375Q59.3625 257.73062 59.175 257.965Q59.003124 258.19937 58.7375 258.37125Q58.471874 258.54312 58.128124 258.60562L58.128124 258.62125Q58.51875 258.6525 58.846874 258.80875Q59.175 258.965 59.409374 259.19937Q59.64375 259.43375 59.76875 259.74625Q59.909374 260.05875 59.909374 260.41812ZM66.22188 258.7775Q66.22188 259.6525 66.08125 260.37125Q65.94063 261.09 65.6125 261.62125Q65.3 262.13687 64.78438 262.41812Q64.26875 262.69937 63.51875 262.69937Q62.8 262.69937 62.3 262.44937Q61.815624 262.18375 61.51875 261.69937Q61.221874 261.19937 61.096874 260.48062Q60.971874 259.74625 60.971874 258.80875Q60.971874 257.94937 61.1125 257.23062Q61.253124 256.49625 61.565624 255.98062Q61.89375 255.465 62.409374 255.18375Q62.925 254.9025 63.675 254.9025Q64.39375 254.9025 64.87813 255.1525Q65.3625 255.4025 65.65938 255.9025Q65.97188 256.4025 66.09688 257.12125Q66.22188 257.84 66.22188 258.7775ZM65.19063 258.85562Q65.19063 258.2775 65.14375 257.84Q65.09688 257.38687 65.01875 257.04312Q64.94063 256.68375 64.81563 256.43375Q64.69063 256.18375 64.51875 256.0275Q64.34688 255.87125 64.1125 255.79312Q63.89375 255.715 63.6125 255.715Q63.1125 255.715 62.8 255.94937Q62.4875 256.18375 62.3 256.60562Q62.128124 257.01187 62.065624 257.55875Q62.003124 258.10562 62.003124 258.74625Q62.003124 259.59 62.08125 260.18375Q62.175 260.7775 62.3625 261.1525Q62.565624 261.5275 62.8625 261.69937Q63.159374 261.87125 63.58125 261.87125Q63.909374 261.87125 64.14375 261.7775Q64.39375 261.66812 64.56563 261.48062Q64.75313 261.2775 64.8625 260.99625Q64.9875 260.715 65.05 260.38687Q65.12813 260.05875 65.15938 259.66812Q65.19063 259.2775 65.19063 258.85562Z" fill-rule="nonzero"/><path fill="#000000" d="M60.284374 231.48042Q60.284374 231.66792 60.221874 231.79292Q60.175 231.9023 60.065624 231.9023L59.20625 231.9023L59.20625 233.49605Q59.20625 233.54292 59.175 233.57417Q59.159374 233.60542 59.096874 233.63667Q59.05 233.6523 58.95625 233.6523Q58.8625 233.66792 58.70625 233.66792Q58.565624 233.66792 58.471874 233.6523Q58.378124 233.6523 58.315624 233.63667Q58.26875 233.60542 58.253124 233.57417Q58.2375 233.54292 58.2375 233.49605L58.2375 231.9023L55.096874 231.9023Q55.034374 231.9023 54.9875 231.88667Q54.940624 231.85542 54.89375 231.80855Q54.8625 231.76167 54.846874 231.68355Q54.83125 231.5898 54.83125 231.44917Q54.83125 231.3398 54.83125 231.26167Q54.846874 231.16792 54.8625 231.0898Q54.878124 231.01167 54.909374 230.94917Q54.940624 230.88667 54.971874 230.80855L57.70625 226.19917Q57.7375 226.1523 57.784374 226.12105Q57.846874 226.0898 57.925 226.07417Q58.01875 226.04292 58.14375 226.0273Q58.284374 226.01167 58.45625 226.01167Q58.659374 226.01167 58.8 226.0273Q58.940624 226.04292 59.01875 226.07417Q59.1125 226.0898 59.159374 226.13667Q59.20625 226.16792 59.20625 226.23042L59.20625 231.05855L60.065624 231.05855Q60.159374 231.05855 60.221874 231.16792Q60.284374 231.26167 60.284374 231.48042ZM58.2375 226.9023L58.221874 226.9023L55.753124 231.05855L58.2375 231.05855L58.2375 226.9023ZM66.22188 229.82417Q66.22188 230.69917 66.08125 231.41792Q65.94063 232.13667 65.6125 232.66792Q65.3 233.18355 64.78438 233.4648Q64.26875 233.74605 63.51875 233.74605Q62.8 233.74605 62.3 233.49605Q61.815624 233.23042 61.51875 232.74605Q61.221874 232.24605 61.096874 231.5273Q60.971874 230.79292 60.971874 229.85542Q60.971874 228.99605 61.1125 228.2773Q61.253124 227.54292 61.565624 227.0273Q61.89375 226.51167 62.409374 226.23042Q62.925 225.94917 63.675 225.94917Q64.39375 225.94917 64.87813 226.19917Q65.3625 226.44917 65.65938 226.94917Q65.97188 227.44917 66.09688 228.16792Q66.22188 228.88667 66.22188 229.82417ZM65.19063 229.9023Q65.19063 229.32417 65.14375 228.88667Q65.09688 228.43355 65.01875 228.0898Q64.94063 227.73042 64.81563 227.48042Q64.69063 227.23042 64.51875 227.07417Q64.34688 226.91792 64.1125 226.8398Q63.89375 226.76167 63.6125 226.76167Q63.1125 226.76167 62.8 226.99605Q62.4875 227.23042 62.3 227.6523Q62.128124 228.05855 62.065624 228.60542Q62.003124 229.1523 62.003124 229.79292Q62.003124 230.63667 62.08125 231.23042Q62.175 231.82417 62.3625 232.19917Q62.565624 232.57417 62.8625 232.74605Q63.159374 232.91792 63.58125 232.91792Q63.909374 232.91792 64.14375 232.82417Q64.39375 232.7148 64.56563 232.5273Q64.75313 232.32417 64.8625 232.04292Q64.9875 231.76167 65.05 231.43355Q65.12813 231.10542 65.15938 230.7148Q65.19063 230.32417 65.19063 229.9023Z" fill-rule="nonzero"/><path fill="#000000" d="M59.925 202.24583Q59.925 202.85521 59.721874 203.33958Q59.51875 203.80833 59.14375 204.13646Q58.76875 204.44896 58.253124 204.62083Q57.7375 204.79271 57.096874 204.79271Q56.753124 204.79271 56.425 204.74583Q56.1125 204.69896 55.8625 204.62083Q55.628124 204.54271 55.45625 204.48021Q55.3 204.40208 55.253124 204.37083Q55.221874 204.32396 55.20625 204.29271Q55.190624 204.26146 55.175 204.21458Q55.159374 204.15208 55.14375 204.07396Q55.14375 203.99583 55.14375 203.90208Q55.14375 203.79271 55.14375 203.71458Q55.159374 203.63646 55.175 203.58958Q55.20625 203.54271 55.2375 203.52708Q55.26875 203.49583 55.315624 203.49583Q55.378124 203.49583 55.4875 203.57396Q55.6125 203.63646 55.815624 203.73021Q56.034374 203.80833 56.33125 203.88646Q56.64375 203.96458 57.065624 203.96458Q57.45625 203.96458 57.784374 203.87083Q58.1125 203.77708 58.346874 203.57396Q58.596874 203.37083 58.721874 203.07396Q58.8625 202.77708 58.8625 202.33958Q58.8625 201.98021 58.7375 201.69896Q58.628124 201.41771 58.39375 201.23021Q58.159374 201.04271 57.8 200.96458Q57.440624 200.87083 56.925 200.87083Q56.565624 200.87083 56.3 200.90208Q56.05 200.93333 55.83125 200.93333Q55.675 200.93333 55.596874 200.87083Q55.534374 200.79271 55.534374 200.57396L55.534374 197.48021Q55.534374 197.29271 55.6125 197.19896Q55.70625 197.10521 55.878124 197.10521L59.2375 197.10521Q59.284374 197.10521 59.33125 197.13646Q59.378124 197.15208 59.39375 197.21458Q59.425 197.26146 59.440624 197.33958Q59.45625 197.41771 59.45625 197.52708Q59.45625 197.74583 59.39375 197.87083Q59.346874 197.98021 59.2375 197.98021L56.409374 197.98021L56.409374 200.10521Q56.6125 200.07396 56.815624 200.07396Q57.034374 200.05833 57.315624 200.05833Q57.971874 200.05833 58.45625 200.21458Q58.940624 200.37083 59.26875 200.66771Q59.596874 200.94896 59.753124 201.35521Q59.925 201.74583 59.925 202.24583ZM66.22188 200.87083Q66.22188 201.74583 66.08125 202.46458Q65.94063 203.18333 65.6125 203.71458Q65.3 204.23021 64.78438 204.51146Q64.26875 204.79271 63.51875 204.79271Q62.8 204.79271 62.3 204.54271Q61.815624 204.27708 61.51875 203.79271Q61.221874 203.29271 61.096874 202.57396Q60.971874 201.83958 60.971874 200.90208Q60.971874 200.04271 61.1125 199.32396Q61.253124 198.58958 61.565624 198.07396Q61.89375 197.55833 62.409374 197.27708Q62.925 196.99583 63.675 196.99583Q64.39375 196.99583 64.87813 197.24583Q65.3625 197.49583 65.65938 197.99583Q65.97188 198.49583 66.09688 199.21458Q66.22188 199.93333 66.22188 200.87083ZM65.19063 200.94896Q65.19063 200.37083 65.14375 199.93333Q65.09688 199.48021 65.01875 199.13646Q64.94063 198.77708 64.81563 198.52708Q64.69063 198.27708 64.51875 198.12083Q64.34688 197.96458 64.1125 197.88646Q63.89375 197.80833 63.6125 197.80833Q63.1125 197.80833 62.8 198.04271Q62.4875 198.27708 62.3 198.69896Q62.128124 199.10521 62.065624 199.65208Q62.003124 200.19896 62.003124 200.83958Q62.003124 201.68333 62.08125 202.27708Q62.175 202.87083 62.3625 203.24583Q62.565624 203.62083 62.8625 203.79271Q63.159374 203.96458 63.58125 203.96458Q63.909374 203.96458 64.14375 203.87083Q64.39375 203.76146 64.56563 203.57396Q64.75313 203.37083 64.8625 203.08958Q64.9875 202.80833 65.05 202.48021Q65.12813 202.15208 65.15938 201.76146Q65.19063 201.37083 65.19063 200.94896Z" fill-rule="nonzero"/><path fill="#000000" d="M60.159374 173.27687Q60.159374 173.77687 60.003124 174.24562Q59.846874 174.69875 59.534374 175.05812Q59.221874 175.4175 58.7375 175.63625Q58.253124 175.83937 57.58125 175.83937Q57.1125 175.83937 56.7375 175.73Q56.378124 175.605 56.1125 175.38625Q55.846874 175.1675 55.659374 174.855Q55.4875 174.5425 55.378124 174.13625Q55.26875 173.73 55.221874 173.26125Q55.175 172.77687 55.175 172.21437Q55.175 171.73 55.221874 171.23Q55.284374 170.73 55.409374 170.27687Q55.55 169.80812 55.784374 169.40187Q56.01875 168.99562 56.3625 168.69875Q56.70625 168.38625 57.190624 168.21437Q57.690624 168.0425 58.33125 168.0425Q58.55 168.0425 58.76875 168.07375Q58.9875 168.08937 59.175 168.13625Q59.3625 168.18312 59.4875 168.24562Q59.628124 168.2925 59.659374 168.32375Q59.70625 168.355 59.721874 168.40187Q59.753124 168.43312 59.753124 168.48Q59.76875 168.51125 59.76875 168.57375Q59.784374 168.62062 59.784374 168.71437Q59.784374 168.80812 59.784374 168.88625Q59.784374 168.96437 59.753124 169.01125Q59.7375 169.05812 59.70625 169.08937Q59.675 169.105 59.6125 169.105Q59.55 169.105 59.440624 169.07375Q59.33125 169.02687 59.175 168.98Q59.01875 168.93312 58.784374 168.88625Q58.565624 168.83937 58.26875 168.83937Q57.721874 168.83937 57.33125 169.07375Q56.940624 169.2925 56.690624 169.6675Q56.440624 170.0425 56.315624 170.5425Q56.190624 171.02687 56.175 171.57375Q56.33125 171.48 56.51875 171.40187Q56.70625 171.30812 56.925 171.24562Q57.159374 171.1675 57.409374 171.12062Q57.675 171.07375 57.95625 171.07375Q58.565624 171.07375 58.9875 171.24562Q59.409374 171.4175 59.675 171.71437Q59.940624 171.99562 60.05 172.40187Q60.159374 172.80812 60.159374 173.27687ZM59.14375 173.37062Q59.14375 173.02687 59.065624 172.74562Q59.003124 172.46437 58.846874 172.27687Q58.690624 172.08937 58.425 171.98Q58.159374 171.87062 57.76875 171.87062Q57.55 171.87062 57.33125 171.9175Q57.128124 171.94875 56.925 172.02687Q56.721874 172.08937 56.534374 172.18312Q56.346874 172.26125 56.190624 172.37062Q56.190624 173.12062 56.284374 173.63625Q56.39375 174.15187 56.565624 174.46437Q56.753124 174.76125 57.034374 174.90187Q57.315624 175.02687 57.675 175.02687Q58.05 175.02687 58.33125 174.88625Q58.6125 174.74562 58.784374 174.51125Q58.971874 174.27687 59.05 173.98Q59.14375 173.68312 59.14375 173.37062ZM66.22188 171.9175Q66.22188 172.7925 66.08125 173.51125Q65.94063 174.23 65.6125 174.76125Q65.3 175.27687 64.78438 175.55812Q64.26875 175.83937 63.51875 175.83937Q62.8 175.83937 62.3 175.58937Q61.815624 175.32375 61.51875 174.83937Q61.221874 174.33937 61.096874 173.62062Q60.971874 172.88625 60.971874 171.94875Q60.971874 171.08937 61.1125 170.37062Q61.253124 169.63625 61.565624 169.12062Q61.89375 168.605 62.409374 168.32375Q62.925 168.0425 63.675 168.0425Q64.39375 168.0425 64.87813 168.2925Q65.3625 168.5425 65.65938 169.0425Q65.97188 169.5425 66.09688 170.26125Q66.22188 170.98 66.22188 171.9175ZM65.19063 171.99562Q65.19063 171.4175 65.14375 170.98Q65.09688 170.52687 65.01875 170.18312Q64.94063 169.82375 64.81563 169.57375Q64.69063 169.32375 64.51875 169.1675Q64.34688 169.01125 64.1125 168.93312Q63.89375 168.855 63.6125 168.855Q63.1125 168.855 62.8 169.08937Q62.4875 169.32375 62.3 169.74562Q62.128124 170.15187 62.065624 170.69875Q62.003124 171.24562 62.003124 171.88625Q62.003124 172.73 62.08125 173.32375Q62.175 173.9175 62.3625 174.2925Q62.565624 174.6675 62.8625 174.83937Q63.159374 175.01125 63.58125 175.01125Q63.909374 175.01125 64.14375 174.9175Q64.39375 174.80812 64.56563 174.62062Q64.75313 174.4175 64.8625 174.13625Q64.9875 173.855 65.05 173.52687Q65.12813 173.19875 65.15938 172.80812Q65.19063 172.4175 65.19063 171.99562Z" fill-rule="nonzero"/><path fill="#000000" d="M60.08125 139.62042Q60.08125 139.7298 60.065624 139.82355Q60.065624 139.90167 60.05 139.9798Q60.034374 140.05792 60.003124 140.13605Q59.971874 140.21417 59.940624 140.2923L57.20625 146.58917Q57.175 146.65167 57.128124 146.69855Q57.096874 146.74542 57.01875 146.77667Q56.95625 146.7923 56.846874 146.7923Q56.753124 146.80792 56.596874 146.80792Q56.39375 146.80792 56.284374 146.7923Q56.175 146.77667 56.128124 146.74542Q56.08125 146.69855 56.08125 146.65167Q56.08125 146.58917 56.128124 146.51105L58.9875 140.07355L55.346874 140.07355Q55.2375 140.07355 55.175 139.96417Q55.128124 139.83917 55.128124 139.63605Q55.128124 139.52667 55.14375 139.44855Q55.159374 139.3548 55.190624 139.30792Q55.221874 139.24542 55.253124 139.2298Q55.3 139.19855 55.346874 139.19855L59.76875 139.19855Q59.846874 139.19855 59.909374 139.21417Q59.971874 139.2298 60.003124 139.2923Q60.034374 139.33917 60.05 139.4173Q60.08125 139.49542 60.08125 139.62042ZM66.22188 142.96417Q66.22188 143.83917 66.08125 144.55792Q65.94063 145.27667 65.6125 145.80792Q65.3 146.32355 64.78438 146.6048Q64.26875 146.88605 63.51875 146.88605Q62.8 146.88605 62.3 146.63605Q61.815624 146.37042 61.51875 145.88605Q61.221874 145.38605 61.096874 144.6673Q60.971874 143.93292 60.971874 142.99542Q60.971874 142.13605 61.1125 141.4173Q61.253124 140.68292 61.565624 140.1673Q61.89375 139.65167 62.409374 139.37042Q62.925 139.08917 63.675 139.08917Q64.39375 139.08917 64.87813 139.33917Q65.3625 139.58917 65.65938 140.08917Q65.97188 140.58917 66.09688 141.30792Q66.22188 142.02667 66.22188 142.96417ZM65.19063 143.0423Q65.19063 142.46417 65.14375 142.02667Q65.09688 141.57355 65.01875 141.2298Q64.94063 140.87042 64.81563 140.62042Q64.69063 140.37042 64.51875 140.21417Q64.34688 140.05792 64.1125 139.9798Q63.89375 139.90167 63.6125 139.90167Q63.1125 139.90167 62.8 140.13605Q62.4875 140.37042 62.3 140.7923Q62.128124 141.19855 62.065624 141.74542Q62.003124 142.2923 62.003124 142.93292Q62.003124 143.77667 62.08125 144.37042Q62.175 144.96417 62.3625 145.33917Q62.565624 145.71417 62.8625 145.88605Q63.159374 146.05792 63.58125 146.05792Q63.909374 146.05792 64.14375 145.96417Q64.39375 145.8548 64.56563 145.6673Q64.75313 145.46417 64.8625 145.18292Q64.9875 144.90167 65.05 144.57355Q65.12813 144.24542 65.15938 143.8548Q65.19063 143.46417 65.19063 143.0423Z" fill-rule="nonzero"/><path fill="#000000" d="M60.14375 115.87021Q60.14375 116.37021 59.95625 116.76083Q59.784374 117.13583 59.45625 117.40146Q59.128124 117.66708 58.64375 117.80771Q58.159374 117.93271 57.534374 117.93271Q56.940624 117.93271 56.471874 117.80771Q56.01875 117.68271 55.690624 117.44833Q55.378124 117.21396 55.20625 116.87021Q55.034374 116.51083 55.034374 116.05771Q55.034374 115.69833 55.14375 115.40146Q55.26875 115.10458 55.4875 114.85458Q55.70625 114.58896 56.01875 114.37021Q56.346874 114.15146 56.753124 113.94833Q56.409374 113.77646 56.128124 113.57333Q55.8625 113.37021 55.675 113.13583Q55.4875 112.90146 55.39375 112.63583Q55.3 112.35458 55.3 112.04208Q55.3 111.63583 55.440624 111.29208Q55.58125 110.94833 55.8625 110.69833Q56.159374 110.43271 56.6125 110.29208Q57.065624 110.13583 57.659374 110.13583Q58.2375 110.13583 58.64375 110.27646Q59.065624 110.40146 59.33125 110.65146Q59.6125 110.88583 59.7375 111.21396Q59.878124 111.52646 59.878124 111.88583Q59.878124 112.19833 59.76875 112.47958Q59.675 112.74521 59.4875 112.99521Q59.3 113.22958 59.01875 113.44833Q58.753124 113.66708 58.409374 113.85458Q58.815624 114.05771 59.14375 114.27646Q59.471874 114.49521 59.690624 114.74521Q59.909374 114.97958 60.01875 115.26083Q60.14375 115.54208 60.14375 115.87021ZM58.878124 111.97958Q58.878124 111.74521 58.784374 111.54208Q58.70625 111.33896 58.534374 111.19833Q58.378124 111.05771 58.128124 110.99521Q57.89375 110.91708 57.58125 110.91708Q56.940624 110.91708 56.6125 111.21396Q56.3 111.49521 56.3 111.97958Q56.3 112.21396 56.378124 112.41708Q56.45625 112.60458 56.6125 112.79208Q56.784374 112.96396 57.034374 113.13583Q57.3 113.29208 57.64375 113.47958Q58.2375 113.16708 58.55 112.80771Q58.878124 112.43271 58.878124 111.97958ZM59.128124 115.97958Q59.128124 115.71396 59.01875 115.49521Q58.925 115.27646 58.721874 115.08896Q58.51875 114.88583 58.20625 114.71396Q57.909374 114.54208 57.51875 114.33896Q57.14375 114.52646 56.8625 114.71396Q56.596874 114.88583 56.409374 115.08896Q56.2375 115.27646 56.14375 115.49521Q56.05 115.69833 56.05 115.96396Q56.05 116.52646 56.440624 116.83896Q56.83125 117.15146 57.596874 117.15146Q58.346874 117.15146 58.7375 116.83896Q59.128124 116.52646 59.128124 115.97958ZM66.22188 114.01083Q66.22188 114.88583 66.08125 115.60458Q65.94063 116.32333 65.6125 116.85458Q65.3 117.37021 64.78438 117.65146Q64.26875 117.93271 63.51875 117.93271Q62.8 117.93271 62.3 117.68271Q61.815624 117.41708 61.51875 116.93271Q61.221874 116.43271 61.096874 115.71396Q60.971874 114.97958 60.971874 114.04208Q60.971874 113.18271 61.1125 112.46396Q61.253124 111.72958 61.565624 111.21396Q61.89375 110.69833 62.409374 110.41708Q62.925 110.13583 63.675 110.13583Q64.39375 110.13583 64.87813 110.38583Q65.3625 110.63583 65.65938 111.13583Q65.97188 111.63583 66.09688 112.35458Q66.22188 113.07333 66.22188 114.01083ZM65.19063 114.08896Q65.19063 113.51083 65.14375 113.07333Q65.09688 112.62021 65.01875 112.27646Q64.94063 111.91708 64.81563 111.66708Q64.69063 111.41708 64.51875 111.26083Q64.34688 111.10458 64.1125 111.02646Q63.89375 110.94833 63.6125 110.94833Q63.1125 110.94833 62.8 111.18271Q62.4875 111.41708 62.3 111.83896Q62.128124 112.24521 62.065624 112.79208Q62.003124 113.33896 62.003124 113.97958Q62.003124 114.82333 62.08125 115.41708Q62.175 116.01083 62.3625 116.38583Q62.565624 116.76083 62.8625 116.93271Q63.159374 117.10458 63.58125 117.10458Q63.909374 117.10458 64.14375 117.01083Q64.39375 116.90146 64.56563 116.71396Q64.75313 116.51083 64.8625 116.22958Q64.9875 115.94833 65.05 115.62021Q65.12813 115.29208 65.15938 114.90146Q65.19063 114.51083 65.19063 114.08896Z" fill-rule="nonzero"/><path fill="#000000" d="M60.01875 84.77625Q60.01875 85.27625 59.95625 85.77625Q59.909374 86.27625 59.76875 86.745Q59.628124 87.21375 59.378124 87.62Q59.14375 88.02625 58.784374 88.33875Q58.425 88.63563 57.925 88.8075Q57.440624 88.97938 56.784374 88.97938Q56.534374 88.97938 56.284374 88.94813Q56.05 88.91688 55.8625 88.87Q55.675 88.82313 55.55 88.77625Q55.425 88.71375 55.3625 88.66688Q55.3 88.60438 55.26875 88.52625Q55.253124 88.4325 55.253124 88.27625Q55.253124 88.15125 55.253124 88.07313Q55.26875 87.995 55.284374 87.96375Q55.3 87.91688 55.33125 87.90125Q55.3625 87.88563 55.409374 87.88563Q55.471874 87.88563 55.58125 87.9325Q55.70625 87.97938 55.878124 88.02625Q56.065624 88.07313 56.3 88.12Q56.55 88.16688 56.846874 88.16688Q57.409374 88.16688 57.815624 87.94813Q58.2375 87.72938 58.4875 87.37Q58.753124 86.995 58.878124 86.51063Q59.003124 86.01063 59.01875 85.47938Q58.70625 85.65125 58.26875 85.79188Q57.83125 85.9325 57.26875 85.9325Q56.64375 85.9325 56.20625 85.76063Q55.784374 85.58875 55.51875 85.29188Q55.253124 84.995 55.14375 84.58875Q55.034374 84.1825 55.034374 83.6825Q55.034374 83.1825 55.175 82.72938Q55.33125 82.27625 55.628124 81.9325Q55.940624 81.58875 56.425 81.38563Q56.909374 81.1825 57.58125 81.1825Q58.05 81.1825 58.409374 81.3075Q58.784374 81.41688 59.05 81.65125Q59.315624 81.87 59.503124 82.19813Q59.690624 82.51063 59.8 82.91688Q59.925 83.3075 59.971874 83.79188Q60.01875 84.26063 60.01875 84.77625ZM59.003124 84.66688Q59.003124 83.91688 58.89375 83.40125Q58.8 82.88563 58.596874 82.57313Q58.409374 82.26063 58.128124 82.12Q57.846874 81.97938 57.4875 81.97938Q57.096874 81.97938 56.83125 82.12Q56.565624 82.26063 56.39375 82.495Q56.221874 82.71375 56.128124 83.01063Q56.05 83.3075 56.05 83.62Q56.05 83.96375 56.1125 84.245Q56.190624 84.52625 56.346874 84.72938Q56.51875 84.9325 56.784374 85.04188Q57.05 85.15125 57.440624 85.15125Q57.878124 85.15125 58.284374 85.02625Q58.70625 84.88563 59.003124 84.66688ZM66.22188 85.0575Q66.22188 85.9325 66.08125 86.65125Q65.94063 87.37 65.6125 87.90125Q65.3 88.41688 64.78438 88.69813Q64.26875 88.97938 63.51875 88.97938Q62.8 88.97938 62.3 88.72938Q61.815624 88.46375 61.51875 87.97938Q61.221874 87.47938 61.096874 86.76063Q60.971874 86.02625 60.971874 85.08875Q60.971874 84.22938 61.1125 83.51063Q61.253124 82.77625 61.565624 82.26063Q61.89375 81.745 62.409374 81.46375Q62.925 81.1825 63.675 81.1825Q64.39375 81.1825 64.87813 81.4325Q65.3625 81.6825 65.65938 82.1825Q65.97188 82.6825 66.09688 83.40125Q66.22188 84.12 66.22188 85.0575ZM65.19063 85.13563Q65.19063 84.5575 65.14375 84.12Q65.09688 83.66688 65.01875 83.32313Q64.94063 82.96375 64.81563 82.71375Q64.69063 82.46375 64.51875 82.3075Q64.34688 82.15125 64.1125 82.07313Q63.89375 81.995 63.6125 81.995Q63.1125 81.995 62.8 82.22938Q62.4875 82.46375 62.3 82.88563Q62.128124 83.29188 62.065624 83.83875Q62.003124 84.38563 62.003124 85.02625Q62.003124 85.87 62.08125 86.46375Q62.175 87.0575 62.3625 87.4325Q62.565624 87.8075 62.8625 87.97938Q63.159374 88.15125 63.58125 88.15125Q63.909374 88.15125 64.14375 88.0575Q64.39375 87.94813 64.56563 87.76063Q64.75313 87.5575 64.8625 87.27625Q64.9875 86.995 65.05 86.66688Q65.12813 86.33875 65.15938 85.94813Q65.19063 85.5575 65.19063 85.13563Z" fill-rule="nonzero"/><path fill="#000000" d="M53.9875 59.510418Q53.9875 59.635418 53.95625 59.713543Q53.940624 59.776043 53.909374 59.822918Q53.89375 59.869793 53.846874 59.901043Q53.815624 59.916668 53.76875 59.916668L49.815624 59.916668Q49.76875 59.916668 49.7375 59.901043Q49.70625 59.869793 49.659374 59.822918Q49.628124 59.776043 49.6125 59.713543Q49.596874 59.635418 49.596874 59.510418Q49.596874 59.416668 49.6125 59.338543Q49.628124 59.260418 49.659374 59.213543Q49.690624 59.166668 49.721874 59.135418Q49.76875 59.104168 49.815624 59.104168L51.39375 59.104168L51.39375 53.338543L49.925 54.213543Q49.815624 54.276043 49.7375 54.291668Q49.675 54.291668 49.628124 54.260418Q49.596874 54.213543 49.58125 54.135418Q49.565624 54.041668 49.565624 53.916668Q49.565624 53.807293 49.565624 53.744793Q49.58125 53.666668 49.596874 53.619793Q49.628124 53.572918 49.659374 53.541668Q49.690624 53.510418 49.7375 53.463543L51.4875 52.354168Q51.503124 52.338543 51.534374 52.322918Q51.58125 52.307293 51.628124 52.307293Q51.690624 52.291668 51.753124 52.291668Q51.83125 52.276043 51.925 52.276043Q52.065624 52.276043 52.159374 52.291668Q52.253124 52.307293 52.3 52.322918Q52.3625 52.338543 52.378124 52.385418Q52.39375 52.416668 52.39375 52.447918L52.39375 59.104168L53.76875 59.104168Q53.815624 59.104168 53.846874 59.135418Q53.89375 59.166668 53.925 59.213543Q53.95625 59.260418 53.971874 59.338543Q53.9875 59.416668 53.9875 59.510418ZM60.221874 56.104168Q60.221874 56.979168 60.08125 57.697918Q59.940624 58.416668 59.6125 58.947918Q59.3 59.463543 58.784374 59.744793Q58.26875 60.026043 57.51875 60.026043Q56.8 60.026043 56.3 59.776043Q55.815624 59.510418 55.51875 59.026043Q55.221874 58.526043 55.096874 57.807293Q54.971874 57.072918 54.971874 56.135418Q54.971874 55.276043 55.1125 54.557293Q55.253124 53.822918 55.565624 53.307293Q55.89375 52.791668 56.409374 52.510418Q56.925 52.229168 57.675 52.229168Q58.39375 52.229168 58.878124 52.479168Q59.3625 52.729168 59.659374 53.229168Q59.971874 53.729168 60.096874 54.447918Q60.221874 55.166668 60.221874 56.104168ZM59.190624 56.182293Q59.190624 55.604168 59.14375 55.166668Q59.096874 54.713543 59.01875 54.369793Q58.940624 54.010418 58.815624 53.760418Q58.690624 53.510418 58.51875 53.354168Q58.346874 53.197918 58.1125 53.119793Q57.89375 53.041668 57.6125 53.041668Q57.1125 53.041668 56.8 53.276043Q56.4875 53.510418 56.3 53.932293Q56.128124 54.338543 56.065624 54.885418Q56.003124 55.432293 56.003124 56.072918Q56.003124 56.916668 56.08125 57.510418Q56.175 58.104168 56.3625 58.479168Q56.565624 58.854168 56.8625 59.026043Q57.159374 59.197918 57.58125 59.197918Q57.909374 59.197918 58.14375 59.104168Q58.39375 58.994793 58.565624 58.807293Q58.753124 58.604168 58.8625 58.322918Q58.9875 58.041668 59.05 57.713543Q59.128124 57.385418 59.159374 56.994793Q59.190624 56.604168 59.190624 56.182293ZM66.22188 56.104168Q66.22188 56.979168 66.08125 57.697918Q65.94063 58.416668 65.6125 58.947918Q65.3 59.463543 64.78438 59.744793Q64.26875 60.026043 63.51875 60.026043Q62.8 60.026043 62.3 59.776043Q61.815624 59.510418 61.51875 59.026043Q61.221874 58.526043 61.096874 57.807293Q60.971874 57.072918 60.971874 56.135418Q60.971874 55.276043 61.1125 54.557293Q61.253124 53.822918 61.565624 53.307293Q61.89375 52.791668 62.409374 52.510418Q62.925 52.229168 63.675 52.229168Q64.39375 52.229168 64.87813 52.479168Q65.3625 52.729168 65.65938 53.229168Q65.97188 53.729168 66.09688 54.447918Q66.22188 55.166668 66.22188 56.104168ZM65.19063 56.182293Q65.19063 55.604168 65.14375 55.166668Q65.09688 54.713543 65.01875 54.369793Q64.94063 54.010418 64.81563 53.760418Q64.69063 53.510418 64.51875 53.354168Q64.34688 53.197918 64.1125 53.119793Q63.89375 53.041668 63.6125 53.041668Q63.1125 53.041668 62.8 53.276043Q62.4875 53.510418 62.3 53.932293Q62.128124 54.338543 62.065624 54.885418Q62.003124 55.432293 62.003124 56.072918Q62.003124 56.916668 62.08125 57.510418Q62.175 58.104168 62.3625 58.479168Q62.565624 58.854168 62.8625 59.026043Q63.159374 59.197918 63.58125 59.197918Q63.909374 59.197918 64.14375 59.104168Q64.39375 58.994793 64.56563 58.807293Q64.75313 58.604168 64.8625 58.322918Q64.9875 58.041668 65.05 57.713543Q65.12813 57.385418 65.15938 56.994793Q65.19063 56.604168 65.19063 56.182293Z" fill-rule="nonzero"/><path fill="#757575" d="M29.940624 26.05Q29.940624 27.690624 29.51875 28.925Q29.1125 30.14375 28.3 30.95625Q27.503124 31.753124 26.33125 32.159374Q25.159374 32.55 23.534374 32.55L20.8625 32.55Q20.628124 32.55 20.425 32.409374Q20.2375 32.253124 20.2375 31.8625L20.2375 20.596874Q20.2375 20.221874 20.425 20.065624Q20.628124 19.909374 20.8625 19.909374L23.721874 19.909374Q25.3625 19.909374 26.4875 20.346874Q27.628124 20.76875 28.39375 21.565624Q29.159374 22.346874 29.55 23.4875Q29.940624 24.6125 29.940624 26.05ZM28.175 26.1125Q28.175 25.08125 27.925 24.20625Q27.675 23.315624 27.128124 22.675Q26.58125 22.034374 25.753124 21.675Q24.925 21.315624 23.6125 21.315624L21.909374 21.315624L21.909374 31.14375L23.64375 31.14375Q24.846874 31.14375 25.675 30.846874Q26.503124 30.534374 27.065624 29.909374Q27.628124 29.284374 27.89375 28.346874Q28.175 27.409374 28.175 26.1125ZM33.659374 32.3Q33.659374 32.378124 33.6125 32.440624Q33.58125 32.4875 33.4875 32.534374Q33.409374 32.565624 33.253124 32.58125Q33.096874 32.6125 32.846874 32.6125Q32.6125 32.6125 32.45625 32.58125Q32.3 32.565624 32.20625 32.534374Q32.1125 32.4875 32.08125 32.440624Q32.05 32.378124 32.05 32.3L32.05 23.51875Q32.05 23.440624 32.08125 23.39375Q32.1125 23.33125 32.20625 23.3Q32.3 23.253124 32.45625 23.2375Q32.6125 23.20625 32.846874 23.20625Q33.096874 23.20625 33.253124 23.2375Q33.409374 23.253124 33.4875 23.3Q33.58125 23.33125 33.6125 23.39375Q33.659374 23.440624 33.659374 23.51875L33.659374 32.3ZM33.846874 20.55Q33.846874 21.1125 33.628124 21.315624Q33.409374 21.51875 32.83125 21.51875Q32.26875 21.51875 32.05 21.33125Q31.846874 21.128124 31.846874 20.565624Q31.846874 20.003124 32.065624 19.8Q32.284374 19.596874 32.8625 19.596874Q33.425 19.596874 33.628124 19.8Q33.846874 19.9875 33.846874 20.55ZM42.565624 29.909374Q42.565624 30.58125 42.315624 31.1125Q42.065624 31.64375 41.596874 32.003124Q41.14375 32.3625 40.503124 32.55Q39.878124 32.7375 39.1125 32.7375Q38.64375 32.7375 38.221874 32.659374Q37.8 32.596874 37.45625 32.4875Q37.128124 32.3625 36.89375 32.2375Q36.659374 32.1125 36.55 32.01875Q36.440624 31.925 36.39375 31.753124Q36.346874 31.565624 36.346874 31.26875Q36.346874 31.08125 36.3625 30.95625Q36.378124 30.83125 36.409374 30.753124Q36.440624 30.675 36.4875 30.64375Q36.55 30.6125 36.6125 30.6125Q36.721874 30.6125 36.925 30.7375Q37.14375 30.8625 37.440624 31.01875Q37.753124 31.175 38.175 31.315624Q38.596874 31.440624 39.14375 31.440624Q39.55 31.440624 39.878124 31.3625Q40.221874 31.26875 40.45625 31.096874Q40.70625 30.925 40.83125 30.659374Q40.971874 30.39375 40.971874 30.034374Q40.971874 29.675 40.784374 29.425Q40.596874 29.159374 40.284374 28.971874Q39.971874 28.76875 39.58125 28.628124Q39.190624 28.471874 38.76875 28.3Q38.346874 28.128124 37.95625 27.925Q37.565624 27.721874 37.253124 27.425Q36.940624 27.1125 36.7375 26.690624Q36.55 26.26875 36.55 25.690624Q36.55 25.159374 36.753124 24.690624Q36.95625 24.221874 37.346874 23.8625Q37.753124 23.503124 38.346874 23.3Q38.95625 23.08125 39.753124 23.08125Q40.1125 23.08125 40.45625 23.14375Q40.815624 23.190624 41.096874 23.284374Q41.378124 23.3625 41.58125 23.471874Q41.784374 23.58125 41.878124 23.659374Q41.9875 23.7375 42.01875 23.8Q42.05 23.846874 42.065624 23.925Q42.08125 23.9875 42.096874 24.096874Q42.1125 24.20625 42.1125 24.3625Q42.1125 24.534374 42.096874 24.659374Q42.08125 24.76875 42.05 24.846874Q42.01875 24.925 41.971874 24.971874Q41.925 25.003124 41.8625 25.003124Q41.76875 25.003124 41.596874 24.89375Q41.440624 24.784374 41.175 24.659374Q40.909374 24.534374 40.55 24.440624Q40.20625 24.33125 39.7375 24.33125Q39.33125 24.33125 39.01875 24.425Q38.70625 24.51875 38.503124 24.690624Q38.3 24.846874 38.190624 25.08125Q38.096874 25.315624 38.096874 25.596874Q38.096874 25.971874 38.284374 26.2375Q38.4875 26.4875 38.8 26.690624Q39.1125 26.878124 39.503124 27.034374Q39.909374 27.190624 40.33125 27.3625Q40.753124 27.534374 41.14375 27.7375Q41.55 27.940624 41.8625 28.2375Q42.175 28.51875 42.3625 28.940624Q42.565624 29.346874 42.565624 29.909374ZM51.659374 32.315624Q51.659374 32.425 51.58125 32.4875Q51.503124 32.55 51.3625 32.58125Q51.2375 32.6125 50.971874 32.6125Q50.721874 32.6125 50.565624 32.58125Q50.409374 32.55 50.346874 32.4875Q50.284374 32.425 50.284374 32.315624L50.284374 31.440624Q49.70625 32.05 48.9875 32.39375Q48.284374 32.7375 47.503124 32.7375Q46.8 32.7375 46.2375 32.55Q45.675 32.378124 45.284374 32.034374Q44.89375 31.690624 44.675 31.190624Q44.45625 30.690624 44.45625 30.065624Q44.45625 29.315624 44.753124 28.76875Q45.05 28.221874 45.6125 27.8625Q46.190624 27.503124 47.003124 27.33125Q47.83125 27.14375 48.846874 27.14375L50.065624 27.14375L50.065624 26.45625Q50.065624 25.940624 49.95625 25.55Q49.846874 25.159374 49.6125 24.909374Q49.378124 24.64375 48.9875 24.51875Q48.6125 24.378124 48.05 24.378124Q47.45625 24.378124 46.971874 24.534374Q46.503124 24.675 46.14375 24.846874Q45.8 25.003124 45.55 25.159374Q45.315624 25.3 45.20625 25.3Q45.128124 25.3 45.065624 25.26875Q45.003124 25.221874 44.95625 25.14375Q44.925 25.065624 44.89375 24.940624Q44.878124 24.815624 44.878124 24.675Q44.878124 24.425 44.909374 24.284374Q44.940624 24.14375 45.065624 24.01875Q45.20625 23.89375 45.534374 23.721874Q45.8625 23.55 46.26875 23.409374Q46.690624 23.26875 47.190624 23.175Q47.690624 23.08125 48.20625 23.08125Q49.14375 23.08125 49.8 23.3Q50.471874 23.503124 50.878124 23.925Q51.3 24.33125 51.471874 24.95625Q51.659374 25.565624 51.659374 26.39375L51.659374 32.315624ZM50.065624 28.3L48.690624 28.3Q48.01875 28.3 47.534374 28.409374Q47.05 28.51875 46.721874 28.753124Q46.409374 28.971874 46.253124 29.284374Q46.096874 29.58125 46.096874 29.9875Q46.096874 30.659374 46.534374 31.065624Q46.971874 31.471874 47.753124 31.471874Q48.378124 31.471874 48.925 31.159374Q49.471874 30.83125 50.065624 30.159374L50.065624 28.3ZM63.128124 27.76875Q63.128124 28.925 62.878124 29.846874Q62.628124 30.76875 62.14375 31.409374Q61.659374 32.034374 60.940624 32.39375Q60.2375 32.7375 59.315624 32.7375Q58.925 32.7375 58.596874 32.659374Q58.26875 32.58125 57.940624 32.425Q57.628124 32.253124 57.315624 32.003124Q57.003124 31.7375 56.659374 31.39375L56.659374 35.8Q56.659374 35.878124 56.6125 35.925Q56.58125 35.9875 56.4875 36.01875Q56.409374 36.065624 56.253124 36.08125Q56.096874 36.1125 55.846874 36.1125Q55.6125 36.1125 55.45625 36.08125Q55.3 36.065624 55.20625 36.01875Q55.1125 35.9875 55.08125 35.925Q55.05 35.878124 55.05 35.8L55.05 23.51875Q55.05 23.425 55.065624 23.378124Q55.096874 23.315624 55.190624 23.284374Q55.284374 23.2375 55.409374 23.221874Q55.55 23.20625 55.753124 23.20625Q55.95625 23.20625 56.08125 23.221874Q56.221874 23.2375 56.3 23.284374Q56.39375 23.315624 56.425 23.378124Q56.45625 23.425 56.45625 23.51875L56.45625 24.690624Q56.8625 24.284374 57.221874 23.9875Q57.596874 23.675 57.971874 23.4875Q58.3625 23.284374 58.753124 23.190624Q59.14375 23.08125 59.58125 23.08125Q60.55 23.08125 61.221874 23.45625Q61.89375 23.815624 62.315624 24.471874Q62.7375 25.1125 62.925 25.971874Q63.128124 26.815624 63.128124 27.76875ZM61.425 27.95625Q61.425 27.284374 61.315624 26.659374Q61.221874 26.01875 60.971874 25.534374Q60.721874 25.05 60.3 24.753124Q59.89375 24.45625 59.26875 24.45625Q58.95625 24.45625 58.64375 24.55Q58.346874 24.64375 58.034374 24.846874Q57.721874 25.05 57.378124 25.378124Q57.034374 25.70625 56.659374 26.175L56.659374 29.675Q57.315624 30.4875 57.909374 30.925Q58.51875 31.346874 59.159374 31.346874Q59.76875 31.346874 60.20625 31.065624Q60.64375 30.76875 60.909374 30.284374Q61.175 29.784374 61.3 29.190624Q61.425 28.58125 61.425 27.95625ZM74.12813 27.76875Q74.12813 28.925 73.87813 29.846874Q73.62813 30.76875 73.14375 31.409374Q72.65938 32.034374 71.94063 32.39375Q71.2375 32.7375 70.31563 32.7375Q69.925 32.7375 69.59688 32.659374Q69.26875 32.58125 68.94063 32.425Q68.62813 32.253124 68.31563 32.003124Q68.00313 31.7375 67.65938 31.39375L67.65938 35.8Q67.65938 35.878124 67.6125 35.925Q67.58125 35.9875 67.4875 36.01875Q67.40938 36.065624 67.25313 36.08125Q67.09688 36.1125 66.84688 36.1125Q66.6125 36.1125 66.45625 36.08125Q66.3 36.065624 66.20625 36.01875Q66.1125 35.9875 66.08125 35.925Q66.05 35.878124 66.05 35.8L66.05 23.51875Q66.05 23.425 66.06563 23.378124Q66.09688 23.315624 66.19063 23.284374Q66.28438 23.2375 66.40938 23.221874Q66.55 23.20625 66.75313 23.20625Q66.95625 23.20625 67.08125 23.221874Q67.22188 23.2375 67.3 23.284374Q67.39375 23.315624 67.425 23.378124Q67.45625 23.425 67.45625 23.51875L67.45625 24.690624Q67.8625 24.284374 68.22188 23.9875Q68.59688 23.675 68.97188 23.4875Q69.3625 23.284374 69.75313 23.190624Q70.14375 23.08125 70.58125 23.08125Q71.55 23.08125 72.22188 23.45625Q72.89375 23.815624 73.31563 24.471874Q73.7375 25.1125 73.925 25.971874Q74.12813 26.815624 74.12813 27.76875ZM72.425 27.95625Q72.425 27.284374 72.31563 26.659374Q72.22188 26.01875 71.97188 25.534374Q71.72188 25.05 71.3 24.753124Q70.89375 24.45625 70.26875 24.45625Q69.95625 24.45625 69.64375 24.55Q69.34688 24.64375 69.03438 24.846874Q68.72188 25.05 68.37813 25.378124Q68.03438 25.70625 67.65938 26.175L67.65938 29.675Q68.31563 30.4875 68.90938 30.925Q69.51875 31.346874 70.15938 31.346874Q70.76875 31.346874 71.20625 31.065624Q71.64375 30.76875 71.90938 30.284374Q72.175 29.784374 72.3 29.190624Q72.425 28.58125 72.425 27.95625ZM85.22188 27.815624Q85.22188 28.89375 84.94063 29.8Q84.65938 30.690624 84.09688 31.346874Q83.53438 32.003124 82.69063 32.378124Q81.84688 32.7375 80.72188 32.7375Q79.64375 32.7375 78.83125 32.425Q78.03438 32.096874 77.4875 31.4875Q76.95625 30.8625 76.69063 29.9875Q76.425 29.096874 76.425 27.9875Q76.425 26.909374 76.70625 26.01875Q76.9875 25.1125 77.55 24.45625Q78.1125 23.8 78.94063 23.440624Q79.78438 23.08125 80.90938 23.08125Q82.00313 23.08125 82.8 23.409374Q83.6125 23.721874 84.14375 24.346874Q84.675 24.95625 84.94063 25.83125Q85.22188 26.70625 85.22188 27.815624ZM83.51875 27.925Q83.51875 27.20625 83.37813 26.58125Q83.25313 25.940624 82.94063 25.471874Q82.64375 24.9875 82.12813 24.70625Q81.6125 24.425 80.84688 24.425Q80.12813 24.425 79.6125 24.675Q79.1125 24.925 78.76875 25.39375Q78.44063 25.8625 78.26875 26.503124Q78.1125 27.128124 78.1125 27.878124Q78.1125 28.596874 78.2375 29.2375Q78.37813 29.878124 78.69063 30.346874Q79.00313 30.815624 79.51875 31.096874Q80.03438 31.378124 80.8 31.378124Q81.50313 31.378124 82.01875 31.128124Q82.55 30.8625 82.87813 30.409374Q83.20625 29.95625 83.3625 29.315624Q83.51875 28.675 83.51875 27.925ZM89.65938 32.3Q89.65938 32.378124 89.6125 32.440624Q89.58125 32.4875 89.4875 32.534374Q89.40938 32.565624 89.25313 32.58125Q89.09688 32.6125 88.84688 32.6125Q88.6125 32.6125 88.45625 32.58125Q88.3 32.565624 88.20625 32.534374Q88.1125 32.4875 88.08125 32.440624Q88.05 32.378124 88.05 32.3L88.05 23.51875Q88.05 23.440624 88.08125 23.39375Q88.1125 23.33125 88.20625 23.3Q88.3 23.253124 88.45625 23.2375Q88.6125 23.20625 88.84688 23.20625Q89.09688 23.20625 89.25313 23.2375Q89.40938 23.253124 89.4875 23.3Q89.58125 23.33125 89.6125 23.39375Q89.65938 23.440624 89.65938 23.51875L89.65938 32.3ZM89.84688 20.55Q89.84688 21.1125 89.62813 21.315624Q89.40938 21.51875 88.83125 21.51875Q88.26875 21.51875 88.05 21.33125Q87.84688 21.128124 87.84688 20.565624Q87.84688 20.003124 88.06563 19.8Q88.28438 19.596874 88.8625 19.596874Q89.425 19.596874 89.62813 19.8Q89.84688 19.9875 89.84688 20.55ZM100.6125 32.3Q100.6125 32.378124 100.56563 32.440624Q100.53438 32.4875 100.44063 32.534374Q100.3625 32.565624 100.20625 32.58125Q100.05 32.6125 99.81563 32.6125Q99.56563 32.6125 99.40938 32.58125Q99.25313 32.565624 99.15938 32.534374Q99.08125 32.4875 99.03438 32.440624Q99.00313 32.378124 99.00313 32.3L99.00313 27.159374Q99.00313 26.409374 98.87813 25.95625Q98.76875 25.4875 98.53438 25.159374Q98.31563 24.83125 97.95625 24.659374Q97.6125 24.471874 97.14375 24.471874Q96.53438 24.471874 95.925 24.909374Q95.31563 25.33125 94.65938 26.159374L94.65938 32.3Q94.65938 32.378124 94.6125 32.440624Q94.58125 32.4875 94.4875 32.534374Q94.40938 32.565624 94.25313 32.58125Q94.09688 32.6125 93.84688 32.6125Q93.6125 32.6125 93.45625 32.58125Q93.3 32.565624 93.20625 32.534374Q93.1125 32.4875 93.08125 32.440624Q93.05 32.378124 93.05 32.3L93.05 23.51875Q93.05 23.440624 93.06563 23.39375Q93.09688 23.33125 93.19063 23.284374Q93.28438 23.2375 93.40938 23.221874Q93.55 23.20625 93.78438 23.20625Q93.9875 23.20625 94.12813 23.221874Q94.26875 23.2375 94.34688 23.284374Q94.425 23.33125 94.45625 23.39375Q94.50313 23.440624 94.50313 23.51875L94.50313 24.675Q95.2375 23.846874 95.97188 23.471874Q96.72188 23.08125 97.47188 23.08125Q98.34688 23.08125 98.94063 23.378124Q99.55 23.675 99.90938 24.175Q100.28438 24.675 100.44063 25.346874Q100.6125 26.003124 100.6125 26.940624L100.6125 32.3ZM108.6125 31.659374Q108.6125 31.940624 108.56563 32.1125Q108.53438 32.26875 108.45625 32.346874Q108.37813 32.425 108.22188 32.503124Q108.06563 32.565624 107.8625 32.6125Q107.675 32.659374 107.44063 32.690624Q107.22188 32.721874 106.9875 32.721874Q106.31563 32.721874 105.81563 32.534374Q105.33125 32.346874 105.01875 31.9875Q104.70625 31.628124 104.56563 31.065624Q104.425 30.503124 104.425 29.7375L104.425 24.596874L103.19063 24.596874Q103.05 24.596874 102.95625 24.440624Q102.87813 24.284374 102.87813 23.940624Q102.87813 23.753124 102.89375 23.628124Q102.925 23.503124 102.95625 23.425Q103.00313 23.33125 103.06563 23.3Q103.12813 23.26875 103.20625 23.26875L104.425 23.26875L104.425 21.175Q104.425 21.096874 104.45625 21.05Q104.4875 20.9875 104.58125 20.940624Q104.675 20.89375 104.83125 20.878124Q104.9875 20.8625 105.22188 20.8625Q105.47188 20.8625 105.62813 20.878124Q105.78438 20.89375 105.8625 20.940624Q105.95625 20.9875 105.9875 21.05Q106.03438 21.096874 106.03438 21.175L106.03438 23.26875L108.3 23.26875Q108.37813 23.26875 108.425 23.3Q108.4875 23.33125 108.53438 23.425Q108.58125 23.503124 108.59688 23.628124Q108.6125 23.753124 108.6125 23.940624Q108.6125 24.284374 108.51875 24.440624Q108.44063 24.596874 108.3 24.596874L106.03438 24.596874L106.03438 29.503124Q106.03438 30.409374 106.3 30.878124Q106.58125 31.33125 107.26875 31.33125Q107.4875 31.33125 107.65938 31.3Q107.84688 31.253124 107.97188 31.20625Q108.1125 31.159374 108.20625 31.1125Q108.31563 31.065624 108.39375 31.065624Q108.44063 31.065624 108.4875 31.096874Q108.53438 31.1125 108.55 31.190624Q108.58125 31.253124 108.59688 31.378124Q108.6125 31.4875 108.6125 31.659374ZM124.08125 32.3Q124.08125 32.378124 124.03438 32.440624Q124.00313 32.4875 123.90938 32.534374Q123.83125 32.565624 123.675 32.58125Q123.51875 32.6125 123.28438 32.6125Q123.03438 32.6125 122.87813 32.58125Q122.72188 32.565624 122.62813 32.534374Q122.53438 32.4875 122.4875 32.440624Q122.45625 32.378124 122.45625 32.3L122.45625 26.95625Q122.45625 26.409374 122.3625 25.95625Q122.26875 25.4875 122.05 25.159374Q121.83125 24.83125 121.50313 24.659374Q121.175 24.471874 120.72188 24.471874Q120.15938 24.471874 119.59688 24.909374Q119.05 25.33125 118.3625 26.159374L118.3625 32.3Q118.3625 32.378124 118.31563 32.440624Q118.28438 32.4875 118.19063 32.534374Q118.1125 32.565624 117.95625 32.58125Q117.8 32.6125 117.56563 32.6125Q117.33125 32.6125 117.175 32.58125Q117.01875 32.565624 116.925 32.534374Q116.83125 32.4875 116.78438 32.440624Q116.75313 32.378124 116.75313 32.3L116.75313 26.95625Q116.75313 26.409374 116.64375 25.95625Q116.55 25.4875 116.33125 25.159374Q116.1125 24.83125 115.78438 24.659374Q115.45625 24.471874 115.00313 24.471874Q114.45625 24.471874 113.87813 24.909374Q113.31563 25.33125 112.65938 26.159374L112.65938 32.3Q112.65938 32.378124 112.6125 32.440624Q112.58125 32.4875 112.4875 32.534374Q112.40938 32.565624 112.25313 32.58125Q112.09688 32.6125 111.84688 32.6125Q111.6125 32.6125 111.45625 32.58125Q111.3 32.565624 111.20625 32.534374Q111.1125 32.4875 111.08125 32.440624Q111.05 32.378124 111.05 32.3L111.05 23.51875Q111.05 23.440624 111.06563 23.39375Q111.09688 23.33125 111.19063 23.284374Q111.28438 23.2375 111.40938 23.221874Q111.55 23.20625 111.78438 23.20625Q111.9875 23.20625 112.12813 23.221874Q112.26875 23.2375 112.34688 23.284374Q112.425 23.33125 112.45625 23.39375Q112.50313 23.440624 112.50313 23.51875L112.50313 24.675Q113.2375 23.846874 113.94063 23.471874Q114.64375 23.08125 115.34688 23.08125Q115.89375 23.08125 116.33125 23.20625Q116.76875 23.33125 117.09688 23.565624Q117.425 23.784374 117.65938 24.1125Q117.89375 24.425 118.05 24.815624Q118.50313 24.33125 118.89375 24.003124Q119.28438 23.675 119.64375 23.471874Q120.01875 23.26875 120.3625 23.175Q120.70625 23.08125 121.06563 23.08125Q121.90938 23.08125 122.4875 23.378124Q123.06563 23.675 123.425 24.175Q123.78438 24.675 123.925 25.346874Q124.08125 26.003124 124.08125 26.753124L124.08125 32.3ZM134.55 27.534374Q134.55 27.909374 134.34688 28.08125Q134.15938 28.2375 133.925 28.2375L128.15938 28.2375Q128.15938 28.971874 128.3 29.565624Q128.45625 30.14375 128.78438 30.565624Q129.12813 30.971874 129.675 31.20625Q130.22188 31.425 131.01875 31.425Q131.64375 31.425 132.12813 31.33125Q132.62813 31.221874 132.97188 31.096874Q133.33125 30.971874 133.56563 30.878124Q133.8 30.76875 133.90938 30.76875Q133.97188 30.76875 134.01875 30.8Q134.08125 30.83125 134.1125 30.909374Q134.14375 30.971874 134.15938 31.096874Q134.175 31.20625 134.175 31.39375Q134.175 31.51875 134.15938 31.6125Q134.15938 31.70625 134.14375 31.784374Q134.12813 31.846874 134.08125 31.909374Q134.05 31.95625 134.00313 32.01875Q133.95625 32.065624 133.69063 32.190624Q133.425 32.315624 133.00313 32.440624Q132.58125 32.55 132.01875 32.64375Q131.47188 32.7375 130.84688 32.7375Q129.76875 32.7375 128.95625 32.440624Q128.14375 32.128124 127.58125 31.534374Q127.01875 30.940624 126.7375 30.05Q126.45625 29.14375 126.45625 27.95625Q126.45625 26.815624 126.75313 25.909374Q127.05 25.003124 127.59688 24.378124Q128.14375 23.753124 128.925 23.425Q129.70625 23.08125 130.675 23.08125Q131.70625 23.08125 132.44063 23.409374Q133.175 23.7375 133.64375 24.3Q134.1125 24.8625 134.33125 25.628124Q134.55 26.378124 134.55 27.2375L134.55 27.534374ZM132.925 27.05Q132.95625 25.784374 132.3625 25.065624Q131.76875 24.33125 130.6125 24.33125Q130.01875 24.33125 129.56563 24.565624Q129.1125 24.784374 128.8 25.159374Q128.50313 25.534374 128.33125 26.034374Q128.175 26.51875 128.15938 27.05L132.925 27.05ZM144.6125 32.3Q144.6125 32.378124 144.56563 32.440624Q144.53438 32.4875 144.44063 32.534374Q144.3625 32.565624 144.20625 32.58125Q144.05 32.6125 143.81563 32.6125Q143.56563 32.6125 143.40938 32.58125Q143.25313 32.565624 143.15938 32.534374Q143.08125 32.4875 143.03438 32.440624Q143.00313 32.378124 143.00313 32.3L143.00313 27.159374Q143.00313 26.409374 142.87813 25.95625Q142.76875 25.4875 142.53438 25.159374Q142.31563 24.83125 141.95625 24.659374Q141.6125 24.471874 141.14375 24.471874Q140.53438 24.471874 139.925 24.909374Q139.31563 25.33125 138.65938 26.159374L138.65938 32.3Q138.65938 32.378124 138.6125 32.440624Q138.58125 32.4875 138.4875 32.534374Q138.40938 32.565624 138.25313 32.58125Q138.09688 32.6125 137.84688 32.6125Q137.6125 32.6125 137.45625 32.58125Q137.3 32.565624 137.20625 32.534374Q137.1125 32.4875 137.08125 32.440624Q137.05 32.378124 137.05 32.3L137.05 23.51875Q137.05 23.440624 137.06563 23.39375Q137.09688 23.33125 137.19063 23.284374Q137.28438 23.2375 137.40938 23.221874Q137.55 23.20625 137.78438 23.20625Q137.9875 23.20625 138.12813 23.221874Q138.26875 23.2375 138.34688 23.284374Q138.425 23.33125 138.45625 23.39375Q138.50313 23.440624 138.50313 23.51875L138.50313 24.675Q139.2375 23.846874 139.97188 23.471874Q140.72188 23.08125 141.47188 23.08125Q142.34688 23.08125 142.94063 23.378124Q143.55 23.675 143.90938 24.175Q144.28438 24.675 144.44063 25.346874Q144.6125 26.003124 144.6125 26.940624L144.6125 32.3ZM152.6125 31.659374Q152.6125 31.940624 152.56563 32.1125Q152.53438 32.26875 152.45625 32.346874Q152.37813 32.425 152.22188 32.503124Q152.06563 32.565624 151.8625 32.6125Q151.675 32.659374 151.44063 32.690624Q151.22188 32.721874 150.9875 32.721874Q150.31563 32.721874 149.81563 32.534374Q149.33125 32.346874 149.01875 31.9875Q148.70625 31.628124 148.56563 31.065624Q148.425 30.503124 148.425 29.7375L148.425 24.596874L147.19063 24.596874Q147.05 24.596874 146.95625 24.440624Q146.87813 24.284374 146.87813 23.940624Q146.87813 23.753124 146.89375 23.628124Q146.925 23.503124 146.95625 23.425Q147.00313 23.33125 147.06563 23.3Q147.12813 23.26875 147.20625 23.26875L148.425 23.26875L148.425 21.175Q148.425 21.096874 148.45625 21.05Q148.4875 20.9875 148.58125 20.940624Q148.675 20.89375 148.83125 20.878124Q148.9875 20.8625 149.22188 20.8625Q149.47188 20.8625 149.62813 20.878124Q149.78438 20.89375 149.8625 20.940624Q149.95625 20.9875 149.9875 21.05Q150.03438 21.096874 150.03438 21.175L150.03438 23.26875L152.3 23.26875Q152.37813 23.26875 152.425 23.3Q152.4875 23.33125 152.53438 23.425Q152.58125 23.503124 152.59688 23.628124Q152.6125 23.753124 152.6125 23.940624Q152.6125 24.284374 152.51875 24.440624Q152.44063 24.596874 152.3 24.596874L150.03438 24.596874L150.03438 29.503124Q150.03438 30.409374 150.3 30.878124Q150.58125 31.33125 151.26875 31.33125Q151.4875 31.33125 151.65938 31.3Q151.84688 31.253124 151.97188 31.20625Q152.1125 31.159374 152.20625 31.1125Q152.31563 31.065624 152.39375 31.065624Q152.44063 31.065624 152.4875 31.096874Q152.53438 31.1125 152.55 31.190624Q152.58125 31.253124 152.59688 31.378124Q152.6125 31.4875 152.6125 31.659374Z" fill-rule="nonzero"/></svg>