<svg version="1.1" viewBox="0.0 0.0 600.0 371.0" fill="none" stroke="none" stroke-linecap="square" stroke-miterlimit="10" width="600" height="371" xmlns:xlink="http://www.w3.org/1999/xlink" xmlns="http://www.w3.org/2000/svg"><path fill="#ffffff" d="M0 0L600.0 0L600.0 371.0L0 371.0L0 0Z" fill-rule="nonzero"/><path stroke="#333333" stroke-width="1.0" stroke-linecap="butt" d="M72.5 346.5L581.5 346.5" fill-rule="nonzero"/><path stroke="#cccccc" stroke-width="1.0" stroke-linecap="butt" d="M72.5 317.5L581.5 317.5" fill-rule="nonzero"/><path stroke="#cccccc" stroke-width="1.0" stroke-linecap="butt" d="M72.5 288.5L581.5 288.5" fill-rule="nonzero"/><path stroke="#cccccc" stroke-width="1.0" stroke-linecap="butt" d="M72.5 259.5L581.5 259.5" fill-rule="nonzero"/><path stroke="#cccccc" stroke-width="1.0" stroke-linecap="butt" d="M72.5 230.5L581.5 230.5" fill-rule="nonzero"/><path stroke="#cccccc" stroke-width="1.0" stroke-linecap="butt" d="M72.5 201.5L581.5 201.5" fill-rule="nonzero"/><path stroke="#cccccc" stroke-width="1.0" stroke-linecap="butt" d="M72.5 172.5L581.5 172.5" fill-rule="nonzero"/><path stroke="#cccccc" stroke-width="1.0" stroke-linecap="butt" d="M72.5 143.5L581.5 143.5" fill-rule="nonzero"/><path stroke="#cccccc" stroke-width="1.0" stroke-linecap="butt" d="M72.5 114.5L581.5 114.5" fill-rule="nonzero"/><path stroke="#cccccc" stroke-width="1.0" stroke-linecap="butt" d="M72.5 85.5L581.5 85.5" fill-rule="nonzero"/><path stroke="#cccccc" stroke-width="1.0" stroke-linecap="butt" d="M72.5 56.5L581.5 56.5" fill-rule="nonzero"/><clipPath id="id_0"><path d="M72.55 56.916668L581.45 56.916668L581.45 346.45L72.55 346.45L72.55 56.916668Z" clip-rule="nonzero"/></clipPath><path stroke="#434343" stroke-width="2.0" stroke-linecap="butt" clip-path="url(#id_0)" d="M77.74286 56.916668L88.12857 85.87L98.51428 85.87L108.9 85.87L119.28571 85.87L129.67143 85.87L140.05714 85.87L150.44286 85.87L160.82857 118.68378L171.21428 127.36978L181.6 144.74178L191.98572 144.74178L202.37143 144.74178L212.75714 144.74178L223.14285 164.044L233.52856 164.044L243.91429 171.7649L254.3 171.7649L264.6857 171.7649L275.07144 171.7649L285.45715 182.3811L295.84286 182.3811L306.22858 191.06711L316.6143 191.06711L327.0 199.75311L337.3857 212.29956L347.77142 217.1251L358.15714 236.42734L368.54285 236.42734L378.92856 248.00867L389.3143 249.93889L399.7 249.93889L410.08572 254.76445L420.47144 258.62488L430.85715 260.5551L441.24286 266.34576L451.62857 267.31088L462.01428 267.31088L472.4 268.276L482.7857 278.8922L493.17142 278.8922L503.55713 311.706L513.9429 315.56644L524.32855 333.90356L534.7143 333.90356L545.1 333.90356L555.4857 333.90356L565.8714 334.86865L576.25714 346.45" fill-rule="nonzero"/><path fill="#434343" clip-path="url(#id_0)" d="M83.74286 56.916668C83.74286 60.230373 81.056564 62.916668 77.74286 62.916668C74.429146 62.916668 71.74286 60.230373 71.74286 56.916668C71.74286 53.60296 74.429146 50.916668 77.74286 50.916668C81.056564 50.916668 83.74286 53.60296 83.74286 56.916668Z" fill-rule="nonzero"/><path fill="#434343" clip-path="url(#id_0)" d="M94.12857 85.87C94.12857 89.18371 91.44228 91.87 88.12857 91.87C84.814865 91.87 82.12857 89.18371 82.12857 85.87C82.12857 82.55629 84.814865 79.87 88.12857 79.87C91.44228 79.87 94.12857 82.55629 94.12857 85.87Z" fill-rule="nonzero"/><path fill="#434343" clip-path="url(#id_0)" d="M104.51428 85.87C104.51428 89.18371 101.827995 91.87 98.51428 91.87C95.20058 91.87 92.51428 89.18371 92.51428 85.87C92.51428 82.55629 95.20058 79.87 98.51428 79.87C101.827995 79.87 104.51428 82.55629 104.51428 85.87Z" fill-rule="nonzero"/><path fill="#434343" clip-path="url(#id_0)" d="M114.9 85.87C114.9 89.18371 112.21371 91.87 108.9 91.87C105.58629 91.87 102.9 89.18371 102.9 85.87C102.9 82.55629 105.58629 79.87 108.9 79.87C112.21371 79.87 114.9 82.55629 114.9 85.87Z" fill-rule="nonzero"/><path fill="#434343" clip-path="url(#id_0)" d="M125.28571 85.87C125.28571 89.18371 122.59943 91.87 119.28571 91.87C115.97201 91.87 113.28571 89.18371 113.28571 85.87C113.28571 82.55629 115.97201 79.87 119.28571 79.87C122.59943 79.87 125.28571 82.55629 125.28571 85.87Z" fill-rule="nonzero"/><path fill="#434343" clip-path="url(#id_0)" d="M135.67143 85.87C135.67143 89.18371 132.98514 91.87 129.67143 91.87C126.35772 91.87 123.671425 89.18371 123.671425 85.87C123.671425 82.55629 126.35772 79.87 129.67143 79.87C132.98514 79.87 135.67143 82.55629 135.67143 85.87Z" fill-rule="nonzero"/><path fill="#434343" clip-path="url(#id_0)" d="M146.05714 85.87C146.05714 89.18371 143.37085 91.87 140.05714 91.87C136.74344 91.87 134.05714 89.18371 134.05714 85.87C134.05714 82.55629 136.74344 79.87 140.05714 79.87C143.37085 79.87 146.05714 82.55629 146.05714 85.87Z" fill-rule="nonzero"/><path fill="#434343" clip-path="url(#id_0)" d="M156.44286 85.87C156.44286 89.18371 153.75656 91.87 150.44286 91.87C147.12915 91.87 144.44286 89.18371 144.44286 85.87C144.44286 82.55629 147.12915 79.87 150.44286 79.87C153.75656 79.87 156.44286 82.55629 156.44286 85.87Z" fill-rule="nonzero"/><path fill="#434343" clip-path="url(#id_0)" d="M166.82857 118.68378C166.82857 121.99749 164.14227 124.68378 160.82857 124.68378C157.51486 124.68378 154.82857 121.99749 154.82857 118.68378C154.82857 115.37007 157.51486 112.68378 160.82857 112.68378C164.14227 112.68378 166.82857 115.37007 166.82857 118.68378Z" fill-rule="nonzero"/><path fill="#434343" clip-path="url(#id_0)" d="M177.21428 127.36978C177.21428 130.68349 174.528 133.36978 171.21428 133.36978C167.90057 133.36978 165.21428 130.68349 165.21428 127.36978C165.21428 124.05607 167.90057 121.36978 171.21428 121.36978C174.528 121.36978 177.21428 124.05607 177.21428 127.36978Z" fill-rule="nonzero"/><path fill="#434343" clip-path="url(#id_0)" d="M187.6 144.74178C187.6 148.05548 184.91371 150.74178 181.6 150.74178C178.28629 150.74178 175.6 148.05548 175.6 144.74178C175.6 141.42807 178.28629 138.74178 181.6 138.74178C184.91371 138.74178 187.6 141.42807 187.6 144.74178Z" fill-rule="nonzero"/><path fill="#434343" clip-path="url(#id_0)" d="M197.98572 144.74178C197.98572 148.05548 195.29942 150.74178 191.98572 150.74178C188.67201 150.74178 185.98572 148.05548 185.98572 144.74178C185.98572 141.42807 188.67201 138.74178 191.98572 138.74178C195.29942 138.74178 197.98572 141.42807 197.98572 144.74178Z" fill-rule="nonzero"/><path fill="#434343" clip-path="url(#id_0)" d="M208.37143 144.74178C208.37143 148.05548 205.68513 150.74178 202.37143 150.74178C199.05772 150.74178 196.37143 148.05548 196.37143 144.74178C196.37143 141.42807 199.05772 138.74178 202.37143 138.74178C205.68513 138.74178 208.37143 141.42807 208.37143 144.74178Z" fill-rule="nonzero"/><path fill="#434343" clip-path="url(#id_0)" d="M218.75714 144.74178C218.75714 148.05548 216.07085 150.74178 212.75714 150.74178C209.44344 150.74178 206.75714 148.05548 206.75714 144.74178C206.75714 141.42807 209.44344 138.74178 212.75714 138.74178C216.07085 138.74178 218.75714 141.42807 218.75714 144.74178Z" fill-rule="nonzero"/><path fill="#434343" clip-path="url(#id_0)" d="M229.14285 164.044C229.14285 167.35771 226.45656 170.044 223.14285 170.044C219.82915 170.044 217.14285 167.35771 217.14285 164.044C217.14285 160.73029 219.82915 158.044 223.14285 158.044C226.45656 158.044 229.14285 160.73029 229.14285 164.044Z" fill-rule="nonzero"/><path fill="#434343" clip-path="url(#id_0)" d="M239.52856 164.044C239.52856 167.35771 236.84229 170.044 233.52856 170.044C230.21486 170.044 227.52856 167.35771 227.52856 164.044C227.52856 160.73029 230.21486 158.044 233.52856 158.044C236.84229 158.044 239.52856 160.73029 239.52856 164.044Z" fill-rule="nonzero"/><path fill="#434343" clip-path="url(#id_0)" d="M249.91429 171.7649C249.91429 175.0786 247.228 177.7649 243.91429 177.7649C240.60057 177.7649 237.91429 175.0786 237.91429 171.7649C237.91429 168.45119 240.60057 165.7649 243.91429 165.7649C247.228 165.7649 249.91429 168.45119 249.91429 171.7649Z" fill-rule="nonzero"/><path fill="#434343" clip-path="url(#id_0)" d="M260.3 171.7649C260.3 175.0786 257.6137 177.7649 254.3 177.7649C250.9863 177.7649 248.3 175.0786 248.3 171.7649C248.3 168.45119 250.9863 165.7649 254.3 165.7649C257.6137 165.7649 260.3 168.45119 260.3 171.7649Z" fill-rule="nonzero"/><path fill="#434343" clip-path="url(#id_0)" d="M270.6857 171.7649C270.6857 175.0786 267.99942 177.7649 264.6857 177.7649C261.372 177.7649 258.6857 175.0786 258.6857 171.7649C258.6857 168.45119 261.372 165.7649 264.6857 165.7649C267.99942 165.7649 270.6857 168.45119 270.6857 171.7649Z" fill-rule="nonzero"/><path fill="#434343" clip-path="url(#id_0)" d="M281.07144 171.7649C281.07144 175.0786 278.38513 177.7649 275.07144 177.7649C271.75772 177.7649 269.07144 175.0786 269.07144 171.7649C269.07144 168.45119 271.75772 165.7649 275.07144 165.7649C278.38513 165.7649 281.07144 168.45119 281.07144 171.7649Z" fill-rule="nonzero"/><path fill="#434343" clip-path="url(#id_0)" d="M291.45715 182.3811C291.45715 185.69482 288.77084 188.3811 285.45715 188.3811C282.14343 188.3811 279.45715 185.69482 279.45715 182.3811C279.45715 179.0674 282.14343 176.3811 285.45715 176.3811C288.77084 176.3811 291.45715 179.0674 291.45715 182.3811Z" fill-rule="nonzero"/><path fill="#434343" clip-path="url(#id_0)" d="M301.84286 182.3811C301.84286 185.69482 299.15656 188.3811 295.84286 188.3811C292.52914 188.3811 289.84286 185.69482 289.84286 182.3811C289.84286 179.0674 292.52914 176.3811 295.84286 176.3811C299.15656 176.3811 301.84286 179.0674 301.84286 182.3811Z" fill-rule="nonzero"/><path fill="#434343" clip-path="url(#id_0)" d="M312.22858 191.06711C312.22858 194.38081 309.54227 197.06711 306.22858 197.06711C302.91486 197.06711 300.22858 194.38081 300.22858 191.06711C300.22858 187.7534 302.91486 185.06711 306.22858 185.06711C309.54227 185.06711 312.22858 187.7534 312.22858 191.06711Z" fill-rule="nonzero"/><path fill="#434343" clip-path="url(#id_0)" d="M322.6143 191.06711C322.6143 194.38081 319.928 197.06711 316.6143 197.06711C313.30057 197.06711 310.6143 194.38081 310.6143 191.06711C310.6143 187.7534 313.30057 185.06711 316.6143 185.06711C319.928 185.06711 322.6143 187.7534 322.6143 191.06711Z" fill-rule="nonzero"/><path fill="#434343" clip-path="url(#id_0)" d="M333.0 199.75311C333.0 203.06682 330.31372 205.75311 327.0 205.75311C323.68628 205.75311 321.0 203.06682 321.0 199.75311C321.0 196.4394 323.68628 193.75311 327.0 193.75311C330.31372 193.75311 333.0 196.4394 333.0 199.75311Z" fill-rule="nonzero"/><path fill="#434343" clip-path="url(#id_0)" d="M343.3857 212.29956C343.3857 215.61327 340.69943 218.29956 337.3857 218.29956C334.072 218.29956 331.3857 215.61327 331.3857 212.29956C331.3857 208.98584 334.072 206.29956 337.3857 206.29956C340.69943 206.29956 343.3857 208.98584 343.3857 212.29956Z" fill-rule="nonzero"/><path fill="#434343" clip-path="url(#id_0)" d="M353.77142 217.1251C353.77142 220.43881 351.08514 223.1251 347.77142 223.1251C344.45773 223.1251 341.77142 220.43881 341.77142 217.1251C341.77142 213.8114 344.45773 211.1251 347.77142 211.1251C351.08514 211.1251 353.77142 213.8114 353.77142 217.1251Z" fill-rule="nonzero"/><path fill="#434343" clip-path="url(#id_0)" d="M364.15714 236.42734C364.15714 239.74104 361.47086 242.42734 358.15714 242.42734C354.84344 242.42734 352.15714 239.74104 352.15714 236.42734C352.15714 233.11363 354.84344 230.42734 358.15714 230.42734C361.47086 230.42734 364.15714 233.11363 364.15714 236.42734Z" fill-rule="nonzero"/><path fill="#434343" clip-path="url(#id_0)" d="M374.54285 236.42734C374.54285 239.74104 371.85657 242.42734 368.54285 242.42734C365.22916 242.42734 362.54285 239.74104 362.54285 236.42734C362.54285 233.11363 365.22916 230.42734 368.54285 230.42734C371.85657 230.42734 374.54285 233.11363 374.54285 236.42734Z" fill-rule="nonzero"/><path fill="#434343" clip-path="url(#id_0)" d="M384.92856 248.00867C384.92856 251.32237 382.24228 254.00867 378.92856 254.00867C375.61487 254.00867 372.92856 251.32237 372.92856 248.00867C372.92856 244.69496 375.61487 242.00867 378.92856 242.00867C382.24228 242.00867 384.92856 244.69496 384.92856 248.00867Z" fill-rule="nonzero"/><path fill="#434343" clip-path="url(#id_0)" d="M395.3143 249.93889C395.3143 253.2526 392.628 255.93889 389.3143 255.93889C386.00058 255.93889 383.3143 253.2526 383.3143 249.93889C383.3143 246.62518 386.00058 243.93889 389.3143 243.93889C392.628 243.93889 395.3143 246.62518 395.3143 249.93889Z" fill-rule="nonzero"/><path fill="#434343" clip-path="url(#id_0)" d="M405.7 249.93889C405.7 253.2526 403.0137 255.93889 399.7 255.93889C396.3863 255.93889 393.7 253.2526 393.7 249.93889C393.7 246.62518 396.3863 243.93889 399.7 243.93889C403.0137 243.93889 405.7 246.62518 405.7 249.93889Z" fill-rule="nonzero"/><path fill="#434343" clip-path="url(#id_0)" d="M416.08572 254.76445C416.08572 258.07816 413.3994 260.76443 410.08572 260.76443C406.772 260.76443 404.08572 258.07816 404.08572 254.76445C404.08572 251.45073 406.772 248.76445 410.08572 248.76445C413.3994 248.76445 416.08572 251.45073 416.08572 254.76445Z" fill-rule="nonzero"/><path fill="#434343" clip-path="url(#id_0)" d="M426.47144 258.62488C426.47144 261.9386 423.78513 264.62488 420.47144 264.62488C417.1577 264.62488 414.47144 261.9386 414.47144 258.62488C414.47144 255.31119 417.1577 252.6249 420.47144 252.6249C423.78513 252.6249 426.47144 255.31119 426.47144 258.62488Z" fill-rule="nonzero"/><path fill="#434343" clip-path="url(#id_0)" d="M436.85715 260.5551C436.85715 263.8688 434.17084 266.5551 430.85715 266.5551C427.54343 266.5551 424.85715 263.8688 424.85715 260.5551C424.85715 257.2414 427.54343 254.55511 430.85715 254.55511C434.17084 254.55511 436.85715 257.2414 436.85715 260.5551Z" fill-rule="nonzero"/><path fill="#434343" clip-path="url(#id_0)" d="M447.24286 266.34576C447.24286 269.6595 444.55658 272.34576 441.24286 272.34576C437.92914 272.34576 435.24286 269.6595 435.24286 266.34576C435.24286 263.03207 437.92914 260.34576 441.24286 260.34576C444.55658 260.34576 447.24286 263.03207 447.24286 266.34576Z" fill-rule="nonzero"/><path fill="#434343" clip-path="url(#id_0)" d="M457.62857 267.31088C457.62857 270.6246 454.9423 273.31088 451.62857 273.31088C448.31485 273.31088 445.62857 270.6246 445.62857 267.31088C445.62857 263.9972 448.31485 261.31088 451.62857 261.31088C454.9423 261.31088 457.62857 263.9972 457.62857 267.31088Z" fill-rule="nonzero"/><path fill="#434343" clip-path="url(#id_0)" d="M468.01428 267.31088C468.01428 270.6246 465.328 273.31088 462.01428 273.31088C458.7006 273.31088 456.01428 270.6246 456.01428 267.31088C456.01428 263.9972 458.7006 261.31088 462.01428 261.31088C465.328 261.31088 468.01428 263.9972 468.01428 267.31088Z" fill-rule="nonzero"/><path fill="#434343" clip-path="url(#id_0)" d="M478.4 268.276C478.4 271.58972 475.7137 274.276 472.4 274.276C469.0863 274.276 466.4 271.58972 466.4 268.276C466.4 264.96228 469.0863 262.276 472.4 262.276C475.7137 262.276 478.4 264.96228 478.4 268.276Z" fill-rule="nonzero"/><path fill="#434343" clip-path="url(#id_0)" d="M488.7857 278.8922C488.7857 282.20593 486.09943 284.8922 482.7857 284.8922C479.47202 284.8922 476.7857 282.20593 476.7857 278.8922C476.7857 275.57852 479.47202 272.8922 482.7857 272.8922C486.09943 272.8922 488.7857 275.57852 488.7857 278.8922Z" fill-rule="nonzero"/><path fill="#434343" clip-path="url(#id_0)" d="M499.17142 278.8922C499.17142 282.20593 496.48514 284.8922 493.17142 284.8922C489.85773 284.8922 487.17142 282.20593 487.17142 278.8922C487.17142 275.57852 489.85773 272.8922 493.17142 272.8922C496.48514 272.8922 499.17142 275.57852 499.17142 278.8922Z" fill-rule="nonzero"/><path fill="#434343" clip-path="url(#id_0)" d="M509.55713 311.706C509.55713 315.0197 506.87085 317.706 503.55713 317.706C500.24344 317.706 497.55713 315.0197 497.55713 311.706C497.55713 308.3923 500.24344 305.706 503.55713 305.706C506.87085 305.706 509.55713 308.3923 509.55713 311.706Z" fill-rule="nonzero"/><path fill="#434343" clip-path="url(#id_0)" d="M519.9429 315.56644C519.9429 318.88016 517.2566 321.56644 513.9429 321.56644C510.62915 321.56644 507.94287 318.88016 507.94287 315.56644C507.94287 312.25275 510.62915 309.56644 513.9429 309.56644C517.2566 309.56644 519.9429 312.25275 519.9429 315.56644Z" fill-rule="nonzero"/><path fill="#434343" clip-path="url(#id_0)" d="M530.32855 333.90356C530.32855 337.21725 527.6423 339.90356 524.32855 339.90356C521.0149 339.90356 518.32855 337.21725 518.32855 333.90356C518.32855 330.58984 521.0149 327.90356 524.32855 327.90356C527.6423 327.90356 530.32855 330.58984 530.32855 333.90356Z" fill-rule="nonzero"/><path fill="#434343" clip-path="url(#id_0)" d="M540.7143 333.90356C540.7143 337.21725 538.028 339.90356 534.7143 339.90356C531.4006 339.90356 528.7143 337.21725 528.7143 333.90356C528.7143 330.58984 531.4006 327.90356 534.7143 327.90356C538.028 327.90356 540.7143 330.58984 540.7143 333.90356Z" fill-rule="nonzero"/><path fill="#434343" clip-path="url(#id_0)" d="M551.1 333.90356C551.1 337.21725 548.4137 339.90356 545.1 339.90356C541.7863 339.90356 539.1 337.21725 539.1 333.90356C539.1 330.58984 541.7863 327.90356 545.1 327.90356C548.4137 327.90356 551.1 330.58984 551.1 333.90356Z" fill-rule="nonzero"/><path fill="#434343" clip-path="url(#id_0)" d="M561.4857 333.90356C561.4857 337.21725 558.79944 339.90356 555.4857 339.90356C552.172 339.90356 549.4857 337.21725 549.4857 333.90356C549.4857 330.58984 552.172 327.90356 555.4857 327.90356C558.79944 327.90356 561.4857 330.58984 561.4857 333.90356Z" fill-rule="nonzero"/><path fill="#434343" clip-path="url(#id_0)" d="M571.8714 334.86865C571.8714 338.18237 569.1851 340.86865 565.8714 340.86865C562.55774 340.86865 559.8714 338.18237 559.8714 334.86865C559.8714 331.55496 562.55774 328.86865 565.8714 328.86865C569.1851 328.86865 571.8714 331.55496 571.8714 334.86865Z" fill-rule="nonzero"/><path fill="#434343" clip-path="url(#id_0)" d="M582.25714 346.45C582.25714 349.7637 579.57086 352.45 576.25714 352.45C572.9434 352.45 570.25714 349.7637 570.25714 346.45C570.25714 343.1363 572.9434 340.45 576.25714 340.45C579.57086 340.45 582.25714 343.1363 582.25714 346.45Z" fill-rule="nonzero"/><path fill="#000000" d="M25.425013 211.10521Q25.956263 211.10521 26.378138 211.30833Q26.784388 211.49583 27.081263 211.85521Q27.362513 212.19896 27.518763 212.66771Q27.659388 213.13646 27.659388 213.68333Q27.659388 214.05833 27.596888 214.38646Q27.534388 214.71458 27.440638 214.96458Q27.346888 215.21458 27.253138 215.40208Q27.143763 215.57396 27.081263 215.63646Q27.003138 215.69896 26.893763 215.73021Q26.784388 215.76146 26.612513 215.76146Q26.471888 215.76146 26.393763 215.76146Q26.300013 215.74583 26.253138 215.73021Q26.206263 215.69896 26.190638 215.66771Q26.159388 215.62083 26.159388 215.57396Q26.159388 215.49583 26.268763 215.35521Q26.362513 215.19896 26.487513 214.96458Q26.596888 214.73021 26.706263 214.40208Q26.800013 214.07396 26.800013 213.63646Q26.800013 213.30833 26.721888 213.04271Q26.628138 212.76146 26.471888 212.57396Q26.300013 212.37083 26.065638 212.26146Q25.831263 212.15208 25.534388 212.15208Q25.206263 212.15208 24.987513 212.30833Q24.753138 212.44896 24.581263 212.69896Q24.409388 212.93333 24.268763 213.24583Q24.128138 213.54271 23.971888 213.87083Q23.815638 214.18333 23.643763 214.49583Q23.456263 214.79271 23.221888 215.04271Q22.971888 215.27708 22.643763 215.43333Q22.300013 215.57396 21.846888 215.57396Q21.362513 215.57396 21.003138 215.40208Q20.628138 215.23021 20.378138 214.93333Q20.112513 214.62083 19.987513 214.19896Q19.862513 213.76146 19.862513 213.27708Q19.862513 213.02708 19.909388 212.77708Q19.940638 212.51146 20.018763 212.29271Q20.096888 212.05833 20.190638 211.88646Q20.268763 211.71458 20.331263 211.66771Q20.378138 211.60521 20.409388 211.58958Q20.440638 211.55833 20.503138 211.55833Q20.550013 211.54271 20.628138 211.54271Q20.690638 211.52708 20.800013 211.52708Q20.909388 211.52708 20.987513 211.54271Q21.065638 211.54271 21.128138 211.57396Q21.175013 211.58958 21.206263 211.62083Q21.237513 211.65208 21.237513 211.68333Q21.237513 211.74583 21.159388 211.88646Q21.065638 212.02708 20.971888 212.23021Q20.862513 212.43333 20.784388 212.69896Q20.690638 212.96458 20.690638 213.30833Q20.690638 213.62083 20.784388 213.85521Q20.862513 214.08958 21.003138 214.24583Q21.143763 214.40208 21.346888 214.48021Q21.534388 214.55833 21.753138 214.55833Q22.065638 214.55833 22.300013 214.41771Q22.518763 214.26146 22.706263 214.02708Q22.878138 213.77708 23.018763 213.46458Q23.159388 213.15208 23.315638 212.83958Q23.471888 212.51146 23.643763 212.19896Q23.815638 211.88646 24.065638 211.65208Q24.315638 211.40208 24.643763 211.26146Q24.971888 211.10521 25.425013 211.10521ZM26.596888 205.49583Q26.706263 205.49583 26.784388 205.51146Q26.846888 205.51146 26.893763 205.52708Q26.940638 205.54271 26.987513 205.55833Q27.018763 205.57396 27.096888 205.65208Q27.175013 205.73021 27.284388 205.90208Q27.378138 206.07396 27.471888 206.29271Q27.550013 206.51146 27.596888 206.77708Q27.659388 207.02708 27.659388 207.30833Q27.659388 207.87083 27.471888 208.30833Q27.284388 208.74583 26.925013 209.04271Q26.565638 209.33958 26.050013 209.49583Q25.518763 209.65208 24.831263 209.65208Q24.050013 209.65208 23.487513 209.46458Q22.925013 209.27708 22.581263 208.94896Q22.221888 208.60521 22.050013 208.16771Q21.878138 207.71458 21.878138 207.19896Q21.878138 206.94896 21.925013 206.71458Q21.971888 206.46458 22.050013 206.27708Q22.112513 206.07396 22.221888 205.91771Q22.315638 205.76146 22.393763 205.69896Q22.456263 205.62083 22.503138 205.58958Q22.534388 205.55833 22.596888 205.54271Q22.643763 205.52708 22.721888 205.52708Q22.784388 205.51146 22.893763 205.51146Q23.128138 205.51146 23.221888 205.57396Q23.300013 205.62083 23.300013 205.69896Q23.300013 205.79271 23.206263 205.90208Q23.112513 206.01146 23.003138 206.19896Q22.878138 206.37083 22.784388 206.62083Q22.690638 206.87083 22.690638 207.19896Q22.690638 207.90208 23.221888 208.27708Q23.753138 208.65208 24.784388 208.65208Q25.284388 208.65208 25.675013 208.55833Q26.050013 208.44896 26.315638 208.26146Q26.565638 208.07396 26.690638 207.80833Q26.815638 207.52708 26.815638 207.18333Q26.815638 206.85521 26.721888 206.60521Q26.612513 206.33958 26.487513 206.16771Q26.362513 205.98021 26.268763 205.85521Q26.159388 205.73021 26.159388 205.65208Q26.159388 205.60521 26.190638 205.58958Q26.206263 205.55833 26.268763 205.54271Q26.315638 205.51146 26.409388 205.51146Q26.487513 205.49583 26.596888 205.49583ZM24.706263 199.38646Q25.346888 199.38646 25.893763 199.55833Q26.440638 199.71458 26.831263 200.05833Q27.221888 200.40208 27.440638 200.90208Q27.659388 201.40208 27.659388 202.07396Q27.659388 202.73021 27.471888 203.21458Q27.268763 203.69896 26.909388 204.02708Q26.534388 204.33958 26.018763 204.49583Q25.487513 204.65208 24.815638 204.65208Q24.175013 204.65208 23.628138 204.49583Q23.081263 204.32396 22.690638 203.99583Q22.300013 203.65208 22.081263 203.15208Q21.862513 202.63646 21.862513 201.96458Q21.862513 201.30833 22.065638 200.83958Q22.253138 200.35521 22.628138 200.02708Q22.987513 199.69896 23.518763 199.54271Q24.050013 199.38646 24.706263 199.38646ZM24.768763 200.40208Q24.346888 200.40208 23.971888 200.48021Q23.581263 200.55833 23.300013 200.74583Q23.003138 200.91771 22.846888 201.23021Q22.675013 201.54271 22.675013 202.01146Q22.675013 202.43333 22.831263 202.74583Q22.971888 203.04271 23.253138 203.24583Q23.534388 203.44896 23.925013 203.54271Q24.300013 203.63646 24.753138 203.63646Q25.175013 203.63646 25.565638 203.55833Q25.940638 203.48021 26.237513 203.30833Q26.518763 203.12083 26.690638 202.80833Q26.846888 202.49583 26.846888 202.02708Q26.846888 201.60521 26.690638 201.29271Q26.534388 200.98021 26.268763 200.79271Q25.987513 200.58958 25.612513 200.49583Q25.221888 200.40208 24.768763 200.40208ZM22.471888 194.19896Q22.596888 194.19896 22.690638 194.21458Q22.784388 194.21458 22.831263 194.23021Q22.878138 194.24583 22.909388 194.27708Q22.925013 194.30833 22.925013 194.35521Q22.925013 194.40208 22.909388 194.46458Q22.878138 194.52708 22.862513 194.62083Q22.831263 194.69896 22.815638 194.80833Q22.784388 194.91771 22.784388 195.04271Q22.784388 195.18333 22.846888 195.32396Q22.893763 195.46458 23.034388 195.62083Q23.159388 195.77708 23.393763 195.94896Q23.612513 196.12083 23.940638 196.32396L27.409388 196.32396Q27.456263 196.32396 27.487513 196.35521Q27.518763 196.37083 27.550013 196.41771Q27.565638 196.46458 27.565638 196.55833Q27.581263 196.65208 27.581263 196.80833Q27.581263 196.94896 27.565638 197.04271Q27.565638 197.13646 27.550013 197.19896Q27.518763 197.24583 27.487513 197.27708Q27.456263 197.29271 27.409388 197.29271L22.128138 197.29271Q22.081263 197.29271 22.050013 197.27708Q22.018763 197.24583 22.003138 197.19896Q21.971888 197.15208 21.956263 197.07396Q21.940638 196.98021 21.940638 196.83958Q21.940638 196.71458 21.956263 196.63646Q21.971888 196.54271 22.003138 196.49583Q22.018763 196.44896 22.050013 196.43333Q22.081263 196.41771 22.128138 196.41771L22.893763 196.41771Q22.581263 196.19896 22.378138 196.01146Q22.175013 195.80833 22.065638 195.65208Q21.956263 195.48021 21.909388 195.30833Q21.862513 195.13646 21.862513 194.96458Q21.862513 194.90208 21.878138 194.80833Q21.878138 194.69896 21.909388 194.60521Q21.925013 194.49583 21.956263 194.41771Q21.987513 194.32396 22.018763 194.29271Q22.050013 194.24583 22.081263 194.24583Q22.096888 194.23021 22.143763 194.23021Q22.175013 194.21458 22.268763 194.21458Q22.346888 194.19896 22.471888 194.19896ZM24.534388 188.79271Q24.768763 188.79271 24.862513 188.90208Q24.956263 189.01146 24.956263 189.16771L24.956263 192.62083Q25.393763 192.62083 25.753138 192.54271Q26.096888 192.44896 26.362513 192.24583Q26.612513 192.02708 26.753138 191.69896Q26.878138 191.37083 26.878138 190.90208Q26.878138 190.52708 26.815638 190.23021Q26.753138 189.93333 26.675013 189.73021Q26.596888 189.51146 26.534388 189.37083Q26.471888 189.23021 26.471888 189.16771Q26.471888 189.12083 26.503138 189.08958Q26.518763 189.05833 26.565638 189.04271Q26.596888 189.02708 26.675013 189.02708Q26.753138 189.01146 26.846888 189.01146Q26.925013 189.01146 26.987513 189.02708Q27.034388 189.02708 27.081263 189.04271Q27.128138 189.04271 27.159388 189.05833Q27.190638 189.07396 27.237513 189.10521Q27.268763 189.13646 27.346888 189.30833Q27.409388 189.46458 27.487513 189.71458Q27.550013 189.96458 27.596888 190.29271Q27.659388 190.62083 27.659388 190.99583Q27.659388 191.65208 27.487513 192.15208Q27.300013 192.63646 26.940638 192.96458Q26.581263 193.29271 26.050013 193.46458Q25.503138 193.63646 24.784388 193.63646Q24.112513 193.63646 23.565638 193.46458Q23.018763 193.29271 22.643763 192.96458Q22.268763 192.62083 22.065638 192.15208Q21.862513 191.68333 21.862513 191.10521Q21.862513 190.48021 22.065638 190.04271Q22.268763 189.60521 22.612513 189.32396Q22.940638 189.04271 23.393763 188.91771Q23.846888 188.79271 24.362513 188.79271L24.534388 188.79271ZM24.253138 189.76146Q23.487513 189.74583 23.065638 190.10521Q22.628138 190.44896 22.628138 191.15208Q22.628138 191.51146 22.768763 191.77708Q22.893763 192.04271 23.112513 192.23021Q23.331263 192.40208 23.628138 192.51146Q23.925013 192.60521 24.253138 192.62083L24.253138 189.76146Z" fill-rule="nonzero"/><path fill="#000000" d="M66.22188 345.6375Q66.22188 346.5125 66.08125 347.23126Q65.94063 347.95 65.6125 348.48126Q65.3 348.9969 64.78438 349.27814Q64.26875 349.5594 63.51875 349.5594Q62.8 349.5594 62.3 349.3094Q61.815624 349.04376 61.51875 348.5594Q61.221874 348.0594 61.096874 347.34064Q60.971874 346.60626 60.971874 345.66876Q60.971874 344.8094 61.1125 344.09064Q61.253124 343.35626 61.565624 342.84064Q61.89375 342.325 62.409374 342.04376Q62.925 341.7625 63.675 341.7625Q64.39375 341.7625 64.87813 342.0125Q65.3625 342.2625 65.65938 342.7625Q65.97188 343.2625 66.09688 343.98126Q66.22188 344.7 66.22188 345.6375ZM65.19063 345.71564Q65.19063 345.1375 65.14375 344.7Q65.09688 344.2469 65.01875 343.90314Q64.94063 343.54376 64.81563 343.29376Q64.69063 343.04376 64.51875 342.8875Q64.34688 342.73126 64.1125 342.65314Q63.89375 342.575 63.6125 342.575Q63.1125 342.575 62.8 342.8094Q62.4875 343.04376 62.3 343.46564Q62.128124 343.8719 62.065624 344.41876Q62.003124 344.96564 62.003124 345.60626Q62.003124 346.45 62.08125 347.04376Q62.175 347.6375 62.3625 348.0125Q62.565624 348.3875 62.8625 348.5594Q63.159374 348.73126 63.58125 348.73126Q63.909374 348.73126 64.14375 348.6375Q64.39375 348.52814 64.56563 348.34064Q64.75313 348.1375 64.8625 347.85626Q64.9875 347.575 65.05 347.2469Q65.12813 346.91876 65.15938 346.52814Q65.19063 346.1375 65.19063 345.71564Z" fill-rule="nonzero"/><path fill="#000000" d="M59.909374 318.3248Q59.909374 318.85605 59.721874 319.27792Q59.55 319.68417 59.20625 319.98105Q58.8625 320.27792 58.3625 320.4498Q57.8625 320.60605 57.2375 320.60605Q56.8625 320.60605 56.51875 320.54355Q56.190624 320.48105 55.925 320.40292Q55.675 320.30917 55.503124 320.23105Q55.346874 320.1373 55.3 320.09042Q55.253124 320.04355 55.221874 320.0123Q55.20625 319.96542 55.190624 319.91855Q55.175 319.85605 55.159374 319.77792Q55.159374 319.68417 55.159374 319.55917Q55.159374 319.34042 55.190624 319.2623Q55.2375 319.18417 55.315624 319.18417Q55.3625 319.18417 55.51875 319.27792Q55.675 319.37167 55.909374 319.48105Q56.159374 319.59042 56.4875 319.68417Q56.815624 319.77792 57.20625 319.77792Q57.596874 319.77792 57.89375 319.68417Q58.190624 319.5748 58.378124 319.40292Q58.58125 319.21542 58.675 318.96542Q58.784374 318.71542 58.784374 318.41855Q58.784374 318.10605 58.659374 317.85605Q58.534374 317.59042 58.284374 317.40292Q58.05 317.21542 57.690624 317.12167Q57.33125 317.0123 56.878124 317.0123L56.159374 317.0123Q56.1125 317.0123 56.065624 316.99667Q56.034374 316.96542 55.9875 316.91855Q55.95625 316.87167 55.940624 316.79355Q55.925 316.71542 55.925 316.60605Q55.925 316.48105 55.940624 316.41855Q55.95625 316.34042 55.9875 316.29355Q56.01875 316.24667 56.05 316.23105Q56.096874 316.21542 56.159374 316.21542L56.815624 316.21542Q57.20625 316.21542 57.503124 316.12167Q57.815624 316.0123 58.034374 315.8248Q58.253124 315.6373 58.3625 315.3873Q58.471874 315.12167 58.471874 314.79355Q58.471874 314.55917 58.39375 314.35605Q58.33125 314.1373 58.175 313.98105Q58.01875 313.80917 57.784374 313.73105Q57.55 313.6373 57.2375 313.6373Q56.89375 313.6373 56.6125 313.74667Q56.33125 313.84042 56.096874 313.96542Q55.878124 314.0748 55.721874 314.18417Q55.58125 314.27792 55.534374 314.27792Q55.4875 314.27792 55.45625 314.2623Q55.425 314.24667 55.39375 314.21542Q55.378124 314.16855 55.3625 314.09042Q55.3625 313.99667 55.3625 313.87167Q55.3625 313.79355 55.3625 313.73105Q55.378124 313.65292 55.39375 313.60605Q55.409374 313.55917 55.425 313.5123Q55.45625 313.46542 55.503124 313.41855Q55.565624 313.35605 55.7375 313.2623Q55.909374 313.15292 56.159374 313.05917Q56.409374 312.9498 56.7375 312.8873Q57.065624 312.80917 57.440624 312.80917Q57.95625 312.80917 58.346874 312.9498Q58.753124 313.0748 59.01875 313.3248Q59.284374 313.55917 59.409374 313.90292Q59.55 314.24667 59.55 314.66855Q59.55 315.02792 59.45625 315.34042Q59.3625 315.6373 59.175 315.87167Q59.003124 316.10605 58.7375 316.27792Q58.471874 316.4498 58.128124 316.5123L58.128124 316.52792Q58.51875 316.55917 58.846874 316.71542Q59.175 316.87167 59.409374 317.10605Q59.64375 317.34042 59.76875 317.65292Q59.909374 317.96542 59.909374 318.3248ZM66.22188 316.68417Q66.22188 317.55917 66.08125 318.27792Q65.94063 318.99667 65.6125 319.52792Q65.3 320.04355 64.78438 320.3248Q64.26875 320.60605 63.51875 320.60605Q62.8 320.60605 62.3 320.35605Q61.815624 320.09042 61.51875 319.60605Q61.221874 319.10605 61.096874 318.3873Q60.971874 317.65292 60.971874 316.71542Q60.971874 315.85605 61.1125 315.1373Q61.253124 314.40292 61.565624 313.8873Q61.89375 313.37167 62.409374 313.09042Q62.925 312.80917 63.675 312.80917Q64.39375 312.80917 64.87813 313.05917Q65.3625 313.30917 65.65938 313.80917Q65.97188 314.30917 66.09688 315.02792Q66.22188 315.74667 66.22188 316.68417ZM65.19063 316.7623Q65.19063 316.18417 65.14375 315.74667Q65.09688 315.29355 65.01875 314.9498Q64.94063 314.59042 64.81563 314.34042Q64.69063 314.09042 64.51875 313.93417Q64.34688 313.77792 64.1125 313.6998Q63.89375 313.62167 63.6125 313.62167Q63.1125 313.62167 62.8 313.85605Q62.4875 314.09042 62.3 314.5123Q62.128124 314.91855 62.065624 315.46542Q62.003124 316.0123 62.003124 316.65292Q62.003124 317.49667 62.08125 318.09042Q62.175 318.68417 62.3625 319.05917Q62.565624 319.43417 62.8625 319.60605Q63.159374 319.77792 63.58125 319.77792Q63.909374 319.77792 64.14375 319.68417Q64.39375 319.5748 64.56563 319.3873Q64.75313 319.18417 64.8625 318.90292Q64.9875 318.62167 65.05 318.29355Q65.12813 317.96542 65.15938 317.5748Q65.19063 317.18417 65.19063 316.7623Z" fill-rule="nonzero"/><path fill="#000000" d="M60.159374 289.0902Q60.159374 289.5902 60.003124 290.05896Q59.846874 290.5121 59.534374 290.87146Q59.221874 291.23083 58.7375 291.4496Q58.253124 291.6527 57.58125 291.6527Q57.1125 291.6527 56.7375 291.54333Q56.378124 291.41833 56.1125 291.1996Q55.846874 290.98083 55.659374 290.66833Q55.4875 290.35583 55.378124 289.9496Q55.26875 289.54333 55.221874 289.0746Q55.175 288.5902 55.175 288.0277Q55.175 287.54333 55.221874 287.04333Q55.284374 286.54333 55.409374 286.0902Q55.55 285.62146 55.784374 285.2152Q56.01875 284.80896 56.3625 284.5121Q56.70625 284.1996 57.190624 284.0277Q57.690624 283.85583 58.33125 283.85583Q58.55 283.85583 58.76875 283.8871Q58.9875 283.9027 59.175 283.9496Q59.3625 283.99646 59.4875 284.05896Q59.628124 284.10583 59.659374 284.1371Q59.70625 284.16833 59.721874 284.2152Q59.753124 284.24646 59.753124 284.29333Q59.76875 284.3246 59.76875 284.3871Q59.784374 284.43396 59.784374 284.5277Q59.784374 284.62146 59.784374 284.6996Q59.784374 284.7777 59.753124 284.8246Q59.7375 284.87146 59.70625 284.9027Q59.675 284.91833 59.6125 284.91833Q59.55 284.91833 59.440624 284.8871Q59.33125 284.8402 59.175 284.79333Q59.01875 284.74646 58.784374 284.6996Q58.565624 284.6527 58.26875 284.6527Q57.721874 284.6527 57.33125 284.8871Q56.940624 285.10583 56.690624 285.48083Q56.440624 285.85583 56.315624 286.35583Q56.190624 286.8402 56.175 287.3871Q56.33125 287.29333 56.51875 287.2152Q56.70625 287.12146 56.925 287.05896Q57.159374 286.98083 57.409374 286.93396Q57.675 286.8871 57.95625 286.8871Q58.565624 286.8871 58.9875 287.05896Q59.409374 287.23083 59.675 287.5277Q59.940624 287.80896 60.05 288.2152Q60.159374 288.62146 60.159374 289.0902ZM59.14375 289.18396Q59.14375 288.8402 59.065624 288.55896Q59.003124 288.2777 58.846874 288.0902Q58.690624 287.9027 58.425 287.79333Q58.159374 287.68396 57.76875 287.68396Q57.55 287.68396 57.33125 287.73083Q57.128124 287.7621 56.925 287.8402Q56.721874 287.9027 56.534374 287.99646Q56.346874 288.0746 56.190624 288.18396Q56.190624 288.93396 56.284374 289.4496Q56.39375 289.9652 56.565624 290.2777Q56.753124 290.5746 57.034374 290.7152Q57.315624 290.8402 57.675 290.8402Q58.05 290.8402 58.33125 290.6996Q58.6125 290.55896 58.784374 290.3246Q58.971874 290.0902 59.05 289.79333Q59.14375 289.49646 59.14375 289.18396ZM66.22188 287.73083Q66.22188 288.60583 66.08125 289.3246Q65.94063 290.04333 65.6125 290.5746Q65.3 291.0902 64.78438 291.37146Q64.26875 291.6527 63.51875 291.6527Q62.8 291.6527 62.3 291.4027Q61.815624 291.1371 61.51875 290.6527Q61.221874 290.1527 61.096874 289.43396Q60.971874 288.6996 60.971874 287.7621Q60.971874 286.9027 61.1125 286.18396Q61.253124 285.4496 61.565624 284.93396Q61.89375 284.41833 62.409374 284.1371Q62.925 283.85583 63.675 283.85583Q64.39375 283.85583 64.87813 284.10583Q65.3625 284.35583 65.65938 284.85583Q65.97188 285.35583 66.09688 286.0746Q66.22188 286.79333 66.22188 287.73083ZM65.19063 287.80896Q65.19063 287.23083 65.14375 286.79333Q65.09688 286.3402 65.01875 285.99646Q64.94063 285.6371 64.81563 285.3871Q64.69063 285.1371 64.51875 284.98083Q64.34688 284.8246 64.1125 284.74646Q63.89375 284.66833 63.6125 284.66833Q63.1125 284.66833 62.8 284.9027Q62.4875 285.1371 62.3 285.55896Q62.128124 285.9652 62.065624 286.5121Q62.003124 287.05896 62.003124 287.6996Q62.003124 288.54333 62.08125 289.1371Q62.175 289.73083 62.3625 290.10583Q62.565624 290.48083 62.8625 290.6527Q63.159374 290.8246 63.58125 290.8246Q63.909374 290.8246 64.14375 290.73083Q64.39375 290.62146 64.56563 290.43396Q64.75313 290.23083 64.8625 289.9496Q64.9875 289.66833 65.05 289.3402Q65.12813 289.0121 65.15938 288.62146Q65.19063 288.23083 65.19063 287.80896Z" fill-rule="nonzero"/><path fill="#000000" d="M60.01875 258.49625Q60.01875 258.99625 59.95625 259.49625Q59.909374 259.99625 59.76875 260.465Q59.628124 260.93375 59.378124 261.34Q59.14375 261.74625 58.784374 262.05875Q58.425 262.35562 57.925 262.5275Q57.440624 262.69937 56.784374 262.69937Q56.534374 262.69937 56.284374 262.66812Q56.05 262.63687 55.8625 262.59Q55.675 262.54312 55.55 262.49625Q55.425 262.43375 55.3625 262.38687Q55.3 262.32437 55.26875 262.24625Q55.253124 262.1525 55.253124 261.99625Q55.253124 261.87125 55.253124 261.79312Q55.26875 261.715 55.284374 261.68375Q55.3 261.63687 55.33125 261.62125Q55.3625 261.60562 55.409374 261.60562Q55.471874 261.60562 55.58125 261.6525Q55.70625 261.69937 55.878124 261.74625Q56.065624 261.79312 56.3 261.84Q56.55 261.88687 56.846874 261.88687Q57.409374 261.88687 57.815624 261.66812Q58.2375 261.44937 58.4875 261.09Q58.753124 260.715 58.878124 260.23062Q59.003124 259.73062 59.01875 259.19937Q58.70625 259.37125 58.26875 259.51187Q57.83125 259.6525 57.26875 259.6525Q56.64375 259.6525 56.20625 259.48062Q55.784374 259.30875 55.51875 259.01187Q55.253124 258.715 55.14375 258.30875Q55.034374 257.9025 55.034374 257.4025Q55.034374 256.9025 55.175 256.44937Q55.33125 255.99625 55.628124 255.6525Q55.940624 255.30875 56.425 255.10562Q56.909374 254.9025 57.58125 254.9025Q58.05 254.9025 58.409374 255.0275Q58.784374 255.13687 59.05 255.37125Q59.315624 255.59 59.503124 255.91812Q59.690624 256.23062 59.8 256.63687Q59.925 257.0275 59.971874 257.51187Q60.01875 257.98062 60.01875 258.49625ZM59.003124 258.38687Q59.003124 257.63687 58.89375 257.12125Q58.8 256.60562 58.596874 256.29312Q58.409374 255.98062 58.128124 255.84Q57.846874 255.69937 57.4875 255.69937Q57.096874 255.69937 56.83125 255.84Q56.565624 255.98062 56.39375 256.215Q56.221874 256.43375 56.128124 256.73062Q56.05 257.0275 56.05 257.34Q56.05 257.68375 56.1125 257.965Q56.190624 258.24625 56.346874 258.44937Q56.51875 258.6525 56.784374 258.76187Q57.05 258.87125 57.440624 258.87125Q57.878124 258.87125 58.284374 258.74625Q58.70625 258.60562 59.003124 258.38687ZM66.22188 258.7775Q66.22188 259.6525 66.08125 260.37125Q65.94063 261.09 65.6125 261.62125Q65.3 262.13687 64.78438 262.41812Q64.26875 262.69937 63.51875 262.69937Q62.8 262.69937 62.3 262.44937Q61.815624 262.18375 61.51875 261.69937Q61.221874 261.19937 61.096874 260.48062Q60.971874 259.74625 60.971874 258.80875Q60.971874 257.94937 61.1125 257.23062Q61.253124 256.49625 61.565624 255.98062Q61.89375 255.465 62.409374 255.18375Q62.925 254.9025 63.675 254.9025Q64.39375 254.9025 64.87813 255.1525Q65.3625 255.4025 65.65938 255.9025Q65.97188 256.4025 66.09688 257.12125Q66.22188 257.84 66.22188 258.7775ZM65.19063 258.85562Q65.19063 258.2775 65.14375 257.84Q65.09688 257.38687 65.01875 257.04312Q64.94063 256.68375 64.81563 256.43375Q64.69063 256.18375 64.51875 256.0275Q64.34688 255.87125 64.1125 255.79312Q63.89375 255.715 63.6125 255.715Q63.1125 255.715 62.8 255.94937Q62.4875 256.18375 62.3 256.60562Q62.128124 257.01187 62.065624 257.55875Q62.003124 258.10562 62.003124 258.74625Q62.003124 259.59 62.08125 260.18375Q62.175 260.7775 62.3625 261.1525Q62.565624 261.5275 62.8625 261.69937Q63.159374 261.87125 63.58125 261.87125Q63.909374 261.87125 64.14375 261.7775Q64.39375 261.66812 64.56563 261.48062Q64.75313 261.2775 64.8625 260.99625Q64.9875 260.715 65.05 260.38687Q65.12813 260.05875 65.15938 259.66812Q65.19063 259.2775 65.19063 258.85562Z" fill-rule="nonzero"/><path fill="#000000" d="M53.9875 233.23042Q53.9875 233.35542 53.95625 233.43355Q53.940624 233.49605 53.909374 233.54292Q53.89375 233.5898 53.846874 233.62105Q53.815624 233.63667 53.76875 233.63667L49.815624 233.63667Q49.76875 233.63667 49.7375 233.62105Q49.70625 233.5898 49.659374 233.54292Q49.628124 233.49605 49.6125 233.43355Q49.596874 233.35542 49.596874 233.23042Q49.596874 233.13667 49.6125 233.05855Q49.628124 232.98042 49.659374 232.93355Q49.690624 232.88667 49.721874 232.85542Q49.76875 232.82417 49.815624 232.82417L51.39375 232.82417L51.39375 227.05855L49.925 227.93355Q49.815624 227.99605 49.7375 228.01167Q49.675 228.01167 49.628124 227.98042Q49.596874 227.93355 49.58125 227.85542Q49.565624 227.76167 49.565624 227.63667Q49.565624 227.5273 49.565624 227.4648Q49.58125 227.38667 49.596874 227.3398Q49.628124 227.29292 49.659374 227.26167Q49.690624 227.23042 49.7375 227.18355L51.4875 226.07417Q51.503124 226.05855 51.534374 226.04292Q51.58125 226.0273 51.628124 226.0273Q51.690624 226.01167 51.753124 226.01167Q51.83125 225.99605 51.925 225.99605Q52.065624 225.99605 52.159374 226.01167Q52.253124 226.0273 52.3 226.04292Q52.3625 226.05855 52.378124 226.10542Q52.39375 226.13667 52.39375 226.16792L52.39375 232.82417L53.76875 232.82417Q53.815624 232.82417 53.846874 232.85542Q53.89375 232.88667 53.925 232.93355Q53.95625 232.98042 53.971874 233.05855Q53.9875 233.13667 53.9875 233.23042ZM59.971874 233.19917Q59.971874 233.30855 59.95625 233.38667Q59.940624 233.4648 59.909374 233.5273Q59.878124 233.5898 59.83125 233.62105Q59.8 233.63667 59.7375 233.63667L55.55 233.63667Q55.471874 233.63667 55.409374 233.62105Q55.346874 233.5898 55.3 233.54292Q55.253124 233.49605 55.2375 233.41792Q55.221874 233.32417 55.221874 233.19917Q55.221874 233.07417 55.221874 232.99605Q55.2375 232.9023 55.26875 232.8398Q55.3 232.76167 55.33125 232.69917Q55.378124 232.63667 55.45625 232.55855L56.925 230.99605Q57.440624 230.4648 57.7375 230.04292Q58.05 229.60542 58.20625 229.26167Q58.378124 228.9023 58.425 228.62105Q58.4875 228.32417 58.4875 228.07417Q58.4875 227.82417 58.409374 227.60542Q58.33125 227.37105 58.175 227.19917Q58.01875 227.0273 57.784374 226.93355Q57.55 226.8398 57.2375 226.8398Q56.878124 226.8398 56.596874 226.93355Q56.315624 227.0273 56.096874 227.1523Q55.89375 227.26167 55.7375 227.37105Q55.596874 227.4648 55.534374 227.4648Q55.4875 227.4648 55.45625 227.44917Q55.425 227.41792 55.39375 227.37105Q55.378124 227.30855 55.3625 227.23042Q55.3625 227.13667 55.3625 227.01167Q55.3625 226.93355 55.3625 226.87105Q55.378124 226.79292 55.378124 226.74605Q55.39375 226.69917 55.409374 226.66792Q55.440624 226.62105 55.503124 226.55855Q55.58125 226.49605 55.753124 226.4023Q55.940624 226.29292 56.190624 226.19917Q56.45625 226.0898 56.76875 226.0273Q57.08125 225.94917 57.425 225.94917Q57.971874 225.94917 58.378124 226.10542Q58.8 226.24605 59.065624 226.5273Q59.346874 226.79292 59.471874 227.1523Q59.6125 227.51167 59.6125 227.91792Q59.6125 228.2773 59.55 228.63667Q59.4875 228.99605 59.284374 229.41792Q59.08125 229.8398 58.675 230.35542Q58.284374 230.85542 57.64375 231.5273L56.440624 232.7773L59.7375 232.7773Q59.784374 232.7773 59.83125 232.80855Q59.878124 232.8398 59.909374 232.88667Q59.940624 232.93355 59.95625 233.01167Q59.971874 233.0898 59.971874 233.19917ZM66.22188 229.82417Q66.22188 230.69917 66.08125 231.41792Q65.94063 232.13667 65.6125 232.66792Q65.3 233.18355 64.78438 233.4648Q64.26875 233.74605 63.51875 233.74605Q62.8 233.74605 62.3 233.49605Q61.815624 233.23042 61.51875 232.74605Q61.221874 232.24605 61.096874 231.5273Q60.971874 230.79292 60.971874 229.85542Q60.971874 228.99605 61.1125 228.2773Q61.253124 227.54292 61.565624 227.0273Q61.89375 226.51167 62.409374 226.23042Q62.925 225.94917 63.675 225.94917Q64.39375 225.94917 64.87813 226.19917Q65.3625 226.44917 65.65938 226.94917Q65.97188 227.44917 66.09688 228.16792Q66.22188 228.88667 66.22188 229.82417ZM65.19063 229.9023Q65.19063 229.32417 65.14375 228.88667Q65.09688 228.43355 65.01875 228.0898Q64.94063 227.73042 64.81563 227.48042Q64.69063 227.23042 64.51875 227.07417Q64.34688 226.91792 64.1125 226.8398Q63.89375 226.76167 63.6125 226.76167Q63.1125 226.76167 62.8 226.99605Q62.4875 227.23042 62.3 227.6523Q62.128124 228.05855 62.065624 228.60542Q62.003124 229.1523 62.003124 229.79292Q62.003124 230.63667 62.08125 231.23042Q62.175 231.82417 62.3625 232.19917Q62.565624 232.57417 62.8625 232.74605Q63.159374 232.91792 63.58125 232.91792Q63.909374 232.91792 64.14375 232.82417Q64.39375 232.7148 64.56563 232.5273Q64.75313 232.32417 64.8625 232.04292Q64.9875 231.76167 65.05 231.43355Q65.12813 231.10542 65.15938 230.7148Q65.19063 230.32417 65.19063 229.9023Z" fill-rule="nonzero"/><path fill="#000000" d="M53.9875 204.27708Q53.9875 204.40208 53.95625 204.48021Q53.940624 204.54271 53.909374 204.58958Q53.89375 204.63646 53.846874 204.66771Q53.815624 204.68333 53.76875 204.68333L49.815624 204.68333Q49.76875 204.68333 49.7375 204.66771Q49.70625 204.63646 49.659374 204.58958Q49.628124 204.54271 49.6125 204.48021Q49.596874 204.40208 49.596874 204.27708Q49.596874 204.18333 49.6125 204.10521Q49.628124 204.02708 49.659374 203.98021Q49.690624 203.93333 49.721874 203.90208Q49.76875 203.87083 49.815624 203.87083L51.39375 203.87083L51.39375 198.10521L49.925 198.98021Q49.815624 199.04271 49.7375 199.05833Q49.675 199.05833 49.628124 199.02708Q49.596874 198.98021 49.58125 198.90208Q49.565624 198.80833 49.565624 198.68333Q49.565624 198.57396 49.565624 198.51146Q49.58125 198.43333 49.596874 198.38646Q49.628124 198.33958 49.659374 198.30833Q49.690624 198.27708 49.7375 198.23021L51.4875 197.12083Q51.503124 197.10521 51.534374 197.08958Q51.58125 197.07396 51.628124 197.07396Q51.690624 197.05833 51.753124 197.05833Q51.83125 197.04271 51.925 197.04271Q52.065624 197.04271 52.159374 197.05833Q52.253124 197.07396 52.3 197.08958Q52.3625 197.10521 52.378124 197.15208Q52.39375 197.18333 52.39375 197.21458L52.39375 203.87083L53.76875 203.87083Q53.815624 203.87083 53.846874 203.90208Q53.89375 203.93333 53.925 203.98021Q53.95625 204.02708 53.971874 204.10521Q53.9875 204.18333 53.9875 204.27708ZM59.925 202.24583Q59.925 202.85521 59.721874 203.33958Q59.51875 203.80833 59.14375 204.13646Q58.76875 204.44896 58.253124 204.62083Q57.7375 204.79271 57.096874 204.79271Q56.753124 204.79271 56.425 204.74583Q56.1125 204.69896 55.8625 204.62083Q55.628124 204.54271 55.45625 204.48021Q55.3 204.40208 55.253124 204.37083Q55.221874 204.32396 55.20625 204.29271Q55.190624 204.26146 55.175 204.21458Q55.159374 204.15208 55.14375 204.07396Q55.14375 203.99583 55.14375 203.90208Q55.14375 203.79271 55.14375 203.71458Q55.159374 203.63646 55.175 203.58958Q55.20625 203.54271 55.2375 203.52708Q55.26875 203.49583 55.315624 203.49583Q55.378124 203.49583 55.4875 203.57396Q55.6125 203.63646 55.815624 203.73021Q56.034374 203.80833 56.33125 203.88646Q56.64375 203.96458 57.065624 203.96458Q57.45625 203.96458 57.784374 203.87083Q58.1125 203.77708 58.346874 203.57396Q58.596874 203.37083 58.721874 203.07396Q58.8625 202.77708 58.8625 202.33958Q58.8625 201.98021 58.7375 201.69896Q58.628124 201.41771 58.39375 201.23021Q58.159374 201.04271 57.8 200.96458Q57.440624 200.87083 56.925 200.87083Q56.565624 200.87083 56.3 200.90208Q56.05 200.93333 55.83125 200.93333Q55.675 200.93333 55.596874 200.87083Q55.534374 200.79271 55.534374 200.57396L55.534374 197.48021Q55.534374 197.29271 55.6125 197.19896Q55.70625 197.10521 55.878124 197.10521L59.2375 197.10521Q59.284374 197.10521 59.33125 197.13646Q59.378124 197.15208 59.39375 197.21458Q59.425 197.26146 59.440624 197.33958Q59.45625 197.41771 59.45625 197.52708Q59.45625 197.74583 59.39375 197.87083Q59.346874 197.98021 59.2375 197.98021L56.409374 197.98021L56.409374 200.10521Q56.6125 200.07396 56.815624 200.07396Q57.034374 200.05833 57.315624 200.05833Q57.971874 200.05833 58.45625 200.21458Q58.940624 200.37083 59.26875 200.66771Q59.596874 200.94896 59.753124 201.35521Q59.925 201.74583 59.925 202.24583ZM66.22188 200.87083Q66.22188 201.74583 66.08125 202.46458Q65.94063 203.18333 65.6125 203.71458Q65.3 204.23021 64.78438 204.51146Q64.26875 204.79271 63.51875 204.79271Q62.8 204.79271 62.3 204.54271Q61.815624 204.27708 61.51875 203.79271Q61.221874 203.29271 61.096874 202.57396Q60.971874 201.83958 60.971874 200.90208Q60.971874 200.04271 61.1125 199.32396Q61.253124 198.58958 61.565624 198.07396Q61.89375 197.55833 62.409374 197.27708Q62.925 196.99583 63.675 196.99583Q64.39375 196.99583 64.87813 197.24583Q65.3625 197.49583 65.65938 197.99583Q65.97188 198.49583 66.09688 199.21458Q66.22188 199.93333 66.22188 200.87083ZM65.19063 200.94896Q65.19063 200.37083 65.14375 199.93333Q65.09688 199.48021 65.01875 199.13646Q64.94063 198.77708 64.81563 198.52708Q64.69063 198.27708 64.51875 198.12083Q64.34688 197.96458 64.1125 197.88646Q63.89375 197.80833 63.6125 197.80833Q63.1125 197.80833 62.8 198.04271Q62.4875 198.27708 62.3 198.69896Q62.128124 199.10521 62.065624 199.65208Q62.003124 200.19896 62.003124 200.83958Q62.003124 201.68333 62.08125 202.27708Q62.175 202.87083 62.3625 203.24583Q62.565624 203.62083 62.8625 203.79271Q63.159374 203.96458 63.58125 203.96458Q63.909374 203.96458 64.14375 203.87083Q64.39375 203.76146 64.56563 203.57396Q64.75313 203.37083 64.8625 203.08958Q64.9875 202.80833 65.05 202.48021Q65.12813 202.15208 65.15938 201.76146Q65.19063 201.37083 65.19063 200.94896Z" fill-rule="nonzero"/><path fill="#000000" d="M53.9875 175.32375Q53.9875 175.44875 53.95625 175.52687Q53.940624 175.58937 53.909374 175.63625Q53.89375 175.68312 53.846874 175.71437Q53.815624 175.73 53.76875 175.73L49.815624 175.73Q49.76875 175.73 49.7375 175.71437Q49.70625 175.68312 49.659374 175.63625Q49.628124 175.58937 49.6125 175.52687Q49.596874 175.44875 49.596874 175.32375Q49.596874 175.23 49.6125 175.15187Q49.628124 175.07375 49.659374 175.02687Q49.690624 174.98 49.721874 174.94875Q49.76875 174.9175 49.815624 174.9175L51.39375 174.9175L51.39375 169.15187L49.925 170.02687Q49.815624 170.08937 49.7375 170.105Q49.675 170.105 49.628124 170.07375Q49.596874 170.02687 49.58125 169.94875Q49.565624 169.855 49.565624 169.73Q49.565624 169.62062 49.565624 169.55812Q49.58125 169.48 49.596874 169.43312Q49.628124 169.38625 49.659374 169.355Q49.690624 169.32375 49.7375 169.27687L51.4875 168.1675Q51.503124 168.15187 51.534374 168.13625Q51.58125 168.12062 51.628124 168.12062Q51.690624 168.105 51.753124 168.105Q51.83125 168.08937 51.925 168.08937Q52.065624 168.08937 52.159374 168.105Q52.253124 168.12062 52.3 168.13625Q52.3625 168.15187 52.378124 168.19875Q52.39375 168.23 52.39375 168.26125L52.39375 174.9175L53.76875 174.9175Q53.815624 174.9175 53.846874 174.94875Q53.89375 174.98 53.925 175.02687Q53.95625 175.07375 53.971874 175.15187Q53.9875 175.23 53.9875 175.32375ZM60.14375 173.77687Q60.14375 174.27687 59.95625 174.6675Q59.784374 175.0425 59.45625 175.30812Q59.128124 175.57375 58.64375 175.71437Q58.159374 175.83937 57.534374 175.83937Q56.940624 175.83937 56.471874 175.71437Q56.01875 175.58937 55.690624 175.355Q55.378124 175.12062 55.20625 174.77687Q55.034374 174.4175 55.034374 173.96437Q55.034374 173.605 55.14375 173.30812Q55.26875 173.01125 55.4875 172.76125Q55.70625 172.49562 56.01875 172.27687Q56.346874 172.05812 56.753124 171.855Q56.409374 171.68312 56.128124 171.48Q55.8625 171.27687 55.675 171.0425Q55.4875 170.80812 55.39375 170.5425Q55.3 170.26125 55.3 169.94875Q55.3 169.5425 55.440624 169.19875Q55.58125 168.855 55.8625 168.605Q56.159374 168.33937 56.6125 168.19875Q57.065624 168.0425 57.659374 168.0425Q58.2375 168.0425 58.64375 168.18312Q59.065624 168.30812 59.33125 168.55812Q59.6125 168.7925 59.7375 169.12062Q59.878124 169.43312 59.878124 169.7925Q59.878124 170.105 59.76875 170.38625Q59.675 170.65187 59.4875 170.90187Q59.3 171.13625 59.01875 171.355Q58.753124 171.57375 58.409374 171.76125Q58.815624 171.96437 59.14375 172.18312Q59.471874 172.40187 59.690624 172.65187Q59.909374 172.88625 60.01875 173.1675Q60.14375 173.44875 60.14375 173.77687ZM58.878124 169.88625Q58.878124 169.65187 58.784374 169.44875Q58.70625 169.24562 58.534374 169.105Q58.378124 168.96437 58.128124 168.90187Q57.89375 168.82375 57.58125 168.82375Q56.940624 168.82375 56.6125 169.12062Q56.3 169.40187 56.3 169.88625Q56.3 170.12062 56.378124 170.32375Q56.45625 170.51125 56.6125 170.69875Q56.784374 170.87062 57.034374 171.0425Q57.3 171.19875 57.64375 171.38625Q58.2375 171.07375 58.55 170.71437Q58.878124 170.33937 58.878124 169.88625ZM59.128124 173.88625Q59.128124 173.62062 59.01875 173.40187Q58.925 173.18312 58.721874 172.99562Q58.51875 172.7925 58.20625 172.62062Q57.909374 172.44875 57.51875 172.24562Q57.14375 172.43312 56.8625 172.62062Q56.596874 172.7925 56.409374 172.99562Q56.2375 173.18312 56.14375 173.40187Q56.05 173.605 56.05 173.87062Q56.05 174.43312 56.440624 174.74562Q56.83125 175.05812 57.596874 175.05812Q58.346874 175.05812 58.7375 174.74562Q59.128124 174.43312 59.128124 173.88625ZM66.22188 171.9175Q66.22188 172.7925 66.08125 173.51125Q65.94063 174.23 65.6125 174.76125Q65.3 175.27687 64.78438 175.55812Q64.26875 175.83937 63.51875 175.83937Q62.8 175.83937 62.3 175.58937Q61.815624 175.32375 61.51875 174.83937Q61.221874 174.33937 61.096874 173.62062Q60.971874 172.88625 60.971874 171.94875Q60.971874 171.08937 61.1125 170.37062Q61.253124 169.63625 61.565624 169.12062Q61.89375 168.605 62.409374 168.32375Q62.925 168.0425 63.675 168.0425Q64.39375 168.0425 64.87813 168.2925Q65.3625 168.5425 65.65938 169.0425Q65.97188 169.5425 66.09688 170.26125Q66.22188 170.98 66.22188 171.9175ZM65.19063 171.99562Q65.19063 171.4175 65.14375 170.98Q65.09688 170.52687 65.01875 170.18312Q64.94063 169.82375 64.81563 169.57375Q64.69063 169.32375 64.51875 169.1675Q64.34688 169.01125 64.1125 168.93312Q63.89375 168.855 63.6125 168.855Q63.1125 168.855 62.8 169.08937Q62.4875 169.32375 62.3 169.74562Q62.128124 170.15187 62.065624 170.69875Q62.003124 171.24562 62.003124 171.88625Q62.003124 172.73 62.08125 173.32375Q62.175 173.9175 62.3625 174.2925Q62.565624 174.6675 62.8625 174.83937Q63.159374 175.01125 63.58125 175.01125Q63.909374 175.01125 64.14375 174.9175Q64.39375 174.80812 64.56563 174.62062Q64.75313 174.4175 64.8625 174.13625Q64.9875 173.855 65.05 173.52687Q65.12813 173.19875 65.15938 172.80812Q65.19063 172.4175 65.19063 171.99562Z" fill-rule="nonzero"/><path fill="#000000" d="M53.971874 146.33917Q53.971874 146.44855 53.95625 146.52667Q53.940624 146.6048 53.909374 146.6673Q53.878124 146.7298 53.83125 146.76105Q53.8 146.77667 53.7375 146.77667L49.55 146.77667Q49.471874 146.77667 49.409374 146.76105Q49.346874 146.7298 49.3 146.68292Q49.253124 146.63605 49.2375 146.55792Q49.221874 146.46417 49.221874 146.33917Q49.221874 146.21417 49.221874 146.13605Q49.2375 146.0423 49.26875 145.9798Q49.3 145.90167 49.33125 145.83917Q49.378124 145.77667 49.45625 145.69855L50.925 144.13605Q51.440624 143.6048 51.7375 143.18292Q52.05 142.74542 52.20625 142.40167Q52.378124 142.0423 52.425 141.76105Q52.4875 141.46417 52.4875 141.21417Q52.4875 140.96417 52.409374 140.74542Q52.33125 140.51105 52.175 140.33917Q52.01875 140.1673 51.784374 140.07355Q51.55 139.9798 51.2375 139.9798Q50.878124 139.9798 50.596874 140.07355Q50.315624 140.1673 50.096874 140.2923Q49.89375 140.40167 49.7375 140.51105Q49.596874 140.6048 49.534374 140.6048Q49.4875 140.6048 49.45625 140.58917Q49.425 140.55792 49.39375 140.51105Q49.378124 140.44855 49.3625 140.37042Q49.3625 140.27667 49.3625 140.15167Q49.3625 140.07355 49.3625 140.01105Q49.378124 139.93292 49.378124 139.88605Q49.39375 139.83917 49.409374 139.80792Q49.440624 139.76105 49.503124 139.69855Q49.58125 139.63605 49.753124 139.5423Q49.940624 139.43292 50.190624 139.33917Q50.45625 139.2298 50.76875 139.1673Q51.08125 139.08917 51.425 139.08917Q51.971874 139.08917 52.378124 139.24542Q52.8 139.38605 53.065624 139.6673Q53.346874 139.93292 53.471874 140.2923Q53.6125 140.65167 53.6125 141.05792Q53.6125 141.4173 53.55 141.77667Q53.4875 142.13605 53.284374 142.55792Q53.08125 142.9798 52.675 143.49542Q52.284374 143.99542 51.64375 144.6673L50.440624 145.9173L53.7375 145.9173Q53.784374 145.9173 53.83125 145.94855Q53.878124 145.9798 53.909374 146.02667Q53.940624 146.07355 53.95625 146.15167Q53.971874 146.2298 53.971874 146.33917ZM59.9875 146.37042Q59.9875 146.49542 59.95625 146.57355Q59.940624 146.63605 59.909374 146.68292Q59.89375 146.7298 59.846874 146.76105Q59.815624 146.77667 59.76875 146.77667L55.815624 146.77667Q55.76875 146.77667 55.7375 146.76105Q55.70625 146.7298 55.659374 146.68292Q55.628124 146.63605 55.6125 146.57355Q55.596874 146.49542 55.596874 146.37042Q55.596874 146.27667 55.6125 146.19855Q55.628124 146.12042 55.659374 146.07355Q55.690624 146.02667 55.721874 145.99542Q55.76875 145.96417 55.815624 145.96417L57.39375 145.96417L57.39375 140.19855L55.925 141.07355Q55.815624 141.13605 55.7375 141.15167Q55.675 141.15167 55.628124 141.12042Q55.596874 141.07355 55.58125 140.99542Q55.565624 140.90167 55.565624 140.77667Q55.565624 140.6673 55.565624 140.6048Q55.58125 140.52667 55.596874 140.4798Q55.628124 140.43292 55.659374 140.40167Q55.690624 140.37042 55.7375 140.32355L57.4875 139.21417Q57.503124 139.19855 57.534374 139.18292Q57.58125 139.1673 57.628124 139.1673Q57.690624 139.15167 57.753124 139.15167Q57.83125 139.13605 57.925 139.13605Q58.065624 139.13605 58.159374 139.15167Q58.253124 139.1673 58.3 139.18292Q58.3625 139.19855 58.378124 139.24542Q58.39375 139.27667 58.39375 139.30792L58.39375 145.96417L59.76875 145.96417Q59.815624 145.96417 59.846874 145.99542Q59.89375 146.02667 59.925 146.07355Q59.95625 146.12042 59.971874 146.19855Q59.9875 146.27667 59.9875 146.37042ZM66.22188 142.96417Q66.22188 143.83917 66.08125 144.55792Q65.94063 145.27667 65.6125 145.80792Q65.3 146.32355 64.78438 146.6048Q64.26875 146.88605 63.51875 146.88605Q62.8 146.88605 62.3 146.63605Q61.815624 146.37042 61.51875 145.88605Q61.221874 145.38605 61.096874 144.6673Q60.971874 143.93292 60.971874 142.99542Q60.971874 142.13605 61.1125 141.4173Q61.253124 140.68292 61.565624 140.1673Q61.89375 139.65167 62.409374 139.37042Q62.925 139.08917 63.675 139.08917Q64.39375 139.08917 64.87813 139.33917Q65.3625 139.58917 65.65938 140.08917Q65.97188 140.58917 66.09688 141.30792Q66.22188 142.02667 66.22188 142.96417ZM65.19063 143.0423Q65.19063 142.46417 65.14375 142.02667Q65.09688 141.57355 65.01875 141.2298Q64.94063 140.87042 64.81563 140.62042Q64.69063 140.37042 64.51875 140.21417Q64.34688 140.05792 64.1125 139.9798Q63.89375 139.90167 63.6125 139.90167Q63.1125 139.90167 62.8 140.13605Q62.4875 140.37042 62.3 140.7923Q62.128124 141.19855 62.065624 141.74542Q62.003124 142.2923 62.003124 142.93292Q62.003124 143.77667 62.08125 144.37042Q62.175 144.96417 62.3625 145.33917Q62.565624 145.71417 62.8625 145.88605Q63.159374 146.05792 63.58125 146.05792Q63.909374 146.05792 64.14375 145.96417Q64.39375 145.8548 64.56563 145.6673Q64.75313 145.46417 64.8625 145.18292Q64.9875 144.90167 65.05 144.57355Q65.12813 144.24542 65.15938 143.8548Q65.19063 143.46417 65.19063 143.0423Z" fill-rule="nonzero"/><path fill="#000000" d="M53.971874 117.38583Q53.971874 117.49521 53.95625 117.57333Q53.940624 117.65146 53.909374 117.71396Q53.878124 117.77646 53.83125 117.80771Q53.8 117.82333 53.7375 117.82333L49.55 117.82333Q49.471874 117.82333 49.409374 117.80771Q49.346874 117.77646 49.3 117.72958Q49.253124 117.68271 49.2375 117.60458Q49.221874 117.51083 49.221874 117.38583Q49.221874 117.26083 49.221874 117.18271Q49.2375 117.08896 49.26875 117.02646Q49.3 116.94833 49.33125 116.88583Q49.378124 116.82333 49.45625 116.74521L50.925 115.18271Q51.440624 114.65146 51.7375 114.22958Q52.05 113.79208 52.20625 113.44833Q52.378124 113.08896 52.425 112.80771Q52.4875 112.51083 52.4875 112.26083Q52.4875 112.01083 52.409374 111.79208Q52.33125 111.55771 52.175 111.38583Q52.01875 111.21396 51.784374 111.12021Q51.55 111.02646 51.2375 111.02646Q50.878124 111.02646 50.596874 111.12021Q50.315624 111.21396 50.096874 111.33896Q49.89375 111.44833 49.7375 111.55771Q49.596874 111.65146 49.534374 111.65146Q49.4875 111.65146 49.45625 111.63583Q49.425 111.60458 49.39375 111.55771Q49.378124 111.49521 49.3625 111.41708Q49.3625 111.32333 49.3625 111.19833Q49.3625 111.12021 49.3625 111.05771Q49.378124 110.97958 49.378124 110.93271Q49.39375 110.88583 49.409374 110.85458Q49.440624 110.80771 49.503124 110.74521Q49.58125 110.68271 49.753124 110.58896Q49.940624 110.47958 50.190624 110.38583Q50.45625 110.27646 50.76875 110.21396Q51.08125 110.13583 51.425 110.13583Q51.971874 110.13583 52.378124 110.29208Q52.8 110.43271 53.065624 110.71396Q53.346874 110.97958 53.471874 111.33896Q53.6125 111.69833 53.6125 112.10458Q53.6125 112.46396 53.55 112.82333Q53.4875 113.18271 53.284374 113.60458Q53.08125 114.02646 52.675 114.54208Q52.284374 115.04208 51.64375 115.71396L50.440624 116.96396L53.7375 116.96396Q53.784374 116.96396 53.83125 116.99521Q53.878124 117.02646 53.909374 117.07333Q53.940624 117.12021 53.95625 117.19833Q53.971874 117.27646 53.971874 117.38583ZM60.284374 115.66708Q60.284374 115.85458 60.221874 115.97958Q60.175 116.08896 60.065624 116.08896L59.20625 116.08896L59.20625 117.68271Q59.20625 117.72958 59.175 117.76083Q59.159374 117.79208 59.096874 117.82333Q59.05 117.83896 58.95625 117.83896Q58.8625 117.85458 58.70625 117.85458Q58.565624 117.85458 58.471874 117.83896Q58.378124 117.83896 58.315624 117.82333Q58.26875 117.79208 58.253124 117.76083Q58.2375 117.72958 58.2375 117.68271L58.2375 116.08896L55.096874 116.08896Q55.034374 116.08896 54.9875 116.07333Q54.940624 116.04208 54.89375 115.99521Q54.8625 115.94833 54.846874 115.87021Q54.83125 115.77646 54.83125 115.63583Q54.83125 115.52646 54.83125 115.44833Q54.846874 115.35458 54.8625 115.27646Q54.878124 115.19833 54.909374 115.13583Q54.940624 115.07333 54.971874 114.99521L57.70625 110.38583Q57.7375 110.33896 57.784374 110.30771Q57.846874 110.27646 57.925 110.26083Q58.01875 110.22958 58.14375 110.21396Q58.284374 110.19833 58.45625 110.19833Q58.659374 110.19833 58.8 110.21396Q58.940624 110.22958 59.01875 110.26083Q59.1125 110.27646 59.159374 110.32333Q59.20625 110.35458 59.20625 110.41708L59.20625 115.24521L60.065624 115.24521Q60.159374 115.24521 60.221874 115.35458Q60.284374 115.44833 60.284374 115.66708ZM58.2375 111.08896L58.221874 111.08896L55.753124 115.24521L58.2375 115.24521L58.2375 111.08896ZM66.22188 114.01083Q66.22188 114.88583 66.08125 115.60458Q65.94063 116.32333 65.6125 116.85458Q65.3 117.37021 64.78438 117.65146Q64.26875 117.93271 63.51875 117.93271Q62.8 117.93271 62.3 117.68271Q61.815624 117.41708 61.51875 116.93271Q61.221874 116.43271 61.096874 115.71396Q60.971874 114.97958 60.971874 114.04208Q60.971874 113.18271 61.1125 112.46396Q61.253124 111.72958 61.565624 111.21396Q61.89375 110.69833 62.409374 110.41708Q62.925 110.13583 63.675 110.13583Q64.39375 110.13583 64.87813 110.38583Q65.3625 110.63583 65.65938 111.13583Q65.97188 111.63583 66.09688 112.35458Q66.22188 113.07333 66.22188 114.01083ZM65.19063 114.08896Q65.19063 113.51083 65.14375 113.07333Q65.09688 112.62021 65.01875 112.27646Q64.94063 111.91708 64.81563 111.66708Q64.69063 111.41708 64.51875 111.26083Q64.34688 111.10458 64.1125 111.02646Q63.89375 110.94833 63.6125 110.94833Q63.1125 110.94833 62.8 111.18271Q62.4875 111.41708 62.3 111.83896Q62.128124 112.24521 62.065624 112.79208Q62.003124 113.33896 62.003124 113.97958Q62.003124 114.82333 62.08125 115.41708Q62.175 116.01083 62.3625 116.38583Q62.565624 116.76083 62.8625 116.93271Q63.159374 117.10458 63.58125 117.10458Q63.909374 117.10458 64.14375 117.01083Q64.39375 116.90146 64.56563 116.71396Q64.75313 116.51083 64.8625 116.22958Q64.9875 115.94833 65.05 115.62021Q65.12813 115.29208 65.15938 114.90146Q65.19063 114.51083 65.19063 114.08896Z" fill-rule="nonzero"/><path fill="#000000" d="M53.971874 88.4325Q53.971874 88.54188 53.95625 88.62Q53.940624 88.69813 53.909374 88.76063Q53.878124 88.82313 53.83125 88.85438Q53.8 88.87 53.7375 88.87L49.55 88.87Q49.471874 88.87 49.409374 88.85438Q49.346874 88.82313 49.3 88.77625Q49.253124 88.72938 49.2375 88.65125Q49.221874 88.5575 49.221874 88.4325Q49.221874 88.3075 49.221874 88.22938Q49.2375 88.13563 49.26875 88.07313Q49.3 87.995 49.33125 87.9325Q49.378124 87.87 49.45625 87.79188L50.925 86.22938Q51.440624 85.69813 51.7375 85.27625Q52.05 84.83875 52.20625 84.495Q52.378124 84.13563 52.425 83.85438Q52.4875 83.5575 52.4875 83.3075Q52.4875 83.0575 52.409374 82.83875Q52.33125 82.60438 52.175 82.4325Q52.01875 82.26063 51.784374 82.16688Q51.55 82.07313 51.2375 82.07313Q50.878124 82.07313 50.596874 82.16688Q50.315624 82.26063 50.096874 82.38563Q49.89375 82.495 49.7375 82.60438Q49.596874 82.69813 49.534374 82.69813Q49.4875 82.69813 49.45625 82.6825Q49.425 82.65125 49.39375 82.60438Q49.378124 82.54188 49.3625 82.46375Q49.3625 82.37 49.3625 82.245Q49.3625 82.16688 49.3625 82.10438Q49.378124 82.02625 49.378124 81.97938Q49.39375 81.9325 49.409374 81.90125Q49.440624 81.85438 49.503124 81.79188Q49.58125 81.72938 49.753124 81.63563Q49.940624 81.52625 50.190624 81.4325Q50.45625 81.32313 50.76875 81.26063Q51.08125 81.1825 51.425 81.1825Q51.971874 81.1825 52.378124 81.33875Q52.8 81.47938 53.065624 81.76063Q53.346874 82.02625 53.471874 82.38563Q53.6125 82.745 53.6125 83.15125Q53.6125 83.51063 53.55 83.87Q53.4875 84.22938 53.284374 84.65125Q53.08125 85.07313 52.675 85.58875Q52.284374 86.08875 51.64375 86.76063L50.440624 88.01063L53.7375 88.01063Q53.784374 88.01063 53.83125 88.04188Q53.878124 88.07313 53.909374 88.12Q53.940624 88.16688 53.95625 88.245Q53.971874 88.32313 53.971874 88.4325ZM60.08125 81.71375Q60.08125 81.82313 60.065624 81.91688Q60.065624 81.995 60.05 82.07313Q60.034374 82.15125 60.003124 82.22938Q59.971874 82.3075 59.940624 82.38563L57.20625 88.6825Q57.175 88.745 57.128124 88.79188Q57.096874 88.83875 57.01875 88.87Q56.95625 88.88563 56.846874 88.88563Q56.753124 88.90125 56.596874 88.90125Q56.39375 88.90125 56.284374 88.88563Q56.175 88.87 56.128124 88.83875Q56.08125 88.79188 56.08125 88.745Q56.08125 88.6825 56.128124 88.60438L58.9875 82.16688L55.346874 82.16688Q55.2375 82.16688 55.175 82.0575Q55.128124 81.9325 55.128124 81.72938Q55.128124 81.62 55.14375 81.54188Q55.159374 81.44813 55.190624 81.40125Q55.221874 81.33875 55.253124 81.32313Q55.3 81.29188 55.346874 81.29188L59.76875 81.29188Q59.846874 81.29188 59.909374 81.3075Q59.971874 81.32313 60.003124 81.38563Q60.034374 81.4325 60.05 81.51063Q60.08125 81.58875 60.08125 81.71375ZM66.22188 85.0575Q66.22188 85.9325 66.08125 86.65125Q65.94063 87.37 65.6125 87.90125Q65.3 88.41688 64.78438 88.69813Q64.26875 88.97938 63.51875 88.97938Q62.8 88.97938 62.3 88.72938Q61.815624 88.46375 61.51875 87.97938Q61.221874 87.47938 61.096874 86.76063Q60.971874 86.02625 60.971874 85.08875Q60.971874 84.22938 61.1125 83.51063Q61.253124 82.77625 61.565624 82.26063Q61.89375 81.745 62.409374 81.46375Q62.925 81.1825 63.675 81.1825Q64.39375 81.1825 64.87813 81.4325Q65.3625 81.6825 65.65938 82.1825Q65.97188 82.6825 66.09688 83.40125Q66.22188 84.12 66.22188 85.0575ZM65.19063 85.13563Q65.19063 84.5575 65.14375 84.12Q65.09688 83.66688 65.01875 83.32313Q64.94063 82.96375 64.81563 82.71375Q64.69063 82.46375 64.51875 82.3075Q64.34688 82.15125 64.1125 82.07313Q63.89375 81.995 63.6125 81.995Q63.1125 81.995 62.8 82.22938Q62.4875 82.46375 62.3 82.88563Q62.128124 83.29188 62.065624 83.83875Q62.003124 84.38563 62.003124 85.02625Q62.003124 85.87 62.08125 86.46375Q62.175 87.0575 62.3625 87.4325Q62.565624 87.8075 62.8625 87.97938Q63.159374 88.15125 63.58125 88.15125Q63.909374 88.15125 64.14375 88.0575Q64.39375 87.94813 64.56563 87.76063Q64.75313 87.5575 64.8625 87.27625Q64.9875 86.995 65.05 86.66688Q65.12813 86.33875 65.15938 85.94813Q65.19063 85.5575 65.19063 85.13563Z" fill-rule="nonzero"/><path fill="#000000" d="M53.909374 57.744793Q53.909374 58.276043 53.721874 58.697918Q53.55 59.104168 53.20625 59.401043Q52.8625 59.697918 52.3625 59.869793Q51.8625 60.026043 51.2375 60.026043Q50.8625 60.026043 50.51875 59.963543Q50.190624 59.901043 49.925 59.822918Q49.675 59.729168 49.503124 59.651043Q49.346874 59.557293 49.3 59.510418Q49.253124 59.463543 49.221874 59.432293Q49.20625 59.385418 49.190624 59.338543Q49.175 59.276043 49.159374 59.197918Q49.159374 59.104168 49.159374 58.979168Q49.159374 58.760418 49.190624 58.682293Q49.2375 58.604168 49.315624 58.604168Q49.3625 58.604168 49.51875 58.697918Q49.675 58.791668 49.909374 58.901043Q50.159374 59.010418 50.4875 59.104168Q50.815624 59.197918 51.20625 59.197918Q51.596874 59.197918 51.89375 59.104168Q52.190624 58.994793 52.378124 58.822918Q52.58125 58.635418 52.675 58.385418Q52.784374 58.135418 52.784374 57.838543Q52.784374 57.526043 52.659374 57.276043Q52.534374 57.010418 52.284374 56.822918Q52.05 56.635418 51.690624 56.541668Q51.33125 56.432293 50.878124 56.432293L50.159374 56.432293Q50.1125 56.432293 50.065624 56.416668Q50.034374 56.385418 49.9875 56.338543Q49.95625 56.291668 49.940624 56.213543Q49.925 56.135418 49.925 56.026043Q49.925 55.901043 49.940624 55.838543Q49.95625 55.760418 49.9875 55.713543Q50.01875 55.666668 50.05 55.651043Q50.096874 55.635418 50.159374 55.635418L50.815624 55.635418Q51.20625 55.635418 51.503124 55.541668Q51.815624 55.432293 52.034374 55.244793Q52.253124 55.057293 52.3625 54.807293Q52.471874 54.541668 52.471874 54.213543Q52.471874 53.979168 52.39375 53.776043Q52.33125 53.557293 52.175 53.401043Q52.01875 53.229168 51.784374 53.151043Q51.55 53.057293 51.2375 53.057293Q50.89375 53.057293 50.6125 53.166668Q50.33125 53.260418 50.096874 53.385418Q49.878124 53.494793 49.721874 53.604168Q49.58125 53.697918 49.534374 53.697918Q49.4875 53.697918 49.45625 53.682293Q49.425 53.666668 49.39375 53.635418Q49.378124 53.588543 49.3625 53.510418Q49.3625 53.416668 49.3625 53.291668Q49.3625 53.213543 49.3625 53.151043Q49.378124 53.072918 49.39375 53.026043Q49.409374 52.979168 49.425 52.932293Q49.45625 52.885418 49.503124 52.838543Q49.565624 52.776043 49.7375 52.682293Q49.909374 52.572918 50.159374 52.479168Q50.409374 52.369793 50.7375 52.307293Q51.065624 52.229168 51.440624 52.229168Q51.95625 52.229168 52.346874 52.369793Q52.753124 52.494793 53.01875 52.744793Q53.284374 52.979168 53.409374 53.322918Q53.55 53.666668 53.55 54.088543Q53.55 54.447918 53.45625 54.760418Q53.3625 55.057293 53.175 55.291668Q53.003124 55.526043 52.7375 55.697918Q52.471874 55.869793 52.128124 55.932293L52.128124 55.947918Q52.51875 55.979168 52.846874 56.135418Q53.175 56.291668 53.409374 56.526043Q53.64375 56.760418 53.76875 57.072918Q53.909374 57.385418 53.909374 57.744793ZM60.221874 56.104168Q60.221874 56.979168 60.08125 57.697918Q59.940624 58.416668 59.6125 58.947918Q59.3 59.463543 58.784374 59.744793Q58.26875 60.026043 57.51875 60.026043Q56.8 60.026043 56.3 59.776043Q55.815624 59.510418 55.51875 59.026043Q55.221874 58.526043 55.096874 57.807293Q54.971874 57.072918 54.971874 56.135418Q54.971874 55.276043 55.1125 54.557293Q55.253124 53.822918 55.565624 53.307293Q55.89375 52.791668 56.409374 52.510418Q56.925 52.229168 57.675 52.229168Q58.39375 52.229168 58.878124 52.479168Q59.3625 52.729168 59.659374 53.229168Q59.971874 53.729168 60.096874 54.447918Q60.221874 55.166668 60.221874 56.104168ZM59.190624 56.182293Q59.190624 55.604168 59.14375 55.166668Q59.096874 54.713543 59.01875 54.369793Q58.940624 54.010418 58.815624 53.760418Q58.690624 53.510418 58.51875 53.354168Q58.346874 53.197918 58.1125 53.119793Q57.89375 53.041668 57.6125 53.041668Q57.1125 53.041668 56.8 53.276043Q56.4875 53.510418 56.3 53.932293Q56.128124 54.338543 56.065624 54.885418Q56.003124 55.432293 56.003124 56.072918Q56.003124 56.916668 56.08125 57.510418Q56.175 58.104168 56.3625 58.479168Q56.565624 58.854168 56.8625 59.026043Q57.159374 59.197918 57.58125 59.197918Q57.909374 59.197918 58.14375 59.104168Q58.39375 58.994793 58.565624 58.807293Q58.753124 58.604168 58.8625 58.322918Q58.9875 58.041668 59.05 57.713543Q59.128124 57.385418 59.159374 56.994793Q59.190624 56.604168 59.190624 56.182293ZM66.22188 56.104168Q66.22188 56.979168 66.08125 57.697918Q65.94063 58.416668 65.6125 58.947918Q65.3 59.463543 64.78438 59.744793Q64.26875 60.026043 63.51875 60.026043Q62.8 60.026043 62.3 59.776043Q61.815624 59.510418 61.51875 59.026043Q61.221874 58.526043 61.096874 57.807293Q60.971874 57.072918 60.971874 56.135418Q60.971874 55.276043 61.1125 54.557293Q61.253124 53.822918 61.565624 53.307293Q61.89375 52.791668 62.409374 52.510418Q62.925 52.229168 63.675 52.229168Q64.39375 52.229168 64.87813 52.479168Q65.3625 52.729168 65.65938 53.229168Q65.97188 53.729168 66.09688 54.447918Q66.22188 55.166668 66.22188 56.104168ZM65.19063 56.182293Q65.19063 55.604168 65.14375 55.166668Q65.09688 54.713543 65.01875 54.369793Q64.94063 54.010418 64.81563 53.760418Q64.69063 53.510418 64.51875 53.354168Q64.34688 53.197918 64.1125 53.119793Q63.89375 53.041668 63.6125 53.041668Q63.1125 53.041668 62.8 53.276043Q62.4875 53.510418 62.3 53.932293Q62.128124 54.338543 62.065624 54.885418Q62.003124 55.432293 62.003124 56.072918Q62.003124 56.916668 62.08125 57.510418Q62.175 58.104168 62.3625 58.479168Q62.565624 58.854168 62.8625 59.026043Q63.159374 59.197918 63.58125 59.197918Q63.909374 59.197918 64.14375 59.104168Q64.39375 58.994793 64.56563 58.807293Q64.75313 58.604168 64.8625 58.322918Q64.9875 58.041668 65.05 57.713543Q65.12813 57.385418 65.15938 56.994793Q65.19063 56.604168 65.19063 56.182293Z" fill-rule="nonzero"/><path fill="#757575" d="M28.14375 20.628124Q28.14375 20.815624 28.128124 20.95625Q28.1125 21.096874 28.065624 21.175Q28.01875 21.253124 27.95625 21.3Q27.89375 21.33125 27.815624 21.33125L24.26875 21.33125L24.26875 32.3Q24.26875 32.378124 24.221874 32.440624Q24.190624 32.4875 24.08125 32.534374Q23.9875 32.565624 23.83125 32.58125Q23.675 32.6125 23.425 32.6125Q23.190624 32.6125 23.01875 32.58125Q22.8625 32.565624 22.753124 32.534374Q22.659374 32.4875 22.6125 32.440624Q22.58125 32.378124 22.58125 32.3L22.58125 21.33125L19.034374 21.33125Q18.95625 21.33125 18.89375 21.3Q18.83125 21.253124 18.784374 21.175Q18.753124 21.096874 18.721874 20.95625Q18.690624 20.815624 18.690624 20.628124Q18.690624 20.45625 18.721874 20.315624Q18.753124 20.159374 18.784374 20.08125Q18.83125 19.9875 18.89375 19.95625Q18.95625 19.909374 19.034374 19.909374L27.815624 19.909374Q27.89375 19.909374 27.95625 19.95625Q28.01875 19.9875 28.065624 20.08125Q28.1125 20.159374 28.128124 20.315624Q28.14375 20.45625 28.14375 20.628124ZM38.221874 27.815624Q38.221874 28.89375 37.940624 29.8Q37.659374 30.690624 37.096874 31.346874Q36.534374 32.003124 35.690624 32.378124Q34.846874 32.7375 33.721874 32.7375Q32.64375 32.7375 31.83125 32.425Q31.034374 32.096874 30.4875 31.4875Q29.95625 30.8625 29.690624 29.9875Q29.425 29.096874 29.425 27.9875Q29.425 26.909374 29.70625 26.01875Q29.9875 25.1125 30.55 24.45625Q31.1125 23.8 31.940624 23.440624Q32.784374 23.08125 33.909374 23.08125Q35.003124 23.08125 35.8 23.409374Q36.6125 23.721874 37.14375 24.346874Q37.675 24.95625 37.940624 25.83125Q38.221874 26.70625 38.221874 27.815624ZM36.51875 27.925Q36.51875 27.20625 36.378124 26.58125Q36.253124 25.940624 35.940624 25.471874Q35.64375 24.9875 35.128124 24.70625Q34.6125 24.425 33.846874 24.425Q33.128124 24.425 32.6125 24.675Q32.1125 24.925 31.76875 25.39375Q31.440624 25.8625 31.26875 26.503124Q31.1125 27.128124 31.1125 27.878124Q31.1125 28.596874 31.2375 29.2375Q31.378124 29.878124 31.690624 30.346874Q32.003124 30.815624 32.51875 31.096874Q33.034374 31.378124 33.8 31.378124Q34.503124 31.378124 35.01875 31.128124Q35.55 30.8625 35.878124 30.409374Q36.20625 29.95625 36.3625 29.315624Q36.51875 28.675 36.51875 27.925ZM45.6125 31.659374Q45.6125 31.940624 45.565624 32.1125Q45.534374 32.26875 45.45625 32.346874Q45.378124 32.425 45.221874 32.503124Q45.065624 32.565624 44.8625 32.6125Q44.675 32.659374 44.440624 32.690624Q44.221874 32.721874 43.9875 32.721874Q43.315624 32.721874 42.815624 32.534374Q42.33125 32.346874 42.01875 31.9875Q41.70625 31.628124 41.565624 31.065624Q41.425 30.503124 41.425 29.7375L41.425 24.596874L40.190624 24.596874Q40.05 24.596874 39.95625 24.440624Q39.878124 24.284374 39.878124 23.940624Q39.878124 23.753124 39.89375 23.628124Q39.925 23.503124 39.95625 23.425Q40.003124 23.33125 40.065624 23.3Q40.128124 23.26875 40.20625 23.26875L41.425 23.26875L41.425 21.175Q41.425 21.096874 41.45625 21.05Q41.4875 20.9875 41.58125 20.940624Q41.675 20.89375 41.83125 20.878124Q41.9875 20.8625 42.221874 20.8625Q42.471874 20.8625 42.628124 20.878124Q42.784374 20.89375 42.8625 20.940624Q42.95625 20.9875 42.9875 21.05Q43.034374 21.096874 43.034374 21.175L43.034374 23.26875L45.3 23.26875Q45.378124 23.26875 45.425 23.3Q45.4875 23.33125 45.534374 23.425Q45.58125 23.503124 45.596874 23.628124Q45.6125 23.753124 45.6125 23.940624Q45.6125 24.284374 45.51875 24.440624Q45.440624 24.596874 45.3 24.596874L43.034374 24.596874L43.034374 29.503124Q43.034374 30.409374 43.3 30.878124Q43.58125 31.33125 44.26875 31.33125Q44.4875 31.33125 44.659374 31.3Q44.846874 31.253124 44.971874 31.20625Q45.1125 31.159374 45.20625 31.1125Q45.315624 31.065624 45.39375 31.065624Q45.440624 31.065624 45.4875 31.096874Q45.534374 31.1125 45.55 31.190624Q45.58125 31.253124 45.596874 31.378124Q45.6125 31.4875 45.6125 31.659374ZM54.659374 32.315624Q54.659374 32.425 54.58125 32.4875Q54.503124 32.55 54.3625 32.58125Q54.2375 32.6125 53.971874 32.6125Q53.721874 32.6125 53.565624 32.58125Q53.409374 32.55 53.346874 32.4875Q53.284374 32.425 53.284374 32.315624L53.284374 31.440624Q52.70625 32.05 51.9875 32.39375Q51.284374 32.7375 50.503124 32.7375Q49.8 32.7375 49.2375 32.55Q48.675 32.378124 48.284374 32.034374Q47.89375 31.690624 47.675 31.190624Q47.45625 30.690624 47.45625 30.065624Q47.45625 29.315624 47.753124 28.76875Q48.05 28.221874 48.6125 27.8625Q49.190624 27.503124 50.003124 27.33125Q50.83125 27.14375 51.846874 27.14375L53.065624 27.14375L53.065624 26.45625Q53.065624 25.940624 52.95625 25.55Q52.846874 25.159374 52.6125 24.909374Q52.378124 24.64375 51.9875 24.51875Q51.6125 24.378124 51.05 24.378124Q50.45625 24.378124 49.971874 24.534374Q49.503124 24.675 49.14375 24.846874Q48.8 25.003124 48.55 25.159374Q48.315624 25.3 48.20625 25.3Q48.128124 25.3 48.065624 25.26875Q48.003124 25.221874 47.95625 25.14375Q47.925 25.065624 47.89375 24.940624Q47.878124 24.815624 47.878124 24.675Q47.878124 24.425 47.909374 24.284374Q47.940624 24.14375 48.065624 24.01875Q48.20625 23.89375 48.534374 23.721874Q48.8625 23.55 49.26875 23.409374Q49.690624 23.26875 50.190624 23.175Q50.690624 23.08125 51.20625 23.08125Q52.14375 23.08125 52.8 23.3Q53.471874 23.503124 53.878124 23.925Q54.3 24.33125 54.471874 24.95625Q54.659374 25.565624 54.659374 26.39375L54.659374 32.315624ZM53.065624 28.3L51.690624 28.3Q51.01875 28.3 50.534374 28.409374Q50.05 28.51875 49.721874 28.753124Q49.409374 28.971874 49.253124 29.284374Q49.096874 29.58125 49.096874 29.9875Q49.096874 30.659374 49.534374 31.065624Q49.971874 31.471874 50.753124 31.471874Q51.378124 31.471874 51.925 31.159374Q52.471874 30.83125 53.065624 30.159374L53.065624 28.3ZM59.659374 32.3Q59.659374 32.378124 59.6125 32.440624Q59.58125 32.4875 59.4875 32.534374Q59.409374 32.565624 59.253124 32.58125Q59.096874 32.6125 58.846874 32.6125Q58.6125 32.6125 58.45625 32.58125Q58.3 32.565624 58.20625 32.534374Q58.1125 32.4875 58.08125 32.440624Q58.05 32.378124 58.05 32.3L58.05 19.253124Q58.05 19.175 58.08125 19.128124Q58.1125 19.065624 58.20625 19.034374Q58.3 18.9875 58.45625 18.971874Q58.6125 18.940624 58.846874 18.940624Q59.096874 18.940624 59.253124 18.971874Q59.409374 18.9875 59.4875 19.034374Q59.58125 19.065624 59.6125 19.128124Q59.659374 19.175 59.659374 19.253124L59.659374 32.3Z" fill-rule="nonzero"/></svg>