<svg version="1.1" viewBox="0.0 0.0 680.0 420.0" fill="none" stroke="none" stroke-linecap="square" stroke-miterlimit="10" width="680" height="420" xmlns:xlink="http://www.w3.org/1999/xlink" xmlns="http://www.w3.org/2000/svg"><path fill="#ffffff" d="M0 0L680.0 0L680.0 420.0L0 420.0L0 0Z" fill-rule="nonzero"/><path stroke="#333333" stroke-width="1.0" stroke-linecap="butt" d="M80.5 392.5L659.5 392.5" fill-rule="nonzero"/><path stroke="#cccccc" stroke-width="1.0" stroke-linecap="butt" d="M80.5 359.5L659.5 359.5" fill-rule="nonzero"/><path stroke="#cccccc" stroke-width="1.0" stroke-linecap="butt" d="M80.5 326.5L659.5 326.5" fill-rule="nonzero"/><path stroke="#cccccc" stroke-width="1.0" stroke-linecap="butt" d="M80.5 294.5L659.5 294.5" fill-rule="nonzero"/><path stroke="#cccccc" stroke-width="1.0" stroke-linecap="butt" d="M80.5 261.5L659.5 261.5" fill-rule="nonzero"/><path stroke="#cccccc" stroke-width="1.0" stroke-linecap="butt" d="M80.5 229.5L659.5 229.5" fill-rule="nonzero"/><path stroke="#cccccc" stroke-width="1.0" stroke-linecap="butt" d="M80.5 196.5L659.5 196.5" fill-rule="nonzero"/><path stroke="#cccccc" stroke-width="1.0" stroke-linecap="butt" d="M80.5 163.5L659.5 163.5" fill-rule="nonzero"/><path stroke="#cccccc" stroke-width="1.0" stroke-linecap="butt" d="M80.5 131.5L659.5 131.5" fill-rule="nonzero"/><path stroke="#cccccc" stroke-width="1.0" stroke-linecap="butt" d="M80.5 98.5L659.5 98.5" fill-rule="nonzero"/><path stroke="#cccccc" stroke-width="1.0" stroke-linecap="butt" d="M80.5 66.5L659.5 66.5" fill-rule="nonzero"/><clipPath id="id_0"><path d="M80.0 66.0L659.0 66.0L659.0 392.0L80.0 392.0L80.0 66.0Z" clip-rule="nonzero"/></clipPath><path stroke="#434343" stroke-width="2.0" stroke-linecap="butt" clip-path="url(#id_0)" d="M88.041664 66.0L104.125 66.0L120.208336 66.0L136.29167 66.0L152.375 66.0L168.45833 66.0L184.54167 66.0L200.625 66.0L216.70833 66.0L232.79167 66.0L248.875 66.0L264.95834 66.0L281.04166 66.0L297.125 66.0L313.20834 66.0L329.29166 66.0L345.375 66.0L361.45834 66.0L377.54166 66.0L393.625 66.0L409.70834 66.0L425.79166 66.0L441.875 66.0L457.95834 66.0L474.04166 147.5L490.125 147.5L506.20834 147.5L522.2917 261.6L538.375 261.6L554.4583 261.6L570.5417 326.8L586.625 326.8L602.7083 326.8L618.7917 326.8L634.875 392.0L650.9583 392.0" fill-rule="nonzero"/><path fill="#434343" clip-path="url(#id_0)" d="M94.041664 66.0C94.041664 69.313705 91.35538 72.0 88.041664 72.0C84.72796 72.0 82.041664 69.313705 82.041664 66.0C82.041664 62.68629 84.72796 60.0 88.041664 60.0C91.35538 60.0 94.041664 62.68629 94.041664 66.0Z" fill-rule="nonzero"/><path fill="#434343" clip-path="url(#id_0)" d="M110.125 66.0C110.125 69.313705 107.438705 72.0 104.125 72.0C100.811295 72.0 98.125 69.313705 98.125 66.0C98.125 62.68629 100.811295 60.0 104.125 60.0C107.438705 60.0 110.125 62.68629 110.125 66.0Z" fill-rule="nonzero"/><path fill="#434343" clip-path="url(#id_0)" d="M126.208336 66.0C126.208336 69.313705 123.52204 72.0 120.208336 72.0C116.89462 72.0 114.208336 69.313705 114.208336 66.0C114.208336 62.68629 116.89462 60.0 120.208336 60.0C123.52204 60.0 126.208336 62.68629 126.208336 66.0Z" fill-rule="nonzero"/><path fill="#434343" clip-path="url(#id_0)" d="M142.29167 66.0C142.29167 69.313705 139.60538 72.0 136.29167 72.0C132.97795 72.0 130.29167 69.313705 130.29167 66.0C130.29167 62.68629 132.97795 60.0 136.29167 60.0C139.60538 60.0 142.29167 62.68629 142.29167 66.0Z" fill-rule="nonzero"/><path fill="#434343" clip-path="url(#id_0)" d="M158.375 66.0C158.375 69.313705 155.6887 72.0 152.375 72.0C149.0613 72.0 146.375 69.313705 146.375 66.0C146.375 62.68629 149.0613 60.0 152.375 60.0C155.6887 60.0 158.375 62.68629 158.375 66.0Z" fill-rule="nonzero"/><path fill="#434343" clip-path="url(#id_0)" d="M174.45833 66.0C174.45833 69.313705 171.77205 72.0 168.45833 72.0C165.14462 72.0 162.45833 69.313705 162.45833 66.0C162.45833 62.68629 165.14462 60.0 168.45833 60.0C171.77205 60.0 174.45833 62.68629 174.45833 66.0Z" fill-rule="nonzero"/><path fill="#434343" clip-path="url(#id_0)" d="M190.54167 66.0C190.54167 69.313705 187.85538 72.0 184.54167 72.0C181.22795 72.0 178.54167 69.313705 178.54167 66.0C178.54167 62.68629 181.22795 60.0 184.54167 60.0C187.85538 60.0 190.54167 62.68629 190.54167 66.0Z" fill-rule="nonzero"/><path fill="#434343" clip-path="url(#id_0)" d="M206.625 66.0C206.625 69.313705 203.9387 72.0 200.625 72.0C197.3113 72.0 194.625 69.313705 194.625 66.0C194.625 62.68629 197.3113 60.0 200.625 60.0C203.9387 60.0 206.625 62.68629 206.625 66.0Z" fill-rule="nonzero"/><path fill="#434343" clip-path="url(#id_0)" d="M222.70833 66.0C222.70833 69.313705 220.02205 72.0 216.70833 72.0C213.39462 72.0 210.70833 69.313705 210.70833 66.0C210.70833 62.68629 213.39462 60.0 216.70833 60.0C220.02205 60.0 222.70833 62.68629 222.70833 66.0Z" fill-rule="nonzero"/><path fill="#434343" clip-path="url(#id_0)" d="M238.79167 66.0C238.79167 69.313705 236.10538 72.0 232.79167 72.0C229.47795 72.0 226.79167 69.313705 226.79167 66.0C226.79167 62.68629 229.47795 60.0 232.79167 60.0C236.10538 60.0 238.79167 62.68629 238.79167 66.0Z" fill-rule="nonzero"/><path fill="#434343" clip-path="url(#id_0)" d="M254.875 66.0C254.875 69.313705 252.1887 72.0 248.875 72.0C245.5613 72.0 242.875 69.313705 242.875 66.0C242.875 62.68629 245.5613 60.0 248.875 60.0C252.1887 60.0 254.875 62.68629 254.875 66.0Z" fill-rule="nonzero"/><path fill="#434343" clip-path="url(#id_0)" d="M270.95834 66.0C270.95834 69.313705 268.27203 72.0 264.95834 72.0C261.64462 72.0 258.95834 69.313705 258.95834 66.0C258.95834 62.68629 261.64462 60.0 264.95834 60.0C268.27203 60.0 270.95834 62.68629 270.95834 66.0Z" fill-rule="nonzero"/><path fill="#434343" clip-path="url(#id_0)" d="M287.04166 66.0C287.04166 69.313705 284.35538 72.0 281.04166 72.0C277.72797 72.0 275.04166 69.313705 275.04166 66.0C275.04166 62.68629 277.72797 60.0 281.04166 60.0C284.35538 60.0 287.04166 62.68629 287.04166 66.0Z" fill-rule="nonzero"/><path fill="#434343" clip-path="url(#id_0)" d="M303.125 66.0C303.125 69.313705 300.43872 72.0 297.125 72.0C293.81128 72.0 291.125 69.313705 291.125 66.0C291.125 62.68629 293.81128 60.0 297.125 60.0C300.43872 60.0 303.125 62.68629 303.125 66.0Z" fill-rule="nonzero"/><path fill="#434343" clip-path="url(#id_0)" d="M319.20834 66.0C319.20834 69.313705 316.52203 72.0 313.20834 72.0C309.89462 72.0 307.20834 69.313705 307.20834 66.0C307.20834 62.68629 309.89462 60.0 313.20834 60.0C316.52203 60.0 319.20834 62.68629 319.20834 66.0Z" fill-rule="nonzero"/><path fill="#434343" clip-path="url(#id_0)" d="M335.29166 66.0C335.29166 69.313705 332.60538 72.0 329.29166 72.0C325.97797 72.0 323.29166 69.313705 323.29166 66.0C323.29166 62.68629 325.97797 60.0 329.29166 60.0C332.60538 60.0 335.29166 62.68629 335.29166 66.0Z" fill-rule="nonzero"/><path fill="#434343" clip-path="url(#id_0)" d="M351.375 66.0C351.375 69.313705 348.68872 72.0 345.375 72.0C342.06128 72.0 339.375 69.313705 339.375 66.0C339.375 62.68629 342.06128 60.0 345.375 60.0C348.68872 60.0 351.375 62.68629 351.375 66.0Z" fill-rule="nonzero"/><path fill="#434343" clip-path="url(#id_0)" d="M367.45834 66.0C367.45834 69.313705 364.77203 72.0 361.45834 72.0C358.14462 72.0 355.45834 69.313705 355.45834 66.0C355.45834 62.68629 358.14462 60.0 361.45834 60.0C364.77203 60.0 367.45834 62.68629 367.45834 66.0Z" fill-rule="nonzero"/><path fill="#434343" clip-path="url(#id_0)" d="M383.54166 66.0C383.54166 69.313705 380.85538 72.0 377.54166 72.0C374.22797 72.0 371.54166 69.313705 371.54166 66.0C371.54166 62.68629 374.22797 60.0 377.54166 60.0C380.85538 60.0 383.54166 62.68629 383.54166 66.0Z" fill-rule="nonzero"/><path fill="#434343" clip-path="url(#id_0)" d="M399.625 66.0C399.625 69.313705 396.93872 72.0 393.625 72.0C390.31128 72.0 387.625 69.313705 387.625 66.0C387.625 62.68629 390.31128 60.0 393.625 60.0C396.93872 60.0 399.625 62.68629 399.625 66.0Z" fill-rule="nonzero"/><path fill="#434343" clip-path="url(#id_0)" d="M415.70834 66.0C415.70834 69.313705 413.02203 72.0 409.70834 72.0C406.39462 72.0 403.70834 69.313705 403.70834 66.0C403.70834 62.68629 406.39462 60.0 409.70834 60.0C413.02203 60.0 415.70834 62.68629 415.70834 66.0Z" fill-rule="nonzero"/><path fill="#434343" clip-path="url(#id_0)" d="M431.79166 66.0C431.79166 69.313705 429.10538 72.0 425.79166 72.0C422.47797 72.0 419.79166 69.313705 419.79166 66.0C419.79166 62.68629 422.47797 60.0 425.79166 60.0C429.10538 60.0 431.79166 62.68629 431.79166 66.0Z" fill-rule="nonzero"/><path fill="#434343" clip-path="url(#id_0)" d="M447.875 66.0C447.875 69.313705 445.18872 72.0 441.875 72.0C438.56128 72.0 435.875 69.313705 435.875 66.0C435.875 62.68629 438.56128 60.0 441.875 60.0C445.18872 60.0 447.875 62.68629 447.875 66.0Z" fill-rule="nonzero"/><path fill="#434343" clip-path="url(#id_0)" d="M463.95834 66.0C463.95834 69.313705 461.27203 72.0 457.95834 72.0C454.64462 72.0 451.95834 69.313705 451.95834 66.0C451.95834 62.68629 454.64462 60.0 457.95834 60.0C461.27203 60.0 463.95834 62.68629 463.95834 66.0Z" fill-rule="nonzero"/><path fill="#434343" clip-path="url(#id_0)" d="M480.04166 147.5C480.04166 150.8137 477.35538 153.5 474.04166 153.5C470.72797 153.5 468.04166 150.8137 468.04166 147.5C468.04166 144.1863 470.72797 141.5 474.04166 141.5C477.35538 141.5 480.04166 144.1863 480.04166 147.5Z" fill-rule="nonzero"/><path fill="#434343" clip-path="url(#id_0)" d="M496.125 147.5C496.125 150.8137 493.43872 153.5 490.125 153.5C486.81128 153.5 484.125 150.8137 484.125 147.5C484.125 144.1863 486.81128 141.5 490.125 141.5C493.43872 141.5 496.125 144.1863 496.125 147.5Z" fill-rule="nonzero"/><path fill="#434343" clip-path="url(#id_0)" d="M512.2083 147.5C512.2083 150.8137 509.52203 153.5 506.20834 153.5C502.89462 153.5 500.20834 150.8137 500.20834 147.5C500.20834 144.1863 502.89462 141.5 506.20834 141.5C509.52203 141.5 512.2083 144.1863 512.2083 147.5Z" fill-rule="nonzero"/><path fill="#434343" clip-path="url(#id_0)" d="M528.2917 261.6C528.2917 264.9137 525.60535 267.6 522.2917 267.6C518.97797 267.6 516.2917 264.9137 516.2917 261.6C516.2917 258.2863 518.97797 255.6 522.2917 255.6C525.60535 255.6 528.2917 258.2863 528.2917 261.6Z" fill-rule="nonzero"/><path fill="#434343" clip-path="url(#id_0)" d="M544.375 261.6C544.375 264.9137 541.6887 267.6 538.375 267.6C535.0613 267.6 532.375 264.9137 532.375 261.6C532.375 258.2863 535.0613 255.6 538.375 255.6C541.6887 255.6 544.375 258.2863 544.375 261.6Z" fill-rule="nonzero"/><path fill="#434343" clip-path="url(#id_0)" d="M560.4583 261.6C560.4583 264.9137 557.77203 267.6 554.4583 267.6C551.14465 267.6 548.4583 264.9137 548.4583 261.6C548.4583 258.2863 551.14465 255.6 554.4583 255.6C557.77203 255.6 560.4583 258.2863 560.4583 261.6Z" fill-rule="nonzero"/><path fill="#434343" clip-path="url(#id_0)" d="M576.5417 326.8C576.5417 330.1137 573.85535 332.8 570.5417 332.8C567.22797 332.8 564.5417 330.1137 564.5417 326.8C564.5417 323.4863 567.22797 320.8 570.5417 320.8C573.85535 320.8 576.5417 323.4863 576.5417 326.8Z" fill-rule="nonzero"/><path fill="#434343" clip-path="url(#id_0)" d="M592.625 326.8C592.625 330.1137 589.9387 332.8 586.625 332.8C583.3113 332.8 580.625 330.1137 580.625 326.8C580.625 323.4863 583.3113 320.8 586.625 320.8C589.9387 320.8 592.625 323.4863 592.625 326.8Z" fill-rule="nonzero"/><path fill="#434343" clip-path="url(#id_0)" d="M608.7083 326.8C608.7083 330.1137 606.02203 332.8 602.7083 332.8C599.39465 332.8 596.7083 330.1137 596.7083 326.8C596.7083 323.4863 599.39465 320.8 602.7083 320.8C606.02203 320.8 608.7083 323.4863 608.7083 326.8Z" fill-rule="nonzero"/><path fill="#434343" clip-path="url(#id_0)" d="M624.7917 326.8C624.7917 330.1137 622.10535 332.8 618.7917 332.8C615.47797 332.8 612.7917 330.1137 612.7917 326.8C612.7917 323.4863 615.47797 320.8 618.7917 320.8C622.10535 320.8 624.7917 323.4863 624.7917 326.8Z" fill-rule="nonzero"/><path fill="#434343" clip-path="url(#id_0)" d="M640.875 392.0C640.875 395.31372 638.1887 398.0 634.875 398.0C631.5613 398.0 628.875 395.31372 628.875 392.0C628.875 388.68628 631.5613 386.0 634.875 386.0C638.1887 386.0 640.875 388.68628 640.875 392.0Z" fill-rule="nonzero"/><path fill="#434343" clip-path="url(#id_0)" d="M656.9583 392.0C656.9583 395.31372 654.27203 398.0 650.9583 398.0C647.64465 398.0 644.9583 395.31372 644.9583 392.0C644.9583 388.68628 647.64465 386.0 650.9583 386.0C654.27203 386.0 656.9583 388.68628 656.9583 392.0Z" fill-rule="nonzero"/><path fill="#000000" d="M29.234375 244.45312L29.140625 243.39062Q29.796875 243.3125 30.203125 243.03125Q30.609375 242.75 30.875 242.17188Q31.125 241.57812 31.125 240.84375Q31.125 240.20312 30.9375 239.70312Q30.734375 239.20312 30.40625 238.96875Q30.0625 238.71875 29.671875 238.71875Q29.265625 238.71875 28.96875 238.95312Q28.65625 239.1875 28.453125 239.71875Q28.3125 240.07812 28.03125 241.26562Q27.75 242.4375 27.5 242.90625Q27.171875 243.53125 26.703125 243.82812Q26.21875 244.125 25.625 244.125Q24.984375 244.125 24.421875 243.76562Q23.84375 243.39062 23.5625 242.6875Q23.265625 241.96875 23.265625 241.10938Q23.265625 240.15625 23.578125 239.42188Q23.875 238.6875 24.484375 238.29688Q25.078125 237.90625 25.828125 237.875L25.90625 238.96875Q25.09375 239.0625 24.6875 239.57812Q24.265625 240.07812 24.265625 241.0625Q24.265625 242.09375 24.640625 242.5625Q25.015625 243.03125 25.546875 243.03125Q26.015625 243.03125 26.3125 242.70312Q26.609375 242.375 26.921875 241.0Q27.234375 239.60938 27.46875 239.09375Q27.828125 238.34375 28.359375 237.98438Q28.875 237.625 29.578125 237.625Q30.265625 237.625 30.875 238.01562Q31.46875 238.40625 31.8125 239.14062Q32.140625 239.875 32.140625 240.79688Q32.140625 241.96875 31.8125 242.76562Q31.46875 243.54688 30.78125 244.0Q30.09375 244.4375 29.234375 244.45312ZM29.71875 232.14062L29.859375 231.10938Q30.921875 231.28125 31.53125 231.98438Q32.140625 232.6875 32.140625 233.70312Q32.140625 234.98438 31.3125 235.76562Q30.46875 236.53125 28.90625 236.53125Q27.90625 236.53125 27.15625 236.20312Q26.390625 235.85938 26.015625 235.1875Q25.640625 234.5 25.640625 233.6875Q25.640625 232.6875 26.15625 232.04688Q26.65625 231.39062 27.609375 231.20312L27.765625 232.23438Q27.140625 232.375 26.828125 232.75Q26.5 233.125 26.5 233.65625Q26.5 234.45312 27.078125 234.95312Q27.640625 235.45312 28.875 235.45312Q30.140625 235.45312 30.703125 234.96875Q31.265625 234.48438 31.265625 233.71875Q31.265625 233.09375 30.890625 232.6875Q30.515625 232.26562 29.71875 232.14062ZM28.890625 230.59375Q27.15625 230.59375 26.328125 229.64062Q25.640625 228.84375 25.640625 227.6875Q25.640625 226.40625 26.484375 225.59375Q27.3125 224.76562 28.796875 224.76562Q30.0 224.76562 30.6875 225.125Q31.375 225.48438 31.765625 226.1875Q32.140625 226.875 32.140625 227.6875Q32.140625 228.98438 31.3125 229.79688Q30.46875 230.59375 28.890625 230.59375ZM28.890625 229.51562Q30.078125 229.51562 30.671875 229.0Q31.265625 228.46875 31.265625 227.6875Q31.265625 226.89062 30.671875 226.375Q30.078125 225.85938 28.859375 225.85938Q27.703125 225.85938 27.109375 226.39062Q26.515625 226.90625 26.515625 227.6875Q26.515625 228.46875 27.109375 229.0Q27.6875 229.51562 28.890625 229.51562ZM32.0 223.21875L25.78125 223.21875L25.78125 222.26562L26.71875 222.26562Q26.0625 221.90625 25.859375 221.60938Q25.640625 221.29688 25.640625 220.92188Q25.640625 220.39062 25.96875 219.84375L26.953125 220.20312Q26.71875 220.59375 26.71875 220.96875Q26.71875 221.32812 26.9375 221.60938Q27.140625 221.875 27.515625 221.98438Q28.078125 222.17188 28.734375 222.17188L32.0 222.17188L32.0 223.21875ZM30.0 214.95312L30.125 213.85938Q31.078125 214.10938 31.609375 214.8125Q32.140625 215.51562 32.140625 216.59375Q32.140625 217.95312 31.296875 218.76562Q30.453125 219.5625 28.9375 219.5625Q27.375 219.5625 26.515625 218.75Q25.640625 217.9375 25.640625 216.65625Q25.640625 215.40625 26.484375 214.625Q27.328125 213.82812 28.875 213.82812Q28.96875 213.82812 29.15625 213.82812L29.15625 218.46875Q30.1875 218.40625 30.734375 217.89062Q31.265625 217.375 31.265625 216.59375Q31.265625 216.01562 30.96875 215.60938Q30.65625 215.1875 30.0 214.95312ZM28.296875 218.40625L28.296875 214.9375Q27.5 215.0 27.109375 215.32812Q26.5 215.84375 26.5 216.64062Q26.5 217.375 26.984375 217.875Q27.46875 218.35938 28.296875 218.40625Z" fill-rule="nonzero"/><path fill="#000000" d="M67.5 391.76562Q67.5 390.23438 67.8125 389.3125Q68.125 388.375 68.734375 387.875Q69.359375 387.375 70.296875 387.375Q70.984375 387.375 71.5 387.65625Q72.03125 387.9375 72.375 388.46875Q72.71875 388.98438 72.90625 389.73438Q73.09375 390.48438 73.09375 391.76562Q73.09375 393.28125 72.78125 394.20312Q72.484375 395.125 71.859375 395.64062Q71.25 396.14062 70.296875 396.14062Q69.0625 396.14062 68.34375 395.25Q67.5 394.1875 67.5 391.76562ZM68.578125 391.76562Q68.578125 393.875 69.078125 394.57812Q69.578125 395.28125 70.296875 395.28125Q71.03125 395.28125 71.515625 394.57812Q72.015625 393.875 72.015625 391.76562Q72.015625 389.64062 71.515625 388.95312Q71.03125 388.25 70.28125 388.25Q69.5625 388.25 69.125 388.85938Q68.578125 389.64062 68.578125 391.76562Z" fill-rule="nonzero"/><path fill="#000000" d="M64.46875 363.4L63.421875 363.4L63.421875 356.68124Q63.03125 357.04062 62.40625 357.41562Q61.796875 357.775 61.3125 357.94687L61.3125 356.93124Q62.1875 356.50937 62.84375 355.93124Q63.515625 355.3375 63.796875 354.775L64.46875 354.775L64.46875 363.4ZM67.5 359.16562Q67.5 357.63437 67.8125 356.7125Q68.125 355.775 68.734375 355.275Q69.359375 354.775 70.296875 354.775Q70.984375 354.775 71.5 355.05624Q72.03125 355.3375 72.375 355.86874Q72.71875 356.38437 72.90625 357.13437Q73.09375 357.88437 73.09375 359.16562Q73.09375 360.68124 72.78125 361.60312Q72.484375 362.525 71.859375 363.04062Q71.25 363.54062 70.296875 363.54062Q69.0625 363.54062 68.34375 362.65Q67.5 361.5875 67.5 359.16562ZM68.578125 359.16562Q68.578125 361.275 69.078125 361.97812Q69.578125 362.68124 70.296875 362.68124Q71.03125 362.68124 71.515625 361.97812Q72.015625 361.275 72.015625 359.16562Q72.015625 357.04062 71.515625 356.35312Q71.03125 355.65 70.28125 355.65Q69.5625 355.65 69.125 356.25937Q68.578125 357.04062 68.578125 359.16562Z" fill-rule="nonzero"/><path fill="#000000" d="M66.046875 329.78436L66.046875 330.8L60.359375 330.8Q60.359375 330.425 60.484375 330.0656Q60.703125 329.4875 61.171875 328.925Q61.65625 328.3625 62.5625 327.6281Q63.96875 326.47186 64.453125 325.8Q64.953125 325.1281 64.953125 324.53436Q64.953125 323.90936 64.5 323.4875Q64.046875 323.05 63.328125 323.05Q62.5625 323.05 62.109375 323.5031Q61.65625 323.95624 61.640625 324.76874L60.5625 324.65936Q60.671875 323.4406 61.390625 322.8156Q62.125 322.175 63.359375 322.175Q64.59375 322.175 65.3125 322.8625Q66.03125 323.55 66.03125 324.5656Q66.03125 325.08124 65.8125 325.58124Q65.609375 326.0656 65.109375 326.6281Q64.625 327.175 63.5 328.1281Q62.546875 328.925 62.265625 329.22186Q62.0 329.5031 61.828125 329.78436L66.046875 329.78436ZM67.5 326.5656Q67.5 325.03436 67.8125 324.1125Q68.125 323.175 68.734375 322.675Q69.359375 322.175 70.296875 322.175Q70.984375 322.175 71.5 322.45624Q72.03125 322.7375 72.375 323.26874Q72.71875 323.78436 72.90625 324.53436Q73.09375 325.28436 73.09375 326.5656Q73.09375 328.08124 72.78125 329.0031Q72.484375 329.925 71.859375 330.4406Q71.25 330.9406 70.296875 330.9406Q69.0625 330.9406 68.34375 330.05Q67.5 328.9875 67.5 326.5656ZM68.578125 326.5656Q68.578125 328.675 69.078125 329.3781Q69.578125 330.08124 70.296875 330.08124Q71.03125 330.08124 71.515625 329.3781Q72.015625 328.675 72.015625 326.5656Q72.015625 324.4406 71.515625 323.7531Q71.03125 323.05 70.28125 323.05Q69.5625 323.05 69.125 323.65936Q68.578125 324.4406 68.578125 326.5656Z" fill-rule="nonzero"/><path fill="#000000" d="M60.5 295.9344L61.5625 295.79376Q61.734375 296.6844 62.171875 297.09064Q62.609375 297.48126 63.234375 297.48126Q63.984375 297.48126 64.5 296.96564Q65.015625 296.45 65.015625 295.6844Q65.015625 294.96564 64.53125 294.4969Q64.0625 294.0125 63.328125 294.0125Q63.03125 294.0125 62.578125 294.1375L62.703125 293.2Q62.8125 293.21564 62.875 293.21564Q63.546875 293.21564 64.078125 292.8719Q64.625 292.5125 64.625 291.77814Q64.625 291.2 64.234375 290.825Q63.84375 290.4344 63.21875 290.4344Q62.609375 290.4344 62.1875 290.825Q61.78125 291.21564 61.671875 291.98126L60.609375 291.79376Q60.796875 290.7469 61.484375 290.16876Q62.171875 289.575 63.1875 289.575Q63.890625 289.575 64.484375 289.8875Q65.078125 290.1844 65.390625 290.7Q65.703125 291.21564 65.703125 291.8094Q65.703125 292.35626 65.40625 292.825Q65.109375 293.27814 64.53125 293.54376Q65.28125 293.71564 65.703125 294.27814Q66.125 294.825 66.125 295.66876Q66.125 296.79376 65.296875 297.575Q64.484375 298.35626 63.234375 298.35626Q62.109375 298.35626 61.359375 297.6844Q60.609375 296.9969 60.5 295.9344ZM67.5 293.96564Q67.5 292.4344 67.8125 291.5125Q68.125 290.575 68.734375 290.075Q69.359375 289.575 70.296875 289.575Q70.984375 289.575 71.5 289.85626Q72.03125 290.1375 72.375 290.66876Q72.71875 291.1844 72.90625 291.9344Q73.09375 292.6844 73.09375 293.96564Q73.09375 295.48126 72.78125 296.40314Q72.484375 297.325 71.859375 297.84064Q71.25 298.34064 70.296875 298.34064Q69.0625 298.34064 68.34375 297.45Q67.5 296.3875 67.5 293.96564ZM68.578125 293.96564Q68.578125 296.075 69.078125 296.77814Q69.578125 297.48126 70.296875 297.48126Q71.03125 297.48126 71.515625 296.77814Q72.015625 296.075 72.015625 293.96564Q72.015625 291.84064 71.515625 291.15314Q71.03125 290.45 70.28125 290.45Q69.5625 290.45 69.125 291.0594Q68.578125 291.84064 68.578125 293.96564Z" fill-rule="nonzero"/><path fill="#000000" d="M63.875 265.6L63.875 263.5375L60.15625 263.5375L60.15625 262.56876L64.078125 257.00626L64.9375 257.00626L64.9375 262.56876L66.09375 262.56876L66.09375 263.5375L64.9375 263.5375L64.9375 265.6L63.875 265.6ZM63.875 262.56876L63.875 258.70938L61.1875 262.56876L63.875 262.56876ZM67.5 261.36563Q67.5 259.83438 67.8125 258.9125Q68.125 257.975 68.734375 257.475Q69.359375 256.975 70.296875 256.975Q70.984375 256.975 71.5 257.25626Q72.03125 257.5375 72.375 258.06876Q72.71875 258.58438 72.90625 259.33438Q73.09375 260.08438 73.09375 261.36563Q73.09375 262.88126 72.78125 263.80313Q72.484375 264.725 71.859375 265.24063Q71.25 265.74063 70.296875 265.74063Q69.0625 265.74063 68.34375 264.85Q67.5 263.7875 67.5 261.36563ZM68.578125 261.36563Q68.578125 263.475 69.078125 264.17813Q69.578125 264.88126 70.296875 264.88126Q71.03125 264.88126 71.515625 264.17813Q72.015625 263.475 72.015625 261.36563Q72.015625 259.24063 71.515625 258.55313Q71.03125 257.85 70.28125 257.85Q69.5625 257.85 69.125 258.45938Q68.578125 259.24063 68.578125 261.36563Z" fill-rule="nonzero"/><path fill="#000000" d="M60.5 230.75L61.609375 230.65625Q61.734375 231.46875 62.171875 231.875Q62.625 232.28125 63.265625 232.28125Q64.015625 232.28125 64.546875 231.70312Q65.078125 231.125 65.078125 230.1875Q65.078125 229.28125 64.5625 228.76562Q64.0625 228.23438 63.234375 228.23438Q62.734375 228.23438 62.3125 228.46875Q61.90625 228.70312 61.671875 229.0625L60.6875 228.9375L61.515625 224.53125L65.796875 224.53125L65.796875 225.53125L62.359375 225.53125L61.90625 227.84375Q62.671875 227.29688 63.515625 227.29688Q64.640625 227.29688 65.40625 228.07812Q66.1875 228.85938 66.1875 230.09375Q66.1875 231.25 65.515625 232.10938Q64.6875 233.14062 63.265625 233.14062Q62.09375 233.14062 61.34375 232.48438Q60.609375 231.82812 60.5 230.75ZM67.5 228.76562Q67.5 227.23438 67.8125 226.3125Q68.125 225.375 68.734375 224.875Q69.359375 224.375 70.296875 224.375Q70.984375 224.375 71.5 224.65625Q72.03125 224.9375 72.375 225.46875Q72.71875 225.98438 72.90625 226.73438Q73.09375 227.48438 73.09375 228.76562Q73.09375 230.28125 72.78125 231.20312Q72.484375 232.125 71.859375 232.64062Q71.25 233.14062 70.296875 233.14062Q69.0625 233.14062 68.34375 232.25Q67.5 231.1875 67.5 228.76562ZM68.578125 228.76562Q68.578125 230.875 69.078125 231.57812Q69.578125 232.28125 70.296875 232.28125Q71.03125 232.28125 71.515625 231.57812Q72.015625 230.875 72.015625 228.76562Q72.015625 226.64062 71.515625 225.95312Q71.03125 225.25 70.28125 225.25Q69.5625 225.25 69.125 225.85938Q68.578125 226.64062 68.578125 228.76562Z" fill-rule="nonzero"/><path fill="#000000" d="M65.96875 193.91562L64.921875 193.99374Q64.78125 193.36874 64.53125 193.0875Q64.09375 192.63437 63.46875 192.63437Q62.96875 192.63437 62.578125 192.91562Q62.09375 193.29062 61.796875 193.99374Q61.515625 194.68124 61.5 195.9625Q61.875 195.38437 62.421875 195.10312Q62.984375 194.82187 63.59375 194.82187Q64.640625 194.82187 65.375 195.60312Q66.125 196.38437 66.125 197.60312Q66.125 198.41562 65.765625 199.11874Q65.421875 199.80624 64.8125 200.18124Q64.203125 200.54062 63.4375 200.54062Q62.109375 200.54062 61.28125 199.57187Q60.453125 198.60312 60.453125 196.38437Q60.453125 193.88437 61.375 192.75937Q62.171875 191.775 63.53125 191.775Q64.546875 191.775 65.1875 192.35312Q65.84375 192.91562 65.96875 193.91562ZM61.671875 197.61874Q61.671875 198.16562 61.890625 198.66562Q62.125 199.15 62.53125 199.41562Q62.953125 199.68124 63.421875 199.68124Q64.078125 199.68124 64.5625 199.15Q65.046875 198.60312 65.046875 197.68124Q65.046875 196.79062 64.5625 196.275Q64.09375 195.75937 63.375 195.75937Q62.65625 195.75937 62.15625 196.275Q61.671875 196.79062 61.671875 197.61874ZM67.5 196.16562Q67.5 194.63437 67.8125 193.7125Q68.125 192.775 68.734375 192.275Q69.359375 191.775 70.296875 191.775Q70.984375 191.775 71.5 192.05624Q72.03125 192.3375 72.375 192.86874Q72.71875 193.38437 72.90625 194.13437Q73.09375 194.88437 73.09375 196.16562Q73.09375 197.68124 72.78125 198.60312Q72.484375 199.525 71.859375 200.04062Q71.25 200.54062 70.296875 200.54062Q69.0625 200.54062 68.34375 199.65Q67.5 198.5875 67.5 196.16562ZM68.578125 196.16562Q68.578125 198.275 69.078125 198.97812Q69.578125 199.68124 70.296875 199.68124Q71.03125 199.68124 71.515625 198.97812Q72.015625 198.275 72.015625 196.16562Q72.015625 194.04062 71.515625 193.35312Q71.03125 192.65 70.28125 192.65Q69.5625 192.65 69.125 193.25937Q68.578125 194.04062 68.578125 196.16562Z" fill-rule="nonzero"/><path fill="#000000" d="M60.5625 160.33125L60.5625 159.31563L66.125 159.31563L66.125 160.14375Q65.3125 161.01875 64.5 162.47188Q63.703125 163.90938 63.265625 165.44063Q62.9375 166.51875 62.859375 167.8L61.765625 167.8Q61.78125 166.78438 62.15625 165.34688Q62.546875 163.90938 63.25 162.58125Q63.96875 161.25313 64.78125 160.33125L60.5625 160.33125ZM67.5 163.56563Q67.5 162.03438 67.8125 161.1125Q68.125 160.175 68.734375 159.675Q69.359375 159.175 70.296875 159.175Q70.984375 159.175 71.5 159.45625Q72.03125 159.7375 72.375 160.26875Q72.71875 160.78438 72.90625 161.53438Q73.09375 162.28438 73.09375 163.56563Q73.09375 165.08125 72.78125 166.00313Q72.484375 166.925 71.859375 167.44063Q71.25 167.94063 70.296875 167.94063Q69.0625 167.94063 68.34375 167.05Q67.5 165.9875 67.5 163.56563ZM68.578125 163.56563Q68.578125 165.675 69.078125 166.37813Q69.578125 167.08125 70.296875 167.08125Q71.03125 167.08125 71.515625 166.37813Q72.015625 165.675 72.015625 163.56563Q72.015625 161.44063 71.515625 160.75313Q71.03125 160.05 70.28125 160.05Q69.5625 160.05 69.125 160.65938Q68.578125 161.44063 68.578125 163.56563Z" fill-rule="nonzero"/><path fill="#000000" d="M62.125 130.54375Q61.46875 130.29375 61.140625 129.85625Q60.828125 129.40312 60.828125 128.79375Q60.828125 127.85625 61.5 127.21562Q62.1875 126.575 63.296875 126.575Q64.421875 126.575 65.109375 127.23125Q65.796875 127.8875 65.796875 128.825Q65.796875 129.41875 65.484375 129.85625Q65.171875 130.29375 64.53125 130.54375Q65.328125 130.79375 65.734375 131.37187Q66.140625 131.95 66.140625 132.74687Q66.140625 133.84062 65.359375 134.59062Q64.59375 135.34062 63.3125 135.34062Q62.046875 135.34062 61.265625 134.59062Q60.484375 133.84062 60.484375 132.71562Q60.484375 131.87187 60.90625 131.30937Q61.34375 130.74687 62.125 130.54375ZM61.90625 128.74687Q61.90625 129.35625 62.296875 129.74687Q62.703125 130.1375 63.328125 130.1375Q63.9375 130.1375 64.328125 129.7625Q64.71875 129.37187 64.71875 128.80937Q64.71875 128.23125 64.3125 127.84062Q63.90625 127.43437 63.3125 127.43437Q62.703125 127.43437 62.296875 127.825Q61.90625 128.21562 61.90625 128.74687ZM61.578125 132.71562Q61.578125 133.16875 61.78125 133.59062Q62.0 134.0125 62.421875 134.24687Q62.84375 134.48125 63.328125 134.48125Q64.078125 134.48125 64.5625 133.99687Q65.0625 133.5125 65.0625 132.7625Q65.0625 131.99687 64.5625 131.49687Q64.0625 130.99687 63.296875 130.99687Q62.546875 130.99687 62.0625 131.49687Q61.578125 131.98125 61.578125 132.71562ZM67.5 130.96562Q67.5 129.43437 67.8125 128.5125Q68.125 127.575 68.734375 127.075Q69.359375 126.575 70.296875 126.575Q70.984375 126.575 71.5 126.85625Q72.03125 127.1375 72.375 127.66875Q72.71875 128.18437 72.90625 128.93437Q73.09375 129.68437 73.09375 130.96562Q73.09375 132.48125 72.78125 133.40312Q72.484375 134.325 71.859375 134.84062Q71.25 135.34062 70.296875 135.34062Q69.0625 135.34062 68.34375 134.45Q67.5 133.3875 67.5 130.96562ZM68.578125 130.96562Q68.578125 133.075 69.078125 133.77812Q69.578125 134.48125 70.296875 134.48125Q71.03125 134.48125 71.515625 133.77812Q72.015625 133.075 72.015625 130.96562Q72.015625 128.84062 71.515625 128.15312Q71.03125 127.45 70.28125 127.45Q69.5625 127.45 69.125 128.05937Q68.578125 128.84062 68.578125 130.96562Z" fill-rule="nonzero"/><path fill="#000000" d="M60.65625 100.61562L61.671875 100.52187Q61.796875 101.24062 62.15625 101.56875Q62.53125 101.88125 63.09375 101.88125Q63.578125 101.88125 63.9375 101.6625Q64.3125 101.42812 64.546875 101.06875Q64.78125 100.69375 64.9375 100.06875Q65.09375 99.42812 65.09375 98.77187Q65.09375 98.69375 65.09375 98.55312Q64.78125 99.05312 64.234375 99.38125Q63.6875 99.69375 63.046875 99.69375Q61.96875 99.69375 61.234375 98.92812Q60.5 98.14687 60.5 96.88125Q60.5 95.56875 61.265625 94.77187Q62.046875 93.975 63.203125 93.975Q64.03125 93.975 64.71875 94.42812Q65.421875 94.88125 65.78125 95.725Q66.140625 96.55312 66.140625 98.13125Q66.140625 99.77187 65.78125 100.75625Q65.4375 101.725 64.71875 102.24062Q64.015625 102.74062 63.078125 102.74062Q62.0625 102.74062 61.421875 102.19375Q60.78125 101.63125 60.65625 100.61562ZM64.96875 96.81875Q64.96875 95.9125 64.484375 95.38125Q64.015625 94.85 63.328125 94.85Q62.625 94.85 62.09375 95.42812Q61.578125 95.99062 61.578125 96.9125Q61.578125 97.725 62.078125 98.24062Q62.578125 98.75625 63.296875 98.75625Q64.03125 98.75625 64.5 98.24062Q64.96875 97.725 64.96875 96.81875ZM67.5 98.36562Q67.5 96.83437 67.8125 95.9125Q68.125 94.975 68.734375 94.475Q69.359375 93.975 70.296875 93.975Q70.984375 93.975 71.5 94.25625Q72.03125 94.5375 72.375 95.06875Q72.71875 95.58437 72.90625 96.33437Q73.09375 97.08437 73.09375 98.36562Q73.09375 99.88125 72.78125 100.80312Q72.484375 101.725 71.859375 102.24062Q71.25 102.74062 70.296875 102.74062Q69.0625 102.74062 68.34375 101.85Q67.5 100.7875 67.5 98.36562ZM68.578125 98.36562Q68.578125 100.475 69.078125 101.17812Q69.578125 101.88125 70.296875 101.88125Q71.03125 101.88125 71.515625 101.17812Q72.015625 100.475 72.015625 98.36562Q72.015625 96.24062 71.515625 95.55312Q71.03125 94.85 70.28125 94.85Q69.5625 94.85 69.125 95.45937Q68.578125 96.24062 68.578125 98.36562Z" fill-rule="nonzero"/><path fill="#000000" d="M57.46875 70.0L56.421875 70.0L56.421875 63.28125Q56.03125 63.640625 55.40625 64.015625Q54.796875 64.375 54.3125 64.546875L54.3125 63.53125Q55.1875 63.109375 55.84375 62.53125Q56.515625 61.9375 56.796875 61.375L57.46875 61.375L57.46875 70.0ZM60.5 65.765625Q60.5 64.234375 60.8125 63.3125Q61.125 62.375 61.734375 61.875Q62.359375 61.375 63.296875 61.375Q63.984375 61.375 64.5 61.65625Q65.03125 61.9375 65.375 62.46875Q65.71875 62.984375 65.90625 63.734375Q66.09375 64.484375 66.09375 65.765625Q66.09375 67.28125 65.78125 68.203125Q65.484375 69.125 64.859375 69.640625Q64.25 70.140625 63.296875 70.140625Q62.0625 70.140625 61.34375 69.25Q60.5 68.1875 60.5 65.765625ZM61.578125 65.765625Q61.578125 67.875 62.078125 68.578125Q62.578125 69.28125 63.296875 69.28125Q64.03125 69.28125 64.515625 68.578125Q65.015625 67.875 65.015625 65.765625Q65.015625 63.640625 64.515625 62.953125Q64.03125 62.25 63.28125 62.25Q62.5625 62.25 62.125 62.859375Q61.578125 63.640625 61.578125 65.765625ZM67.5 65.765625Q67.5 64.234375 67.8125 63.3125Q68.125 62.375 68.734375 61.875Q69.359375 61.375 70.296875 61.375Q70.984375 61.375 71.5 61.65625Q72.03125 61.9375 72.375 62.46875Q72.71875 62.984375 72.90625 63.734375Q73.09375 64.484375 73.09375 65.765625Q73.09375 67.28125 72.78125 68.203125Q72.484375 69.125 71.859375 69.640625Q71.25 70.140625 70.296875 70.140625Q69.0625 70.140625 68.34375 69.25Q67.5 68.1875 67.5 65.765625ZM68.578125 65.765625Q68.578125 67.875 69.078125 68.578125Q69.578125 69.28125 70.296875 69.28125Q71.03125 69.28125 71.515625 68.578125Q72.015625 67.875 72.015625 65.765625Q72.015625 63.640625 71.515625 62.953125Q71.03125 62.25 70.28125 62.25Q69.5625 62.25 69.125 62.859375Q68.578125 63.640625 68.578125 65.765625Z" fill-rule="nonzero"/><path fill="#757575" d="M25.046875 40.0L21.25 25.6875L23.1875 25.6875L25.359375 35.0625Q25.71875 36.546875 25.96875 38.0Q26.515625 35.703125 26.609375 35.34375L29.34375 25.6875L31.625 25.6875L33.671875 32.921875Q34.453125 35.625 34.796875 38.0Q35.0625 36.640625 35.5 34.875L37.75 25.6875L39.65625 25.6875L35.734375 40.0L33.90625 40.0L30.890625 29.09375Q30.5 27.71875 30.4375 27.40625Q30.203125 28.390625 30.015625 29.09375L26.984375 40.0L25.046875 40.0ZM41.328125 27.703125L41.328125 25.6875L43.09375 25.6875L43.09375 27.703125L41.328125 27.703125ZM41.328125 40.0L41.328125 29.625L43.09375 29.625L43.09375 40.0L41.328125 40.0ZM45.3125 40.0L45.3125 29.625L46.90625 29.625L46.90625 31.109375Q48.046875 29.390625 50.203125 29.390625Q51.140625 29.390625 51.921875 29.734375Q52.71875 30.0625 53.109375 30.609375Q53.5 31.15625 53.65625 31.90625Q53.75 32.40625 53.75 33.625L53.75 40.0L51.984375 40.0L51.984375 33.6875Q51.984375 32.609375 51.78125 32.078125Q51.578125 31.546875 51.046875 31.234375Q50.53125 30.921875 49.828125 30.921875Q48.703125 30.921875 47.890625 31.640625Q47.078125 32.34375 47.078125 34.328125L47.078125 40.0L45.3125 40.0ZM59.15625 38.421875L59.40625 39.984375Q58.671875 40.140625 58.078125 40.140625Q57.125 40.140625 56.59375 39.84375Q56.078125 39.53125 55.859375 39.046875Q55.640625 38.546875 55.640625 36.96875L55.640625 31.0L54.359375 31.0L54.359375 29.625L55.640625 29.625L55.640625 27.0625L57.390625 26.0L57.390625 29.625L59.15625 29.625L59.15625 31.0L57.390625 31.0L57.390625 37.0625Q57.390625 37.8125 57.484375 38.03125Q57.578125 38.234375 57.78125 38.375Q58.0 38.5 58.390625 38.5Q58.671875 38.5 59.15625 38.421875ZM68.421875 36.65625L70.234375 36.890625Q69.8125 38.46875 68.640625 39.359375Q67.484375 40.234375 65.671875 40.234375Q63.40625 40.234375 62.0625 38.84375Q60.734375 37.4375 60.734375 34.90625Q60.734375 32.28125 62.078125 30.84375Q63.421875 29.390625 65.578125 29.390625Q67.65625 29.390625 68.96875 30.8125Q70.296875 32.21875 70.296875 34.796875Q70.296875 34.953125 70.28125 35.265625L62.546875 35.265625Q62.640625 36.96875 63.515625 37.875Q64.390625 38.78125 65.6875 38.78125Q66.65625 38.78125 67.328125 38.28125Q68.015625 37.765625 68.421875 36.65625ZM62.640625 33.8125L68.4375 33.8125Q68.328125 32.515625 67.78125 31.859375Q66.9375 30.84375 65.59375 30.84375Q64.390625 30.84375 63.5625 31.65625Q62.734375 32.453125 62.640625 33.8125ZM72.296875 40.0L72.296875 29.625L73.875 29.625L73.875 31.203125Q74.484375 30.09375 75.0 29.75Q75.515625 29.390625 76.125 29.390625Q77.015625 29.390625 77.9375 29.953125L77.328125 31.59375Q76.6875 31.203125 76.046875 31.203125Q75.46875 31.203125 75.0 31.5625Q74.546875 31.90625 74.34375 32.515625Q74.0625 33.453125 74.0625 34.5625L74.0625 40.0L72.296875 40.0Z" fill-rule="nonzero"/></svg>