<svg version="1.1" viewBox="0.0 0.0 680.0 420.0" fill="none" stroke="none" stroke-linecap="square" stroke-miterlimit="10" width="680" height="420" xmlns:xlink="http://www.w3.org/1999/xlink" xmlns="http://www.w3.org/2000/svg"><path fill="#ffffff" d="M0 0L680.0 0L680.0 420.0L0 420.0L0 0Z" fill-rule="nonzero"/><path stroke="#333333" stroke-width="1.0" stroke-linecap="butt" d="M80.5 392.5L659.5 392.5" fill-rule="nonzero"/><path stroke="#cccccc" stroke-width="1.0" stroke-linecap="butt" d="M80.5 359.5L659.5 359.5" fill-rule="nonzero"/><path stroke="#cccccc" stroke-width="1.0" stroke-linecap="butt" d="M80.5 326.5L659.5 326.5" fill-rule="nonzero"/><path stroke="#cccccc" stroke-width="1.0" stroke-linecap="butt" d="M80.5 294.5L659.5 294.5" fill-rule="nonzero"/><path stroke="#cccccc" stroke-width="1.0" stroke-linecap="butt" d="M80.5 261.5L659.5 261.5" fill-rule="nonzero"/><path stroke="#cccccc" stroke-width="1.0" stroke-linecap="butt" d="M80.5 229.5L659.5 229.5" fill-rule="nonzero"/><path stroke="#cccccc" stroke-width="1.0" stroke-linecap="butt" d="M80.5 196.5L659.5 196.5" fill-rule="nonzero"/><path stroke="#cccccc" stroke-width="1.0" stroke-linecap="butt" d="M80.5 163.5L659.5 163.5" fill-rule="nonzero"/><path stroke="#cccccc" stroke-width="1.0" stroke-linecap="butt" d="M80.5 131.5L659.5 131.5" fill-rule="nonzero"/><path stroke="#cccccc" stroke-width="1.0" stroke-linecap="butt" d="M80.5 98.5L659.5 98.5" fill-rule="nonzero"/><path stroke="#cccccc" stroke-width="1.0" stroke-linecap="butt" d="M80.5 66.5L659.5 66.5" fill-rule="nonzero"/><clipPath id="id_0"><path d="M80.0 66.0L659.0 66.0L659.0 392.0L80.0 392.0L80.0 66.0Z" clip-rule="nonzero"/></clipPath><path stroke="#434343" stroke-width="2.0" stroke-linecap="butt" clip-path="url(#id_0)" d="M88.041664 66.0L104.125 66.0L120.208336 66.0L136.29167 66.0L152.375 66.0L168.45833 66.0L184.54167 98.6L200.625 98.6L216.70833 98.6L232.79167 98.6L248.875 98.6L264.95834 98.6L281.04166 98.6L297.125 98.6L313.20834 120.333336L329.29166 120.333336L345.375 120.333336L361.45834 131.2L377.54166 131.2L393.625 131.2L409.70834 131.2L425.79166 147.5L441.875 152.93333L457.95834 152.93333L474.04166 180.1L490.125 196.4L506.20834 223.56667L522.2917 223.56667L538.375 239.86667L554.4583 283.33334L570.5417 326.8L586.625 326.8L602.7083 326.8L618.7917 370.26666L634.875 370.26666L650.9583 375.7" fill-rule="nonzero"/><path fill="#434343" clip-path="url(#id_0)" d="M94.041664 66.0C94.041664 69.313705 91.35538 72.0 88.041664 72.0C84.72796 72.0 82.041664 69.313705 82.041664 66.0C82.041664 62.68629 84.72796 60.0 88.041664 60.0C91.35538 60.0 94.041664 62.68629 94.041664 66.0Z" fill-rule="nonzero"/><path fill="#434343" clip-path="url(#id_0)" d="M110.125 66.0C110.125 69.313705 107.438705 72.0 104.125 72.0C100.811295 72.0 98.125 69.313705 98.125 66.0C98.125 62.68629 100.811295 60.0 104.125 60.0C107.438705 60.0 110.125 62.68629 110.125 66.0Z" fill-rule="nonzero"/><path fill="#434343" clip-path="url(#id_0)" d="M126.208336 66.0C126.208336 69.313705 123.52204 72.0 120.208336 72.0C116.89462 72.0 114.208336 69.313705 114.208336 66.0C114.208336 62.68629 116.89462 60.0 120.208336 60.0C123.52204 60.0 126.208336 62.68629 126.208336 66.0Z" fill-rule="nonzero"/><path fill="#434343" clip-path="url(#id_0)" d="M142.29167 66.0C142.29167 69.313705 139.60538 72.0 136.29167 72.0C132.97795 72.0 130.29167 69.313705 130.29167 66.0C130.29167 62.68629 132.97795 60.0 136.29167 60.0C139.60538 60.0 142.29167 62.68629 142.29167 66.0Z" fill-rule="nonzero"/><path fill="#434343" clip-path="url(#id_0)" d="M158.375 66.0C158.375 69.313705 155.6887 72.0 152.375 72.0C149.0613 72.0 146.375 69.313705 146.375 66.0C146.375 62.68629 149.0613 60.0 152.375 60.0C155.6887 60.0 158.375 62.68629 158.375 66.0Z" fill-rule="nonzero"/><path fill="#434343" clip-path="url(#id_0)" d="M174.45833 66.0C174.45833 69.313705 171.77205 72.0 168.45833 72.0C165.14462 72.0 162.45833 69.313705 162.45833 66.0C162.45833 62.68629 165.14462 60.0 168.45833 60.0C171.77205 60.0 174.45833 62.68629 174.45833 66.0Z" fill-rule="nonzero"/><path fill="#434343" clip-path="url(#id_0)" d="M190.54167 98.6C190.54167 101.91371 187.85538 104.6 184.54167 104.6C181.22795 104.6 178.54167 101.91371 178.54167 98.6C178.54167 95.28629 181.22795 92.6 184.54167 92.6C187.85538 92.6 190.54167 95.28629 190.54167 98.6Z" fill-rule="nonzero"/><path fill="#434343" clip-path="url(#id_0)" d="M206.625 98.6C206.625 101.91371 203.9387 104.6 200.625 104.6C197.3113 104.6 194.625 101.91371 194.625 98.6C194.625 95.28629 197.3113 92.6 200.625 92.6C203.9387 92.6 206.625 95.28629 206.625 98.6Z" fill-rule="nonzero"/><path fill="#434343" clip-path="url(#id_0)" d="M222.70833 98.6C222.70833 101.91371 220.02205 104.6 216.70833 104.6C213.39462 104.6 210.70833 101.91371 210.70833 98.6C210.70833 95.28629 213.39462 92.6 216.70833 92.6C220.02205 92.6 222.70833 95.28629 222.70833 98.6Z" fill-rule="nonzero"/><path fill="#434343" clip-path="url(#id_0)" d="M238.79167 98.6C238.79167 101.91371 236.10538 104.6 232.79167 104.6C229.47795 104.6 226.79167 101.91371 226.79167 98.6C226.79167 95.28629 229.47795 92.6 232.79167 92.6C236.10538 92.6 238.79167 95.28629 238.79167 98.6Z" fill-rule="nonzero"/><path fill="#434343" clip-path="url(#id_0)" d="M254.875 98.6C254.875 101.91371 252.1887 104.6 248.875 104.6C245.5613 104.6 242.875 101.91371 242.875 98.6C242.875 95.28629 245.5613 92.6 248.875 92.6C252.1887 92.6 254.875 95.28629 254.875 98.6Z" fill-rule="nonzero"/><path fill="#434343" clip-path="url(#id_0)" d="M270.95834 98.6C270.95834 101.91371 268.27203 104.6 264.95834 104.6C261.64462 104.6 258.95834 101.91371 258.95834 98.6C258.95834 95.28629 261.64462 92.6 264.95834 92.6C268.27203 92.6 270.95834 95.28629 270.95834 98.6Z" fill-rule="nonzero"/><path fill="#434343" clip-path="url(#id_0)" d="M287.04166 98.6C287.04166 101.91371 284.35538 104.6 281.04166 104.6C277.72797 104.6 275.04166 101.91371 275.04166 98.6C275.04166 95.28629 277.72797 92.6 281.04166 92.6C284.35538 92.6 287.04166 95.28629 287.04166 98.6Z" fill-rule="nonzero"/><path fill="#434343" clip-path="url(#id_0)" d="M303.125 98.6C303.125 101.91371 300.43872 104.6 297.125 104.6C293.81128 104.6 291.125 101.91371 291.125 98.6C291.125 95.28629 293.81128 92.6 297.125 92.6C300.43872 92.6 303.125 95.28629 303.125 98.6Z" fill-rule="nonzero"/><path fill="#434343" clip-path="url(#id_0)" d="M319.20834 120.333336C319.20834 123.64704 316.52203 126.333336 313.20834 126.333336C309.89462 126.333336 307.20834 123.64704 307.20834 120.333336C307.20834 117.01962 309.89462 114.333336 313.20834 114.333336C316.52203 114.333336 319.20834 117.01962 319.20834 120.333336Z" fill-rule="nonzero"/><path fill="#434343" clip-path="url(#id_0)" d="M335.29166 120.333336C335.29166 123.64704 332.60538 126.333336 329.29166 126.333336C325.97797 126.333336 323.29166 123.64704 323.29166 120.333336C323.29166 117.01962 325.97797 114.333336 329.29166 114.333336C332.60538 114.333336 335.29166 117.01962 335.29166 120.333336Z" fill-rule="nonzero"/><path fill="#434343" clip-path="url(#id_0)" d="M351.375 120.333336C351.375 123.64704 348.68872 126.333336 345.375 126.333336C342.06128 126.333336 339.375 123.64704 339.375 120.333336C339.375 117.01962 342.06128 114.333336 345.375 114.333336C348.68872 114.333336 351.375 117.01962 351.375 120.333336Z" fill-rule="nonzero"/><path fill="#434343" clip-path="url(#id_0)" d="M367.45834 131.2C367.45834 134.5137 364.77203 137.2 361.45834 137.2C358.14462 137.2 355.45834 134.5137 355.45834 131.2C355.45834 127.88629 358.14462 125.2 361.45834 125.2C364.77203 125.2 367.45834 127.88629 367.45834 131.2Z" fill-rule="nonzero"/><path fill="#434343" clip-path="url(#id_0)" d="M383.54166 131.2C383.54166 134.5137 380.85538 137.2 377.54166 137.2C374.22797 137.2 371.54166 134.5137 371.54166 131.2C371.54166 127.88629 374.22797 125.2 377.54166 125.2C380.85538 125.2 383.54166 127.88629 383.54166 131.2Z" fill-rule="nonzero"/><path fill="#434343" clip-path="url(#id_0)" d="M399.625 131.2C399.625 134.5137 396.93872 137.2 393.625 137.2C390.31128 137.2 387.625 134.5137 387.625 131.2C387.625 127.88629 390.31128 125.2 393.625 125.2C396.93872 125.2 399.625 127.88629 399.625 131.2Z" fill-rule="nonzero"/><path fill="#434343" clip-path="url(#id_0)" d="M415.70834 131.2C415.70834 134.5137 413.02203 137.2 409.70834 137.2C406.39462 137.2 403.70834 134.5137 403.70834 131.2C403.70834 127.88629 406.39462 125.2 409.70834 125.2C413.02203 125.2 415.70834 127.88629 415.70834 131.2Z" fill-rule="nonzero"/><path fill="#434343" clip-path="url(#id_0)" d="M431.79166 147.5C431.79166 150.8137 429.10538 153.5 425.79166 153.5C422.47797 153.5 419.79166 150.8137 419.79166 147.5C419.79166 144.1863 422.47797 141.5 425.79166 141.5C429.10538 141.5 431.79166 144.1863 431.79166 147.5Z" fill-rule="nonzero"/><path fill="#434343" clip-path="url(#id_0)" d="M447.875 152.93333C447.875 156.24704 445.18872 158.93333 441.875 158.93333C438.56128 158.93333 435.875 156.24704 435.875 152.93333C435.875 149.61963 438.56128 146.93333 441.875 146.93333C445.18872 146.93333 447.875 149.61963 447.875 152.93333Z" fill-rule="nonzero"/><path fill="#434343" clip-path="url(#id_0)" d="M463.95834 152.93333C463.95834 156.24704 461.27203 158.93333 457.95834 158.93333C454.64462 158.93333 451.95834 156.24704 451.95834 152.93333C451.95834 149.61963 454.64462 146.93333 457.95834 146.93333C461.27203 146.93333 463.95834 149.61963 463.95834 152.93333Z" fill-rule="nonzero"/><path fill="#434343" clip-path="url(#id_0)" d="M480.04166 180.1C480.04166 183.41371 477.35538 186.1 474.04166 186.1C470.72797 186.1 468.04166 183.41371 468.04166 180.1C468.04166 176.78629 470.72797 174.1 474.04166 174.1C477.35538 174.1 480.04166 176.78629 480.04166 180.1Z" fill-rule="nonzero"/><path fill="#434343" clip-path="url(#id_0)" d="M496.125 196.4C496.125 199.71371 493.43872 202.4 490.125 202.4C486.81128 202.4 484.125 199.71371 484.125 196.4C484.125 193.08629 486.81128 190.4 490.125 190.4C493.43872 190.4 496.125 193.08629 496.125 196.4Z" fill-rule="nonzero"/><path fill="#434343" clip-path="url(#id_0)" d="M512.2083 223.56667C512.2083 226.88037 509.52203 229.56667 506.20834 229.56667C502.89462 229.56667 500.20834 226.88037 500.20834 223.56667C500.20834 220.25296 502.89462 217.56667 506.20834 217.56667C509.52203 217.56667 512.2083 220.25296 512.2083 223.56667Z" fill-rule="nonzero"/><path fill="#434343" clip-path="url(#id_0)" d="M528.2917 223.56667C528.2917 226.88037 525.60535 229.56667 522.2917 229.56667C518.97797 229.56667 516.2917 226.88037 516.2917 223.56667C516.2917 220.25296 518.97797 217.56667 522.2917 217.56667C525.60535 217.56667 528.2917 220.25296 528.2917 223.56667Z" fill-rule="nonzero"/><path fill="#434343" clip-path="url(#id_0)" d="M544.375 239.86667C544.375 243.18037 541.6887 245.86667 538.375 245.86667C535.0613 245.86667 532.375 243.18037 532.375 239.86667C532.375 236.55296 535.0613 233.86667 538.375 233.86667C541.6887 233.86667 544.375 236.55296 544.375 239.86667Z" fill-rule="nonzero"/><path fill="#434343" clip-path="url(#id_0)" d="M560.4583 283.33334C560.4583 286.64703 557.77203 289.33334 554.4583 289.33334C551.14465 289.33334 548.4583 286.64703 548.4583 283.33334C548.4583 280.01962 551.14465 277.33334 554.4583 277.33334C557.77203 277.33334 560.4583 280.01962 560.4583 283.33334Z" fill-rule="nonzero"/><path fill="#434343" clip-path="url(#id_0)" d="M576.5417 326.8C576.5417 330.1137 573.85535 332.8 570.5417 332.8C567.22797 332.8 564.5417 330.1137 564.5417 326.8C564.5417 323.4863 567.22797 320.8 570.5417 320.8C573.85535 320.8 576.5417 323.4863 576.5417 326.8Z" fill-rule="nonzero"/><path fill="#434343" clip-path="url(#id_0)" d="M592.625 326.8C592.625 330.1137 589.9387 332.8 586.625 332.8C583.3113 332.8 580.625 330.1137 580.625 326.8C580.625 323.4863 583.3113 320.8 586.625 320.8C589.9387 320.8 592.625 323.4863 592.625 326.8Z" fill-rule="nonzero"/><path fill="#434343" clip-path="url(#id_0)" d="M608.7083 326.8C608.7083 330.1137 606.02203 332.8 602.7083 332.8C599.39465 332.8 596.7083 330.1137 596.7083 326.8C596.7083 323.4863 599.39465 320.8 602.7083 320.8C606.02203 320.8 608.7083 323.4863 608.7083 326.8Z" fill-rule="nonzero"/><path fill="#434343" clip-path="url(#id_0)" d="M624.7917 370.26666C624.7917 373.58038 622.10535 376.26666 618.7917 376.26666C615.47797 376.26666 612.7917 373.58038 612.7917 370.26666C612.7917 366.95297 615.47797 364.26666 618.7917 364.26666C622.10535 364.26666 624.7917 366.95297 624.7917 370.26666Z" fill-rule="nonzero"/><path fill="#434343" clip-path="url(#id_0)" d="M640.875 370.26666C640.875 373.58038 638.1887 376.26666 634.875 376.26666C631.5613 376.26666 628.875 373.58038 628.875 370.26666C628.875 366.95297 631.5613 364.26666 634.875 364.26666C638.1887 364.26666 640.875 366.95297 640.875 370.26666Z" fill-rule="nonzero"/><path fill="#434343" clip-path="url(#id_0)" d="M656.9583 375.7C656.9583 379.0137 654.27203 381.7 650.9583 381.7C647.64465 381.7 644.9583 379.0137 644.9583 375.7C644.9583 372.3863 647.64465 369.7 650.9583 369.7C654.27203 369.7 656.9583 372.3863 656.9583 375.7Z" fill-rule="nonzero"/><path fill="#000000" d="M29.234375 244.45312L29.140625 243.39062Q29.796875 243.3125 30.203125 243.03125Q30.609375 242.75 30.875 242.17188Q31.125 241.57812 31.125 240.84375Q31.125 240.20312 30.9375 239.70312Q30.734375 239.20312 30.40625 238.96875Q30.0625 238.71875 29.671875 238.71875Q29.265625 238.71875 28.96875 238.95312Q28.65625 239.1875 28.453125 239.71875Q28.3125 240.07812 28.03125 241.26562Q27.75 242.4375 27.5 242.90625Q27.171875 243.53125 26.703125 243.82812Q26.21875 244.125 25.625 244.125Q24.984375 244.125 24.421875 243.76562Q23.84375 243.39062 23.5625 242.6875Q23.265625 241.96875 23.265625 241.10938Q23.265625 240.15625 23.578125 239.42188Q23.875 238.6875 24.484375 238.29688Q25.078125 237.90625 25.828125 237.875L25.90625 238.96875Q25.09375 239.0625 24.6875 239.57812Q24.265625 240.07812 24.265625 241.0625Q24.265625 242.09375 24.640625 242.5625Q25.015625 243.03125 25.546875 243.03125Q26.015625 243.03125 26.3125 242.70312Q26.609375 242.375 26.921875 241.0Q27.234375 239.60938 27.46875 239.09375Q27.828125 238.34375 28.359375 237.98438Q28.875 237.625 29.578125 237.625Q30.265625 237.625 30.875 238.01562Q31.46875 238.40625 31.8125 239.14062Q32.140625 239.875 32.140625 240.79688Q32.140625 241.96875 31.8125 242.76562Q31.46875 243.54688 30.78125 244.0Q30.09375 244.4375 29.234375 244.45312ZM29.71875 232.14062L29.859375 231.10938Q30.921875 231.28125 31.53125 231.98438Q32.140625 232.6875 32.140625 233.70312Q32.140625 234.98438 31.3125 235.76562Q30.46875 236.53125 28.90625 236.53125Q27.90625 236.53125 27.15625 236.20312Q26.390625 235.85938 26.015625 235.1875Q25.640625 234.5 25.640625 233.6875Q25.640625 232.6875 26.15625 232.04688Q26.65625 231.39062 27.609375 231.20312L27.765625 232.23438Q27.140625 232.375 26.828125 232.75Q26.5 233.125 26.5 233.65625Q26.5 234.45312 27.078125 234.95312Q27.640625 235.45312 28.875 235.45312Q30.140625 235.45312 30.703125 234.96875Q31.265625 234.48438 31.265625 233.71875Q31.265625 233.09375 30.890625 232.6875Q30.515625 232.26562 29.71875 232.14062ZM28.890625 230.59375Q27.15625 230.59375 26.328125 229.64062Q25.640625 228.84375 25.640625 227.6875Q25.640625 226.40625 26.484375 225.59375Q27.3125 224.76562 28.796875 224.76562Q30.0 224.76562 30.6875 225.125Q31.375 225.48438 31.765625 226.1875Q32.140625 226.875 32.140625 227.6875Q32.140625 228.98438 31.3125 229.79688Q30.46875 230.59375 28.890625 230.59375ZM28.890625 229.51562Q30.078125 229.51562 30.671875 229.0Q31.265625 228.46875 31.265625 227.6875Q31.265625 226.89062 30.671875 226.375Q30.078125 225.85938 28.859375 225.85938Q27.703125 225.85938 27.109375 226.39062Q26.515625 226.90625 26.515625 227.6875Q26.515625 228.46875 27.109375 229.0Q27.6875 229.51562 28.890625 229.51562ZM32.0 223.21875L25.78125 223.21875L25.78125 222.26562L26.71875 222.26562Q26.0625 221.90625 25.859375 221.60938Q25.640625 221.29688 25.640625 220.92188Q25.640625 220.39062 25.96875 219.84375L26.953125 220.20312Q26.71875 220.59375 26.71875 220.96875Q26.71875 221.32812 26.9375 221.60938Q27.140625 221.875 27.515625 221.98438Q28.078125 222.17188 28.734375 222.17188L32.0 222.17188L32.0 223.21875ZM30.0 214.95312L30.125 213.85938Q31.078125 214.10938 31.609375 214.8125Q32.140625 215.51562 32.140625 216.59375Q32.140625 217.95312 31.296875 218.76562Q30.453125 219.5625 28.9375 219.5625Q27.375 219.5625 26.515625 218.75Q25.640625 217.9375 25.640625 216.65625Q25.640625 215.40625 26.484375 214.625Q27.328125 213.82812 28.875 213.82812Q28.96875 213.82812 29.15625 213.82812L29.15625 218.46875Q30.1875 218.40625 30.734375 217.89062Q31.265625 217.375 31.265625 216.59375Q31.265625 216.01562 30.96875 215.60938Q30.65625 215.1875 30.0 214.95312ZM28.296875 218.40625L28.296875 214.9375Q27.5 215.0 27.109375 215.32812Q26.5 215.84375 26.5 216.64062Q26.5 217.375 26.984375 217.875Q27.46875 218.35938 28.296875 218.40625Z" fill-rule="nonzero"/><path fill="#000000" d="M67.5 391.76562Q67.5 390.23438 67.8125 389.3125Q68.125 388.375 68.734375 387.875Q69.359375 387.375 70.296875 387.375Q70.984375 387.375 71.5 387.65625Q72.03125 387.9375 72.375 388.46875Q72.71875 388.98438 72.90625 389.73438Q73.09375 390.48438 73.09375 391.76562Q73.09375 393.28125 72.78125 394.20312Q72.484375 395.125 71.859375 395.64062Q71.25 396.14062 70.296875 396.14062Q69.0625 396.14062 68.34375 395.25Q67.5 394.1875 67.5 391.76562ZM68.578125 391.76562Q68.578125 393.875 69.078125 394.57812Q69.578125 395.28125 70.296875 395.28125Q71.03125 395.28125 71.515625 394.57812Q72.015625 393.875 72.015625 391.76562Q72.015625 389.64062 71.515625 388.95312Q71.03125 388.25 70.28125 388.25Q69.5625 388.25 69.125 388.85938Q68.578125 389.64062 68.578125 391.76562Z" fill-rule="nonzero"/><path fill="#000000" d="M60.5 361.13437L61.5625 360.99374Q61.734375 361.88437 62.171875 362.29062Q62.609375 362.68124 63.234375 362.68124Q63.984375 362.68124 64.5 362.16562Q65.015625 361.65 65.015625 360.88437Q65.015625 360.16562 64.53125 359.69687Q64.0625 359.2125 63.328125 359.2125Q63.03125 359.2125 62.578125 359.3375L62.703125 358.4Q62.8125 358.41562 62.875 358.41562Q63.546875 358.41562 64.078125 358.07187Q64.625 357.7125 64.625 356.97812Q64.625 356.4 64.234375 356.025Q63.84375 355.63437 63.21875 355.63437Q62.609375 355.63437 62.1875 356.025Q61.78125 356.41562 61.671875 357.18124L60.609375 356.99374Q60.796875 355.94687 61.484375 355.36874Q62.171875 354.775 63.1875 354.775Q63.890625 354.775 64.484375 355.0875Q65.078125 355.38437 65.390625 355.9Q65.703125 356.41562 65.703125 357.00937Q65.703125 357.55624 65.40625 358.025Q65.109375 358.47812 64.53125 358.74374Q65.28125 358.91562 65.703125 359.47812Q66.125 360.025 66.125 360.86874Q66.125 361.99374 65.296875 362.775Q64.484375 363.55624 63.234375 363.55624Q62.109375 363.55624 61.359375 362.88437Q60.609375 362.19687 60.5 361.13437ZM67.5 359.16562Q67.5 357.63437 67.8125 356.7125Q68.125 355.775 68.734375 355.275Q69.359375 354.775 70.296875 354.775Q70.984375 354.775 71.5 355.05624Q72.03125 355.3375 72.375 355.86874Q72.71875 356.38437 72.90625 357.13437Q73.09375 357.88437 73.09375 359.16562Q73.09375 360.68124 72.78125 361.60312Q72.484375 362.525 71.859375 363.04062Q71.25 363.54062 70.296875 363.54062Q69.0625 363.54062 68.34375 362.65Q67.5 361.5875 67.5 359.16562ZM68.578125 359.16562Q68.578125 361.275 69.078125 361.97812Q69.578125 362.68124 70.296875 362.68124Q71.03125 362.68124 71.515625 361.97812Q72.015625 361.275 72.015625 359.16562Q72.015625 357.04062 71.515625 356.35312Q71.03125 355.65 70.28125 355.65Q69.5625 355.65 69.125 356.25937Q68.578125 357.04062 68.578125 359.16562Z" fill-rule="nonzero"/><path fill="#000000" d="M65.96875 324.3156L64.921875 324.39374Q64.78125 323.76874 64.53125 323.4875Q64.09375 323.03436 63.46875 323.03436Q62.96875 323.03436 62.578125 323.3156Q62.09375 323.6906 61.796875 324.39374Q61.515625 325.08124 61.5 326.3625Q61.875 325.78436 62.421875 325.5031Q62.984375 325.22186 63.59375 325.22186Q64.640625 325.22186 65.375 326.0031Q66.125 326.78436 66.125 328.0031Q66.125 328.8156 65.765625 329.51874Q65.421875 330.20624 64.8125 330.58124Q64.203125 330.9406 63.4375 330.9406Q62.109375 330.9406 61.28125 329.97186Q60.453125 329.0031 60.453125 326.78436Q60.453125 324.28436 61.375 323.15936Q62.171875 322.175 63.53125 322.175Q64.546875 322.175 65.1875 322.7531Q65.84375 323.3156 65.96875 324.3156ZM61.671875 328.01874Q61.671875 328.5656 61.890625 329.0656Q62.125 329.55 62.53125 329.8156Q62.953125 330.08124 63.421875 330.08124Q64.078125 330.08124 64.5625 329.55Q65.046875 329.0031 65.046875 328.08124Q65.046875 327.1906 64.5625 326.675Q64.09375 326.15936 63.375 326.15936Q62.65625 326.15936 62.15625 326.675Q61.671875 327.1906 61.671875 328.01874ZM67.5 326.5656Q67.5 325.03436 67.8125 324.1125Q68.125 323.175 68.734375 322.675Q69.359375 322.175 70.296875 322.175Q70.984375 322.175 71.5 322.45624Q72.03125 322.7375 72.375 323.26874Q72.71875 323.78436 72.90625 324.53436Q73.09375 325.28436 73.09375 326.5656Q73.09375 328.08124 72.78125 329.0031Q72.484375 329.925 71.859375 330.4406Q71.25 330.9406 70.296875 330.9406Q69.0625 330.9406 68.34375 330.05Q67.5 328.9875 67.5 326.5656ZM68.578125 326.5656Q68.578125 328.675 69.078125 329.3781Q69.578125 330.08124 70.296875 330.08124Q71.03125 330.08124 71.515625 329.3781Q72.015625 328.675 72.015625 326.5656Q72.015625 324.4406 71.515625 323.7531Q71.03125 323.05 70.28125 323.05Q69.5625 323.05 69.125 323.65936Q68.578125 324.4406 68.578125 326.5656Z" fill-rule="nonzero"/><path fill="#000000" d="M60.65625 296.21564L61.671875 296.1219Q61.796875 296.84064 62.15625 297.16876Q62.53125 297.48126 63.09375 297.48126Q63.578125 297.48126 63.9375 297.2625Q64.3125 297.02814 64.546875 296.66876Q64.78125 296.29376 64.9375 295.66876Q65.09375 295.02814 65.09375 294.3719Q65.09375 294.29376 65.09375 294.15314Q64.78125 294.65314 64.234375 294.98126Q63.6875 295.29376 63.046875 295.29376Q61.96875 295.29376 61.234375 294.52814Q60.5 293.7469 60.5 292.48126Q60.5 291.16876 61.265625 290.3719Q62.046875 289.575 63.203125 289.575Q64.03125 289.575 64.71875 290.02814Q65.421875 290.48126 65.78125 291.325Q66.140625 292.15314 66.140625 293.73126Q66.140625 295.3719 65.78125 296.35626Q65.4375 297.325 64.71875 297.84064Q64.015625 298.34064 63.078125 298.34064Q62.0625 298.34064 61.421875 297.79376Q60.78125 297.23126 60.65625 296.21564ZM64.96875 292.41876Q64.96875 291.5125 64.484375 290.98126Q64.015625 290.45 63.328125 290.45Q62.625 290.45 62.09375 291.02814Q61.578125 291.59064 61.578125 292.5125Q61.578125 293.325 62.078125 293.84064Q62.578125 294.35626 63.296875 294.35626Q64.03125 294.35626 64.5 293.84064Q64.96875 293.325 64.96875 292.41876ZM67.5 293.96564Q67.5 292.4344 67.8125 291.5125Q68.125 290.575 68.734375 290.075Q69.359375 289.575 70.296875 289.575Q70.984375 289.575 71.5 289.85626Q72.03125 290.1375 72.375 290.66876Q72.71875 291.1844 72.90625 291.9344Q73.09375 292.6844 73.09375 293.96564Q73.09375 295.48126 72.78125 296.40314Q72.484375 297.325 71.859375 297.84064Q71.25 298.34064 70.296875 298.34064Q69.0625 298.34064 68.34375 297.45Q67.5 296.3875 67.5 293.96564ZM68.578125 293.96564Q68.578125 296.075 69.078125 296.77814Q69.578125 297.48126 70.296875 297.48126Q71.03125 297.48126 71.515625 296.77814Q72.015625 296.075 72.015625 293.96564Q72.015625 291.84064 71.515625 291.15314Q71.03125 290.45 70.28125 290.45Q69.5625 290.45 69.125 291.0594Q68.578125 291.84064 68.578125 293.96564Z" fill-rule="nonzero"/><path fill="#000000" d="M57.46875 265.6L56.421875 265.6L56.421875 258.88126Q56.03125 259.24063 55.40625 259.61563Q54.796875 259.975 54.3125 260.14688L54.3125 259.13126Q55.1875 258.70938 55.84375 258.13126Q56.515625 257.5375 56.796875 256.975L57.46875 256.975L57.46875 265.6ZM66.046875 264.58438L66.046875 265.6L60.359375 265.6Q60.359375 265.225 60.484375 264.86563Q60.703125 264.2875 61.171875 263.725Q61.65625 263.1625 62.5625 262.42813Q63.96875 261.27188 64.453125 260.6Q64.953125 259.92813 64.953125 259.33438Q64.953125 258.70938 64.5 258.2875Q64.046875 257.85 63.328125 257.85Q62.5625 257.85 62.109375 258.30313Q61.65625 258.75626 61.640625 259.56876L60.5625 259.45938Q60.671875 258.24063 61.390625 257.61563Q62.125 256.975 63.359375 256.975Q64.59375 256.975 65.3125 257.6625Q66.03125 258.35 66.03125 259.36563Q66.03125 259.88126 65.8125 260.38126Q65.609375 260.86563 65.109375 261.42813Q64.625 261.975 63.5 262.92813Q62.546875 263.725 62.265625 264.02188Q62.0 264.30313 61.828125 264.58438L66.046875 264.58438ZM67.5 261.36563Q67.5 259.83438 67.8125 258.9125Q68.125 257.975 68.734375 257.475Q69.359375 256.975 70.296875 256.975Q70.984375 256.975 71.5 257.25626Q72.03125 257.5375 72.375 258.06876Q72.71875 258.58438 72.90625 259.33438Q73.09375 260.08438 73.09375 261.36563Q73.09375 262.88126 72.78125 263.80313Q72.484375 264.725 71.859375 265.24063Q71.25 265.74063 70.296875 265.74063Q69.0625 265.74063 68.34375 264.85Q67.5 263.7875 67.5 261.36563ZM68.578125 261.36563Q68.578125 263.475 69.078125 264.17813Q69.578125 264.88126 70.296875 264.88126Q71.03125 264.88126 71.515625 264.17813Q72.015625 263.475 72.015625 261.36563Q72.015625 259.24063 71.515625 258.55313Q71.03125 257.85 70.28125 257.85Q69.5625 257.85 69.125 258.45938Q68.578125 259.24063 68.578125 261.36563Z" fill-rule="nonzero"/><path fill="#000000" d="M57.46875 233.0L56.421875 233.0L56.421875 226.28125Q56.03125 226.64062 55.40625 227.01562Q54.796875 227.375 54.3125 227.54688L54.3125 226.53125Q55.1875 226.10938 55.84375 225.53125Q56.515625 224.9375 56.796875 224.375L57.46875 224.375L57.46875 233.0ZM60.5 230.75L61.609375 230.65625Q61.734375 231.46875 62.171875 231.875Q62.625 232.28125 63.265625 232.28125Q64.015625 232.28125 64.546875 231.70312Q65.078125 231.125 65.078125 230.1875Q65.078125 229.28125 64.5625 228.76562Q64.0625 228.23438 63.234375 228.23438Q62.734375 228.23438 62.3125 228.46875Q61.90625 228.70312 61.671875 229.0625L60.6875 228.9375L61.515625 224.53125L65.796875 224.53125L65.796875 225.53125L62.359375 225.53125L61.90625 227.84375Q62.671875 227.29688 63.515625 227.29688Q64.640625 227.29688 65.40625 228.07812Q66.1875 228.85938 66.1875 230.09375Q66.1875 231.25 65.515625 232.10938Q64.6875 233.14062 63.265625 233.14062Q62.09375 233.14062 61.34375 232.48438Q60.609375 231.82812 60.5 230.75ZM67.5 228.76562Q67.5 227.23438 67.8125 226.3125Q68.125 225.375 68.734375 224.875Q69.359375 224.375 70.296875 224.375Q70.984375 224.375 71.5 224.65625Q72.03125 224.9375 72.375 225.46875Q72.71875 225.98438 72.90625 226.73438Q73.09375 227.48438 73.09375 228.76562Q73.09375 230.28125 72.78125 231.20312Q72.484375 232.125 71.859375 232.64062Q71.25 233.14062 70.296875 233.14062Q69.0625 233.14062 68.34375 232.25Q67.5 231.1875 67.5 228.76562ZM68.578125 228.76562Q68.578125 230.875 69.078125 231.57812Q69.578125 232.28125 70.296875 232.28125Q71.03125 232.28125 71.515625 231.57812Q72.015625 230.875 72.015625 228.76562Q72.015625 226.64062 71.515625 225.95312Q71.03125 225.25 70.28125 225.25Q69.5625 225.25 69.125 225.85938Q68.578125 226.64062 68.578125 228.76562Z" fill-rule="nonzero"/><path fill="#000000" d="M57.46875 200.4L56.421875 200.4L56.421875 193.68124Q56.03125 194.04062 55.40625 194.41562Q54.796875 194.775 54.3125 194.94687L54.3125 193.93124Q55.1875 193.50937 55.84375 192.93124Q56.515625 192.3375 56.796875 191.775L57.46875 191.775L57.46875 200.4ZM62.125 195.74374Q61.46875 195.49374 61.140625 195.05624Q60.828125 194.60312 60.828125 193.99374Q60.828125 193.05624 61.5 192.41562Q62.1875 191.775 63.296875 191.775Q64.421875 191.775 65.109375 192.43124Q65.796875 193.0875 65.796875 194.025Q65.796875 194.61874 65.484375 195.05624Q65.171875 195.49374 64.53125 195.74374Q65.328125 195.99374 65.734375 196.57187Q66.140625 197.15 66.140625 197.94687Q66.140625 199.04062 65.359375 199.79062Q64.59375 200.54062 63.3125 200.54062Q62.046875 200.54062 61.265625 199.79062Q60.484375 199.04062 60.484375 197.91562Q60.484375 197.07187 60.90625 196.50937Q61.34375 195.94687 62.125 195.74374ZM61.90625 193.94687Q61.90625 194.55624 62.296875 194.94687Q62.703125 195.3375 63.328125 195.3375Q63.9375 195.3375 64.328125 194.9625Q64.71875 194.57187 64.71875 194.00937Q64.71875 193.43124 64.3125 193.04062Q63.90625 192.63437 63.3125 192.63437Q62.703125 192.63437 62.296875 193.025Q61.90625 193.41562 61.90625 193.94687ZM61.578125 197.91562Q61.578125 198.36874 61.78125 198.79062Q62.0 199.2125 62.421875 199.44687Q62.84375 199.68124 63.328125 199.68124Q64.078125 199.68124 64.5625 199.19687Q65.0625 198.7125 65.0625 197.9625Q65.0625 197.19687 64.5625 196.69687Q64.0625 196.19687 63.296875 196.19687Q62.546875 196.19687 62.0625 196.69687Q61.578125 197.18124 61.578125 197.91562ZM67.5 196.16562Q67.5 194.63437 67.8125 193.7125Q68.125 192.775 68.734375 192.275Q69.359375 191.775 70.296875 191.775Q70.984375 191.775 71.5 192.05624Q72.03125 192.3375 72.375 192.86874Q72.71875 193.38437 72.90625 194.13437Q73.09375 194.88437 73.09375 196.16562Q73.09375 197.68124 72.78125 198.60312Q72.484375 199.525 71.859375 200.04062Q71.25 200.54062 70.296875 200.54062Q69.0625 200.54062 68.34375 199.65Q67.5 198.5875 67.5 196.16562ZM68.578125 196.16562Q68.578125 198.275 69.078125 198.97812Q69.578125 199.68124 70.296875 199.68124Q71.03125 199.68124 71.515625 198.97812Q72.015625 198.275 72.015625 196.16562Q72.015625 194.04062 71.515625 193.35312Q71.03125 192.65 70.28125 192.65Q69.5625 192.65 69.125 193.25937Q68.578125 194.04062 68.578125 196.16562Z" fill-rule="nonzero"/><path fill="#000000" d="M59.046875 166.78438L59.046875 167.8L53.359375 167.8Q53.359375 167.425 53.484375 167.06563Q53.703125 166.4875 54.171875 165.925Q54.65625 165.3625 55.5625 164.62813Q56.96875 163.47188 57.453125 162.8Q57.953125 162.12813 57.953125 161.53438Q57.953125 160.90938 57.5 160.4875Q57.046875 160.05 56.328125 160.05Q55.5625 160.05 55.109375 160.50313Q54.65625 160.95625 54.640625 161.76875L53.5625 161.65938Q53.671875 160.44063 54.390625 159.81563Q55.125 159.175 56.359375 159.175Q57.59375 159.175 58.3125 159.8625Q59.03125 160.55 59.03125 161.56563Q59.03125 162.08125 58.8125 162.58125Q58.609375 163.06563 58.109375 163.62813Q57.625 164.175 56.5 165.12813Q55.546875 165.925 55.265625 166.22188Q55.0 166.50313 54.828125 166.78438L59.046875 166.78438ZM64.46875 167.8L63.421875 167.8L63.421875 161.08125Q63.03125 161.44063 62.40625 161.81563Q61.796875 162.175 61.3125 162.34688L61.3125 161.33125Q62.1875 160.90938 62.84375 160.33125Q63.515625 159.7375 63.796875 159.175L64.46875 159.175L64.46875 167.8ZM67.5 163.56563Q67.5 162.03438 67.8125 161.1125Q68.125 160.175 68.734375 159.675Q69.359375 159.175 70.296875 159.175Q70.984375 159.175 71.5 159.45625Q72.03125 159.7375 72.375 160.26875Q72.71875 160.78438 72.90625 161.53438Q73.09375 162.28438 73.09375 163.56563Q73.09375 165.08125 72.78125 166.00313Q72.484375 166.925 71.859375 167.44063Q71.25 167.94063 70.296875 167.94063Q69.0625 167.94063 68.34375 167.05Q67.5 165.9875 67.5 163.56563ZM68.578125 163.56563Q68.578125 165.675 69.078125 166.37813Q69.578125 167.08125 70.296875 167.08125Q71.03125 167.08125 71.515625 166.37813Q72.015625 165.675 72.015625 163.56563Q72.015625 161.44063 71.515625 160.75313Q71.03125 160.05 70.28125 160.05Q69.5625 160.05 69.125 160.65938Q68.578125 161.44063 68.578125 163.56563Z" fill-rule="nonzero"/><path fill="#000000" d="M59.046875 134.18437L59.046875 135.2L53.359375 135.2Q53.359375 134.825 53.484375 134.46562Q53.703125 133.8875 54.171875 133.325Q54.65625 132.7625 55.5625 132.02812Q56.96875 130.87187 57.453125 130.2Q57.953125 129.52812 57.953125 128.93437Q57.953125 128.30937 57.5 127.8875Q57.046875 127.45 56.328125 127.45Q55.5625 127.45 55.109375 127.90312Q54.65625 128.35625 54.640625 129.16875L53.5625 129.05937Q53.671875 127.84062 54.390625 127.21562Q55.125 126.575 56.359375 126.575Q57.59375 126.575 58.3125 127.2625Q59.03125 127.95 59.03125 128.96562Q59.03125 129.48125 58.8125 129.98125Q58.609375 130.46562 58.109375 131.02812Q57.625 131.575 56.5 132.52812Q55.546875 133.325 55.265625 133.62187Q55.0 133.90312 54.828125 134.18437L59.046875 134.18437ZM63.875 135.2L63.875 133.1375L60.15625 133.1375L60.15625 132.16875L64.078125 126.60625L64.9375 126.60625L64.9375 132.16875L66.09375 132.16875L66.09375 133.1375L64.9375 133.1375L64.9375 135.2L63.875 135.2ZM63.875 132.16875L63.875 128.30937L61.1875 132.16875L63.875 132.16875ZM67.5 130.96562Q67.5 129.43437 67.8125 128.5125Q68.125 127.575 68.734375 127.075Q69.359375 126.575 70.296875 126.575Q70.984375 126.575 71.5 126.85625Q72.03125 127.1375 72.375 127.66875Q72.71875 128.18437 72.90625 128.93437Q73.09375 129.68437 73.09375 130.96562Q73.09375 132.48125 72.78125 133.40312Q72.484375 134.325 71.859375 134.84062Q71.25 135.34062 70.296875 135.34062Q69.0625 135.34062 68.34375 134.45Q67.5 133.3875 67.5 130.96562ZM68.578125 130.96562Q68.578125 133.075 69.078125 133.77812Q69.578125 134.48125 70.296875 134.48125Q71.03125 134.48125 71.515625 133.77812Q72.015625 133.075 72.015625 130.96562Q72.015625 128.84062 71.515625 128.15312Q71.03125 127.45 70.28125 127.45Q69.5625 127.45 69.125 128.05937Q68.578125 128.84062 68.578125 130.96562Z" fill-rule="nonzero"/><path fill="#000000" d="M59.046875 101.58437L59.046875 102.6L53.359375 102.6Q53.359375 102.225 53.484375 101.86562Q53.703125 101.2875 54.171875 100.725Q54.65625 100.1625 55.5625 99.42812Q56.96875 98.27187 57.453125 97.6Q57.953125 96.92812 57.953125 96.33437Q57.953125 95.70937 57.5 95.2875Q57.046875 94.85 56.328125 94.85Q55.5625 94.85 55.109375 95.30312Q54.65625 95.75625 54.640625 96.56875L53.5625 96.45937Q53.671875 95.24062 54.390625 94.61562Q55.125 93.975 56.359375 93.975Q57.59375 93.975 58.3125 94.6625Q59.03125 95.35 59.03125 96.36562Q59.03125 96.88125 58.8125 97.38125Q58.609375 97.86562 58.109375 98.42812Q57.625 98.975 56.5 99.92812Q55.546875 100.725 55.265625 101.02187Q55.0 101.30312 54.828125 101.58437L59.046875 101.58437ZM60.5625 95.13125L60.5625 94.11562L66.125 94.11562L66.125 94.94375Q65.3125 95.81875 64.5 97.27187Q63.703125 98.70937 63.265625 100.24062Q62.9375 101.31875 62.859375 102.6L61.765625 102.6Q61.78125 101.58437 62.15625 100.14687Q62.546875 98.70937 63.25 97.38125Q63.96875 96.05312 64.78125 95.13125L60.5625 95.13125ZM67.5 98.36562Q67.5 96.83437 67.8125 95.9125Q68.125 94.975 68.734375 94.475Q69.359375 93.975 70.296875 93.975Q70.984375 93.975 71.5 94.25625Q72.03125 94.5375 72.375 95.06875Q72.71875 95.58437 72.90625 96.33437Q73.09375 97.08437 73.09375 98.36562Q73.09375 99.88125 72.78125 100.80312Q72.484375 101.725 71.859375 102.24062Q71.25 102.74062 70.296875 102.74062Q69.0625 102.74062 68.34375 101.85Q67.5 100.7875 67.5 98.36562ZM68.578125 98.36562Q68.578125 100.475 69.078125 101.17812Q69.578125 101.88125 70.296875 101.88125Q71.03125 101.88125 71.515625 101.17812Q72.015625 100.475 72.015625 98.36562Q72.015625 96.24062 71.515625 95.55312Q71.03125 94.85 70.28125 94.85Q69.5625 94.85 69.125 95.45937Q68.578125 96.24062 68.578125 98.36562Z" fill-rule="nonzero"/><path fill="#000000" d="M53.5 67.734375L54.5625 67.59375Q54.734375 68.484375 55.171875 68.890625Q55.609375 69.28125 56.234375 69.28125Q56.984375 69.28125 57.5 68.765625Q58.015625 68.25 58.015625 67.484375Q58.015625 66.765625 57.53125 66.296875Q57.0625 65.8125 56.328125 65.8125Q56.03125 65.8125 55.578125 65.9375L55.703125 65.0Q55.8125 65.015625 55.875 65.015625Q56.546875 65.015625 57.078125 64.671875Q57.625 64.3125 57.625 63.578125Q57.625 63.0 57.234375 62.625Q56.84375 62.234375 56.21875 62.234375Q55.609375 62.234375 55.1875 62.625Q54.78125 63.015625 54.671875 63.78125L53.609375 63.59375Q53.796875 62.546875 54.484375 61.96875Q55.171875 61.375 56.1875 61.375Q56.890625 61.375 57.484375 61.6875Q58.078125 61.984375 58.390625 62.5Q58.703125 63.015625 58.703125 63.609375Q58.703125 64.15625 58.40625 64.625Q58.109375 65.078125 57.53125 65.34375Q58.28125 65.515625 58.703125 66.078125Q59.125 66.625 59.125 67.46875Q59.125 68.59375 58.296875 69.375Q57.484375 70.15625 56.234375 70.15625Q55.109375 70.15625 54.359375 69.484375Q53.609375 68.796875 53.5 67.734375ZM60.5 65.765625Q60.5 64.234375 60.8125 63.3125Q61.125 62.375 61.734375 61.875Q62.359375 61.375 63.296875 61.375Q63.984375 61.375 64.5 61.65625Q65.03125 61.9375 65.375 62.46875Q65.71875 62.984375 65.90625 63.734375Q66.09375 64.484375 66.09375 65.765625Q66.09375 67.28125 65.78125 68.203125Q65.484375 69.125 64.859375 69.640625Q64.25 70.140625 63.296875 70.140625Q62.0625 70.140625 61.34375 69.25Q60.5 68.1875 60.5 65.765625ZM61.578125 65.765625Q61.578125 67.875 62.078125 68.578125Q62.578125 69.28125 63.296875 69.28125Q64.03125 69.28125 64.515625 68.578125Q65.015625 67.875 65.015625 65.765625Q65.015625 63.640625 64.515625 62.953125Q64.03125 62.25 63.28125 62.25Q62.5625 62.25 62.125 62.859375Q61.578125 63.640625 61.578125 65.765625ZM67.5 65.765625Q67.5 64.234375 67.8125 63.3125Q68.125 62.375 68.734375 61.875Q69.359375 61.375 70.296875 61.375Q70.984375 61.375 71.5 61.65625Q72.03125 61.9375 72.375 62.46875Q72.71875 62.984375 72.90625 63.734375Q73.09375 64.484375 73.09375 65.765625Q73.09375 67.28125 72.78125 68.203125Q72.484375 69.125 71.859375 69.640625Q71.25 70.140625 70.296875 70.140625Q69.0625 70.140625 68.34375 69.25Q67.5 68.1875 67.5 65.765625ZM68.578125 65.765625Q68.578125 67.875 69.078125 68.578125Q69.578125 69.28125 70.296875 69.28125Q71.03125 69.28125 71.515625 68.578125Q72.015625 67.875 72.015625 65.765625Q72.015625 63.640625 71.515625 62.953125Q71.03125 62.25 70.28125 62.25Q69.5625 62.25 69.125 62.859375Q68.578125 63.640625 68.578125 65.765625Z" fill-rule="nonzero"/><path fill="#757575" d="M26.1875 40.0L26.1875 27.375L21.46875 27.375L21.46875 25.6875L32.8125 25.6875L32.8125 27.375L28.078125 27.375L28.078125 40.0L26.1875 40.0ZM33.671875 34.8125Q33.671875 31.9375 35.265625 30.546875Q36.609375 29.390625 38.53125 29.390625Q40.671875 29.390625 42.015625 30.796875Q43.375 32.203125 43.375 34.671875Q43.375 36.671875 42.78125 37.828125Q42.1875 38.96875 41.03125 39.609375Q39.890625 40.234375 38.53125 40.234375Q36.34375 40.234375 35.0 38.84375Q33.671875 37.4375 33.671875 34.8125ZM35.46875 34.8125Q35.46875 36.8125 36.328125 37.796875Q37.203125 38.78125 38.53125 38.78125Q39.84375 38.78125 40.703125 37.796875Q41.578125 36.796875 41.578125 34.75Q41.578125 32.828125 40.703125 31.84375Q39.828125 30.84375 38.53125 30.84375Q37.203125 30.84375 36.328125 31.84375Q35.46875 32.828125 35.46875 34.8125ZM49.15625 38.421875L49.40625 39.984375Q48.671875 40.140625 48.078125 40.140625Q47.125 40.140625 46.59375 39.84375Q46.078125 39.53125 45.859375 39.046875Q45.640625 38.546875 45.640625 36.96875L45.640625 31.0L44.359375 31.0L44.359375 29.625L45.640625 29.625L45.640625 27.0625L47.390625 26.0L47.390625 29.625L49.15625 29.625L49.15625 31.0L47.390625 31.0L47.390625 37.0625Q47.390625 37.8125 47.484375 38.03125Q47.578125 38.234375 47.78125 38.375Q48.0 38.5 48.390625 38.5Q48.671875 38.5 49.15625 38.421875ZM58.09375 38.71875Q57.109375 39.546875 56.203125 39.890625Q55.296875 40.234375 54.265625 40.234375Q52.5625 40.234375 51.640625 39.40625Q50.71875 38.5625 50.71875 37.265625Q50.71875 36.5 51.0625 35.875Q51.421875 35.25 51.984375 34.875Q52.546875 34.484375 53.25 34.28125Q53.765625 34.15625 54.8125 34.015625Q56.9375 33.765625 57.9375 33.421875Q57.953125 33.0625 57.953125 32.953125Q57.953125 31.890625 57.453125 31.4375Q56.78125 30.84375 55.453125 30.84375Q54.203125 30.84375 53.609375 31.28125Q53.03125 31.71875 52.75 32.828125L51.03125 32.59375Q51.265625 31.484375 51.796875 30.8125Q52.328125 30.125 53.34375 29.765625Q54.359375 29.390625 55.703125 29.390625Q57.03125 29.390625 57.859375 29.703125Q58.6875 30.015625 59.078125 30.5Q59.46875 30.96875 59.625 31.6875Q59.71875 32.140625 59.71875 33.3125L59.71875 35.65625Q59.71875 38.109375 59.828125 38.765625Q59.9375 39.40625 60.28125 40.0L58.4375 40.0Q58.171875 39.453125 58.09375 38.71875ZM57.9375 34.796875Q56.984375 35.1875 55.0625 35.453125Q53.984375 35.609375 53.53125 35.8125Q53.09375 36.0 52.84375 36.375Q52.59375 36.75 52.59375 37.21875Q52.59375 37.921875 53.125 38.390625Q53.65625 38.859375 54.6875 38.859375Q55.703125 38.859375 56.484375 38.421875Q57.28125 37.96875 57.65625 37.203125Q57.9375 36.59375 57.9375 35.4375L57.9375 34.796875ZM62.28125 40.0L62.28125 25.6875L64.03125 25.6875L64.03125 40.0L62.28125 40.0Z" fill-rule="nonzero"/></svg>